<?xml version="1.0" encoding="utf-8"?>
<!-- Generator: Adobe Illustrator 21.0.0, SVG Export Plug-In . SVG Version: 6.00 Build 0)  -->
<svg version="1.1" id="Layer_1" xmlns="http://www.w3.org/2000/svg" xmlns:xlink="http://www.w3.org/1999/xlink" x="0px" y="0px"
	 viewBox="0 0 396 261" style="enable-background:new 0 0 396 261;" xml:space="preserve">
<style type="text/css">
	.st0{font-family:'OpenSans-Light';}
	.st1{font-size:48.4623px;}
	.st2{clip-path:url(#SVGID_2_);}
	.st3{fill:#FFBC00;}
	.st4{fill:#FF9B00;}
	.st5{fill:#FF7300;}
	.st6{fill:#FF4C0C;}
	.st7{fill:#FF3615;}
</style>
<g>
	<text transform="matrix(1 0 0 1 133.7544 226.4458)" class="st0 st1">Oops!</text>
	<g>
		<g>
			<defs>
				<path id="SVGID_1_" d="M244.8,134.4c-12.6,12.6-28.4,19.1-46.8,19.1c-18.6,0-34.4-6.4-47-19.1c-12.6-12.6-18.9-28.2-18.9-47
					c0-18.4,6.4-33.9,19.1-46.6c12.9-12.9,28.4-19.3,46.8-19.3s34.2,6.4,46.8,19.1c12.6,12.6,19.1,28.4,19.1,46.8
					C263.9,106,257.5,121.8,244.8,134.4z"/>
			</defs>
			<clipPath id="SVGID_2_">
				<use xlink:href="#SVGID_1_"  style="overflow:visible;"/>
			</clipPath>
			<g class="st2">
				<rect x="67.7" y="19" class="st3" width="260.6" height="27.5"/>
				<rect x="67.7" y="46.5" class="st4" width="260.6" height="27.5"/>
				<rect x="67.7" y="74.1" class="st5" width="260.6" height="27.5"/>
				<rect x="67.7" y="101.6" class="st6" width="260.6" height="27.5"/>
				<rect x="67.7" y="128.5" class="st7" width="260.6" height="27.5"/>
			</g>
		</g>
		<g>
			<path d="M75.9,152.2V122H19.8v-19.3l47.9-77.2H104v74.3h15.2V122H104v30.2H75.9z"/>
		</g>
		<g>
			<path d="M332.9,152.2V122h-56.1v-19.3l47.9-77.2H361v74.3h15.2V122H361v30.2H332.9z"/>
		</g>
	</g>
</g>
</svg>
