<?xml version="1.0" encoding="utf-8"?>
<!-- Generator: Adobe Illustrator 21.0.0, SVG Export Plug-In . SVG Version: 6.00 Build 0)  -->
<svg version="1.1" id="Layer_1" xmlns="http://www.w3.org/2000/svg" xmlns:xlink="http://www.w3.org/1999/xlink" x="0px" y="0px"
	 viewBox="0 0 50 50" style="enable-background:new 0 0 50 50;" xml:space="preserve">
<style type="text/css">
	.st0{clip-path:url(#SVGID_2_);}
	.st1{fill:#FFBC00;}
	.st2{fill:#FF9B00;}
	.st3{fill:#FF7300;}
	.st4{fill:#FF4C0C;}
	.st5{fill:#FF3615;}
	.st6{fill:#FFFFFF;}
</style>
<g>
	<defs>
		<path id="SVGID_1_" d="M41.7,41.7c-4.5,4.5-10.1,6.8-16.7,6.8c-6.6,0-12.3-2.3-16.8-6.8S1.5,31.7,1.5,25c0-6.6,2.3-12.1,6.8-16.6
			C12.9,3.8,18.4,1.5,25,1.5s12.2,2.3,16.7,6.8c4.5,4.5,6.8,10.1,6.8,16.7C48.5,31.6,46.2,37.2,41.7,41.7z"/>
	</defs>
	<clipPath id="SVGID_2_">
		<use xlink:href="#SVGID_1_"  style="overflow:visible;"/>
	</clipPath>
	<g class="st0">
		<rect x="-21.5" y="0.6" class="st1" width="92.9" height="9.8"/>
		<rect x="-21.5" y="10.4" class="st2" width="92.9" height="9.8"/>
		<rect x="-21.5" y="20.2" class="st3" width="92.9" height="9.8"/>
		<rect x="-21.5" y="30" class="st4" width="92.9" height="9.8"/>
		<rect x="-21.5" y="39.6" class="st5" width="92.9" height="9.8"/>
	</g>
</g>
<g>
	<g>
		<path class="st6" d="M23,37.4C22.9,37.4,22.9,37.4,23,37.4c-0.9,0.1-1.8-0.2-2.5-0.8l-9.2-8.1c-1.3-1.2-1.5-3.2-0.3-4.6
			c1.2-1.3,3.2-1.5,4.6-0.3l6.6,5.8l11.9-15.5c1.1-1.4,3.1-1.7,4.5-0.6c1.4,1.1,1.7,3.1,0.6,4.5l-14,18.3
			C24.6,36.8,23.8,37.3,23,37.4z"/>
	</g>
</g>
</svg>
