<?xml version="1.0" encoding="utf-8"?>
<!-- Generator: Adobe Illustrator 21.0.0, SVG Export Plug-In . SVG Version: 6.00 Build 0)  -->
<svg version="1.1" id="Layer_1" xmlns="http://www.w3.org/2000/svg" xmlns:xlink="http://www.w3.org/1999/xlink" x="0px" y="0px"
	 viewBox="0 0 1032 644" style="enable-background:new 0 0 1032 644;" xml:space="preserve">
<style type="text/css">
	.st0{clip-path:url(#SVGID_2_);}
	.st1{fill:#FFBC00;}
	.st2{fill:#FF9B00;}
	.st3{fill:#FF7300;}
	.st4{fill:#FF4C0C;}
	.st5{fill:#FF3615;}
	.st6{fill:#FFFFFF;}
</style>
<g>
	<defs>
		<path id="SVGID_1_" d="M941.1,435.9c-47.2,47.2-106,71.2-174.7,71.2c-69.5,0-128.3-24-175.5-71.2
			c-47.2-47.2-70.4-105.1-70.4-175.5c0-68.7,24-126.7,71.2-173.8c48-48,106-72,174.7-72s127.5,24,174.7,71.2
			c47.2,47.2,71.2,106,71.2,174.7C1012.3,329.9,988.3,388.7,941.1,435.9z"/>
	</defs>
	<clipPath id="SVGID_2_">
		<use xlink:href="#SVGID_1_"  style="overflow:visible;"/>
	</clipPath>
	<g class="st0">
		<rect x="280.2" y="5.1" class="st1" width="972.4" height="102.8"/>
		<rect x="280.2" y="107.8" class="st2" width="972.4" height="102.8"/>
		<rect x="280.2" y="210.6" class="st3" width="972.4" height="102.8"/>
		<rect x="280.2" y="313.4" class="st4" width="972.4" height="102.8"/>
		<rect x="280.2" y="413.8" class="st5" width="972.4" height="102.8"/>
	</g>
</g>
<g>
	<path class="st6" d="M327,487.3h-126l-73.5-123.5v123.5H20.2V31.1l128.4,0.8c42.8,0.8,79.9,16.1,109.8,46
		c29.9,29.9,45.2,67,45.2,109.8c0,58.9-25.8,103.3-76.7,133.2L327,487.3z"/>
</g>
<g>
	<path class="st6" d="M477.9,487.3H370.5V31.1h107.4V487.3z"/>
</g>
<g>
	<g>
		<path class="st6" d="M113.2,595.6v-49.1c0-7.3-1.4-12.6-4.3-16c-2.8-3.3-7.2-5-13.1-5c-7.7,0-13.3,2.1-17,6.3
			c-3.7,4.2-5.5,10.8-5.5,19.9v43.8h-6.9v-51.1c0-12.6-5.8-18.9-17.3-18.9c-7.8,0-13.6,2.3-17.1,6.8c-3.6,4.6-5.4,11.9-5.4,21.9
			v41.3h-6.8v-74.8h5.6l1.4,10.3h0.4c2.1-3.7,5-6.6,8.8-8.6c3.8-2,8-3.1,12.6-3.1c11.8,0,19.4,4.4,22.7,13.3h0.3
			c2.4-4.3,5.7-7.5,9.8-9.8c4.1-2.3,8.8-3.4,14-3.4c8.2,0,14.3,2.2,18.4,6.5c4.1,4.4,6.1,11.3,6.1,20.8v48.9H113.2z"/>
	</g>
	<g>
		<path class="st6" d="M189.5,595.6l-1.7-11.8h-0.6c-3.8,4.8-7.6,8.2-11.6,10.2c-4,2-8.7,3-14.1,3c-7.3,0-13-1.9-17.1-5.6
			c-4.1-3.8-6.1-9-6.1-15.6c0-7.3,3-13,9.1-17c6.1-4,14.9-6.2,26.4-6.4l14.2-0.4v-5c0-7.1-1.4-12.5-4.3-16.1
			c-2.9-3.6-7.5-5.4-14-5.4c-6.9,0-14.1,1.9-21.5,5.8l-2.5-5.9c8.2-3.9,16.3-5.8,24.4-5.8c8.2,0,14.3,2.1,18.4,6.4
			c4.1,4.3,6.1,10.9,6.1,20v49.7H189.5z M162,590.8c8,0,14.3-2.3,18.9-6.8c4.6-4.6,6.9-10.9,6.9-19v-7.4l-13.1,0.6
			c-10.5,0.5-18,2.1-22.5,4.9c-4.5,2.8-6.7,7.1-6.7,13c0,4.7,1.4,8.3,4.3,10.9C152.7,589.5,156.8,590.8,162,590.8z"/>
	</g>
	<g>
		<path class="st6" d="M277.1,520.8v4.7l-15.5,1c4.1,5.1,6.2,10.8,6.2,16.9c0,7.2-2.4,13-7.2,17.5c-4.8,4.5-11.2,6.7-19.3,6.7
			c-3.4,0-5.8-0.1-7.2-0.4c-2.7,1.4-4.8,3.1-6.2,5c-1.4,1.9-2.1,4-2.1,6.1c0,2.4,0.9,4.1,2.7,5.2c1.8,1.1,4.9,1.7,9.1,1.7h13.1
			c8.1,0,14.3,1.6,18.6,4.9c4.3,3.3,6.5,8.1,6.5,14.6c0,7.9-3.2,14-9.6,18.3c-6.4,4.3-15.5,6.4-27.3,6.4c-9.4,0-16.7-1.8-21.8-5.4
			c-5.2-3.6-7.7-8.7-7.7-15.1c0-5.1,1.6-9.4,4.8-12.8c3.2-3.4,7.5-5.7,13-6.9c-2.2-1-4-2.3-5.4-4.1c-1.4-1.8-2-3.8-2-6.1
			c0-5,3.2-9.4,9.6-13.2c-4.4-1.8-7.8-4.6-10.2-8.4c-2.4-3.8-3.6-8.2-3.6-13.2c0-7.5,2.4-13.5,7.1-18c4.7-4.5,11.2-6.8,19.2-6.8
			c4.9,0,8.7,0.5,11.4,1.4H277.1z M216.6,608.3c0,10.3,7.6,15.4,22.9,15.4c19.6,0,29.4-6.3,29.4-18.8c0-4.5-1.5-7.8-4.6-9.8
			c-3.1-2-8-3-14.9-3h-12.2C223.4,592.1,216.6,597.5,216.6,608.3z M222.3,544.2c0,5.8,1.8,10.3,5.3,13.5c3.5,3.2,8.2,4.8,14.1,4.8
			c6.2,0,11-1.6,14.3-4.7c3.3-3.2,5-7.8,5-13.8c0-6.4-1.7-11.2-5.1-14.3c-3.4-3.2-8.2-4.8-14.3-4.8c-6,0-10.7,1.7-14.1,5.1
			C224,533.3,222.3,538.1,222.3,544.2z"/>
	</g>
	<g>
		<path class="st6" d="M337.9,595.6l-1.7-11.8h-0.6c-3.8,4.8-7.6,8.2-11.6,10.2c-4,2-8.7,3-14.1,3c-7.3,0-13-1.9-17.1-5.6
			c-4.1-3.8-6.1-9-6.1-15.6c0-7.3,3-13,9.1-17c6.1-4,14.9-6.2,26.4-6.4l14.2-0.4v-5c0-7.1-1.4-12.5-4.3-16.1
			c-2.9-3.6-7.5-5.4-14-5.4c-6.9,0-14.1,1.9-21.5,5.8l-2.5-5.9c8.2-3.9,16.3-5.8,24.4-5.8c8.2,0,14.3,2.1,18.4,6.4
			c4.1,4.3,6.1,10.9,6.1,20v49.7H337.9z M310.3,590.8c8,0,14.3-2.3,18.9-6.8c4.6-4.6,6.9-10.9,6.9-19v-7.4l-13.1,0.6
			c-10.5,0.5-18,2.1-22.5,4.9c-4.5,2.8-6.7,7.1-6.7,13c0,4.7,1.4,8.3,4.3,10.9C301.1,589.5,305.1,590.8,310.3,590.8z"/>
	</g>
	<g>
		<path class="st6" d="M413.6,595.6h-53.4v-4.3l44.4-64.4h-41.1v-6.1h50v4.3l-44.7,64.4h44.8V595.6z"/>
	</g>
	<g>
		<path class="st6" d="M431.1,500.1c0-4.4,1.4-6.6,4.3-6.6c1.4,0,2.5,0.6,3.3,1.7c0.8,1.1,1.2,2.8,1.2,4.9c0,2.1-0.4,3.7-1.2,4.9
			c-0.8,1.2-1.9,1.8-3.3,1.8C432.5,506.7,431.1,504.5,431.1,500.1z M438.9,595.6h-6.8v-74.8h6.8V595.6z"/>
	</g>
	<g>
		<path class="st6" d="M516.1,595.6v-48.5c0-7.5-1.6-13-4.7-16.4c-3.2-3.4-8.1-5.1-14.7-5.1c-8.9,0-15.5,2.3-19.6,6.8
			c-4.2,4.5-6.2,11.8-6.2,22v41.3h-6.8v-74.8h5.8l1.3,10.3h0.4c4.9-7.8,13.5-11.7,25.9-11.7c17,0,25.5,9.1,25.5,27.3v48.9H516.1z"/>
	</g>
	<g>
		<path class="st6" d="M577.2,597c-10.9,0-19.3-3.3-25.4-10c-6.1-6.7-9.1-16.1-9.1-28.1c0-11.9,2.9-21.5,8.8-28.7
			c5.9-7.2,13.8-10.8,23.7-10.8c8.8,0,15.8,3.1,20.8,9.2c5.1,6.1,7.6,14.5,7.6,25v5.5h-53.9c0.1,10.3,2.5,18.1,7.2,23.5
			c4.7,5.4,11.4,8.1,20.2,8.1c4.3,0,8-0.3,11.2-0.9c3.2-0.6,7.3-1.9,12.3-3.9v6.2c-4.2,1.8-8.1,3.1-11.7,3.7
			C585.5,596.7,581.5,597,577.2,597z M575.2,525.4c-7.2,0-13,2.4-17.3,7.1c-4.4,4.7-6.9,11.6-7.6,20.5h46.2c0-8.7-1.9-15.4-5.6-20.3
			S581.9,525.4,575.2,525.4z"/>
	</g>
</g>
</svg>
