<svg xmlns="http://www.w3.org/2000/svg" xmlns:xlink="http://www.w3.org/1999/xlink" viewBox="0 0 481.94 481.72"><defs><style>.cls-1{fill:none;}.cls-2{clip-path:url(#clip-path);}.cls-3{fill:#ed1e24;}.cls-4{fill:#f17b37;}.cls-5{fill:#f4ea12;}.cls-6{fill:#32b44a;}.cls-7{fill:#2f419a;}.cls-8{fill:#704099;}.cls-9{fill:#282828;}</style><clipPath id="clip-path"><path class="cls-1" d="M203.87,396l73.36-85.53s39.74-2.82,81.38,34,97,32.2,119.35,21.19l-94.51,90.89S347.76,470.9,306,454.25,271.1,403.89,203.87,396Z"/></clipPath></defs><title>qmag-icon</title><g id="Layer_2" data-name="Layer 2"><g id="Layer_4" data-name="Layer 4"><g class="cls-2"><path class="cls-3" d="M238.07,318.42c2.66.45,14.57-4.54,17.53-5.17a127,127,0,0,1,47.14-1.37c39.33,6.63,51.94,31.28,80.94,46.92,28.27,15.26,66.05,18.2,98.26,6.82C461.33,383.89,435,400.8,400.8,406.37c-33.49,5.45-65.48-6.06-84.44-24.28C289.68,356.46,290.55,327.4,238.07,318.42Z"/><path class="cls-4" d="M223.68,333.41c2.66.45,14.57-4.54,17.53-5.17a127,127,0,0,1,47.14-1.37c39.33,6.63,51.94,31.28,80.94,46.92,28.27,15.25,66,18.19,98.26,6.82-20.61,18.27-46.94,35.18-81.14,40.75-33.49,5.45-65.48-6.07-84.44-24.28C275.29,371.45,276.16,342.39,223.68,333.41Z"/><path class="cls-5" d="M205.63,348c2.66.46,14.57-4.53,17.54-5.17a127.23,127.23,0,0,1,47.14-1.36c39.33,6.63,51.94,31.27,80.93,46.92,28.28,15.25,66.05,18.19,98.27,6.82-20.61,18.27-46.94,35.18-81.15,40.75-33.49,5.45-65.48-6.07-84.44-24.28C257.25,386,258.11,357,205.63,348Z"/><path class="cls-6" d="M189.69,362.85c2.65.45,14.56-4.53,17.53-5.17a127,127,0,0,1,47.14-1.37c39.33,6.63,51.94,31.28,80.93,46.92,28.28,15.26,75.59,15.87,107.8,4.5-20.61,18.27-56.47,37.5-90.68,43.07-33.49,5.45-65.48-6.06-84.43-24.28C241.3,400.89,242.17,371.84,189.69,362.85Z"/><path class="cls-7" d="M176.5,377.84c2.65.45,14.56-4.54,17.53-5.17a127,127,0,0,1,47.14-1.37c39.33,6.63,51.94,31.28,80.93,46.92,28.28,15.26,66.06,18.2,98.27,6.82-20.61,18.27-46.94,35.18-81.15,40.75-33.49,5.45-65.48-6.06-84.43-24.28C228.11,415.88,229,386.82,176.5,377.84Z"/><path class="cls-8" d="M161.93,392.41c2.66.45,14.56-4.54,17.53-5.17a127,127,0,0,1,47.14-1.37c39.33,6.63,51.94,31.28,80.94,46.92,28.27,15.25,66,18.19,98.26,6.82-20.61,18.27-46.94,35.18-81.15,40.75-33.48,5.45-65.48-6.07-84.43-24.28C213.54,430.45,214.41,401.39,161.93,392.41Z"/></g><path class="cls-9" d="M227.81,416a39.42,39.42,0,0,1-16.27,3.63c-48,0-87-92.45-87-206.48S163.5,6.65,211.54,6.65s87,92.44,87,206.47a460.72,460.72,0,0,1-6.85,80.42c-.11.65-.24,1.29-.35,1.94a116.9,116.9,0,0,1,19.09,1.58c35.1,5.92,48.92,26.18,72.1,41.59a213.25,213.25,0,0,0,40.57-125.53C423.08,95.42,328.37,0,211.54,0S0,95.42,0,213.12,94.71,426.24,211.54,426.24a212.61,212.61,0,0,0,22.55-1.2C231.89,422,229.84,419,227.81,416Z"/></g></g></svg>
