<?xml version="1.0" encoding="utf-8"?>
<!-- Generator: Adobe Illustrator 19.0.0, SVG Export Plug-In . SVG Version: 6.00 Build 0)  -->
<svg version="1.1" id="Layer_1" xmlns="http://www.w3.org/2000/svg" xmlns:xlink="http://www.w3.org/1999/xlink" x="0px" y="0px"
	 viewBox="0 0 400 100" style="enable-background:new 0 0 400 100;" xml:space="preserve">
<style type="text/css">
	.st0{fill:none;}
	.st1{fill:none;stroke:#000000;stroke-miterlimit:10;}
</style>
<symbol  id="Favorite" viewBox="-32 -30.5 64 61">
	<g>
		<path d="M14.7,30.5c0.9,0,1.9,0,2.9-0.1C23.9,29.7,31.1,24,32,13V9.3C31.2-1.2,23.2-14.2,0-30.5C-23.2-14.2-31.2-1.2-32,9.3V13
			c0.9,11,8.1,16.7,14.4,17.4c1,0.1,2,0.1,2.9,0.1c7.2,0,10.7-3.1,14.7-7.9C4,27.4,7.5,30.5,14.7,30.5 M14.7,23.5
			c-4.2,0-5.9-1.3-9.3-5.4L0,11.7l-5.4,6.4c-3.4,4.1-5.2,5.4-9.3,5.4c-0.7,0-1.4,0-2.2-0.1c-2.9-0.3-7.4-3.4-8.1-10.7V9.6
			c0.9-9.2,9.3-19.8,25-31.5C15.7-10.2,24.1,0.4,25,9.6v3.1c-0.7,7.3-5.2,10.4-8.1,10.7C16.1,23.4,15.4,23.5,14.7,23.5L14.7,23.5z"
			/>
	</g>
</symbol>
<rect id="XMLID_2_" x="18.9" y="0" class="st0" width="97.4" height="94.9"/>
<g id="XMLID_13_">
	<path id="XMLID_14_" d="M84.6,13.5c0-0.8,0.7-1,1.4-1c1.7,0,4.5,1.5,7.3,3.9c1,0.8,2,2.2,2,3.3c0,0.7-0.5,1.5-1.6,2.2
		c-2.7,2.5-5.5,4.6-9,7c4.4-0.4,8.8-0.8,13-1.1c2-0.1,3.8-0.6,5.2-1.1c2,0.8,3.9,1.8,8.4,5.5c1.7,1.4,2.8,3.1,2.8,4.4
		c0,1.2-0.6,2.3-3.9,3.3c-5.3,1.6-9.9,2.5-10.9,2.5c-1.1,0-1.5-0.6-1.5-1c0-0.5,0.1-0.9,0.9-2.1c1-1.5,2.1-3.6,2.7-5.4
		c-21.7,0.9-43.7,3.3-65.2,6.4c-0.1,4.4-0.9,7.8-2.3,10.6c-0.9,1.7-2.4,2.6-3.6,2.7c-3.4,0-4.8-3.4-4.8-6.9c0-1.2,0.2-2,1.7-3.7
		c2-2.2,3.5-5.8,3.5-11.1c0-1.6,0.2-2.6,1-2.6c0.5,0,0.9,0.3,1.3,0.8c1.1,1.1,1.9,2.6,2.4,4.2c15.6-1.9,28.4-3.5,42.6-4.8
		c2.4-3.5,4.1-6.3,5.9-10.9c0.5-1.4,0.6-2.3,0.6-3.6V13.5z M75.4,59.1c1.5-0.2,2.8-0.7,4.1-1.7c3.9,1.2,9,4.6,9,7.3
		c0,1-0.7,1.5-1.5,2c-1,0.6-2,1.7-2.8,2.8c-2.2,3.1-4.5,6-7,8.6c5.3,2.7,11.1,5.3,17.5,7.9c7.9,3,11,4.1,14.4,5.4
		c1,0.4,1.7,1.1,1.7,1.8c0,0.9-0.6,1.3-2,1.7c-2.7,0.7-8.1,1.5-13.4,1.5c-3,0-4.2-0.2-6.4-1.7c-5.9-4.1-11.5-8-17-11.9
		c-7.9,6.5-17.3,10.7-28,12.2c-0.6,0.1-1,0.1-1.3,0.1c-1,0-1.2-0.3-1.2-0.9c0-0.8,0.6-1.3,1.5-1.6c7.7-2.9,15.9-7.5,22.8-14.2
		c-3.1-2.1-6.2-4.3-9.4-6.5c-7.4,7.6-16.2,13.7-25.5,17.5c-0.5,0.2-1.1,0.4-2.1,0.4c-0.4,0-1-0.5-1-1.1c0-0.8,0.4-1.2,1.3-1.8
		c10.2-7,20-15.7,24.1-24.7c0.4-0.9,0.6-1.5,0.6-2.4c0-0.6-0.1-1.2-0.2-1.9s-0.2-1.2-0.2-1.7c0-0.6,0.6-0.8,1.3-0.8
		c1.3,0,3.1,0.7,6.3,3.7c0.6,0.6,1,1,1.3,1.4C67,60.1,71.5,59.6,75.4,59.1z M43.3,42.7c0.1-0.8,0.4-1.1,1.1-1.1c0.8,0,3.1,2.6,3.1,6
		c0,7.1-2.1,11.4-5.4,11.4c-2.2,0-4.1-2.1-4.1-4.7c0-1.7,0.7-2.7,2.4-4.7C42.1,47.6,43,45.1,43.3,42.7z M61,18.2
		c-5.2,0.9-10.4,1.4-15.7,1.6c-1.6,0-2.7-0.2-2.7-1.2c0-0.9,0.4-1.3,1.9-1.6c9.1-2,17.4-4.5,25.8-8.4c1.2-0.5,2.4-1.6,3.5-3.3
		c0.5-0.8,0.8-1.2,1.7-1.2c0.9,0,3.1,1.2,5.9,3.8c1.7,1.5,2.4,2.2,2.4,3.4c0,1-0.6,1.7-2.5,2c-6.2,1.8-12.5,3.4-18.7,4.5
		c1.8,0.2,3.9,1.1,6,2.8c1.5,1.1,3.1,3.3,3.1,5.6c0,1.4-0.9,3.1-3,3.1c-1.6,0-2.5-0.9-3.5-2.2c-1.4-1.8-2.8-4.3-4-7.2
		c-0.1-0.3-0.3-0.9-0.3-1.5L61,18.2z M47.7,30c-1.1-1.1-2.4-3.2-3.9-6.1c-0.2-0.4-0.7-1.4-0.7-1.9c0-0.6,0.2-0.9,1.2-0.9
		c2.1,0,5.8,1.4,7.7,3.5c1.3,1.5,2.2,3.2,2.2,4.4c0,1.9-1.4,3-2.8,3S48.9,31.2,47.7,30z M79.4,44.7c-0.2-0.5-0.3-1-0.3-1.3
		s0.3-0.5,0.6-0.5c0.6,0,1.2,0.2,1.6,0.5c2.7,2,4.9,3.6,6.3,5c1.8,1.8,2.4,2.7,2.4,3.5c0,2.5-3.7,4.2-13.6,4.2
		c-11.5,0-21.2-4.3-26-12.4c-0.4-0.7-0.6-1.2-0.6-1.6c0-0.6,0.4-0.9,0.8-0.9s1.1,0.2,1.6,0.6c7.3,5.7,13.1,7.7,21.7,7.7
		c1.9,0,4.2-0.2,6.2-0.7C80.1,47.5,79.8,46,79.4,44.7z M59.8,68.1c3.3,2.1,6.5,4.2,10,6.1c2.6-3,4.9-6.3,6.8-10
		c-4.5,0.4-9.7,1-15.1,1.7C61,66.7,60.4,67.4,59.8,68.1z M73.4,44.8c0,1.9-0.5,2.8-2.7,2.8c-0.7,0-1.9-0.3-3.2-1.2
		c-2.3-1.4-4.7-5.3-4.7-7.4c0-1,0.4-1.2,0.8-1.2c0.5,0,1,0.3,1.6,0.7c1.2,0.8,3,1.7,4.3,2.1c1.1-0.3,2.4-1.1,3.6-1.9
		c0.4-0.3,0.8-0.5,1-0.5c0.4,0,0.6,0.3,0.6,0.6c-0.1,0.6-0.2,1.1-0.4,1.8C73.9,42.3,73.6,43.4,73.4,44.8z M84.4,39.5
		c-0.4-0.5-0.6-0.9-0.6-1.2c0-0.4,0.4-0.8,1.5-0.8c2.2,0,6,1.2,9.2,3.2c2.1,1.4,3.1,2.9,3.1,5c0,2-1.3,3.6-3.2,3.6
		c-0.8,0-2.1-0.5-3.2-1.9C89.2,45,86.7,42.1,84.4,39.5z"/>
</g>
<g id="XMLID_12_">
	<g id="XMLID_10_">
		
			<use xlink:href="#Favorite"  width="64" height="61" id="XMLID_9_" x="-32" y="-30.5" transform="matrix(0.2668 0 0 -0.2668 155.5693 39.4113)" style="overflow:visible;"/>
	</g>
	<g id="XMLID_37_">
		<path id="XMLID_38_" class="st1" d="M153.2,22.9c0,0.6,0.3,0.8,0.8,0.8h9.6c0.9,0,1.4,0.5,1.4,1.3c0,0.8-0.5,1.3-1.4,1.3h-10
			c-2.5,0-3.4-0.8-3.4-3.1V6.7c0-0.9,0.5-1.4,1.5-1.4c1.1,0,1.5,0.5,1.5,1.4V22.9z"/>
		<path id="XMLID_40_" class="st1" d="M162.8,49.7c0.2-0.6,0.7-0.9,1.2-0.9c0.9,0,1.7,0.5,1.7,1.3c0,0.2-0.1,0.5-0.2,0.7l-7.3,17.8
			c-0.4,1-1,1.4-1.9,1.4c-1,0-1.6-0.5-1.9-1.4l-7.1-17.7c-0.1-0.2-0.1-0.5-0.1-0.7c0-0.8,0.8-1.3,1.8-1.3c0.6,0,1,0.3,1.2,0.9
			l4.9,13.1c0.5,1.3,0.8,2.7,1.2,3.9c0.4-1.2,0.8-2.6,1.3-3.9L162.8,49.7z"/>
		<path id="XMLID_42_" class="st1" d="M149.8,76.4c0-2.3,0.8-3.1,3.4-3.1h9.9c0.9,0,1.3,0.4,1.3,1.2c0,0.8-0.5,1.3-1.3,1.3h-9.5
			c-0.5,0-0.8,0.3-0.8,0.8v5.3h7.8c0.9,0,1.4,0.4,1.4,1.2c0,0.8-0.5,1.2-1.4,1.2h-7.8v6.4c0,0.6,0.3,0.8,0.8,0.8h9.9
			c0.9,0,1.4,0.5,1.4,1.3c0,0.8-0.5,1.2-1.4,1.2h-10.3c-2.5,0-3.4-0.8-3.4-3.1V76.4z"/>
	</g>
</g>
<g id="XMLID_3_">
	<path id="XMLID_24_" d="M216.6,27.6c0-2.2,1.2-3.4,3.6-3.4c2.5,0,3.7,1.2,3.7,3.4v31.1c0,7.3-3.7,16.9-16.3,16.9
		c-9.3,0-14.8-3.9-16.8-11.6c-0.1-0.4-0.1-0.8-0.1-1.1c0-2.1,1.8-3.1,4.2-3.1c1.5,0,2.7,0.6,3.2,2.7c1.2,4.7,4.4,7,9.6,7
		c5.5,0,9-3.9,9-11.1V27.6z"/>
	<path id="XMLID_26_" d="M237.5,59.7l-5.3,13.5c-0.6,1.4-1.7,2.1-3.1,2.1c-1.9,0-3.8-1.1-3.8-3.1c0-0.5,0.1-1,0.4-1.7l17.6-42.8
		c1-2.3,2.3-3.5,4.4-3.5c2.3,0,3.7,1.2,4.7,3.5l17.2,42.8c0.3,0.5,0.3,1,0.3,1.4c0,1.8-1.6,3.3-3.9,3.3c-1.4,0-2.6-0.6-3.2-2.1
		l-5.2-13.5H237.5z M255.6,53.9l-4.1-10.7c-1.5-3.8-2.8-7.8-3.8-11.2c-1,3.4-2.3,7.3-3.8,11.2l-4.2,10.7H255.6z"/>
	<path id="XMLID_29_" d="M292.9,24.6c11.4,0,16.5,5.9,16.5,14.6c0,8.5-5.3,14.7-16.6,14.7h-14.2v18c0,2.2-1.2,3.3-3.6,3.3
		s-3.5-1.1-3.5-3.3V32.1c0-5.5,2-7.5,8.2-7.5H292.9z M280.5,30.6c-1.4,0-2,0.6-2,2V48h14.3c6.9,0,9.4-4.2,9.4-8.7
		c0-4.5-2-8.6-9.2-8.6H280.5z"/>
	<path id="XMLID_32_" d="M315.4,59.7l-5.3,13.5c-0.6,1.4-1.7,2.1-3.1,2.1c-1.9,0-3.8-1.1-3.8-3.1c0-0.5,0.1-1,0.4-1.7l17.6-42.8
		c1-2.3,2.3-3.5,4.4-3.5c2.3,0,3.7,1.2,4.7,3.5l17.2,42.8c0.3,0.5,0.3,1,0.3,1.4c0,1.8-1.6,3.3-3.9,3.3c-1.4,0-2.6-0.6-3.2-2.1
		l-5.2-13.5H315.4z M333.5,53.9l-4.1-10.7c-1.5-3.8-2.8-7.8-3.8-11.2c-1,3.4-2.3,7.3-3.8,11.2l-4.2,10.7H333.5z"/>
	<path id="XMLID_35_" d="M389.8,70.8c0,3-1.2,4.5-3.5,4.5c-2.9,0-3.8-1.6-5.5-4.1L361,42.3c-1.8-2.7-3.8-6.4-5.5-9.6
		c0.1,3.4,0.5,7.5,0.6,10.9l0.3,28.3c0,2.2-1.2,3.3-3.6,3.3c-2.3,0-3.4-1.1-3.4-3.3V28.7c0-2.9,1.4-4.4,4.1-4.4c2.9,0,4.2,1.8,5.8,4
		l19.4,28.4c1.9,2.7,3.8,6.9,5.2,9.8c-0.3-3.1-0.7-7.5-0.8-10.9l-0.3-28c0-2.2,1.2-3.4,3.5-3.4c2.4,0,3.6,1.2,3.6,3.4V70.8z"/>
</g>
</svg>
