<?xml version="1.0" encoding="utf-8"?>
<!-- Generator: Adobe Illustrator 24.0.1, SVG Export Plug-In . SVG Version: 6.00 Build 0)  -->
<svg version="1.1" id="Layer_1" xmlns="http://www.w3.org/2000/svg" xmlns:xlink="http://www.w3.org/1999/xlink" x="0px" y="0px"
	 viewBox="0 0 1284 3094" style="enable-background:new 0 0 1284 3094;" xml:space="preserve">
<style type="text/css">
	.st0{fill:#231F20;}
	.st1{fill:none;stroke:#000000;stroke-miterlimit:10;}
</style>
<g>
	<path class="st0" d="M0.1,50.9l7.6-25.8h2.9L3,50.9H0.1z"/>
	<path class="st0" d="M13.9,50.9V25.1h6.5c1.4,0,2.5,0.1,3.5,0.3s1.9,0.6,2.6,1.1c0.8,0.5,1.3,1.2,1.7,2.1s0.6,2,0.6,3.3
		c0,1.7-0.2,3-0.7,4c-0.5,1-1.3,1.8-2.4,2.3l3.6,12.6h-5.4l-3-11.7h-1.8v11.7H13.9z M19.1,36.1h1.3c1.3,0,2.2-0.3,2.7-0.9
		c0.5-0.6,0.8-1.5,0.8-2.9c0-1.3-0.2-2.2-0.7-2.8c-0.5-0.6-1.3-0.9-2.5-0.9h-1.6V36.1z"/>
	<path class="st0" d="M32.3,50.9V25.1h11.2v3.6h-6v6.8h4.7v3.7h-4.7v8.1h6.1v3.6H32.3z"/>
	<path class="st0" d="M45,50.9l5-25.8h5.8l5,25.8H56l-1-5.7h-4.1l-1,5.7H45z M51.4,41.9h3.1l-1.5-10.3L51.4,41.9z"/>
	<path class="st0" d="M63.4,50.9V25.1h6.3c1.6,0,3,0.2,4.1,0.5s2,0.8,2.6,1.5c0.6,0.7,1.1,1.5,1.4,2.5c0.3,1,0.4,2.2,0.4,3.7v9.3
		c0,1.5-0.1,2.8-0.4,3.8c-0.3,1-0.7,1.9-1.4,2.6c-0.6,0.7-1.5,1.2-2.6,1.5c-1.1,0.3-2.4,0.5-4,0.5H63.4z M68.6,47.2h1.1
		c0.4,0,0.7,0,1-0.1c0.3,0,0.5-0.1,0.7-0.2c0.2-0.1,0.4-0.2,0.5-0.3c0.1-0.1,0.3-0.3,0.4-0.5c0.1-0.2,0.2-0.4,0.2-0.6
		c0.1-0.2,0.1-0.4,0.1-0.8c0-0.3,0-0.6,0-0.9c0-0.2,0-0.6,0-1V32.6c0-0.6,0-1.1,0-1.5c0-0.4-0.1-0.7-0.2-1.1
		c-0.1-0.3-0.3-0.6-0.5-0.8c-0.2-0.2-0.5-0.3-0.9-0.4c-0.4-0.1-0.8-0.1-1.4-0.1h-1V47.2z"/>
	<path class="st0" d="M81.7,50.9V25.1h5.2v25.8H81.7z"/>
	<path class="st0" d="M90.8,50.9V25.1h3.7l5.8,13.4V25.1h4.4v25.8h-3.5l-5.8-14.3v14.3H90.8z"/>
	<path class="st0" d="M115,51.3c-1.3,0-2.4-0.2-3.3-0.6c-0.9-0.4-1.6-1-2.2-1.8c-0.5-0.8-0.9-1.7-1.2-2.8s-0.4-2.3-0.4-3.7v-8.5
		c0-1.2,0.1-2.2,0.2-3.1s0.4-1.7,0.8-2.5s0.8-1.4,1.4-1.9c0.6-0.5,1.3-0.9,2.2-1.2c0.9-0.3,1.9-0.4,3-0.4c1.3,0,2.5,0.2,3.5,0.5
		c1,0.3,1.7,0.8,2.3,1.5s1,1.5,1.2,2.4c0.3,0.9,0.4,2,0.4,3.2v1.5h-5.1V32c0-0.5,0-0.9,0-1.2s-0.1-0.6-0.2-0.9
		c-0.1-0.3-0.2-0.6-0.4-0.8c-0.2-0.2-0.4-0.3-0.6-0.5c-0.3-0.1-0.6-0.2-1-0.2c-0.4,0-0.8,0.1-1.1,0.2s-0.5,0.3-0.7,0.5
		c-0.2,0.2-0.3,0.5-0.4,0.9s-0.1,0.7-0.2,1c0,0.3,0,0.7,0,1.2v11.2c0,1.3,0.2,2.2,0.5,2.9c0.3,0.7,1,1,1.9,1c0.9,0,1.6-0.4,2-1.1
		c0.4-0.7,0.6-1.7,0.6-3v-2.5h-2.5v-3.2h7.3v13.3h-3.4l-0.3-2.4C118.5,50.3,117.1,51.3,115,51.3z"/>
	<path class="st0" d="M126.6,50.9V25.1h5.2v22.2h6v3.6H126.6z"/>
	<path class="st0" d="M140.5,50.9V25.1h5.2v25.8H140.5z"/>
	<path class="st0" d="M156.3,51.2c-2.4,0-4.2-0.7-5.4-2c-1.2-1.3-1.8-3.3-1.9-6.1l4.5-0.8c0,1.6,0.2,2.8,0.6,3.6s1,1.2,1.9,1.2
		c0.6,0,1.1-0.2,1.3-0.6c0.3-0.4,0.4-0.9,0.4-1.5c0-1-0.2-1.9-0.7-2.6c-0.4-0.7-1.1-1.5-2.1-2.3l-2.8-2.4c-0.7-0.6-1.3-1.2-1.7-1.7
		c-0.4-0.5-0.8-1.2-1.1-2c-0.3-0.8-0.4-1.7-0.4-2.7c0-2.1,0.6-3.7,1.9-4.9c1.2-1.1,2.9-1.7,5.1-1.7c0.7,0,1.4,0.1,2,0.2
		c0.6,0.1,1.1,0.3,1.5,0.6c0.4,0.2,0.8,0.6,1.1,0.9c0.3,0.4,0.6,0.8,0.8,1.2c0.2,0.4,0.4,0.9,0.5,1.4c0.1,0.5,0.2,1,0.3,1.4
		s0.1,0.9,0.1,1.5l-4.5,0.7c0-0.5,0-1-0.1-1.3c0-0.4-0.1-0.7-0.2-1.1s-0.2-0.7-0.4-0.9c-0.1-0.2-0.3-0.4-0.6-0.5
		c-0.2-0.1-0.5-0.2-0.9-0.2c-0.6,0-1,0.3-1.3,0.7c-0.3,0.4-0.5,0.9-0.5,1.5c0,0.5,0.1,0.9,0.2,1.3c0.1,0.4,0.3,0.7,0.5,1.1
		c0.2,0.3,0.5,0.6,0.7,0.8c0.2,0.2,0.5,0.5,0.9,0.8l2.7,2.4c0.6,0.5,1.1,1,1.5,1.5c0.4,0.5,0.8,1,1.2,1.7s0.7,1.3,0.9,2.1
		c0.2,0.7,0.3,1.5,0.3,2.4c0,1.9-0.6,3.4-1.8,4.6S158.3,51.2,156.3,51.2z"/>
	<path class="st0" d="M168.1,50.9V29H164v-3.9h13.4V29h-4.1v21.9H168.1z"/>
	<path class="st0" d="M178.9,50.9l7.6-25.8h2.9l-7.6,25.8H178.9z"/>
	<path class="st0" d="M192,50.9l7.6-25.8h2.9l-7.6,25.8H192z"/>
	<path class="st0" d="M205.8,50.9V25.1h6.5c1.4,0,2.5,0.1,3.5,0.3s1.9,0.6,2.6,1.1c0.8,0.5,1.3,1.2,1.7,2.1c0.4,0.9,0.6,2,0.6,3.3
		c0,1.7-0.2,3-0.7,4c-0.5,1-1.3,1.8-2.4,2.3l3.6,12.6h-5.4l-3-11.7H211v11.7H205.8z M211,36.1h1.3c1.3,0,2.2-0.3,2.7-0.9
		c0.5-0.6,0.8-1.5,0.8-2.9c0-1.3-0.2-2.2-0.7-2.8c-0.5-0.6-1.3-0.9-2.5-0.9H211V36.1z"/>
	<path class="st0" d="M224.2,50.9V25.1h11.2v3.6h-6v6.8h4.7v3.7h-4.7v8.1h6.1v3.6H224.2z"/>
	<path class="st0" d="M236.9,50.9l5-25.8h5.8l5,25.8h-4.9l-1-5.7h-4.1l-1,5.7H236.9z M243.3,41.9h3.1l-1.5-10.3L243.3,41.9z"/>
	<path class="st0" d="M255.3,50.9V25.1h6.3c1.6,0,3,0.2,4.1,0.5s2,0.8,2.6,1.5c0.6,0.7,1.1,1.5,1.4,2.5c0.3,1,0.4,2.2,0.4,3.7v9.3
		c0,1.5-0.1,2.8-0.4,3.8c-0.3,1-0.7,1.9-1.4,2.6c-0.6,0.7-1.5,1.2-2.6,1.5s-2.4,0.5-4,0.5H255.3z M260.5,47.2h1.1c0.4,0,0.7,0,1-0.1
		c0.3,0,0.5-0.1,0.7-0.2c0.2-0.1,0.4-0.2,0.5-0.3c0.1-0.1,0.3-0.3,0.4-0.5c0.1-0.2,0.2-0.4,0.2-0.6c0.1-0.2,0.1-0.4,0.1-0.8
		c0-0.3,0-0.6,0-0.9s0-0.6,0-1V32.6c0-0.6,0-1.1,0-1.5c0-0.4-0.1-0.7-0.2-1.1c-0.1-0.3-0.3-0.6-0.5-0.8s-0.5-0.3-0.9-0.4
		c-0.4-0.1-0.8-0.1-1.4-0.1h-1V47.2z"/>
	<path class="st0" d="M273.6,50.9V25.1h5.2v25.8H273.6z"/>
	<path class="st0" d="M282.7,50.9V25.1h3.7l5.8,13.4V25.1h4.4v25.8H293l-5.8-14.3v14.3H282.7z"/>
	<path class="st0" d="M306.9,51.3c-1.3,0-2.4-0.2-3.3-0.6c-0.9-0.4-1.6-1-2.2-1.8c-0.5-0.8-0.9-1.7-1.2-2.8
		c-0.2-1.1-0.4-2.3-0.4-3.7v-8.5c0-1.2,0.1-2.2,0.2-3.1c0.2-0.9,0.4-1.7,0.8-2.5c0.4-0.8,0.8-1.4,1.4-1.9c0.6-0.5,1.3-0.9,2.2-1.2
		c0.9-0.3,1.9-0.4,3-0.4c1.3,0,2.5,0.2,3.5,0.5c1,0.3,1.7,0.8,2.3,1.5s1,1.5,1.2,2.4c0.3,0.9,0.4,2,0.4,3.2v1.5h-5.1V32
		c0-0.5,0-0.9,0-1.2c0-0.3-0.1-0.6-0.2-0.9c-0.1-0.3-0.2-0.6-0.4-0.8c-0.2-0.2-0.4-0.3-0.6-0.5c-0.3-0.1-0.6-0.2-1-0.2
		c-0.4,0-0.8,0.1-1.1,0.2c-0.3,0.2-0.5,0.3-0.7,0.5s-0.3,0.5-0.4,0.9s-0.1,0.7-0.2,1c0,0.3,0,0.7,0,1.2v11.2c0,1.3,0.2,2.2,0.5,2.9
		c0.3,0.7,1,1,1.9,1c0.9,0,1.6-0.4,2-1.1c0.4-0.7,0.6-1.7,0.6-3v-2.5h-2.5v-3.2h7.3v13.3h-3.4l-0.3-2.4
		C310.4,50.3,309,51.3,306.9,51.3z"/>
	<path class="st0" d="M318.5,50.9V25.1h5.2v22.2h6v3.6H318.5z"/>
	<path class="st0" d="M332.4,50.9V25.1h5.2v25.8H332.4z"/>
	<path class="st0" d="M348.2,51.2c-2.4,0-4.2-0.7-5.4-2c-1.2-1.3-1.8-3.3-1.9-6.1l4.5-0.8c0,1.6,0.2,2.8,0.6,3.6
		c0.4,0.8,1,1.2,1.9,1.2c0.6,0,1.1-0.2,1.3-0.6c0.3-0.4,0.4-0.9,0.4-1.5c0-1-0.2-1.9-0.7-2.6c-0.4-0.7-1.1-1.5-2.1-2.3l-2.8-2.4
		c-0.7-0.6-1.3-1.2-1.7-1.7c-0.4-0.5-0.8-1.2-1.1-2c-0.3-0.8-0.4-1.7-0.4-2.7c0-2.1,0.6-3.7,1.9-4.9c1.2-1.1,2.9-1.7,5.1-1.7
		c0.7,0,1.4,0.1,2,0.2c0.6,0.1,1.1,0.3,1.5,0.6c0.4,0.2,0.8,0.6,1.1,0.9c0.3,0.4,0.6,0.8,0.8,1.2s0.4,0.9,0.5,1.4
		c0.1,0.5,0.2,1,0.3,1.4c0.1,0.5,0.1,0.9,0.1,1.5l-4.5,0.7c0-0.5,0-1-0.1-1.3c0-0.4-0.1-0.7-0.2-1.1s-0.2-0.7-0.4-0.9
		c-0.1-0.2-0.3-0.4-0.6-0.5c-0.2-0.1-0.5-0.2-0.9-0.2c-0.6,0-1,0.3-1.3,0.7c-0.3,0.4-0.5,0.9-0.5,1.5c0,0.5,0.1,0.9,0.2,1.3
		c0.1,0.4,0.3,0.7,0.5,1.1s0.5,0.6,0.7,0.8c0.2,0.2,0.5,0.5,0.9,0.8l2.7,2.4c0.6,0.5,1.1,1,1.5,1.5c0.4,0.5,0.8,1,1.2,1.7
		s0.7,1.3,0.9,2.1c0.2,0.7,0.3,1.5,0.3,2.4c0,1.9-0.6,3.4-1.8,4.6C351.8,50.6,350.2,51.2,348.2,51.2z"/>
	<path class="st0" d="M360,50.9V29h-4.1v-3.9h13.4V29h-4.1v21.9H360z"/>
	<path class="st0" d="M370.8,50.9l7.6-25.8h2.9l-7.6,25.8H370.8z"/>
	<path class="st0" d="M383.9,50.9l7.6-25.8h2.9l-7.6,25.8H383.9z"/>
	<path class="st0" d="M397.7,50.9V25.1h6.5c1.4,0,2.5,0.1,3.5,0.3s1.9,0.6,2.6,1.1c0.8,0.5,1.3,1.2,1.7,2.1s0.6,2,0.6,3.3
		c0,1.7-0.2,3-0.7,4c-0.5,1-1.3,1.8-2.4,2.3l3.6,12.6h-5.4l-3-11.7h-1.8v11.7H397.7z M402.9,36.1h1.3c1.3,0,2.2-0.3,2.7-0.9
		c0.5-0.6,0.8-1.5,0.8-2.9c0-1.3-0.2-2.2-0.7-2.8c-0.5-0.6-1.3-0.9-2.5-0.9h-1.6V36.1z"/>
	<path class="st0" d="M416.1,50.9V25.1h11.2v3.6h-6v6.8h4.7v3.7h-4.7v8.1h6.1v3.6H416.1z"/>
	<path class="st0" d="M428.8,50.9l5-25.8h5.8l5,25.8h-4.9l-1-5.7h-4.1l-1,5.7H428.8z M435.2,41.9h3.1l-1.5-10.3L435.2,41.9z"/>
	<path class="st0" d="M447.2,50.9V25.1h6.3c1.6,0,3,0.2,4.1,0.5s2,0.8,2.6,1.5s1.1,1.5,1.4,2.5c0.3,1,0.4,2.2,0.4,3.7v9.3
		c0,1.5-0.1,2.8-0.4,3.8c-0.3,1-0.7,1.9-1.4,2.6c-0.6,0.7-1.5,1.2-2.6,1.5s-2.4,0.5-4,0.5H447.2z M452.4,47.2h1.1c0.4,0,0.7,0,1-0.1
		c0.3,0,0.5-0.1,0.7-0.2c0.2-0.1,0.4-0.2,0.5-0.3c0.1-0.1,0.3-0.3,0.4-0.5c0.1-0.2,0.2-0.4,0.2-0.6c0.1-0.2,0.1-0.4,0.1-0.8
		c0-0.3,0-0.6,0-0.9s0-0.6,0-1V32.6c0-0.6,0-1.1,0-1.5c0-0.4-0.1-0.7-0.2-1.1c-0.1-0.3-0.3-0.6-0.5-0.8s-0.5-0.3-0.9-0.4
		c-0.4-0.1-0.8-0.1-1.4-0.1h-1V47.2z"/>
	<path class="st0" d="M465.5,50.9V25.1h5.2v25.8H465.5z"/>
	<path class="st0" d="M474.6,50.9V25.1h3.7l5.8,13.4V25.1h4.4v25.8h-3.5l-5.8-14.3v14.3H474.6z"/>
	<path class="st0" d="M498.8,51.3c-1.3,0-2.4-0.2-3.3-0.6c-0.9-0.4-1.6-1-2.2-1.8c-0.5-0.8-0.9-1.7-1.2-2.8s-0.4-2.3-0.4-3.7v-8.5
		c0-1.2,0.1-2.2,0.2-3.1c0.2-0.9,0.4-1.7,0.8-2.5c0.4-0.8,0.8-1.4,1.4-1.9c0.6-0.5,1.3-0.9,2.2-1.2c0.9-0.3,1.9-0.4,3-0.4
		c1.3,0,2.5,0.2,3.5,0.5c1,0.3,1.7,0.8,2.3,1.5s1,1.5,1.2,2.4c0.3,0.9,0.4,2,0.4,3.2v1.5h-5.1V32c0-0.5,0-0.9,0-1.2
		c0-0.3-0.1-0.6-0.2-0.9c-0.1-0.3-0.2-0.6-0.4-0.8c-0.2-0.2-0.4-0.3-0.6-0.5c-0.3-0.1-0.6-0.2-1-0.2c-0.4,0-0.8,0.1-1.1,0.2
		c-0.3,0.2-0.5,0.3-0.7,0.5c-0.2,0.2-0.3,0.5-0.4,0.9s-0.1,0.7-0.2,1c0,0.3,0,0.7,0,1.2v11.2c0,1.3,0.2,2.2,0.5,2.9
		c0.3,0.7,1,1,1.9,1c0.9,0,1.6-0.4,2-1.1c0.4-0.7,0.6-1.7,0.6-3v-2.5h-2.5v-3.2h7.3v13.3h-3.4l-0.3-2.4
		C502.3,50.3,500.9,51.3,498.8,51.3z"/>
	<path class="st0" d="M510.4,50.9V25.1h5.2v22.2h6v3.6H510.4z"/>
	<path class="st0" d="M524.3,50.9V25.1h5.2v25.8H524.3z"/>
	<path class="st0" d="M540.1,51.2c-2.4,0-4.2-0.7-5.4-2c-1.2-1.3-1.8-3.3-1.9-6.1l4.5-0.8c0,1.6,0.2,2.8,0.6,3.6s1,1.2,1.9,1.2
		c0.6,0,1.1-0.2,1.3-0.6c0.3-0.4,0.4-0.9,0.4-1.5c0-1-0.2-1.9-0.7-2.6c-0.4-0.7-1.1-1.5-2.1-2.3l-2.8-2.4c-0.7-0.6-1.3-1.2-1.7-1.7
		c-0.4-0.5-0.8-1.2-1.1-2c-0.3-0.8-0.4-1.7-0.4-2.7c0-2.1,0.6-3.7,1.9-4.9c1.2-1.1,2.9-1.7,5.1-1.7c0.7,0,1.4,0.1,2,0.2
		c0.6,0.1,1.1,0.3,1.5,0.6c0.4,0.2,0.8,0.6,1.1,0.9c0.3,0.4,0.6,0.8,0.8,1.2c0.2,0.4,0.4,0.9,0.5,1.4c0.1,0.5,0.2,1,0.3,1.4
		s0.1,0.9,0.1,1.5l-4.5,0.7c0-0.5,0-1-0.1-1.3c0-0.4-0.1-0.7-0.2-1.1s-0.2-0.7-0.4-0.9c-0.1-0.2-0.3-0.4-0.6-0.5s-0.5-0.2-0.9-0.2
		c-0.6,0-1,0.3-1.3,0.7c-0.3,0.4-0.5,0.9-0.5,1.5c0,0.5,0.1,0.9,0.2,1.3c0.1,0.4,0.3,0.7,0.5,1.1s0.5,0.6,0.7,0.8
		c0.2,0.2,0.5,0.5,0.9,0.8l2.7,2.4c0.6,0.5,1.1,1,1.5,1.5c0.4,0.5,0.8,1,1.2,1.7c0.4,0.6,0.7,1.3,0.9,2.1c0.2,0.7,0.3,1.5,0.3,2.4
		c0,1.9-0.6,3.4-1.8,4.6C543.7,50.6,542.1,51.2,540.1,51.2z"/>
	<path class="st0" d="M551.9,50.9V29h-4.1v-3.9h13.4V29h-4.1v21.9H551.9z"/>
	<path class="st0" d="M562.7,50.9l7.6-25.8h2.9l-7.6,25.8H562.7z"/>
	<path class="st0" d="M575.8,50.9l7.6-25.8h2.9l-7.6,25.8H575.8z"/>
	<path class="st0" d="M589.6,50.9V25.1h6.5c1.4,0,2.5,0.1,3.5,0.3c1,0.2,1.9,0.6,2.6,1.1c0.8,0.5,1.3,1.2,1.7,2.1
		c0.4,0.9,0.6,2,0.6,3.3c0,1.7-0.2,3-0.7,4c-0.5,1-1.3,1.8-2.4,2.3l3.6,12.6h-5.4l-3-11.7h-1.8v11.7H589.6z M594.8,36.1h1.3
		c1.3,0,2.2-0.3,2.7-0.9s0.8-1.5,0.8-2.9c0-1.3-0.2-2.2-0.7-2.8c-0.5-0.6-1.3-0.9-2.5-0.9h-1.6V36.1z"/>
	<path class="st0" d="M608,50.9V25.1h11.2v3.6h-6v6.8h4.7v3.7h-4.7v8.1h6.1v3.6H608z"/>
	<path class="st0" d="M620.7,50.9l5-25.8h5.8l5,25.8h-4.9l-1-5.7h-4.1l-1,5.7H620.7z M627.1,41.9h3.1l-1.5-10.3L627.1,41.9z"/>
	<path class="st0" d="M639.1,50.9V25.1h6.3c1.6,0,3,0.2,4.1,0.5c1.1,0.3,2,0.8,2.6,1.5c0.6,0.7,1.1,1.5,1.4,2.5s0.4,2.2,0.4,3.7v9.3
		c0,1.5-0.1,2.8-0.4,3.8s-0.7,1.9-1.4,2.6c-0.6,0.7-1.5,1.2-2.6,1.5c-1.1,0.3-2.4,0.5-4,0.5H639.1z M644.3,47.2h1.1
		c0.4,0,0.7,0,1-0.1s0.5-0.1,0.7-0.2c0.2-0.1,0.4-0.2,0.5-0.3c0.1-0.1,0.3-0.3,0.4-0.5c0.1-0.2,0.2-0.4,0.2-0.6
		c0.1-0.2,0.1-0.4,0.1-0.8c0-0.3,0-0.6,0-0.9s0-0.6,0-1V32.6c0-0.6,0-1.1,0-1.5c0-0.4-0.1-0.7-0.2-1.1c-0.1-0.3-0.3-0.6-0.5-0.8
		s-0.5-0.3-0.9-0.4c-0.4-0.1-0.8-0.1-1.4-0.1h-1V47.2z"/>
	<path class="st0" d="M657.4,50.9V25.1h5.2v25.8H657.4z"/>
	<path class="st0" d="M666.5,50.9V25.1h3.7l5.8,13.4V25.1h4.4v25.8h-3.5L671,36.6v14.3H666.5z"/>
	<path class="st0" d="M690.7,51.3c-1.3,0-2.4-0.2-3.3-0.6c-0.9-0.4-1.6-1-2.2-1.8s-0.9-1.7-1.2-2.8s-0.4-2.3-0.4-3.7v-8.5
		c0-1.2,0.1-2.2,0.2-3.1c0.2-0.9,0.4-1.7,0.8-2.5s0.8-1.4,1.4-1.9c0.6-0.5,1.3-0.9,2.2-1.2s1.9-0.4,3-0.4c1.3,0,2.5,0.2,3.5,0.5
		c1,0.3,1.7,0.8,2.3,1.5c0.6,0.7,1,1.5,1.2,2.4s0.4,2,0.4,3.2v1.5h-5.1V32c0-0.5,0-0.9,0-1.2c0-0.3-0.1-0.6-0.2-0.9
		c-0.1-0.3-0.2-0.6-0.4-0.8c-0.2-0.2-0.4-0.3-0.6-0.5c-0.3-0.1-0.6-0.2-1-0.2c-0.4,0-0.8,0.1-1.1,0.2c-0.3,0.2-0.5,0.3-0.7,0.5
		s-0.3,0.5-0.4,0.9s-0.1,0.7-0.2,1c0,0.3,0,0.7,0,1.2v11.2c0,1.3,0.2,2.2,0.5,2.9c0.3,0.7,1,1,1.9,1c0.9,0,1.6-0.4,2-1.1
		c0.4-0.7,0.6-1.7,0.6-3v-2.5h-2.5v-3.2h7.3v13.3h-3.4l-0.3-2.4C694.2,50.3,692.8,51.3,690.7,51.3z"/>
	<path class="st0" d="M702.3,50.9V25.1h5.2v22.2h6v3.6H702.3z"/>
	<path class="st0" d="M716.2,50.9V25.1h5.2v25.8H716.2z"/>
	<path class="st0" d="M732,51.2c-2.4,0-4.2-0.7-5.4-2c-1.2-1.3-1.8-3.3-1.9-6.1l4.5-0.8c0,1.6,0.2,2.8,0.6,3.6
		c0.4,0.8,1,1.2,1.9,1.2c0.6,0,1.1-0.2,1.3-0.6c0.3-0.4,0.4-0.9,0.4-1.5c0-1-0.2-1.9-0.7-2.6c-0.4-0.7-1.1-1.5-2.1-2.3l-2.8-2.4
		c-0.7-0.6-1.3-1.2-1.7-1.7c-0.4-0.5-0.8-1.2-1.1-2c-0.3-0.8-0.4-1.7-0.4-2.7c0-2.1,0.6-3.7,1.9-4.9c1.2-1.1,2.9-1.7,5.1-1.7
		c0.7,0,1.4,0.1,2,0.2c0.6,0.1,1.1,0.3,1.5,0.6c0.4,0.2,0.8,0.6,1.1,0.9c0.3,0.4,0.6,0.8,0.8,1.2c0.2,0.4,0.4,0.9,0.5,1.4
		c0.1,0.5,0.2,1,0.3,1.4c0.1,0.5,0.1,0.9,0.1,1.5l-4.5,0.7c0-0.5,0-1-0.1-1.3c0-0.4-0.1-0.7-0.2-1.1s-0.2-0.7-0.4-0.9
		c-0.1-0.2-0.3-0.4-0.6-0.5s-0.5-0.2-0.9-0.2c-0.6,0-1,0.3-1.3,0.7c-0.3,0.4-0.5,0.9-0.5,1.5c0,0.5,0.1,0.9,0.2,1.3
		c0.1,0.4,0.3,0.7,0.5,1.1s0.5,0.6,0.7,0.8c0.2,0.2,0.5,0.5,0.9,0.8l2.7,2.4c0.6,0.5,1.1,1,1.5,1.5c0.4,0.5,0.8,1,1.2,1.7
		c0.4,0.6,0.7,1.3,0.9,2.1c0.2,0.7,0.3,1.5,0.3,2.4c0,1.9-0.6,3.4-1.8,4.6S734,51.2,732,51.2z"/>
	<path class="st0" d="M743.8,50.9V29h-4.1v-3.9h13.4V29h-4.1v21.9H743.8z"/>
	<path class="st0" d="M754.6,50.9l7.6-25.8h2.9l-7.6,25.8H754.6z"/>
	<path class="st0" d="M767.7,50.9l7.6-25.8h2.9l-7.6,25.8H767.7z"/>
	<path class="st0" d="M781.5,50.9V25.1h6.5c1.4,0,2.5,0.1,3.5,0.3c1,0.2,1.9,0.6,2.6,1.1c0.8,0.5,1.3,1.2,1.7,2.1s0.6,2,0.6,3.3
		c0,1.7-0.2,3-0.7,4c-0.5,1-1.3,1.8-2.4,2.3l3.6,12.6h-5.4l-3-11.7h-1.8v11.7H781.5z M786.7,36.1h1.3c1.3,0,2.2-0.3,2.7-0.9
		c0.5-0.6,0.8-1.5,0.8-2.9c0-1.3-0.2-2.2-0.7-2.8c-0.5-0.6-1.3-0.9-2.5-0.9h-1.6V36.1z"/>
	<path class="st0" d="M799.9,50.9V25.1h11.2v3.6h-6v6.8h4.7v3.7h-4.7v8.1h6.1v3.6H799.9z"/>
	<path class="st0" d="M812.6,50.9l5-25.8h5.8l5,25.8h-4.9l-1-5.7h-4.1l-1,5.7H812.6z M819,41.9h3.1l-1.5-10.3L819,41.9z"/>
	<path class="st0" d="M831,50.9V25.1h6.3c1.6,0,3,0.2,4.1,0.5c1.1,0.3,2,0.8,2.6,1.5c0.6,0.7,1.1,1.5,1.4,2.5c0.3,1,0.4,2.2,0.4,3.7
		v9.3c0,1.5-0.1,2.8-0.4,3.8c-0.3,1-0.7,1.9-1.4,2.6c-0.6,0.7-1.5,1.2-2.6,1.5c-1.1,0.3-2.4,0.5-4,0.5H831z M836.2,47.2h1.1
		c0.4,0,0.7,0,1-0.1c0.3,0,0.5-0.1,0.7-0.2c0.2-0.1,0.4-0.2,0.5-0.3c0.1-0.1,0.3-0.3,0.4-0.5c0.1-0.2,0.2-0.4,0.2-0.6
		c0.1-0.2,0.1-0.4,0.1-0.8c0-0.3,0-0.6,0-0.9s0-0.6,0-1V32.6c0-0.6,0-1.1,0-1.5c0-0.4-0.1-0.7-0.2-1.1c-0.1-0.3-0.3-0.6-0.5-0.8
		c-0.2-0.2-0.5-0.3-0.9-0.4c-0.4-0.1-0.8-0.1-1.4-0.1h-1V47.2z"/>
	<path class="st0" d="M849.3,50.9V25.1h5.2v25.8H849.3z"/>
	<path class="st0" d="M858.4,50.9V25.1h3.7l5.8,13.4V25.1h4.4v25.8h-3.5l-5.8-14.3v14.3H858.4z"/>
	<path class="st0" d="M882.6,51.3c-1.3,0-2.4-0.2-3.3-0.6c-0.9-0.4-1.6-1-2.2-1.8c-0.5-0.8-0.9-1.7-1.2-2.8
		c-0.2-1.1-0.4-2.3-0.4-3.7v-8.5c0-1.2,0.1-2.2,0.2-3.1s0.4-1.7,0.8-2.5c0.4-0.8,0.8-1.4,1.4-1.9c0.6-0.5,1.3-0.9,2.2-1.2
		s1.9-0.4,3-0.4c1.3,0,2.5,0.2,3.5,0.5c1,0.3,1.7,0.8,2.3,1.5c0.6,0.7,1,1.5,1.2,2.4s0.4,2,0.4,3.2v1.5h-5.1V32c0-0.5,0-0.9,0-1.2
		s-0.1-0.6-0.2-0.9c-0.1-0.3-0.2-0.6-0.4-0.8c-0.2-0.2-0.4-0.3-0.6-0.5c-0.3-0.1-0.6-0.2-1-0.2c-0.4,0-0.8,0.1-1.1,0.2
		c-0.3,0.2-0.5,0.3-0.7,0.5c-0.2,0.2-0.3,0.5-0.4,0.9s-0.1,0.7-0.2,1c0,0.3,0,0.7,0,1.2v11.2c0,1.3,0.2,2.2,0.5,2.9
		c0.3,0.7,1,1,1.9,1c0.9,0,1.6-0.4,2-1.1c0.4-0.7,0.6-1.7,0.6-3v-2.5h-2.5v-3.2h7.3v13.3h-3.4l-0.3-2.4
		C886.1,50.3,884.7,51.3,882.6,51.3z"/>
	<path class="st0" d="M894.2,50.9V25.1h5.2v22.2h6v3.6H894.2z"/>
	<path class="st0" d="M908.1,50.9V25.1h5.2v25.8H908.1z"/>
	<path class="st0" d="M923.9,51.2c-2.4,0-4.2-0.7-5.4-2c-1.2-1.3-1.8-3.3-1.9-6.1l4.5-0.8c0,1.6,0.2,2.8,0.6,3.6s1,1.2,1.9,1.2
		c0.6,0,1.1-0.2,1.3-0.6c0.3-0.4,0.4-0.9,0.4-1.5c0-1-0.2-1.9-0.7-2.6c-0.4-0.7-1.1-1.5-2.1-2.3l-2.8-2.4c-0.7-0.6-1.3-1.2-1.7-1.7
		c-0.4-0.5-0.8-1.2-1.1-2c-0.3-0.8-0.4-1.7-0.4-2.7c0-2.1,0.6-3.7,1.9-4.9c1.2-1.1,2.9-1.7,5.1-1.7c0.7,0,1.4,0.1,2,0.2
		c0.6,0.1,1.1,0.3,1.5,0.6c0.4,0.2,0.8,0.6,1.1,0.9c0.3,0.4,0.6,0.8,0.8,1.2c0.2,0.4,0.4,0.9,0.5,1.4c0.1,0.5,0.2,1,0.3,1.4
		s0.1,0.9,0.1,1.5l-4.5,0.7c0-0.5,0-1-0.1-1.3c0-0.4-0.1-0.7-0.2-1.1s-0.2-0.7-0.4-0.9c-0.1-0.2-0.3-0.4-0.6-0.5s-0.5-0.2-0.9-0.2
		c-0.6,0-1,0.3-1.3,0.7c-0.3,0.4-0.5,0.9-0.5,1.5c0,0.5,0.1,0.9,0.2,1.3c0.1,0.4,0.3,0.7,0.5,1.1s0.5,0.6,0.7,0.8
		c0.2,0.2,0.5,0.5,0.9,0.8l2.7,2.4c0.6,0.5,1.1,1,1.5,1.5c0.4,0.5,0.8,1,1.2,1.7c0.4,0.6,0.7,1.3,0.9,2.1c0.2,0.7,0.3,1.5,0.3,2.4
		c0,1.9-0.6,3.4-1.8,4.6C927.5,50.6,925.9,51.2,923.9,51.2z"/>
	<path class="st0" d="M935.7,50.9V29h-4.1v-3.9H945V29H941v21.9H935.7z"/>
	<path class="st0" d="M946.5,50.9l7.6-25.8h2.9l-7.6,25.8H946.5z"/>
	<path class="st0" d="M959.6,50.9l7.6-25.8h2.9l-7.6,25.8H959.6z"/>
	<path class="st0" d="M973.4,50.9V25.1h6.5c1.4,0,2.5,0.1,3.5,0.3c1,0.2,1.9,0.6,2.6,1.1c0.8,0.5,1.3,1.2,1.7,2.1
		c0.4,0.9,0.6,2,0.6,3.3c0,1.7-0.2,3-0.7,4c-0.5,1-1.3,1.8-2.4,2.3l3.6,12.6h-5.4l-3-11.7h-1.8v11.7H973.4z M978.6,36.1h1.3
		c1.3,0,2.2-0.3,2.7-0.9s0.8-1.5,0.8-2.9c0-1.3-0.2-2.2-0.7-2.8c-0.5-0.6-1.3-0.9-2.5-0.9h-1.6V36.1z"/>
	<path class="st0" d="M991.8,50.9V25.1h11.2v3.6h-6v6.8h4.7v3.7h-4.7v8.1h6.1v3.6H991.8z"/>
	<path class="st0" d="M1004.5,50.9l5-25.8h5.8l5,25.8h-4.9l-1-5.7h-4.1l-1,5.7H1004.5z M1010.9,41.9h3.1l-1.5-10.3L1010.9,41.9z"/>
	<path class="st0" d="M1022.9,50.9V25.1h6.3c1.6,0,3,0.2,4.1,0.5c1.1,0.3,2,0.8,2.6,1.5c0.6,0.7,1.1,1.5,1.4,2.5s0.4,2.2,0.4,3.7
		v9.3c0,1.5-0.1,2.8-0.4,3.8s-0.7,1.9-1.4,2.6c-0.6,0.7-1.5,1.2-2.6,1.5c-1.1,0.3-2.4,0.5-4,0.5H1022.9z M1028.1,47.2h1.1
		c0.4,0,0.7,0,1-0.1c0.3,0,0.5-0.1,0.7-0.2c0.2-0.1,0.4-0.2,0.5-0.3s0.3-0.3,0.4-0.5c0.1-0.2,0.2-0.4,0.2-0.6
		c0.1-0.2,0.1-0.4,0.1-0.8c0-0.3,0-0.6,0-0.9c0-0.2,0-0.6,0-1V32.6c0-0.6,0-1.1,0-1.5c0-0.4-0.1-0.7-0.2-1.1
		c-0.1-0.3-0.3-0.6-0.5-0.8s-0.5-0.3-0.9-0.4c-0.4-0.1-0.8-0.1-1.4-0.1h-1V47.2z"/>
	<path class="st0" d="M1041.2,50.9V25.1h5.2v25.8H1041.2z"/>
	<path class="st0" d="M1050.3,50.9V25.1h3.7l5.8,13.4V25.1h4.4v25.8h-3.5l-5.8-14.3v14.3H1050.3z"/>
	<path class="st0" d="M1074.5,51.3c-1.3,0-2.4-0.2-3.3-0.6c-0.9-0.4-1.6-1-2.2-1.8c-0.5-0.8-0.9-1.7-1.2-2.8
		c-0.2-1.1-0.4-2.3-0.4-3.7v-8.5c0-1.2,0.1-2.2,0.2-3.1c0.2-0.9,0.4-1.7,0.8-2.5s0.8-1.4,1.4-1.9c0.6-0.5,1.3-0.9,2.2-1.2
		c0.9-0.3,1.9-0.4,3-0.4c1.3,0,2.5,0.2,3.5,0.5c1,0.3,1.7,0.8,2.3,1.5c0.6,0.7,1,1.5,1.2,2.4s0.4,2,0.4,3.2v1.5h-5.1V32
		c0-0.5,0-0.9,0-1.2s-0.1-0.6-0.2-0.9c-0.1-0.3-0.2-0.6-0.4-0.8c-0.2-0.2-0.4-0.3-0.6-0.5c-0.3-0.1-0.6-0.2-1-0.2
		c-0.4,0-0.8,0.1-1.1,0.2c-0.3,0.2-0.5,0.3-0.7,0.5s-0.3,0.5-0.4,0.9s-0.1,0.7-0.2,1c0,0.3,0,0.7,0,1.2v11.2c0,1.3,0.2,2.2,0.5,2.9
		c0.3,0.7,1,1,1.9,1c0.9,0,1.6-0.4,2-1.1c0.4-0.7,0.6-1.7,0.6-3v-2.5h-2.5v-3.2h7.3v13.3h-3.4l-0.3-2.4
		C1078,50.3,1076.6,51.3,1074.5,51.3z"/>
	<path class="st0" d="M1086.1,50.9V25.1h5.2v22.2h6v3.6H1086.1z"/>
	<path class="st0" d="M1100,50.9V25.1h5.2v25.8H1100z"/>
	<path class="st0" d="M1115.8,51.2c-2.4,0-4.2-0.7-5.4-2c-1.2-1.3-1.8-3.3-1.9-6.1l4.5-0.8c0,1.6,0.2,2.8,0.6,3.6s1,1.2,1.9,1.2
		c0.6,0,1.1-0.2,1.3-0.6c0.3-0.4,0.4-0.9,0.4-1.5c0-1-0.2-1.9-0.7-2.6c-0.4-0.7-1.1-1.5-2.1-2.3l-2.8-2.4c-0.7-0.6-1.3-1.2-1.7-1.7
		c-0.4-0.5-0.8-1.2-1.1-2c-0.3-0.8-0.4-1.7-0.4-2.7c0-2.1,0.6-3.7,1.9-4.9c1.2-1.1,2.9-1.7,5.1-1.7c0.7,0,1.4,0.1,2,0.2
		c0.6,0.1,1.1,0.3,1.5,0.6c0.4,0.2,0.8,0.6,1.1,0.9c0.3,0.4,0.6,0.8,0.8,1.2s0.4,0.9,0.5,1.4c0.1,0.5,0.2,1,0.3,1.4
		c0.1,0.5,0.1,0.9,0.1,1.5l-4.5,0.7c0-0.5,0-1-0.1-1.3c0-0.4-0.1-0.7-0.2-1.1s-0.2-0.7-0.4-0.9c-0.1-0.2-0.3-0.4-0.6-0.5
		c-0.2-0.1-0.5-0.2-0.9-0.2c-0.6,0-1,0.3-1.3,0.7c-0.3,0.4-0.5,0.9-0.5,1.5c0,0.5,0.1,0.9,0.2,1.3c0.1,0.4,0.3,0.7,0.5,1.1
		c0.2,0.3,0.5,0.6,0.7,0.8c0.2,0.2,0.5,0.5,0.9,0.8l2.7,2.4c0.6,0.5,1.1,1,1.5,1.5c0.4,0.5,0.8,1,1.2,1.7c0.4,0.6,0.7,1.3,0.9,2.1
		c0.2,0.7,0.3,1.5,0.3,2.4c0,1.9-0.6,3.4-1.8,4.6C1119.4,50.6,1117.8,51.2,1115.8,51.2z"/>
	<path class="st0" d="M1127.6,50.9V29h-4.1v-3.9h13.4V29h-4.1v21.9H1127.6z"/>
	<path class="st0" d="M1138.4,50.9l7.6-25.8h2.9l-7.6,25.8H1138.4z"/>
	<path class="st0" d="M1151.5,50.9l7.6-25.8h2.9l-7.6,25.8H1151.5z"/>
	<path class="st0" d="M1165.3,50.9V25.1h6.5c1.4,0,2.5,0.1,3.5,0.3c1,0.2,1.9,0.6,2.6,1.1c0.8,0.5,1.3,1.2,1.7,2.1
		c0.4,0.9,0.6,2,0.6,3.3c0,1.7-0.2,3-0.7,4c-0.5,1-1.3,1.8-2.4,2.3l3.6,12.6h-5.4l-3-11.7h-1.8v11.7H1165.3z M1170.5,36.1h1.3
		c1.3,0,2.2-0.3,2.7-0.9s0.8-1.5,0.8-2.9c0-1.3-0.2-2.2-0.7-2.8c-0.5-0.6-1.3-0.9-2.5-0.9h-1.6V36.1z"/>
	<path class="st0" d="M1183.7,50.9V25.1h11.2v3.6h-6v6.8h4.7v3.7h-4.7v8.1h6.1v3.6H1183.7z"/>
	<path class="st0" d="M1196.4,50.9l5-25.8h5.8l5,25.8h-4.9l-1-5.7h-4.1l-1,5.7H1196.4z M1202.8,41.9h3.1l-1.5-10.3L1202.8,41.9z"/>
	<path class="st0" d="M1214.8,50.9V25.1h6.3c1.6,0,3,0.2,4.1,0.5s2,0.8,2.6,1.5c0.6,0.7,1.1,1.5,1.4,2.5c0.3,1,0.4,2.2,0.4,3.7v9.3
		c0,1.5-0.1,2.8-0.4,3.8c-0.3,1-0.7,1.9-1.4,2.6c-0.6,0.7-1.5,1.2-2.6,1.5s-2.4,0.5-4,0.5H1214.8z M1220,47.2h1.1c0.4,0,0.7,0,1-0.1
		s0.5-0.1,0.7-0.2c0.2-0.1,0.4-0.2,0.5-0.3c0.1-0.1,0.3-0.3,0.4-0.5c0.1-0.2,0.2-0.4,0.2-0.6c0.1-0.2,0.1-0.4,0.1-0.8
		c0-0.3,0-0.6,0-0.9c0-0.2,0-0.6,0-1V32.6c0-0.6,0-1.1,0-1.5c0-0.4-0.1-0.7-0.2-1.1c-0.1-0.3-0.3-0.6-0.5-0.8s-0.5-0.3-0.9-0.4
		c-0.4-0.1-0.8-0.1-1.4-0.1h-1V47.2z"/>
	<path class="st0" d="M1233.1,50.9V25.1h5.2v25.8H1233.1z"/>
	<path class="st0" d="M1242.2,50.9V25.1h3.7l5.8,13.4V25.1h4.4v25.8h-3.5l-5.8-14.3v14.3H1242.2z"/>
	<path class="st0" d="M1266.4,51.3c-1.3,0-2.4-0.2-3.3-0.6c-0.9-0.4-1.6-1-2.2-1.8s-0.9-1.7-1.2-2.8s-0.4-2.3-0.4-3.7v-8.5
		c0-1.2,0.1-2.2,0.2-3.1c0.2-0.9,0.4-1.7,0.8-2.5s0.8-1.4,1.4-1.9c0.6-0.5,1.3-0.9,2.2-1.2c0.9-0.3,1.9-0.4,3-0.4
		c1.3,0,2.5,0.2,3.5,0.5c1,0.3,1.7,0.8,2.3,1.5c0.6,0.7,1,1.5,1.2,2.4s0.4,2,0.4,3.2v1.5h-5.1V32c0-0.5,0-0.9,0-1.2
		s-0.1-0.6-0.2-0.9c-0.1-0.3-0.2-0.6-0.4-0.8c-0.2-0.2-0.4-0.3-0.6-0.5c-0.3-0.1-0.6-0.2-1-0.2c-0.4,0-0.8,0.1-1.1,0.2
		c-0.3,0.2-0.5,0.3-0.7,0.5s-0.3,0.5-0.4,0.9s-0.1,0.7-0.2,1c0,0.3,0,0.7,0,1.2v11.2c0,1.3,0.2,2.2,0.5,2.9c0.3,0.7,1,1,1.9,1
		c0.9,0,1.6-0.4,2-1.1c0.4-0.7,0.6-1.7,0.6-3v-2.5h-2.5v-3.2h7.3v13.3h-3.4l-0.3-2.4C1269.9,50.3,1268.5,51.3,1266.4,51.3z"/>
	<path class="st0" d="M1278,50.9V25.1h5.2v22.2h6v3.6H1278z"/>
</g>
<line class="st1" x1="3150.7" y1="75.6" x2="-5.3" y2="75.6"/>
</svg>
