<?xml version="1.0" encoding="utf-8"?>
<!-- Generator: Adobe Illustrator 19.2.1, SVG Export Plug-In . SVG Version: 6.00 Build 0)  -->
<svg version="1.1" id="Layer_1" xmlns="http://www.w3.org/2000/svg" xmlns:xlink="http://www.w3.org/1999/xlink" x="0px" y="0px"
	 viewBox="0 0 204.3 131.2" style="enable-background:new 0 0 204.3 131.2;" xml:space="preserve">
<style type="text/css">
	.st0{font-family:'TeluguMN';}
	.st1{font-size:36px;}
	.st2{font-size:21px;}
	.st3{stroke:#000000;stroke-miterlimit:10;}
	.st4{fill:none;stroke:#000000;stroke-miterlimit:10;}
</style>
<g>
	<text transform="matrix(1 0 0 1 35.4887 93.0395)"><tspan x="0" y="0" class="st0 st1">WINTER </tspan><tspan x="16.9" y="25.2" class="st0 st2">MAGAZINE</tspan></text>
	<polygon class="st3" points="108,49.6 108,29.3 123.8,20.2 118.4,10.8 108,16.8 108,2.7 97.2,2.7 97.2,2.7 97.2,16.6 86.4,10.4 
		81,19.8 97.2,29.1 97.2,49.7 102.5,52.7 	"/>
	<polygon class="st3" points="47.4,54.2 33,39.8 37.8,22.2 27.3,19.4 24.2,31 14.3,21.1 6.6,28.7 6.6,28.7 16.4,38.5 4.4,41.7 
		7.2,52.2 25.3,47.4 39.8,61.9 45.7,60.3 	"/>
	<polygon class="st3" points="165.2,62.1 179.5,47.8 197.2,52.5 200,42.1 188.4,38.9 198.3,29 190.6,21.4 190.6,21.4 180.8,31.2 
		177.6,19.2 167.2,22 172,40 157.5,54.5 159.1,60.5 	"/>
	<line class="st4" x1="4.4" y1="127.1" x2="200" y2="127.1"/>
</g>
</svg>
