<?xml version="1.0" encoding="utf-8"?>
<!-- Generator: Adobe Illustrator 16.0.0, SVG Export Plug-In . SVG Version: 6.00 Build 0)  -->
<!DOCTYPE svg PUBLIC "-//W3C//DTD SVG 1.1//EN" "http://www.w3.org/Graphics/SVG/1.1/DTD/svg11.dtd">
<svg version="1.1" id="Layer_1" xmlns="http://www.w3.org/2000/svg" xmlns:xlink="http://www.w3.org/1999/xlink" x="0px" y="0px"
	 width="200px" height="200px" viewBox="0 0 200 200" enable-background="new 0 0 200 200" xml:space="preserve">
<g>
	<g>
		<path d="M197.353,99.999c0,3.837-7.722,7.169-8.168,10.885c-0.455,3.797,6.244,8.873,5.348,12.516
			c-0.91,3.705-9.204,5.09-10.538,8.606c-1.349,3.556,3.932,10.092,2.18,13.423c-1.768,3.365-10.151,2.717-12.303,5.823
			c-2.152,3.118,1.404,10.729-1.104,13.559c-2.508,2.831-10.493,0.207-13.325,2.719c-2.828,2.505-1.18,10.752-4.297,12.906
			c-3.106,2.148-10.232-2.306-13.598-0.536c-3.331,1.752-3.705,10.15-7.255,11.499c-3.52,1.337-9.365-4.702-13.067-3.792
			c-3.64,0.899-6.027,8.96-9.819,9.418c-3.719,0.446-7.943-6.817-11.78-6.817s-8.067,7.264-11.783,6.817
			c-3.794-0.458-6.179-8.519-9.817-9.418c-3.713-0.91-9.555,5.123-13.075,3.792c-3.556-1.354-3.924-9.752-7.258-11.505
			c-3.362-1.77-10.488,2.686-13.595,0.539c-3.118-2.157-1.469-10.403-4.294-12.915c-2.837-2.508-10.82,0.115-13.333-2.719
			c-2.503-2.825,1.059-10.438-1.101-13.556c-2.146-3.106-10.528-2.46-12.294-5.819c-1.755-3.337,3.525-9.87,2.177-13.427
			c-1.334-3.517-9.625-4.904-10.533-8.605c-0.896-3.641,5.803-8.716,5.348-12.511c-0.446-3.713-8.168-7.045-8.168-10.882
			c0-3.835,7.722-7.167,8.168-10.884c0.455-3.796-6.244-8.871-5.348-12.515c0.91-3.703,9.205-5.089,10.539-8.606
			c1.348-3.553-3.933-10.092-2.18-13.425c1.767-3.362,10.151-2.715,12.3-5.821c2.154-3.118-1.404-10.729,1.101-13.56
			c2.514-2.83,10.5-0.208,13.331-2.718c2.829-2.507,1.18-10.75,4.297-12.908c3.107-2.147,10.233,2.307,13.592,0.541
			C61.035,18.35,61.402,9.951,64.958,8.6c3.52-1.334,9.362,4.702,13.066,3.792c3.641-0.896,6.028-8.96,9.82-9.417
			c3.716-0.445,7.943,6.816,11.78,6.816s8.067-7.261,11.783-6.816c3.795,0.459,6.18,8.521,9.825,9.417
			c3.702,0.913,9.547-5.122,13.066-3.791c3.556,1.352,3.924,9.75,7.258,11.506c3.362,1.767,10.488-2.686,13.595-0.537
			c3.118,2.154,1.47,10.399,4.295,12.909c2.837,2.511,10.819-0.114,13.331,2.719c2.505,2.827-1.057,10.44,1.101,13.558
			c2.146,3.105,10.53,2.459,12.297,5.82c1.756,3.334-3.524,9.869-2.177,13.426c1.332,3.515,9.626,4.901,10.533,8.605
			c0.896,3.643-5.803,8.716-5.348,12.509C189.631,92.834,197.353,96.165,197.353,99.999z"/>
		<path fill="none" stroke="#FFFFFF" d="M110.911,192.77c-0.742-0.433-1.98-1.522-2.767-2.214c-2.385-2.098-5.087-4.478-8.52-4.478
			c-3.43,0-6.134,2.377-8.522,4.478c-0.789,0.691-2.022,1.781-2.77,2.208c-0.641-0.596-1.612-1.991-2.233-2.879
			c-1.792-2.57-3.823-5.486-7.089-6.289c-0.579-0.141-1.186-0.214-1.806-0.214c-2.671,0-5.126,1.281-7.505,2.514
			c-0.935,0.486-2.41,1.25-3.241,1.492c-0.472-0.736-1.073-2.31-1.458-3.314c-1.121-2.936-2.396-6.261-5.387-7.837
			c-1.138-0.596-2.466-0.898-3.963-0.898c-1.876,0-3.764,0.455-5.592,0.898c-1.298,0.309-2.643,0.635-3.531,0.66
			c-0.278-0.823-0.486-2.485-0.621-3.548c-0.391-3.126-0.829-6.668-3.362-8.921c-2.545-2.25-6.118-2.264-9.269-2.274
			c-1.07-0.006-2.747-0.012-3.598-0.191c-0.079-0.865,0.115-2.528,0.242-3.584c0.368-3.138,0.784-6.69-1.155-9.488
			c-1.924-2.78-5.381-3.643-8.438-4.404c-1.039-0.264-2.674-0.668-3.455-1.051c0.132-0.856,0.716-2.415,1.087-3.409
			c1.106-2.961,2.359-6.312,1.16-9.494c-1.205-3.154-4.348-4.82-7.117-6.286c-0.952-0.506-2.449-1.298-3.124-1.859
			c0.343-0.795,1.275-2.157,1.874-3.028c1.792-2.615,3.826-5.578,3.416-8.969c-0.402-3.34-3.048-5.704-5.385-7.788
			c-0.823-0.736-2.118-1.892-2.621-2.602c0.503-0.708,1.798-1.866,2.621-2.601c2.337-2.086,4.983-4.451,5.385-7.789
			c0.41-3.395-1.624-6.356-3.416-8.971c-0.598-0.871-1.531-2.236-1.868-3.03c0.669-0.56,2.166-1.352,3.118-1.856
			c2.775-1.47,5.921-3.137,7.117-6.292c1.205-3.184-0.05-6.535-1.154-9.494c-0.371-0.994-0.958-2.553-1.09-3.413
			c0.781-0.378,2.421-0.787,3.46-1.045c3.05-0.763,6.511-1.628,8.438-4.41c1.932-2.798,1.517-6.348,1.154-9.48
			c-0.126-1.059-0.32-2.723-0.242-3.588c0.851-0.183,2.528-0.188,3.598-0.192c3.154-0.011,6.727-0.027,9.264-2.278
			c2.539-2.246,2.978-5.792,3.368-8.918c0.129-1.049,0.337-2.689,0.612-3.525c1.082,0.049,2.326,0.353,3.537,0.642
			c1.826,0.442,3.719,0.9,5.598,0.9c1.495,0,2.823-0.302,3.96-0.9c2.989-1.574,4.264-4.901,5.385-7.837
			c0.388-1.002,0.989-2.58,1.46-3.312c0.832,0.236,2.303,1.004,3.244,1.493c2.376,1.234,4.831,2.514,7.5,2.514
			c0.615,0,1.225-0.073,1.798-0.213c3.272-0.805,5.303-3.72,7.095-6.291c0.632-0.909,1.637-2.345,2.275-2.921
			c0.593,0.372,1.904,1.526,2.725,2.251c2.388,2.098,5.089,4.478,8.522,4.478c3.427,0,6.135-2.378,8.52-4.478
			c0.792-0.692,2.024-1.782,2.771-2.212c0.641,0.599,1.612,1.995,2.233,2.882c1.798,2.57,3.828,5.487,7.098,6.291
			c0.576,0.141,1.183,0.213,1.804,0.213c2.663,0,5.12-1.279,7.494-2.512c0.94-0.489,2.412-1.253,3.247-1.492
			c0.472,0.733,1.069,2.309,1.457,3.312c1.121,2.937,2.396,6.262,5.385,7.838c1.138,0.597,2.469,0.9,3.966,0.9
			c1.877,0,3.765-0.457,5.59-0.899c1.298-0.312,2.644-0.635,3.531-0.66c0.28,0.823,0.488,2.485,0.62,3.546
			c0.394,3.126,0.832,6.669,3.365,8.919c2.545,2.251,6.117,2.264,9.27,2.276c1.069,0.007,2.747,0.013,3.598,0.192
			c0.076,0.864-0.118,2.525-0.241,3.583c-0.368,3.137-0.784,6.692,1.154,9.487c1.921,2.782,5.382,3.646,8.438,4.407
			c1.039,0.261,2.674,0.668,3.455,1.051c-0.132,0.854-0.717,2.414-1.087,3.408c-1.107,2.959-2.362,6.313-1.16,9.493
			c1.205,3.156,4.345,4.823,7.117,6.289c0.949,0.505,2.449,1.299,3.121,1.859c-0.34,0.793-1.275,2.157-1.871,3.026
			c-1.792,2.615-3.825,5.577-3.418,8.969c0.404,3.341,3.05,5.703,5.384,7.79c0.826,0.735,2.121,1.891,2.624,2.598
			c-0.503,0.709-1.798,1.868-2.624,2.602c-2.334,2.087-4.979,4.452-5.384,7.791c-0.407,3.394,1.626,6.356,3.418,8.972
			c0.596,0.871,1.531,2.235,1.868,3.028c-0.669,0.562-2.169,1.354-3.118,1.856c-2.775,1.469-5.921,3.138-7.117,6.292
			c-1.205,3.182,0.051,6.536,1.154,9.493c0.371,0.997,0.958,2.554,1.09,3.413c-0.781,0.376-2.421,0.786-3.461,1.045
			c-3.05,0.764-6.511,1.629-8.438,4.41c-1.933,2.794-1.517,6.342-1.154,9.477c0.126,1.062,0.317,2.725,0.239,3.59
			c-0.849,0.186-2.525,0.19-3.596,0.193c-3.154,0.012-6.728,0.025-9.267,2.278c-2.536,2.247-2.975,5.792-3.367,8.918
			c-0.13,1.048-0.335,2.688-0.612,3.525c-1.079-0.048-2.323-0.349-3.534-0.641c-1.825-0.444-3.719-0.899-5.598-0.899
			c-1.494,0-2.828,0.304-3.966,0.899c-2.989,1.573-4.259,4.898-5.385,7.837c-0.382,0.999-0.983,2.578-1.461,3.312
			c-0.828-0.239-2.3-1.006-3.241-1.495c-2.373-1.232-4.828-2.514-7.497-2.514c-0.617,0-1.225,0.073-1.8,0.214
			c-3.27,0.803-5.301,3.719-7.093,6.292C112.526,190.775,111.554,192.168,110.911,192.77z"/>
	</g>
	<g>
		<g>
			<path fill="#FFFFFF" d="M42.961,141.072c-1.601-4.978-3.154-9.96-4.658-14.946c0.911-0.255,1.822-0.506,2.732-0.749
				c1.217-0.326,2.209-0.499,2.973-0.528c0.773-0.03,1.458,0.08,2.057,0.328c0.609,0.258,1.136,0.638,1.58,1.141
				c0.454,0.507,0.756,1.059,0.91,1.651c0.282,1.084,0.034,2.116-0.727,3.104c1.008,0.042,1.87,0.345,2.584,0.902
				c0.72,0.55,1.192,1.277,1.426,2.179c0.306,1.184,0.092,2.292-0.627,3.333c-0.429,0.639-0.965,1.142-1.609,1.513
				c-0.713,0.381-1.643,0.718-2.792,1.021C45.528,140.36,44.244,140.711,42.961,141.072z M42.927,131.816
				c0.277-0.073,0.555-0.148,0.833-0.221c0.989-0.263,1.66-0.636,2.018-1.127c0.357-0.493,0.438-1.102,0.239-1.83
				c-0.194-0.711-0.579-1.188-1.161-1.434c-0.582-0.243-1.333-0.248-2.251-0.006c-0.318,0.085-0.637,0.169-0.956,0.255
				C42.071,128.909,42.496,130.363,42.927,131.816z M44.854,138.246c0.53-0.144,1.06-0.285,1.59-0.423
				c1.163-0.305,1.958-0.723,2.392-1.264c0.455-0.579,0.593-1.203,0.41-1.874c-0.177-0.652-0.606-1.132-1.292-1.433
				c-0.668-0.298-1.714-0.271-3.131,0.104c-0.445,0.116-0.889,0.234-1.334,0.354C43.94,135.223,44.395,136.733,44.854,138.246z"/>
			<path fill="#FFFFFF" d="M64.583,131.607c-2.603,0.464-5.205,0.972-7.806,1.525c0.251,0.773,0.688,1.339,1.305,1.699
				c0.616,0.353,1.318,0.449,2.112,0.29c0.619-0.124,1.101-0.356,1.451-0.697c0.342-0.342,0.694-0.915,1.061-1.724
				c0.777,0.217,1.551,0.439,2.322,0.665c-0.229,0.554-0.487,1.041-0.776,1.459c-0.29,0.419-0.615,0.781-0.977,1.084
				c-0.362,0.306-0.769,0.557-1.22,0.753c-0.451,0.197-0.954,0.352-1.507,0.462c-1.587,0.319-2.967,0.13-4.158-0.577
				c-1.192-0.712-1.987-1.824-2.364-3.352c-0.373-1.512-0.192-2.845,0.562-3.997c0.764-1.137,1.972-1.881,3.604-2.208
				c1.647-0.331,3.044-0.123,4.173,0.606c1.121,0.726,1.824,1.892,2.13,3.484C64.522,131.257,64.553,131.432,64.583,131.607z
				 M61.625,130.261c-0.596-1.12-1.58-1.551-2.946-1.277c-0.312,0.063-0.595,0.164-0.85,0.301c-0.255,0.138-0.476,0.308-0.665,0.507
				c-0.189,0.203-0.337,0.428-0.446,0.678c-0.11,0.25-0.174,0.522-0.193,0.815C58.225,130.925,59.925,130.583,61.625,130.261z"/>
			<path fill="#FFFFFF" d="M77.262,129.708c-2.604,0.318-5.208,0.681-7.812,1.087c0.202,0.787,0.599,1.375,1.188,1.77
				c0.587,0.387,1.276,0.521,2.071,0.408c0.619-0.09,1.11-0.295,1.478-0.616c0.359-0.321,0.741-0.874,1.152-1.661
				c0.757,0.261,1.51,0.525,2.259,0.793c-0.26,0.539-0.545,1.012-0.856,1.413c-0.312,0.401-0.655,0.744-1.033,1.027
				c-0.377,0.285-0.794,0.513-1.253,0.684c-0.459,0.172-0.965,0.297-1.519,0.377c-1.59,0.229-2.942-0.037-4.076-0.809
				c-1.135-0.776-1.853-1.932-2.133-3.477c-0.279-1.529-0.02-2.85,0.792-3.957c0.821-1.092,2.058-1.768,3.69-2.003
				c1.647-0.238,3.017,0.047,4.091,0.837c1.066,0.787,1.695,1.989,1.904,3.597C77.224,129.354,77.243,129.532,77.262,129.708z
				 M74.415,128.2c-0.523-1.151-1.471-1.636-2.838-1.439c-0.312,0.046-0.598,0.13-0.858,0.253c-0.259,0.124-0.488,0.281-0.687,0.47
				c-0.198,0.19-0.358,0.408-0.481,0.651c-0.124,0.243-0.202,0.511-0.239,0.802C71.012,128.673,72.713,128.427,74.415,128.2z"/>
			<path fill="#FFFFFF" d="M79.388,123.979c0.86-0.096,1.721-0.185,2.583-0.27c0.03,0.291,0.06,0.582,0.09,0.873
				c0.428-0.482,0.819-0.819,1.17-1.015c0.359-0.202,0.795-0.326,1.309-0.373c0.682-0.059,1.412,0.076,2.185,0.406
				c-0.336,0.722-0.669,1.443-0.999,2.166c-0.512-0.268-1-0.38-1.463-0.338c-1.397,0.125-2,1.128-1.803,2.985
				c0.178,1.689,0.357,3.378,0.539,5.066c-0.822,0.081-1.645,0.167-2.467,0.257C80.142,130.485,79.762,127.232,79.388,123.979z"/>
			<path fill="#FFFFFF" d="M96.69,123.142c0.037,1.004,0.075,2.009,0.114,3.014c-0.604-0.61-1.146-1.023-1.619-1.239
				c-0.465-0.221-1.007-0.318-1.622-0.287c-0.965,0.048-1.749,0.393-2.347,1.027c-0.597,0.637-0.862,1.405-0.8,2.303
				c0.062,0.92,0.416,1.654,1.054,2.208c0.645,0.555,1.433,0.805,2.369,0.759c0.597-0.03,1.118-0.173,1.565-0.427
				c0.434-0.247,0.935-0.711,1.511-1.393c0.039,0.998,0.078,1.996,0.116,2.993c-0.985,0.514-1.973,0.794-2.974,0.845
				c-1.65,0.082-3.06-0.322-4.249-1.225c-1.189-0.909-1.856-2.09-1.973-3.551c-0.117-1.459,0.363-2.739,1.464-3.825
				c1.1-1.085,2.521-1.679,4.238-1.765C94.642,122.525,95.695,122.713,96.69,123.142z"/>
			<path fill="#FFFFFF" d="M98.79,127.493c-0.042-1.417,0.49-2.641,1.619-3.659c1.127-1.019,2.535-1.538,4.198-1.542
				c1.67-0.005,3.088,0.512,4.229,1.531c1.124,1.02,1.658,2.265,1.623,3.723c-0.037,1.472-0.631,2.689-1.757,3.667
				c-1.134,0.972-2.497,1.452-4.112,1.456c-1.6,0.005-2.943-0.479-4.055-1.466C99.423,130.231,98.835,129,98.79,127.493z
				 M101.374,127.477c0.018,0.98,0.323,1.753,0.906,2.317c0.601,0.569,1.381,0.851,2.349,0.849c0.972-0.002,1.75-0.285,2.341-0.851
				c0.59-0.566,0.895-1.326,0.906-2.28c0.012-0.956-0.276-1.723-0.868-2.298c-0.601-0.583-1.403-0.876-2.396-0.874
				c-0.979,0.002-1.772,0.299-2.371,0.885C101.645,125.811,101.357,126.562,101.374,127.477z"/>
			<path fill="#FFFFFF" d="M113.308,122.703c0.865,0.03,1.73,0.064,2.596,0.104c-0.015,0.302-0.028,0.604-0.043,0.907
				c0.937-0.745,1.979-1.087,3.114-1.021c1.303,0.075,2.294,0.505,2.965,1.274c0.581,0.653,0.812,1.674,0.702,3.054
				c-0.16,2.001-0.321,4.001-0.486,6.003c-0.826-0.062-1.652-0.12-2.479-0.174c0.128-1.824,0.254-3.648,0.378-5.474
				c0.066-0.967-0.039-1.644-0.318-2.03c-0.27-0.395-0.798-0.616-1.58-0.66c-0.851-0.047-1.468,0.172-1.85,0.652
				c-0.372,0.473-0.586,1.323-0.645,2.545c-0.077,1.577-0.153,3.156-0.231,4.733c-0.826-0.038-1.653-0.07-2.48-0.099
				C113.071,129.247,113.191,125.976,113.308,122.703z"/>
			<path fill="#FFFFFF" d="M125.232,128.275c0.132-1.413,0.81-2.566,2.058-3.449c1.247-0.882,2.714-1.236,4.377-1.049
				c1.671,0.188,3.03,0.862,4.05,2.006c1.006,1.144,1.39,2.441,1.176,3.885c-0.217,1.458-0.964,2.6-2.214,3.44
				c-1.258,0.833-2.682,1.154-4.296,0.973c-1.598-0.18-2.879-0.813-3.865-1.921C125.53,131.067,125.095,129.775,125.232,128.275z
				 M127.813,128.555c-0.104,0.977,0.106,1.777,0.622,2.405c0.528,0.636,1.272,1.005,2.239,1.113
				c0.972,0.109,1.786-0.081,2.446-0.576c0.659-0.495,1.059-1.215,1.188-2.16c0.129-0.947-0.066-1.742-0.59-2.383
				c-0.529-0.647-1.297-1.03-2.291-1.143c-0.979-0.109-1.807,0.094-2.476,0.607C128.286,126.933,127.907,127.646,127.813,128.555z"
				/>
			<path fill="#FFFFFF" d="M140.34,125.188c0.862,0.128,1.725,0.263,2.586,0.401c-0.051,0.298-0.102,0.597-0.152,0.896
				c0.571-0.371,1.05-0.608,1.43-0.707c0.404-0.103,0.893-0.107,1.459-0.011c1.266,0.219,2.178,0.877,2.72,1.963
				c0.996-0.802,2.195-1.069,3.583-0.792c2.528,0.507,3.487,2.098,2.865,4.713c-0.468,1.977-0.939,3.95-1.418,5.923
				c-0.825-0.178-1.651-0.351-2.476-0.521c0.407-1.779,0.81-3.558,1.208-5.336c0.206-0.921,0.223-1.6,0.049-2.032
				c-0.18-0.442-0.575-0.726-1.182-0.845c-0.707-0.14-1.27-0.007-1.686,0.394c-0.417,0.399-0.728,1.113-0.938,2.135
				c-0.34,1.66-0.685,3.32-1.032,4.979c-0.825-0.155-1.651-0.307-2.476-0.453c0.349-1.778,0.694-3.558,1.036-5.337
				c0.332-1.717-0.075-2.681-1.217-2.875c-0.722-0.122-1.29,0.026-1.699,0.444c-0.412,0.417-0.703,1.134-0.881,2.148
				c-0.29,1.668-0.582,3.337-0.879,5.004c-0.822-0.133-1.645-0.26-2.467-0.384C139.307,131.66,139.829,128.425,140.34,125.188z"/>
			<path fill="#FFFFFF" d="M160.004,137.214c-0.902-2.977-1.883-5.952-2.938-8.923c1,0.222,1.998,0.449,2.997,0.684
				c0.675,2.098,1.313,4.197,1.915,6.297c1.543-1.563,3.111-3.112,4.699-4.648c0.972,0.258,1.944,0.519,2.915,0.788
				c-4.451,4.039-8.731,8.186-12.829,12.433c-0.91-0.218-1.822-0.43-2.732-0.636C155.979,141.187,157.971,139.189,160.004,137.214z"
				/>
		</g>
	</g>
	<polygon fill="#FFFFFF" points="44.207,77.301 47.9,85.787 57.113,86.681 50.187,92.817 52.184,101.854 44.207,97.165 
		36.227,101.854 38.224,92.817 31.3,86.681 40.513,85.787 	"/>
	<polygon fill="#FFFFFF" points="151.6,77.301 155.293,85.787 164.506,86.681 157.579,92.817 159.576,101.854 151.6,97.165 
		143.62,101.854 145.617,92.817 138.69,86.681 147.903,85.787 	"/>
	<polygon fill="#FFFFFF" points="56.597,54.326 59.748,61.564 67.604,62.324 61.7,67.56 63.402,75.266 56.597,71.265 49.793,75.266 
		51.496,67.56 45.592,62.324 53.448,61.564 	"/>
	<polygon fill="#FFFFFF" points="139.207,54.326 142.355,61.564 150.215,62.324 144.311,67.56 146.013,75.266 139.207,71.265 
		132.401,75.266 134.106,67.56 128.199,62.324 136.059,61.564 	"/>
	<path fill="#FFFFFF" d="M88.205,38.563c0,0,8.963-1.43,26.454,0c3.174,21.537-1.823,31.015-2.537,39.821
		c-0.162,7.178,0.115,8.963,0.272,11.46c0,3.255-18.521,4.244-21.653,0c0.755-5.55,0.239-11.104,0.239-11.104
		C89.592,65.493,84.915,58.671,88.205,38.563z"/>
</g>
<g>
</g>
<g>
</g>
<g>
</g>
<g>
</g>
<g>
</g>
<g>
</g>
<g>
</g>
<g>
</g>
<g>
</g>
<g>
</g>
<g>
</g>
<g>
</g>
<g>
</g>
<g>
</g>
<g>
</g>
</svg>
