<?xml version="1.0" encoding="utf-8"?>
<!-- Generator: Adobe Illustrator 21.0.2, SVG Export Plug-In . SVG Version: 6.00 Build 0)  -->
<svg version="1.1" id="Camada_1" xmlns="http://www.w3.org/2000/svg" xmlns:xlink="http://www.w3.org/1999/xlink" x="0px" y="0px"
	 viewBox="0 0 482.3 480" style="enable-background:new 0 0 482.3 480;" xml:space="preserve">
<style type="text/css">
	.st0{clip-path:url(#SVGID_2_);}
	.st1{enable-background:new    ;}
</style>
<g>
	<g>
		<defs>
			<circle id="SVGID_1_" cx="242.9" cy="238.7" r="206.7"/>
		</defs>
		<clipPath id="SVGID_2_">
			<use xlink:href="#SVGID_1_"  style="overflow:visible;"/>
		</clipPath>
		<g class="st0">
			<polygon points="394.1,65.6 202.8,84.1 266.6,7.3 348.1,44.3 			"/>
			<polygon points="249.2,9 114.6,146.1 114.1,46.3 200.4,22.3 			"/>
			<polygon points="101.9,58.8 86.9,250.3 22.4,174.2 73,100.3 			"/>
			<polygon points="21.1,191.6 132.7,348 34.4,331.1 25.6,242 			"/>
			<polygon points="44.5,345.3 230.5,393.3 144.4,443.7 80.4,381 			"/>
			<polygon points="161.2,448 334.6,365.2 301,459.1 211.7,452.3 			"/>
			<polygon points="316.7,451.6 396.3,276.7 430.9,370.3 358.1,422.5 			"/>
			<polygon points="438.1,354.5 386.7,169.3 473.3,218.8 451,305.5 			"/>
			<polygon points="468.6,202 310.2,93.3 408.4,75.4 447.1,156.2 			"/>
		</g>
	</g>
</g>
<g class="st1">
	<path d="M150.7,286.6v-4.5l8.4-0.5c4.6-0.3,7.4-0.7,8.4-1.3c0.9-0.6,1.6-1.8,1.9-3.5c0.6-2.8,0.9-7.9,0.9-15.5v-4.1
		c-20.1,0-34.3,0.3-42.6,0.8l-1.4-4.7c8.4-14.8,15.3-26.5,20.5-35.1c5.2-8.6,13.5-21.7,24.8-39.1c2.8-0.8,6.3-2.2,10.8-4.3l2.2,0.9
		c-0.3,6.1-0.5,16.6-0.5,31.6v40.1c6.7,0,12.5-0.3,17.4-0.9c-0.3,2.5-0.5,4.2-0.5,5.2c0,0.7,0.2,2.8,0.5,6.4
		c-5.5-0.5-11.4-0.8-17.4-0.8c0,12.7,0.4,19.9,1.2,21.5c0.8,1.6,3.6,2.5,8.2,2.9l8,0.5v4.5c-9.9-0.4-18.3-0.5-25.3-0.5
		C173.4,286.1,164.9,286.3,150.7,286.6z M170.3,191.6c-11.4,16.6-22.6,35.1-33.7,55.8c6,0.2,11.3,0.3,16.1,0.3
		c4.4,0,10.3-0.1,17.6-0.3V191.6z"/>
	<path d="M211.2,231.2c0-20,3.3-34.6,10-43.7c6.7-9.1,15.6-13.6,26.8-13.6c6.9,0,12.7,1.7,17.6,5.1c4.8,3.4,8.6,8.6,11.3,15.5
		s4,17.1,4,30.3c0,23.1-3.3,39.4-10,49c-6.7,9.5-15.5,14.3-26.6,14.3c-7.7,0-14-2.3-19.1-6.8c-5.1-4.5-8.9-10.9-11.2-19.1
		C212.1,256,211.2,245.6,211.2,231.2z M224.8,229.1c0,21.3,2.2,35.9,6.6,43.8c3.5,6.5,8.6,9.7,15.3,9.7c6.4,0,11.2-3,14.4-8.9
		c4.1-7.4,6.2-21.1,6.2-41c0-21.1-2.2-35.6-6.6-43.3c-3.7-6.6-8.9-9.8-15.6-9.8c-6.3,0-11.3,3.2-14.9,9.7
		C226.6,195.7,224.8,209,224.8,229.1z"/>
	<path d="M310.7,286.6v-4.5l8.4-0.5c4.6-0.3,7.4-0.7,8.4-1.3c0.9-0.6,1.6-1.8,1.9-3.5c0.6-2.8,0.9-7.9,0.9-15.5v-4.1
		c-20.1,0-34.3,0.3-42.6,0.8l-1.4-4.7c8.4-14.8,15.3-26.5,20.5-35.1c5.2-8.6,13.5-21.7,24.8-39.1c2.8-0.8,6.3-2.2,10.8-4.3l2.2,0.9
		c-0.3,6.1-0.5,16.6-0.5,31.6v40.1c6.7,0,12.5-0.3,17.4-0.9c-0.3,2.5-0.5,4.2-0.5,5.2c0,0.7,0.2,2.8,0.5,6.4
		c-5.5-0.5-11.4-0.8-17.4-0.8c0,12.7,0.4,19.9,1.2,21.5c0.8,1.6,3.6,2.5,8.2,2.9l8,0.5v4.5c-9.9-0.4-18.3-0.5-25.3-0.5
		C333.3,286.1,324.9,286.3,310.7,286.6z M330.3,191.6c-11.4,16.6-22.6,35.1-33.7,55.8c6,0.2,11.3,0.3,16.1,0.3
		c4.4,0,10.3-0.1,17.6-0.3V191.6z"/>
</g>
</svg>
