<svg id="Camada_1" data-name="Camada 1" xmlns="http://www.w3.org/2000/svg" viewBox="0 0 329 107"><defs><style>.cls-1{fill:#fff;}</style></defs><title>Prancheta 2</title><path class="cls-1" d="M117.06,22.69h-15v55h-6.5v-55h-15v-6h36.5Z"/><path class="cls-1" d="M112.56,55.89c0-7.8,1.4-13.6,4-17.3s6.5-5.5,11.5-5.5c5.3,0,9.3,1.9,11.8,5.7s3.8,9.5,3.8,17.2c0,7.9-1.4,13.7-4.1,17.3s-6.6,5.5-11.5,5.5c-5.3,0-9.3-1.9-11.8-5.7S112.56,63.59,112.56,55.89Zm6.5,0a49,49,0,0,0,.5,7,16.34,16.34,0,0,0,1.6,5.4,9.05,9.05,0,0,0,2.8,3.5,7.66,7.66,0,0,0,11-2.7c1.5-2.7,2.3-7.1,2.3-13.1a48.6,48.6,0,0,0-.5-6.9,16.34,16.34,0,0,0-1.6-5.4,9.05,9.05,0,0,0-2.8-3.5,7.46,7.46,0,0,0-4.2-1.3,7.24,7.24,0,0,0-6.7,4.1Q119.06,46.89,119.06,55.89Z"/><path class="cls-1" d="M179.56,79.69c0,5.6-1.2,9.8-3.7,12.5s-6.1,4-10.9,4a27.8,27.8,0,0,1-7.1-.7,20.32,20.32,0,0,1-4.5-1.7l1.8-5.4c1.2.5,2.4,1,3.8,1.5a15.33,15.33,0,0,0,5.1.7c3.5,0,6-1,7.3-3s2-5.3,2-9.9v-3.2H173a9,9,0,0,1-3.6,3.1,11.66,11.66,0,0,1-5.6,1.1c-4.7,0-8.2-1.8-10.4-5.4s-3.3-9.3-3.3-17.1c0-7.5,1.4-13.2,4.3-17s7.1-5.7,12.8-5.7a29.56,29.56,0,0,1,7.1.8,28.61,28.61,0,0,1,5.2,1.8v43.6Zm-6.3-39.3a14.48,14.48,0,0,0-6.7-1.4,8.29,8.29,0,0,0-7.1,4q-2.7,4.05-2.7,12.9a46.43,46.43,0,0,0,.4,6.7,19.2,19.2,0,0,0,1.5,5.4,10,10,0,0,0,2.7,3.6,6.6,6.6,0,0,0,4,1.3,7.74,7.74,0,0,0,5.2-1.7,10.37,10.37,0,0,0,2.8-5.2V40.39Z"/><path class="cls-1" d="M227.46,46.19l1.2-11.7h-.4L225.06,45l-9.9,21.4h-3.7L201,44.89l-3.2-10.5h-.5l1.7,11.8v31.5h-10.4v-61h10.5l12.7,26.4,2.1,7.6h.3l2-7.8,11.9-26.2h10.4v61h-11Z"/><path class="cls-1" d="M246.26,36.69a23.22,23.22,0,0,1,6.5-2.5,39.66,39.66,0,0,1,8.9-1c4.9,0,8.4,1.3,10.3,3.8s2.9,6.2,2.9,10.9c0,2.7-.1,5.4-.2,8.1l-.3,7.8c-.1,2.5,0,5,.1,7.3a24.11,24.11,0,0,0,1.2,6.7h-8.4l-1.7-5.3h-.3a11.2,11.2,0,0,1-3.9,4.2,11.49,11.49,0,0,1-6.4,1.7,10.15,10.15,0,0,1-8.1-3.4,13.59,13.59,0,0,1-3-9.2c0-5.2,1.9-8.9,5.6-11.1s8.7-3.1,15.1-2.8c.3-3.4.1-5.8-.7-7.3s-2.3-2.3-4.7-2.3a26.25,26.25,0,0,0-5.4.6,22.56,22.56,0,0,0-5,1.7Zm12.4,32.7a5.77,5.77,0,0,0,3.8-1.2,7.65,7.65,0,0,0,2.2-2.6v-7.2a16.25,16.25,0,0,0-3.8-.1,10,10,0,0,0-3.2.8,4.89,4.89,0,0,0-2.2,1.8,4.82,4.82,0,0,0-.8,3,6.68,6.68,0,0,0,1.1,4.1A3.3,3.3,0,0,0,258.66,69.39Z"/><path class="cls-1" d="M313.26,77.69c0,6.3-1.5,11-4.4,14s-6.9,4.5-12.1,4.5a36,36,0,0,1-8.4-.8,20.12,20.12,0,0,1-4.7-1.8l2.2-8.8c1.3.5,2.7,1,4.1,1.5a16.61,16.61,0,0,0,5.3.7c3,0,5-.8,6.1-2.4s1.7-4,1.7-7.3v-2.4h-.3a7.14,7.14,0,0,1-3.3,2.6,13.29,13.29,0,0,1-5.3.9c-4.6,0-8-1.7-10.3-5.2s-3.4-8.9-3.4-16.4c0-8.1,1.6-14,4.7-17.9s7.7-5.7,13.5-5.7a42.52,42.52,0,0,1,8.4.7,27.09,27.09,0,0,1,6,1.8v42Zm-16.1-8.2a5.82,5.82,0,0,0,3.7-1.1,6.52,6.52,0,0,0,2-3.2V43.29a10.33,10.33,0,0,0-2.1-.7,11.15,11.15,0,0,0-2.7-.3,5.52,5.52,0,0,0-5,3.1q-1.8,3.15-1.8,10.8C291.26,65.09,293.26,69.49,297.16,69.49Z"/><path class="cls-1" d="M48.76,66.59l-.2.1h.1ZM62,53.39l14.7-8.6A32.21,32.21,0,0,0,62,21.89v17.3h0Zm-13.2,13.4,13.8,9.1A32,32,0,0,0,77,50.39Zm-16,12A32.35,32.35,0,0,0,45,81.19a31.7,31.7,0,0,0,12.7-2.6L32.76,62Z"/><path class="cls-1" d="M57.06,19.49v17l-26.8-15.8A31.64,31.64,0,0,1,45,17.09,32.23,32.23,0,0,1,57.06,19.49Z"/><path class="cls-1" d="M27.86,44.89l.1,31.3a32.21,32.21,0,0,1-14.7-22.9Z"/><path class="cls-1" d="M40.26,32.19,13,47.89a31.94,31.94,0,0,1,12.7-24.3Z"/></svg>