<svg xmlns="http://www.w3.org/2000/svg" viewBox="0 0 16.7 10.1"><defs><style>.cls-1{isolation:isolate;}.cls-2{font-size:1.21px;stroke:#fff;stroke-width:0.04px;font-family:CenturyGothic, Century Gothic;letter-spacing:1.1em;}.cls-3{opacity:0.16;mix-blend-mode:screen;}</style></defs><title>Asset 1</title><g class="cls-1"><g id="Layer_2" data-name="Layer 2"><g id="Layer_1-2" data-name="Layer 1"><text class="cls-2" transform="translate(0.02 9.71) scale(0.98 1)">MAGAZINE</text><g class="cls-3"><path d="M7.78,1.48c.12-.18.27-.16.33.05L9,4.72l.21.77.28,1,.22.77.23.82.14.48c0,.06-.15.1-.37.1l-2.37,0a.55.55,0,0,1-.5-.39l-.76-3C6,5,5.87,5,5.75,5.2L4,7.8a.25.25,0,0,1-.45,0L1.84,5.31c-.12-.18-.27-.16-.33.06L1,7.4l-.19.77a2.78,2.78,0,0,1-.11.37.24.24,0,0,1-.24.12C.29,8.66.21,8.6.21,8.5a1.09,1.09,0,0,1,0-.15l.23-.76.11-.36.23-.76.35-1.18.23-.76.91-3c.06-.21.21-.23.33,0L5,5a.25.25,0,0,0,.44,0Z"/></g><path d="M7.78.68C7.9.5,8,.52,8.11.73L9,3.93l.21.77.28,1,.22.77.23.82.14.48c0,.06-.15.1-.37.1l-2.37,0a.55.55,0,0,1-.5-.39l-.76-3c-.05-.21-.2-.24-.32-.05L4,7a.25.25,0,0,1-.45,0L1.84,4.51c-.12-.18-.27-.16-.33.06L1,6.6l-.19.77a2.78,2.78,0,0,1-.11.37.24.24,0,0,1-.24.12C.29,7.86.21,7.8.21,7.7a1.09,1.09,0,0,1,0-.15l.23-.76.11-.36.23-.76.35-1.18.23-.76.91-3c.06-.21.21-.23.33,0L5,4.2a.25.25,0,0,0,.44,0Z"/><g class="cls-3"><path d="M14.24,4.22c.11.19.28.18.36,0l1.11-2.67L16,.9l0,0A.24.24,0,0,1,16.19.8a.32.32,0,0,1,.18.05.15.15,0,0,1,.08.12s-.25.61-.25.61l-.32.7L15.56,3,13.25,8c-.09.2-.25.21-.36,0L12,6.33l-.39-.69-.63-1.08a.21.21,0,0,0-.4,0l-.42.74L9.72,6,8.87,7.53l-.32.59c-.07.13-.2.07-.28-.13l-.72-1.7-.31-.73L6.64,4.18l-.32-.73-1-2.13L5.18.93a1.06,1.06,0,0,1,.38,0H8.09a.64.64,0,0,1,.55.37l.16.38.31.74.79,1.8c.09.2.26.21.36,0l.59-1,.38-.67.3-.55.32-.57,0,0,.26-.46c0-.06.2-.05.31.14l.41.77.38.7Z"/></g><path d="M14.24,3.42c.11.19.28.18.36,0L15.71.72,16,.1l0,0A.24.24,0,0,1,16.19,0a.32.32,0,0,1,.18.05.15.15,0,0,1,.08.12s-.25.61-.25.61l-.32.7-.32.69-2.31,5c-.09.2-.25.21-.36,0L12,5.54l-.39-.69-.63-1.08a.21.21,0,0,0-.4,0l-.42.74-.39.69L8.87,6.73l-.32.59c-.07.13-.2.07-.28-.13L7.55,5.5l-.31-.73L6.64,3.39l-.32-.73L5.36.52,5.18.13a1.06,1.06,0,0,1,.38,0H8.09a.64.64,0,0,1,.55.37L8.8.85l.31.74.79,1.8c.09.2.26.21.36,0l.59-1,.38-.67.3-.55.32-.57,0,0,.26-.46c0-.06.2-.05.31.14l.41.77.38.7Z"/></g></g></g></svg>