<svg xmlns="http://www.w3.org/2000/svg" viewBox="0 0 8.87 6.08"><title>small-logo</title><g id="Layer_2" data-name="Layer 2"><g id="Layer_1-2" data-name="Layer 1"><path d="M7.65,2.41c0,.05.07.05.09,0L8.49.35,8.57.14a.45.45,0,0,1,0-.09.13.13,0,0,1,.11,0,.18.18,0,0,1,.11,0,.1.1,0,0,1,0,.08s-.2.54-.2.54L8.59.88l-.1.24-.08.21L6.94,4.93c0,.06-.06.06-.09,0L6.18,3.56l-.1-.2-.5-1c0-.05-.07-.05-.1,0l-.38.75-.1.2L4.37,4.62l-.1.2-.06.12c0,.06-.06.05-.09,0L3.61,3.53l-.08-.21L3.08,2.12,3,1.92,2.33.23,2.28.1s0,0,.1,0H4.11a.17.17,0,0,1,.15.1l.19.54.08.21L5.1,2.4c0,.06.06.06.09,0l.48-1,.1-.2L5.88,1,6,.82,6,.73l.1-.2L6.26.24,6.35.06s.09-.09.12,0L6.83.8l.1.2Z"/><path d="M4.55,1.32c0-.05.07,0,.09,0l.62,2.31.06.21.25.91L5.63,5l.22.8,0,.17S5.86,6,5.8,6H4.13A.15.15,0,0,1,4,5.91L3.45,3.72c0-.06-.05-.07-.08,0L2.19,5.63a.07.07,0,0,1-.12,0L.88,3.81c0-.05-.07,0-.09,0L.42,5.41l0,.22S.31,6,.28,6a.14.14,0,0,1-.14.08C0,6.08,0,6,0,6s.06-.24.06-.24l.06-.21L.25,5l.06-.21.28-1,.06-.21.6-2.23c0-.06.06-.06.09,0L2.92,3.82a.06.06,0,0,0,.12,0Z"/></g></g></svg>