<?xml version="1.0" encoding="utf-8"?>
<!-- Generator: Adobe Illustrator 21.0.2, SVG Export Plug-In . SVG Version: 6.00 Build 0)  -->
<svg version="1.1" id="Layer_1" xmlns="http://www.w3.org/2000/svg" xmlns:xlink="http://www.w3.org/1999/xlink" x="0px" y="0px"
	 viewBox="0 0 50.9 8.7" style="enable-background:new 0 0 50.9 8.7;" xml:space="preserve">
<style type="text/css">
	.st0{fill:#626E60;}
</style>
<g>
	<path class="st0" d="M2,7.8h1.5v0.7H1.2V3H0V2.3h1.2V0H2v2.3h1.4V3H2V7.8z"/>
	<path class="st0" d="M9.7,7.3C9.1,8.2,8.2,8.7,7.1,8.7C6,8.7,4.9,8.2,4.4,7.3C4,6.7,3.8,6.1,3.9,5.4c0-0.9,0.3-1.3,0.5-1.8
		C4.9,2.7,6,2.2,7.1,2.2c1.1,0,2,0.5,2.6,1.5V2.3h1.8V3h-1v4.8h1v0.7H9.7V7.3z M4.6,5.5C4.6,6.8,5.8,8,7.2,8c1.4,0,2.5-1.1,2.5-2.5
		c0-1.4-1.1-2.5-2.5-2.5C5.8,2.9,4.6,4.1,4.6,5.5z"/>
	<path class="st0" d="M15.4,3.9c0-0.3-0.2-0.6-0.4-0.8c-0.2-0.2-0.6-0.3-0.9-0.3c-0.6,0-1.2,0.4-1.2,1.1c0,0.8,0.8,1,1.4,1.1
		c0.5,0.1,1,0.2,1.4,0.5c0.5,0.3,0.8,0.8,0.8,1.4c0,0.4-0.1,0.7-0.3,1c-0.3,0.6-1.1,0.9-1.8,0.9c-0.8,0-1.4-0.3-1.8-0.9v0.8h-0.6
		V6.8h0.6c0.1,0.8,0.8,1.3,1.6,1.3c0.7,0,1.4-0.5,1.4-1.2c0-0.9-0.7-1-1.4-1.2c-0.5-0.1-1-0.2-1.4-0.5C12.2,5,12,4.5,12,3.9
		c0-0.4,0.1-0.8,0.3-1.1c0.4-0.5,1.1-0.7,1.7-0.7c0.6,0,1.1,0.2,1.4,0.7V2.3H16v1.6H15.4z"/>
	<path class="st0" d="M18.8,7.8h1.5v0.7H18V3h-1.2V2.3H18V0h0.8v2.3h1.4V3h-1.4V7.8z"/>
	<path class="st0" d="M26.9,6.8c-0.5,1.2-1.7,1.9-3,1.9c-1.8,0-3.3-1.5-3.3-3.3c0-1.8,1.4-3.3,3.2-3.3c1.9,0,3.3,1.5,3.3,3.3v0.2
		h-5.8C21.5,7,22.6,8,23.9,8c0.9,0,1.7-0.4,2.2-1.2H26.9z M26.4,5.1c-0.2-1.3-1.3-2.2-2.6-2.2c-1.2,0-2.3,1-2.4,2.2H26.4z"/>
	<path class="st0" d="M29.5,3.7C30,2.7,30.9,2.2,32,2.2c1.8,0,3.3,1.5,3.3,3.3c0,0.7-0.2,1.3-0.5,1.8c-0.4,0.7-1.5,1.5-2.7,1.5
		c-1.1,0-2.1-0.5-2.6-1.5v1.3h-1.8V7.8h1.1V0.7h-1.1V0h1.8V3.7z M34.5,5.4C34.5,4.1,33.4,3,32,3c-1.4,0-2.5,1.1-2.5,2.5
		c0,1.4,1.2,2.5,2.6,2.5C33.4,7.9,34.5,6.8,34.5,5.4z"/>
	<path class="st0" d="M41.1,7.5c-0.4,0.8-1.2,1.2-2.1,1.2c-0.9,0-1.8-0.6-2.1-1.2c-0.2-0.3-0.3-0.8-0.3-1.5V3h-1.1V2.3h1.8v3.4
		c0,0.6,0,1.2,0.4,1.7C38.1,7.8,38.6,8,39.2,8s1.1-0.3,1.4-0.7c0.4-0.5,0.5-1,0.5-1.6V3H40V2.3h1.8v5.6H43v0.7h-1.9V7.5z"/>
	<path class="st0" d="M49,7.2c-0.5,0.9-1.5,1.5-2.6,1.5c-1,0-2.1-0.6-2.7-1.5c-0.3-0.5-0.6-1.2-0.6-1.8c0-1.8,1.5-3.3,3.2-3.3
		c1.1,0,2.1,0.6,2.6,1.6v-3H48V0h1.8v7.8h1.1v0.7H49V7.2z M49.1,5.4c0-1.4-1.1-2.5-2.5-2.5c-1.4,0-2.5,1.2-2.5,2.6
		C44,6.9,45.2,8,46.5,8C48,8,49.1,6.8,49.1,5.4z"/>
</g>
</svg>
