<?xml version="1.0" encoding="utf-8"?>
<!-- Generator: Adobe Illustrator 24.0.1, SVG Export Plug-In . SVG Version: 6.00 Build 0)  -->
<svg version="1.1" id="Layer_1" xmlns="http://www.w3.org/2000/svg" xmlns:xlink="http://www.w3.org/1999/xlink" x="0px" y="0px"
	 viewBox="0 0 281.6 167.1" style="enable-background:new 0 0 281.6 167.1;" xml:space="preserve">
<g>
	<path d="M41.8,89.4c-0.2,0-0.5-0.1-0.8-0.1c-0.5,0-0.8-0.2-0.9-0.5c-0.1-0.3-0.2-0.6-0.5-0.7c-0.7-0.4-1-0.7-1-0.9
		c0-0.3-0.1-0.6-0.2-0.8c-0.2-0.6-0.3-1.2-0.3-1.8l0.1-1.1c0-0.6,0-1.1,0.1-1.7c0-0.2,0-0.4-0.1-0.5c-0.1-0.1-0.1-0.2-0.1-0.3
		c0-0.1,0.1-0.2,0.2-0.3c0.1-0.1,0.2-0.2,0.2-0.3l0-0.2c-0.1-0.2-0.1-0.3-0.1-0.5s0.1-0.3,0.2-0.4c0.2-0.4,0.3-0.7,0.3-0.9
		c0-0.5,0.1-0.9,0.3-1.2c0,0,0.1-0.1,0.1-0.2c0-0.1,0-0.1,0-0.2c-0.1-0.2-0.1-0.5-0.1-0.7c0-0.1,0-0.1-0.1-0.2c0-0.1,0-0.2,0-0.3
		c0.1-0.1,0.1-0.3,0.1-0.6c0-0.2,0.1-0.5,0.3-0.9l0-0.1c0,0,0-0.1,0-0.1c0,0,0-0.1,0-0.2c0-0.3,0.2-0.5,0.5-0.7
		c0.1,0,0.1-0.1,0.1-0.2c-0.1-0.1-0.1-0.2-0.2-0.2c-0.1-0.1-0.2-0.2-0.2-0.4c0.2-0.4,0.3-0.8,0.3-1.3c0-0.2,0.2-0.3,0.5-0.5
		c0.2-0.1,0.4-0.2,0.4-0.4c0-0.1,0-0.2-0.1-0.3c0,0,0,0-0.1-0.1c-0.1,0-0.1-0.1-0.1-0.3c0-0.1,0-0.1,0.1-0.2
		c0.2-0.2,0.3-0.4,0.4-0.6c0.1-0.2,0.2-0.4,0.2-0.4c0-0.1,0.1-0.2,0.1-0.3c0-0.1-0.1-0.2-0.2-0.2c-0.1-0.1-0.1-0.1-0.2-0.2
		c0.1-0.1,0.2-0.2,0.3-0.3c0.1-0.1,0.2-0.2,0.3-0.3c-0.1-0.2-0.1-0.4-0.1-0.5c0-0.4,0.2-0.7,0.7-0.9c-0.2-0.3-0.3-0.6-0.3-0.8
		c0-0.2,0.1-0.4,0.2-0.6c0.2-0.2,0.3-0.3,0.3-0.5c0.1-0.1,0.1-0.2,0.2-0.2c0-0.1,0-0.2,0-0.2c0-0.1,0-0.2,0-0.3c0-0.1,0-0.2,0.1-0.3
		c0.2-0.2,0.3-0.4,0.3-0.7l0-0.3c0-0.2,0.1-0.4,0.2-0.5c0.2-0.2,0.4-0.6,0.4-1c0-0.3,0.2-0.9,0.6-1.7c0.1-0.2,0.1-0.3,0.1-0.4
		c0-0.1,0-0.1-0.1-0.2c0-0.1,0-0.2,0-0.3c0.3-0.6,0.6-1.3,0.7-2c0-0.1,0.1-0.2,0.1-0.3c0.1-0.2,0.2-0.4,0.2-0.5s0-0.3,0.1-0.3
		c0-0.1,0.1-0.2,0.2-0.3c0.1-0.1,0.1-0.2,0.1-0.3c0-0.1-0.1-0.2-0.3-0.3c-0.2-0.1-0.3-0.2-0.3-0.3c0.4-1.4,0.6-2.2,0.7-2.5
		c0.1-0.2,0.1-0.4,0.2-0.7c0-0.1,0-0.2-0.1-0.2c0,0-0.1-0.1-0.1-0.1c0,0-0.1,0-0.1,0l0,0c-0.8,0.3-3.1,1.4-7,3.3
		c-0.7,0.3-1.3,0.7-1.9,1.2c-0.4,0.1-0.7,0.4-0.9,0.6s-0.4,0.6-0.6,0.9c-0.8,1.4-1.6,2.8-2.3,4c-0.3,0.6-0.6,1.1-0.8,1.8
		c-0.4,1-1,2.4-1.9,4.2c-0.5,1-1,2-1.5,3.1c-0.3,0.6-0.6,1.3-0.9,1.9c-0.4,0.9-0.8,1.8-1.2,2.6c-0.7,1.7-2.4,5.4-5.3,11.2L20,85.6
		c-0.1,0.2-0.2,0.4-0.3,0.5c-0.7,1.2-1.5,1.8-2.2,1.8c-0.2,0-0.5-0.1-0.8-0.2l-0.3-0.5h0.3l0.1-0.1c0,0-0.1,0-0.1,0c0,0-0.1,0-0.2,0
		c-0.1,0-0.1,0.1-0.1,0.1l0,0.1c-0.5-0.1-0.9-0.2-1.1-0.2c-0.5,0-0.9-0.1-1.1-0.3c-0.2-0.2-0.4-0.5-0.5-0.9h-0.1l0.1,0
		c-0.1,0-0.2-0.1-0.3-0.1c-0.1,0-0.3-0.1-0.5-0.3c-0.5-0.3-0.8-0.6-0.9-0.9c-0.1-0.3-0.3-0.5-0.6-0.5S11.1,84,11,83.7
		c-0.1-0.2-0.1-0.4-0.1-0.5c0-0.5,0.4-1,1.3-1.7c0.2-0.1,0.4-0.3,0.5-0.5c0.1-0.2,0.3-0.3,0.5-0.4c0.2-0.1,0.3-0.2,0.5-0.4
		c0.1-0.2,0.3-0.4,0.5-0.5c0.3-0.2,0.6-0.6,1-1.1c0.1-0.2,0.3-0.4,0.5-0.6c0.2-0.2,0.4-0.4,0.6-0.7c0.2-0.3,0.4-0.5,0.6-0.8
		c0.3-0.2,0.7-0.7,1.2-1.5c2.1-2.8,3.5-4.7,4.1-5.7c0.7-1.3,1.4-2.5,2.1-3.8c1.6-3.1,2.8-5.3,3.6-6.5c0.2-0.3,0.3-0.6,0.3-0.7
		c-0.1-0.1-0.1-0.1-0.1-0.1c-0.4,0.1-0.6,0.2-0.8,0.2c-0.2,0.1-0.5,0.1-0.7,0.1c-0.2,0-0.3,0-0.4-0.1c0,0-0.1,0-0.2,0.1
		c0,0-0.1-0.1-0.1-0.1c-0.5-0.4-1-0.7-1.5-0.8c-0.1-0.4-0.2-0.7-0.2-0.8c0-0.2,0-0.4,0.1-0.6c-0.2-0.7-0.3-1.2-0.3-1.4
		c0-0.1,0.1-0.4,0.3-0.9c0,0-0.1-0.1-0.2-0.2c-0.1-0.1-0.2-0.2-0.3-0.4c-0.1-0.2-0.2-0.3-0.2-0.6c0-0.6,0.6-1.1,1.7-1.5
		c0.7-0.3,1.1-0.6,1.3-0.8c0.1-0.2,0.3-0.3,0.4-0.4c-0.2-0.2-0.3-0.4-0.3-0.5l0-0.2c1-0.5,1.8-0.9,2.3-1c0.2,0,0.3-0.1,0.4-0.3
		c0.2-0.3,0.5-0.4,0.8-0.5c0.4,0,0.7-0.2,1-0.5c0.2-0.1,0.4-0.3,0.6-0.3c0.5-0.1,1.1-0.3,1.6-0.5c0.5-0.2,0.9-0.4,1.4-0.6
		c0.6-0.1,1-0.4,1.4-0.9c2.1-3.4,3.3-5.3,3.5-5.6s0.4-0.6,0.6-1c0.2-0.4,0.4-0.6,0.5-0.8s0.3-0.4,0.4-0.6c0.2-0.4,0.4-0.7,0.7-1
		c0.1-0.2,0.3-0.4,0.4-0.5c0.1-0.4,1.7-2.7,4.6-6.9c0.2-0.2,0.3-0.5,0.5-0.7c0.3-0.6,0.7-1.1,1.2-1.6c0.2-0.2,0.3-0.4,0.3-0.6
		l0.5-1.1c0.1-0.2,0.3-0.4,0.5-0.4c0.2,0,0.3-0.2,0.3-0.3c0.1-0.2,0.2-0.3,0.3-0.4c0.1-0.1,0.2-0.3,0.3-0.5c0.1-0.3,0.1-0.4,0.2-0.4
		c0.2-0.1,0.3-0.2,0.3-0.4c0.1-0.2,0.1-0.3,0.2-0.3c0.3-0.1,0.5-0.3,0.5-0.5c0.5-0.8,0.8-1.2,1-1.4c0.3-0.2,0.4-0.5,0.5-0.8
		c0.1-0.3,0.3-0.5,0.7-0.6c0.1,0,0.2-0.1,0.2-0.2c0,0,0-0.1,0-0.1c0,0,0-0.1,0-0.2c0-0.2,0.1-0.4,0.4-0.7c0.9-1.2,1.9-2.5,3.2-3.8
		c0.2-0.2,0.4-0.4,0.5-0.7c0.4-0.5,1.2-1.4,2.5-2.7C61.5,9,62,8.5,62.6,8.1c0.3-0.2,0.5-0.3,0.8-0.3c0.4,0,0.6,0.1,0.7,0.3
		c0.1,0.1,0.2,0.3,0.3,0.4s0.1,0.3,0.2,0.4c0.6,0.6,0.9,1.3,1,2.2c0.3,1.3,0.4,2.5,0.4,3.7c0,0.6,0,1.1-0.1,1.6c0,0.3,0,0.6,0,0.8
		c0,0.2,0,0.4,0,0.6c0,0.4-0.1,0.9-0.2,1.3c-0.3,1.3-0.8,2.5-1.4,3.7c-0.8,1.6-1.4,3-1.9,4.4c-0.6,1.4-1.1,2.8-1.7,4.1
		c-0.4,0.8-0.7,1.6-1,2.4c-0.5,1.4-1,2.7-1.7,4c-0.4,0.9-0.8,1.9-1.1,2.9c-0.3,0.8-0.6,1.6-1,2.4c-0.2,0.3-0.6,1.5-1.4,3.5l-0.3,0.7
		c0,0.1-0.1,0.3-0.2,0.6c-0.5,1-0.9,2-1.1,2.9c-0.6,2.2-1.4,4.7-2.3,7.5c-0.3,1.1-0.6,2.2-0.8,3.3c-0.2,1.1-0.7,3.1-1.5,5.9
		c-0.8,2.9-1.5,5.9-2.1,8.9c-0.1,0.5-0.2,1-0.3,1.5c-0.4,1.8-0.7,3.7-0.7,5.6c-0.1,1.6-0.3,3.2-0.7,4.7c-0.1,0.1-0.3,0.3-0.5,0.4
		c-0.2,0.1-0.4,0.3-0.6,0.5c0,0.1-0.1,0.1-0.2,0.1c-0.4,0-0.8,0.1-1.2,0.4l-0.1,0H41.8z M25.3,50.4c0,0,0-0.1-0.1-0.1l0,0.1H25.3
		L25.3,50.4z M25.2,50.5L25.2,50.5L25.2,50.5L25.2,50.5L25.2,50.5z M26.1,58.5l-0.3,0L26.1,58.5L26.1,58.5z M43.9,43
		c0.4-0.1,0.8-0.2,1.4-0.3c0.6-0.2,1.4-0.4,2.3-0.5l0.5-0.1c0.5-1.3,0.9-2.2,1.2-2.9c0.2-0.3,0.4-0.7,0.5-1.1c0.2-0.6,0.4-1,0.6-1.2
		c0.2-0.3,0.6-1.3,1.2-3l0.3-0.7c0.2-0.4,0.4-0.9,0.5-1.4l0.7-1.5c0.1-0.3,0.2-0.6,0.4-0.9c0.2-0.3,0.5-0.9,0.9-1.8l1.1-2.3
		c0.1-0.2,0.2-0.4,0.3-0.5c0.5-1.3,1-2.2,1.5-2.9c0,0,0.1-0.1,0.1-0.3c0.3-1,0.5-1.6,0.8-1.9c0.2-0.4,0.4-0.8,0.6-1.3
		c0.2-0.8,0.6-1.5,1.1-2.2c0-0.1,0.1-0.1,0.1-0.2c0-0.1,0-0.1,0.1-0.1l0.3-1l-0.3-0.5c0,0,0.1,0.1,0.1,0.1c0.1,0,0.1,0.1,0.2,0.1
		c0.1,0,0.1-0.1,0.1-0.2c0,0,0,0-0.1,0l-0.3,0.1c0,0-0.1,0-0.1,0c0,0.2-0.8,1.2-2.3,2.9c-2.7,3.1-4.1,4.9-4.3,5.5
		c-0.5,0.4-0.9,0.9-1.2,1.5l0.1,0.1c0.2-0.1,0.3-0.2,0.4-0.4c0.1-0.2,0.2-0.3,0.3-0.4c0.1-0.1,0.2-0.2,0.3-0.4
		c0.1-0.1,0.1-0.2,0.1-0.3c0.2-0.1,0.4-0.3,0.6-0.5c0.2-0.2,0.4-0.3,0.6-0.3l0,0l-1.1,1.6c-0.8,1.3-1.6,2.5-2.5,3.7
		c-0.2,0.3-0.4,0.5-0.5,0.8c-0.2,0.3-0.7,1-1.6,2.3c-0.2,0.6-0.5,1.1-0.8,1.6l-6.2,10.2c-0.1,0.3-0.3,0.6-0.4,0.9l0.1,0.1h0H42
		C42.9,43.3,43.6,43.2,43.9,43z M43.6,35.9L43.6,35.9L43.6,35.9L43.6,35.9L43.6,35.9L43.6,35.9z M45.3,49.1c0-0.1-0.1-0.2-0.3-0.2
		c-0.3,0.1-0.4,0.2-0.4,0.3c0,0,0.1,0.1,0.2,0.1C45.2,49.3,45.3,49.2,45.3,49.1z M45.6,43.6c0.7-0.2,1.2-0.4,1.4-0.6
		c0,0,0.1,0,0.1,0c0,0,0,0,0,0c0,0,0,0,0,0c0,0-0.1,0-0.2,0c-0.2,0.1-0.4,0.1-0.6,0.1h-0.5c-0.3,0-0.5,0.2-0.7,0.5
		c0,0,0,0.1-0.1,0.1c0,0,0,0,0,0.1H45l0,0l0.1,0c0,0,0,0,0.1,0.1C45.2,43.7,45.3,43.6,45.6,43.6z M45.2,52.5L45.2,52.5l-0.2,0
		l0.1,0.1L45.2,52.5z M45.7,51L45.7,51c-0.1,0-0.1,0-0.1,0c0,0,0,0,0,0.1c0,0,0,0.1,0.1,0.1h0L45.7,51z M47.1,31.7c0,0,0-0.1,0-0.1
		h-0.1c-0.2,0.1-0.3,0.2-0.3,0.4v0.1l-0.1,0v-0.1l0,0.1C46.7,32,46.9,31.9,47.1,31.7z M48.5,29.3l0-0.1l0.1,0
		C48.6,29.3,48.5,29.3,48.5,29.3L48.5,29.3C48.5,29.3,48.5,29.2,48.5,29.3L48.5,29.3L48.5,29.3z M49.9,27.7L49.9,27.7L49.9,27.7
		L49.9,27.7z M50.6,26.9c0,0,0.1,0,0.1-0.1c0-0.1,0-0.1-0.1-0.1l-0.2,0.2l0.1,0.1h0C50.5,26.9,50.5,26.9,50.6,26.9z M51.1,25.8
		c0.1,0,0.1,0,0.2,0c0,0,0.1,0,0.1,0l0.1,0h0.1l0.1-0.4c0.3-0.1,0.4-0.3,0.4-0.4c0,0,0-0.1-0.1-0.1c-0.1,0-0.2,0-0.3,0.1
		c0,0.1,0,0.2,0,0.3s0,0.2,0,0.3C51.7,25.7,51.5,25.8,51.1,25.8L51.1,25.8L51.1,25.8z M54.8,22L54.8,22L54.8,22l0.1,0.1
		C54.9,22.1,54.8,22.1,54.8,22z M57.5,14.2L57.5,14.2l-0.1,0L57.5,14.2C57.5,14.1,57.5,14.1,57.5,14.2L57.5,14.2L57.5,14.2z
		 M59.1,12.6C59.1,12.6,59.1,12.6,59.1,12.6l0-0.1H59v0.1C59,12.7,59.1,12.7,59.1,12.6C59.1,12.7,59.1,12.7,59.1,12.6z M59.7,12
		l-0.1,0L59.7,12L59.7,12z"/>
	<path d="M58.5,70.8c-0.2-0.2-0.4-0.4-0.6-0.6c-0.1-0.1-0.2-0.2-0.3-0.3c-0.1-0.1-0.2-0.2-0.2-0.3c-0.2-0.1-0.4-0.3-0.4-0.6
		c-0.2-0.3-0.4-0.9-0.4-1.6c0-0.1,0-0.2,0-0.3c0-0.3,0-0.6-0.1-0.8c0-0.1,0-0.2,0.1-0.3c0-0.1,0.1-0.2,0.1-0.3l-0.3-0.3l0-0.7l0-0.1
		c0,0,0-0.2,0.1-0.5l0-0.5c0.1-0.1,0.1-0.3,0.1-0.4l0-0.2c0.1-0.1,0.2-0.3,0.2-0.6s0-0.5,0.1-0.6c0-0.1,0.1-0.5,0.3-1.2
		c0.3-0.5,0.5-1.4,0.8-2.5c0.6-2,0.9-3.2,0.9-3.6c0-0.3,0.1-0.4,0.2-0.5c0.1-0.1,0.2-0.2,0.2-0.3c0-0.1,0-0.2,0-0.2
		c0.3-1.2,0.4-2,0.4-2.4c0-0.2,0-0.3,0.1-0.4c0,0,0-0.1,0-0.1c0,0,0,0-0.1-0.1c0,0,0-0.1-0.1-0.1c0.2-0.1,0.4-0.3,0.5-0.5
		c0,0-0.1,0-0.1,0l-0.1,0.1c0.1,0,0.2-0.1,0.2-0.2c0-0.1,0.1-0.2,0.1-0.2c0-0.1,0-0.1,0.1-0.1l-0.3,0l0,0c0-0.1-0.1-0.2-0.1-0.3
		l0.3-1l0.5-0.1c0,0,0,0,0,0l-0.3-0.3c0.5-1.1,0.8-1.7,0.9-1.9c0.1-0.2,0.2-0.4,0.3-0.6c0.1-0.1,0.2-0.1,0.2-0.2
		c0.1,0,0.1-0.2,0.1-0.4c0-0.1,0-0.2-0.1-0.3c0-0.4,0.2-0.6,0.3-0.7c0,0,0.1-0.1,0.1-0.1c0,0,0-0.1,0.1-0.1c0-0.1,0-0.2,0.1-0.2
		c0.3-0.1,0.4-0.4,0.5-0.8c0,0,0-0.1,0-0.1c0.1,0,0.2,0,0.4,0c-0.1-0.3-0.1-0.9-0.1-1.6c0-0.1,0.1-0.2,0.2-0.2
		c0.1,0,0.2-0.1,0.2-0.2c0-0.1,0.1-0.2,0.1-0.2l0.3,0.2l0.1-0.1v0.1h-0.1c0-0.2,0.1-0.5,0.3-1c0.1,0,0.2-0.1,0.2-0.1
		c0-0.1,0-0.2-0.1-0.3c0.3-0.1,0.5-0.3,0.6-0.5c0.1-0.3,0.3-0.5,0.5-0.5c0.1-0.1,0.3-0.2,0.4-0.3c0.4-0.4,0.9-0.7,1.3-0.7
		c1.1,0.1,1.6,0.5,1.6,1c0.3,0.5,0.5,0.8,0.5,1.1c0.1,0.1,0.1,0.1,0.1,0.1c0.4,0.1,0.6,0.4,0.6,0.8l0,0.4c0,0.2,0.1,0.5,0.2,0.6
		c-0.1,0.2-0.2,0.3-0.3,0.5c-0.1,0.2-0.2,0.4-0.3,0.5c0.1,0,0.3,0,0.5-0.1v0.2c-0.3,0.4-0.5,1-0.5,1.6c0,0,0,0.1,0,0.1
		c0,0,0,0.1-0.1,0.2c0,0.1-0.1,0.2-0.1,0.3c-0.1,0.1-0.1,0.2-0.1,0.3l0,0.2L69,45.2c0,0.1,0.1,0.2,0.2,0.2c-0.1,0.7-0.5,1.2-1.2,1.6
		l0.4,0.2c0,0.1,0,0.2-0.1,0.3s-0.2,0.1-0.2,0.2c-0.1,0.1-0.2,0.1-0.2,0.2l0.3,0.3c-0.1,0.3-0.3,0.9-0.6,1.6
		c-0.2,0.4-0.3,0.8-0.4,1.2c-0.1,0.4-0.2,0.7-0.5,1c-0.2,0.4-0.3,0.7-0.4,0.8V53l0,0.1c0,0,0,0.1,0,0.1c-0.1,0.2-0.2,0.4-0.2,0.5
		c0,0.2-0.1,0.4-0.2,0.5c-0.1,0.2-0.2,0.3-0.2,0.4c0,0.1-0.1,0.3-0.1,0.4c-0.3,0.1-0.4,0.4-0.4,0.7l-0.3,0.9
		c0.3-0.3,0.4-0.4,0.4-0.5c0-0.1,0.1-0.1,0.2-0.1c0.1,0,0.2-0.1,0.2-0.2c0-0.3,0.1-0.5,0.3-0.7c0,0,0.1-0.1,0.1-0.2
		c0-0.1,0.1-0.2,0.2-0.2v-0.2c0,0,0.1-0.1,0.1-0.2c0-0.1,0.1-0.1,0.1-0.2c0.1-0.2,0.3-0.4,0.4-0.6c0.1-0.2,0.3-0.4,0.4-0.6
		c0.4-0.5,0.8-1,1.1-1.5c0,0,0-0.1,0.1-0.1l0.3,0.1c-0.2,0.3-0.7,1.2-1.6,2.5c-0.1,0.1-0.2,0.2-0.2,0.4c0,0.3-0.1,0.4-0.3,0.5
		c-0.1,0.1-0.2,0.2-0.2,0.3c0,0.1,0,0.2,0,0.2h-0.3c0,0.3-0.1,0.5-0.2,0.6c-0.1,0.1-0.2,0.3-0.2,0.4c0,0.1-0.1,0.3-0.2,0.4
		c-0.2,0.1-0.3,0.3-0.4,0.5c0,0.1-0.1,0.2-0.2,0.4c0.2,0.2,0.3,0.3,0.3,0.5c0,0,0.1-0.1,0.1-0.2c0.1-0.1,0.1-0.2,0.2-0.4
		c0.7-1.3,1.5-2.6,2.3-3.9c0.1-0.1,0.2-0.3,0.3-0.4c0.7-1,1.4-2.1,2.2-3c0.3-0.4,0.6-0.9,0.8-1.4l0,0v-0.1c0.2,0,0.3-0.1,0.3-0.3
		c0-0.2,0.1-0.4,0.2-0.5c0.3-0.3,0.5-0.6,0.7-0.9c0.1-0.2,0.3-0.4,0.6-0.7c0.2-0.2,0.3-0.4,0.4-0.6c0,0,0,0,0,0
		c0-0.1,0.1-0.2,0.2-0.3c0.3-0.3,0.7-1.2,1.4-2.7c-0.2,0.1-0.6,0.6-1.4,1.5c-1,1.1-2.4,2.8-4,5c-0.1,0.2-0.3,0.4-0.4,0.4l-0.1-0.1
		c0.2-0.5,0.4-0.7,0.5-0.8c0.1-0.1,0.2-0.2,0.3-0.3c0-0.2,0.1-0.4,0.2-0.5c0.1-0.1,0.3-0.3,0.4-0.5c0-0.1,0.2-0.3,0.5-0.7
		c1.2-1.8,2.4-3.3,3.5-4.5c0.4-0.4,0.7-0.8,1.1-1.3c0.9-1.2,2.2-2.7,4-4.4c0.2-0.2,0.4-0.3,0.6-0.3c0.1,0,0.3,0.1,0.5,0.2
		c0.3,0.2,0.5,0.5,0.5,0.9v0.7h0c0,0-0.1,0-0.1,0l-0.1,0c0,0.1,0,0.1,0.1,0.1s0.1,0,0.1,0l0-0.2c0.2,0.1,0.3,0.2,0.3,0.2v0.4
		c0,0.1,0.1,0.2,0.2,0.2c0.1,0,0.2-0.1,0.5-0.2l0.1,0.3c-0.1,0.7-0.3,1.4-0.5,2.2c-0.2,0.9-0.5,1.4-0.8,1.8l0,0.3
		c0,0.1,0,0.3-0.1,0.4c-0.1,0.1-0.1,0.2-0.2,0.3c0,0.1-0.1,0.1-0.1,0.2c-0.1,0.1-0.1,0.1-0.1,0.2c0,0.2,0,0.3,0,0.4
		c-0.1,0.1-0.1,0.3-0.1,0.5c-0.1,0.3-0.2,0.6-0.4,0.9c-0.2,0.3-0.5,1.1-1,2.4c-0.4,0.9-0.7,1.5-0.7,1.7c0,0.2-0.1,0.3-0.2,0.5
		c-0.6,1.7-0.8,3.2-0.8,4.4c0,0.1,0,0.3,0,0.5c0,1.3,0.9,2.4,2.6,3.2c1.8-0.4,3.3-1.4,4.7-2.8c0.3-0.3,0.6-0.6,0.9-0.9
		c0.1,0,0.1-0.1,0.2-0.2c0.2-0.2,0.4-0.3,0.5-0.3c0.1,0,0.1,0,0.2,0.1c0.2,0.3,0.3,0.7,0.3,1.1c0,0.5-0.2,1-0.5,1.4
		c-0.2,0.2-0.3,0.4-0.4,0.6c0,0,0,0.1-0.1,0.1c0,0-0.1,0.1-0.1,0.2c-1,1.2-2.4,2.1-4.2,2.7l0,0.1c0,0-0.2-0.1-0.4-0.1
		c-0.1,0-0.2,0.1-0.2,0.3l-0.3-0.1v0.1c0.5,0,0.8-0.1,0.9-0.2c0.3,0,0.6-0.1,0.9-0.2c0.3-0.1,0.6-0.3,0.8-0.4c0,0,0.1,0,0.1,0h0.4
		c0,0,0,0.1-0.1,0.1c0,0,0,0.1-0.1,0.1c-1.5,1.2-2.9,1.8-4.1,1.8c-0.5,0-1-0.1-1.6-0.4c-0.7-0.2-1.3-0.6-1.6-1.1
		c-0.2-0.2-0.4-0.4-0.5-0.6c-0.6-0.7-1.1-1.5-1.6-2.3c-0.1-0.2-0.3-0.5-0.5-0.7c-0.1-0.1-0.2-0.2-0.3-0.3c-0.1-0.1-0.1-0.2-0.2-0.3
		c0-0.1-0.1-0.2-0.1-0.3c0-0.1,0-0.3,0.1-0.5c0-0.2,0-0.4-0.1-0.4c-0.2-0.3-0.3-0.5-0.3-0.8l0.1-0.8c0-0.2,0-0.5-0.1-0.7l0.4-0.3
		l0-0.7c0-0.7,0.1-1.1,0.2-1.4c0,0-0.1-0.1-0.1-0.1c0,0-0.1-0.1-0.1-0.1c0-0.1,0.1-0.3,0.3-0.4c0.2-0.2,0.3-0.3,0.4-0.5
		c-0.2-0.1-0.4-0.1-0.5-0.1c0-0.1,0.1-0.2,0.2-0.3c0.1-0.1,0.1-0.2,0.1-0.3l0.1,0c0.1,0,0.1,0,0.2,0c-0.1,0-0.1,0-0.1,0
		c0,0,0-0.1,0-0.1c0,0,0.1-0.1,0.1-0.1c0,0,0.1-0.1,0.1-0.1c0-0.1-0.1-0.2-0.2-0.2c-0.3,0.2-0.6,0.5-0.7,0.8
		c-1.9,2.9-2.9,4.5-3.1,4.9c-0.1,0.3-0.4,0.8-0.8,1.4c-1.3,2.3-2.1,3.8-2.3,4.7c-1.8,4.7-2.9,7.5-3.4,8.5c-0.2,0.3-0.3,0.6-0.4,0.9
		c-0.1,0.6-0.3,1.3-0.5,1.9c-0.2,0.8-0.8,1.3-1.5,1.5l-0.2,0C59.7,72.3,59.2,71.8,58.5,70.8z M59.4,50.5c0,0,0-0.1,0.1-0.1
		c0-0.1,0.1-0.1,0.2-0.1c0.1,0,0.2-0.1,0.2-0.1c-0.1,0.1-0.2,0.2-0.2,0.3v0.1C59.6,50.6,59.5,50.5,59.4,50.5z M59.7,49.8v-0.1
		l0.3-0.1l0,0l0,0.1C59.9,49.7,59.9,49.7,59.7,49.8L59.7,49.8z M62.8,43.6l-0.1,0l0,0H62.8L62.8,43.6z M63.6,41.4l-0.1-0.1l-0.1,0.1
		l0,0.1L63.6,41.4z M64,60.7c0-0.1-0.1-0.1-0.2-0.2c0,0.2,0,0.3,0.1,0.3C64,60.8,64,60.7,64,60.7z M68.3,50.6c0-0.1,0.1-0.2,0.4-0.3
		c0,0,0,0.1,0,0.1C68.5,50.5,68.4,50.6,68.3,50.6L68.3,50.6z M68.7,50.1c0-0.2,0-0.3,0.1-0.4s0.1-0.1,0.2-0.2c0-0.1,0.1-0.1,0.1-0.1
		l0.1,0.1c-0.1,0.3-0.3,0.5-0.5,0.7V50.1z M68.7,51.2h0.1l-0.1,0.3L68.7,51.2z M68.9,51.2l0.1-0.1L68.9,51.2L68.9,51.2z M69,50.9
		c0-0.1,0.1-0.2,0.2-0.4l0.1,0.3c0,0-0.1,0.2-0.2,0.4L69,50.9z M69.4,50.1c0.1-0.2,0.2-0.3,0.4-0.3l0,0.1c0,0.1-0.1,0.2-0.2,0.2
		C69.5,50.2,69.5,50.2,69.4,50.1z M69.7,42.3L69.7,42.3L69.7,42.3L69.7,42.3L69.7,42.3z M70,49.6L70,49.6c0,0.1-0.2,0.2-0.3,0.3
		C69.8,49.7,69.9,49.6,70,49.6z M70.1,49.4l0.2,0l-0.1,0.3h0L70.1,49.4z M70.2,49.2L70.2,49.2h0.1l-0.1,0.2L70.2,49.2z M72.1,51.4
		l0.1,0.1l-0.2,0.1L72.1,51.4z M76.3,41.7l-0.1-0.1c0,0-0.1,0-0.1,0l0,0.1L76.3,41.7z"/>
	<path d="M89.9,70.2c-0.2-0.1-0.4-0.2-0.5-0.2s-0.2-0.1-0.4-0.1c0-0.2-0.2-0.3-0.4-0.3c-0.1-0.1-0.2-0.2-0.2-0.3
		c0,0-0.1-0.1-0.2-0.2c-0.2,0-0.5-0.3-0.8-0.7c0-0.1-0.1-0.1-0.1-0.2c-0.1-0.1-0.2-0.3-0.3-0.5c-0.4-0.7-0.9-1.3-1.5-1.8
		c-0.2-0.2-0.3-0.4-0.4-0.7c-0.1-0.3-0.2-0.4-0.3-0.5c-0.1-0.2-0.2-0.6-0.2-1s-0.1-0.7-0.2-0.9c-0.1-0.5-0.2-1-0.2-1.5
		c0-1,0.1-2.4,0.3-4.2c0-0.3,0.1-0.8,0.1-1.3c0-0.2,0.4-1.3,1-3.3c0.2-0.3,0.3-0.5,0.3-0.6c0-0.1,0-0.1-0.1-0.2l0,0h0.1v0l0-0.1
		c0,0-0.1,0-0.1,0c0,0,0.1,0,0.1-0.1c0.1,0,0.1-0.2,0.1-0.5c0-0.1,0.1-0.2,0.4-0.3c0.2-0.6,0.4-0.9,0.6-1.1c0-0.1,0-0.2,0-0.3
		c0-0.2,0.1-0.3,0.2-0.4c0.1,0,0.2-0.1,0.3-0.3c0-0.2,0.1-0.3,0.2-0.3C88,48.2,88,48,88,47.8l0-0.2c0.1-0.2,0.2-0.4,0.3-0.6
		c0.1-0.1,0.2-0.3,0.3-0.5c0.1-0.2,0.2-0.5,0.4-0.8c0.8-1.3,1.8-2.6,3-3.8c1-1.2,2.4-2.2,4.2-3.1c1.3-0.7,2.7-1.1,4.1-1.5
		c0.3-0.1,0.6-0.1,0.9-0.1c0.3,0,0.7,0.1,1,0.2c0.2,0.1,0.4,0.2,0.6,0.2c0,0.1,0.2,0.3,0.5,0.7c0.3,0.2,0.5,0.4,0.5,0.8
		c0,0.2,0.1,0.4,0.2,0.5c0.1,0.1,0.2,0.3,0.3,0.4c0.1,0.2,0.1,0.7,0.1,1.5l0,0.8c-0.3,1.9-1,3.4-2,4.4c-0.2,0.2-0.4,0.4-0.7,0.4
		c-0.3,0-0.5-0.2-0.5-0.5c0-0.1,0-0.2,0.1-0.2c0-0.1,0.1-0.2,0.1-0.2c0-0.1,0.1-0.1,0.1-0.2c0-0.1,0.1-0.1,0.1-0.2
		c0-0.1,0.1-0.2,0.1-0.2c-0.3-0.1-0.5-0.4-0.6-0.7l-0.5,0.2c0,0,0,0-0.1,0c0,0,0-0.1,0-0.3l0-0.3c0.1-0.6,0.3-1.2,0.6-1.9
		c0.1-0.2,0.2-0.5,0.2-0.7l-0.4,0.3c-0.2,0.2-0.4,0.4-0.7,0.5c-1,0.7-2.1,1.8-3.4,3.1c-0.3,0.6-0.7,1.2-1.2,1.6
		c-0.7,0.8-1.2,1.5-1.5,2c-0.1,0.3-0.3,0.5-0.5,0.8c-0.5,0.6-0.8,1.3-1.1,2c-0.2,0.4-0.4,0.9-0.6,1.2c-0.5,0.9-1.1,2.3-1.7,4.1
		c0,0.1-0.2,0.4-0.3,1c-0.2,0.6-0.4,1.2-0.4,1.8c0,0.1,0,0.2-0.1,0.3c-0.1,0.1-0.1,0.3-0.1,0.5l0,0.2l0,0c0,0.1-0.1,0.9-0.3,2.3
		c0.1,0.6,0.1,0.9,0.1,1c0,0.1,0,0.2,0.1,0.2c0.5,1,0.8,1.5,0.9,1.5c0.1,0,0.2,0.1,0.2,0.1v0l0.3-0.1c0,0,0.1,0,0.1,0
		c0,0,0.1,0,0.1,0l0.3,0c0,0,0,0,0.1,0c0,0,0.1,0,0.1,0c0,0,0.1,0,0.2-0.1c0.1,0,0.2-0.1,0.3-0.1l0.3,0.2c0.1,0,0.2-0.1,0.3-0.2
		l0.2,0c0.9-0.3,1.5-0.5,1.7-0.5c0.1,0,0.2,0,0.2-0.1c0.1,0,0.2-0.1,0.2-0.1l0.3-0.1c0.4,0,0.7-0.2,1-0.4c0.1-0.1,0.2-0.1,0.3-0.2
		c0.1,0,0.2-0.1,0.2-0.2s0.1-0.1,0.2-0.2c0.3-0.1,0.6-0.3,0.8-0.6c0.2-0.2,0.3-0.3,0.5-0.5c0.2-0.1,0.4-0.3,0.5-0.4
		c0.3-0.2,0.6-0.5,0.9-0.6c0.4-0.3,0.7-0.7,1.1-1c0.5-0.4,1-0.8,1.4-1.3c0.2-0.1,0.4-0.2,0.5-0.2c0,0,0,0.1,0.1,0.2
		c0,0.1,0,0.1,0.1,0.2c0.2,0,0.3-0.1,0.3-0.3l-0.5-0.2c0.2-0.2,0.6-0.4,1.1-0.7l-0.1,0.3c0.1,0,0.1-0.1,0.1-0.1c0,0,0,0,0.1-0.1
		v-0.1l0,0c0.1,0,0.1,0,0.1-0.1v0l-0.1,0.1c0,0-0.1,0-0.2,0c0-0.3,0.2-0.5,0.5-0.7l0,0l0.3,0.1l0.2-0.2c0.2-0.1,0.3-0.3,0.3-0.4
		c0-0.2,0.1-0.3,0.2-0.3c0.1,0,0.3-0.2,0.6-0.6c0.3-0.2,0.4-0.4,0.4-0.5c0.7-0.7,1-1.1,1.2-1.2c0.1-0.1,0.4-0.4,0.7-0.8
		c0.3,0.1,0.5,0.2,0.7,0.4c0,0.3-0.2,0.5-0.4,0.7l-0.4,0.4c-1,1.8-2.3,3.6-3.7,5.2c-0.5,0.6-1,1.2-1.4,1.8c-0.2,0.3-0.5,0.7-0.9,1.1
		c-1.3,1.4-2.7,2.6-4.3,3.7c-0.7,0.7-1.5,1.2-2.3,1.6c-0.2,0.1-0.4,0.2-0.5,0.3c-0.1,0.1-0.3,0.2-0.5,0.2c0,0-0.1,0-0.1,0.1
		c-0.1,0.2-0.3,0.3-0.5,0.4c-0.2,0.1-0.5,0.1-1.1,0.1c-0.3,0-0.7,0-1,0C91.1,70.7,90.5,70.5,89.9,70.2z"/>
	<path d="M124.6,70.8c-0.3-0.1-0.5-0.3-0.8-0.3s-0.5-0.2-0.8-0.3c-0.2-0.1-0.4-0.2-0.4-0.3c0-0.1,0-0.1-0.1-0.2l-0.1,0
		c-0.1,0-0.2,0-0.2,0c0,0-0.1,0-0.1-0.1l0.1-0.2c0-0.1-0.7-0.8-2.2-2.2c-0.1,0-0.1,0-0.1-0.1c0-0.3-0.2-0.5-0.5-0.5
		c-0.1-0.5-0.2-1-0.4-1.5c-0.2-0.4-0.3-1.5-0.3-3.1c0-0.2,0-0.4,0-0.5c0-0.1,0.1-0.2,0.1-0.3v-0.2l-0.1-0.3c0.2-0.1,0.3-0.4,0.3-0.8
		c0-0.2,0-0.4,0.1-0.6c0-0.1,0-0.2-0.1-0.2c0,0-0.1-0.1-0.1-0.1c0-0.1,0-0.1,0.1-0.2c0.1,0,0.2-0.1,0.3-0.1
		c-0.1-0.1-0.2-0.3-0.2-0.4c0-0.2,0.1-0.5,0.3-0.8c0.2-0.4,0.3-0.6,0.3-0.8c0-0.2,0-0.3,0.1-0.5l0-0.1c0-0.1,0.1-0.2,0.1-0.3
		c0-0.1,0.1-0.2,0.1-0.3c0-0.1,0.1-0.2,0.1-0.2c0.1,0,0.1-0.1,0.2-0.1l0-0.2c0-0.1,0-0.3,0.1-0.3c0.1-0.1,0.1-0.2,0.1-0.3
		c0-0.4,0.1-0.7,0.3-1c0.1-0.1,0.2-0.4,0.3-0.7c0.2-0.4,0.3-0.7,0.3-0.9c0-0.3,0.1-0.5,0.2-0.6c0.2-0.3,0.4-0.5,0.5-0.8v0
		c0.5-0.8,0.8-1.4,0.8-1.6c0-0.1,0.1-0.3,0.2-0.4c0.1-0.1,0.2-0.2,0.2-0.4c0.1,0,0.2-0.2,0.2-0.4c0-0.1,0-0.2,0-0.3
		c0.2-0.1,0.3-0.2,0.3-0.3c0-0.1,0-0.3,0.1-0.4S124,46,124,46l0-0.1c0.1-0.4,0.2-0.6,0.4-0.7l0.1-0.1l0,0c0-0.2,0-0.3,0.1-0.4
		s0.1-0.1,0.1-0.2c0.2-0.6,0.5-1.1,0.8-1.6c0-0.1,0-0.1-0.1-0.2c-0.1,0-0.1,0-0.1,0.1c0,0.1,0,0.1-0.1,0.1c-0.1,0-0.1,0.1-0.2,0.1
		c-0.3,0.5-0.6,0.9-1,1.4c-0.2,0.2-0.4,0.5-0.6,0.8c-1.5,1.9-2.9,4.3-4.4,7.1c-0.2,0.5-0.5,1-0.8,1.5c-0.1,0.1-0.1,0.2-0.1,0.3
		c0,0.1,0,0.2,0.1,0.3c-0.8,1.3-1.2,2.1-1.3,2.4c-0.1,0.1-0.2,0.3-0.3,0.4c-0.1,0.1-0.1,0.2-0.2,0.3c-0.2,0.2-0.3,0.5-0.3,0.8
		c0,0.1,0,0.3-0.1,0.4l-1.2,2.7c0.1,0.1,0.1,0.2,0.1,0.3c0,0.1-0.1,0.3-0.3,0.5c-0.1,0.2-0.4,0.9-0.9,2c-0.3,0.8-0.8,2-1.6,3.6
		c-0.6,1.6-1.1,2.5-1.5,2.7c0,0,0,0-0.1,0l0-0.2c0-0.1,0-0.2,0.1-0.3c0.1-0.1,0.1-0.2,0.1-0.2c-0.2,0-0.3,0.1-0.4,0.1
		c0,0-0.1,0.1-0.3,0.2c0,0.1-0.2,0.1-0.5,0.2c-0.1,0-0.3,0.1-0.4,0.1c-0.5,0-0.9-0.1-1.2-0.4c-0.8-0.6-1.5-1.4-2-2.3
		c-0.2-0.3-0.3-0.6-0.3-0.8c0-0.1,0-0.3,0.1-0.4v-0.1c0,0,0-0.1,0-0.1c0,0,0-0.1,0-0.1c0-0.2-0.1-0.4-0.2-0.6
		c-0.1-0.2-0.1-0.4-0.1-0.7c0-0.1,0-0.3,0-0.4c0-0.1,0-0.3-0.1-0.4l0.2-0.4c0-0.1,0-0.3-0.1-0.3c0.1-0.2,0.1-0.5,0.1-0.8
		s0-0.5,0.1-0.7c0-0.1,0.1-0.3,0.1-0.3c0-0.2,0.1-0.4,0.2-0.5c0,0,0,0,0-0.1c0-0.1-0.1-0.3-0.1-0.4c0-0.1,0.2-0.9,0.6-2.3
		c0.5-1.8,0.8-2.7,0.8-2.7c0-0.1,0.1-0.1,0.1-0.2c0.1-0.1,0.1-0.3,0.1-0.4c0-0.4,0.1-0.7,0.3-1.1c0.1-0.6,0.2-1.1,0.4-1.6
		c0.1-0.2,0.2-0.5,0.3-0.8c0-0.2,0.1-0.3,0.2-0.5c0.1-0.2,0.2-0.4,0.2-0.6c0-0.2,0.2-0.8,0.6-1.7c0-0.2,0.1-0.4,0.3-0.5
		c0.1,0,0.1-0.2,0.1-0.3c0-0.4,0.2-0.9,0.4-1.3c0.2-0.2,0.3-0.5,0.3-0.8c0-0.3,0.2-0.5,0.5-0.6l-0.1-0.4l0.4-0.2
		c0-0.2,0.1-0.3,0.1-0.5c0-0.2,0.1-0.3,0.1-0.5c0-0.4,0.2-0.7,0.6-0.9c0.3-0.3,0.4-0.7,0.4-1.2c0-0.3,0.1-0.6,0.4-0.7
		c0.1-0.1,0.2-0.3,0.2-0.5s0.1-0.5,0.2-0.7s0.2-0.5,0.3-0.7c0-0.1,0.1-0.3,0.2-0.3s0.1-0.2,0.1-0.3c0-0.3,0.1-0.6,0.3-0.9
		c0.1-0.1,0.2-0.3,0.3-0.6c0.1-0.3,0.2-0.5,0.3-0.7c0.1-0.1,0.2-0.4,0.3-0.9c0-0.1,0.1-0.1,0.1-0.2c0.1,0,0.1-0.1,0.1-0.1
		s0-0.1,0-0.2c0,0,0-0.1,0-0.1c0.8-1.8,1.2-2.6,1.2-2.7c0,0,0,0,0,0c0.3-0.4,0.6-1.1,1.1-2.3c1.3-2.6,2.4-4.2,3.4-4.6
		c0,0,0.1,0,0.1,0s0.1,0,0.1,0.1c0.1,0.2,0.2,0.3,0.4,0.3c0,0,0.1,0,0.2,0c0.1,0,0.1,0,0.2,0c0.1,0,0.2,0.1,0.4,0.2
		c0.6,0.5,0.8,0.9,0.8,1.2l0,0.4c0.1,0.1,0.2,0.1,0.3,0.1s0.2,0.1,0.2,0.2c0,0,0,0.1,0.1,0.1c0,0,0.1,0.1,0.1,0.1
		c0.1,0.1,0.2,0.2,0.2,0.3c0,0.3-0.1,0.7-0.3,1c-0.2,0.3-0.3,0.7-0.5,1.1c-0.1,0.4-0.3,0.7-0.5,1c-0.1,0.1-0.2,0.3-0.3,0.4
		c-0.1,0.4-0.2,0.9-0.4,1.2c-0.1,0.3-0.2,0.5-0.3,0.8c-0.1,0.3-0.3,0.6-0.5,0.9c-0.1,0.2-0.2,0.4-0.2,0.6c0,0.3-0.1,0.4-0.2,0.6
		l0,0.1c0,0,0,0.1-0.1,0.3c-0.1,0.1-0.1,0.3-0.1,0.4c0,0.2-0.1,0.4-0.3,0.5c-0.2,0.1-0.3,0.3-0.3,0.6s0,0.6-0.1,0.9
		c-0.2,0.1-0.4,0.2-0.5,0.3c0,0,0,0.1-0.1,0.1c0,0,0,0,0,0.1l0,0.2c0,0.1,0,0.3-0.1,0.4s-0.1,0.3-0.1,0.3l0,0.1c0,0,0,0.1-0.1,0.1
		c0,0-0.1,0.1-0.1,0.1c-0.2,0.1-0.3,0.4-0.3,0.6c0,0.6-0.2,1.2-0.5,1.8c-0.3,0.5-0.5,1.2-0.7,1.8c0,0.1-0.1,0.2-0.1,0.3
		c-0.2,0.3-0.3,0.6-0.3,0.9l-0.4,1.1c-0.1,0.1-0.2,0.3-0.2,0.4c0,0.1,0,0.2,0.1,0.4c-0.2,0.1-0.4,0.3-0.5,0.4
		c0.1,0.2,0.2,0.4,0.2,0.6c0,0.1-0.1,0.5-0.3,1c0,0.3-0.2,0.5-0.4,0.8l-0.2,1.2c0,0,0,0.1,0.1,0.1s0,0,0.1,0.1c0,0,0,0.1,0,0.1
		c0,0.1-0.3,0.4-0.8,0.9l0.3,0.3c0,0.2-0.1,0.5-0.2,0.7l-0.4,0c0,0-0.1,0.1-0.1,0.2c0,0.1-0.1,0.1-0.1,0.2c0,0.1-0.1,0.2-0.1,0.2
		c0,0,0,0.1,0.1,0.1c0.1,0,0.1,0.1,0.1,0.2l-0.5,1.2l-0.2,0.1l0,0.2c0,0.2,0,0.3-0.1,0.5c-0.1,0.2-0.1,0.3-0.1,0.4
		c0,0.1-0.1,0.2-0.2,0.3c-0.1,0.1-0.2,0.1-0.3,0.2c0,0.1,0,0.2,0.1,0.3c0.1,0.1,0.1,0.2,0.1,0.2c0,0,0,0.1,0,0.2c0,0.1,0,0.3,0,0.6
		c0.2,0,0.5-0.5,1-1.6c2-4.2,3.5-7.2,4.6-8.9c1.2-2,2.6-3.8,4-5.6c0.9-1.4,1.8-2.6,2.7-3.7c0.1-0.1,0.1-0.1,0.1-0.2
		c0.1-0.5,0.3-0.8,0.7-1.1c0.2-0.1,0.3-0.3,0.4-0.4c0.4-0.4,0.8-0.7,1-0.7h0l0.1,0.3l0.1,0c0.4-0.2,0.8-0.3,1-0.3
		c0.6,0,1,0.2,1.2,0.5c0.3,0.3,0.5,0.6,0.8,0.9c0.4,0.4,0.6,0.9,0.6,1.5c0,0.2,0,0.3,0,0.5s0,0.3,0,0.4l0,0.5c0,0.3,0.1,0.6,0.3,0.9
		c0.1,0.1,0.1,0.3,0.1,0.6c0,0.1-0.1,0.2-0.1,0.3s-0.1,0.2-0.1,0.4c0,0.2,0,0.3-0.1,0.4c-0.1,0.2-0.2,0.4-0.2,0.6
		c0,0.2-0.1,0.3-0.2,0.5c-0.2,0.5-0.3,1-0.4,1.5c-0.1,1-0.3,1.6-0.5,2c-0.1,0.1-0.1,0.3-0.1,0.6l0,0.1c0,0,0,0.1,0,0.1
		c0,0,0,0.1,0,0.1c-0.2,0.4-0.3,0.8-0.4,1.2c-0.1,0.5-0.3,1-0.6,1.5l-0.1,0l0,0.3c0,0.1-0.1,0.1-0.1,0.2s-0.1,0.2-0.1,0.4
		c0,0.3-0.1,0.5-0.4,0.5l-0.1,0.1c0,0.2-0.1,0.4-0.2,0.6c-0.1,0.2-0.1,0.5-0.1,0.8c0,0.1,0,0.2-0.1,0.4c-0.3,0.8-0.6,1.5-0.9,2.3
		c-0.6,1.4-1,2.7-1.2,3.9c-0.1,0.6-0.3,1.1-0.4,1.7c-0.2,1-0.4,1.9-0.4,2.9c0.1,0,0.1,0.1,0.2,0.1c0,0,0.1,0,0.2-0.1
		c0.9-0.6,1.6-1.4,2.2-2.2c0.6-1,1.3-2,1.9-2.9c0.1-0.2,0.2-0.4,0.3-0.5c0.1-0.3,0.3-0.5,0.4-0.5c0,0.1-0.1,0.2-0.1,0.2
		c0,0.1-0.1,0.2-0.1,0.3c0,0.1,0,0.1,0.1,0.2c0.1-0.2,0.2-0.5,0.3-0.7c-0.1,0-0.1,0-0.2-0.1c0,0-0.1-0.1-0.1-0.1
		c0-0.2,0.1-0.3,0.2-0.4l0.2,0.3c0.8-1.5,1.6-3.4,2.7-5.6c0.1-0.2,0.2-0.3,0.3-0.3c0.2,0,0.4,0.1,0.7,0.4c0.1,0.1,0.1,0.3,0.1,0.4
		c-0.1,0.4-0.2,0.7-0.3,1c-0.9,2.3-1.5,3.8-1.8,4.7c-0.3,0.9-0.8,1.8-1.2,2.7c-0.3,0.5-0.5,1-0.6,1.6c-0.3,1.1-0.9,2.2-1.7,3.3
		c-0.2,0.4-0.4,0.7-0.6,1.1c-0.4,0.8-1,1.4-1.9,2.1c-0.1,0-0.2,0.1-0.2,0.1c-0.1,0.1-0.4,0.1-0.8,0.1
		C125,70.8,124.7,70.8,124.6,70.8z M109.1,82.5L109.1,82.5L109.1,82.5L109.1,82.5z M109.5,81.6C109.5,81.6,109.5,81.6,109.5,81.6
		L109.5,81.6z M112.8,59.9c0-0.1,0.1-0.1,0.1-0.2c0-0.1,0.1-0.2,0.1-0.3c-0.1,0-0.2,0.1-0.2,0.1c-0.1,0-0.2,0.1-0.3,0.2
		s-0.2,0.2-0.2,0.3l0.4,0.1C112.7,60,112.8,60,112.8,59.9z M113.4,56.7L113.4,56.7h-0.1H113.4L113.4,56.7z M114.6,53.5L114.6,53.5
		l-0.1,0l0,0.1L114.6,53.5z M114.7,51.9L114.7,51.9l-0.2,0.1l0.1,0.1L114.7,51.9z M118.7,40L118.7,40
		C118.6,40.1,118.6,40.1,118.7,40L118.7,40L118.7,40z M123.1,50.5l0-0.1l-0.1,0L123.1,50.5L123.1,50.5z M125.5,67c0,0,0,0,0.1-0.1
		c0.1,0,0.1-0.1,0.1-0.2c0,0,0,0,0.1,0c0,0,0.1,0,0.1,0c0,0,0.1,0,0.1-0.1c0.1-0.2,0.2-0.3,0.3-0.3c0.3-0.1,0.5-0.3,0.6-0.6
		c0.3-0.2,0.5-0.4,0.7-0.8c0.3-0.3,0.4-0.5,0.4-0.6c0,0,0-0.1,0-0.2c-0.1,0.1-0.3,0.2-0.4,0.4c-0.2,0.3-0.4,0.5-0.7,0.8
		c0,0-0.1,0.2-0.1,0.3c-0.1,0-0.3,0.1-0.5,0.4c-0.1,0.1-0.2,0.3-0.4,0.3l-0.1,0.3h-0.1c-0.2,0-0.3,0.1-0.3,0.2
		C125.4,67,125.4,67,125.5,67C125.5,67,125.5,67,125.5,67z M125.4,39L125.4,39c0.1-0.1,0.2-0.1,0.2,0l0,0.1L125.4,39z M125.9,42.2
		l-0.1-0.1c0,0-0.1,0.1-0.1,0.1l0.1,0.1L125.9,42.2z M127,42.3C126.9,42.3,126.9,42.2,127,42.3c-0.1-0.1-0.1-0.2-0.1-0.2l-0.2,0
		c0,0,0,0.1,0,0.1c0,0.1,0,0.1,0.1,0.1h0.1C126.9,42.3,127,42.3,127,42.3z M127.3,40.6L127.3,40.6L127.3,40.6L127.3,40.6z
		 M127.8,36.7c0,0,0.1,0,0.1,0l0.2,0.1l-0.4,0C127.8,36.7,127.8,36.7,127.8,36.7z M127.9,40L127.9,40L127.9,40L127.9,40L127.9,40z
		 M128.5,63.7c0-0.1,0-0.1-0.1-0.2c0,0-0.1,0.2-0.1,0.3c0,0,0,0,0.1,0C128.4,63.8,128.4,63.7,128.5,63.7z M128.7,63.1
		c0.1,0,0.1-0.1,0.1-0.2c0,0,0-0.1-0.1-0.1l-0.1,0.5C128.6,63.2,128.6,63.2,128.7,63.1z M129.1,62.6l-0.1-0.1l0,0.2l0.1,0
		L129.1,62.6z M129.9,60.9l-0.6,1l0.1,0.1C129.7,61.5,129.8,61.1,129.9,60.9z"/>
</g>
<g>
	<path d="M51.5,162.6c-0.2-0.1-0.4-0.4-0.5-0.9c-0.1-0.3-0.5-0.5-1.1-0.6l-0.4-0.2c-0.2-0.2-0.5-0.4-0.8-0.6
		c-0.8-0.5-1.2-0.9-1.3-1.2c-0.1-0.6,0.5-1.3,1.8-1.9c0.1-0.1,0.3-0.1,0.4-0.2c0.4-0.4,0.9-0.6,1.4-0.7c0,0-0.1-0.1-0.1-0.2
		c0-0.1,0.1-0.2,0.1-0.2c0-0.1,0.1-0.1,0.1-0.1c0,0-0.1,0-0.1,0l-0.1,0.1c0,0.1,0.1,0.2,0.1,0.3c0,0,0,0.1,0,0.2
		c-0.6-0.1-0.9-0.3-0.9-0.4c0-0.1,0.2-0.5,0.8-1.3c0-0.1,0.1-0.1,0.2-0.1c0.1,0.1,0.2,0.1,0.3,0.1c0.1,0,0.1-0.1,0.1-0.2
		c0,0-0.1-0.1-0.1-0.2c-0.2-0.1-0.3-0.2-0.3-0.4c0-0.1,0.1-0.3,0.4-0.7c0.2-0.2,0.3-0.5,0.3-0.6c0.1-0.6,0.3-1.2,0.6-1.8
		c0.4-0.9,0.9-2.3,1.5-4.1c0.3-0.9,0.6-1.6,0.8-2c0.1-0.2,0.2-0.4,0.2-0.6c0-0.2,0.1-0.3,0.1-0.5c1.5-4,2.4-6.5,2.7-7.5
		c0.1-0.3,0.2-0.6,0.3-0.9c0.3-0.6,0.5-1.3,0.7-1.9c0.1-0.4,0.3-0.9,0.4-1.3c0.2-0.4,0.3-0.8,0.5-1.3c0.2-0.7,0.4-1.3,0.7-2
		c0.3-0.7,0.5-1.3,0.7-2c0.3-0.9,0.6-1.7,1-2.6c0.1-0.3,0.2-0.6,0.3-0.9c0.1-0.3,0.2-0.6,0.3-0.8c0.1-0.2,0.2-0.5,0.3-0.7
		c0.2-0.6,0.4-1.1,0.6-1.7c0.1-0.3,0.2-0.7,0.4-1.3c0.1-0.4,0.3-0.9,0.5-1.3c0.2-0.4,0.3-0.9,0.5-1.4c0.2-0.7,0.5-1.4,0.8-2.3
		c0.1-0.3,0.2-0.6,0.3-0.7c0.2-0.3,0.3-0.6,0.3-0.9c0.2-0.3,0.3-0.7,0.4-1.1c0.1-0.5,0.2-0.8,0.3-0.8c0.4-0.2,0.6-0.6,0.5-1.1
		c0-0.7,0.1-1.1,0.4-1.4c0.2-0.1,0.3-0.2,0.2-0.3c0-0.2,0-0.5,0.2-0.9c0.1-0.1,0.2-0.3,0.2-0.4c0-0.2,0.1-0.3,0.3-0.5
		c0.2-0.1,0.3-0.2,0.4-0.3c0-0.1-0.1-0.3-0.2-0.4c-0.1-0.1-0.1-0.2-0.2-0.3c0-0.3,0.1-0.5,0.4-0.7c0.3-0.2,0.4-0.4,0.4-0.8
		c0-0.3,0.1-0.5,0.3-0.8c0.3-0.3,0.4-0.5,0.4-0.9c0-0.3,0.1-0.6,0.2-0.9c0.2-0.3,0.4-0.7,0.4-1.1c0-0.1,0.1-0.2,0.2-0.3
		c0.1-0.1,0.2-0.3,0.2-0.4c0-0.3,0-0.6,0.1-0.8c0.1-0.2,0.2-0.4,0.2-0.6c0.1-0.4,0.2-0.7,0.4-0.9c1.3-3.5,2.3-6.1,3-7.9
		c0.3-0.8,0.6-1.7,0.6-2.6c0-0.1,0-0.2,0.2-0.2c0.3-0.1,0.5-0.5,0.3-1.3c0-0.2,0-0.4,0.2-0.4c0.1,0,0.1,0,0.2,0
		c0.1-0.1,0.2-0.1,0.2-0.2c0-0.1,0-0.2,0-0.3c0.1-0.2,0.1-0.4,0-0.7c-0.1-0.4,0-0.7,0.1-1c0.2-0.3,0.3-0.6,0.4-0.9
		c0.1-0.5,0.4-0.9,0.7-1.2c0.1,0,0.1,0,0.1,0.1l-0.1,0l0-0.1c-0.1-0.4,0.4-1.7,1.3-3.8c0.2-0.4,0.3-0.8,0.4-1.1
		c0.1-0.4,0.4-0.6,0.7-0.8c0,0,0.1,0,0.2-0.1c0.1,0,0.2-0.1,0.3-0.1c0.2,0,0.3,0.1,0.3,0.2c0.1,0.4,0.2,0.6,0.3,0.7
		c0.1,0.1,0.3,0.1,0.5,0.2c0.5,0.1,0.9,0.4,0.9,0.9c0,0.2,0,0.7,0,1.5c0.1,0.3,0.2,0.6,0.3,0.8c0.2,0.2,0.3,0.4,0.3,0.7
		c0,0.2,0,0.4,0,0.6s0,0.7,0,1.3c0,0.8,0,1.4-0.1,1.8l0.1,0.3c0.1,0.4,0,0.7-0.2,1.1c0,1.1-0.1,1.8,0,1.9c0.1,0.8,0,1.7-0.2,2.5
		c-0.2,0.8-0.3,1.7-0.4,2.6c0,0.2,0,0.5-0.2,0.8c-0.1,0.3-0.2,0.6-0.2,0.9c0.1,0.7,0,1.6-0.3,3c-0.2,1.5-0.3,2.5-0.3,3
		c0,0.2-0.1,0.5-0.2,1c0,0.1,0,0.3,0,0.5c0.1,0.6,0.1,1.3,0.1,2c0,0.1,0,0.2,0,0.2c0,0,0,0.1,0,0.2c0.1,0.7,0.1,1.4,0,2.1
		c0,1.3-0.1,2.1-0.2,2.5c-0.1,0.4-0.1,0.8-0.1,1.3c0,0.5,0.1,0.9,0.1,1.4c0.1,0.2,0.2,0.5,0.2,0.7c0,0.1,0,0.7,0,1.7
		c-0.1,0.3-0.1,0.6,0,0.9c0,0.1,0,0.2,0.1,0.3c0,0.1,0.1,0.2,0.1,0.2c0,0.2,0,0.4-0.1,0.6c0,0.2,0.1,0.3,0.1,0.4
		c0.1,0.2,0.2,0.3,0.2,0.4c0,0.1-0.1,0.3-0.2,0.4c0,0-0.1,0.1-0.1,0.2c0,0.1,0,0.2-0.1,0.3c0,0.1,0,0.2,0,0.4
		c0.2,0.3,0.3,0.5,0.3,0.6c0,0.1,0,0.2-0.1,0.3c-0.1,0.1-0.1,0.2-0.1,0.4s0.1,0.3,0.3,0.6c0,0.2,0,0.3,0,0.4c0,0.1-0.1,0.2-0.1,0.3
		c0,0.2-0.1,0.4-0.2,0.5c0,0-0.1,0.1,0,0.2c0.1,0.2,0.2,0.3,0.3,0.4c0,0.2,0,0.3,0,0.4c-0.1,0.2-0.2,0.4-0.1,0.6
		c0,0.1,0.1,0.2,0.2,0.4c0.1,0.1,0.2,0.3,0.2,0.5c0,0.1,0,0.2,0,0.3c0,0.1,0,0.3,0,0.6c0.1,0.5,0,0.9-0.2,1.4
		c0.3,0.2,0.5,0.5,0.5,0.9c0.2,1.8,0.2,2.8,0.1,2.9c-0.1,0.2-0.1,0.3-0.1,0.4c0,0.1,0.1,0.2,0.1,0.2c0.1,0.1,0.1,0.1,0.1,0.2l0,0.2
		c0,0.2,0.1,0.3,0.1,0.4c0,0.1,0.1,0.2,0.1,0.3c0,0.2,0,0.4-0.1,0.5c0,0,0,0.1,0,0.1c0,0,0,0.1,0,0.1c0.1,0.2,0.2,0.3,0.2,0.4
		c0,0.2,0,0.4-0.2,0.9c0,0.1-0.1,0.2-0.3,0.3l0.1,0l0,0.1l-0.1-0.1c0.3,0.1,0.5,0.4,0.5,0.7c0,0.2,0,0.5,0,0.7
		c0,0.2,0.1,0.4,0.1,0.5c0,0.1,0.1,0.3,0.1,0.4c0,0.3,0,0.5,0,0.8l0,0.2c0.1,0,0.1,0.1,0.2,0.1c0.1,0,0.2,0.1,0.2,0.2l0,0.4
		c-0.1,0.4-0.2,0.7-0.2,0.9c0.1,0.3,0.1,0.4,0.2,0.4c0,0,0.1,0,0.1,0l0.2-0.1c0.4-1.3,0.5-2.4,0.4-3.4c0-0.2-0.1-0.4-0.3-0.5
		c0,0,0-0.1-0.1-0.1c0,0,0-0.1,0-0.1c0,0,0-0.1,0-0.1c0.2-0.1,0.3-0.2,0.3-0.4c0-0.1-0.1-0.2-0.1-0.3c-0.1-0.6,0-1.2,0.2-1.8
		c0.1-0.2,0.1-0.4,0.1-0.5c0-0.5,0.2-1.8,0.6-3.7c0.1-0.5,0.1-0.8,0.2-1c0.2-0.5,0.3-1,0.3-1.6l0.6-2.7c-0.1-0.4,0.1-1,0.5-2
		c0.1-0.2,0.1-0.4,0.1-0.6c0-0.2,0-0.3,0-0.5c0.1-0.3,0.2-0.5,0.1-0.7c0-0.2,0.1-0.3,0.2-0.5c0.1-0.1,0.2-0.3,0.2-0.5
		c0-0.8,0-1.3,0.2-1.6c0.2-0.5,0.4-1,0.4-1.5c0.2-1.1,0.4-1.9,0.6-2.4c0.1-0.1,0.1-0.2,0.1-0.4c0.1-0.6,0.3-1.3,0.6-2.1
		c0.1-0.2,0.1-0.4,0.2-0.5c0.1-0.1,0.1-0.2,0.1-0.4c0-0.2,0.1-0.5,0.2-1c0.2-0.5,0.3-1,0.4-1.6c0.1-0.5,0.4-1,0.8-1.4l0,0
		c-0.1-0.1-0.1-0.3-0.2-0.4c0-0.2,0-0.4,0.2-0.6c0.2-0.2,0.3-0.4,0.3-0.6c0-0.2,0.1-0.4,0.3-0.5c0.1-0.1,0.1-0.1,0.1-0.2
		c0-0.6,0.1-1,0.2-1.2c0-0.4,0.1-0.7,0.2-1c0.1-0.3,0.2-0.6,0.3-1c0-0.2,0.1-0.4,0.4-0.6c0.1-0.1,0.1-0.2,0.1-0.2
		c0-0.1-0.1-0.1-0.1-0.1c0,0-0.1-0.1-0.1-0.1c0-0.1,0-0.1,0.1-0.2c0.1-0.1,0.2-0.3,0.2-0.4c0-0.1-0.1-0.2-0.1-0.3
		c0-0.3,0.1-0.6,0.1-0.9c0-0.3,0.2-0.5,0.5-0.6c0.4-0.1,0.7-0.2,0.8-0.4l-0.1,0l0.1,0c-0.2-0.1-0.4-0.1-0.7-0.1
		c-0.1,0-0.2-0.1-0.2-0.2c0.8-2.8,1.4-4.6,1.8-5.6c0.1-0.5,0.2-1,0.4-1.4c0.2-0.5,0.4-0.9,0.4-1.4c0.3-0.7,0.6-1.5,0.8-2.3
		c0.3-0.9,0.7-2.1,1.4-3.7l1.9-4.4c0.2-0.3,0.4-0.6,0.6-1c0.2-0.3,0.4-0.5,0.7-0.6c0.4-0.1,0.7,0,0.9,0.3c0.2,0.3,0.4,0.5,0.5,0.8
		c0.1,0.2,0.2,0.3,0.4,0.3c0.5,0.1,0.8,0.4,1,0.8c0,0,0,0,0,0c0.2,0.5,0.6,1,1,1.4c0.1,0.1,0.2,0.2,0.2,0.3c0,0.1,0,0.2,0,0.3
		c0,0.1,0,0.2,0,0.4l0,0.3c0,0.2,0,0.4,0,0.5c0,0.1,0,0.2,0,0.3c0,0.7,0,1.3,0,1.7c-0.1,0.4-0.1,0.8,0,1.2c0.1,0.4,0,0.8-0.1,1.2
		c0,0.2-0.1,0.5-0.1,0.8c0,0.8-0.1,1.5-0.2,1.9l0,0l0,0.1c0,0.6,0,1.1-0.1,1.7c-0.2,1.1-0.4,2.3-0.4,3.6c0,0.1,0,0.2,0,0.3
		c0,0.1,0,0.2,0,0.4l0.1,0.4c0.1,0.4,0,0.7-0.1,1c-0.1,0.1-0.1,0.5-0.1,1.1c0.1,0.7,0,1.5-0.1,2.2c-0.2,1.3-0.3,2.9-0.5,4.8
		c-0.1,0.3-0.1,0.5,0,0.8l0.1,0.4c0,0.2,0,0.3,0,0.3c-0.2,0.3-0.2,0.6-0.2,1.1c0,0.1,0.1,0.1,0.1,0.2c0,0.3,0,1,0,2.4
		c0,0.2,0,0.4,0,0.6l0.1,0.6l-0.1,0.4l0.2,0.3c0,0.2-0.2,0.4-0.3,0.6c0,0.2-0.1,0.4-0.1,0.6c0,0.1,0.1,0.1,0.1,0.2
		c0.1,0,0.1,0.1,0.1,0.1c0,0.1,0,0.2-0.1,0.2c-0.1,0.1-0.1,0.1-0.1,0.2c0,0.1,0,0.2-0.1,0.2c-0.1,0.2-0.2,0.4-0.1,0.6
		c0,0.1,0.1,0.2,0.1,0.4c0.1,0.1,0.1,0.3,0.2,0.5c0,0.2,0,0.5,0,1.1c-0.1,0.5-0.1,0.9,0,1.4c0.1,0.3,0,0.6,0,0.9
		c-0.1,0.3-0.1,0.7,0,1.1c0,0.2-0.1,0.7-0.3,1.5c0.2,0.2,0.3,0.5,0.3,0.8l0,0.4c0,0.2,0,0.5,0,0.8c0.1,0.4,0.1,0.7,0,0.9
		c-0.1,0.7-0.1,1.3,0,2c0,0.5,0,1.1,0,1.7c0,1.1,0,1.8,0,2.1c0,0.3,0,0.6,0,0.9c0,0.3,0,0.6,0,1c0,0.1,0,0.3,0,0.5
		c0,0.1,0.1,0.3,0.1,0.5c0.1,0.3,0,0.7-0.1,1c0,0.1-0.1,0.1,0,0.2c0,0.1,0,0.1,0.1,0.2c0.1,0.2,0.2,0.3,0.2,0.4c0,0.1,0,0.1,0,0.2
		c0,0.1,0,0.1,0,0.1c-0.1,0.2-0.1,0.4-0.1,0.6c0,0.2,0,0.5-0.2,0.7c-0.2,0.2-0.3,0.5-0.5,0.7l0.6-0.2c0,0,0.1,0,0.1,0.1
		c0.1,0,0.1,0.1,0.1,0.1c-0.1,0.8-0.2,1.2-0.2,1.3c0,0.1,0.1,0.2,0.2,0.3c0.1,0.1,0.1,0.2,0.2,0.4c0,0.2,0,0.4-0.1,0.7
		c-0.1,0.3-0.1,0.6,0,0.9c0,0,0.1,0.2,0.1,0.3c0,0.1,0,0.2-0.1,0.2c0,0.1,0,0.2,0,0.3c0.2,0.4,0.4,0.9,0.4,1.3
		c0,0.2,0.1,0.4,0.1,0.6c0,0.2,0,0.4,0.1,0.6c0.7,6.2,0.9,9.7,0.4,10.4c-0.2,0.3-0.3,0.6-0.4,1c0,0.2-0.1,0.4-0.3,0.6l0,0.1
		l-0.4,0.5c-0.3,0.3-0.6,0.4-0.9,0.5c-0.4,0.1-0.6-0.1-0.7-0.4c-0.2-0.8-0.7-1.1-1.5-1c-0.5,0-0.8-0.2-0.9-0.6
		c-0.1-0.4-0.3-0.6-0.7-0.8c0,0.1,0,0.1-0.1,0.2c-0.1,0.1-0.1,0.1-0.1,0.2c0,0.1-0.1,0.1-0.1,0.1c-0.1,0-0.3-0.1-0.5-0.4l-0.1-0.1
		c-0.2-1-0.5-1.8-0.7-2.2c0-0.1-0.1-0.2-0.1-0.5c0-0.2,0-0.4,0-0.5L98,147c0-0.3,0-0.6,0.1-0.9c0-0.1,0-0.3,0-0.5
		c-0.1-0.3-0.2-0.6-0.2-0.9c-0.1-0.8-0.2-1.4-0.2-1.8c0-0.6-0.1-1.3-0.2-2.1c-0.3-2.6-0.4-4.3-0.3-5.1c0-0.2-0.1-0.4-0.2-0.6
		c-0.2-1.1-0.2-3.1-0.2-6l0-4.1c0-1.1,0-2.2,0-3.3c0-0.8,0-1.6,0.1-2.4c0.1-0.4,0.1-0.9,0-1.3c0-1.3,0-2,0-2.2c0-0.3,0.1-0.6,0-0.9
		c0.1-1.1,0.2-2.7,0.3-4.9c0-0.5,0-1.1,0.1-1.6c0-0.2-0.1-0.3-0.1-0.4c-0.1-0.1-0.1-0.2-0.1-0.3c0-0.3,0-0.5,0.1-0.7
		c0.1-0.2,0.2-0.5,0.1-0.8c0-0.3,0-0.8,0-1.4c0-0.4,0-0.6,0-0.8c0.2-0.6,0.3-1.3,0.3-2.2c0-0.8,0-1.6-0.1-2.2l-0.1,0l-0.1,0.1
		c-0.9,2.3-1.8,5.6-2.9,9.9c-0.2,1.2-0.3,2.2-0.5,2.9c-0.3,1.2-0.4,1.9-0.5,2.1c0,0.2-0.1,0.4-0.1,0.7c-0.2,0.4-0.3,0.9-0.4,1.4
		c0,0.2-0.1,0.5-0.2,0.7c-0.3,1-0.5,2-0.6,3.1c-0.1,0.7-0.5,2.8-1.2,6.2c-0.2,0.8-0.3,1.4-0.4,1.6c-0.3,1.1-0.4,1.8-0.3,2.1
		c0,0.1,0,0.2,0.1,0.3c0,0.1,0,0.1,0,0.1c-0.4,0.5-0.5,0.9-0.4,1.3l0.1,0.3c0,0.3,0.1,0.5,0,0.7c0,0.2,0,0.4,0,0.8
		c-0.2,0.6-0.4,1.1-0.6,1.5c0.2,1.3,0.2,2.5,0,3.5l-0.2,0.8c-0.1,0.1-0.2,0.2-0.3,0.2l-0.2-0.1l0.6-0.1c-0.1,1.5-0.3,2.8-0.6,3.8
		l-0.1,0.5c-0.1,1.2-0.2,2.1-0.2,2.7l-0.3-0.4c0,0-0.1-0.1-0.2,0c-0.2,0.1-0.2,0.2-0.2,0.2c-0.1,0.3-0.3,1.4-0.4,3.1
		c-0.1,1.3-0.3,2.6-0.5,3.8c0,0.3-0.2,0.5-0.5,0.7c-0.3,0.1-0.6,0.3-0.9,0.5c-0.2,0.1-0.3,0.1-0.4,0.1c-0.3,0-0.5,0-0.7-0.1
		c-0.2-0.1-0.3-0.3-0.3-0.7c-0.1-0.3-0.3-0.4-0.5-0.5c-0.3-0.1-0.5-0.2-0.7-0.2l-0.3-0.1c-1-1.1-1.5-1.6-1.6-1.6
		c-0.3,0-0.5,0-0.6-0.2c0-0.2-0.2-0.5-0.5-0.8l-0.2-0.4c-0.1-0.4-0.2-0.8-0.4-1.1c-0.2-0.3-0.3-0.6-0.3-0.7c0-0.1,0-0.3,0.1-0.5
		c0.1-0.2,0.1-0.3,0.1-0.5c0-0.2-0.1-0.3-0.2-0.4c-0.3-0.3-0.5-0.6-0.7-1c-0.1-0.2-0.3-0.5-0.4-0.7c0-0.1-0.1-0.2-0.1-0.3
		c0-0.1,0-0.2,0.1-0.3c0.1-0.2,0.2-0.4,0.1-0.6c0-0.1-0.1-0.3-0.2-0.4c-0.2-0.3-0.3-0.6-0.4-1c0-0.5-0.1-1-0.2-1.7
		c0-0.1-0.1-0.2-0.2-0.3c-0.2-0.2-0.3-0.5-0.3-0.7c0-0.1,0-0.3,0-0.4c0-0.2,0-0.4,0-0.6c0-0.3-0.1-0.5-0.2-0.8
		c-0.1-0.3-0.2-0.5-0.2-0.7c-0.1-0.5-0.1-1.1-0.1-1.6c0-0.1,0-0.3,0-0.4c0-0.1-0.1-0.2-0.2-0.3c-0.1-0.1-0.2-0.2-0.2-0.4
		c0-0.2,0-0.6-0.1-0.9l-0.1-0.4c0-0.2,0-0.5,0-0.7c0-0.1,0-0.3,0-0.4c-0.1-0.3-0.1-0.7-0.2-1c-0.1-0.5-0.1-1.3-0.2-2.4l-0.1-2
		c0-0.3,0-0.5,0-0.7c0.1-0.2,0.1-0.4,0.1-0.6c0-0.1-0.1-0.2-0.1-0.4c-0.1-0.1-0.1-0.3-0.1-0.4c0-0.2,0-0.5,0-0.8c0.1-1,0.2-2,0.1-3
		c0-0.5,0-1.1,0-1.7c0-0.3,0-0.7-0.1-1.2c-0.1-0.3,0-0.6,0-0.8c0-0.1,0-0.2,0-0.3c0,0,0-0.1-0.1-0.1c-0.1-0.3-0.1-0.6,0-0.9
		c0-0.1,0.1-0.5,0.1-1.5c-0.1-0.6-0.1-1.1,0-1.5c0-0.1,0-0.3,0-0.5c-0.1-1.2-0.1-2.4,0.1-3.5c0-0.1,0-0.3,0-0.4c0-0.1,0-0.2-0.1-0.3
		c0-0.1-0.1-0.1-0.1-0.2c0-0.1,0-0.3,0.1-0.4c0.2-0.4,0.2-0.8,0.2-1.2c-0.1-0.8-0.2-1.3-0.2-1.4c-0.1-0.4,0-0.6,0.3-0.7
		c0.1,0,0.1-0.2,0-0.6c0-0.3,0-0.5,0.1-0.8c0-0.2,0.1-0.4,0-0.7l-0.1-0.5c0,0-0.1-0.1-0.1-0.2c-0.2,0-0.4,0.3-0.5,0.7
		c-0.2,0.8-0.5,1.6-0.8,2.5c-0.1,0.4-0.2,0.9-0.3,1.3c-0.2,0.8-0.4,1.4-0.6,1.9c-0.2,0.4-0.3,0.8-0.3,1.2c0.1,0.4,0,0.9-0.3,1.6
		c-0.1,0.2-0.1,0.4-0.1,0.6c0,0.4-0.1,0.7-0.4,1.1c-0.1,0.9-0.2,1.7-0.5,2.5c-0.3,1-0.5,1.7-0.5,2.1c0,0.6-0.2,1.3-0.4,1.9
		c-0.1,0.1-0.1,0.3-0.1,0.4c0,0.1,0.1,0.2,0.1,0.3c0.1,0.1,0.1,0.2,0.1,0.2c0,0.6-0.2,1.3-0.6,2c-0.1,0.2-0.1,0.3-0.1,0.5
		c0,0.1,0.1,0.1,0.1,0.2c0,0.1,0,0.3,0,0.4c-0.1,0.5-0.3,1-0.4,1.5c-0.1,0.4-0.2,0.8-0.3,1.2c-0.1,0.4-0.2,0.9-0.3,1.3
		c-0.1,0.5-0.2,0.9-0.3,1.3c-0.2,0.7-0.4,1.5-0.6,2.5c-0.2,1-0.4,1.7-0.7,2.2c-0.1,0.9-0.3,1.7-0.6,2.5c-0.1,0.3-0.2,0.6-0.3,0.9
		l-0.5,1.4c-0.8,2-1.5,4.1-2.2,6.1c-0.5,1.4-0.8,2.1-0.8,2.3c-0.4,0.8-0.7,1.6-0.8,2.4c-0.1,0.1-0.1,0.2-0.2,0.4
		c-0.3,0.5-0.4,0.8-0.5,1c-0.1,0.3-0.2,0.7-0.5,0.9c-0.1,0.1-0.1,0.2-0.1,0.3c-0.3,1.2-0.8,2.3-1.3,3.4c-0.4,1.1-0.8,1.9-1.2,2.4
		c-0.1,0.2-0.2,0.4-0.3,0.6c-0.1,0.2-0.2,0.4-0.3,0.6c-0.2,0.2-0.4,0.5-0.6,1.1c-0.6,1.2-1.2,1.8-1.7,2c-0.4,0.1-0.7,0.3-1.1,0.6
		c-0.1,0.1-0.2,0.2-0.3,0.2c-0.1,0.1-0.2,0.1-0.3,0.2c-0.4,0.3-0.8,0.5-1.2,0.6C52.3,162.7,51.9,162.7,51.5,162.6z M52.7,152
		L52.7,152L52.7,152c0.1-0.1,0.1-0.1,0.1-0.2l-0.1,0c0,0.1-0.1,0.1-0.1,0.2L52.7,152C52.7,152,52.7,152,52.7,152z M53.4,150.8
		l-0.1-0.1c0,0,0,0-0.1,0c0,0,0,0.1,0,0.2c0,0,0,0,0,0l0.1,0C53.4,150.9,53.4,150.8,53.4,150.8z M53.3,149.6c0.3,0,0.5-0.1,0.5-0.1
		c0.1,0,0.1-0.2,0.1-0.5c0,0,0-0.1,0.1-0.1l0-0.1c0,0-0.1,0.1-0.1,0.1L54,149c-0.1,0-0.2,0.1-0.3,0.2c-0.1,0.1-0.2,0.2-0.2,0.3
		C53.4,149.5,53.3,149.6,53.3,149.6C53.3,149.6,53.3,149.6,53.3,149.6l0.1,0L53.3,149.6L53.3,149.6z M54.8,146.4l-0.1,0.1
		L54.8,146.4L54.8,146.4z M75.7,99.9c0-0.1-0.1-0.3-0.2-0.4c0,0.1-0.1,0.1-0.1,0.1c0,0-0.2,0.3-0.4,0.8c0,0.2,0.1,0.3,0.2,0.3
		C75.6,100.6,75.7,100.4,75.7,99.9z M85.1,130.8L85.1,130.8c-0.2-0.1-0.3,0-0.3,0.1c0,0,0,0.1,0.1,0.1l0.1,0L85.1,130.8z
		 M88.2,146.7C88.2,146.7,88.2,146.6,88.2,146.7c0-0.1,0-0.2,0-0.2c0,0,0.1,0,0.1-0.1l0.2,0.1L88.2,146.7
		C88.3,146.7,88.3,146.7,88.2,146.7z M88.2,143.6C88.1,143.6,88.1,143.6,88.2,143.6L88.2,143.6L88.2,143.6L88.2,143.6
		C88.2,143.6,88.2,143.6,88.2,143.6L88.2,143.6L88.2,143.6z M97.8,98.5c0-0.1-0.1-0.1-0.1-0.1c-0.1,0-0.1,0.1-0.1,0.3l0.1,0.1l0.1,0
		C97.8,98.6,97.9,98.6,97.8,98.5z M104.1,131.4c0-0.1-0.1-0.1-0.1-0.2c0,0.1-0.1,0.1-0.1,0.1C103.9,131.4,103.9,131.5,104.1,131.4
		L104.1,131.4z M97.5,85.8L97.5,85.8L97.5,85.8L97.5,85.8z"/>
	<path d="M126.2,131.4c-0.2-0.3-0.5-0.6-0.9-0.7c-0.4-0.1-0.7-0.4-1-0.7c-0.2-0.2-0.4-0.4-0.5-0.8c-0.2-0.1-0.4-0.3-0.4-0.6
		l-0.3-1.6l-0.2,0.1c-0.1,0.3-0.3,0.6-0.4,0.9c-0.2,0.3-0.3,0.6-0.5,0.9c-0.2,0.3-0.4,0.6-0.6,0.9c-0.4,0.6-0.6,1-0.7,1.3
		c0,0.2-0.1,0.3-0.3,0.5c-0.2,0.4-0.5,0.8-0.8,1.1c-0.2,0.2-0.4,0.4-0.5,0.6c0,0,0,0,0,0c-0.4,0.3-0.8,0.5-1.3,0.5l-0.5,0
		c-0.3,0-0.6-0.1-0.9-0.4c-0.1-0.1-0.2-0.2-0.4-0.3c-0.1-0.1-0.3-0.2-0.4-0.4l-0.3-0.1l-0.1,0c-0.6-0.2-1.2-0.5-1.7-1
		c-0.2-0.2-0.4-0.4-0.5-0.7c-0.2-0.4-0.4-0.8-0.7-1.2c-0.4-0.7-0.6-1.2-0.7-1.6l-0.1-0.4c0-0.2-0.1-0.5-0.2-0.7l-0.1-0.4
		c0-0.2,0-0.4,0-0.5c0.1-0.2,0.1-0.3,0.1-0.5l-0.1-0.3c0-0.1,0-0.3,0-0.5c0-0.2,0-0.3,0-0.4c0-0.1,0-0.2,0.1-0.4
		c0.1-0.1,0.1-0.2,0.1-0.3l-0.1-0.1c0,0,0.1-0.1,0-0.3c0,0,0-0.1,0-0.1c0,0,0-0.1,0.1-0.1c0,0,0,0,0-0.1c0,0,0,0,0-0.1
		c0,0,0-0.1,0-0.1l0-0.2c0,0,0.1-0.1,0.1-0.2c0.1-0.1,0.1-0.2,0.1-0.3c0-0.2,0-0.3,0-0.4c0-0.1,0.1-0.2,0.1-0.3c0-0.1,0-0.2,0-0.3
		c0-0.1,0-0.1,0-0.2c0-0.2,0.1-0.3,0.2-0.3c0.1-0.1,0.1-0.1,0.1-0.3c0-0.3,0-0.5,0.1-0.7c0.1-0.2,0.1-0.4,0.2-0.5
		c0.1-0.3,0.2-0.6,0.3-0.8c0-0.3,0.1-0.5,0.2-0.8c0.1-0.3,0.2-0.5,0.2-0.8c0-0.3,0.1-0.5,0.3-0.7c0.2-0.2,0.2-0.4,0.2-0.5
		c0-0.1,0-0.2-0.1-0.2c0-0.1-0.1-0.1-0.1-0.2c0-0.1,0.1-0.2,0.3-0.4l0.1,0.1l0-0.1l0,0c0-0.2,0-0.5,0.2-0.7c0.2-0.2,0.5-0.7,0.8-1.5
		c0.3-0.5,0.4-0.8,0.4-1c0.1-0.4,0.2-0.7,0.5-1c0.3-0.5,0.5-1,0.5-1.6c0.1-0.1,0.2-0.2,0.2-0.2c0.1-0.1,0.2-0.1,0.2-0.2l-0.1-0.1
		c0.1-0.1,0.2-0.3,0.2-0.5c0.1-0.3,0.3-0.6,0.5-0.7c0-0.1,0.1-0.2,0.2-0.5c0.1-0.3,0.3-0.6,0.6-0.8c0.1-0.1,0.2-0.3,0.2-0.4l1.3-1.7
		c0.2-0.4,0.5-0.6,1-0.8l0.2-0.2c0.1-0.3,0.3-0.5,0.6-0.7c0,0,0,0,0.1-0.1c0-0.1,0-0.1,0-0.2l0.1,0c0.1,0,0.2-0.1,0.3-0.3l-0.4-0.1
		c1-1.2,2.5-2,4.6-2.5l0.1,0.1c0,0.1,0,0.1-0.1,0.1c-0.7,0.2-1.1,0.4-1,0.5l0,0.1l-0.5,0.1l-0.3,0.1c-0.2,0.1-0.5,0.2-0.7,0.3
		l-0.2,0l0,0.3c1.1-0.4,1.7-0.6,1.6-0.8c0.1,0,0.1,0,0.2-0.1c0.4-0.1,0.6-0.1,0.6-0.1c0.2,0,0.5,0,0.7,0c0.1,0,0.2-0.1,0.3-0.2
		c0.1,0,0.2,0,0.2,0c0.2,0.1,0.3,0.1,0.5,0.1c0.4,0.1,0.9,0.4,1.5,1c0.4,0.4,0.7,0.8,1,1.3l0.4,0.5l0.1,1.2c-0.3,1.9-0.7,3.3-1,4.4
		c-0.5,1.3-0.8,2.1-0.7,2.3c0,0.2,0,0.3,0,0.4c-0.2,0.4-0.2,0.7-0.2,0.9c0,0,0,0.1,0.1,0.1c0,0,0,0.1,0,0.1l-0.2,0.4l0.3,0
		c0.3,0,0.4,0,0.5,0.2c0.1,0.2,0.3,0.2,0.6,0.2c0.3,0.2,0.4,0.4,0.4,0.6c0,0.2,0.1,0.3,0.1,0.4c0.1,0.1,0.1,0.1,0.1,0.2
		c0,0.1,0,0.2,0,0.3c0.3,0.1,0.5,0.4,0.6,0.8c0,0.2,0,0.4-0.1,0.7c-0.1,0.3-0.1,0.6-0.1,0.8c0,0.3-0.1,0.6-0.2,0.8
		c-0.3,0.7-0.5,1.3-0.6,2c-0.4,1.5-0.8,2.6-1.1,3.3c-0.3,1.1-0.6,2.3-0.8,3.7c-0.2,0.9-0.2,1.6-0.2,2.1c0,0.3,0.2,0.4,0.4,0.4
		c0.3,0,0.5-0.2,0.7-0.4c0.2-0.2,0.5-0.5,0.8-0.8c0.8-0.8,1.5-1.8,2.2-3c1-1.5,1.7-2.6,2-3.3c1.6-3.2,2.8-5.1,3.6-5.9
		c0.2-0.1,0.3-0.3,0.4-0.5c0.1-0.2,0.2-0.3,0.4-0.3l0.2,0l0.9,1.1c0,0.1-0.1,0.2-0.1,0.3c-0.6,1.1-0.9,1.7-0.8,1.8l0,0.1
		c0,0.3,0,0.5-0.2,0.8c-0.5,1-0.9,2-1.3,3c-0.2,0.6-1,2-2.3,4.2c-1.1,2-2,3.5-2.7,4.3c-0.2,0.2-0.3,0.4-0.4,0.7
		c-0.4,0.7-1,1.1-1.9,1.2C128.1,132.5,126.9,132.2,126.2,131.4z M117.7,128.8c0.1-0.1,0.2-0.3,0.3-0.4c0.7-0.9,1.4-1.8,1.9-2.8
		l3.5-6.1l-0.2-0.4c0-0.1,0-0.2,0-0.2c0-0.5,0.5-1.8,1.3-3.9c0.4-0.8,0.6-1.5,0.8-2.1c0.1-0.4,0.2-0.7,0.4-1.1
		c0.1-0.4,0.3-0.7,0.4-1.1c0.1-0.6,0.4-1.2,0.7-1.7c0-0.1,0.1-0.1,0-0.2c0-0.2,0-0.3,0.1-0.4c0.1-0.1,0.2-0.2,0.1-0.2
		c0-0.1,0-0.1,0-0.1c0.1-0.4,0.2-0.8,0.4-1.3l0-0.1c0-0.1,0-0.3,0.1-0.5c0.1-0.4,0.2-0.7,0.1-1.1l0.2-0.1c0-0.2,0-0.4,0-0.7
		c0-0.3,0-0.6,0-0.8c0.1-0.3,0.1-0.5,0-0.8c-0.6,0.2-1.5,1.2-2.8,3c-0.5,0.7-1,1.5-1.5,2.3c-0.4,0.8-0.9,1.7-1.4,2.6
		c-0.2,0.4-0.4,0.7-0.5,1.1c-0.1,0.4-0.3,0.7-0.5,1c-0.2,0.3-0.3,0.6-0.4,0.9c-0.2,0.5-0.4,1-0.6,1.4c-1.3,2.4-2.2,4.9-2.7,7.4
		c-0.1,0.3-0.2,0.5-0.3,0.8c0,0,0,0,0,0c0,0,0,0,0,0l0.3,0.2c0,0.1,0,0.2,0,0.4c0,0.1,0,0.2-0.1,0.4c0,0.1-0.2,0.2-0.3,0.3
		c0.2,0.1,0.4,0.3,0.4,0.4c0,0.1,0,0.2-0.1,0.4c-0.1,0-0.2,0-0.3,0c0.1,0.1,0.1,0.2,0.2,0.3c0,0.2,0,0.3,0,0.4c0,0.1,0,0.3,0,0.4
		c0,0.1,0,0.3-0.1,0.4c-0.1,0.1-0.1,0.9,0,2.3l0.1,0.2C117.5,129.1,117.6,129,117.7,128.8z M118.5,130.8l-0.1,0
		c-0.1,0-0.2,0.1-0.3,0.2c-0.1,0.1-0.1,0.2-0.1,0.3c0,0.1,0,0.2,0,0.2C118.2,131.2,118.4,131,118.5,130.8z M117.2,123.9L117.2,123.9
		L117.2,123.9l-0.1,0.1L117.2,123.9z M118.6,130.4L118.6,130.4C118.6,130.4,118.6,130.4,118.6,130.4c-0.1,0-0.1,0-0.1,0.1l0.1,0.1
		L118.6,130.4z M119.3,129.8L119.3,129.8c-0.1-0.1-0.1-0.2-0.2-0.3l0.2,0c0.1,0,0.2-0.1,0.2-0.2l-0.3,0.2l-0.3,0.6l0.1,0.2
		L119.3,129.8z M119.8,128.9c0,0,0-0.1,0-0.3l-0.3,0.4C119.7,129,119.8,129,119.8,128.9z M120.6,127.4c0-0.1,0-0.2,0-0.2l0,0.1
		l0-0.1c0,0.1,0,0.2-0.1,0.3c-0.1,0-0.1,0.1-0.1,0.2l0.1,0C120.6,127.8,120.7,127.7,120.6,127.4z M121.4,126.5l-0.1-0.1l-0.1,0.2
		l0.1,0.1L121.4,126.5z M119.5,103.3l0.1-0.1l0,0L119.5,103.3L119.5,103.3z M119.9,103.1c0,0,0.1-0.1,0.2-0.1L119.9,103.1
		L119.9,103.1z M120.2,102.7L120.2,102.7c0,0.1,0,0.1,0,0.2l-0.1,0C120.1,102.8,120.1,102.7,120.2,102.7z M120.9,102.1L120.9,102.1
		l0.4-0.3l0,0.3L120.9,102.1z M122.3,101.2l-0.1-0.1l-0.1,0.2L122.3,101.2C122.3,101.3,122.3,101.2,122.3,101.2z M122.9,100.8
		L122.9,100.8L122.9,100.8C123,100.8,122.9,100.8,122.9,100.8z M125,104.3L125,104.3l-0.1,0L125,104.3L125,104.3z M125.7,103.7
		L125.7,103.7l-0.1,0L125.7,103.7L125.7,103.7z M126.1,103.1l-0.1,0l0,0L126.1,103.1L126.1,103.1z M130.8,130.3L130.8,130.3l-0.3,0
		l0.1,0.1L130.8,130.3z M126.7,102.6l-0.4,0.3l0.2,0C126.6,102.8,126.6,102.7,126.7,102.6z M128.2,112.6L128.2,112.6
		c-0.1,0-0.1,0-0.1,0c0,0,0,0,0,0.1l0,0L128.2,112.6z M127.4,102.2C127.4,102.1,127.4,102.1,127.4,102.2c-0.2-0.1-0.3,0-0.4,0.1
		c0,0-0.1,0.1,0,0.2c0,0,0,0.1,0.1,0.1L127.4,102.2z M128,101.7l-0.6,0.1c0.1,0.1,0.2,0.1,0.3,0.1l0.1,0L128,101.7z M132.7,127.6
		c-0.4,0.1-0.7,0.4-1,0.8C132.1,128.3,132.4,128,132.7,127.6z"/>
	<path d="M144.1,148.6c-0.3,0-0.7,0-1.1,0.1l-0.3,0.1c-0.5,0.1-1.2,0-2-0.2c-0.2-0.1-0.4-0.1-0.6-0.1c-0.2-0.1-0.3-0.1-0.5-0.1
		c-0.2,0-0.4-0.2-0.6-0.4c0,0,0-0.1-0.1-0.1c0,0,0-0.1-0.1-0.1c-0.3-0.2-0.5-0.4-0.7-0.7c-0.1-0.2-0.2-0.3-0.3-0.5
		c-0.1-0.1-0.2-0.3-0.2-0.3c-0.2-0.3-0.3-0.4-0.4-0.4c-0.1,0-0.1-0.1-0.2-0.3c-0.1-0.3-0.3-0.7-0.5-0.9c-0.1-0.1-0.1-0.1-0.1-0.2
		c0-0.1,0.1-0.3,0.3-0.4c0.2-0.2,0.4-0.2,0.5-0.3c0.1,0,0.3,0,0.5,0l0.2,0c0.1,0,0.2-0.1,0.4-0.1c0.1-0.1,0.5-0.2,1.1-0.3
		c0.3,0,0.5-0.1,0.6-0.1c0.8-0.1,1.9-1,3.1-2.6c0-0.1,0.1-0.1,0.2-0.2c0.1,0,0.2-0.1,0.3-0.2c0,0,0,0,0,0c0.1-0.1,0.1-0.3,0.2-0.4
		c0.1-0.2,0.2-0.4,0.3-0.5c0.1-0.2,0.2-0.4,0.3-0.6c0.3-0.5,0.5-0.9,0.4-1.1c0-0.2,0-0.5,0.2-0.6c0.1-0.1,0.2-0.3,0.3-0.6
		c0.1-0.2,0.1-0.3,0.2-0.5c0.1-0.1,0.2-0.3,0.2-0.4c0-0.2,0.1-0.3,0.2-0.4c0.2-0.4,0.3-0.8,0.3-1.2c0-0.4,0.2-0.7,0.6-0.9
		c0-0.1,0-0.1,0.1-0.1c0-0.2,0-0.4,0-0.5c0-0.1,0-0.3,0-0.5c0.3-0.1,0.5-0.2,0.5-0.5c0-0.2,0.1-0.4,0.1-0.6c0.1-0.1,0.1-0.3,0.2-0.4
		c0-0.2,0.1-0.4,0.1-0.6c0.1-0.2,0.1-0.4,0-0.8l0.3-0.3c0-0.3-0.1-0.5,0-0.5l0.3-0.3l0.1-1.1l0.2,0c0,0.1-0.1,0.1,0,0.2
		c0,0,0,0.1,0.1,0.2l-0.1-0.3c0.1-0.1,0.2-0.3,0.2-0.4c0-0.2,0.1-0.4,0.1-0.6c0-0.2,0-0.3,0.1-0.4c0-0.1,0.1-0.1,0.1-0.1
		c0,0,0,0,0-0.1c0,0,0-0.1,0-0.1c-0.1-0.5,0-1.1,0.2-1.6c0,0,0-0.1,0-0.1c0-0.4,0-0.8,0.2-1.1c0.1-0.3,0.1-0.6,0.2-0.9
		c0-0.3,0.1-0.6,0.1-0.9c0.1-0.5,0.2-0.9,0.1-1.1l0-0.1l-0.2,0.1c-0.1,0.3-0.3,0.6-0.5,1c-0.2,0.4-0.4,0.8-0.6,1.2
		c-0.2,0.4-0.4,0.9-0.6,1.4c0,0,0,0,0,0c-0.1,0.1-0.1,0.2-0.2,0.3c-0.2,0.6-0.5,1.3-0.9,2.1c-1.5,3.1-2.7,4.9-3.6,5.6
		c-0.3,0.2-0.6,0.4-1,0.4c-0.5,0.1-1,0-1.6-0.3c-0.4-0.1-0.7-0.4-0.9-0.7c-0.1-0.1-0.1-0.1-0.2-0.2c-0.1-0.1-0.2-0.2-0.2-0.4
		c-0.2-0.2-0.3-0.4-0.4-0.7c0-0.1,0-0.1-0.1-0.2l-0.2,0c-0.6-0.5-1-1.1-1.4-1.7c0.1-0.1,0.2-0.2,0.2-0.3c0-0.1-0.1-0.1-0.1-0.2
		c-0.2-0.1-0.4-0.2-0.4-0.3c-0.1-0.1-0.1-0.2-0.2-0.3c-0.1-0.1-0.1-0.2-0.1-0.4l0-0.3c-0.2-0.1-0.3-0.2-0.3-0.4l0.1-1.4
		c0,0-0.1-0.2-0.2-0.4l0-0.1c0.1-0.1,0.1-0.3,0.1-0.5c0-0.2,0-0.4,0-0.5c0,0,0,0,0-0.1c0,0,0,0,0.1-0.1c0-0.3,0-0.5,0-0.7
		c0.1-0.2,0.1-0.3,0.1-0.4c0-0.1,0-0.2,0-0.3l-0.1-0.3c-0.1-0.5,0.1-0.9,0.4-1.3l-0.1-0.7c0-0.2,0-0.4,0.2-0.6l0.1-0.2
		c-0.1-0.2-0.2-0.3-0.3-0.3c0,0,0.1-0.1,0.1-0.2c0-0.1,0.1-0.1,0.2-0.2c0.1-0.1,0.1-0.1,0.1-0.1c-0.1-0.2-0.2-0.4-0.2-0.6
		c-0.1-0.4,0.1-0.9,0.4-1.5l-0.1-0.5c-0.1-0.3,0.1-0.6,0.4-0.7c0-0.5,0.1-0.9,0.3-1.3c0.1-0.2,0.1-0.4,0.1-0.5c0,0,0-0.1,0-0.1
		c0-0.2,0.1-0.3,0.2-0.5c0.1-0.2,0.2-0.4,0.2-0.5c0-0.3,0.1-0.6,0.2-0.9c0.3-0.6,0.4-1,0.4-1.1c0-0.2,0.1-0.4,0.3-0.6
		c0-0.1,0.2-0.6,0.4-1.4c0.1-0.3,0.2-0.5,0.3-0.7c0.1-0.1,0.2-0.2,0.2-0.4c0.1-0.3,0.2-0.6,0.4-0.8l0.2-0.5c0.3-0.4,0.5-0.9,0.8-1.4
		c0.1-0.1,0.1-0.2,0.2-0.3c0.2-0.3,0.5-0.7,0.8-1.2c0.1-0.3,0.3-0.6,0.6-0.8c0.4-0.4,0.7-0.9,1.1-1.5c1.7-2.2,3.4-3.7,5.2-4.4
		c0.3-0.1,0.6-0.1,0.7-0.1l0.1,0c0.2,0,0.2,0.1,0.2,0.2c0.1,0.2,0.2,0.3,0.4,0.3s0.3,0.1,0.4,0.2c0.1,0.1,0.2,0.1,0.3,0.1
		c0.1,0,0.2,0.1,0.2,0.3s0.1,0.3,0.2,0.4c0.3,0.3,0.7,0.7,1.1,1.3c0.2,0.3,0.3,0.6,0.4,0.9c0,0.2,0,0.6,0,1.1
		c-0.1,1.9-0.5,3.7-1.1,5.5c-0.8,2.5-1.5,4.3-2.1,5.6l-0.2,0.6l0-0.1l0.3-0.2c0.4-0.7,0.7-1.1,0.8-1.3l0,0c0-0.1,0.1-0.1,0-0.2
		c0-0.2,0.1-0.4,0.2-0.6c0.2-0.3,0.3-0.6,0.3-0.9c0-0.3,0.4-0.7,1.2-1.1c0.2,0.1,0.3,0.3,0.4,0.3c0.1,0.1,0.1,0.1,0.1,0.2l0.1,0.9
		c0.1,0.2,0.2,0.4,0.4,0.5c0.1-0.2,0.2-0.3,0.2-0.4c0.1,0,0.1,0,0.1,0c0.4,0.3,0.7,0.8,0.8,1.4c0.1,0.5,0.2,0.8,0.2,0.9
		c0.1,0.2,0.1,0.4,0.1,0.6c0,0.2,0.2,0.3,0.3,0.4c0,0.1,0,0.3,0,0.4c0,0.1,0,0.3,0,0.4s0.1,0.3,0.1,0.4c0,0.1,0,0.2,0,0.2
		c0,0.2-0.1,0.3,0,0.5l0.1,0.2c-0.1,0.2-0.1,0.4-0.1,0.7c0,0.3,0,0.5,0,0.7c0,0.2,0,0.4-0.2,0.6c-0.1,0.1-0.1,0.2-0.1,0.3l0.1,0.2
		c0,0.2,0.1,0.3,0.1,0.3c0.1,0.2,0.1,0.4,0.2,0.6c0.1,0.4,0,0.8-0.3,1.2c0.1,0.1,0.1,0.2,0.1,0.3c0,0.1,0,0.3-0.1,0.4
		c-0.1,0.1-0.1,0.3-0.1,0.4c0,0.1,0,0.2,0,0.2c0,0.1,0.1,0.2,0.1,0.3c0,0,0,0.1,0.1,0.2c0,1.1-0.1,1.7-0.2,2
		c-0.1,0.3-0.1,0.4-0.1,0.5c0,0.1,0,0.1,0,0.1c-0.1,0.3-0.2,0.6-0.1,1l0,0.7c-0.1,1.2-0.2,1.9-0.3,2.1c0,0,0,0,0,0
		c-0.1,0.2-0.1,0.4-0.1,0.6l-0.3,1.3c-0.1,0.2-0.1,0.3-0.1,0.5c-0.1,0.2-0.2,0.5-0.2,0.8c0,0.4-0.1,0.7-0.2,1
		c-0.1,0.3-0.2,0.7-0.3,1.1c0,0.3-0.1,0.5-0.3,0.7c-0.1,0.1-0.1,0.2,0,0.4c0,0.4-0.1,0.8-0.3,1.2c-0.2,0.2-0.2,0.5-0.3,0.8
		c0,0.2-0.1,0.6-0.4,1.1c-0.1,0.2-0.2,0.5-0.3,0.8c0,0.1,0,0.2-0.1,0.3c-0.3,0.4-0.4,0.6-0.4,0.8c0,0.2-0.1,0.4-0.1,0.5
		c-0.1,0.2-0.1,0.4-0.1,0.6c0,0.1-0.1,0.3-0.3,0.6c-0.2,0.2-0.2,0.5-0.2,0.7c0,0.1,0,0.2-0.1,0.4c-0.2,0.3-0.4,0.5-0.4,0.8
		c0,0.1-0.1,0.4-0.3,0.8c-0.3,0.6-0.4,1-0.5,1.2c0,0,0,0,0,0.1c0,0,0,0.1-0.1,0.1c-0.2,0.3-0.4,0.6-0.6,0.9
		c-0.4,0.7-0.8,1.2-1.4,1.7c-0.9,0.9-1.6,1.4-2.2,1.5c-0.3,0.1-0.5,0.2-0.6,0.3c-0.1,0.1-0.1,0.2-0.2,0.3
		C144.3,148.6,144.2,148.6,144.1,148.6z M141.7,144.2c-0.1-0.1-0.2-0.1-0.3-0.1l-0.5,0.3c0.2,0,0.3,0,0.4,0
		C141.3,144.4,141.4,144.3,141.7,144.2z M142.9,146.4C142.8,146.4,142.8,146.3,142.9,146.4l-0.2,0L142.9,146.4L142.9,146.4z
		 M141.8,125.9c0.1,0,0.2-0.3,0.5-0.6c0.6-0.7,1-1.3,1.3-1.8c0.3-0.6,0.7-1.2,1-1.7c0.4-0.5,0.6-0.9,0.6-1.1
		c0.1-0.2,0.2-0.3,0.3-0.3c0.1-0.3,0.1-0.5,0.2-0.6c0.1-0.1,0.2-0.3,0.2-0.5c0.1-0.2,0.2-0.4,0.3-0.5c0.3-0.5,0.5-1.1,0.9-1.6
		c0.3-0.4,0.5-0.8,0.7-1.3c0.1-0.1,0.1-0.3,0.3-0.4c0.1-0.1,0.2-0.3,0.2-0.5l0-0.1l0.2,0c0,0,0.1,0,0.1-0.1c0,0,0,0,0,0
		c0,0,0-0.1,0-0.1c0-0.3,0-0.5,0.3-0.5c0.1-0.1,0.1-0.2,0.1-0.2c0-0.2,0.1-0.3,0.3-0.4c0.1,0,0.1-0.1,0.1-0.1c0-0.1-0.1-0.2-0.3-0.3
		c-0.1,0.4-0.4,0.6-0.8,0.8l0.2-0.6c-0.3-0.2-0.6-0.5-0.7-0.8c0,0,0-0.1,0-0.2c0-0.1,0-0.2,0.1-0.2c0.2-0.7,0.4-1.3,0.6-1.8
		c0.2-0.6,0.4-1.1,0.6-1.6c0.1-0.2,0.2-0.5,0.3-0.7c0.2-0.7,0.4-1.3,0.6-1.8c0.5-1.3,0.9-2.5,1.2-3.8c0-0.3,0.1-0.6,0.2-1
		c0,0,0-0.1,0-0.2l-0.1-0.1c0-0.1,0-0.2,0-0.3c0-0.1,0-0.2,0-0.3c0-0.1,0-0.2,0.1-0.3c0.1-0.1,0.1-0.3,0.1-0.4c0-0.1,0-0.1-0.1-0.2
		c0.1-0.1,0.1-0.2,0.1-0.5l-0.1-0.2l-0.2-0.1c0-0.1,0-0.2,0.1-0.3c0.1-0.1,0.1-0.2,0.1-0.3l-0.1-0.1c-0.4,0.1-0.8,0.2-1.2,0.5
		l-0.1,0c-0.1,0.1-0.1,0.2-0.1,0.2l0,0.1l-0.3,0.1c0,0,0,0,0,0.1c0,0,0,0,0.1,0c0,0,0,0,0.1,0c0,0,0,0,0-0.1c0,0,0-0.1,0-0.1l0-0.1
		l0.3,0.4c0.2-0.1,0.4-0.2,0.6-0.3l0.1,0.2c0,0.1,0,0.1,0,0.1c-0.2,0.4-0.3,0.6-0.4,0.6c-0.1,0.1-0.1,0.1-0.1,0.1
		c0,0.2-0.1,0.4-0.2,0.5c-0.5,0.6-1,1.4-1.5,2.4c-1,1.7-1.5,2.7-1.7,3c-0.3,0.7-0.6,1.3-1,1.9c0,0,0,0.1,0,0.1c0,0-0.1,0.2-0.1,0.4
		c-0.2,0.6-0.4,0.9-0.5,1c-0.1,0.1-0.1,0.2-0.1,0.3c0,0.1-0.1,0.2-0.2,0.4c-0.1,0.2-0.3,0.5-0.4,1.1c-0.2,0.5-0.4,0.8-0.4,1.1
		c0,0.2-0.1,0.4-0.2,0.5c-0.1,0.1-0.1,0.3-0.1,0.4c0,0.2,0,0.3-0.2,0.3l-0.1,0.1c0.1,0.3,0.1,0.6,0,0.7c0,0,0,0,0,0
		c0,0.2-0.1,0.4-0.2,0.6c-0.1,0.2-0.2,0.4-0.2,0.7c0,0.3-0.1,0.6-0.3,0.9c0,0.1-0.1,0.1,0,0.2c0,0.4-0.1,0.9-0.4,1.4
		c0,0.1,0,0.2,0,0.3c0,0.1,0,0.2,0,0.3c-0.2,0.4-0.3,0.8-0.3,1.4l-0.1,0.7c-0.2,1.1-0.3,1.7-0.2,1.8c0,0.1,0,0.2,0,0.3
		c0,0.1-0.1,0.2-0.1,0.4c0,0.2-0.1,0.3-0.1,0.5c-0.1,0.2-0.1,0.4,0,0.6c0,0.2,0,0.4,0,0.5c0,0.1-0.1,0.4-0.1,1l0.1,0.1
		C141.7,126,141.8,126,141.8,125.9z M148.1,114.7L148.1,114.7L148.1,114.7L148.1,114.7z M148.3,114.3
		C148.3,114.3,148.3,114.3,148.3,114.3c0-0.1,0-0.1,0.1-0.1l0.1,0l0,0.1L148.3,114.3z M149.3,119.4
		C149.3,119.4,149.2,119.4,149.3,119.4l0-0.1L149.3,119.4L149.3,119.4c0.1-0.3,0.3-0.5,0.4-0.6c0.1-0.1,0.2-0.3,0.2-0.6
		c-0.1,0.1-0.2,0.3-0.4,0.5C149.3,118.9,149.3,119.1,149.3,119.4L149.3,119.4L149.3,119.4C149.3,119.4,149.3,119.4,149.3,119.4z
		 M150.2,117.7L150.2,117.7l-0.1,0L150.2,117.7L150.2,117.7z M149.8,112.8L149.8,112.8L149.8,112.8L149.8,112.8L149.8,112.8z
		 M150.1,112.2l-0.1,0c0,0-0.1,0.1-0.1,0.1c0,0,0,0,0,0c0,0,0,0,0.1,0L150.1,112.2z M150.4,111.7l-0.1-0.1l-0.1,0.1L150.4,111.7
		L150.4,111.7z M148.9,101.5l0-0.1l-0.1,0.1l0.1,0.1L148.9,101.5z M150.8,111.1C150.8,111.1,150.7,111.1,150.8,111.1l-0.1,0
		L150.8,111.1L150.8,111.1L150.8,111.1z M149.3,101c0.1,0,0.1,0,0.2-0.1L149.3,101c-0.1-0.1-0.1,0-0.2,0.1
		C149.2,101,149.2,101,149.3,101z M150.6,95.8l-0.1,0l-0.1,0L150.6,95.8L150.6,95.8z"/>
	<path d="M173.7,124c-0.2-0.3-0.5-0.6-0.9-0.7c-0.4-0.1-0.7-0.4-1-0.7c-0.2-0.2-0.4-0.4-0.5-0.8c-0.2-0.1-0.4-0.3-0.4-0.6l-0.3-1.6
		l-0.2,0.1c-0.1,0.3-0.3,0.6-0.4,0.9c-0.2,0.3-0.3,0.6-0.5,0.9c-0.2,0.3-0.4,0.6-0.6,0.9c-0.4,0.6-0.6,1-0.7,1.3
		c0,0.2-0.1,0.3-0.3,0.5c-0.2,0.4-0.5,0.8-0.8,1.1c-0.2,0.2-0.4,0.4-0.5,0.6c0,0,0,0,0,0c-0.4,0.3-0.8,0.5-1.3,0.5l-0.5,0
		c-0.3,0-0.6-0.1-0.9-0.4c-0.1-0.1-0.2-0.2-0.4-0.3c-0.1-0.1-0.3-0.2-0.4-0.4l-0.3-0.1l-0.1,0c-0.6-0.2-1.2-0.5-1.7-1
		c-0.2-0.2-0.4-0.4-0.5-0.7c-0.2-0.4-0.4-0.8-0.7-1.2c-0.4-0.7-0.6-1.2-0.7-1.6l-0.1-0.4c0-0.2-0.1-0.5-0.2-0.7l-0.1-0.4
		c0-0.2,0-0.4,0-0.5c0.1-0.2,0.1-0.3,0.1-0.5l-0.1-0.3c0-0.1,0-0.3,0-0.5c0-0.2,0-0.3,0-0.4c0-0.1,0-0.2,0.1-0.4
		c0.1-0.1,0.1-0.2,0.1-0.3l-0.1-0.1c0,0,0.1-0.1,0-0.3c0,0,0-0.1,0-0.1c0,0,0-0.1,0.1-0.1c0,0,0,0,0-0.1c0,0,0,0,0-0.1
		c0,0,0-0.1,0-0.1l0-0.2c0-0.1,0.1-0.1,0.1-0.2c0.1-0.1,0.1-0.2,0.1-0.3c0-0.2,0-0.3,0-0.4c0-0.1,0.1-0.2,0.1-0.3c0-0.1,0-0.2,0-0.3
		c0-0.1,0-0.1,0-0.2c0-0.2,0.1-0.3,0.2-0.3c0.1-0.1,0.1-0.1,0.1-0.3c0-0.3,0-0.5,0.1-0.7c0.1-0.2,0.1-0.4,0.2-0.5
		c0.1-0.3,0.2-0.6,0.3-0.8c0-0.3,0.1-0.5,0.2-0.8c0.1-0.3,0.2-0.5,0.2-0.8c0-0.3,0.1-0.5,0.3-0.7c0.2-0.2,0.2-0.4,0.2-0.5
		c0-0.1,0-0.2-0.1-0.2c0-0.1-0.1-0.1-0.1-0.2c0-0.1,0.1-0.2,0.3-0.4l0.1,0.1l0-0.1l0,0c0-0.2,0-0.5,0.2-0.7c0.2-0.2,0.5-0.7,0.8-1.5
		c0.3-0.5,0.4-0.8,0.4-1c0.1-0.4,0.2-0.7,0.5-1c0.3-0.5,0.5-1,0.5-1.6c0.1-0.1,0.2-0.2,0.2-0.2c0.1-0.1,0.2-0.1,0.2-0.2l-0.1-0.1
		c0.1-0.1,0.2-0.3,0.2-0.5c0.1-0.3,0.3-0.6,0.5-0.7c0-0.1,0.1-0.2,0.2-0.5c0.1-0.3,0.3-0.6,0.6-0.8c0.1-0.1,0.2-0.3,0.2-0.4l1.3-1.7
		c0.2-0.4,0.5-0.6,1-0.8l0.2-0.2c0.1-0.3,0.3-0.5,0.6-0.7c0,0,0,0,0.1-0.1c0-0.1,0-0.1,0-0.2l0.1,0c0.1,0,0.2-0.1,0.3-0.3l-0.4-0.1
		c1-1.2,2.5-2,4.6-2.5l0.1,0.1c0,0.1,0,0.1-0.1,0.1c-0.7,0.2-1.1,0.4-1,0.5l0,0.1l-0.5,0.1l-0.3,0.1c-0.2,0.1-0.5,0.2-0.7,0.3
		l-0.2,0l0,0.3c1.1-0.4,1.7-0.6,1.7-0.8c0.1,0,0.1,0,0.2-0.1c0.4-0.1,0.6-0.1,0.6-0.1c0.2,0,0.5,0,0.7,0c0.1,0,0.2-0.1,0.3-0.2
		c0.1,0,0.2,0,0.2,0c0.2,0.1,0.3,0.1,0.5,0.1c0.4,0.1,0.9,0.4,1.5,1c0.4,0.4,0.7,0.8,1,1.3l0.4,0.5l0.1,1.2c-0.3,1.9-0.7,3.3-1,4.4
		c-0.5,1.3-0.8,2.1-0.7,2.3c0,0.2,0,0.3,0,0.4c-0.2,0.4-0.2,0.7-0.2,0.9c0,0,0,0.1,0.1,0.1c0,0,0,0.1,0,0.1l-0.2,0.4l0.3,0
		c0.3,0,0.4,0,0.5,0.2c0.1,0.2,0.3,0.2,0.6,0.2c0.3,0.2,0.4,0.4,0.4,0.6c0,0.2,0.1,0.3,0.1,0.4c0.1,0.1,0.1,0.1,0.1,0.2
		c0,0.1,0,0.2,0,0.3c0.3,0.1,0.5,0.4,0.6,0.8c0,0.2,0,0.4-0.1,0.7c-0.1,0.3-0.1,0.6-0.1,0.8c0,0.3-0.1,0.6-0.2,0.8
		c-0.3,0.7-0.5,1.3-0.6,2c-0.4,1.5-0.8,2.6-1.1,3.3c-0.3,1.1-0.6,2.3-0.8,3.7c-0.2,0.9-0.2,1.6-0.2,2.1c0,0.3,0.2,0.4,0.4,0.4
		c0.3,0,0.5-0.2,0.7-0.4c0.2-0.2,0.5-0.5,0.8-0.8c0.8-0.8,1.5-1.8,2.2-3c1-1.5,1.7-2.6,2-3.3c1.6-3.2,2.8-5.1,3.6-5.9
		c0.2-0.1,0.3-0.3,0.4-0.5c0.1-0.2,0.2-0.3,0.4-0.3l0.2,0l0.9,1.1c0,0.1-0.1,0.2-0.1,0.3c-0.6,1.1-0.9,1.7-0.8,1.8l0,0.1
		c0,0.3,0,0.5-0.2,0.8c-0.5,1-0.9,2-1.3,3c-0.2,0.6-1,2-2.3,4.2c-1.1,2-2,3.5-2.7,4.3c-0.2,0.2-0.3,0.4-0.4,0.7
		c-0.4,0.7-1,1.1-1.9,1.2C175.6,125.1,174.5,124.9,173.7,124z M165.2,121.5c0.1-0.1,0.2-0.3,0.3-0.4c0.7-0.9,1.4-1.8,1.9-2.8
		l3.5-6.1l-0.2-0.4c0-0.1,0-0.2,0-0.2c0-0.5,0.5-1.8,1.3-3.9c0.4-0.8,0.6-1.5,0.8-2.1c0.1-0.4,0.2-0.7,0.4-1.1
		c0.1-0.4,0.3-0.7,0.4-1.1c0.1-0.6,0.4-1.2,0.7-1.7c0-0.1,0.1-0.1,0-0.2c0-0.2,0-0.3,0.1-0.4c0.1-0.1,0.2-0.2,0.1-0.2
		c0-0.1,0-0.1,0-0.1c0.1-0.4,0.2-0.8,0.4-1.3l0-0.1c0-0.1,0-0.3,0.1-0.5c0.1-0.4,0.2-0.7,0.1-1.1l0.2-0.1c0-0.2,0-0.4,0-0.7
		c0-0.3,0-0.6,0-0.8c0.1-0.3,0.1-0.5,0-0.8c-0.6,0.2-1.5,1.2-2.8,3c-0.5,0.7-1,1.5-1.5,2.3c-0.4,0.8-0.9,1.7-1.4,2.6
		c-0.2,0.4-0.4,0.7-0.5,1.1c-0.1,0.4-0.3,0.7-0.5,1c-0.2,0.3-0.3,0.6-0.4,0.9c-0.2,0.5-0.4,1-0.6,1.4c-1.3,2.4-2.2,4.9-2.7,7.4
		c-0.1,0.3-0.2,0.5-0.3,0.8c0,0,0,0,0,0c0,0,0,0,0,0l0.3,0.2c0,0.1,0,0.2,0,0.4c0,0.1,0,0.2-0.1,0.4c0,0.1-0.2,0.2-0.3,0.3
		c0.2,0.1,0.4,0.3,0.4,0.4c0,0.1,0,0.2-0.1,0.4c-0.1,0-0.2,0-0.3,0c0.1,0.1,0.1,0.2,0.2,0.3c0,0.2,0,0.3,0,0.4c0,0.1,0,0.3,0,0.4
		s0,0.3-0.1,0.4c-0.1,0.1-0.1,0.9,0,2.3l0.1,0.2C165,121.8,165.1,121.6,165.2,121.5z M166,123.4l-0.1,0c-0.1,0-0.2,0.1-0.3,0.2
		c-0.1,0.1-0.1,0.2-0.1,0.3c0,0.1,0,0.2,0,0.2C165.7,123.9,165.9,123.7,166,123.4z M164.7,116.6L164.7,116.6L164.7,116.6l-0.1,0.1
		L164.7,116.6z M166.2,123L166.2,123C166.1,123,166.1,123,166.2,123c-0.1,0-0.1,0-0.1,0.1l0.1,0.1L166.2,123z M166.8,122.4
		L166.8,122.4c-0.1-0.1-0.1-0.2-0.2-0.3l0.2,0c0.1,0,0.2-0.1,0.2-0.2l-0.3,0.2l-0.3,0.6l0.1,0.2L166.8,122.4z M167.4,121.6
		c0,0,0-0.1,0-0.3l-0.3,0.4C167.2,121.6,167.3,121.6,167.4,121.6z M168.2,120.1c0-0.1,0-0.2,0-0.2l0,0.1l0-0.1c0,0.1,0,0.2-0.1,0.3
		c-0.1,0-0.1,0.1-0.1,0.2l0.1,0C168.1,120.5,168.2,120.3,168.2,120.1z M168.9,119.1l-0.1-0.1l-0.1,0.2l0.1,0.1L168.9,119.1z M167,96
		l0.1-0.1l0,0L167,96L167,96z M167.4,95.7c0,0,0.1-0.1,0.2-0.1L167.4,95.7L167.4,95.7z M167.7,95.3L167.7,95.3c0,0.1,0,0.1,0,0.2
		l-0.1,0C167.6,95.4,167.7,95.4,167.7,95.3z M168.5,94.7L168.5,94.7l0.4-0.3l0,0.3L168.5,94.7z M169.8,93.8l-0.1-0.1l-0.1,0.2
		L169.8,93.8C169.8,93.9,169.8,93.9,169.8,93.8z M170.4,93.5L170.4,93.5L170.4,93.5C170.5,93.5,170.4,93.5,170.4,93.5z M172.6,96.9
		L172.6,96.9l-0.1,0L172.6,96.9L172.6,96.9z M173.2,96.3L173.2,96.3l-0.1,0L173.2,96.3L173.2,96.3z M173.6,95.8l-0.1,0l0,0
		L173.6,95.8L173.6,95.8z M178.3,123L178.3,123l-0.3,0l0.1,0.1L178.3,123z M174.2,95.2l-0.4,0.3l0.2,0
		C174.1,95.5,174.2,95.4,174.2,95.2z M175.7,105.3L175.7,105.3c-0.1,0-0.1,0-0.1,0c0,0,0,0,0,0.1l0,0L175.7,105.3z M174.9,94.8
		C174.9,94.8,174.9,94.8,174.9,94.8c-0.2-0.1-0.3,0-0.4,0.1c0,0-0.1,0.1,0,0.2c0,0,0,0.1,0.1,0.1L174.9,94.8z M175.5,94.4l-0.6,0.1
		c0.1,0.1,0.2,0.1,0.3,0.1l0.1,0L175.5,94.4z M180.2,120.3c-0.4,0.1-0.7,0.4-1,0.8C179.6,120.9,179.9,120.7,180.2,120.3z"/>
	<path d="M187.3,122.5c-0.3,0-0.5,0-0.6,0c-0.8-0.4-1.2-0.9-1.3-1.6c0-0.3,0-0.6,0.1-0.9c-0.1-0.1-0.2-0.3-0.2-0.4
		c0-0.2,0-0.3,0.1-0.4l-0.1-0.3c0,0,0,0,0-0.1c0,0,0-0.3-0.1-0.9c0-0.1,0.1-0.3,0.3-0.4c0-0.4,0.1-0.7,0.1-0.8c0-0.2,0-0.4,0-0.8
		c0-0.2,0-0.4,0.1-0.4c0.2-0.2,0.2-0.5,0.2-0.9l-0.1-0.4l0.1-0.1c0.2,0,0.3-0.1,0.3-0.2c-0.1-0.1-0.1-0.1-0.1-0.2
		c0-0.2,0.3-0.9,0.9-2.2c0.1-0.2,0.2-0.2,0.2-0.3c0.1-0.1,0.1-0.2,0.1-0.3l-0.1-0.1c0.2-0.2,0.2-0.4,0.2-0.5c0-0.3,0.1-0.6,0.4-1.1
		l0,0.2c0,0,0,0,0,0c0,0,0-0.1-0.1-0.1l0-0.1c0,0,0.1-0.1,0.1-0.1c0.1-0.1,0.1-0.1,0.1-0.3c-0.1-0.1-0.2-0.2-0.3-0.2l0.6-0.2l0-0.1
		l-0.1-0.4c0-0.1,0-0.2,0.2-0.5c0.3-0.6,0.5-0.9,0.6-0.9c0.2-0.1,0.2-0.3,0.2-0.6c0-0.2,0-0.4,0-0.5c0.1-0.1,0.1-0.2,0.3-0.5
		c0.2-0.5,0.4-0.8,0.6-0.8l0.2,0c0-0.1,0-0.2,0.1-0.3c0-0.1,0.1-0.2,0.1-0.4c0-0.1,0.1-0.2,0.2-0.3c0.1-0.1,0.1-0.1,0.2-0.2
		c0-0.1,0.2-0.2,0.6-0.3c0-0.1,0-0.2-0.1-0.3c0-0.3,0-0.5,0.1-0.6c0.1-0.1,0.2-0.3,0.3-0.4c0.1-0.1,0.2-0.3,0.3-0.4
		c0,0,0.1-0.2,0.3-0.5c0-0.2,0.1-0.4,0.3-0.4c0.2-0.1,0.3-0.2,0.3-0.5c0-0.1,0.1-0.2,0.2-0.3c0.1-0.1,0.1-0.2,0.2-0.4
		c0.1-0.2,0.1-0.3,0.1-0.4c0-0.4,0.2-0.8,0.4-1.1c0.2-0.2,0.3-0.5,0.3-0.8c0.1-0.5,0.4-1,0.9-1.5c0.1-0.1,0.2-0.2,0.1-0.3
		c0-0.1,0-0.1-0.1-0.2c0-0.1,0.1-0.1,0.1-0.2c0.1-0.1,0.1-0.1,0.2-0.2c0-0.1,0.1-0.1,0.1-0.2l-0.6,0.3c-2.2,1.6-4.4,3-6.5,4
		c-0.5,0.2-1,0.4-1.4,0.7c-0.1,0-0.1,0.1-0.2,0.1c-0.2-0.1-0.3-0.3-0.4-0.5c0-0.1,0.1-0.2,0.2-0.3c-0.2-0.1-0.3-0.4-0.3-0.7
		c0-0.1,0-0.1,0.1-0.2c0.2,0,0.3-0.1,0.3-0.2l-0.2-0.2c-0.1,0-0.2,0-0.3,0.1c-0.1,0.1-0.2,0.1-0.3,0.1l-0.2,0c-0.1-0.4-0.1-0.8,0-1
		c0,0,0,0,0,0c0.1-0.6,0.4-1.1,1-1.3l0.2-0.1c0-0.2,0-0.3,0-0.5c0-0.1,0.5-0.5,1.3-1c1.8-1.1,2.9-1.7,3.3-1.7c0.1,0,0.2,0,0.2-0.1
		c0.2-0.2,0.4-0.3,0.6-0.4c0.1,0,0.2-0.1,0.3-0.2c0.1-0.1,0.4-0.2,0.9-0.4c0.1,0,0.1-0.1,0.2-0.1c0,0,0.2-0.1,0.4-0.3
		c0.2-0.1,0.4-0.2,0.6-0.3c0,0,0.2-0.1,0.6-0.2c0.7-0.4,1.3-0.7,1.8-0.8c0.4-0.1,0.9,0,1.3,0.2c0.1,0.2,0.1,0.3,0.2,0.5
		c0.1,0.1,0.1,0.2,0.1,0.3c0,0.1,0,0.2,0,0.3c0,0.1,0,0.2,0,0.3c0,0.2,0.1,0.3,0.2,0.5c0.6,0.9,1,1.7,1.1,2.6c0,0.2,0.1,0.3,0.2,0.5
		c0.1,0.1,0.1,0.3,0.2,0.4c0,0.1,0,0.5,0,1.3c0,0.5,0,0.7-0.1,0.8c-0.1,0.1-0.1,0.3-0.1,0.4c0,0.2,0,0.3-0.1,0.5
		c-0.1,0.1-0.1,0.3-0.2,0.6c0.1,0.4,0,0.8-0.3,1.1c-0.1,0.2-0.2,0.4-0.1,0.7c0,0.4-0.1,0.7-0.4,1c0,0-0.1,0.2-0.2,0.4
		c-0.1,0.5-0.2,0.8-0.5,1c0,0,0,0.1-0.1,0.2c0,0.1-0.2,0.6-0.6,1.3c-0.1,0.1-0.2,0.2-0.2,0.2c-0.1,0-0.1,0.1-0.2,0.1
		c0,0.1-0.1,0.3-0.2,0.5c-0.6,0.9-0.9,1.4-0.9,1.6c0,0.1,0.1,0.1,0.1,0.2c0,0.2,0,0.4-0.2,0.6c-0.1,0.2-0.3,0.5-0.3,0.7
		c-0.1,0.3-0.2,0.5-0.3,0.7c-0.1,0.1-0.1,0.2-0.1,0.5c0,0.2-0.1,0.4-0.2,0.5c-0.6,1.3-0.9,2-1.1,2.3c-0.2,0.6-0.5,1.3-0.8,1.8
		c-0.2,0.2-0.2,0.6-0.1,1c0.3-0.1,0.5-0.2,0.6-0.4c0.2-0.2,0.4-0.4,0.5-0.6c0.3-0.3,0.6-0.6,0.8-1c0.2-0.3,0.4-0.5,0.7-0.8
		c0.5-0.5,0.9-1,1.4-1.6c0.3-0.5,0.5-0.7,0.6-0.8c0.1,0,0.1-0.1,0.1-0.1c0.1,0,0.2,0,0.2,0c0.2,0,0.4-0.2,0.6-0.6
		c0.3-0.5,0.7-0.9,1.2-1.2c0-0.2,0.1-0.3,0.3-0.4l0.1-0.1l0.9,0.4c0.1,0.2,0.1,0.4,0.2,0.5c0,0.3,0,0.5-0.1,0.8c0,0.2-0.1,0.3,0,0.5
		c0.1,0.6-0.1,1.1-0.5,1.7c-0.1,0.3-0.2,0.5-0.4,0.7c0,0.1-0.1,0.1-0.1,0.2c-0.1,0.2-0.2,0.3-0.3,0.3c-0.1,0-0.2,0.2-0.2,0.4
		c-0.1,0.4-0.3,0.9-0.5,1.2c-0.1,0.1-0.1,0.3-0.2,0.5c-0.1,0.2-0.1,0.3-0.1,0.4c0,0.2-0.1,0.4-0.3,0.6l-1.3,1.6
		c-0.1,0-0.1,0.1-0.1,0.2c0,0.2-0.1,0.4-0.3,0.6c0,0-0.1,0.1-0.2,0.3c-0.7,0.8-1.5,1.6-2.4,2.2c-0.7,0.7-1.5,1.2-2.4,1.7
		c-0.1,0.1-0.3,0.2-0.7,0.3l-0.5,0l-2.2,0.5l-0.2,0.1C187.7,122.6,187.5,122.6,187.3,122.5z M193.9,94L193.9,94L193.9,94L193.9,94z
		 M194.7,93.6c0,0,0.1-0.1,0.1-0.1l-0.3,0l-0.1,0.1c0,0,0.1,0,0.1,0.1C194.5,93.7,194.6,93.7,194.7,93.6
		C194.6,93.7,194.7,93.7,194.7,93.6z"/>
	<path d="M209.9,119.4c-0.9-0.1-1.8-0.5-2.7-1c-0.7-0.3-1.1-0.6-1.4-1c-0.2-0.3-0.5-0.6-0.8-0.9c-0.2-0.2-0.3-0.3-0.4-0.5l0-0.2
		c0-0.2-0.1-0.3-0.1-0.3c0-0.3-0.1-0.4-0.2-0.5c-0.1-0.1-0.2-0.1-0.2-0.2c0-0.1,0-0.1,0-0.2c0-0.1,0-0.2,0-0.3
		c-0.1-0.3-0.2-0.7-0.5-1.1c-0.1,0-0.1-0.1-0.1-0.3l-0.1-0.7c0-0.3-0.2-0.7-0.5-1.2l0.1-0.2l0-0.1c-0.1-0.2-0.2-0.4-0.2-0.6
		c0-0.3,0-0.7,0.1-1.2c0.1-0.3,0.1-0.6,0-1c-0.1-0.4,0-0.6,0.1-0.8c0-0.1,0-0.2,0-0.3c0-0.1,0-0.2,0-0.3c0-0.1,0-0.1,0.1-0.2
		c0,0,0-0.1,0-0.1c0-0.1-0.1-0.2-0.1-0.4l0.1-0.6c0.1-0.3,0.2-0.7,0.2-1c0-0.2,0-0.4,0.1-0.5c0.1-0.6,0.2-1.2,0.1-1.5
		c0-0.1,0-0.2,0.1-0.3c0.1,0,0.1-0.1,0.1-0.2c0-0.3,0-0.6,0.2-1.1c0-0.3,0.1-0.5,0.3-0.6c0.2,0,0.3-0.3,0.2-0.7c0-0.4,0-0.8,0.1-1.1
		c0.1-0.1,0.1-0.2,0.1-0.3c0-0.1,0.1-0.2,0.1-0.2l0.5-0.2c0-0.1,0-0.1,0-0.2c0,0,0-0.4,0-1.1c0,0,0,0,0,0c0-0.4,0.1-0.7,0.4-1
		c0.1-0.1,0.1-0.2,0.1-0.3c0-0.1,0-0.2,0-0.3l-0.1-0.1c0-0.1,0-0.2,0.1-0.3c0.1-0.1,0.1-0.2,0.2-0.2c0,0,0,0,0,0
		c-0.1-0.4,0-0.7,0.2-0.9c0-0.1,0.1-0.3,0.2-0.4c0.1-0.1,0.1-0.3,0.1-0.5c0-0.1,0.1-0.2,0.2-0.4c0.1-0.2,0.2-0.4,0.2-0.6
		c0-0.4,0.1-0.7,0.3-0.9c0.2-0.2,0.4-0.6,0.5-0.9c0-0.2,0.1-0.4,0.2-0.5c0.1-0.1,0.1-0.1,0.1-0.2c0.2-0.6,0.6-1.1,1.4-1.7
		c0.1-0.1,0.2-0.1,0.4-0.1c0.1,0,0.3,0.1,0.4,0.3c-0.2,0.2-0.3,0.5-0.3,0.9c0.2,0.2,0.3,0.2,0.5,0.2c0.1,0,0.2-0.1,0.2-0.1
		c0.1-0.1,0.1-0.1,0.1-0.1c0.1,0,0.1,0,0.2,0.1c0.3,0.2,0.5,0.8,0.8,1.8c0.1,0,0.1,0,0.2,0.1c0.1,0.4,0.1,0.7,0.2,0.8
		c0,0.1,0,0.3-0.1,0.4c-0.1,0.2-0.1,0.3-0.1,0.4c0,0.1,0,0.2-0.1,0.3c0,0.1,0,0.3,0,0.5c0,0.2,0,0.4-0.1,0.6
		c-0.1,0.1-0.1,0.2-0.1,0.3c0,0.4-0.1,0.8-0.2,1.2c-0.2,0.4-0.2,0.8-0.2,1.2c0,0.4-0.2,1.3-0.7,2.5c0,0,0,0.1,0,0.2
		c-0.1,0.2-0.1,0.4-0.1,0.5c0,0.1,0,0.2,0,0.3c0,0.1,0,0.1,0,0.1c0,0.2-0.1,0.3-0.2,0.5c-0.1,0.2-0.1,0.3-0.1,0.5
		c0,0.3-0.1,0.6-0.1,0.9c-0.1,0.7-0.2,1.1-0.4,1.4c-0.1,0.1-0.1,0.2-0.1,0.3c0,0.2,0,0.4,0,0.6c-0.1,0.2-0.1,0.4-0.2,0.6
		c-0.1,0.2-0.1,0.5-0.2,0.8c-0.2,0.5-0.2,1-0.3,1.4c0,0.1,0,0.2-0.1,0.3c-0.1,0.3-0.1,0.5-0.1,0.8c0,0.3,0,0.5-0.1,0.8
		c-0.1,0.3-0.1,0.6,0,0.9c0,0.2,0.1,0.3,0.1,0.4c0.1,0.4,0,0.6-0.2,0.6c-0.1,0-0.1,0.1-0.1,0.1c0,0.1,0,0.1-0.1,0.2l0.1,0.1
		c0.2,0.2,0.3,0.4,0.3,0.7c0,0.3,0,0.6,0,0.9c0,0.2-0.1,0.3,0,0.5c0,0.3,0.1,0.5,0.1,0.6c0,0.1,0,0.2,0,0.4c0.1,0.1,0.1,0.3,0.1,0.4
		c0.1,0.5,0.3,0.8,0.5,0.9c1-0.2,1.8-0.7,2.5-1.5l0.9-0.9c0.1,0.1,0.2,0.1,0.2,0.2c0,0.1,0,0.1,0,0.2c0,0.1,0,0.1,0,0.2l0.1,0
		l0.3-0.5c0,0,0-0.1-0.1-0.1c-0.1,0-0.1-0.1-0.1-0.2c0-0.1,0-0.2,0.1-0.3c0.1-0.1,0.2-0.1,0.2-0.1c0,0,0,0,0,0
		c0.2,0,0.3-0.1,0.3-0.2c0-0.2,0.2-0.4,0.4-0.6c0.1-0.1,0.1-0.2,0.1-0.2c0-0.1,0.4-0.8,1-2.3c1.1-2.4,1.8-4,2-4.6l0.6-1.6
		c0.1-0.3,0.2-0.4,0.5-0.5c0.1,0,0.1,0.1,0.1,0.1l0,0.2c-0.3,0.5-0.5,0.9-0.4,1.2c0.1,0.2,0.3,0.3,0.6,0.3c0.1-0.3,0.3-0.5,0.8-0.8
		l0,0.1l0,0.1c-0.6,1.7-0.9,2.7-1,2.8c0,0.1-0.1,0.1-0.1,0.2c0,0.1-0.1,0.2-0.2,0.3c-0.3,0.4-0.4,0.8-0.4,1.3c0,0.1,0,0.1-0.1,0.2
		c0,0,0,0.1,0,0.1c-0.5,1-1,2.2-1.3,3.6c-0.5,1.7-1,2.8-1.4,3.4c-0.3,0.4-0.5,0.7-0.5,1.2c-0.2,0.5-0.4,1-0.8,1.4
		c-0.1,0.1-0.1,0.1-0.2,0.2c0,0.1-0.3,0.3-0.7,0.7c-0.1,0.1-0.1,0.2-0.2,0.2c-0.1,0-0.2,0.1-0.2,0.2c-0.1,0.1-0.2,0.1-0.3,0.2
		l-0.2,0.1c-0.2,0.1-0.4,0.2-0.6,0.3l-0.5,0.2C210.3,119.4,210.1,119.4,209.9,119.4z M205.2,97.8L205.2,97.8L205.2,97.8l0,0.1
		L205.2,97.8z M212.8,113.4l-0.2,0c-0.1,0-0.2,0.1-0.2,0.3c-0.2,0.4-0.5,0.7-0.9,1c-0.3,0.4-0.7,0.6-1.1,0.7c-0.2,0-0.3,0.2-0.5,0.4
		l0,0.1l0.4,0C211.3,115.3,212.1,114.5,212.8,113.4z M212.7,116.8l0.1-0.2l-0.1-0.1l0.2,0c0,0-0.1,0-0.2,0c-0.7,0.6-1,0.9-1,0.9
		c0,0,0,0.1,0.1,0.1C212.2,117.2,212.5,117,212.7,116.8z M213.9,115.4L213.9,115.4L213.9,115.4L213.9,115.4z M214.3,115l-0.2,0
		l0,0.2l0,0.1L214.3,115z M211.9,84.7c0-0.1-0.1-0.1-0.2-0.2c-0.1-0.1-0.2-0.1-0.3-0.2c0,0,0-0.1,0-0.1c0-0.1-0.1-0.2-0.1-0.2
		c-0.2-0.1-0.4-0.2-0.4-0.5c0-0.1,0-0.2-0.1-0.3c0-0.1-0.1-0.1-0.1-0.2c0,0,0-0.1,0-0.1c0-0.1,0-0.1,0-0.1c0,0-0.1-0.1-0.2,0
		c0,0-0.1,0-0.1,0.1c0,0-0.1,0.1-0.2,0.1c-0.4-0.3-0.6-0.6-0.6-1.1c0-0.2,0-0.5,0.1-0.7c0.3-0.7,0.4-1.2,0.5-1.6c0,0,0-0.1,0-0.1
		c0.1-0.1,0.2-0.3,0.2-0.5c0-0.2,0-0.4,0.1-0.7c0.1-0.3,0.2-0.5,0.4-0.7c0.2-0.2,0.3-0.5,0.3-0.9c0-0.4,0.2-0.7,0.5-1
		c0.2-0.2,0.3-0.3,0.4-0.4c0.1-0.3,0.2-0.5,0.3-0.6c0.1-0.1,0.3-0.2,0.4-0.2c0.2,0,0.4,0,0.6,0.2c0.1,0.2,0.3,0.3,0.5,0.4
		c0.1,0.1,0.1,0.1,0.2,0.2c0,0,0.1,0.1,0.2,0.2s0.1,0.2,0.2,0.3c0.1,0.2,0.2,0.3,0.3,0.4c0.2,0.2,0.4,0.4,0.5,0.7c0,0.1,0,0.2,0,0.3
		c0,0.1,0,0.2,0,0.3l0.1,0.4c0,0.2,0,0.4-0.1,0.5c0,0.1-0.1,0.1-0.1,0.2c0,0.1,0,0.1-0.1,0.2c-0.2,0.3-0.3,0.7-0.4,1.1
		c-0.1,0.2-0.1,0.4-0.1,0.4c0,0.2-0.1,0.5-0.3,0.9c0,0.2-0.1,0.3-0.1,0.4c0,0.1-0.1,0.1-0.1,0.2c-0.3,1.9-1,2.9-2,3L211.9,84.7z"/>
	<path d="M225.5,117.5c-0.1,0-0.1-0.1-0.2-0.1l0,0l-0.3,0.1c-0.1,0-0.2,0-0.3,0c-0.1,0-0.3,0-0.5,0c-0.2,0-0.4,0-0.6-0.2
		c-0.1-0.2-0.3-0.3-0.5-0.4c-0.1-0.1-0.2-0.1-0.2-0.2c-0.1-0.1-0.1-0.1-0.2-0.1c-0.1-0.1-0.2-0.2-0.3-0.3c-0.1-0.2-0.2-0.3-0.4-0.3
		c-0.1-0.2-0.3-0.3-0.6-0.5c-0.2-0.1-0.3-0.2-0.4-0.3c-0.1-0.1-0.1-0.1-0.2-0.1c-0.3-0.1-0.5-0.2-0.7-0.4c-0.1-0.1-0.2-0.2-0.2-0.2
		c-0.1-0.1-0.2-0.1-0.3-0.2c-0.1-0.1-0.2-0.2-0.3-0.2c-0.1-0.1-0.2-0.3-0.2-0.6c-0.1-0.1-0.2-0.2-0.3-0.1c-0.2-0.1-0.3-0.1-0.3-0.2
		c0-0.1-0.1-0.2-0.1-0.5c0-0.2,0-0.3,0-0.3c0,0,0.1-0.1,0.1-0.1l-0.4-0.2c-0.2-0.5-0.4-1-0.4-1.4c0-0.1,0-0.2,0-0.3
		c0-0.1,0-0.2-0.1-0.2c-0.1-0.3-0.2-0.7-0.3-1.1c0-0.2,0-0.4-0.1-0.7c0-0.1-0.1-0.8-0.1-2c-0.1-0.6-0.1-1,0.1-1.2
		c0.1-0.1,0.1-0.3,0-0.5c0-0.2,0-0.3,0.1-0.5l0-0.3c-0.1-0.5-0.1-0.9,0-1.3c0-0.3,0-0.5,0.2-0.7c0-0.1,0.1-0.1,0-0.2
		c0-0.2,0-0.4,0-0.6c0-0.2,0-0.4,0-0.6c0-0.1,0-0.2,0-0.3c0-0.1,0-0.1-0.1-0.2c0-0.1-0.1-0.1-0.1-0.2c0.2,0,0.3-0.1,0.3-0.2l0-0.3
		l0.1-0.1c0,0,0-0.1-0.1-0.1l0,0.1l0,0.1l-0.2-0.2c0-0.1,0-0.2,0-0.3c0.2-0.2,0.3-0.4,0.3-0.7l-0.1-0.2c0-0.2,0-0.3,0.2-0.4
		c0.2-0.1,0.2-0.2,0.2-0.3c0-0.1,0-0.2,0-0.3c0.2-0.2,0.2-0.4,0.2-0.7c0-0.2,0-0.3,0.1-0.5l0-0.2c0-0.1,0.1-0.2,0.2-0.2
		c0.1-0.1,0.2-0.2,0.3-0.5c0-0.1,0-0.2,0-0.3c0-0.1,0.1-0.1,0.1-0.1c0,0,0,0,0,0c0.2-0.3,0.3-0.7,0.2-1.1l0,0l0.3-0.4
		c0-0.3,0.1-0.5,0.1-0.5c0.2-0.1,0.3-0.3,0.2-0.5c0-0.1,0.1-0.5,0.3-1.2c0-0.1,0-0.1,0.1-0.1c0.3-0.1,0.5-0.4,0.6-0.9
		c0-0.3,0.3-0.8,0.6-1.5c0.4-0.6,0.8-1.2,1.4-1.7c0.1-0.1,0.2-0.2,0.3-0.3c0.1-0.1,0.2-0.2,0.4-0.2c0.1,0,0.2,0,0.3,0
		c0.2,0.1,0.5,0.1,0.8,0c0.3,0,0.5,0,0.8,0.2c0.1,0.1,0.2,0.1,0.2,0.1c0.1,0,0.2-0.1,0.2-0.3l0.1,0.1c0.3,0.1,0.4,0.2,0.4,0.2
		c0,0,0.1,0,0.2,0c0.3,0,0.5,0.1,0.7,0.4c0.3,0.4,0.6,0.7,1.1,1c0.2,0.1,0.4,0.2,0.4,0.4c0,0.1,0.1,0.1,0.2,0.2s0.1,0.1,0.2,0.2
		c0,0.4,0,0.9-0.3,1.6c0,0.3-0.2,0.6-0.3,0.9l0,0.1c-0.1,0.3-0.2,0.7-0.2,1c0.3,0.2,0.4,0.3,0.5,0.3c0.1,0,0.1,0,0.2-0.1
		c0,0.2-0.1,0.4-0.2,0.8c0,0.1-0.1,0.1-0.2,0.2c-0.1,0.1-0.2,0.2-0.1,0.5l-0.5,0.2c0,0,0-0.1-0.1-0.1c0,0-0.1,0-0.1,0l0.2,0.1
		c0,0.1,0,0.2,0.1,0.2c0.2,0,0.3,0.1,0.5,0c0,0.1,0,0.2,0,0.2c0,0.1-0.1,0.1-0.2,0.2c-0.1,0-0.1,0.1-0.1,0.1c0,0.1,0,0.1-0.1,0.1
		c0,0.2-0.1,0.3-0.2,0.4l0-0.1l-0.1,0c0,0,0,0,0,0.1c0,0,0.1,0.1,0.2,0.3c0.1,0.2,0.1,0.3,0.2,0.5c0.1,0.1,0.1,0.2,0.1,0.3
		c0,0.3-0.1,0.5-0.4,0.7c-0.2,0.1-0.3,0.2-0.3,0.3l0.4,0l0.1,0.1c-0.1,0.4-0.2,0.7-0.2,1.1c-0.1,0.4-0.1,0.8-0.3,1.3
		c0,0.1,0,0.2,0,0.3c0,0.1,0,0.1,0,0.2c0,0.2,0,0.3-0.1,0.6c-0.1,0.1-0.1,0.3-0.1,0.5c0,0.2,0,0.4-0.1,0.5c-0.1,0.2-0.1,0.4-0.1,0.5
		c0,0.2,0,0.3-0.1,0.5c0,0.2-0.1,0.4-0.1,0.6c0,0.2-0.1,0.5-0.1,0.7c-0.1,0.1-0.1,0.3,0,0.4c0,0.1,0.1,0.2,0.2,0.3l-0.1,0
		c0,0-0.1,0-0.1,0c0,0,0,0,0,0.1c0,0,0,0,0,0l0.2-0.1c0-0.3,0.2-0.7,0.4-1.1c1.3-2.6,2.2-4.3,2.7-5.1c0.1-0.2,0.3-0.4,0.4-0.7
		c0.1-0.1,0.1-0.2,0.2-0.2c0.1-0.1,0.2-0.1,0.2-0.2c0-0.1,0-0.2,0-0.2l0-0.1c0.2-0.2,0.4-0.5,0.5-0.7c0.1-0.2,0.2-0.5,0.4-0.7
		c0,0,0.1-0.1,0.1-0.2c0-0.1,0.1-0.1,0.3-0.2l0.1-0.2c0-0.2,0-0.4,0.1-0.5c0.2-0.1,0.2-0.2,0.2-0.4l2-3.3l-0.2-0.2
		c0,0,0-0.1,0.1-0.2c0-0.1,0.1-0.1,0.1-0.1c0,0,0-0.1,0-0.1l-0.1-0.1l0.4,0c0-0.3,0.1-0.6,0.4-1c0.3-0.3,0.4-0.5,0.4-0.7
		c0,0,0.2-0.2,0.4-0.5c0.1-0.1,0.2-0.2,0.4-0.2c0-0.2,0-0.3,0.1-0.4c0.1-0.1,0.2-0.2,0.2-0.3c0.1,0,0.3-0.2,0.3-0.5
		c0.1-0.3,0.2-0.4,0.4-0.5c0.1-0.2,0.2-0.4,0.4-0.5c0.1-0.1,0.1-0.1,0.1-0.2c0,0,0.1-0.1,0.1-0.2c0.2-0.2,0.3-0.3,0.4-0.4
		c0.1,0,0.1-0.1,0.1-0.2c0-0.1,0-0.1,0-0.2c0.1-0.2,0.2-0.4,0.5-0.4l-0.2-0.3c-0.1,0.2-0.3,0.3-0.4,0.4l-0.2-0.3c0,0,0-0.1,0-0.1
		c0,0,0.2-0.3,0.5-0.9c0.4-0.7,0.9-1.3,1.6-1.9l0.2-0.3l0.2,0.2c0.1,0,0.2-0.1,0.2-0.1c0.1-0.1,0.2-0.1,0.3-0.1c0,0,0.1,0,0.2,0
		c0.1,0,0.1,0,0.2,0s0.1,0,0.2-0.1c0.1,0,0.1-0.1,0.2-0.1c0.1,0,0.4,0.1,0.8,0.2c0.3,0.1,0.5,0.2,0.6,0.3c0.7,0.7,1.1,1.1,1.3,1.2
		c0.5,0.7,0.8,1.7,1,2.9c0.1,0.6,0.1,1.1,0,1.3c-0.1,0.1-0.1,0.3-0.1,0.4c0,0,0,0.1,0,0.1c0,0.2,0,0.4,0,0.5c-0.1,0.4-0.1,1.1-0.2,2
		c0,0.7-0.1,1.2-0.2,1.6c0,0.1,0,0.2,0,0.3c0,0.1,0,0.4-0.2,0.8c-0.2,0.6-0.3,1.3-0.5,2.1c-0.1,0.7-0.3,1.3-0.5,2
		c-1.2,3.5-1.9,6.2-2.1,8.1c0.1,0.5,0.3,0.9,0.3,1.4l-0.4,0.1c0,0.1,0,0.2,0,0.4c0.1,0.1,0.1,0.2,0.1,0.3c0,0.2-0.1,0.5-0.2,0.7
		l-0.1,0.3l0.3,0.1c0.1,0.1,0.1,0.3,0.1,0.4c-0.2,0.3-0.3,0.5-0.3,0.8c0,0.2,0.1,0.3,0.3,0.5l0.5-0.1c0.4-0.1,0.6,0,0.7,0.1
		c0,0.1,0,0.2-0.1,0.3l0,0.2c0.7-0.3,1.5-1.1,2.3-2.5c1.7-2.6,3-5.5,3.9-8.7c0.1-0.3,0.2-0.7,0.3-1.3c0-0.6,0.2-1,0.5-1.5
		c0.4,0.2,0.6,0.3,0.8,0.4c0.1,0.2,0.2,0.3,0.2,0.4c0,0.3-0.1,0.8-0.3,1.6c-0.4,1.3-0.7,2.3-0.8,2.9c0,0-0.1,0.1-0.1,0.1
		c0,0.1,0,0.1,0.1,0.2l0,0c0,0.2,0,0.4-0.1,0.7c-0.2,1-0.6,2.1-1.2,3.4c-1,2.5-2.2,4.2-3.4,5.1c-0.2,0.1-0.3,0.2-0.2,0.3
		c0,0.1,0.1,0.2,0.2,0.2c0.1,0,0.1-0.1,0.2-0.1c0.1-0.1,0.1-0.1,0.2-0.1c0.1,0,0.1-0.1,0.2-0.1c0.2-0.2,0.5-0.3,0.8-0.3
		c0.1,0,0.1,0.1,0.2,0.1c0,0.1,0,0.2,0,0.2c-0.5,0.8-1.1,1.5-2,2.1c-0.5,0.4-1.1,0.6-1.6,0.7c-0.3,0-0.5,0-0.7,0
		c-0.2,0-0.6-0.1-1.2-0.1c-0.7-0.1-1.2-0.4-1.7-0.9c-0.1-0.4-0.2-0.6-0.4-0.7c-0.3-0.3-0.4-0.4-0.5-0.4c-0.1,0-0.1,0-0.1-0.1
		c-0.1-0.3-0.2-0.4-0.6-0.3c-0.1,0-0.2,0-0.2,0c-0.2-0.5-0.6-0.8-0.9-1l-0.7-0.7c-0.2,0-0.3,0-0.5-0.1c-0.1-0.1-0.3-0.1-0.4-0.2
		c0-0.1-0.1-0.3-0.2-0.4c-0.1-0.3-0.2-0.6-0.3-0.9c0-0.2,0-0.4,0-0.5c0.1-0.1,0.1-0.2,0.1-0.3c0-0.1,0-0.1-0.1-0.2
		c-0.1,0-0.1-0.1-0.1-0.2c0-0.1,0-0.2,0-0.3c0-0.2-0.2-0.4-0.4-0.6c0,0-0.1-0.1-0.1-0.2c0,0,0-0.1,0.1-0.2c0.1-0.1,0.2-0.2,0.2-0.4
		c0.1-0.2,0.1-0.3,0.1-0.4c0-0.1,0-0.1,0.1-0.2c0-0.1,0.1-0.2,0-0.3c0-0.1-0.1-0.3-0.2-0.3c-0.1-0.1-0.2-0.2-0.2-0.2l0-0.1l-0.1-0.5
		c0-0.1,0.1-0.2,0.1-0.3c0-0.1,0.1-0.1,0.1-0.2c-0.1-0.1-0.1-0.3-0.1-0.4c0-0.1,0-0.3,0.1-0.4c0.1-0.1,0.1-0.3,0.1-0.4
		c-0.1-0.1-0.2-0.2-0.2-0.4l0,0l0.3,0c0,0,0.1-0.1,0.1-0.2l-0.4,0.2c0.1-0.3,0.3-0.4,0.5-0.5c-0.1-0.2-0.2-0.5-0.2-0.9
		c-0.1-0.7,0-1.3,0.4-2c0.1-0.1,0.1-0.1,0.1-0.2c0,0,0-0.1-0.1-0.1c0,0-0.1-0.1-0.1-0.2c0-0.2,0-0.4,0.2-0.7
		c0.1-0.2,0.2-0.5,0.2-0.8c0-0.1,0-0.4,0.1-0.8c0-0.4,0.1-0.7,0.2-0.8c0.1-0.2,0.2-0.3,0.2-0.5c0-0.1,0-0.1-0.1-0.2
		c0-0.1,0-0.2,0-0.3c0.1-0.2,0.1-0.3,0.1-0.5c0.1-0.3,0.2-0.5,0.2-0.6c0.1-0.1,0.1-0.1,0.1-0.2l0-0.1c0-0.2,0-0.3,0.1-0.4
		c0.1-0.1,0.1-0.2,0.1-0.3l0-0.1c0-0.1-0.1-0.2-0.1-0.3c-0.1,0-0.2,0-0.2,0.1c-0.1,0.2-0.2,0.4-0.4,0.6c-0.2,0.2-0.3,0.4-0.4,0.6
		c-0.1,0.3-0.3,0.6-0.6,0.8c-0.1,0.1-0.6,0.9-1.6,2.4c0,0.1,0,0.2-0.1,0.2c-0.2,0.1-0.2,0.3-0.2,0.4l0.1,0.2c-0.1,0-0.1-0.1-0.2,0
		c-0.1,0-0.2,0.1-0.2,0.3c0,0,0,0.1-0.2,0.2c0,0,0,0.1,0,0.1l0.1,0.1c0.1-0.2,0.3-0.5,0.5-0.7c0-0.2,0.1-0.3,0.2-0.5
		c0.1-0.1,0.2-0.2,0.2-0.3c0,0,0-0.1-0.1-0.1l0.2,0c1-1.4,1.6-2.2,1.8-2.6l0.1,0.2c0,0.1,0,0.1-0.1,0.1c0,0-0.3,0.4-0.7,1.2
		c-1.1,1.8-1.9,3.3-2.5,4.5c-0.2,0.4-0.3,0.7-0.4,0.9c-0.2,0.4-0.4,0.8-0.6,1.2c-0.2,0.4-0.4,1.1-0.9,2.1c-1.2,2.8-1.9,4.8-2.3,6.2
		c-0.2,0.7-0.3,1.1-0.5,1.5c-0.1,0.3-0.2,0.6-0.3,1c0,0.1-0.1,0.2-0.3,0.4c-0.2,0.2-0.3,0.4-0.3,0.6c-0.1,0.4-0.3,0.9-0.8,1.5
		c0,0.1,0,0.2,0,0.3c-0.1,0.1-0.2,0.3-0.3,0.5c0,0.1-0.1,0.1-0.1,0.2c-0.2,0.2-0.3,0.4-0.2,0.8c0,0.3,0,0.6-0.2,0.8
		c-0.1,0.3-0.3,0.5-0.4,0.5c0,0.1-0.1,0.1-0.1,0.1C225.7,117.5,225.6,117.5,225.5,117.5z M220.8,90.6L220.8,90.6L220.8,90.6
		L220.8,90.6z M229.9,103.7L229.9,103.7l-0.1,0L229.9,103.7L229.9,103.7z M228.6,93.5L228.6,93.5L228.6,93.5L228.6,93.5z
		 M230.4,102.6C230.4,102.5,230.4,102.5,230.4,102.6c0-0.1,0-0.1,0.1-0.2l0,0C230.5,102.5,230.4,102.5,230.4,102.6
		c-0.1,0-0.1,0-0.1,0.1L230.4,102.6C230.4,102.6,230.4,102.6,230.4,102.6z M231.1,101.4c-0.2,0.1-0.3,0.2-0.2,0.3l0,0.1L231.1,101.4
		z M231.6,100.4L231.6,100.4L231.6,100.4L231.6,100.4L231.6,100.4z M233,97.9l-0.1-0.2c0,0,0.1-0.1,0.2-0.1c0.1,0,0.2-0.1,0.2-0.2
		l-0.1-0.1C233,97.6,232.9,97.8,233,97.9c-0.1,0-0.1,0.1-0.1,0.2C233,98,233,98,233,97.9z M235.8,103.4L235.8,103.4L235.8,103.4
		L235.8,103.4z M237.1,109.1l-0.1,0l0,0L237.1,109.1L237.1,109.1z M239,111.2C239,111.2,239,111.2,239,111.2L239,111.2L239,111.2z
		 M243.5,110.3l-0.1,0l-0.1,0L243.5,110.3L243.5,110.3z M250.8,101.7L250.8,101.7l0.1,0.1c0,0,0,0.1,0,0.1c0,0,0,0.1-0.1,0.1l0,0
		L250.8,101.7z"/>
	<path d="M262.6,111c0.1,0,0.2-0.1,0.2-0.1l0.1,0l-0.1-0.1l-0.2,0.1c-0.2,0-0.5,0.1-0.7,0.1c-0.4,0.2-0.8,0.3-1.2,0.3
		c-0.2,0-0.3,0.1-0.5,0.1c-0.2,0.1-0.4,0.1-0.6,0.1c-0.2,0-0.3,0-0.4,0c-0.1,0-0.2,0-0.3,0c-0.1,0-0.2,0-0.3,0c-0.1,0-0.1,0-0.2,0.1
		l-0.3-0.1c-0.5,0-0.9-0.2-1.2-0.5c-0.1-0.1-0.3-0.2-0.6-0.4c-0.3-0.2-0.6-0.4-0.9-0.7c-0.6-0.3-1.2-0.7-1.7-1.1
		c-0.1-0.1-0.2-0.1-0.3-0.1c-0.1,0-0.4-0.4-0.8-1.1l-0.4,0.1c-0.1-0.1-0.2-0.3-0.2-0.5c-0.1-0.5-0.2-0.8-0.3-0.7l-0.2,0.1
		c-0.2,0-0.3,0-0.3-0.1c0,0,0-0.1,0-0.2c0-0.1,0-0.1,0-0.2c0-0.1,0-0.2,0-0.2l-0.3-0.2c0-0.1,0-0.3,0-0.4c0-0.1-0.1-0.3-0.3-0.4
		c0,0,0-0.1-0.1-0.2l0-0.4l-0.1-0.1c-0.2-0.4-0.4-0.9-0.4-1.4c0-0.3-0.1-0.5-0.1-0.7c0-0.2,0-0.4,0-0.6c0-0.2,0-0.3,0-0.5
		c0-0.7,0-1.1,0-1.4c0-0.3,0-0.7,0.1-1l0-0.2c0-0.1,0-0.3,0-0.4c0-0.1,0.1-0.3,0.1-0.4c0-0.1,0.1-0.3,0.3-0.6
		c-0.1-0.3-0.1-0.5-0.2-0.6c0-0.1,0.1-0.1,0.1-0.2c0.1-0.1,0.1-0.2,0.1-0.4c-0.1-0.4,0-0.7,0.3-1.1c0.1-0.1,0.1-0.2,0.3-0.2
		c-0.2-0.1-0.2-0.2-0.2-0.2c0-0.1,0-0.1,0.1-0.2c0.1-0.2,0.2-0.3,0.2-0.3c0-0.2,0-0.4,0.1-0.7c0-0.1,0-0.1,0-0.2
		c0.1-0.3,0.2-0.4,0.2-0.5l0-0.1c0-0.1,0-0.2,0.1-0.2c0-0.1,0.1-0.1,0.2-0.2c0.1,0,0.1-0.1,0.2-0.1l-0.1-0.1c0-0.1,0-0.2,0.2-0.3
		l-0.2-0.3c0.1-0.2,0.2-0.4,0.3-0.7c0.1-0.4,0.3-0.7,0.6-1.1c0.1-0.4,0.2-0.8,0.4-1.2c0.2-0.3,0.3-0.6,0.4-0.9
		c0-0.1,0.1-0.2,0.2-0.4c0.3-0.3,0.4-0.6,0.5-0.9s0.3-0.7,0.8-1.3c0.2-0.1,0.3-0.3,0.4-0.5c0-0.2,0.2-0.5,0.5-0.8
		c0.3-0.3,0.6-0.6,0.9-0.9c0.7-0.9,1.5-1.7,2.4-2.3c0.2-0.1,0.4-0.3,0.6-0.4c0.5-0.5,0.9-0.7,1.2-0.8c0.9-0.4,1.6-0.6,1.9-0.7
		c0.3-0.1,0.6,0,0.9,0.3c0.3,0.2,0.5,0.4,0.7,0.4c0.1,0,0.1,0.1,0.2,0.2c0.1,0.1,0.2,0.3,0.4,0.4c0.4,0.2,0.7,0.6,1,1
		c0.5,0.7,0.9,1.6,1.1,2.7c0,0.2,0.1,0.4,0.2,0.6c0.1,0.2,0.2,0.5,0.3,0.7l0,0.4l0,0.3c0,0.2,0,0.3,0,0.4c0,0.1,0,0.3,0,0.5
		c0.1,0.3,0,0.6-0.2,0.9c-0.1,0.2-0.1,0.3-0.1,0.5c0.1,0.4,0,0.9-0.2,1.4c-0.1,0.8-0.4,1.8-1,3.2c-0.4,1.1-0.7,2-1,2.6
		c-0.3,0.6-0.6,1.3-0.9,1.8c-0.5,1.1-1.1,2.3-1.9,3.5c-0.6,1.2-1.6,2-2.9,2.4c-0.1,0-0.2,0.1-0.3,0.1c-0.1,0.1-0.2,0.1-0.4,0.1
		c-0.4,0.1-1.1,0-1.9-0.2c-0.1-0.1-0.5-0.3-1-0.9c0,0-0.1,0-0.2,0c0,0.1,0,0.2,0,0.3c0,0.1,0,0.2,0,0.3l0.1,0.1c0,0.1,0,0.1,0,0.1
		c0,0.2-0.1,0.4,0,0.5c0,0.2,0,0.3,0,0.4c0,0,0,0.1-0.1,0.1c-0.1,0-0.1,0.1-0.1,0.1l0.1,0.4c0,0.5-0.1,0.8-0.3,0.9
		c-0.1,0.1-0.1,0.2-0.1,0.2c0,0.1,0.1,0.2,0.2,0.2l0.3-0.1l-0.3,0.3c0,0,0,0.1,0.1,0.2c0.1,0.1,0.1,0.1,0.1,0.2l0,0.1
		c0.1,0.3,0.2,0.6,0.2,0.9c0.1,0.2,0.3,0.3,0.3,0.3c0.1,0,0.2,0.1,0.4,0.3c0.4,0.4,0.9,0.7,1.4,0.7c0.3,0,0.8,0,1.3-0.1
		c0.2-0.2,0.4-0.3,0.8-0.3l0.2,0c1-0.2,2.3-1.1,3.9-2.8c0.7-0.8,1.4-1.5,2.2-2.2c0.1-0.1,0.2-0.2,0.3-0.3c0.1-0.1,0.2-0.2,0.3-0.3
		c0.1-0.1,0.2-0.2,0.3-0.4c0.1-0.1,0.2-0.3,0.3-0.4c0.3-0.2,0.5-0.5,0.7-0.9l0.8-1c0.1-0.2,0.2-0.4,0.3-0.6c0.6-1.2,1.2-2.5,1.7-3.8
		c0.1-0.3,0.3-0.5,0.7-0.5c0.2,0,0.3,0,0.5,0.1c0.2,0.1,0.2,0.2,0.3,0.3c0,0.2-0.3,1.2-1.1,2.9c-0.5,1.2-0.7,1.9-0.8,2.1
		c-0.1,0.3-0.3,0.7-0.5,1c-0.2,0.3-0.5,0.8-0.8,1.4c-0.2,0.3-0.3,0.5-0.3,0.8c-0.1,0.1-0.1,0.2-0.2,0.4c-0.1,0.1-0.1,0.2-0.2,0.3
		c-0.4,0.8-0.9,1.5-1.5,2.2c-0.2,0.3-0.3,0.5-0.3,0.6c0,0.1-0.1,0.4-0.3,0.7c0,0.1-0.1,0.1,0,0.2c0,0.1,0,0.2-0.1,0.2
		c-0.1,0.1-0.1,0.1-0.1,0.1c0,0-0.1,0.1-0.1,0.1l-0.1-0.2c0,0,0,0.1-0.1,0.1l0.1,0.2c0,0.1-0.1,0.2-0.2,0.2
		c-0.1,0.1-0.1,0.2-0.1,0.3c0,0.1-0.7,0.7-2,1.8C263.5,110.8,263.1,111,262.6,111L262.6,111z M250.9,102.9c0,0,0-0.1-0.1-0.1
		c0,0-0.1-0.1-0.1-0.1c0,0-0.1,0.1-0.1,0.1c0,0-0.1,0.1-0.1,0.1c0,0.2,0.1,0.3,0.1,0.3C250.9,103.1,250.9,103,250.9,102.9z
		 M259.1,97.4c0.1-0.1,0.2-0.2,0.2-0.3c0-0.1,0-0.1,0.1-0.1l0,0c0.2,0,0.4-0.1,0.3-0.3c-0.1,0-0.3,0.1-0.4,0.3
		c-0.1-0.1-0.1-0.1-0.1-0.2c0-0.1,0.1-0.2,0.2-0.4c0.6-1.1,1-1.6,1.1-1.7c0.1-0.1,0.2-0.2,0.2-0.4c0-0.2,0.1-0.6,0.5-1.3
		c1.6-3.7,2.7-7.4,3.2-11.1c0,0,0-0.1-0.1-0.2c0-0.1-0.1-0.1-0.1-0.1c0,0-0.1,0-0.2,0c-0.1,0-0.3,0.2-0.6,0.4
		c-0.7,0.7-1.1,1.1-1.2,1.1c-0.1,0.1-0.2,0.2-0.2,0.4c0,0.2-0.1,0.3-0.1,0.3c-0.2,0.3-0.4,0.5-0.5,0.7c-0.1,0.2-0.3,0.4-0.4,0.6
		c-0.5,0.9-1,1.7-1.3,2.7c0,0.1-0.1,0.2-0.2,0.3c-0.1,0-0.2,0.2-0.2,0.4c-0.1,0.2-0.5,1-1.3,2.4l0,0l-1.1,2.6
		c-0.1,0.2-0.2,0.5-0.1,0.8c0,0.1,0,0.2-0.1,0.2c0.1,0.1,0.1,0.1,0.1,0.1c0,0,0,0,0.1,0c-0.2,0.4-0.4,0.7-0.3,0.9l0.1,0.2
		c0,0.1-0.1,0.1-0.1,0.2c-0.1,0.2-0.2,0.4-0.1,0.6c0,0.1,0.1,0.3,0.1,0.4l-0.3,0.3c0.1,0.4,0.1,0.7,0,1c0,0.1,0,0.3,0,0.4
		c0,0.1,0.1,0.2,0.1,0.4c0.3,0.1,0.5,0.1,0.7,0.1C257.3,99.3,258.1,98.6,259.1,97.4z M258.6,99.4c0-0.1,0.1-0.1,0-0.2
		c0.4-0.1,0.6-0.3,0.7-0.7l0.6-0.4c0-0.1,0-0.2,0.1-0.3c0.1-0.1,0.2-0.2,0.2-0.3c0,0-0.1-0.1-0.2,0c0,0.1,0,0.1-0.1,0.2
		c0,0.1-0.1,0.2-0.1,0.3l0,0.2l0,0.1l-0.4,0c0,0-0.1,0.1-0.2,0.3l0,0.1c-0.1,0-0.3,0.1-0.5,0.1l-0.1,0l0,0l0.1,0l-0.3,0.5
		c-0.2,0.1-0.5,0.3-0.7,0.4c-0.2,0.2-0.5,0.3-0.7,0.3l-0.4,0c0,0,0,0,0,0l0.1-0.1c0,0.1,0.1,0.2,0.1,0.2l0.2,0
		C257.8,100,258.2,99.8,258.6,99.4z M260.3,95.9l-0.1,0l-0.1,0.1L260.3,95.9L260.3,95.9z M260.8,95.4
		C260.8,95.3,260.8,95.3,260.8,95.4c-0.1,0-0.1,0-0.1,0l0,0L260.8,95.4L260.8,95.4z M260.9,95L260.9,95L260.9,95L260.9,95z
		 M261.2,94.4L261.2,94.4c0.1,0,0.2-0.1,0.2-0.2l-0.1-0.1C261.3,94.2,261.2,94.2,261.2,94.4L261.2,94.4l-0.2,0.2l0.1,0L261.2,94.4z
		 M262.5,91.6L262.5,91.6L262.5,91.6L262.5,91.6z M263.3,90.1L263.3,90.1C263.2,90.1,263.2,90.2,263.3,90.1
		C263.3,90.2,263.3,90.2,263.3,90.1L263.3,90.1z M263.6,89.6L263.6,89.6l-0.1,0l0.1,0.1L263.6,89.6z M263.6,89.1L263.6,89.1
		L263.6,89.1L263.6,89.1z M264,88.5L264,88.5L264,88.5L264,88.5z M264.3,87.4L264.3,87.4L264.3,87.4L264.3,87.4z"/>
</g>
<g>
	<g>
		<g>
			<g>
				<g>
					<path d="M274.4,122.6c0.2,0,0.1-0.4,0.1-0.5C274.3,122.3,274.4,122.8,274.4,122.6z"/>
					<polygon points="271.7,123.7 271.7,123.5 271.3,123.9 					"/>
					<path d="M269.1,123.7c0.3,0.7,0.9-0.1,1.4,0.1l0.1,0.2l0.2-0.6C270.2,123.5,269.5,123.9,269.1,123.7z"/>
					<path d="M267.7,122.2c0.1,0.3-0.3,0.2,0.3,0.1c0,0,0,0-0.1-0.1C267.9,122.3,267.8,122.3,267.7,122.2z"/>
					<path d="M267.9,122.2C268.2,122.2,267.7,122,267.9,122.2L267.9,122.2z"/>
					<path d="M266.7,122.5l0.4-0.3c-0.1-0.2-0.4-0.2-0.3-0.3C266.4,122,266.4,122.2,266.7,122.5z"/>
					<path d="M266.3,123l0.2-0.1C266.5,122.8,266.4,122.8,266.3,123z"/>
					<path d="M266.9,122.6l-0.4,0.2c0.1,0.1,0.1,0.3,0.2-0.1C266.7,123,266.8,122.8,266.9,122.6z"/>
					<path d="M267.1,122.7c0.2,0.1,0.5,0.2,0.1,0.5C267.9,123.1,267.8,122.6,267.1,122.7z"/>
					<path d="M269,124.5l0.3,0.2l0.2-0.2C269.4,124.6,269,124.3,269,124.5z"/>
					<path d="M264.4,122.2c0,0.2,0.1,0.4,0.2,0.6l0.3-0.2C264.7,122.5,264.4,122.4,264.4,122.2z"/>
					<path d="M264.6,122.8l-0.4,0.3C264.5,123.1,264.6,122.9,264.6,122.8z"/>
					<polygon points="266.3,123.8 266.9,123.2 266.2,123.8 					"/>
					<polygon points="262.9,122.2 263.1,121.9 262.7,122.4 					"/>
					<path d="M261.9,122.3c0.2-0.3-0.3-0.5-0.1-0.7c-0.3,0.1-0.5,0.3-0.7,0.6C261.3,122.1,261.6,122.1,261.9,122.3z"/>
					<path d="M260.8,122.6c0.1-0.1,0.2-0.2,0.3-0.3C261,122.3,260.9,122.4,260.8,122.6z"/>
					<path d="M263.5,123c0-0.1-0.1-0.3-0.3-0.4l0.2,0.4C263.4,123,263.5,123,263.5,123z"/>
					<path d="M263.4,123L263.4,123c-0.2,0-0.3,0-0.3,0C263.1,123,263.2,123,263.4,123z"/>
					<path d="M263.6,123L263.6,123C263.5,123.1,263.5,123.1,263.6,123z"/>
					<path d="M265.3,123.4c-0.2,0.2-0.7,0.5-0.2,0.9C265.2,124,264.9,123.8,265.3,123.4z"/>
					<path d="M263.8,123.5l0.4,0.1c0-0.1-0.1-0.3,0-0.4L263.8,123.5z"/>
					<polygon points="263.6,123.7 263.8,123.5 263.6,123.5 					"/>
					<path d="M261.5,122.9c-0.2,0.2-0.4,0.2-0.6,0.3c0.2,0.1,0.5,0.1,0.7,0.1C261.7,123.2,261.8,122.9,261.5,122.9z"/>
					<path d="M262.4,123L262.4,123C262.4,123.1,262.4,123.1,262.4,123z"/>
					<path d="M258.7,123.3C258.7,123.4,258.7,123.4,258.7,123.3L258.7,123.3L258.7,123.3z"/>
					<path d="M261.7,123.4c0.2,0.1,0.3,0,0.4-0.2C261.9,123.3,261.8,123.3,261.7,123.4C261.6,123.4,261.6,123.4,261.7,123.4z"/>
					<path d="M260.2,122.8c0.1,0.1,0.2,0.2,0.3,0.2C260.4,122.9,260.2,122.7,260.2,122.8z"/>
					<path d="M262.3,122.9C262.3,122.9,262.3,122.9,262.3,122.9C262.3,122.8,262.3,122.9,262.3,122.9z"/>
					<path d="M262.3,122.9c-0.1,0.1-0.2,0.2-0.2,0.3c0.1,0,0.2-0.1,0.3-0.2C262.3,123,262.3,123,262.3,122.9z"/>
					<path d="M258.2,126.1c0-0.4,0.5-0.8,0.9-0.4c0.4-0.3,0-1.6-0.3-2.3c0,0.2,0,0.3-0.4,0.6c0.2,0.2,1,0.4,0.6,0.8
						c-0.5,0.2-0.5-0.1-0.7-0.3c0.3,0.5-0.7,0.8-0.5,1.5l0.5-0.3C258.2,125.8,258,126,258.2,126.1z"/>
					<path d="M259.5,123.4l0.2-0.1c-0.2-0.1-0.3-0.2-0.6-0.5c-0.3,0.2-0.3,0.4-0.3,0.5L259.5,123.4L259.5,123.4z"/>
					<path d="M260.5,123.3c-0.1,0.4-0.5,0.6-0.2,1.1c0.5-0.1,0.3-0.4,0.6-0.6C260.1,124,261.1,123.6,260.5,123.3
						c0.2,0,0.3-0.1,0.4-0.1c-0.1,0-0.3-0.1-0.4-0.2l0,0l0,0l0,0c0,0.1,0.1,0.1,0,0.1c0,0,0,0,0,0
						C260.5,123.2,260.5,123.2,260.5,123.3c-0.2-0.1,0-0.1,0-0.2l0-0.1l0,0l-0.8,0.3C259.9,123.4,260.1,123.4,260.5,123.3z"/>
					<path d="M264.7,125.3C264.6,125.2,264.6,125.2,264.7,125.3C264.6,125.2,264.6,125.3,264.7,125.3z"/>
					<path d="M264.3,125c0.1-0.1,0.1-0.2,0.3-0.2c0.2,0.1,0,0.2,0,0.3c0.1-0.1,0.4-0.3,0-0.5l-0.1,0.1c-0.3-0.1-0.8-0.7-0.7-0.7
						C264,124.4,264.1,124.6,264.3,125z"/>
					<path d="M262.4,124.3l-0.7,0.2l0.4,0.4l0-0.2C262.4,124.7,262.3,124.4,262.4,124.3z"/>
					<polygon points="258.6,123.1 258.7,122.7 258.3,123.3 					"/>
					<polygon points="257.7,123.2 257.7,122.8 257.5,123.1 					"/>
					<path d="M209.2,133.9l-0.2,0.1C209.1,134,209.1,134,209.2,133.9z"/>
					<path d="M210.6,133.7l0-0.2C210.5,133.6,210.5,133.7,210.6,133.7z"/>
					<path d="M236.1,125.1c-0.3-0.3-0.7-0.9-0.6-0.4l0.1,0.4C235.8,125,236,125.1,236.1,125.1z"/>
					<path d="M221.8,129.6l0.1,0.1c0-0.2,0.1-0.3,0.1-0.4C222,129.4,221.9,129.5,221.8,129.6z"/>
					<path d="M221.9,131.4l-0.4-0.2C221.5,131.3,221.7,131.3,221.9,131.4z"/>
					<path d="M201.6,135.8l-0.1,0.5C201.8,136.2,201.6,136,201.6,135.8z"/>
					<path d="M248.7,124c-0.3-0.1-0.5-0.2-0.6-0.2C248.4,124,248.7,124.4,248.7,124z"/>
					<path d="M208.9,129.3c-0.1,0.1-0.1,0.2-0.1,0.3C208.9,129.5,209,129.4,208.9,129.3z"/>
					<path d="M247.4,123.9c0,0,0.1,0.1,0.1,0.1c0.2-0.1,0.4-0.2,0.6-0.1C247.8,123.7,247.6,123.6,247.4,123.9z"/>
					<path d="M173.9,141.8C173.9,141.7,173.9,141.7,173.9,141.8C173.9,141.8,173.9,141.8,173.9,141.8z"/>
					<path d="M164.8,139.7c0.1,0,0.2-0.1,0.3-0.1C165,139.6,164.9,139.6,164.8,139.7z"/>
					<path d="M254.2,123.3C254.4,123.2,254.2,123.2,254.2,123.3L254.2,123.3z"/>
					<path d="M255.2,124.9c0,0.1-0.1,0.1-0.1,0.2C255.1,125,255.2,125,255.2,124.9z"/>
					<path d="M245.7,126.7L245.7,126.7C245.8,126.8,245.8,126.8,245.7,126.7z"/>
					<path d="M254.5,123.4c-0.1,0-0.2-0.1-0.2-0.1C254.3,123.4,254.3,123.4,254.5,123.4z"/>
					<path d="M254.4,123.2c0.1,0,0.1,0,0.2,0C254.6,123.2,254.6,123.2,254.4,123.2z"/>
					<path d="M253.9,123.3c0.1,0,0.2,0,0.3,0c0,0-0.1-0.1,0-0.1C254.1,123.3,254,123.3,253.9,123.3z"/>
					<path d="M188.4,137C188.4,137,188.4,137,188.4,137C188.2,137.2,188.3,137.2,188.4,137z"/>
					<path d="M231.8,130.2C231.9,130.2,231.9,130.1,231.8,130.2L231.8,130.2L231.8,130.2z"/>
					<path d="M231.2,130.6c0.2-0.6,0.4-0.5,0.6-0.4l-0.4-1.2L231.2,130.6z"/>
					<path d="M205.8,134.7l0.5,0.3c-0.4,0.7-0.9,0.6-0.3,1c-0.2-1.3,1.8-0.5,1.6-1.8l0.4,0.2c-0.1,0-0.1,0.1-0.2,0.1
						c0.7,0.5,0.3-1,1.1-1c0.3,0.1,0.5,0.2,0.3,0.4l0.5-0.4c0.2,0,0.2,0.2,0,0.2l0.9-0.3l0,0c0.1-0.2,0.3-0.6,0.4-0.8
						c0.3,0.2-0.1,0.2,0,0.3l0.4-0.4c0.3,0.3-0.1,0.7-0.4,0.7c0.7,1.3,0.4-0.4,1.5,0.2l-0.4,0.3c0.4,0.7,0.8,0.4,1.4,0.8
						c-0.2-0.2-1.3-1-0.8-1.4c0.2,0.1,0.4,0.1,0.6-0.2c0.1,0.5,0.3,0.3,0.7,0.2l0.1,0.6c0.4-0.2,0.3-0.6,0.5-0.9
						c0.4,0,0.6,0.5,0.8,0.9c0.7,0-0.6-0.7,0.2-1c0.6,0.1,1-0.2,1.6-0.7c0.4,0.2,0,0.4,0.2,0.6l0.3-0.6c0.1,0,0.1,0.2,0.1,0.2
						c0.3-0.2-0.1-0.6,0.4-0.9c0-0.7,1.1,0.9,1.6,0c0.2,0.2,0,0.4,0.1,0.6c0.7-0.6,0.6-0.5,1.2-1.3l0.6,0.3c-0.5-0.4,0-1.1,0.4-1.6
						c-0.2-0.2-0.3-0.4-0.4-0.5l0.7-0.4c0.1,0.1,0.1,0.3,0,0.6c0-0.1,0.1-0.1,0.1-0.2c0.3,0.2,0.2,0.6,0.1,1
						c-0.1-0.1-0.2-0.2-0.3-0.4c-0.1,0.4-0.2,0.9-0.1,1.2c0-0.1,0.1-0.2,0.2-0.2c0,0.1,0,0.2,0,0.3c0,0.1,0.1-0.1,0.2-0.3l0.3,0.7
						l0-0.3l1,0.3c0.6-0.8,1-1.9,2.1-2.4c-0.2,0.6,0.1,0.9,0.1,1.5c-0.4-0.6-0.8,0.4-1.4,0.3c0.3,0,0.3,0.3,0.2,0.4l0.9-0.7
						c0,0.5,0.3,0.3,0.6,0.5c-0.3-1,0.7-0.8,1-1.1c0.1,0.3,0,0.7-0.5,0.7c0.7,0.7,0.6-1.3,1.2-0.7c-0.1,0-0.2,0-0.2,0.2
						c0.2-0.3,1-0.2,0.9,0.1l-0.1,0c0.8,0,2.5-0.3,2.5-1.2c0,0.1,0,1,0,1.2l1.1-3c0,0.7,0.7,2.4,0,2.9c0.2,0.1,0.5,0.2,0.8-0.1
						c-0.1-0.1-0.5-1-0.3-1.1c0.6,0.7,0.4,0.4,1.1,1c-0.2-0.1-0.1-1.3,0.2-1.3c0,0.2,0.2,1.1,0.1,1.3l0.7-1.2
						c-0.2,0.2,0.1,1,0.3,1.2c-0.1-0.2,0.7-0.1,0.9-0.2l-0.4-0.2c0.9,0.1,0.7-1.7,1.6-1.7c-0.1,0.2-0.1,1.5,0.4,1.5
						c0.1-0.6,0.6-2.9,1.3-3.4l0.2,0.3l0.6-0.4c-0.3,0.9-1.1,2.8-1.6,3.6c0.4,0.2,0.1,0.4,0.6,0.3c0.2,0.3-0.2,0.5-0.4,0.5l1.2,0.1
						c-0.1-0.7,0.8-0.8,0.7-1.3l-1.2,0.8c-0.1-0.7,0.5-2,1.4-2c0.2,0.2,0,1.2,0,1.4c0.1-0.2,0.7-0.5,0.8-0.4l-0.3,0.4
						c0.5,0.2,0.7-1,1.3-0.4c0.2,0,0.6,0.8,0.6,0.4c-0.4-0.7-0.7-3.1-0.5-3.7c0.1,0,1.1,0.6,1.3,1c0.4,0.6-0.3,1.5,0,2
						c0-0.2,0.1-0.4,0.2-0.5c0.2,0.1,0,0.6,0.4,0.5c0-0.7,0.9,0,0.2-0.6c0.4-0.2,0.5,0.1,1,0c-0.2-0.4,0.3-1.5,0.7-1.8
						c0,0.2,0.1,0.4,0.2,0.5c0.9,0,1.4,0.2,2.2,0.2c0.1,0.2,0.5,0.3,0.4,0.6c0.1-0.1,0.2-0.4,0.4-0.4c0.5,0.5-0.5,0.1-0.1,0.8
						c0-0.4,0.6-0.6,0.9-0.9c-0.2-0.6-0.8-0.1-1.2,0.2c-0.1-0.8,0.5-1.8,1.3-2.2c0.7-0.3,0.3,0.5,0.4,0.4c1.3,0,1-1.6,2.1-1
						c0.5,0.5,0.1,1.1,0.2,1.4c-0.5,0.2-0.9-0.3-1.2-0.2l0.5,0.2c-0.2,0.2-0.5,0.4-0.7,0.2c0.4,0.5,2.1-0.1,3.2,0.3
						c0.2-0.2,0.4-0.4,0.3-0.6l-0.3,0.1c-0.3-0.4,0.5-0.6,0.1-0.8c0.4-0.3,0.8-0.8,1.4-0.6l0.2,0.6c0-0.2-0.4-0.3-0.6-0.1
						c0.2-0.3,1,0.8,1.2,0l-0.4-0.4c0.4-0.3,0.9-1,1.4-0.9c-0.3-0.6-0.1,0.1-0.5-0.6c0.4,0.9-1.3,0-0.8,0.9c-0.4-0.8-0.7-0.3-1.2-1
						c0,0.2,0.2,0.4-0.2,0.3c0,0.1-0.1,0.1-0.1,0.2c0,0,0,0,0,0l0,0c0,0,0,0,0,0c0.1,0.1,0.2,0.2,0.2,0.3c-0.2,0.5-0.9,0.5-1.1,0.8
						c-0.3-0.1,0.1-0.2-0.1-0.4l-0.3,0.4c-0.1-0.4-0.7-0.7-0.1-1l-0.6,0c-0.3-0.2-0.8-0.3-1.1-0.1c-0.3-0.1-0.6,0.5-0.4,0.2
						l-0.8,0.3l0-0.1c-0.9,0-1.7,0.9-2.7,0.1c-0.3,0.1-0.6,0.3-1.1,0.2l-0.1-0.4c-0.4,0.2-1.1-0.3-1.3,0.1c-0.5-1-1.8-0.1-2.5-0.2
						l0,0.5c-0.4,0-0.9,0.2-1.4,0.5l0.1,0.4c-0.4,0.4-1.3-0.2-2-0.1c0-0.2,0.2-0.2,0.4-0.1c-1-0.9-1.8,0.9-2.7,0.3
						c-0.2,0.2-0.3,0.1-0.5,0c0,0,0,0,0,0c0,0-0.1,0-0.1,0c-0.1-0.1-0.2-0.1-0.3-0.2c0.1,0.1,0.2,0.2,0.3,0.2
						c-0.2,0-0.4,0.1-0.6,0.2l-0.2-0.5c0,0,0,0-0.1,0c-0.2-0.2-0.2,0.2,0,0.6c-0.1,0.1-0.2,0.2-0.3,0.3c-0.3-0.8-0.6,0.3-0.9-0.5
						c-0.1,0.4-1.1,0.4-1.2,1.3c0-0.1-0.1-0.2,0-0.2c-0.3-0.1-0.5-0.1-0.7,0.1l-0.2-0.6l-0.5,0.9c-0.4-0.3-0.6-0.5-0.3-1
						c-0.7,0.8-0.6,0.4-1.2,1.2l0-0.4c-0.2,0-0.6,0.6-0.8,0.3c-0.7-0.7-2.8,0.2-4.3-0.3c0.4,1.1-0.7-0.4-0.7,0.5
						c-0.1-0.3-0.3-0.4-0.1-0.7c-0.7,0.4-1.2-0.3-1.6,0.6c-0.1-0.3,0.1-0.4,0-0.6c-0.1,0.1-0.2,0.3-0.3,0.1
						c-0.1-0.2,0.1-0.2,0.2-0.4c-0.7,0.2-0.7,1-0.6,1.8c-0.4-0.3-0.6-0.2-0.8,0.3c-0.2-0.2-0.4-0.5,0-0.6c-0.3,0-1.6-0.1-1.6,0.5
						c-0.1-0.1-0.4,0-0.4,0.1c-0.6,0-0.7,0-1.2,0.1l0.2,0.1c-0.1,0.8-0.4,0.2-0.9,0.4l0-0.1c-1.1-0.4-0.4,0.3-1.6-0.1l0.1,0.5
						c0.1,1-1-0.5-1.6,0l0.3,0.2c-0.3,0.4-1.2-1.2-1.5-1.3c-0.1-0.1,0.1-0.2,0.2-0.2c-1-0.5,0,0.6-0.6,0.9c-0.2-0.3,0-0.9-0.4-0.9
						c-0.3-0.2-1.1,1.3-1.8,0.8c0.2,0.2,0.3,0.5,0.1,0.7c-0.4,0.2-1.4-0.8-1.7,0.1c-0.1-0.1-0.1-0.1-0.1-0.2c-0.3,0.3-1.1,0.6-1.2,1
						c-0.6-1.6-2,1.2-2.3-0.3l-1.1,0.3l0-0.2c-0.7,0-0.9,0.4-1.1,0.8c-0.2-0.1-0.1-0.2-0.1-0.3c-1.1-0.1-1.2,0-1.9,0.9l-0.2-0.5
						c-0.2,0.3-1.6-0.5-2.5,0.3c0-0.1,0-0.2,0.1-0.2c-1,0.8-2.9-0.8-3,1.1l-0.6,0.6c1-0.1,0,0.8,0.5,1c-0.3,0.2-1.1-0.3-0.6-0.5
						l0.1,0.1c0-1-1.2-0.1-1.4-0.7c-1.9,0.4-3.8,0.3-5.5,0.7l0.4,0.7l-0.6,0.1c-0.2-0.1-0.3-0.5,0.1-0.6c-0.3-0.4-0.6,0.5-0.6,0.7
						c-0.9-0.1,0.1-0.9-0.1-0.9l-0.3,0.1l0.1,0.1c-0.2,0.4-0.2,0.7-0.7,0.8c-0.4-0.1-0.3-0.4-0.4-0.4c0-0.1-0.1-0.1-0.2,0l-0.8,0.1
						l0.4,0.5c-0.3,0.4-0.7,0.1-0.2,0.7c-0.7-0.9-2.9,0.3-3.3,0.1c-0.4,0.5-0.8,0.6-1.4,0.7c0.2,0.1,0.4,0.7-0.1,0.7
						c-0.1-1.3-1-0.3-1.7-1.2c0.5,0.5-1.4,0.5-0.6,1.2c-0.4,0-0.1-0.5-0.5-0.7c-0.9,0.7-2.3,0.2-3.4,0.7c0,0.2,0.3,0.4,0.1,0.7
						l-0.9-0.7c-0.2,0.1,0,1-0.6,0.6c0.1,0.1,0.2,0.3,0.1,0.4c-2.6-0.2-4.7,2-7.5,1.1c0.4,0.2,0.2,0.3,0,0.4c0.2,0,0.1,0.4,0.2,0.6
						l-1.2-0.4c0,0.7-1.1,0.3-1,1l0.3-0.2c-0.2,0.8,1,1.4,1.2,2.4c0.2-0.9,1.6,0.9,2-0.5c0.2,0.1-0.1,0.3,0.1,0.5
						c0.1-0.5,0.3-0.6,0.8-0.5l0,0.1c1.2-0.4,1.8-0.2,3.3-0.3l-0.2-0.4c0.3,0,0.4,0.1,0.6,0.2c0.2-0.8-0.9,0.2-0.7-0.7
						c0.6,0.8,2.1-0.5,2.7,0.5c0.5-0.1-0.3-0.5,0.2-0.6l0.2,0.3l0-0.4c0.3,0,0.6,0.3,0.6,0.5c-0.1,0-0.2,0.1-0.3,0.2
						c0.5,0.2,1.1-0.4,1.2-0.3l-0.5-0.1c1.2-0.6,2.8-0.6,3.9-1.5l-0.1-0.2c0.8-0.6,0.8,0.1,1.8-0.4l0,0.1c0.2-0.3,0.4-0.4,0.7-0.5
						c-0.2,0.3,0.6,0.4,0.3,0.7c0.9-0.7,0.4-0.5,0.9-1.4l0.2,0.3c0.1-0.4,0.1-0.6,0.6-0.8c-0.3,0.4,0.5,0.5,0.1,1
						c1.3,0.5,1.4-1.2,2.2-0.1c0.3-1.1-1.1-0.3-0.8-0.6c-0.3-0.3,0.2-0.8,0.6-0.8c0.4-0.1,0.9,1.1,1.7,0.9c-0.1,0-0.1,0.1-0.2,0.1
						c0.4,0.2,0.6-0.5,1-0.2c0.1-0.7,0.5-0.1,0.4-0.9l-0.8,0.4c0.4-0.3,0.6-1.3,1.5-1c0,0.2-0.2,0.4-0.3,0.6
						c0.3,0.2,0.4-0.2,0.7-0.1c0.1,0.8-0.9,0.4-1.3,1.1c0.3,0.3,0.8-0.8,0.7,0.1c0.1-1.1,0.9-0.1,1.3-1l0.1,0.5
						c0.1-0.1,0.2-0.4,0.4-0.4l-0.2,0.7c0.4-0.6,1,0.2,1.4-0.1c-0.9,0.2-0.3-0.5-0.8-0.8c1-0.9,0.9,1.1,2.2,0.6
						c-0.2,0.1-0.7-0.1-0.5-0.4c0.3,0,0.6,0.2,0.8,0.4c0.9-0.3-0.2-0.4,0.1-0.8c0.4,0.5,0.4-0.3,0.7-0.6l0.1,0.5
						c1.1,0.1,0.1-1,1-0.9l-0.2,0.7l0.4-0.3l0,0.6c0.4-0.5,0.6-0.4,1.1-0.4c-0.2-0.3-0.1-0.9,0.3-1c0.4,0.2-0.1,0.5,0.5,0.3
						c-0.1,0.3-0.2,0.7-0.5,0.4c0,0.2-0.1,0.3-0.1,0.5c0.4,0.3,0.8-0.1,1.1-0.2c-0.1,0-0.2,0-0.3-0.1l0.8-0.8c0.2,0.1,0.1,0.3,0,0.5
						c0.2-0.1,0.3-0.3,0.5-0.4c0,0.4,0.1,0.8-0.2,1l0.8-0.6c0.1,0.2,0.5,0.4,0.5,0.5c0.5,0.1,1-1,1.7-0.8c0-0.1,0.1-0.2,0.2-0.2
						c0.6,0,1.2,0.3,1.8-0.3l0.5,0.6c0.5-0.3-0.7-0.8,0.2-1.2c0.6-0.3,0.4,0.5,0.6,0.7c0.3-0.4,0.7-1.2,1.4-0.8
						C206.2,134.7,206,134.6,205.8,134.7z M212.6,133.1c-0.1,0.1-0.3,0.5-0.5,0.2C212.2,132.8,212.4,133,212.6,133.1z M222.9,130.4
						c-0.1,0.2-0.2,0.1-0.4,0C222.6,130.3,222.8,130.3,222.9,130.4z M252.1,123.8L252.1,123.8C251.8,123.7,251.9,123.7,252.1,123.8z
						 M252.8,124c0.1-0.1,0-0.1,0-0.2c0,0.1-0.2,0.1-0.3,0.1C252.5,124,252.6,124.1,252.8,124z M185.7,134.3l0.1,0.1
						C185.6,134.6,185.7,134.5,185.7,134.3z"/>
					<path d="M221.8,131.2c0-0.1-0.1-0.2-0.1-0.3C221.7,131,221.7,131.1,221.8,131.2z"/>
					<path d="M201.6,135.7C201.6,135.7,201.6,135.7,201.6,135.7C201.6,135.8,201.6,135.8,201.6,135.7L201.6,135.7z"/>
					<path d="M243.4,128.9c-0.1-0.1-0.2-0.1-0.3-0.2C243.2,128.8,243.2,128.8,243.4,128.9z"/>
					<path d="M256.1,122.9l-0.4,0.2c0.2,0,0.3,0.1,0.4,0.1C256.1,123.1,256,122.9,256.1,122.9z"/>
					<path d="M259.8,125.7c0.1-0.1,0.1,0,0.2-0.1l0-0.2C259.7,125.4,259.5,125.6,259.8,125.7z"/>
					<path d="M256.6,124.5c0.1,0.4,0.3,0.2,0.6,0.2c0,0,0,0-0.1,0C257.1,124.1,256.9,124.3,256.6,124.5z"/>
					<path d="M257.2,124.6c0.1,0,0.2,0,0.3,0C257.5,124.4,257.4,124.6,257.2,124.6z"/>
					<path d="M253.6,123.6c0.1,0.1,0-0.5,0.1-0.4C253.8,122.7,252.9,124,253.6,123.6z"/>
					<polygon points="256.9,125.8 256.7,125.3 256.6,125.7 					"/>
					<path d="M254.6,125.6l0.5,0.1c0-0.1,0-0.1,0.1-0.2C254.9,125.5,254.6,125.4,254.6,125.6z"/>
					<path d="M255.2,125.5c0.1,0,0.3,0,0.4-0.1C255.5,125.4,255.3,125.5,255.2,125.5z"/>
					<polygon points="256.3,126 256.1,125.9 255.8,125.9 					"/>
					<path d="M249.8,125.9l-0.5,0.2c0,0.2,0.1,0.3,0.3,0.2C249.7,126.1,249.9,126,249.8,125.9z"/>
					<path d="M251.4,127.1c-0.1-0.1-0.2-0.2-0.2-0.4l0,0.6L251.4,127.1z"/>
					<path d="M250,127.4c0,0.2-0.7,0.5-0.1,0.5C249.9,127.7,250.4,127.5,250,127.4z"/>
					<polygon points="242.5,127.2 242.6,127.2 242.5,126.2 					"/>
					<path d="M236.3,130.3c0.6,0.2,0.1-0.6,0.6-0.4c0.1-0.3-0.5-0.2-0.3-0.4C236.2,129.8,236,129.7,236.3,130.3z"/>
					<path d="M236.6,129.5c0.1,0,0.1-0.1,0.2-0.2C236.6,129.4,236.6,129.5,236.6,129.5z"/>
					<polygon points="163.3,139.5 162.9,139.4 163.2,139.7 					"/>
					<path d="M162.8,140.5l-0.3-0.6l-0.1,0.6C162.6,140.4,162.7,140.3,162.8,140.5z"/>
					<path d="M213.9,134.3l0-0.2c-0.1-0.2-0.2-0.2-0.3-0.2L213.9,134.3z"/>
					<polygon points="208.8,134.6 208.9,134.6 208.6,134.1 					"/>
					<path d="M204.8,136.1c0.2,0,0.3-0.2,0.5-0.2C204.9,136.1,204.6,135.4,204.8,136.1z"/>
				</g>
			</g>
		</g>
	</g>
</g>
</svg>
