<?xml version="1.0" encoding="utf-8"?>
<!-- Generator: Adobe Illustrator 24.0.1, SVG Export Plug-In . SVG Version: 6.00 Build 0)  -->
<svg version="1.1" id="Layer_1" xmlns="http://www.w3.org/2000/svg" xmlns:xlink="http://www.w3.org/1999/xlink" x="0px" y="0px"
	 viewBox="0 0 119.2 132.4" style="enable-background:new 0 0 119.2 132.4;" xml:space="preserve">
<g>
	<path d="M37.1,85.5c-0.2,0-0.5-0.1-0.8-0.1c-0.5,0-0.8-0.2-0.8-0.5c-0.1-0.3-0.2-0.5-0.4-0.7c-0.7-0.4-1-0.7-1-0.9
		c0-0.3-0.1-0.6-0.2-0.8c-0.2-0.5-0.3-1.1-0.3-1.7l0.1-1c0-0.5,0-1.1,0.1-1.6c0-0.2,0-0.4-0.1-0.5c-0.1-0.1-0.1-0.2-0.1-0.2
		c0-0.1,0.1-0.2,0.2-0.3c0.1-0.1,0.2-0.2,0.2-0.3l0-0.2c-0.1-0.2-0.1-0.3-0.1-0.5s0.1-0.3,0.2-0.4c0.2-0.4,0.3-0.7,0.3-0.9
		c0-0.5,0.1-0.9,0.3-1.1c0,0,0.1-0.1,0.1-0.2c0-0.1,0-0.1,0-0.2c-0.1-0.2-0.1-0.4-0.1-0.7c0-0.1,0-0.1-0.1-0.2c0-0.1,0-0.2,0-0.3
		c0.1-0.1,0.1-0.3,0.1-0.6c0-0.2,0.1-0.5,0.2-0.9l0-0.1c0,0,0-0.1,0-0.1c0,0,0-0.1,0-0.2c0-0.3,0.2-0.5,0.5-0.7
		c0.1,0,0.1-0.1,0.1-0.2c-0.1-0.1-0.1-0.2-0.2-0.2c-0.1-0.1-0.2-0.2-0.2-0.4c0.2-0.4,0.3-0.8,0.3-1.3c0-0.2,0.2-0.3,0.5-0.5
		c0.2-0.1,0.4-0.2,0.4-0.4c0-0.1,0-0.2-0.1-0.3c0,0,0,0-0.1-0.1c-0.1,0-0.1-0.1-0.1-0.3c0-0.1,0-0.1,0.1-0.2
		c0.2-0.2,0.3-0.4,0.4-0.6c0.1-0.2,0.2-0.4,0.2-0.4c0-0.1,0.1-0.1,0.1-0.3c0-0.1-0.1-0.2-0.2-0.2c-0.1-0.1-0.1-0.1-0.2-0.2
		C36,64,36,64,36.1,63.9c0.1-0.1,0.2-0.2,0.3-0.2c-0.1-0.2-0.1-0.4-0.1-0.5c0-0.4,0.2-0.7,0.7-0.9c-0.2-0.3-0.3-0.6-0.3-0.8
		c0-0.2,0.1-0.4,0.2-0.6c0.2-0.2,0.3-0.3,0.3-0.4c0.1-0.1,0.1-0.2,0.2-0.2c0-0.1,0-0.1,0-0.2c0-0.1,0-0.2,0-0.3c0-0.1,0-0.2,0.1-0.3
		c0.2-0.2,0.3-0.4,0.3-0.6l0-0.2c0-0.2,0.1-0.4,0.2-0.5c0.2-0.2,0.4-0.6,0.4-1c0-0.3,0.2-0.9,0.6-1.7c0.1-0.2,0.1-0.3,0.1-0.4
		c0-0.1,0-0.1-0.1-0.2c0-0.1,0-0.2,0-0.2c0.3-0.6,0.5-1.2,0.6-1.9c0-0.1,0.1-0.2,0.1-0.3c0.1-0.2,0.2-0.4,0.2-0.5s0-0.2,0.1-0.3
		c0-0.1,0.1-0.2,0.2-0.2c0.1-0.1,0.1-0.2,0.1-0.3c0-0.1-0.1-0.2-0.3-0.3c-0.2-0.1-0.3-0.2-0.3-0.3c0.4-1.3,0.6-2.2,0.7-2.5
		c0.1-0.2,0.1-0.4,0.2-0.7c0-0.1,0-0.2-0.1-0.2c0,0-0.1-0.1-0.1-0.1c0,0-0.1,0-0.1,0l0,0c-0.8,0.3-3.1,1.4-6.8,3.2
		c-0.7,0.3-1.3,0.7-1.9,1.2c-0.4,0.1-0.7,0.4-0.9,0.6c-0.2,0.3-0.4,0.6-0.6,0.9c-0.8,1.4-1.5,2.7-2.3,3.9c-0.3,0.5-0.6,1.1-0.8,1.7
		c-0.4,1-1,2.3-1.9,4.1c-0.5,1-1,2-1.4,3c-0.3,0.6-0.5,1.2-0.9,1.9c-0.4,0.9-0.8,1.7-1.2,2.6c-0.7,1.7-2.4,5.3-5.1,10.9l-0.6,1.1
		c-0.1,0.2-0.2,0.3-0.3,0.5c-0.7,1.1-1.4,1.7-2.1,1.7c-0.2,0-0.5-0.1-0.8-0.2l-0.3-0.5h0.3l0.1-0.1c0,0-0.1,0-0.1,0c0,0-0.1,0-0.2,0
		c-0.1,0-0.1,0.1-0.1,0.1l0,0.1c-0.5-0.1-0.9-0.2-1-0.2c-0.5,0-0.8-0.1-1.1-0.3c-0.2-0.2-0.4-0.5-0.5-0.9H9.8l0.1,0
		c-0.1,0-0.2-0.1-0.3-0.1c-0.1,0-0.3-0.1-0.4-0.2c-0.5-0.3-0.8-0.6-0.9-0.9c-0.1-0.3-0.3-0.5-0.6-0.5S7.2,80.3,7.1,80
		C7,79.8,7,79.6,7,79.5c0-0.5,0.4-1,1.2-1.7c0.2-0.1,0.3-0.3,0.5-0.5C8.8,77.2,9,77,9.1,76.9c0.2-0.1,0.3-0.2,0.5-0.4
		c0.1-0.2,0.3-0.4,0.5-0.5c0.3-0.2,0.6-0.6,0.9-1c0.1-0.2,0.3-0.4,0.5-0.6c0.2-0.2,0.4-0.4,0.6-0.7c0.2-0.3,0.4-0.5,0.6-0.7
		c0.3-0.2,0.7-0.7,1.1-1.4c2.1-2.8,3.4-4.6,4-5.6c0.7-1.2,1.4-2.5,2.1-3.7c1.5-3,2.7-5.1,3.5-6.3c0.2-0.3,0.3-0.6,0.3-0.7
		c-0.1-0.1-0.1-0.1-0.1-0.1c-0.4,0.1-0.6,0.2-0.7,0.2c-0.2,0.1-0.4,0.1-0.7,0.1c-0.2,0-0.3,0-0.4-0.1c0,0-0.1,0-0.2,0.1
		c0,0-0.1-0.1-0.1-0.1c-0.5-0.4-0.9-0.6-1.5-0.8c-0.1-0.4-0.2-0.6-0.2-0.8c0-0.2,0-0.4,0.1-0.6c-0.2-0.7-0.3-1.1-0.3-1.3
		c0-0.1,0.1-0.4,0.3-0.9c0,0-0.1-0.1-0.2-0.2c-0.1-0.1-0.1-0.2-0.3-0.4c-0.1-0.2-0.2-0.3-0.2-0.6c0-0.6,0.5-1.1,1.6-1.5
		c0.6-0.3,1.1-0.6,1.2-0.7c0.1-0.2,0.3-0.3,0.4-0.4c-0.2-0.2-0.2-0.4-0.2-0.5l0-0.2c1-0.5,1.7-0.8,2.2-1c0.2,0,0.3-0.1,0.4-0.3
		c0.2-0.3,0.5-0.4,0.8-0.4c0.4,0,0.7-0.2,1-0.4c0.2-0.1,0.4-0.2,0.6-0.3c0.5-0.1,1-0.3,1.5-0.5c0.5-0.2,0.9-0.4,1.4-0.6
		c0.6-0.1,1-0.4,1.3-0.9c2-3.4,3.2-5.2,3.4-5.5c0.2-0.3,0.4-0.6,0.6-1c0.2-0.3,0.3-0.6,0.5-0.8c0.2-0.2,0.3-0.4,0.4-0.6
		c0.2-0.4,0.4-0.7,0.7-1c0.1-0.2,0.3-0.3,0.4-0.5c0.1-0.4,1.6-2.6,4.5-6.7c0.2-0.2,0.3-0.4,0.5-0.7c0.3-0.5,0.7-1.1,1.1-1.5
		c0.2-0.2,0.3-0.4,0.3-0.6l0.5-1.1c0.1-0.2,0.3-0.3,0.4-0.4c0.2,0,0.3-0.2,0.3-0.3c0.1-0.2,0.2-0.3,0.3-0.4c0.1-0.1,0.2-0.3,0.3-0.5
		c0.1-0.2,0.1-0.4,0.2-0.4c0.2-0.1,0.3-0.2,0.3-0.4c0.1-0.2,0.1-0.3,0.2-0.3c0.3-0.1,0.5-0.3,0.5-0.5c0.5-0.8,0.8-1.2,0.9-1.3
		c0.3-0.2,0.4-0.5,0.5-0.8c0.1-0.3,0.3-0.5,0.7-0.6c0.1,0,0.2-0.1,0.2-0.2c0,0,0-0.1,0-0.1c0,0,0-0.1,0-0.2c0-0.2,0.1-0.4,0.4-0.7
		c0.9-1.2,1.9-2.4,3.1-3.7c0.2-0.2,0.4-0.4,0.5-0.6c0.4-0.5,1.2-1.4,2.5-2.6c0.6-0.7,1.2-1.2,1.7-1.5c0.3-0.2,0.5-0.3,0.8-0.3
		c0.4,0,0.6,0.1,0.7,0.3c0.1,0.1,0.2,0.3,0.3,0.4c0.1,0.1,0.1,0.3,0.2,0.4c0.6,0.6,0.9,1.3,0.9,2.1c0.3,1.2,0.4,2.4,0.4,3.6
		c0,0.5,0,1.1-0.1,1.6c0,0.3,0,0.6,0,0.7c0,0.2,0,0.4,0,0.6c0,0.4-0.1,0.8-0.2,1.2c-0.3,1.2-0.8,2.4-1.4,3.6
		c-0.8,1.5-1.4,2.9-1.8,4.2c-0.5,1.4-1.1,2.7-1.6,4c-0.4,0.8-0.7,1.5-1,2.4c-0.5,1.3-1,2.6-1.7,3.9c-0.4,0.9-0.8,1.8-1.1,2.8
		c-0.3,0.8-0.6,1.6-0.9,2.4c-0.2,0.3-0.6,1.4-1.4,3.4l-0.2,0.7c0,0.1-0.1,0.3-0.2,0.6c-0.5,1-0.9,1.9-1.1,2.8
		c-0.6,2.2-1.4,4.6-2.3,7.3c-0.3,1-0.6,2.1-0.8,3.2c-0.2,1.1-0.7,3-1.5,5.8c-0.8,2.9-1.5,5.7-2,8.7c-0.1,0.5-0.2,1-0.3,1.5
		c-0.4,1.8-0.7,3.6-0.7,5.4c-0.1,1.5-0.3,3.1-0.6,4.6c-0.1,0.1-0.3,0.3-0.5,0.4c-0.2,0.1-0.4,0.3-0.6,0.4c0,0.1-0.1,0.1-0.2,0.1
		c-0.4,0-0.8,0.1-1.2,0.4l-0.1,0H37.1z M21,47.6c0,0,0-0.1-0.1-0.1l0,0.1H21L21,47.6z M20.9,47.6L20.9,47.6L20.9,47.6L20.9,47.6
		L20.9,47.6z M21.8,55.5l-0.3,0L21.8,55.5L21.8,55.5z M39.2,40.4c0.4-0.1,0.8-0.2,1.3-0.3c0.6-0.2,1.4-0.4,2.2-0.5l0.5-0.1
		c0.5-1.2,0.9-2.2,1.1-2.8c0.2-0.3,0.4-0.7,0.5-1.1c0.2-0.5,0.4-1,0.6-1.2c0.2-0.3,0.6-1.2,1.2-2.9l0.3-0.7c0.2-0.4,0.4-0.8,0.5-1.3
		l0.7-1.5c0.1-0.3,0.2-0.6,0.4-0.9c0.2-0.3,0.5-0.9,0.8-1.7l1.1-2.2c0.1-0.2,0.2-0.3,0.3-0.5c0.5-1.2,1-2.2,1.4-2.8
		c0,0,0.1-0.1,0.1-0.2c0.3-1,0.5-1.6,0.8-1.9c0.2-0.4,0.4-0.8,0.6-1.3c0.2-0.8,0.6-1.5,1.1-2.1c0-0.1,0.1-0.1,0.1-0.2S55,14,55,14
		l0.3-0.9L55,12.6c0,0,0.1,0.1,0.1,0.1c0.1,0,0.1,0.1,0.2,0.1c0.1,0,0.1-0.1,0.1-0.2c0,0,0,0-0.1,0l-0.2,0.1c0,0-0.1,0-0.1,0
		c0,0.2-0.7,1.2-2.2,2.8c-2.6,3-4,4.7-4.2,5.3c-0.5,0.4-0.9,0.8-1.1,1.4l0.1,0.1c0.2-0.1,0.3-0.2,0.4-0.4c0.1-0.2,0.2-0.3,0.3-0.4
		c0.1-0.1,0.2-0.2,0.3-0.4c0.1-0.1,0.1-0.2,0.1-0.3c0.2-0.1,0.4-0.2,0.6-0.4c0.2-0.2,0.4-0.3,0.6-0.3l0,0l-1.1,1.6
		c-0.7,1.3-1.6,2.5-2.5,3.6c-0.2,0.3-0.4,0.5-0.5,0.8s-0.7,1-1.5,2.2c-0.2,0.5-0.5,1.1-0.8,1.6l-6,9.9c-0.1,0.3-0.3,0.6-0.4,0.9
		l0.1,0.1h0h0.1C38.2,40.7,38.8,40.5,39.2,40.4z M38.9,33.4L38.9,33.4L38.9,33.4L38.9,33.4L38.9,33.4L38.9,33.4z M40.5,46.3
		c0-0.1-0.1-0.2-0.2-0.2c-0.3,0.1-0.4,0.2-0.4,0.3c0,0,0.1,0.1,0.2,0.1C40.4,46.5,40.5,46.4,40.5,46.3z M40.7,40.9
		c0.7-0.2,1.2-0.4,1.4-0.6c0,0,0.1,0,0.1,0c0,0,0,0,0,0c0,0,0,0,0,0c0,0-0.1,0-0.2,0c-0.2,0.1-0.4,0.1-0.6,0.1h-0.5
		c-0.3,0-0.5,0.2-0.7,0.5c0,0,0,0.1-0.1,0.1c0,0,0,0,0,0.1h-0.1l0,0l0.1,0c0,0,0,0,0.1,0.1C40.4,41,40.5,41,40.7,40.9z M40.4,49.6
		L40.4,49.6l-0.2,0l0.1,0.1L40.4,49.6z M40.9,48.1L40.9,48.1c-0.1,0-0.1,0-0.1,0c0,0,0,0,0,0.1c0,0,0,0.1,0.1,0.1h0L40.9,48.1z
		 M42.2,29.4c0,0,0-0.1,0-0.1h-0.1c-0.2,0.1-0.3,0.2-0.3,0.4v0.1l-0.1,0v-0.1l0,0.1C41.9,29.7,42,29.5,42.2,29.4z M43.6,27l0-0.1
		l0.1,0C43.7,27,43.6,27,43.6,27L43.6,27C43.6,27,43.6,27,43.6,27L43.6,27L43.6,27z M44.9,25.5L44.9,25.5L44.9,25.5L44.9,25.5z
		 M45.6,24.7c0,0,0.1,0,0.1-0.1c0-0.1,0-0.1-0.1-0.1l-0.2,0.2l0.1,0.1h0C45.5,24.7,45.6,24.7,45.6,24.7z M46.1,23.7
		c0.1,0,0.1,0,0.2,0c0,0,0.1,0,0.1,0l0.1,0h0.1l0.1-0.4c0.3-0.1,0.4-0.3,0.4-0.4c0,0,0-0.1-0.1-0.1c-0.1,0-0.2,0-0.3,0.1
		c0,0.1,0,0.2,0,0.3c0,0.1,0,0.2,0,0.3S46.5,23.6,46.1,23.7L46.1,23.7L46.1,23.7z M49.8,19.9L49.8,19.9L49.8,19.9l0.1,0.1
		C49.8,20,49.8,20,49.8,19.9z M52.3,12.3L52.3,12.3l-0.1,0L52.3,12.3C52.3,12.3,52.4,12.3,52.3,12.3L52.3,12.3L52.3,12.3z M54,10.8
		C54,10.8,54,10.8,54,10.8l0-0.1h-0.1v0.1C53.8,10.9,53.9,10.9,54,10.8C53.9,10.9,53.9,10.9,54,10.8z M54.5,10.2l-0.1,0L54.5,10.2
		L54.5,10.2z"/>
</g>
<g>
	<path d="M32.4,121.6c-0.2-0.1-0.3-0.5-0.4-1c-0.1-0.3-0.4-0.6-1-0.8l-0.4-0.2c-0.2-0.2-0.5-0.5-0.7-0.7c-0.7-0.6-1.1-1.1-1.1-1.4
		c0-0.6,0.7-1.2,2.1-1.6c0.1,0,0.3-0.1,0.4-0.2c0.5-0.3,1-0.5,1.5-0.5c0,0,0-0.1,0-0.2c0-0.1,0.1-0.2,0.1-0.2c0,0,0.1-0.1,0.1-0.1
		c0,0,0,0-0.1,0l-0.1,0.1c0,0.1,0,0.2,0.1,0.3c0,0,0,0.1-0.1,0.1c-0.5-0.2-0.8-0.4-0.8-0.5c0-0.1,0.3-0.5,1-1.1c0,0,0.1-0.1,0.2-0.1
		c0.1,0.1,0.2,0.1,0.3,0.1c0.1,0,0.1,0,0.1-0.1c0,0,0-0.1-0.1-0.2c-0.1-0.1-0.2-0.3-0.2-0.4c0-0.1,0.2-0.3,0.5-0.6
		c0.2-0.2,0.4-0.4,0.4-0.6c0.2-0.6,0.5-1.2,0.9-1.7c0.6-0.9,1.3-2.1,2.1-3.8c0.4-0.9,0.8-1.5,1.1-1.9c0.1-0.2,0.2-0.3,0.3-0.5
		c0.1-0.2,0.1-0.3,0.2-0.4c2.1-3.8,3.4-6.1,3.8-7c0.1-0.3,0.3-0.6,0.4-0.8c0.4-0.6,0.7-1.2,1-1.8c0.2-0.4,0.4-0.8,0.6-1.2
		c0.2-0.4,0.4-0.8,0.6-1.2c0.3-0.6,0.6-1.2,1-1.8c0.4-0.6,0.7-1.2,1-1.9c0.4-0.8,0.9-1.6,1.4-2.4c0.2-0.3,0.3-0.6,0.4-0.8
		c0.1-0.3,0.2-0.5,0.4-0.7c0.1-0.2,0.3-0.5,0.4-0.7c0.3-0.5,0.6-1,0.9-1.5c0.1-0.3,0.3-0.7,0.6-1.2c0.2-0.4,0.4-0.8,0.7-1.2
		c0.2-0.4,0.5-0.8,0.7-1.3c0.3-0.6,0.7-1.3,1.2-2.2c0.1-0.3,0.3-0.5,0.4-0.7c0.2-0.2,0.4-0.5,0.4-0.8c0.2-0.3,0.4-0.6,0.5-1
		c0.1-0.5,0.3-0.7,0.5-0.7c0.5-0.1,0.7-0.5,0.7-1c0.1-0.7,0.3-1.1,0.6-1.3c0.2-0.1,0.3-0.2,0.3-0.3c0-0.2,0.1-0.5,0.4-0.9
		c0.1-0.1,0.2-0.2,0.3-0.4c0-0.2,0.1-0.3,0.4-0.4c0.2-0.1,0.4-0.2,0.4-0.2c0-0.1,0-0.3-0.1-0.4c-0.1-0.1-0.1-0.2-0.1-0.3
		c0-0.3,0.2-0.5,0.5-0.6c0.3-0.1,0.5-0.4,0.5-0.7c0-0.3,0.2-0.5,0.5-0.7c0.3-0.2,0.5-0.5,0.5-0.8c0-0.3,0.2-0.6,0.4-0.8
		c0.3-0.3,0.5-0.7,0.6-1c0-0.1,0.1-0.2,0.2-0.3c0.2-0.1,0.2-0.3,0.2-0.4c0-0.3,0.1-0.6,0.2-0.7c0.1-0.2,0.2-0.4,0.3-0.6
		c0.1-0.4,0.3-0.7,0.5-0.8c1.8-3.2,3.2-5.7,4.2-7.3c0.5-0.8,0.8-1.6,1-2.5c0-0.1,0.1-0.2,0.2-0.2c0.4,0,0.5-0.4,0.5-1.2
		c0-0.2,0.1-0.4,0.2-0.4c0.1,0,0.1,0,0.2,0.1c0.1,0,0.2-0.1,0.2-0.2c0-0.1,0-0.2,0.1-0.3c0.1-0.2,0.1-0.4,0.1-0.7
		c0-0.4,0.1-0.7,0.3-1c0.2-0.3,0.4-0.6,0.5-0.9c0.2-0.4,0.5-0.8,0.9-1.1c0,0,0.1,0,0.1,0.1l-0.1,0l0-0.1c0-0.4,0.6-1.6,1.9-3.6
		c0.2-0.4,0.4-0.7,0.6-1.1c0.2-0.3,0.4-0.6,0.8-0.7c0,0,0.1,0,0.2-0.1c0.1,0,0.2-0.1,0.3-0.1c0.2,0,0.3,0.1,0.3,0.3
		c0,0.4,0.1,0.6,0.2,0.7c0.1,0.1,0.3,0.2,0.4,0.3c0.5,0.2,0.8,0.6,0.8,1c0,0.2-0.1,0.7-0.2,1.5c0,0.3,0.1,0.6,0.2,0.8
		s0.2,0.5,0.2,0.7c0,0.2,0,0.4-0.1,0.6c-0.1,0.2-0.1,0.7-0.2,1.3c-0.1,0.8-0.2,1.3-0.4,1.7l0,0.4c0,0.4-0.1,0.7-0.3,1
		c-0.2,1.1-0.3,1.7-0.3,1.9c0,0.8-0.2,1.6-0.6,2.4c-0.3,0.8-0.6,1.6-0.8,2.5c0,0.2-0.1,0.5-0.3,0.8c-0.2,0.3-0.3,0.6-0.3,0.9
		c0,0.7-0.2,1.6-0.7,2.9c-0.4,1.5-0.7,2.4-0.7,2.9c0,0.2-0.1,0.5-0.4,0.9c0,0.1,0,0.3,0,0.5c0,0.6-0.1,1.3-0.2,2c0,0.1,0,0.2,0,0.2
		c0,0,0,0.1,0,0.2c0,0.7-0.1,1.4-0.4,2.1c-0.2,1.2-0.4,2-0.6,2.4c-0.2,0.4-0.2,0.8-0.3,1.3c0,0.5,0,0.9-0.1,1.4
		c0.1,0.2,0.1,0.5,0.1,0.7c0,0.1-0.1,0.7-0.3,1.7c-0.1,0.2-0.2,0.5-0.2,0.9c0,0.1,0,0.2,0,0.3c0,0.1,0,0.2,0,0.2
		c0,0.2,0,0.4-0.1,0.5c0,0.2,0,0.3,0,0.4c0.1,0.2,0.1,0.3,0.1,0.5s-0.1,0.3-0.3,0.4c0,0-0.1,0.1-0.1,0.1s-0.1,0.2-0.1,0.2
		c0,0.1-0.1,0.2-0.1,0.4c0.1,0.4,0.2,0.6,0.2,0.6c0,0.1,0,0.2-0.1,0.3c-0.1,0.1-0.1,0.2-0.1,0.4s0.1,0.4,0.2,0.6
		c0,0.2,0,0.3-0.1,0.4s-0.1,0.2-0.1,0.3c0,0.2-0.1,0.4-0.3,0.5c0,0-0.1,0.1-0.1,0.1c0,0.2,0.1,0.3,0.2,0.5c0,0.2,0,0.3-0.1,0.4
		c-0.1,0.2-0.2,0.4-0.2,0.6c0,0.1,0,0.2,0.1,0.4S69,85.8,69,86c0,0.1,0,0.2-0.1,0.3c0,0.1-0.1,0.3-0.1,0.6c0,0.5-0.1,0.9-0.4,1.3
		c0.3,0.2,0.4,0.6,0.4,1c-0.1,1.8-0.2,2.8-0.3,2.9c-0.1,0.1-0.2,0.3-0.2,0.4c0,0.1,0,0.2,0.1,0.3c0.1,0.1,0.1,0.1,0.1,0.2v0.2
		c0,0.2,0,0.3,0,0.4c0,0.1,0,0.2,0,0.3c0,0.2,0,0.4-0.1,0.5c0,0,0,0.1-0.1,0.1c0,0,0,0.1,0,0.1c0.1,0.2,0.1,0.3,0.1,0.5
		c0,0.2-0.1,0.4-0.3,0.8c0,0.1-0.2,0.2-0.3,0.3H68l0,0.1l0-0.1c0.3,0.2,0.4,0.4,0.4,0.8c0,0.2-0.1,0.5-0.1,0.7c0,0.2,0,0.4,0,0.5
		c0,0.2,0,0.3,0,0.4c0,0.3,0,0.5-0.1,0.7v0.2c0,0,0.1,0.1,0.2,0.1c0.1,0,0.1,0.1,0.1,0.2l-0.1,0.4c-0.2,0.4-0.3,0.6-0.3,0.8
		c0,0.3,0.1,0.4,0.1,0.4s0.1,0,0.1,0l0.2-0.1c0.6-1.2,0.9-2.3,0.9-3.3c0-0.2-0.1-0.4-0.2-0.5c0,0,0-0.1,0-0.1c0,0,0-0.1,0-0.1
		c0,0,0-0.1,0.1-0.1c0.2-0.1,0.3-0.2,0.3-0.4c0-0.1,0-0.2-0.1-0.3c0-0.6,0.2-1.2,0.5-1.8c0.1-0.2,0.2-0.3,0.2-0.5
		c0-0.5,0.4-1.7,1.2-3.6c0.1-0.5,0.3-0.8,0.4-0.9c0.3-0.5,0.5-1,0.6-1.5l1-2.5c0-0.4,0.3-1,0.8-1.9c0.1-0.2,0.2-0.4,0.2-0.6
		c0-0.2,0.1-0.3,0.1-0.5c0.1-0.3,0.2-0.5,0.2-0.6c0-0.2,0.1-0.3,0.2-0.4c0.1-0.1,0.2-0.3,0.3-0.5c0.1-0.8,0.2-1.3,0.4-1.6
		c0.3-0.5,0.5-1,0.7-1.5c0.3-1,0.7-1.8,1-2.3c0.1-0.1,0.1-0.2,0.2-0.4c0.2-0.6,0.5-1.3,0.9-2c0.1-0.2,0.2-0.4,0.3-0.4
		c0.1-0.1,0.1-0.2,0.1-0.4c0-0.2,0.1-0.5,0.4-1s0.5-1,0.7-1.5c0.2-0.5,0.5-0.9,1-1.2l0,0c-0.1-0.1-0.1-0.3-0.1-0.4
		c0-0.2,0.1-0.4,0.3-0.5c0.2-0.1,0.3-0.3,0.4-0.5c0.1-0.2,0.2-0.4,0.4-0.5c0.1,0,0.1-0.1,0.2-0.2c0.1-0.6,0.3-1,0.4-1.1
		c0.1-0.4,0.2-0.7,0.4-1c0.2-0.3,0.3-0.6,0.4-0.9c0-0.2,0.2-0.4,0.5-0.6c0.1-0.1,0.1-0.1,0.1-0.2c0-0.1-0.1-0.1-0.1-0.1
		c0,0-0.1-0.1-0.1-0.1c0-0.1,0-0.1,0.1-0.2c0.2-0.1,0.3-0.2,0.3-0.4c0-0.1,0-0.2-0.1-0.3c0.1-0.3,0.2-0.6,0.3-0.9
		c0.1-0.3,0.3-0.5,0.6-0.5c0.4,0,0.7-0.1,0.9-0.2l-0.1,0l0.1,0c-0.2-0.1-0.4-0.2-0.6-0.2c-0.1,0-0.2-0.1-0.2-0.2
		c1.2-2.6,2.1-4.4,2.6-5.3c0.2-0.5,0.4-0.9,0.7-1.3c0.3-0.4,0.5-0.9,0.7-1.3c0.4-0.7,0.8-1.4,1.2-2.1c0.4-0.8,1.1-1.9,2-3.4l2.6-4.1
		c0.3-0.3,0.5-0.6,0.8-0.9c0.2-0.3,0.5-0.4,0.8-0.4c0.4,0,0.7,0.1,0.9,0.4s0.3,0.6,0.4,0.9c0.1,0.2,0.2,0.3,0.4,0.4
		c0.5,0.2,0.7,0.5,0.9,1c0,0,0,0,0,0c0.2,0.5,0.4,1,0.8,1.5c0.1,0.1,0.1,0.2,0.1,0.4c0,0.1,0,0.2,0,0.3c0,0.1,0,0.2,0,0.4v0.3
		c0,0.2,0,0.4,0,0.5c0,0.1,0,0.2,0,0.3c-0.1,0.7-0.2,1.3-0.3,1.6s-0.2,0.7-0.2,1.2c0,0.4-0.1,0.8-0.3,1.2c-0.1,0.2-0.1,0.5-0.2,0.7
		c-0.1,0.8-0.3,1.4-0.5,1.9h0l0,0.1c0,0.6-0.2,1.1-0.4,1.7c-0.4,1-0.7,2.2-0.9,3.5c0,0.1,0,0.2-0.1,0.3c0,0.1-0.1,0.2-0.1,0.4l0,0.4
		c0,0.4-0.1,0.7-0.2,1c-0.1,0.1-0.2,0.5-0.2,1.1c0,0.7-0.2,1.5-0.4,2.1c-0.4,1.2-0.8,2.8-1.2,4.7c-0.1,0.3-0.1,0.5-0.1,0.7l0,0.4
		c0,0.2,0,0.3,0,0.3c-0.2,0.2-0.3,0.6-0.3,1.1c0,0.1,0,0.2,0,0.2c0,0.3-0.1,1-0.4,2.3c0,0.2-0.1,0.4-0.1,0.6l0,0.6l-0.2,0.4l0.1,0.4
		c-0.1,0.1-0.2,0.3-0.4,0.5c-0.1,0.2-0.1,0.3-0.1,0.5c0,0.1,0,0.1,0.1,0.2c0.1,0.1,0.1,0.1,0.1,0.2c0,0.1,0,0.2-0.1,0.2
		c-0.1,0.1-0.1,0.1-0.1,0.2c0,0.1-0.1,0.2-0.1,0.2c-0.1,0.2-0.2,0.3-0.2,0.5c0,0.1,0,0.3,0.1,0.4c0.1,0.1,0.1,0.3,0.1,0.5
		c0,0.2-0.1,0.5-0.2,1.1c-0.1,0.5-0.2,0.9-0.2,1.4c0,0.3-0.1,0.6-0.2,0.9c-0.1,0.3-0.2,0.6-0.2,1.1c0,0.2-0.2,0.7-0.5,1.4
		c0.1,0.3,0.2,0.5,0.2,0.9l0,0.4c-0.1,0.2-0.1,0.5-0.1,0.7c0,0.4,0,0.7-0.1,0.9c-0.2,0.6-0.3,1.3-0.3,2c0,0.5-0.1,1.1-0.2,1.6
		c-0.1,1.1-0.3,1.8-0.3,2c-0.1,0.3-0.1,0.6-0.1,0.9c0,0.3-0.1,0.6-0.2,0.9c0,0.1-0.1,0.3-0.1,0.5c0,0.1,0,0.3,0,0.5
		c0,0.3-0.1,0.7-0.3,1c0,0-0.1,0.1-0.1,0.2c0,0.1,0,0.1,0.1,0.2c0.1,0.2,0.1,0.3,0.1,0.4c0,0.1,0,0.1,0,0.2c0,0.1,0,0.1,0,0.1
		c-0.1,0.1-0.1,0.3-0.1,0.6c0,0.2-0.1,0.5-0.3,0.7s-0.4,0.4-0.6,0.6l0.6-0.1c0,0,0.1,0,0.1,0.1s0.1,0.1,0.1,0.1
		c-0.3,0.7-0.4,1.1-0.4,1.2c0,0.1,0,0.2,0.1,0.3c0.1,0.1,0.1,0.2,0.1,0.4c0,0.2-0.1,0.4-0.2,0.7c-0.1,0.3-0.2,0.6-0.2,0.9
		c0,0,0,0.2,0,0.4c0,0.1-0.1,0.2-0.1,0.2c0,0.1-0.1,0.2-0.1,0.3c0.1,0.5,0.2,0.9,0.2,1.4c0,0.2,0,0.4,0,0.6c0,0.2,0,0.4,0,0.6
		c-0.2,6.3-0.6,9.7-1.2,10.4c-0.3,0.3-0.4,0.6-0.5,0.9c-0.1,0.2-0.2,0.4-0.4,0.5l0,0.1l-0.5,0.4c-0.3,0.2-0.6,0.4-1,0.4
		c-0.4,0-0.6-0.2-0.6-0.5c-0.1-0.8-0.5-1.2-1.4-1.2c-0.5-0.1-0.8-0.4-0.8-0.7c0-0.4-0.2-0.7-0.6-0.9c0,0-0.1,0.1-0.1,0.2
		c-0.1,0.1-0.1,0.1-0.2,0.2c-0.1,0.1-0.1,0.1-0.2,0.1c-0.1,0-0.3-0.1-0.5-0.4l-0.1-0.1c-0.1-1.1-0.2-1.8-0.4-2.3c0-0.1,0-0.3,0-0.5
		c0-0.2,0.1-0.4,0.1-0.5l-0.1-0.6c0-0.3,0.1-0.6,0.2-0.9c0-0.1,0.1-0.3,0.1-0.5c0-0.3-0.1-0.6-0.1-0.9c0-0.8,0-1.4,0.1-1.8
		c0.1-0.6,0.1-1.3,0.1-2.1c0.1-2.6,0.2-4.3,0.5-5.1c0-0.2,0-0.4-0.1-0.6c0-1.1,0.2-3.1,0.7-6l0.6-4.1c0.2-1.1,0.4-2.1,0.5-3.2
		c0.1-0.8,0.3-1.6,0.5-2.4c0.1-0.4,0.2-0.9,0.2-1.3c0.2-1.3,0.3-2,0.3-2.2c0.1-0.3,0.2-0.6,0.2-0.9c0.3-1,0.7-2.6,1-4.8
		c0.1-0.5,0.2-1,0.4-1.6c0-0.2,0-0.3-0.1-0.4c0-0.1-0.1-0.2-0.1-0.3c0-0.3,0.1-0.5,0.3-0.7c0.2-0.2,0.3-0.5,0.3-0.8
		c0-0.3,0.1-0.8,0.2-1.3c0-0.4,0.1-0.6,0.1-0.7c0.3-0.5,0.5-1.2,0.6-2.1c0.2-0.8,0.3-1.6,0.3-2.2l-0.1,0l-0.1,0
		c-1.2,2.1-2.7,5.2-4.4,9.4c-0.4,1.2-0.7,2.1-0.9,2.7c-0.5,1.1-0.7,1.8-0.8,2c-0.1,0.2-0.1,0.4-0.2,0.6c-0.2,0.4-0.4,0.8-0.6,1.3
		c-0.1,0.2-0.2,0.5-0.3,0.7c-0.4,1-0.8,1.9-1,3c-0.2,0.7-0.9,2.7-2.1,6c-0.3,0.8-0.5,1.3-0.6,1.6c-0.4,1-0.6,1.7-0.6,2.1
		c0,0.1,0,0.2,0.1,0.3c0,0.1,0,0.1,0,0.1c-0.4,0.4-0.6,0.8-0.6,1.2l0,0.3c0,0.3,0,0.6-0.1,0.7c0,0.2-0.1,0.4-0.1,0.8
		c-0.3,0.6-0.5,1.1-0.8,1.4c0,1.3-0.2,2.5-0.6,3.5l-0.3,0.7c-0.1,0.1-0.2,0.1-0.4,0.1l-0.2-0.1h0.6c-0.3,1.5-0.7,2.7-1.1,3.7
		l-0.2,0.5c-0.3,1.2-0.5,2.1-0.6,2.6l-0.2-0.5c0,0-0.1-0.1-0.2-0.1c-0.2,0-0.2,0.1-0.2,0.2c-0.2,0.3-0.5,1.3-0.9,3
		c-0.3,1.3-0.7,2.5-1,3.7c-0.1,0.3-0.3,0.5-0.6,0.6c-0.3,0.1-0.7,0.2-1,0.4c-0.2,0-0.3,0.1-0.5,0.1c-0.3,0-0.5-0.1-0.7-0.2
		c-0.1-0.1-0.2-0.4-0.2-0.8c0-0.3-0.2-0.5-0.4-0.6c-0.2-0.1-0.5-0.2-0.7-0.4l-0.2-0.1c-0.8-1.2-1.2-1.9-1.3-1.9
		c-0.3,0-0.5-0.1-0.5-0.2c0-0.2-0.1-0.5-0.3-0.9l-0.1-0.5c0-0.4-0.1-0.8-0.2-1.1c-0.1-0.4-0.2-0.6-0.2-0.7s0-0.3,0.1-0.4
		c0.1-0.2,0.1-0.3,0.1-0.5s-0.1-0.3-0.2-0.5c-0.2-0.3-0.4-0.7-0.5-1.1c-0.1-0.3-0.2-0.5-0.3-0.8c0-0.1,0-0.2,0-0.3
		c0-0.1,0.1-0.2,0.1-0.3c0.1-0.2,0.2-0.3,0.2-0.5c0-0.1-0.1-0.3-0.2-0.5c-0.2-0.3-0.2-0.6-0.2-1.1c0-0.5,0-1,0-1.7
		c0-0.1-0.1-0.2-0.1-0.3c-0.1-0.3-0.2-0.5-0.2-0.8c0-0.1,0-0.3,0.1-0.4c0-0.2,0.1-0.4,0.1-0.6c0-0.3,0-0.5-0.1-0.8
		c0-0.3-0.1-0.5-0.1-0.8c0-0.5,0.1-1.1,0.2-1.6c0-0.1,0.1-0.3,0.1-0.4c0-0.1,0-0.2-0.1-0.3c-0.1-0.1-0.1-0.2-0.1-0.4
		c0-0.2,0.1-0.5,0.1-0.9l0-0.4c0-0.2,0-0.5,0.1-0.7c0-0.1,0.1-0.3,0.1-0.4c0-0.3,0-0.7,0-1c0-0.5,0.1-1.3,0.2-2.4l0.2-2
		c0-0.3,0.1-0.5,0.2-0.7c0.1-0.2,0.2-0.4,0.2-0.6c0-0.1,0-0.3-0.1-0.4c0-0.1-0.1-0.3-0.1-0.5c0-0.2,0-0.5,0.1-0.7
		c0.3-1,0.5-1.9,0.5-2.9c0-0.5,0.1-1.1,0.2-1.6c0-0.3,0.1-0.7,0.1-1.2c0-0.3,0-0.6,0.1-0.8c0-0.1,0.1-0.2,0.1-0.3c0,0,0-0.1,0-0.1
		c0-0.3,0-0.6,0.1-0.9c0,0,0.1-0.5,0.3-1.4c0-0.6,0.1-1.1,0.3-1.5c0-0.1,0.1-0.3,0.1-0.5c0-1.2,0.2-2.4,0.6-3.5
		c0-0.1,0.1-0.2,0.1-0.4c0-0.1,0-0.2,0-0.3c0-0.1,0-0.1,0-0.2c0-0.1,0-0.3,0.1-0.4c0.2-0.4,0.3-0.8,0.4-1.2c0-0.8,0-1.3,0-1.4
		c0-0.4,0.1-0.6,0.4-0.6c0.1,0,0.1-0.2,0.1-0.6c0-0.3,0.1-0.5,0.2-0.8c0.1-0.1,0.1-0.4,0.1-0.6l0-0.5c0,0,0-0.1,0-0.2
		c-0.2,0-0.5,0.2-0.6,0.6c-0.3,0.8-0.7,1.6-1.1,2.3c-0.2,0.4-0.4,0.8-0.5,1.2c-0.3,0.8-0.6,1.4-0.9,1.8c-0.2,0.3-0.4,0.7-0.5,1.1
		c0,0.4-0.2,0.9-0.5,1.5c-0.1,0.2-0.2,0.4-0.2,0.6c-0.1,0.4-0.3,0.7-0.5,1c-0.2,0.8-0.5,1.6-0.9,2.4c-0.5,1-0.8,1.6-0.8,2
		c-0.1,0.6-0.3,1.2-0.7,1.8c-0.1,0.1-0.1,0.2-0.1,0.4c0,0.1,0,0.2,0.1,0.3c0.1,0.1,0.1,0.2,0.1,0.2c-0.1,0.6-0.4,1.2-0.9,1.9
		c-0.1,0.1-0.1,0.3-0.1,0.5c0,0.1,0,0.2,0,0.3c0,0.1,0,0.3-0.1,0.4c-0.2,0.5-0.4,0.9-0.6,1.4c-0.1,0.4-0.3,0.8-0.5,1.2
		c-0.2,0.4-0.3,0.8-0.5,1.3s-0.3,0.9-0.5,1.3c-0.3,0.6-0.6,1.4-1,2.4c-0.4,1-0.7,1.7-1,2.1c-0.2,0.8-0.5,1.6-1,2.4
		c-0.2,0.3-0.3,0.5-0.5,0.8l-0.7,1.3c-1.1,1.9-2.1,3.8-3.1,5.7c-0.7,1.3-1.1,2-1.1,2.2c-0.5,0.7-0.9,1.4-1.2,2.3
		c-0.1,0.1-0.2,0.2-0.2,0.3c-0.3,0.5-0.5,0.7-0.6,0.9c-0.1,0.3-0.3,0.6-0.6,0.9c-0.1,0.1-0.1,0.2-0.1,0.3c-0.5,1.1-1.1,2.2-1.8,3.2
		c-0.6,1-1.1,1.7-1.6,2.2c-0.1,0.2-0.3,0.3-0.3,0.6c-0.1,0.2-0.2,0.4-0.4,0.6c-0.2,0.2-0.5,0.5-0.8,1c-0.8,1.1-1.5,1.6-2,1.7
		c-0.4,0.1-0.8,0.2-1.1,0.4c-0.1,0.1-0.2,0.1-0.3,0.2c-0.1,0-0.2,0.1-0.3,0.1c-0.5,0.2-0.9,0.4-1.3,0.4
		C33.2,121.9,32.8,121.8,32.4,121.6z M35.3,111.3l0-0.1L35.3,111.3c0.1-0.1,0.1-0.1,0.1-0.1l-0.1,0c0,0.1-0.1,0.1-0.2,0.2H35.3
		C35.2,111.3,35.3,111.3,35.3,111.3z M36.1,110.2l-0.1-0.1c0,0-0.1,0-0.1,0c0,0-0.1,0.1-0.1,0.2c0,0,0,0,0,0H36
		C36.1,110.3,36.1,110.2,36.1,110.2z M36.2,109c0.3,0,0.5,0,0.6,0c0.1,0,0.1-0.2,0.2-0.4c0,0,0-0.1,0.1-0.1l0-0.1c0,0-0.1,0-0.1,0.1
		l0,0.1c-0.1,0-0.2,0.1-0.4,0.2c-0.1,0.1-0.2,0.2-0.3,0.2C36.3,109,36.2,109,36.2,109C36.2,109,36.2,109,36.2,109l0.1,0L36.2,109
		L36.2,109z M38.2,106.1l-0.1,0L38.2,106.1L38.2,106.1z M65.9,63.4c0-0.1,0-0.3-0.1-0.5c0,0-0.1,0.1-0.1,0.1c0,0-0.2,0.3-0.5,0.7
		c0,0.2,0.1,0.3,0.2,0.3C65.7,64,65.9,63.8,65.9,63.4z M70.5,95.3l-0.1-0.1c-0.1,0-0.2,0.1-0.2,0.2c0,0,0,0.1,0.1,0.1h0.1L70.5,95.3
		z M71.2,111.4c0,0-0.1,0-0.1-0.1c0,0,0.1,0,0.1-0.1c0,0,0.1,0,0.1,0l0.2,0.1L71.2,111.4C71.2,111.4,71.2,111.4,71.2,111.4z
		 M71.6,108.4C71.6,108.4,71.5,108.4,71.6,108.4L71.6,108.4L71.6,108.4L71.6,108.4C71.6,108.4,71.6,108.4,71.6,108.4L71.6,108.4
		L71.6,108.4z M88,65.3c0-0.1,0-0.1-0.1-0.1c-0.1,0-0.1,0.1-0.2,0.3l0.1,0.1H88C88,65.5,88,65.4,88,65.3z M89.2,98.8
		c0-0.1,0-0.2-0.1-0.2c0,0-0.1,0.1-0.1,0.1C89,98.8,89,98.8,89.2,98.8L89.2,98.8z M89.6,52.7L89.6,52.7L89.6,52.7L89.6,52.7z"/>
	<path d="M100.1,103.1c-0.2-0.2-0.2-0.4-0.2-0.6c0-0.1,0-0.3,0.1-0.4c0.1-0.1,0.1-0.2,0.1-0.3c0-0.1-0.1-0.3-0.2-0.4
		c-0.1-0.2-0.2-0.4-0.2-0.6c0-0.4,0-0.8,0-1.1c0-0.4,0-0.8,0-1.2c0-0.7,0.1-1.2,0.1-1.5c0.1-0.7,0.3-1.4,0.7-2c0,0,0,0,0.1-0.1
		c0,0,0.1-0.1,0.2-0.2c0.1-0.1,0.2-0.1,0.3-0.2c0.6-0.6,1.5-0.9,2.5-0.9c0.9,0,1.6,0.2,2.1,0.7l0,0.4c0,0.3,0.1,0.5,0.4,0.5
		c0,0,0,0,0,0c0,0,0,0,0.1,0.1c0.2,0.2,0.3,0.4,0.3,0.6l-0.1,0.6c0,0.2,0.1,0.6,0.4,1.2l0,0.1c0,0.4-0.1,0.8-0.1,1.2
		c0,0.6-0.1,1.2-0.3,1.6c0,0.1-0.1,0.2-0.1,0.3c-0.2,0.6-0.5,1.1-0.9,1.4c-0.1,0-0.2,0.2-0.2,0.5l0,0.1c0,0.1-0.4,0.5-1.1,1
		c-0.2,0.2-0.8,0.3-1.9,0.3C101.2,104,100.6,103.7,100.1,103.1z"/>
</g>
</svg>
