<svg id="Camada_1" data-name="Camada 1" xmlns="http://www.w3.org/2000/svg" viewBox="0 0 128 68.37"><defs><style>.cls-1{font-size:38.48px;font-family:HelveticaNeue-CondensedBlack, Roboto;letter-spacing:0.08em;}.cls-1,.cls-2{fill:#fff;}</style></defs><title>tuners-logo</title><text class="cls-1" transform="translate(3.87 63.74)">tuners</text><path class="cls-2" d="M123.29,14.24a4,4,0,0,0-3.41-1.45l-11,1v-.12a3.69,3.69,0,0,0,3.06-3.54,7.12,7.12,0,0,0-7.12-7.23H102.7a7.19,7.19,0,0,0-7.19,7.26,3.65,3.65,0,0,0,3.06,3.52v.71L87,15.5v-.17a3.69,3.69,0,0,0,3.06-3.54,7.1,7.1,0,0,0-7.12-7.23H80.85a7.19,7.19,0,0,0-7.19,7.26,3.66,3.66,0,0,0,3.06,3.52v.77L65.15,17.24V17a3.68,3.68,0,0,0,3.06-3.54A7.1,7.1,0,0,0,61.1,6.23H59a7.19,7.19,0,0,0-7.19,7.26A3.67,3.67,0,0,0,54.88,17v.83l-10.39.94a5.52,5.52,0,0,0-1.65.39l-11,4.49a2.42,2.42,0,0,1-.88.17H4.49a1.62,1.62,0,0,0,0,3.23H31a5.61,5.61,0,0,0,2.1-.41l11-4.49a2.25,2.25,0,0,1,.69-.17l11.88-1.07a1.61,1.61,0,0,0,1.46-1.61V15.45a1.62,1.62,0,0,0-1.61-1.62h-1a.39.39,0,0,1-.42-.37,4,4,0,0,1,4-4h1.1a3.86,3.86,0,0,1,2.77,1.16A3.9,3.9,0,0,1,65,13.41a.47.47,0,0,1-.49.42h-1a1.62,1.62,0,0,0-1.61,1.62V19a1.6,1.6,0,0,0,1.77,1.6l14.79-1.44A1.61,1.61,0,0,0,80,17.58v-3.8a1.62,1.62,0,0,0-1.61-1.62h-1a.39.39,0,0,1-.42-.37,4,4,0,0,1,4-4h1.09a3.88,3.88,0,0,1,3.89,4,.46.46,0,0,1-.48.42h-1a1.63,1.63,0,0,0-1.62,1.62v3.5a1.65,1.65,0,0,0,.53,1.2,1.59,1.59,0,0,0,1.24.41l14.8-1.44a1.61,1.61,0,0,0,1.46-1.61V12.11a1.63,1.63,0,0,0-1.62-1.62h-1a.39.39,0,0,1-.41-.37,4,4,0,0,1,4-4h1.09a3.89,3.89,0,0,1,3.89,4,.47.47,0,0,1-.49.42h-1a1.62,1.62,0,0,0-1.61,1.62v3.44a1.61,1.61,0,0,0,.53,1.19,1.68,1.68,0,0,0,1.23.41L120.16,16a.72.72,0,0,1,.62.27.71.71,0,0,1,.14.67L114.45,39a1.6,1.6,0,0,0,.14,1.23,1.58,1.58,0,0,0,1,.77,1.76,1.76,0,0,0,.45.07A1.63,1.63,0,0,0,117.55,40L124,17.85A4,4,0,0,0,123.29,14.24Z"/></svg>