<?xml version="1.0" encoding="utf-8"?>
<!-- Generator: Adobe Illustrator 18.1.1, SVG Export Plug-In . SVG Version: 6.00 Build 0)  -->
<svg version="1.1" id="Layer_1" xmlns="http://www.w3.org/2000/svg" xmlns:xlink="http://www.w3.org/1999/xlink" x="0px" y="0px"
	 viewBox="0 0 960 120" enable-background="new 0 0 960 120" xml:space="preserve">
<g>
	<g>
		<ellipse cx="748.6" cy="44.5" rx="11.5" ry="9.3"/>
		<ellipse cx="884.9" cy="44.5" rx="11.5" ry="9.3"/>
	</g>
	<g>
		<g>
			<path d="M824.5,30H697h-4c-4.3,2,4,7.7,4,7.7c6.5,5.5,79.3,8.9,86.9,8.9l34.7,0.5C818.9,40.8,821,35,824.5,30z"/>
			<path d="M811.4,30H936h3.9c4.2,2-3.9,7.7-3.9,7.7c-6.4,5.5-77.5,8.9-85,8.9l-33.9,0.5C816.9,40.8,814.8,35,811.4,30z"/>
		</g>
		<g>
			<path d="M824.5,33H697h-4c-4.3-1,4-7.2,4-7.2c6.5-4.9,79.3-8.2,86.9-8.2l34.7-0.2C818.9,23.1,821,28,824.5,33z"/>
			<path d="M811.4,33H936h3.9c4.2-1-3.9-7.2-3.9-7.2c-6.4-4.9-77.5-8.2-85-8.2l-33.9-0.2C816.9,23.1,814.8,28,811.4,33z"/>
		</g>
	</g>
</g>
<g>
	<path d="M38.1,71.2C34.4,70,31,68.7,28,67.4c-3-1.3-5.6-2.9-7.8-4.7C18,60.8,16.3,58.6,15,56c-1.2-2.6-1.8-5.7-1.8-9.4
		c0-7.2,2.8-12.9,8.3-17.2C27,25.1,34.7,23,44.7,23c3.6,0,7,0.3,10.1,0.8c3.1,0.5,5.8,1.3,8,2.3c2.2,1.1,4,2.4,5.2,4
		c1.3,1.6,1.9,3.6,1.9,5.8c0,2.2-0.5,4.1-1.5,5.6c-1,1.6-2.2,2.9-3.7,4c-1.9-1.2-4.3-2.2-7.5-3.1c-3.1-0.9-6.5-1.3-10.2-1.3
		c-3.8,0-6.6,0.5-8.3,1.6c-1.8,1.1-2.7,2.4-2.7,4c0,1.3,0.5,2.3,1.6,3.1c1.1,0.8,2.7,1.5,4.9,2.2l6.7,2.1c7.9,2.5,14,5.8,18.3,9.7
		c4.3,3.9,6.4,9.2,6.4,16c0,7.2-2.8,13-8.5,17.4c-5.6,4.4-13.9,6.6-24.9,6.6c-3.9,0-7.5-0.3-10.8-0.9c-3.3-0.6-6.2-1.6-8.7-2.8
		c-2.5-1.2-4.4-2.7-5.8-4.5c-1.4-1.8-2.1-3.9-2.1-6.3c0-2.4,0.7-4.5,2.1-6.3c1.4-1.7,3-3.1,4.7-4c2.4,1.9,5.2,3.5,8.7,4.8
		c3.4,1.3,7.1,2,11.2,2c4.1,0,7-0.6,8.7-1.9c1.7-1.3,2.5-2.7,2.5-4.4c0-1.7-0.7-3-2-3.9c-1.3-0.9-3.2-1.7-5.7-2.6L38.1,71.2z"/>
	<path d="M144.4,90.6c-0.4,4-1.6,7-3.5,9.1c-1.9,2.1-4.7,3.2-8.3,3.2c-2.7,0-5.1-0.7-7.2-2c-2.1-1.3-4.4-3.5-6.8-6.6l-12.5-15.7v23
		c-0.9,0.2-2.3,0.4-4.1,0.7c-1.8,0.3-3.6,0.4-5.5,0.4c-1.9,0-3.5-0.1-5-0.4c-1.5-0.3-2.7-0.8-3.7-1.5c-1-0.8-1.8-1.8-2.3-3.1
		c-0.5-1.3-0.8-3-0.8-5.1V19.4c0.9-0.3,2.3-0.5,4.1-0.8c1.8-0.3,3.6-0.4,5.5-0.4c1.9,0,3.5,0.1,5,0.4c1.5,0.3,2.7,0.8,3.7,1.5
		c1,0.8,1.8,1.8,2.3,3.1c0.5,1.3,0.8,3,0.8,5.1v33.4l21.7-22.2c4.4,0,7.9,1,10.6,2.9c2.7,1.9,4,4.4,4,7.3c0,1.3-0.2,2.4-0.6,3.5
		c-0.4,1.1-1.1,2.1-2,3.2c-0.9,1.1-2,2.3-3.4,3.5c-1.4,1.2-3,2.6-4.9,4.2l-7.3,6.3L144.4,90.6z"/>
	<path d="M180,38.4c4.5,0,8.7,0.5,12.4,1.4c3.7,0.9,7,2.3,9.6,4.2s4.7,4.3,6.1,7.2c1.4,2.9,2.1,6.3,2.1,10.3v28.3
		c0,2.2-0.6,4-1.8,5.4c-1.2,1.4-2.7,2.6-4.4,3.6c-5.5,3.3-13.2,4.9-23.1,4.9c-4.5,0-8.5-0.4-12.1-1.3c-3.6-0.8-6.7-2.1-9.2-3.8
		c-2.6-1.7-4.5-3.8-5.9-6.4c-1.4-2.6-2.1-5.6-2.1-9.1c0-5.8,1.7-10.3,5.2-13.4c3.5-3.1,8.8-5.1,16-5.8l16.6-1.8v-0.9
		c0-2.4-1.1-4.2-3.2-5.2c-2.1-1.1-5.2-1.6-9.3-1.6c-3.2,0-6.3,0.3-9.4,1c-3,0.7-5.8,1.5-8.2,2.5c-1.1-0.8-2-1.9-2.8-3.5
		c-0.8-1.6-1.1-3.2-1.1-4.9c0-2.2,0.5-3.9,1.6-5.2c1.1-1.3,2.7-2.4,4.9-3.3c2.4-0.9,5.3-1.6,8.7-2C173.9,38.6,177.1,38.4,180,38.4z
		 M181,88c1.4,0,3-0.1,4.7-0.4c1.7-0.3,3-0.7,3.9-1.2V76.3l-9.1,0.8c-2.4,0.2-4.3,0.7-5.8,1.5c-1.5,0.8-2.3,2.1-2.3,3.8
		c0,1.7,0.7,3.1,2,4.1C175.7,87.5,177.9,88,181,88z"/>
	<path d="M245,80.6c0,2.2,0.7,3.7,2.1,4.7c1.4,0.9,3.3,1.4,5.9,1.4c1.3,0,2.6-0.1,3.9-0.3c1.3-0.2,2.5-0.5,3.5-0.8
		c0.8,0.9,1.4,2,2,3.1c0.5,1.1,0.8,2.5,0.8,4.1c0,3.2-1.2,5.8-3.6,7.8c-2.4,2-6.6,3-12.7,3c-7.4,0-13.1-1.7-17.1-5.1
		c-4-3.4-6-8.8-6-16.4V28c0.9-0.3,2.3-0.5,4-0.8c1.7-0.3,3.6-0.4,5.5-0.4c3.7,0,6.6,0.7,8.7,2c2.1,1.3,3.1,4.1,3.1,8.3v8.1h16.6
		c0.5,0.9,1,2.1,1.5,3.5c0.5,1.4,0.7,2.9,0.7,4.6c0,3-0.7,5.1-2,6.4c-1.3,1.3-3.1,2-5.2,2H245V80.6z"/>
	<path d="M305.7,103.7c-5,0-9.6-0.7-13.8-2.1c-4.3-1.4-8-3.5-11.1-6.3s-5.6-6.3-7.5-10.5c-1.8-4.2-2.7-9.1-2.7-14.8
		c0-5.6,0.9-10.3,2.7-14.3c1.8-4,4.2-7.3,7.1-9.9c2.9-2.6,6.3-4.5,10.1-5.7c3.8-1.2,7.7-1.8,11.6-1.8c4.5,0,8.5,0.7,12.2,2
		c3.7,1.3,6.8,3.2,9.5,5.6c2.7,2.4,4.7,5.2,6.2,8.5c1.5,3.3,2.2,6.9,2.2,10.7c0,2.9-0.8,5.1-2.4,6.6c-1.6,1.5-3.8,2.5-6.7,2.9
		L292,79.3c0.9,2.8,2.8,4.9,5.7,6.3c2.9,1.4,6.1,2.1,9.9,2.1c3.5,0,6.7-0.4,9.8-1.3c3.1-0.9,5.6-1.9,7.5-3.1c1.3,0.8,2.5,2,3.4,3.5
		c0.9,1.5,1.4,3.1,1.4,4.8c0,3.8-1.8,6.6-5.3,8.5c-2.7,1.4-5.7,2.4-9.1,2.9C311.9,103.5,308.7,103.7,305.7,103.7z M302.2,54
		c-2,0-3.8,0.3-5.2,1c-1.5,0.7-2.7,1.5-3.6,2.6c-0.9,1.1-1.6,2.2-2.1,3.5c-0.5,1.3-0.7,2.6-0.8,4l21.6-3.5c-0.3-1.7-1.2-3.4-2.8-5.1
		C307.7,54.9,305.3,54,302.2,54z"/>
	<path d="M342.9,19.4c0.8-0.3,2.2-0.5,4-0.8c1.9-0.3,3.7-0.4,5.7-0.4c1.9,0,3.5,0.1,5,0.4c1.5,0.3,2.7,0.8,3.7,1.5
		c1,0.8,1.8,1.8,2.3,3.1c0.5,1.3,0.8,3,0.8,5.1v12.4c2.1-0.8,4.1-1.4,6-1.8c1.9-0.3,4-0.5,6.3-0.5c4,0,7.9,0.7,11.5,2.1
		c3.6,1.4,6.8,3.5,9.6,6.3c2.8,2.7,5,6.1,6.6,10.2c1.6,4,2.4,8.7,2.4,14c0,5.5-0.8,10.3-2.5,14.3c-1.6,4.1-3.9,7.5-6.9,10.2
		c-2.9,2.7-6.6,4.7-10.8,6.1c-4.3,1.4-9,2.1-14.1,2.1c-5.6,0-10.3-0.7-14.2-2c-3.9-1.3-7.2-2.9-9.9-4.9c-3.7-2.6-5.6-6-5.6-10.1
		V19.4z M372.5,86.8c3.9,0,6.9-1.3,9-4c2.1-2.7,3.2-6.6,3.2-11.8c0-5.3-1.1-9.3-3.3-11.9c-2.2-2.6-5.1-3.9-8.8-3.9
		c-1.7,0-3.1,0.2-4.4,0.5c-1.2,0.3-2.5,0.8-4,1.5v27.5c0.9,0.6,2,1.1,3.3,1.5C368.9,86.6,370.5,86.8,372.5,86.8z"/>
	<path d="M480.8,71c0,5.2-0.8,9.9-2.4,14c-1.6,4.1-3.9,7.5-6.8,10.3c-2.9,2.8-6.4,4.9-10.4,6.3c-4,1.4-8.6,2.1-13.5,2.1
		c-5,0-9.5-0.8-13.5-2.3s-7.5-3.7-10.4-6.5c-2.9-2.8-5.2-6.3-6.8-10.3c-1.6-4-2.4-8.6-2.4-13.6c0-5,0.8-9.5,2.4-13.5
		c1.6-4,3.9-7.5,6.8-10.3c2.9-2.8,6.4-5,10.4-6.5c4-1.5,8.5-2.3,13.5-2.3c5,0,9.5,0.8,13.5,2.3c4,1.6,7.5,3.7,10.4,6.6
		c2.9,2.8,5.2,6.3,6.8,10.3C480,61.6,480.8,66.1,480.8,71z M436.5,71c0,5.1,1,9.1,3,11.8c2,2.7,4.7,4.1,8.3,4.1s6.3-1.4,8.2-4.2
		c1.9-2.8,2.8-6.7,2.8-11.8s-1-9-2.9-11.7c-1.9-2.7-4.7-4.1-8.2-4.1c-3.5,0-6.3,1.4-8.2,4.1C437.5,62,436.5,65.9,436.5,71z"/>
	<path d="M516.8,38.4c4.5,0,8.7,0.5,12.4,1.4c3.7,0.9,7,2.3,9.6,4.2c2.7,1.9,4.7,4.3,6.1,7.2c1.4,2.9,2.1,6.3,2.1,10.3v28.3
		c0,2.2-0.6,4-1.8,5.4c-1.2,1.4-2.7,2.6-4.4,3.6c-5.5,3.3-13.2,4.9-23.1,4.9c-4.5,0-8.5-0.4-12.1-1.3c-3.6-0.8-6.7-2.1-9.2-3.8
		c-2.6-1.7-4.5-3.8-5.9-6.4c-1.4-2.6-2.1-5.6-2.1-9.1c0-5.8,1.7-10.3,5.2-13.4c3.5-3.1,8.8-5.1,16-5.8l16.6-1.8v-0.9
		c0-2.4-1.1-4.2-3.2-5.2c-2.1-1.1-5.2-1.6-9.3-1.6c-3.2,0-6.3,0.3-9.4,1c-3,0.7-5.8,1.5-8.2,2.5c-1.1-0.8-2-1.9-2.8-3.5
		c-0.8-1.6-1.1-3.2-1.1-4.9c0-2.2,0.5-3.9,1.6-5.2c1.1-1.3,2.7-2.4,4.9-3.3c2.4-0.9,5.3-1.6,8.7-2C510.7,38.6,513.8,38.4,516.8,38.4
		z M517.8,88c1.4,0,3-0.1,4.7-0.4c1.7-0.3,3-0.7,3.9-1.2V76.3l-9.1,0.8c-2.4,0.2-4.3,0.7-5.8,1.5c-1.5,0.8-2.3,2.1-2.3,3.8
		c0,1.7,0.7,3.1,2,4.1C512.5,87.5,514.7,88,517.8,88z"/>
	<path d="M581.7,101.6c-0.8,0.3-2.2,0.5-4,0.8c-1.8,0.3-3.7,0.4-5.6,0.4c-1.9,0-3.5-0.1-5-0.4c-1.5-0.3-2.7-0.8-3.7-1.5
		c-1-0.8-1.8-1.8-2.3-3.1c-0.5-1.3-0.8-3-0.8-5.1V54.7c0-1.9,0.4-3.6,1.1-5c0.7-1.4,1.7-2.6,3.1-3.7c1.3-1.1,3-2.1,5-3
		c2-0.9,4.1-1.7,6.4-2.3c2.3-0.7,4.6-1.2,7.1-1.6c2.4-0.4,4.9-0.6,7.3-0.6c4,0,7.2,0.8,9.6,2.3c2.4,1.6,3.5,4.1,3.5,7.6
		c0,1.2-0.2,2.3-0.5,3.5c-0.3,1.1-0.8,2.2-1.3,3.1c-1.8,0-3.6,0.1-5.4,0.3c-1.9,0.2-3.7,0.4-5.4,0.8c-1.8,0.3-3.4,0.7-5,1.1
		c-1.6,0.4-2.9,0.8-4,1.3V101.6z"/>
	<path d="M607.1,71c0-5.6,0.8-10.4,2.5-14.5c1.7-4.1,4-7.5,7-10.2c3-2.7,6.5-4.7,10.5-6c4-1.3,8.3-2,13-2c1.7,0,3.3,0.1,4.9,0.4
		c1.6,0.3,2.9,0.7,3.9,1.1V19.4c0.8-0.3,2.2-0.5,4-0.8c1.9-0.3,3.7-0.4,5.7-0.4c1.9,0,3.5,0.1,5,0.4c1.5,0.3,2.7,0.8,3.7,1.5
		s1.8,1.8,2.3,3.1c0.5,1.3,0.8,3,0.8,5.1v59.9c0,4-1.9,7.1-5.6,9.5c-2.4,1.6-5.6,3-9.5,4.2c-3.9,1.2-8.3,1.8-13.4,1.8
		c-5.5,0-10.4-0.8-14.7-2.3c-4.3-1.5-8-3.7-11-6.6c-3-2.9-5.3-6.3-6.8-10.3C607.9,80.6,607.1,76,607.1,71z M643,55.2
		c-4.5,0-8,1.3-10.5,3.9c-2.4,2.6-3.7,6.6-3.7,11.9c0,5.2,1.1,9.2,3.4,11.8c2.3,2.7,5.6,4,9.9,4c1.5,0,2.9-0.2,4.1-0.7
		c1.2-0.5,2.2-1,2.8-1.6V56.7C647.4,55.7,645.4,55.2,643,55.2z"/>
</g>
<g>
	<path d="M697.5,54.5c0.8,1.2,1.8,2.6,3,4.3c1.2,1.7,2.5,3.5,3.9,5.5c1.4,2,2.8,4,4.3,6.1c1.5,2.1,2.9,4.1,4.3,6s2.6,3.7,3.8,5.3
		c1.1,1.6,2.1,2.9,2.8,3.9c0.4-0.5,1.1-1.5,2.1-3c1-1.4,2.1-3.1,3.5-5c1.3-1.9,2.8-3.9,4.3-6.2s3.1-4.4,4.6-6.5s2.9-4.1,4.2-5.9
		c1.3-1.8,2.4-3.3,3.3-4.5v47.1h-4.5V69.5c0-0.4,0-0.8,0.1-1.2c0-0.4,0.1-0.8,0.1-1.1c-0.7,1-1.6,2.2-2.6,3.6c-1,1.4-2,2.9-3.1,4.5
		c-1.1,1.6-2.2,3.2-3.3,4.9s-2.2,3.3-3.3,4.8c-1.1,1.6-2,3-2.9,4.4c-0.9,1.3-1.7,2.5-2.2,3.3c-0.6-0.8-1.4-1.8-2.4-3.3
		c-1-1.4-2.1-3-3.3-4.7c-1.2-1.7-2.5-3.6-3.8-5.4c-1.3-1.9-2.5-3.6-3.6-5.3s-2.1-3.1-3-4.3c-0.9-1.2-1.4-2.1-1.7-2.6
		c0,0.3,0,0.7,0.1,1.1c0.1,0.4,0.1,0.8,0.1,1.2v32.2h-4.3V54.5z"/>
	<path d="M748.8,89.2c0-1.8,0.3-3.5,1-5.1c0.7-1.6,1.6-3,2.8-4.3c1.2-1.2,2.6-2.2,4.2-2.9c1.6-0.7,3.3-1,5.1-1
		c1.3,0,2.4,0.2,3.5,0.5c1.1,0.3,2.1,0.8,2.9,1.4c0.9,0.6,1.6,1.2,2.2,1.9s1,1.4,1.3,2.1l0.3-5.2h3.2v25.3H772v-2.6
		c0-0.5,0-0.9,0-1.3c0-0.4,0-0.8,0-1.2c-0.3,0.7-0.7,1.4-1.3,2.1c-0.6,0.7-1.3,1.3-2.2,1.8c-0.9,0.5-1.8,1-2.9,1.3
		c-1.1,0.3-2.3,0.5-3.6,0.5c-1.9,0-3.7-0.3-5.3-1c-1.6-0.7-3-1.6-4.2-2.8c-1.2-1.2-2.1-2.6-2.7-4.1
		C749.1,92.6,748.8,90.9,748.8,89.2z M752.3,89c0,1.4,0.3,2.7,0.8,3.9c0.5,1.2,1.2,2.2,2.1,3.1c0.9,0.9,1.9,1.6,3.1,2.1
		c1.2,0.5,2.5,0.8,3.9,0.8c1.4,0,2.7-0.3,3.9-0.8c1.2-0.5,2.2-1.2,3.1-2.1s1.6-1.9,2.1-3.1c0.5-1.2,0.8-2.5,0.8-3.9
		c0-1.3-0.3-2.6-0.8-3.8c-0.5-1.2-1.2-2.2-2.1-3.1c-0.9-0.9-1.9-1.6-3.1-2.1c-1.2-0.5-2.5-0.8-3.9-0.8c-1.4,0-2.7,0.3-3.9,0.8
		c-1.2,0.5-2.2,1.2-3.1,2.1c-0.9,0.9-1.6,1.9-2.1,3.1C752.5,86.3,752.3,87.6,752.3,89z"/>
	<path d="M782.3,89.1c0-1.9,0.3-3.6,1-5.2c0.7-1.6,1.6-3,2.8-4.2c1.2-1.2,2.6-2.1,4.1-2.8c1.6-0.7,3.3-1,5-1c1.4,0,2.7,0.2,3.8,0.6
		c1.1,0.4,2.1,0.9,3,1.4s1.6,1.2,2.2,1.9c0.6,0.7,1,1.3,1.3,2c0-0.8,0-1.7,0.1-2.6c0.1-0.9,0.1-1.8,0.2-2.7h3.2v24.8
		c0,1.8-0.3,3.5-0.8,5c-0.5,1.5-1.4,2.9-2.5,4c-1.1,1.1-2.5,2-4.2,2.6s-3.7,0.9-5.9,0.9c-2.4,0-4.5-0.4-6.3-1.3
		c-1.8-0.9-3.6-2.2-5.5-3.9l2.3-2.4c1.6,1.6,3.2,2.7,4.7,3.3s3,0.9,4.6,0.9c1.8,0,3.3-0.2,4.5-0.7c1.2-0.4,2.3-1.1,3.1-1.8
		c0.8-0.8,1.4-1.7,1.8-2.8s0.6-2.3,0.6-3.7c0-0.3,0-0.6,0-0.9c0-0.3,0-0.7,0.1-1.5c0-0.1,0-0.3,0-0.6c0-0.3,0-0.6,0-0.9
		c0-0.3,0-0.6,0-0.9c0-0.3,0-0.5,0-0.5c-0.8,1.6-2.1,3-3.8,4.2c-1.7,1.2-3.9,1.8-6.5,1.8c-1.9,0-3.6-0.3-5.2-1
		c-1.6-0.7-3-1.6-4.1-2.8s-2.1-2.6-2.7-4.1C782.7,92.7,782.3,91,782.3,89.1z M785.8,89c0,1.4,0.3,2.7,0.8,3.9
		c0.5,1.2,1.2,2.2,2.1,3.1s1.9,1.6,3.1,2.1c1.2,0.5,2.5,0.8,3.9,0.8c1.4,0,2.7-0.3,3.9-0.8c1.2-0.5,2.2-1.2,3.1-2.1s1.6-1.9,2.1-3.1
		c0.5-1.2,0.8-2.5,0.8-3.9c0-1.3-0.3-2.6-0.8-3.8c-0.5-1.2-1.2-2.2-2.1-3.1c-0.9-0.9-1.9-1.6-3.1-2.1c-1.2-0.5-2.5-0.8-3.9-0.8
		c-1.4,0-2.7,0.3-3.9,0.8c-1.2,0.5-2.2,1.2-3.1,2.1c-0.9,0.9-1.6,1.9-2.1,3.1C786.1,86.3,785.8,87.6,785.8,89z"/>
	<path d="M815.8,89.2c0-1.8,0.3-3.5,1-5.1c0.7-1.6,1.6-3,2.8-4.3c1.2-1.2,2.6-2.2,4.2-2.9c1.6-0.7,3.3-1,5.1-1
		c1.3,0,2.4,0.2,3.5,0.5c1.1,0.3,2.1,0.8,2.9,1.4c0.9,0.6,1.6,1.2,2.2,1.9s1,1.4,1.3,2.1l0.3-5.2h3.2v25.3H839v-2.6
		c0-0.5,0-0.9,0-1.3c0-0.4,0-0.8,0-1.2c-0.3,0.7-0.7,1.4-1.3,2.1c-0.6,0.7-1.3,1.3-2.2,1.8c-0.9,0.5-1.8,1-2.9,1.3
		c-1.1,0.3-2.3,0.5-3.6,0.5c-1.9,0-3.7-0.3-5.3-1c-1.6-0.7-3-1.6-4.2-2.8c-1.2-1.2-2.1-2.6-2.7-4.1
		C816.2,92.6,815.8,90.9,815.8,89.2z M819.3,89c0,1.4,0.3,2.7,0.8,3.9c0.5,1.2,1.2,2.2,2.1,3.1c0.9,0.9,1.9,1.6,3.1,2.1
		c1.2,0.5,2.5,0.8,3.9,0.8c1.4,0,2.7-0.3,3.9-0.8c1.2-0.5,2.2-1.2,3.1-2.1s1.6-1.9,2.1-3.1c0.5-1.2,0.8-2.5,0.8-3.9
		c0-1.3-0.3-2.6-0.8-3.8c-0.5-1.2-1.2-2.2-2.1-3.1c-0.9-0.9-1.9-1.6-3.1-2.1c-1.2-0.5-2.5-0.8-3.9-0.8c-1.4,0-2.7,0.3-3.9,0.8
		c-1.2,0.5-2.2,1.2-3.1,2.1c-0.9,0.9-1.6,1.9-2.1,3.1C819.5,86.3,819.3,87.6,819.3,89z"/>
	<path d="M870.3,101.7h-21.8l15.7-22.2h-10.7c-1.4,0-2.5-0.3-3.3-0.9c-0.8-0.6-1.2-1.5-1.2-2.8V74h3.2v0.8c0,0.6,0.2,1,0.5,1.2
		c0.3,0.2,0.9,0.3,1.6,0.3h16.3l-15.5,21.9h15.2V101.7z"/>
	<path d="M875.9,67.2c0-0.7,0.3-1.3,0.8-1.8c0.5-0.5,1.1-0.7,1.7-0.7s1.2,0.2,1.7,0.7c0.5,0.5,0.8,1.1,0.8,1.8
		c0,0.8-0.3,1.4-0.8,1.8c-0.5,0.5-1.1,0.7-1.7,0.7s-1.2-0.2-1.7-0.7C876.2,68.6,875.9,68,875.9,67.2z M880.1,101.7h-3.5V76.4h3.5
		V101.7z"/>
	<path d="M888.8,76.4h3l0.3,6.5c0.9-2.1,2.3-3.8,4.1-5.1s4-2,6.5-2c2.5,0,4.5,0.7,5.9,2.1c1.5,1.4,2.2,3.2,2.3,5.5v18.3h-3.5V84.6
		c-0.1-1.4-0.6-2.7-1.5-3.7c-0.9-1-2.3-1.6-4.2-1.6c-1.3,0-2.6,0.2-3.7,0.7c-1.1,0.4-2.1,1.1-3,1.9c-0.9,0.8-1.5,1.7-2,2.8
		c-0.5,1.1-0.7,2.3-0.7,3.6v13.4h-3.5V76.4z"/>
	<path d="M940.2,98.7c-1.2,1.1-2.7,2-4.3,2.6s-3.3,0.9-5.1,0.9c-1.9,0-3.6-0.3-5.2-1c-1.6-0.7-3-1.6-4.2-2.8
		c-1.2-1.2-2.1-2.6-2.8-4.2s-1-3.3-1-5.1c0-1.8,0.3-3.5,1-5.1c0.7-1.6,1.6-3,2.8-4.2c1.2-1.2,2.6-2.1,4.2-2.8c1.6-0.7,3.3-1,5.1-1
		c2.8,0,5.2,0.8,7.2,2.5c2,1.7,3.5,3.8,4.5,6.4c-1.4,0.5-3,1.2-4.8,1.9c-1.7,0.7-3.5,1.4-5.4,2.1s-3.7,1.5-5.5,2.2
		c-1.8,0.7-3.5,1.4-5.1,2.1c0.8,1.7,1.9,3.1,3.5,4.2c1.6,1.1,3.4,1.6,5.4,1.6c1.3,0,2.6-0.2,3.9-0.7c1.2-0.5,2.3-1.1,3.1-1.9
		L940.2,98.7z M938,83.9c-0.7-1.4-1.7-2.6-3-3.4c-1.3-0.8-2.8-1.2-4.4-1.2c-1.3,0-2.6,0.3-3.8,0.8c-1.2,0.5-2.2,1.2-3.1,2.1
		c-0.9,0.9-1.6,1.9-2.1,3.1c-0.5,1.2-0.8,2.4-0.8,3.7c0,0.7,0.1,1.3,0.2,1.8c1.3-0.5,2.7-1.1,4.2-1.7c1.5-0.6,2.9-1.2,4.4-1.8
		c1.5-0.6,2.9-1.2,4.4-1.8C935.5,84.8,936.8,84.3,938,83.9z"/>
</g>
</svg>
