<svg xmlns="http://www.w3.org/2000/svg" viewBox="0 0 400 400"><defs><style>.cls-1{fill:#626262;fill-rule:evenodd;}</style></defs><title>dribbble_dark</title><g id="dribbble"><path class="cls-1" d="M199.45,86.56c-86.06,0-156.07,70-156.07,156.07s70,156.07,156.07,156.07,156.07-70,156.07-156.07S285.51,86.56,199.45,86.56Zm103.19,72a132.67,132.67,0,0,1,30.1,83c-4.39-.93-48.47-9.87-92.82-4.29-.94-2.29-1.89-4.58-2.87-6.88-2.77-6.5-5.75-13-8.85-19.31C277.49,191,299.83,162.34,302.64,158.54Zm-103.19-49a132.74,132.74,0,0,1,88.37,33.59c-2.4,3.42-22.47,30.39-69.87,48.15a711.21,711.21,0,0,0-49.74-78A133.51,133.51,0,0,1,199.45,109.53ZM142.78,122.2a852.77,852.77,0,0,1,49.42,77.09C129.84,215.85,74.92,215.61,69,215.53A133.77,133.77,0,0,1,142.78,122.2ZM66.14,242.84c0-1.37,0-2.72.07-4.08,5.83.12,70.43,1,137-19,3.81,7.47,7.46,15.05,10.8,22.62q-2.64.75-5.25,1.59C140,266.22,103.43,326.8,100.41,332A132.76,132.76,0,0,1,66.14,242.84Zm133.31,133.3A132.59,132.59,0,0,1,117.63,348c2.39-4.9,29.39-57,104.58-83.25l.87-.29c18.72,48.63,26.46,89.39,28.44,101.09A132.48,132.48,0,0,1,199.45,376.14Zm74.48-22.8c-1.36-8.1-8.46-47.13-25.89-95,41.77-6.69,78.47,4.26,83,5.7A133.5,133.5,0,0,1,273.93,353.34Z"/><path class="cls-1" d="M200.45,86.56c-86.06,0-156.07,70-156.07,156.07s70,156.07,156.07,156.07,156.07-70,156.07-156.07S286.51,86.56,200.45,86.56Zm103.19,72a132.67,132.67,0,0,1,30.1,83c-4.39-.93-48.47-9.87-92.82-4.29-.94-2.29-1.89-4.58-2.87-6.88-2.77-6.5-5.75-13-8.85-19.31C278.49,191,300.83,162.34,303.64,158.54Zm-103.19-49a132.74,132.74,0,0,1,88.37,33.59c-2.4,3.42-22.47,30.39-69.87,48.15a711.21,711.21,0,0,0-49.74-78A133.51,133.51,0,0,1,200.45,109.53ZM143.78,122.2a852.77,852.77,0,0,1,49.42,77.09C130.84,215.85,75.92,215.61,70,215.53A133.77,133.77,0,0,1,143.78,122.2ZM67.14,242.84c0-1.37,0-2.72.07-4.08,5.83.12,70.43,1,137-19,3.81,7.47,7.46,15.05,10.8,22.62q-2.64.75-5.25,1.59C141,266.22,104.43,326.8,101.41,332A132.76,132.76,0,0,1,67.14,242.84Zm133.31,133.3A132.59,132.59,0,0,1,118.63,348c2.39-4.9,29.39-57,104.58-83.25l.87-.29c18.72,48.63,26.46,89.39,28.44,101.09A132.48,132.48,0,0,1,200.45,376.14Zm74.48-22.8c-1.36-8.1-8.46-47.13-25.89-95,41.77-6.69,78.47,4.26,83,5.7A133.5,133.5,0,0,1,274.93,353.34Z"/><path class="cls-1" d="M201.45,86.56c-86.06,0-156.07,70-156.07,156.07s70,156.07,156.07,156.07,156.07-70,156.07-156.07S287.51,86.56,201.45,86.56Zm103.19,72a132.67,132.67,0,0,1,30.1,83c-4.39-.93-48.47-9.87-92.82-4.29-.94-2.29-1.89-4.58-2.87-6.88-2.77-6.5-5.75-13-8.85-19.31C279.49,191,301.83,162.34,304.64,158.54Zm-103.19-49a132.74,132.74,0,0,1,88.37,33.59c-2.4,3.42-22.47,30.39-69.87,48.15a711.21,711.21,0,0,0-49.74-78A133.51,133.51,0,0,1,201.45,109.53ZM144.78,122.2a852.77,852.77,0,0,1,49.42,77.09C131.84,215.85,76.92,215.61,71,215.53A133.77,133.77,0,0,1,144.78,122.2ZM68.14,242.84c0-1.37,0-2.72.07-4.08,5.83.12,70.43,1,137-19,3.81,7.47,7.46,15.05,10.8,22.62q-2.64.75-5.25,1.59C142,266.22,105.43,326.8,102.41,332A132.76,132.76,0,0,1,68.14,242.84Zm133.31,133.3A132.59,132.59,0,0,1,119.63,348c2.39-4.9,29.39-57,104.58-83.25l.87-.29c18.72,48.63,26.46,89.39,28.44,101.09A132.48,132.48,0,0,1,201.45,376.14Zm74.48-22.8c-1.36-8.1-8.46-47.13-25.89-95,41.77-6.69,78.47,4.26,83,5.7A133.5,133.5,0,0,1,275.93,353.34Z"/></g></svg>