<svg id="linkedin" xmlns="http://www.w3.org/2000/svg" viewBox="0 0 400 400"><defs><style>.cls-1{fill:#eaeae9;}</style></defs><title>linkedin</title><path class="cls-1" d="M219.11,224c3.92-4.58,7.46-9.15,11.44-13.31,10.25-10.69,23-16.48,37.58-18.36a85.71,85.71,0,0,1,41.26,4.26c16,5.89,27.92,16.45,36.1,31.29,9,16.35,12.09,34.18,12.26,52.57.22,24.41.07,48.82.08,73.23v46.14H290.08v-3.41c0-36.23,0-72.46-.12-108.68,0-9-1.46-17.85-5.53-26.08-5.95-12-17-17.11-30-16.55-9.27.4-17.31,3.66-23.82,10.29s-11,14.59-11.39,24.22c-.18,3.88-.23,7.76-.23,11.64q0,52.78,0,105.58c0,2.42-.56,3.21-3.11,3.2-20.61-.1-41.23-.06-61.84-.06h-2.67V196.26h2.74c20.62,0,41.23,0,61.85,0,2.34,0,3.09.57,3,3-.16,7.42-.06,14.84-.06,22.26C219,222.29,219.07,223.11,219.11,224Z"/><path class="cls-1" d="M113.58,196.26V399.94h-2.67c-20.62,0-41.23,0-61.85.06-2.44,0-3-.73-3-3.05q.09-98.86,0-197.71c0-2.36.61-3.05,3-3,20.62.1,41.23.06,61.85.06Z"/><path class="cls-1" d="M79.87,168.54C66.42,168.32,55,164,47.45,152.17c-11.34-17.84-4.89-44.71,19.09-51.87,13-3.88,25.75-3.19,37.15,4.69s15.81,19.61,14.14,33.17-9.38,23-22.28,27.57c-5,1.76-10.34,2.33-15.53,3.45Z"/></svg>