<?xml version="1.0" encoding="utf-8"?>
<!-- Generator: Adobe Illustrator 19.0.0, SVG Export Plug-In . SVG Version: 6.00 Build 0)  -->
<svg version="1.1" id="Layer_1" xmlns="http://www.w3.org/2000/svg" xmlns:xlink="http://www.w3.org/1999/xlink" x="0px" y="0px"
	 viewBox="-90 316.4 818.8 208.5" style="enable-background:new -90 316.4 818.8 208.5;" xml:space="preserve">
<style type="text/css">
	.st0{fill:#212121;}
	.st1{fill:none;stroke:#212121;stroke-width:4;stroke-miterlimit:10;}
</style>
<g id="XMLID_6_">
	<path class="st0" d="M48.9,387.1l-59.6,125.2h-1.4l-59.4-125.2h26.4l33.7,72.6l33.7-72.6H48.9z"/>
	<path class="st0" d="M17,512.3l64.1-125.2h2.4l64.1,125.2h-26l-9.8-19.7H52.6L43,512.3H17z M64.3,471.7h35.8l-17.8-37.8L64.3,471.7
		z"/>
	<path class="st0" d="M268.5,512.3l-82.4-74.5v74.5h-24V387.1h2.6l82.4,75.7v-75.7h24v125.2L268.5,512.3L268.5,512.3z"/>
	<path class="st0" d="M413.4,481.5c-2.7,5-6.1,9.6-10.1,13.6c-4,4.1-8.4,7.5-13.3,10.4s-10.1,5.2-15.8,6.8
		c-5.7,1.6-11.5,2.4-17.6,2.4c-8.9,0-17.3-1.7-25.2-5.1c-7.9-3.4-14.8-8.1-20.6-14c-5.9-5.9-10.5-12.8-14-20.6
		c-3.4-7.9-5.1-16.3-5.1-25.2c0-8.9,1.7-17.3,5.1-25.2c3.4-7.9,8.1-14.8,14-20.6c5.9-5.9,12.8-10.5,20.6-14s16.3-5.1,25.2-5.1
		c6.1,0,11.9,0.8,17.6,2.4s10.9,3.9,15.8,6.8s9.3,6.4,13.3,10.4c4,4.1,7.4,8.5,10.1,13.4L391,427c-1.8-2.7-4-5.3-6.4-7.7
		c-2.5-2.4-5.2-4.5-8.1-6.3c-3-1.8-6.1-3.3-9.4-4.3s-6.7-1.5-10.3-1.5c-5.7,0-11,1.2-16,3.5s-9.3,5.5-12.9,9.3
		c-3.7,3.9-6.6,8.4-8.7,13.6c-2.2,5.2-3.3,10.6-3.3,16.2c0,5.7,1.1,11.1,3.3,16.3c2.2,5.1,5.1,9.7,8.7,13.5c3.7,3.9,8,7,12.9,9.3
		c5,2.3,10.3,3.5,16,3.5c3.5,0,7-0.5,10.3-1.5s6.4-2.5,9.4-4.3s5.7-4,8.1-6.4c2.5-2.5,4.6-5.1,6.4-7.8L413.4,481.5z"/>
	<path class="st0" d="M459.2,512.3h-24V387.1h24V512.3z"/>
	<path class="st0" d="M580.2,408.2h-35.8v104.1h-24V408.2h-36V387h95.7L580.2,408.2L580.2,408.2z"/>
	<path class="st0" d="M710.3,387.1c-3.2,5.3-6.9,11.2-11,18c-4.2,6.7-8.4,13.6-12.8,20.6c-4.3,7-8.6,13.9-12.8,20.7
		c-4.2,6.8-7.9,12.9-11.1,18.4v47.4h-24v-47.4c-7.4-13-15.3-26-23.6-38.9c-8.3-12.9-16.3-25.9-23.8-38.9h27.9
		c5.1,8.6,10.4,17.4,15.8,26.5c5.4,9.1,10.6,18,15.8,26.5c2.5-4,5.1-8.3,7.9-12.8c2.7-4.6,5.5-9.2,8.2-13.8
		c2.7-4.6,5.5-9.2,8.1-13.7c2.7-4.5,5.2-8.8,7.6-12.8h27.8L710.3,387.1L710.3,387.1z"/>
	<line id="XMLID_2_" class="st1" x1="-67.9" y1="356.1" x2="175.3" y2="356.1"/>
	<line id="XMLID_1_" class="st1" x1="458.6" y1="356.1" x2="701.8" y2="356.1"/>
	<path d="M202.8,331.8v8.2h15.9v5.7h-15.9v7.7h17.9v5.7h-24.2v-32.8h24.2v5.6H202.8z"/>
	<path d="M241.4,342.8l-12.5-16.5h7.8l8.5,11.8l8.5-11.8h7.8l-12.4,16.5l12.2,16.2h-7.8l-8.3-11.4l-8.3,11.4h-7.8L241.4,342.8z"/>
	<path d="M284.6,326.2c1.6,0,3.1,0.3,4.6,0.9c1.4,0.6,2.7,1.4,3.7,2.5c1,1,1.9,2.3,2.5,3.7c0.6,1.4,0.9,2.9,0.9,4.6
		c0,1.6-0.3,3.1-0.8,4.5c-0.5,1.4-1.3,2.6-2.4,3.6c-1,1-2.4,1.8-4,2.4c-1.6,0.6-3.4,0.9-5.5,0.9h-7.3v9.8H270v-32.8H284.6z
		 M284.6,343.6c0.9,0,1.7-0.2,2.4-0.5c0.7-0.3,1.2-0.7,1.7-1.3c0.4-0.5,0.8-1.2,1-1.8c0.2-0.7,0.3-1.4,0.3-2.2
		c0-0.7-0.1-1.5-0.4-2.2c-0.3-0.7-0.7-1.4-1.2-2c-0.5-0.6-1.1-1-1.9-1.4c-0.7-0.4-1.6-0.5-2.6-0.5h-7.7v11.8H284.6z"/>
	<path d="M328.5,353.5v5.6h-23.6v-32.8h6.3v27.3H328.5z"/>
	<path d="M350.4,359.7c-2.3,0-4.5-0.4-6.6-1.3c-2.1-0.9-3.9-2.1-5.4-3.7c-1.5-1.5-2.8-3.3-3.7-5.4c-0.9-2.1-1.3-4.3-1.3-6.6
		c0-2.3,0.4-4.5,1.3-6.6c0.9-2.1,2.1-3.9,3.7-5.4c1.5-1.5,3.3-2.8,5.4-3.7c2.1-0.9,4.3-1.3,6.6-1.3c2.4,0,4.6,0.4,6.6,1.3
		c2.1,0.9,3.9,2.1,5.4,3.7c1.5,1.5,2.8,3.3,3.7,5.4c0.9,2.1,1.3,4.3,1.3,6.6c0,2.4-0.4,4.6-1.3,6.6c-0.9,2.1-2.1,3.9-3.7,5.4
		c-1.5,1.5-3.3,2.8-5.4,3.7C355,359.3,352.8,359.7,350.4,359.7z M350.5,331.5c-1.5,0-2.9,0.3-4.2,0.9c-1.3,0.6-2.4,1.4-3.4,2.4
		c-1,1-1.7,2.2-2.3,3.6c-0.6,1.4-0.8,2.8-0.8,4.2c0,1.5,0.3,2.9,0.8,4.3c0.6,1.3,1.3,2.5,2.3,3.6s2.1,1.9,3.4,2.5
		c1.3,0.6,2.7,0.9,4.2,0.9c1.5,0,2.9-0.3,4.2-0.9c1.3-0.6,2.4-1.4,3.4-2.5s1.7-2.2,2.3-3.6c0.6-1.3,0.9-2.8,0.9-4.3
		c0-1.5-0.3-2.9-0.9-4.2c-0.6-1.4-1.3-2.5-2.3-3.6c-1-1-2.1-1.8-3.4-2.4C353.3,331.8,351.9,331.5,350.5,331.5z"/>
	<path d="M383.8,359.1h-6.3v-32.8h14.9c1.7,0,3.2,0.3,4.6,0.8c1.4,0.6,2.6,1.3,3.6,2.3c1,1,1.8,2.2,2.3,3.6c0.6,1.4,0.8,2.9,0.8,4.6
		c0,2.5-0.6,4.6-1.9,6.5c-1.2,1.9-2.9,3.2-5,4c2.8,3.6,5.5,7.3,8.2,11h-7.5c-1.3-1.7-2.6-3.4-3.8-5.2c-1.3-1.7-2.5-3.5-3.8-5.3h-6.2
		V359.1z M383.8,343.1h8.6c0.6,0,1.2-0.1,1.8-0.3c0.6-0.2,1.2-0.6,1.6-1c0.5-0.5,0.9-1,1.2-1.7c0.3-0.7,0.5-1.5,0.5-2.4
		c0-0.5-0.1-1-0.2-1.7c-0.1-0.7-0.4-1.3-0.7-1.9c-0.4-0.6-0.9-1.1-1.5-1.5c-0.7-0.4-1.5-0.6-2.6-0.6h-8.6V343.1z"/>
	<path d="M420.6,331.8v8.2h15.9v5.7h-15.9v7.7h17.9v5.7h-24.2v-32.8h24.2v5.6H420.6z"/>
</g>
</svg>
