<svg xmlns="http://www.w3.org/2000/svg" viewBox="0 0 307.5 272.96"><defs><style>.cls-1,.cls-3{fill:none;}.cls-1,.cls-2,.cls-3{stroke:#231f20;}.cls-1{stroke-linecap:round;}.cls-1,.cls-2{stroke-linejoin:round;stroke-width:2.5px;}.cls-2{fill:#fff;}.cls-3{stroke-miterlimit:10;stroke-width:2.35px;}</style></defs><title>Asset 8</title><g id="Layer_2" data-name="Layer 2"><g id="Layer_2-2" data-name="Layer 2"><path class="cls-1" d="M19,70.28a10.94,10.94,0,0,0,2.75,5.34c6.46,6.59,20.82,1.54,23.08.75,4.94-1.74,4.36-2.58,19-9.84,6.26-3.1,10.4-5,12.67-3.16,1.88,1.48,1.7,4.86,1.5,4.91s-.58-5.11-3.67-6.5A6,6,0,0,0,67.42,64a6.62,6.62,0,0,0-.64,4.9c.48,2.74,1.89,4,3.27,6.13A21.64,21.64,0,0,1,73.24,89.2c-.26,2.08-.62,4.59-2.66,6.33-2.3,2-6.26,2.57-7.5,1-.92-1.17-.1-3.25.17-3.91,1.63-4.1,5.86-6,7.08-6.59C80.08,81.52,89.22,74.47,94,70.78a69.22,69.22,0,0,0,13.33-13.66c5.34-7.24,6.32-11.58,6.42-14.84.11-3.41-.65-8.53-2.75-9-2.51-.56-5.89,5.79-8,9.75-4.52,8.51-6,14.83-10.67,33.25-.8,3.16-3.51,13.76-2.75,14s3.09-8.1,10.67-15.75c1.09-1.09,4.29-4.32,5.46-3.6s-.8,4.75-1.79,11.69c-.58,4-1.64,11.48.58,12.66,1.25.67,4.55-.11,14.75-12.75,4.3-5.87,5.59-7.35,5.75-7.25s-2.25,3-2.25,6.92c0,2.79,1.26,6.33,3.25,6.67,2.19.37,4.41-3.31,5.33-4.84.59-1,7.35-12.5,1.5-18.83-2.29-2.48-6.51-4.16-10.25-2.75-5.27,2-7.63,9.38-5.33,12.83,2,3.08,7.5,2.59,11.25,2.25,11.08-1,18.76-7.33,19.75-6,.46.63-1.3,1.94-2.42,5.42-1.07,3.32-1.28,7.76.17,8.42s4.29-2.66,6.15-4.85c6-7.06,8.38-13.94,8.93-13.74.38.15-.88,3.31-1.33,7.59-.5,4.77-.17,12.55,2.17,13.16,2.86.75,9.39-9.1,11.91-18.91.79-3.05,1.47-7.22,2.09-7.17s.16,3,1.41,6.58c.32.91,2,5.69,5.29,7.41,7,3.63,20.49-6.84,19.38-11.74a3.43,3.43,0,0,0-2.75-2.42c-3.52-.51-8.07,5.69-9,11.59-.64,4-.05,10.94,3.92,12.91,5.56,2.78,14.26-5.93,26-17.66a10.6,10.6,0,0,0,2.33-3.59c.42-1.09,1.45-3.76.08-5.75-.78-1.13-2.46-2.2-3.83-1.66S217,59.71,217,60A5.54,5.54,0,0,0,218.17,64c2,2.82,4.73,2.24,6.41,3.75,4.7,4.2-4.65,19-1.41,21.5,2.09,1.64,8.14-2.8,10.58-4.58,5.11-3.74,6.7-6.54,14.75-15.34,6.23-6.8,8.56-8.71,12-9.25.65-.1,6.38-.92,8.25,2.25,1.12,1.91.39,4.48,0,4.5-.59,0,0-5.7-3-7.5-2.79-1.66-8.23.34-9.25,3.5-.14.44-.4,1.51,1.42,5.84a58,58,0,0,0,3.33,6.58c2.16,4,3.73,11.06.75,16.08-2.47,4.17-8.07,6.94-10.33,5.42-1.45-1-1.28-3.51-1.25-3.83.1-1.56.87-4.14,6.58-8.09A45,45,0,0,1,272.25,78c5.46-1.14,6.7-.3,14-2a24,24,0,0,0,8.25-3.25,21.87,21.87,0,0,0,5-4.5"/><path class="cls-1" d="M204.59,152.52a32,32,0,0,1-3.79,3.58c-1.37,1.09-8.77,7-15.07,6.68-8-.41-13.21-11-19.7-24.33-4.2-8.61-5.72-14.82-6.34-20-.76-6.46-1.38-11.65,1.84-16.33,3-4.43,9.82-8.89,15.33-6.34a9.89,9.89,0,0,1,5.56,9.26c-.45,4.91-5.69,7.4-12.94,12.37a134.82,134.82,0,0,0-19.62,16.5c-1.8,1.73-8,8.1-7.38,16.12a8.77,8.77,0,0,0,1.71,5.09c3.72,4.53,12.14,2.63,13.61,2.3,2.24-.51,3.95-1.25,9.43-4.51a211.9,211.9,0,0,0,18.13-12.25c6-4.4,8.5-6.38,9.12-9.81"/><path class="cls-1" d="M1.25,179.28a27.29,27.29,0,0,0,12,8c9,2.88,17.33-.26,24.93-3.14,6.13-2.32,10-4.76,17.07-9.19,8.41-5.3,17-10.79,25.33-20.25,2.1-2.38,12.21-14,9.42-17.83a3.36,3.36,0,0,0-2.25-1.17c-3.57-.61-9.41,1.94-23.08,22.75-5.78,8.79-6.55,11.09-13.59,23.08-10.68,18.2-18.53,29.3-22.33,46-1.9,8.36-.87,9.69-.25,10,1.93,1,7-4.26,9.92-9.08,5.9-9.58,11.5-31.08,10.33-35.25-.13-.47-.81-2.7-.25-3,.35-.19,1,.46,1.17.58,2.29,2,17.48,2.71,31.75-7.58,1.93-1.39,4-3.17,8.08-6.74,4.55-4,7.9-7.15,9.75-8.93,18.84-18.09,22.26-24,22.92-29.58.14-1.21.46-4.17-1-5.08-1.91-1.2-5.77,1.78-7.42,3.08-7.66,6-11.58,14-14,18.75-10.87,21.42-14.17,23.41-16.09,34.23-1.11,6.28-2.19,12.36.8,14.51,4.92,3.54,17.87-5.79,28.21-13.24a29.64,29.64,0,0,0,5.33-4.67c1.5-1.69,2.64-3.4,2.75-3.33s-3.58,4.23-4.25,10.08c-.21,1.84-.6,5.29,1.08,6.42,3,2,12.82-3.25,15.25-11.5.34-1.13,1.86-6.28-1.16-10.75-3.73-5.5-11-5-11.75-5-7.78.6-14.7,8.05-13.45,11.94s11,4.68,17.2,3.89c5.34-.67,14.11-3.25,21-5.75,1.93-.7,5.26-1.95,6.06-.87.64.86-.82,2.56-2.15,5.37-2.29,4.89-3.39,11.45-1.66,12.5s6.61-3.7,8.08-5.16c6.52-6.49,8.63-12.91,9.62-12.59,1.6.53-4.22,17.1-.67,19,2.16,1.16,6.93-3.51,9.56-6.09a75,75,0,0,0,9-11.32c2.34-3.38,4.67-6.94,5.17-6.67.32.18-.64,1.74-.5,4.08,0,.27.27,3.84,2.75,5.75s6,1.06,8.75.34c1.69-.46,8.85-2.37,10.16-7.75.33-1.33.55-3.89-.75-4.75-2-1.33-7,1.83-9.83,5.41-4.73,5.95-6.11,16.19-1.58,19.67,2.29,1.76,5.43,1.28,7.83.92,1.32-.2,5.06-.92,12.75-7.09,5.83-4.67,11.16-9.06,11.67-15.08.07-.91.2-2.72-.84-3.5-1.65-1.24-6,.31-7.25,3.5-.58,1.48-.72,3.8.59,5.08s3.22.79,8.41.17c5.9-.7,8.86-1,9.75-.33,3.75,2.95-2.72,14.51-.16,16.16,1.78,1.16,5.77-3.26,14.33-10.91,4.66-4.17,8.29-9.49,15.42-11.5,2.26-.64,4.64-.92,5.91.33,1.5,1.47.84,4.42.75,4.42s1.1-5.87-1.58-7.84c-3-2.18-10.41.64-11.25,4.5-.43,2,1.11,3.17,5,8.75,4.4,6.33,6.6,9.49,7,12.75.92,7.53-5.28,13.08-5.58,13.34-1.65,1.44-5.27,3.93-7,2.75s-.94-5.22.25-7.67a11.38,11.38,0,0,1,3.5-4.08,13.76,13.76,0,0,1,6.16-2.42c6-.94,11.9-2.85,23.75-6.67,4.85-1.56,8.34-2.95,9.26-5.79.42-1.31.87-4.72.91-4.72h0"/><path class="cls-1" d="M275.26,86.46a122,122,0,0,1-1.39,76.34"/><path class="cls-1" d="M53.5,63.43a121.31,121.31,0,0,1,203-13.66"/><path class="cls-1" d="M46.46,166.72a121.93,121.93,0,0,1-3.15-79.28"/><path class="cls-2" d="M94.24,225.8s-4.75-8.87-26.74-1.07C67.5,224.73,86.6,238.25,94.24,225.8Z"/><path class="cls-2" d="M200.23,235.1s-5.22-8.6,12.67-23.58C212.9,211.52,214.84,234.84,200.23,235.1Z"/><path class="cls-2" d="M221.59,228.34s4.64-8.92,26.73-1.37C248.32,227,229.37,240.7,221.59,228.34Z"/><path class="cls-2" d="M109,233s-9.67-2.75-6.75-25.9C102.23,207.12,119.52,222.89,109,233Z"/><path class="cls-1" d="M120.75,237.77a121.47,121.47,0,0,1-53.63-36.32"/><path class="cls-1" d="M251.76,201.45a121.23,121.23,0,0,1-65.89,39.74"/><path class="cls-3" d="M141.79,236.32a50,50,0,0,1,7.81,8.52c2.37,3.39,4.11,7.26,3.16,10.59-2.27,8-5.35,1.74-5.35,1.74S140.54,250.19,141.79,236.32Z"/><path class="cls-3" d="M153,234.66l-3.43,10.18s4.9,7,3.16,10.59,9.32-14,9.32-14-4.84-7-7.81-7.23A1.49,1.49,0,0,0,153,234.66Z"/><path class="cls-3" d="M141.79,236.32s1.52-4.79,10.8-.36l-3,8.88S144.33,238,141.79,236.32Z"/><path class="cls-3" d="M162.08,241.41c.78-2.43,1.34-3,1.72-2.95,1.78.11,5.78,12.82-.64,21.58a18.43,18.43,0,0,1-9.36,6.5,19.71,19.71,0,0,1-4.07-5.11,20.21,20.21,0,0,1-1.32-2.8"/><path class="cls-3" d="M149.73,261.43a10.91,10.91,0,0,1-6.76-.2c-4.07-1.58-5.7-5.47-6.93-8.43-.64-1.53-4.5-11.2.23-17.86,1.39-2,3.92-4.22,5.11-3.59s.52,4.41.41,5"/><path class="cls-3" d="M154.27,234.18c-.65-1.14-4.71-8-11-8.42-2.87-.19-5.91,1-8.42,1.93-2.69,1-4,1.55-5.17,2.62-2.57,2.45-2.75,5.79-3.11,12.49-.31,5.85.47,6.95.83,7.39,2.43,2.94,7.64,2,8.36,1.83a14.85,14.85,0,0,0,.69,1.68s-.28-1.65-.69-1.68c-.9-.07-4.66,7.12-1.78,13.07,3.09,6.37,12.19,8,16.26,5.66.36-.21.3-.23,7.72-5.92l.77-.59"/><path class="cls-3" d="M157.93,264.83c2.13.95,6.74,2.63,11.46,1,10.27-3.51,14.69-20.38,9.39-25.88-1.06-1.1-3.16-2.41-7.55-2.2l-.18-.94a13.19,13.19,0,0,0-3.92-3.84c-6.58-4.11-13.15-1.07-14-.65"/><path class="cls-3" d="M171.05,236.83a42.65,42.65,0,0,1,.9,9.77c-.12,4.38-.23,7.17-2.28,9.18a8.25,8.25,0,0,1-5.18,2.11"/><path class="cls-3" d="M146.65,226.64a12.46,12.46,0,0,1,4.73-5.23c3.26-1.93,6.6-1.67,10.49-1.38,3.08.24,4.62.35,6.07,1.31,3.94,2.6,4.2,8.24,4.28,9.9a16.91,16.91,0,0,1-1,6.53"/></g></g></svg>