<svg xmlns="http://www.w3.org/2000/svg" viewBox="0 0 185.86 140"><defs><style>.cls-1,.cls-2{fill:none;stroke:#808285;stroke-miterlimit:10;stroke-width:6px;}.cls-2{stroke-linecap:round;}</style></defs><title>Asset 14</title><g id="Layer_2" data-name="Layer 2"><g id="Layer_2-2" data-name="Layer 2"><rect class="cls-1" x="3" y="3" width="179.86" height="134" rx="13.23" ry="13.23"/><path class="cls-1" d="M72.46,63.38A85.83,85.83,0,0,1,85.84,78c4,5.79,7,12.42,5.4,18.12-3.89,13.69-9.16,3-9.16,3S70.32,87.11,72.46,63.38Z"/><path class="cls-1" d="M91.69,60.54,85.84,78s8.37,12,5.4,18.12,15.94-24,15.94-24-8.28-12-13.35-12.36A2.56,2.56,0,0,0,91.69,60.54Z"/><path class="cls-1" d="M72.46,63.38s2.6-8.19,18.49-.61L85.84,78S76.82,66.21,72.46,63.38Z"/><path class="cls-1" d="M107.18,72.09c1.34-4.16,2.3-5.09,3-5C113.18,67.23,120,89,109,104a31.63,31.63,0,0,1-16,11.12,35.26,35.26,0,0,1-9.23-13.54"/><path class="cls-1" d="M86.05,106.36A18.66,18.66,0,0,1,74.48,106c-7-2.69-9.75-9.36-11.86-14.42C61.53,89,54.93,72.41,63,61c2.38-3.35,6.7-7.22,8.74-6.14s.9,7.55.7,8.5"/><path class="cls-1" d="M93.83,59.73C92.71,57.78,85.77,46,75,45.31,70,45,64.84,47,60.54,48.62c-4.61,1.76-6.92,2.64-8.85,4.48C47.3,57.28,47,63,46.38,74.48c-.54,10,.8,11.89,1.41,12.63,4.16,5,13.07,3.38,14.3,3.14.86,2.2,1.15,2.89,1.18,2.88s-.47-2.82-1.18-2.88c-1.53-.12-8,12.18-3,22.37,5.28,10.89,20.86,13.75,27.83,9.68.6-.36.51-.4,13.21-10.14l1.31-1"/><path class="cls-1" d="M100.09,112.16c3.64,1.64,11.53,4.51,19.61,1.75,17.57-6,25.12-34.87,16.06-44.27-1.82-1.89-5.41-4.14-12.91-3.78l-.32-1.61a22.51,22.51,0,0,0-6.71-6.57c-11.26-7-22.49-1.83-24-1.11"/><path class="cls-1" d="M122.53,64.25A72.46,72.46,0,0,1,124.07,81c-.2,7.49-.39,12.27-3.9,15.7a14,14,0,0,1-8.85,3.62"/><path class="cls-1" d="M80.78,46.82a21.41,21.41,0,0,1,8.1-9c5.58-3.3,11.29-2.87,18-2.36,5.27.4,7.9.6,10.39,2.24,6.73,4.45,7.19,14.11,7.32,16.94a29.2,29.2,0,0,1-1.69,11.17"/><line class="cls-2" x1="45.76" y1="50.27" x2="11.48" y2="12.49"/><line class="cls-2" x1="173.99" y1="12.49" x2="132.22" y2="58.53"/></g></g></svg>