<svg xmlns="http://www.w3.org/2000/svg" viewBox="0 0 186.86 141"><defs><style>.cls-1,.cls-2,.cls-3{fill:none;stroke-miterlimit:10;stroke-width:7px;}.cls-1,.cls-2{stroke:#808285;}.cls-2,.cls-3{stroke-linecap:round;}.cls-3{stroke:#939598;}</style></defs><title>Asset 19</title><g id="Layer_2" data-name="Layer 2"><g id="Layer_2-2" data-name="Layer 2"><rect class="cls-1" x="3.5" y="3.5" width="179.86" height="134" rx="13.23" ry="13.23"/><path class="cls-1" d="M73,64.88A85.83,85.83,0,0,1,86.34,79.47c4,5.79,7,12.42,5.4,18.12-3.89,13.69-9.16,3-9.16,3S70.82,88.61,73,64.88Z"/><path class="cls-1" d="M92.19,62,86.34,79.47s8.37,12,5.4,18.12,15.94-24,15.94-24-8.28-12-13.35-12.36A2.56,2.56,0,0,0,92.19,62Z"/><path class="cls-1" d="M73,64.88s2.6-8.19,18.49-.61l-5.11,15.2S77.32,67.71,73,64.88Z"/><path class="cls-1" d="M107.68,73.59c1.34-4.16,2.3-5.09,3-5,3,.19,9.87,21.94-1.11,36.93a31.63,31.63,0,0,1-16,11.12,35.26,35.26,0,0,1-9.23-13.54"/><path class="cls-1" d="M86.55,107.86A18.66,18.66,0,0,1,75,107.5c-7-2.69-9.75-9.36-11.86-14.42-1.09-2.61-7.69-19.17.4-30.56,2.38-3.35,6.7-7.22,8.74-6.14s.9,7.55.7,8.5"/><path class="cls-1" d="M94.33,61.23c-1.12-1.95-8.06-13.71-18.88-14.42-4.91-.32-10.11,1.67-14.41,3.31-4.61,1.76-6.92,2.64-8.85,4.48-4.39,4.18-4.7,9.91-5.31,21.38-.54,10,.8,11.89,1.41,12.63,4.16,5,13.07,3.38,14.3,3.14.86,2.2,1.15,2.89,1.18,2.88s-.47-2.82-1.18-2.88c-1.53-.12-8,12.18-3,22.37,5.28,10.89,20.86,13.75,27.83,9.68.6-.36.51-.4,13.21-10.14l1.31-1"/><path class="cls-1" d="M100.59,113.66c3.64,1.64,11.53,4.51,19.61,1.75,17.57-6,25.12-34.87,16.06-44.27-1.82-1.89-5.41-4.14-12.91-3.78L123,65.75a22.51,22.51,0,0,0-6.71-6.57c-11.26-7-22.49-1.83-24-1.11"/><path class="cls-1" d="M123,65.75a72.46,72.46,0,0,1,1.54,16.72c-.2,7.49-.39,12.27-3.9,15.7a14,14,0,0,1-8.85,3.62"/><path class="cls-1" d="M81.28,48.32a21.41,21.41,0,0,1,8.1-9c5.58-3.3,11.29-2.87,18-2.36,5.27.4,7.9.6,10.39,2.24,6.73,4.45,7.19,14.11,7.32,16.94a29.2,29.2,0,0,1-1.69,11.17"/><line class="cls-2" x1="46.26" y1="50.77" x2="11.98" y2="12.99"/><line class="cls-2" x1="174.49" y1="12.99" x2="132.72" y2="59.03"/><line class="cls-3" x1="45.85" y1="94.54" x2="14.06" y2="129.57"/><line class="cls-3" x1="174.57" y1="127.57" x2="144.92" y2="94.89"/></g></g></svg>