<svg xmlns="http://www.w3.org/2000/svg" viewBox="0 0 173.47 92.09"><defs><style>.cls-1{fill:none;stroke:#231f20;stroke-linecap:round;stroke-miterlimit:10;stroke-width:2px;}</style></defs><title>Asset 4</title><g id="Layer_2" data-name="Layer 2"><g id="Layer_2-2" data-name="Layer 2"><path class="cls-1" d="M27.72,32.5a4.54,4.54,0,0,0-3-.5c-6.63,1.53-13,24.39-2.52,34.26,3.44,3.25,9.17,5.54,14.44,4.24C46.68,68,54.36,52.7,52,32.5,49.38,18,38.17,7.65,26,7.17,15.68,6.76,3.4,13.32,1.31,23.83-1,35.61,10.85,45.07,12.64,46.5c13,10.34,33.2,9.35,44,.67,5.5-4.43,9.28-11.43,10.08-10.92S62.84,42.5,64,49.5c.68,4.19,3.5,9.3,7,9.5,4.58.26,7.91-8,8.5-9.5C80.19,47.71,85,35.69,78,28.84c-3.64-3.54-11-6.2-16-2.34-3.74,2.87-5.28,8.63-3.33,12.33,3.09,5.88,13.8,5,19.33,3.17a29.36,29.36,0,0,0,10.5-6.5c4.32-4,4.78-6.75,5.85-6.52,2.32.48.41,13.12-3.63,50.43-.53,4.88-1.22,11.49-3,11.67S83.5,85.5,82.72,80.5c-1.13-7.29,1.09-13.07,4.9-21.81,13.4-30.76,17.47-31.44,19.1-31.44,4.07,0,6.58,4.2,6.75,4.5,4.52,7.81-4.33,22.63-11.25,22.5-1.56,0-3.61-.83-4-2.25-1.1-4,11.17-11.81,20.25-15.75.26-.11,1.42-.62,3-1.36.34-.16,3-1.4,5.64-2.84,6.48-3.49,9.73-5.23,9.54-6.55-.23-1.58-4.28-3.11-7.17-1.75A6.06,6.06,0,0,0,126.22,28c-1.27,7.39,13.07,11,14,21.25.42,4.6-1.91,10.11-5.25,10.75s-8-3.8-8-8c0-3.29,2.85-5.6,5.5-7.75,6.05-4.91,10.19-3.92,14.25-8.25a16.48,16.48,0,0,0,4-8"/><path class="cls-1" d="M172.47,1a83.06,83.06,0,0,0-4.75,32"/><line class="cls-1" x1="166.22" y1="51.25" x2="167.72" y2="54.75"/></g></g></svg>