<svg xmlns="http://www.w3.org/2000/svg" viewBox="0 0 167.84 178.42"><defs><style>.cls-1{fill:none;stroke:#231f20;stroke-miterlimit:10;stroke-width:2.5px;}</style></defs><title>Asset 11</title><g id="Layer_2" data-name="Layer 2"><g id="Layer_2-2" data-name="Layer 2"><path class="cls-1" d="M25.92,92.48H144.59c12,1.66,22-7.58,22-17.34,0-8.09-7-16-16.67-17.33,4.29-9.3,3.29-20-2.67-27.33-7.72-9.52-22.68-12-34.66-4.67-.53-3.17-3.06-16.48-13.34-22-13-7-35.09.37-47.33,22-14.53-9.41-32.21-5-38.67,6C8.7,39.58,9.87,50.43,15.92,59.14c-8.55,2.63-14.51,9.37-14.67,16C1,84.24,11.72,94.38,25.92,92.48Z"/><path class="cls-1" d="M85.13,109.23a86.72,86.72,0,0,1-8,9c-4.2,4.07-6.22,5.23-6.79,8-.75,3.79,1.42,9.13,5.31,10,3.25.68,6.48-2,7.94-4.47s1.09-4.79,1-9.87A101.07,101.07,0,0,1,85.13,109.23Z"/><path class="cls-1" d="M56.84,141.82a87.06,87.06,0,0,1-8.06,9c-4.19,4.07-6.22,5.23-6.78,8.05-.76,3.79,1.41,9.13,5.31,9.95,3.24.68,6.47-2,7.93-4.48s1.09-4.79,1-9.86A101.07,101.07,0,0,1,56.84,141.82Z"/><path class="cls-1" d="M123.59,107.42a86.72,86.72,0,0,1-8,9c-4.2,4.07-6.22,5.23-6.79,8.05-.76,3.79,1.42,9.13,5.31,9.95,3.24.68,6.48-2,7.94-4.48s1.09-4.79,1-9.86A101.07,101.07,0,0,1,123.59,107.42Z"/><path class="cls-1" d="M49.35,105.23a88.28,88.28,0,0,1-8.06,9c-4.2,4.07-6.22,5.23-6.78,8-.76,3.79,1.41,9.13,5.3,10,3.25.68,6.48-2,7.94-4.47s1.09-4.79,1-9.87A99.49,99.49,0,0,1,49.35,105.23Z"/><path class="cls-1" d="M93.07,150.1a88.28,88.28,0,0,1-8.06,9c-4.19,4.07-6.22,5.23-6.78,8.05-.76,3.79,1.41,9.13,5.31,9.95,3.24.68,6.47-2,7.93-4.47s1.09-4.79,1-9.87A99.49,99.49,0,0,1,93.07,150.1Z"/><path class="cls-1" d="M131.35,141.82a88.28,88.28,0,0,1-8.06,9c-4.2,4.07-6.22,5.23-6.78,8.05-.76,3.79,1.41,9.13,5.3,9.95,3.25.68,6.48-2,7.94-4.48s1.09-4.79,1-9.86A99.49,99.49,0,0,1,131.35,141.82Z"/></g></g></svg>