<svg xmlns="http://www.w3.org/2000/svg" viewBox="0 0 165.34 175.92"><defs><style>.cls-1{fill:#bcbec0;}.cls-2{fill:#b7e0f7;}</style></defs><title>Asset 5</title><g id="Layer_2" data-name="Layer 2"><g id="Layer_2-2" data-name="Layer 2"><path class="cls-1" d="M24.67,91.23H143.34c12,1.66,22-7.58,22-17.34,0-8.09-7-16-16.67-17.33,4.29-9.3,3.29-20-2.67-27.33-7.72-9.52-22.68-12-34.66-4.67-.53-3.17-3.06-16.48-13.34-22-13-7-35.09.37-47.33,22-14.53-9.41-32.21-5-38.67,6-4.55,7.77-3.38,18.62,2.67,27.33C6.12,60.52.16,67.26,0,73.89-.21,83,10.47,93.13,24.67,91.23Z"/><path class="cls-2" d="M83.88,108a86.72,86.72,0,0,1-8,9c-4.2,4.07-6.22,5.23-6.79,8-.75,3.79,1.42,9.13,5.31,10,3.25.68,6.48-2,7.94-4.47s1.09-4.79,1-9.87A101.07,101.07,0,0,1,83.88,108Z"/><path class="cls-2" d="M55.59,140.57a87.06,87.06,0,0,1-8.06,9c-4.19,4.07-6.22,5.23-6.78,8.05-.76,3.79,1.41,9.13,5.31,9.95,3.24.68,6.47-2,7.93-4.48s1.09-4.79,1-9.86A101.07,101.07,0,0,1,55.59,140.57Z"/><path class="cls-2" d="M122.34,106.17a86.72,86.72,0,0,1-8,9c-4.2,4.07-6.22,5.23-6.79,8.05-.76,3.79,1.42,9.13,5.31,9.95,3.24.68,6.48-2,7.94-4.48s1.09-4.79,1-9.86A101.07,101.07,0,0,1,122.34,106.17Z"/><path class="cls-2" d="M48.1,104a88.28,88.28,0,0,1-8.06,9c-4.2,4.07-6.22,5.23-6.78,8-.76,3.79,1.41,9.13,5.3,10,3.25.68,6.48-2,7.94-4.47s1.09-4.79,1-9.87A99.49,99.49,0,0,1,48.1,104Z"/><path class="cls-2" d="M91.82,148.85a88.28,88.28,0,0,1-8.06,9c-4.19,4.07-6.22,5.23-6.78,8.05-.76,3.79,1.41,9.13,5.31,9.95,3.24.68,6.47-2,7.93-4.47s1.09-4.79,1-9.87A99.49,99.49,0,0,1,91.82,148.85Z"/><path class="cls-2" d="M130.1,140.57a88.28,88.28,0,0,1-8.06,9c-4.2,4.07-6.22,5.23-6.78,8.05-.76,3.79,1.41,9.13,5.3,9.95,3.25.68,6.48-2,7.94-4.48s1.09-4.79,1-9.86A99.49,99.49,0,0,1,130.1,140.57Z"/></g></g></svg>