<svg xmlns="http://www.w3.org/2000/svg" viewBox="0 0 56.91 54.31"><defs><style>.cls-1{fill:none;stroke:#231f20;stroke-miterlimit:10;stroke-width:2.35px;}</style></defs><title>Asset 7</title><g id="Layer_2" data-name="Layer 2"><g id="Layer_2-2" data-name="Layer 2"><path class="cls-1" d="M16.49,17.66a50.6,50.6,0,0,1,7.82,8.53c2.36,3.39,4.11,7.26,3.16,10.59-2.28,8-5.36,1.74-5.36,1.74S15.24,31.53,16.49,17.66Z"/><path class="cls-1" d="M27.73,16,24.31,26.19s4.89,7,3.16,10.59,9.32-14,9.32-14-4.85-7-7.81-7.22A1.51,1.51,0,0,0,27.73,16Z"/><path class="cls-1" d="M16.49,17.66S18,12.88,27.3,17.31l-3,8.88S19,19.32,16.49,17.66Z"/><path class="cls-1" d="M36.79,22.75c.78-2.43,1.34-3,1.72-2.95,1.78.12,5.77,12.82-.65,21.59a18.49,18.49,0,0,1-9.36,6.5,19.71,19.71,0,0,1-4.07-5.11A21,21,0,0,1,23.11,40"/><path class="cls-1" d="M24.43,42.78a10.85,10.85,0,0,1-6.76-.21C13.6,41,12,37.1,10.74,34.15c-.64-1.53-4.49-11.21.24-17.87,1.38-2,3.91-4.21,5.1-3.58s.53,4.41.41,5"/><path class="cls-1" d="M29,15.53c-.65-1.14-4.71-8-11-8.42C15.08,6.92,12,8.08,9.53,9c-2.7,1-4,1.55-5.18,2.62-2.56,2.44-2.74,5.79-3.1,12.49-.32,5.84.47,7,.83,7.38,2.43,2.94,7.63,2,8.35,1.84.5,1.29.68,1.69.69,1.68s-.27-1.65-.69-1.68c-.89-.07-4.66,7.12-1.77,13.07,3.08,6.37,12.19,8,16.26,5.66.35-.21.3-.23,7.72-5.93l.77-.59"/><path class="cls-1" d="M32.64,46.17c2.13,1,6.74,2.64,11.46,1,10.27-3.51,14.68-20.38,9.38-25.88-1.06-1.1-3.16-2.42-7.54-2.2l-.19-.95a13,13,0,0,0-3.92-3.83c-6.58-4.12-13.14-1.07-14-.65"/><path class="cls-1" d="M45.75,18.17a42.16,42.16,0,0,1,.9,9.78c-.11,4.37-.22,7.17-2.27,9.17a8.21,8.21,0,0,1-5.18,2.11"/><path class="cls-1" d="M21.35,8a12.47,12.47,0,0,1,4.74-5.23C29.35.83,32.68,1.08,36.58,1.38c3.08.23,4.62.35,6.07,1.31,3.93,2.6,4.2,8.24,4.28,9.9a17.11,17.11,0,0,1-1,6.53"/></g></g></svg>