<?xml version="1.0" encoding="utf-8"?>
<!-- Generator: Adobe Illustrator 19.0.0, SVG Export Plug-In . SVG Version: 6.00 Build 0)  -->
<svg version="1.1" id="Layer_1" xmlns="http://www.w3.org/2000/svg" xmlns:xlink="http://www.w3.org/1999/xlink" x="0px" y="0px"
	 viewBox="0 0 960 120" style="enable-background:new 0 0 960 120;" xml:space="preserve">
<style type="text/css">
	.st0{fill:#FFFFFF;}
	.st1{fill:#FCA60D;}
	.st2{fill:none;stroke:#FCA60D;stroke-width:3;stroke-miterlimit:10;}
</style>
<g id="XMLID_4_">
	<path id="XMLID_5_" class="st0" d="M55.6,86.7c-1.5,0.9-3.1,1.8-4.7,2.5c-3.6,1.5-7.5,2.3-11.4,2.3s-7.8-0.8-11.4-2.3
		s-6.6-3.6-9.3-6.3c-2.7-2.7-4.8-5.8-6.3-9.3c-1.5-3.5-2.3-7.4-2.3-11.4c0-3.9,0.8-7.8,2.3-11.4c1.5-3.5,3.6-6.6,6.3-9.3
		s5.8-4.8,9.3-6.2c3.5-1.6,7.4-2.3,11.4-2.3s7.8,0.7,11.4,2.3c0.4,0.2,0.9,0.4,1.3,0.6v10.8c-3.5-2.9-8-4.5-12.7-4.5
		c-5.4,0-10.4,2.1-14.2,5.9c-3.8,3.8-5.9,8.8-5.9,14.2s2.1,10.4,5.9,14.2s8.8,5.9,14.2,5.9s10.4-2.1,14.2-5.9c0.7-0.7,1.3-1.4,2-2.2
		V86.7z"/>
	<path id="XMLID_7_" class="st0" d="M115.3,91.5h-9.1V66.3H82.8v25.2h-9.1V33h9.1v25h23.3V33h9.1V91.5z"/>
	<path id="XMLID_9_" class="st0" d="M145.8,56.8h21.4v8.3h-21.4v18.1h25.9v8.3h-26h-9.1V33h9.1h26v8.2h-25.9V56.8z"/>
	<path id="XMLID_11_" class="st0" d="M200.8,56.8h21.4v8.3h-21.4v18.1h25.9v8.3h-26h-9.1V33h9.1h26v8.2h-25.9V56.8z"/>
	<path id="XMLID_13_" class="st0" d="M292.5,91.5V60.4l-18.3,27.3l-18.4-27.3v31.1h-9.1V30.3l27.5,41l27.5-41v61.2H292.5z"/>
	<path id="XMLID_15_" class="st0" d="M354.8,79H334l-5,12.5H319l25.5-61.2l25.4,61.2h-10L354.8,79z M351.5,70.8l-7.1-17.8l-7.1,17.8
		H351.5z"/>
	<path id="XMLID_18_" class="st0" d="M427.2,91.5h-10.3l-14.7-19.8h-6.7v19.8h-9.1V33h7.7h9.6c7.7,0,12.2,3.2,14.6,5.8
		c3.1,3.4,4.7,8.1,4.7,13.6c0,5.4-1.7,10.1-4.7,13.5c-1.4,1.6-3.6,3.4-6.8,4.5L427.2,91.5z M403.7,63.5c3.8,0,6.6-1.1,8.4-3.2
		c2.2-2.4,2.6-5.7,2.6-8c0-2.4-0.4-5.7-2.6-8c-1.8-2.1-4.7-3.1-8.4-3.1h-8.2v22.2H403.7z"/>
	<path id="XMLID_21_" class="st0" d="M480.5,41.2h-16.1v50.3h-9.2V41.2h-16.1V33h41.4V41.2z"/>
	<path id="XMLID_23_" class="st0" d="M498.1,91.5V33h9.1v58.5H498.1z"/>
	<path id="XMLID_25_" class="st0" d="M571.6,86.7c-1.5,0.9-3.1,1.8-4.7,2.5c-3.6,1.5-7.5,2.3-11.4,2.3c-3.9,0-7.8-0.8-11.4-2.3
		c-3.5-1.5-6.6-3.6-9.3-6.3c-2.7-2.7-4.8-5.8-6.3-9.3c-1.5-3.5-2.3-7.4-2.3-11.4c0-3.9,0.8-7.8,2.3-11.4c1.5-3.5,3.6-6.6,6.3-9.3
		s5.8-4.8,9.3-6.2c3.5-1.6,7.4-2.3,11.4-2.3c3.9,0,7.8,0.7,11.4,2.3c0.4,0.2,0.9,0.4,1.3,0.6v10.8c-3.5-2.9-8-4.5-12.7-4.5
		c-5.4,0-10.4,2.1-14.2,5.9c-3.8,3.8-5.9,8.8-5.9,14.2s2.1,10.4,5.9,14.2s8.8,5.9,14.2,5.9c5.4,0,10.4-2.1,14.2-5.9
		c0.7-0.7,1.3-1.4,2-2.2V86.7z"/>
	<path id="XMLID_27_" class="st0" d="M624.7,91.5h-24.5h-9.1V33h9.1v50.2h24.4V91.5z"/>
	<path id="XMLID_29_" class="st0" d="M649.7,56.8h21.4v8.3h-21.4v18.1h25.9v8.3h-26h-9.1V33h9.1h26v8.2h-25.9V56.8z"/>
	<path id="XMLID_31_" class="st0" d="M726.6,79.7c-1.7,5.7-6.8,10.2-13.2,11.4c-1.2,0.2-2.4,0.3-3.5,0.3c-2.4,0-4.7-0.4-6.9-1.3
		c-3.7-1.5-6.9-3.9-9.7-7.5l7.3-5.7c1.7,2.2,3.6,3.8,5.8,4.6c1.7,0.7,3.6,0.9,5.4,0.5c3-0.6,5.4-2.5,6.2-4.9c0.8-2.7-1-5-2.7-6.6
		c-2.6-2.4-6.9-6.6-7.2-6.9l-7.2-6.8c-2.2-2.1-3.7-4.5-4.5-7c-0.8-2.4-0.9-5-0.2-7.4c0.7-2.5,2.2-4.7,4.3-6.5c2-1.7,4.4-2.8,7-3.3
		c2.8-0.6,5.8-0.4,8.7,0.6c3,1.2,5.7,3.2,8,5.9l-7.2,5.8c-3-3.6-6.1-3.6-7.7-3.3c-2,0.4-3.8,1.7-4.3,3.4c-0.3,1.1-0.2,2.9,2.2,5.3
		l9.8,9.4c1.4,1.4,3.2,3.1,4.4,4.3c2.5,2.3,4.3,4.9,5.1,7.6C727.3,74.2,727.4,77.1,726.6,79.7z"/>
</g>
<g id="XMLID_3_">
	<path id="XMLID_33_" class="st1" d="M787.3,91.5h-24.5h-9.1V33h9.1v50.2h24.4V91.5z"/>
	<path id="XMLID_35_" class="st1" d="M803.8,91.5V33h9.1v58.5H803.8z"/>
	<path id="XMLID_37_" class="st1" d="M857.4,71.5L872.7,33h9.9l-25.1,61.1L830.8,33h10.1L857.4,71.5z"/>
	<path id="XMLID_39_" class="st1" d="M909.8,56.8h21.4v8.3h-21.4v18.1h25.9v8.3h-26h-9.1V33h9.1h26v8.2h-25.9V56.8z"/>
</g>
<rect id="XMLID_2_" x="739" y="9" class="st2" width="211" height="102.5"/>
</svg>
