<?xml version="1.0" encoding="utf-8"?>
<!-- Generator: Adobe Illustrator 21.0.2, SVG Export Plug-In . SVG Version: 6.00 Build 0)  -->
<svg version="1.1" id="Layer_1" xmlns="http://www.w3.org/2000/svg" xmlns:xlink="http://www.w3.org/1999/xlink" x="0px" y="0px"
	 viewBox="0 0 289.3 74" style="enable-background:new 0 0 289.3 74;" xml:space="preserve">
<style type="text/css">
	.st0{fill:#D4952F;}
</style>
<g>
	<path class="st0" d="M49.2,65.5c-3.5,1-9,2.1-13.3,2.1c-16.5,0-30.8-11.3-30.8-27.4c0-16.1,14.4-27.4,30.6-27.4
		c5.6,0,11.1,1.3,13.6,2.1l4.6-2l1.2,21.4h-0.2C54.1,25.5,49.5,13,37.1,13c-13.7,0-15,15.1-15,27.1c0,11.1,1.7,27.1,14.4,27.1
		c1.7,0,3.4-0.3,4.9-0.7V55.3c0-9.3,0-13.4-7.5-13.4v-0.2h28.5v0.2c-5.3,0-5.9,3.3-5.9,10.8v14.7L49.2,65.5z"/>
	<path class="st0" d="M90.6,36.9c0-4.5,0-10.4-5.5-10.4c-4.1,0-6.6,3.2-6.6,6.4c0,2.1,1.1,3.9,2.7,4.6C81,42,77.9,44,74.4,44
		c-3.6,0-7.2-2.3-7.2-7.2c0-9.4,13-10.6,19.3-10.6c9.6,0,18.4,2.8,18.4,11.7v19.8c0,4.6,3.1,6.7,7.1,3.8l0.1,0.2
		c-3.5,3-7.9,5.8-13.4,5.8c-5,0-7.7-4.1-7.9-9.4h0c-0.4,4.7-6.9,9.4-14.2,9.4c-7.2,0-11.8-3.5-11.8-10.1c0-12.1,17.3-10.1,26-16
		V36.9z M90.6,41.7c-5.5,3.5-9.5,4.3-9.5,13.2c0,2.9,0.5,8.2,4.8,8.2c3,0,4.7-3.4,4.7-6.2V41.7z"/>
	<path class="st0" d="M111,26.7h1.6c6.3,0,11.4-0.8,14.6-3.5c2.3-2.9,3.5-7.3,3.5-11.9h0.3v15.4h8.4V27H131v27.1
		c0,4.1,0.3,8.4,4.6,8.4c1.9,0,3.8-0.8,5.5-2.2l0.1,0.2c-3.5,3.1-8.8,7.1-15.1,7.1c-6.9,0-9.3-4.8-9.3-10.8V27H111V26.7z"/>
	<path class="st0" d="M169.1,67.1v-0.2c4.1,0,4.1-2.4,4.1-8.6V39.5c0-3.1-0.4-8-4.8-8c-2.2,0-4.5,1.3-6.8,3.3v23.5
		c0,4.8,0.1,8.6,4.2,8.6v0.2h-25.1v-0.2c6,0,6.7-1.9,6.7-10.1V18.5c0-5.6-1.2-7.8-7.7-6l0-0.2l22.1-5.9l-0.2,28.1
		c7.6-6.2,12.3-8.3,17-8.3c6.2,0,8.9,3.5,8.9,11.3v19.3c0,8.2,0.7,10.1,6.7,10.1v0.2H169.1z"/>
	<path class="st0" d="M210.9,42.5c0,8,4.2,16,14.2,16c6.1,0,10.6-2.6,13.2-7.2l0.1,0.1c-3.6,9.1-10.5,16.3-21.5,16.3
		c-12.5,0-20.5-8.6-20.5-20.9s10.6-20.5,23.1-20.5c12.7,0,19.7,6.5,17.2,16.3H210.9z M210.9,42.2h12.3c1.2-4.8,1.3-15.7-4.8-15.7
		C212.7,26.5,210.9,36.9,210.9,42.2z"/>
	<path class="st0" d="M261.1,37.3v19.5c0,8.2,0.4,10.1,8.2,10.1v0.2h-29.1v-0.2c6,0,6.7-1.9,6.7-10.1V38.3c0-5.6-1.2-7.8-7.7-6
		l0-0.2l22.1-5.9l-0.2,10.5c1.8-5.1,5.1-10.5,12.1-10.5c5.4,0,11,3.2,11,9.4c0,4.8-3.4,9.2-8.4,9.2c-3.5,0-6.6-2.1-6.8-6.5
		c2.6-0.6,3.8-3.2,3.8-5.6c0-2.2-1-4.8-3.7-4.8C265.4,27.9,262.7,32.9,261.1,37.3z"/>
</g>
</svg>
