<?xml version="1.0" encoding="utf-8"?>
<!-- Generator: Adobe Illustrator 19.2.1, SVG Export Plug-In . SVG Version: 6.00 Build 0)  -->
<svg version="1.1" id="Layer_1" xmlns="http://www.w3.org/2000/svg" xmlns:xlink="http://www.w3.org/1999/xlink" x="0px" y="0px"
	 viewBox="0 0 792 503.8" enable-background="new 0 0 792 503.8" xml:space="preserve">
<path id="sun_6_" fill="#FFBF15" d="M698.5,302.4c0,11.3-0.6,22.4-1.8,33.3c-7,63.6-33.6,121.2-73.8,166.7H169.3
	c-40.1-45.5-66.8-103.1-73.8-166.7c-1.2-10.9-1.8-22.1-1.8-33.3C93.7,135.4,229.1,0,396.1,0S698.5,135.4,698.5,302.4z"/>
<g id="mountains_7_">
	<path fill="#030059" d="M767.7,463.9l-35.9-63.9l-35.3-62.8l-52.4-93.3l-106.1,85.4L396,103.7L253.9,329.3l-106.1-85.5l-52.3,93.3
		l-43.2,77l-27.9,49.8L1.9,503.8h788.3L767.7,463.9z M637.6,285.5l45.1,81.3l-48.5-44.9l-13.4,32.3l-4.9-34L560,342.8L637.6,285.5z
		 M395.8,154.8l108.8,181.1l-65.6-57l-43.1,68.8l-43-68.6l-65.1,55.7L395.8,154.8z M154.4,285.5l76.7,56.8l-55-22l-6.2,34.1
		l-12.2-32.4l-47.9,43.9L154.4,285.5z"/>
	<polygon fill="#FFFFFF" points="682.6,366.8 634.2,321.9 620.8,354.2 615.9,320.2 560,342.8 637.6,285.5 	"/>
	<polygon fill="#FFFFFF" points="504.6,335.9 439,278.9 395.8,347.7 352.8,279.1 287.7,334.8 395.8,154.8 	"/>
	<polygon fill="#FFFFFF" points="231.1,342.3 176.1,320.2 169.9,354.3 157.8,321.9 109.9,365.8 154.4,285.5 	"/>
</g>
<g>
	<g>
		<path fill="#FFFFFF" d="M173.2,397.3v1.6c-3,0.4-5.5,1.6-7.7,3.4c-2.2,1.9-4.4,6-6.6,12.5l-23.1,64.6h-2.2l-27.7-69.8
			c-1.3-3.5-3-6.1-4.9-7.8c-1.9-1.7-4.7-2.7-8.4-2.9v-1.6h37.1v1.6c-1.8,0.1-3.3,0.4-4.5,0.9c-1.1,0.5-1.7,1.7-1.7,3.7
			c0,1.4,0.5,3.3,1.4,5.7l15.8,40.1l12.6-35.5c1.1-2.8,1.6-5.4,1.6-7.7c0-1.3-0.5-2.7-1.5-4.3c-1-1.6-3.2-2.6-6.7-2.9v-1.6H173.2z"
			/>
		<path fill="#FFFFFF" d="M217.5,396.5l27.3,70.3c1.5,3.6,3.2,6.1,5.2,7.4s4.4,2.3,7.3,2.7v1.6h-38.5v-1.6c5.3-0.3,7.9-2,7.9-5
			c0-0.5-0.1-1.1-0.2-2c-0.2-0.9-0.4-1.8-0.7-2.8c-0.3-1-0.5-1.6-0.5-1.8l-6.8-17.3h-24.3l-5.8,16.6c-0.7,2-1.1,3.8-1.1,5.4
			c0,2.5,0.7,4.2,2.2,5c1.5,0.9,3.2,1.4,5.2,1.7v1.6h-24.4v-1.6c2.5-0.3,4.9-1.4,7.1-3.6c2.2-2.1,4.3-6,6.4-11.7l23.1-65.2H217.5z
			 M196.1,442.7h20.2l-10.5-27.4L196.1,442.7z"/>
		<path fill="#FFFFFF" d="M298.1,397.3l49.6,52.4v-37.2c0-4.9-1-8.2-3-10c-2-1.8-5-3-9.1-3.6v-1.6h28v1.6c-3.1,0.3-5.4,1.2-6.9,2.5
			c-1.5,1.3-2.5,2.9-2.9,4.7c-0.4,1.8-0.7,3.9-0.7,6.3v67h-2l-59.5-62.6v45.7c0,3.8,0.8,7.1,2.5,9.8c1.6,2.7,4.7,4.2,9.1,4.6v1.6
			h-29v-1.6c8.1-0.7,12.2-4.7,12.1-12v-53.8c-0.2-0.1-0.5-0.4-0.9-0.8c-0.3-0.3-0.9-0.9-1.7-1.6c-0.8-0.7-1.5-1.4-2.1-2
			c-4.9-4.7-9.3-7.4-13-7.9v-1.6H298.1z"/>
		<path fill="#FFFFFF" d="M446.8,413.1h-0.9c-0.4-5.3-2-8.7-4.6-10.3c-2.7-1.6-6-2.3-9.9-2.3h-16.2v68.3c0,5.8,2.9,8.8,8.8,8.9v0.9
			h-25.9v-0.9c2.4-0.1,4.5-0.8,6.2-2.1s2.5-3.6,2.5-6.8v-68.3h-16.2c-3.9,0-7.2,0.8-9.9,2.3s-4.2,5-4.7,10.3h-0.9v-19.9h0.9
			c0.6,0.9,1.1,1.6,1.5,2s1,0.8,1.7,1.1c0.7,0.3,1.5,0.5,2.5,0.7c0.9,0.1,2.1,0.2,3.3,0.2h52.6c3.5,0,6.2-1.3,8.2-4h0.9V413.1z"/>
		<path fill="#FFFFFF" d="M541.5,478.5h-17v-13.5l-0.3-0.2c-2.4,5.5-5.9,9.5-10.6,12c-4.7,2.5-9.6,3.8-14.7,3.8
			c-5.8,0-11-1.4-15.6-4.1s-8-6.2-10.2-10.2c-1.5-2.9-2.5-5.9-2.9-9c-0.4-3.1-0.6-6.3-0.6-9.7v-40.4c0-2.4-0.5-4.5-1.5-6.1
			c-1-1.7-3.3-2.6-7-2.9v-0.9h25.5v0.9c-3.8,0.4-6.1,1.5-7.2,3.3c-1,1.7-1.5,3.7-1.5,5.8V447c0,8.1,0.8,14.1,2.5,17.9
			c1.8,4.1,4.4,7.3,7.9,9.7c3.5,2.3,7.5,3.5,12,3.5c1.9,0,4.1-0.3,6.7-1c2.6-0.7,5-1.8,7.2-3.3c6.7-4.6,10.1-12,10.1-22.1v-44.4
			c0-2.2-0.5-4.2-1.5-6c-1-1.7-3.5-2.8-7.3-3.1v-0.9h26v0.9c-3.8,0.2-6.2,1.2-7.2,3.1c-1.1,1.9-1.6,3.8-1.6,5.8v61.6
			c0,2.1,0.4,3.8,1.1,5s1.7,2.1,3,2.6c1.3,0.5,2.8,0.9,4.7,1.3V478.5z"/>
		<path fill="#FFFFFF" d="M558.9,398.4h-1.1v-1.2h28.1c4.5,0,8.4,0.7,11.5,2.1c3.1,1.4,5.6,3.2,7.3,5.3c1.7,2.2,3,4.4,3.8,6.8
			c0.8,2.4,1.1,4.7,1.1,7.1c0,2.9-0.6,5.8-1.8,8.5c-1.2,2.7-3.1,5-5.7,7c-2.6,2-5.7,3.3-9.6,4v0.2c4.9,2.4,9.3,7,13.5,14l7.3,12.4
			c3.3,5.6,6,9.1,8,10.5c2,1.5,4,2.3,5.9,2.5v0.9h-14.8c-0.6-0.8-1.2-1.6-1.8-2.3s-1.1-1.6-1.8-2.4c-0.4-0.6-0.9-1.4-1.6-2.5
			c-0.7-1.1-1.2-1.8-1.3-1.9l-9.7-16.1c-2-3.3-3.9-5.9-6-8c-2-2-3.9-3.5-5.7-4.4s-3.4-1.4-4.8-1.7s-3.1-0.3-5-0.3v29.7
			c0,5.8,2.9,8.8,8.8,8.9v0.9h-25.9v-0.9c1.6-0.1,3.1-0.4,4.3-0.9c1.3-0.5,2.3-1.5,3.1-2.8s1.2-3.1,1.2-5.3v-61.5
			c0-3.2-0.8-5.5-2.4-6.8C562.5,399.1,560.8,398.4,558.9,398.4z M574.8,436.8h4.6c4.9,0,8.8-0.7,11.9-2.1c3.1-1.4,5.4-3.4,6.8-6
			c1.4-2.6,2.1-5.8,2.1-9.5c0-3.1-0.6-6.2-1.9-9.2c-1.3-3-3.4-5.5-6.4-7.6c-3-2-7-3.1-12.1-3.1c-2.1,0-3.8,0.2-5.1,0.5V436.8z"/>
		<path fill="#FFFFFF" d="M640.5,398.2v-0.9h48.4v12.8h-0.8c0-6.8-4.6-10.3-13.7-10.3h-16.9v36.9h14.9c2.9,0,5.6-0.5,7.9-1.4
			c2.3-1,3.6-3.1,4-6.6h0.8v18.4h-0.8c-0.3-2.1-1-3.7-1.9-4.8c-0.9-1.1-1.8-1.9-2.7-2.2c-0.9-0.4-1.7-0.6-2.4-0.6
			c-1.3-0.2-2.7-0.3-4.1-0.3h-15.6v28.9c0,2.2,0.4,4,1.2,5.6c0.8,1.6,2.7,2.4,5.8,2.4h12.1c2.9,0,5.3-0.4,7.2-1.3
			c1.9-0.8,3.4-2,4.4-3.5c1.1-1.5,2-3.3,2.7-5.5h0.8l-2.8,12.7h-48.4v-0.9h1.1c1.7,0,3.4-0.7,5.1-2.1c1.7-1.4,2.5-3.7,2.5-6.8v-61.2
			c0-2.5-0.6-4.7-1.7-6.5c-1.1-1.8-3.1-2.8-5.9-2.8H640.5z"/>
	</g>
</g>
</svg>
