<?xml version="1.0" encoding="UTF-8"?>
<!DOCTYPE svg PUBLIC "-//W3C//DTD SVG 20000303 Stylable//EN" "http://www.w3.org/TR/2000/03/WD-SVG-20000303/DTD/svg-20000303-stylable.dtd">
<svg height="81.864" viewBox="0 0 999 466" width="175.5" xmlns="http://www.w3.org/2000/svg">
<path d="m144,199h-1l-3-3-2-7v-14h13l25-11h1l5-1h7 7 8l8,1 5,3 3,2-21,23-55,7z" fill="#35b500"/>
<path d="m112,402a20,7 0 1,0 -40,0 20,7 0 1,0 40,0" fill="#7f7f00"/>
<path d="m748,93 149,57 9,12-3,5-5,3-5,2-5,1-6,1h-5l-6,1-5,1-12,7-12,7-11,6-12,6-12,6-12,6-12,6-11,6-13,6-12,5-12,5-12,5-12,6-13,4-12,5-12,4-12,5-12,4-12,4-12,4-12,3-13,3-12,4-13,3-12,2-13,2-13,2-13,1-13,1-12,1h-14-13l-1-2-1-1v-2-2l1-2-2-2-3-1h-2l-3,2-2,5v6l1,6 1,6 4,3 5,1 5,1h6 5l5,2 3,3 3,6 1,3 1,4 1,4-2,3-6,3-6,1-6-2-7-2-6-1-4,1-3,4-1,9-6,6-5,3-6,2-7,1h-7-7-7-6l-1-1h-2l-1-1-1-1-1-4 2-4 3-4 4-3-2-4-3-2-4-2-4-1h-4-5l-4,1h-4l-2,1 2,2 3,2 1,3-2,2-3,4-3,4-3,3-5,2-3-1-3-1-3-1-3-1-3-2-3-2-2-3-1-3 1-3 2-2 3-1 2-1h3l3-1 2-1 1-2-2-1h-2l-3-1h-2l-3,1h-2l-2,2-2,1-2,3-1,2-3,3-2,3-2,2-3,2-2,2-4,1h-3l-3,1h-3-3l-3-1-3-1-3-2-2-2-2,2-2,3-1,3-2,3-2,4-2,2-3,2-4,2h-3-3-3l-3-1h-3-4l-3,1-2,1 2,6-1,7-2,6-3,6-3,3-4,2-4,1-4,1-5,1-4,2-3,2-4,3-2,8-4,4-5,3-7,1h-8-8-7l-6,2-6-2h-5-7-5-6l-5-1-6-3-4-4 2-5 3-4 4-3 4-4 4-3 5-2 4-4 4-3 3-2h4l4-1h4 3l4-2 1-2 1-3-6-1h-5-5-5-6-5l-5-1h-6-6-5l-5-1-5-1h-6l-5-2-5-1-5-2-5-5-3-6-2-7 2-6 3-4-3-2-2-2-1-3 2-3-6-2h-7-8-7-6l-6-3-3-5v-9l3-3 3-3 1-4-3-3-2-2h-3-3-3l-3,1-3,1-3-1-3-1-3,3-4,2-4,2-4,1h-5-4l-4-1h-3l-1-4-1-4 1-3 2-3 2-3 3-2 3-2 3-2 4,1 3-1 2-1 2-2 2-3 2-3 2-2 2-3 7-3 6-4 6-4 7-4 6-4 7-4 6-4 7-4 4-12 7-6 9-5 10-3 10-3 8-4 6-7 2-11 5-7 6-3 7-2h8l7,1 7-1 7-2 6-5 2-1 3-1 2-1h3l3-1 2-1 2-1 3-1-6-2-7-2h-6-7l-7,1-6,1-7,1-7,1-3,2-5,2-4,1-5,1-4,1-3,2v4l1,7-1,1h-1-2-1l-3-4-1-6 1-5 1-5 4-6 4-5 6-5 4-4 6-5 5-4 6-4 5-4 6-3 6-4 6-3 6-4 6-3 6-3 6-3 6-3 10-5 10-6 11-4 10-5 11-4 11-4 11-4 11-3 12-4 11-3 11-3 12-2 12-3 12-2 11-2 12-2 12-2 12-1 12-1 12-1 12-1 12-1h12 12 13 12 12l12,1h12l13,1 11,1 13,1 10,2 9,2 10,2 10,2 9,3 11,2 9,2 10,2 10,3 10,2 9,3 10,2 9,3 10,4 9,4 9,3z"/>
<path d="m888,162-10,2-9,3-9,3-9,4-9,4-9,4-8,6-9,4-8,5-9,5-8,5-9,6-8,4-9,4-9,4-9,4-16,6-16,6-16,7-16,6-16,6-16,5-16,6-17,5-16,5-17,4-17,3-17,4-17,2-18,2-18,1-17,1 1-2v-1-2-1l-1-2-1-1-1-1h-2l3-4 3-4 2-3-1-5-3-4-5-2-5-1-4-1h-5-6-4-5l1-3 1-3 2-3 3-3 1-4v-3l-2-3-5-3 7-4 8-3 7-4 7-4 8-3 7-3 8-2 8-3 7-3 8-3 8-2 7-2 9-3 7-2 9-2 7-2 19-5 19-5 19-4 19-3 20-3 19-3 20-2 20-2 21-2 20-2 20-1h20l20-1h20 20 20l2,1z" fill="#3aba00"/>
<path d="m891,162 1-1h1 1l-4-4-10-4-10-4-11-4-10-4-10-4-11-4-10-4-11-4-10-4-10-4-10-4-11-4-10-4-11-4-10-4-11-4-12-4-12-4-12-4-13-4-13-3-13-3-13-2-13-3-13-2-14-2-13-2-14-1-13-1-14-1h-14-13-14-14-13l-14,1-14,1-13,2-13,2-14,1-14,2-13,3-13,2-13,3-13,3-13,3-12,4-13,3h15l13,1 15,1 14,2 15,2 14,3 15,3 14,3 14,4 15,4 14,4 14,5 14,6 13,5 13,5 14,6 3,2 4,3 3,2 4,2 4,3 3,3 2,3 3,3-5,4-5,3-6,3-6,3-5,3-6,2-6,3-6,2-6,2-6,3-6,2-6,2-5,2-7,2-5,3-6,2-24-10-14-4-13-5-13-4-14-4-13-3-13-4-14-4-14-3-13-4-14-2-14-3-14-2-14-2-14-2-14-1-15-1-4-4v-3-3l1-3 2-3 79-40-10,4-9,4-10,4-10,4-10,4-9,4-10,5-9,5-9,5-10,5-9,6-9,5-8,7-9,6-8,7-8,7h2 2l2-1 2-1 2-1 1-1 2-1 2-1 9-2 9-1 9-1h9l9,1 8,1 8,4 8,4 11,7 13,5 12,4 14,3 14,2 13,1 15,2 14,1 14,1 13,2 14,2 13,3 13,5 12,6 11,7 11,10 12-7 14-6 13-6 14-5 14-5 14-5 13-4 15-4 14-4 14-4 14-3 15-3 14-3 15-3 14-3 14-3 15-2 14-1 14-2 14-2 14-1 13-1 14-1 14-1 14-1h14l14-1 13,1h15l14,1 13,1 15,2 1,1 1,1 1,2v1l1,1z" fill="#7fff00"/>
<path d="m542,161-10,5-10,4-10,4-10,3-10,3-10,4-10,5-9,5-11-5-12-6-11-4-12-4-12-4-13-3-11-4-13-3-12-3-13-2-12-3-12-3-13-2-12-4-13-2-12-3-6-1h-5l-5-1h-6l-6-1h-5-6-6l11-5 10-5 10-5 10-5 10-5 10-5 11-5 10-5 16,1 16,1 16,2 15,2 15,3 15,3 15,3 15,4 15,4 14,6 14,5 15,5 14,6 13,7 14,6 14,7z" fill="#d37214"/>
<path d="m390,214 8,2 6,4 6,4 7,5 6,5 6,5 6,4 6,5-3,5-3,5-1,5 4,5 3,4 4,2h4 5l5-1h5 5l4,1-3,5-4,4-4,4-4,5-5,4-2,5-1,5 2,7 1,4 1,4 1,4 5,2 4,2 5,1h5 5l5,1 3,2 3,4 1,5-5,1-6-1-5-1-6-2-5-1-4,1-4,3-2,6 1,4-1,3-1,2-2,2-3,2-2,2-3,1-2,2h-3l-4,1h-4-3-4-3l-4-1h-4l2-3 4-2h4l3-2 8-12-1-2-2-2-2-1-2-1h-3-2l-2,1-2,1-2,2-3-4-3-3-5-1h-5-5l-5,1-5,1-4,1-3,1-3-2-3-2-3-1h-6l-6,1-6,1-6,1-6,2-6,1-6,1h-6l-9,2-5,5-5,7-4,6-4,6-6,4-7,2-9-3-2-1h-3l-2,1-2,2-2,2-2,2-1,2-2,2 2,5 1,6-1,6-3,4-5,1-5,2-5,1-5,2-5,3-4,3-4,4-3,5v5h-5l-4,1-6,1h-4-5-4-5l-5-2-4,1h-4-4-5-4-4l-4-1-4-2 2-2 3-2h3 3l2-5 2-4 3-4 5-2 8-2 8-1 10-1 9-1 8-1 7-4 6-6 3-9-2-2-2-1h-2l-3,1v4l-2,4-3,3-4,1h-4-3l-3-1v-4l-1-3-2-2-3-1h-3l-3,1h-4l-4,1-3-1-4,1-4-1-3-2-4-2-3-3h-3l-3,1-4,4-7-1-7-1-6,1h-8l-6-1-5-3-4-6-2-8 6-2 4-3 1-5 1-5v-4l2-4 4-2 7-1 1-1 1-1v-2-2h-3-4l-4,1-3,2-3,2-3,3-3,2-2,3v-2l-1-2-1-2-3-2-5-2h-5l-5,1-5,1-5,1h-5l-4-1-5-4 3-5 3-5 2-5-2-6-1-3-1-2-2-1-2-2-3-1h-2l-2,1-3,1h-2l-3,2h-2l-3-1-3-4-2-3-1-4 1-4 9-6 9-5 10-5 9-5 9-6 7-6 7-8 4-10 7-4 8-3 9-2 8-3 7-4 6-5 4-6 1-10 6-4 7-2h8 7 7l7-1 6-3 5-7 3-1h3l2-1 3-1 2-1 2-1h3l2-1 10,5 9,4 10,4 10,3 10,3 10,2 11,2 10,1 11,2 10,1 11,1 11,1 11,2 10,2 11,1 10,2z" fill="#bfbf7f"/>
<path d="m430,306-1,3-1,3-3,3-2,1-3,1h-2-3-2l-2-1-2-1-2-1-2-3 2-5 3-5 4-3 5-3h6l1,3v5l4,3z"/>
<path d="m422,307a4,4 0 1,0 -8,0 4,4 0 1,0 8,0" fill="#7f7f00"/>
<path d="m337,352a11,5 0 1,0 -22,0 11,5 0 1,0 22,0" fill="#7f7f00"/>
<path d="m374,356a6,4 0 1,0 -12,0 6,4 0 1,0 12,0" fill="#7f7f00"/>
<path d="m343,397a19,12 0 1,0 -38,0 19,12 0 1,0 38,0"/>
<path d="m335,397a11,7 0 1,0 -22,0 11,7 0 1,0 22,0" fill="#7f7f00"/>
<path d="m94,393-1,4-2,2-4,2-3,2 3,3 4,2h4l4-1 2-2v-3l-2-2-1-3 1-1 1-1 2-1h2l3,3 1,4-1,4v3l-3,2-3,2-2,1-3,1h-4-3l-3-1h-3l-4-1-2-3v-4l1-3 1-2 1-2 2-1 3-1 2-2h2l2-1h3z"/>
<path d="m67,286 1,1 3,2 5,5 4,5 4,5 3,5v6l-4,4-2,2 1,1h4 4 6 6 8 7 7l7,1 5,1 5,2 2,2 1,4-2,5-4,5-4,6-1,5 2,4 3,3 6,3 8,1 8,1 10,1h9l11-1 9-1 9-2 8-2 7-3 5-3 3-3 4-4h6l7,3 10,4 9,2h11l10-6 11-12 3-7-1-6-4-5-7-4-9-4-10-3-12-2-12-2-11-2-10-2-8-1-7-2-4-2v-3l5-3 8-4 12-5 11-4 11-5 11-6 10-5 10-5 10-4 10-4 9-4 8-2 7-2h7 6l5,2 4,4 4,5 4,5 4,4 4,2 5,1h5l4-1 3-2 2-3 1-4-1-5-3-5-5-5-8-6-11-6-14-6-18-6-18-5-15-4-11-2-9-1h-7l-5,1-3,1-2,2-1,1-1,2v1 1l-1-1-2-1-3-4-4-4-10-8-11-4-9-1-8,2-6,4-3,6-1,7 2,8 3,9v11l-1,11-4,11-7,9-10,7-13,3-17-3-10-2-9-2-9-2-8-1h-7-8-7l-6,1-6,1-4,2-4,2-3,2-2,3-1,3v3l1,3z" fill="#727233"/>
<path d="m241,230a11,11 0 1,0 -22,0 11,11 0 1,0 22,0"/>
<path d="m232,229a2,2 0 1,0 -4,0 2,2 0 1,0 4,0" fill="#7f7f00"/>
<path d="m337,241h3 3 3l2,2-2,5-3,4-4,4-4,2-4,1h-2-4-2-3l-3-1-2-2-1-3v-3l1-3 2-3 2-2 2-2 3-2 3-1 2-1h3l3,1 1,1 1,3z"/>
<path d="m338,248a8,4 0 1,0 -16,0 8,4 0 1,0 16,0" fill="#7f7f00"/>
<path d="m156,253v3l-1,3-1,2-2,3-2,2-3,1-3,2-2,2-4,1-3-1-4-1-3-2-2-5 1-4 3-4 2-4 3-3 3-1 3-1 3-1 2,4 3,2 3,1 4,1z"/>
<path d="m146,258a6,6 0 1,0 -12,0 6,6 0 1,0 12,0" fill="#7f7f00"/>
<path d="m269,270a20,9 0 1,0 -40,0 20,9 0 1,0 40,0"/>
<path d="m255,271a8,2 0 1,0 -16,0 8,2 0 1,0 16,0" fill="#7f7f00"/>
<path d="m264,339a16,10 0 1,0 -32,0 16,10 0 1,0 32,0" fill="#7f7f00"/>
<path d="m256,330v2 2l-1,1-1,1-3-2-3,1-4,2-3,2-1,1-1,2-1,2v2l2,2 4,1 3-1 3-1 3-2 3-1 2-2 3-3 2-2 2-3 2-3 2-3h4l-1,4-1,4-3,3-3,4-3,2-3,3-4,2-3,2h-3-3-3l-3,1-3-1h-3l-2-2-1-3 1-4 2-3 3-4 3-3 4-3 3-1h5l4,1z"/>
<path d="m180,312a11,14 0 1,0 -22,0 11,14 0 1,0 22,0" fill="#7f7f00"/>
<path d="m159,321 3,3 3-1 3-3 3-1 2-4 2-4v-4l-3-3 2-1 1-1 2,1h2l2,2 1,3v3l-2,3-1,2-1,3-2,2-2,2-3,2-2,2-3,2-3,1-3-1-4-1-3-2-1-4 1-6 2-6 4-4 5-3 1,2v2l-1,2-2,2-2,2-1,2-1,3 1,3z"/>
<path d="m599,266 1-1 2-2 3-3 4-3 4-3 4-4 6-4 6-3 6-4 7-3 8-2 8-2 8-2 9-1 9,1h9 10l9-1 9-2 10-2 8-3 9-3 8-3 8-3 8-4 7-4 6-4 7-4 5-4 5-4 4-4 3-6-2-3-8-3h-11l-13,1-12,2-10,3-7,4-3,2-2,3-3,2-4,3-4,3-5,2-4,2-5,3-6,1-6,2-6,1-6,1-7,1-7-1-8-1-8-2-9-2-12-2-13-1h-15-16-17l-16,1-15,2-14,2-12,2-11,4-7,3-4,4v5l4,6 9,6 11,6 8,6 6,6 6,5 4,5 3,5 2,4 3,4 2,2 3,2 3,1 4-1 5-1 6-3 9-4 10-6z" fill="#058400"/>
<path d="m777,182-8,3-8,2-7,3-8,2-7,2-8,2-8,2-7,2-8,3-8,2-7,2-8,2-7,2-8,2-8,2-7,2 7-2 8-3 8-2 7-3 8-3 8-2 8-3 7-2 8-2 8-3 7-3 8-3 8-2 7-3 8-3 8-3 6,1-7,6z"/>
<path d="m571,222-1,10-4,9-1,10 5,9 2,2 2,1 2,2v3h-4l-4,1-3,2-5,1-4,1h-4-4l-4-1-5-5-3-4-2-5-2-5-1-6-1-5v-6l1-5 1-4v-5l1-3 4-2h5 4 4 5l4,1 5,1 4,1 3,2z"/>
<path d="m562,226-3,9-2,9 1,10 5,8-4,1-3,1h-4-3l-5-6-3-8-1-9 2-8v-4l1-3 2-2h3 3l4,1h3l4,1z" fill="#fff"/>
<path d="m579,164 2-1h6l9-2 12-2 13-2 16-2 18-3 18-2 19-3 20-3 19-2 18-2 17-2 16-1h14 11 9 5l2-1v-1l-3-2-4-1-6-2-8-3-8-2-9-3-9-3-10-3-9-3-9-2-7-3-7-3-6-2-8-2-8-1h-9l-10,1h-10l-10,1-11,1-11,1-10,1h-10-10-9l-7-2-8-2-6-3-6-3-10-3-10-3-13-2-13-3-13-2-13-2-12-1-11-1h-10-7l-5,1-2,2 1,2 6,3 10,4 12,4 12,5 11,6 11,5 9,6 9,7 8,6 6,7 5,6 4,6 2,6v5l-1,5-3,4-5,4-8,2 1,1 3,1 4,1 4,1 4-1 4-2 3-4 1-7z" fill="#4ccc00"/>
<path d="m265,132h2l4-1h5 7 7 9l8,1 8,1 5,1 5,2 5,2 7,2 7,2 6,3 8,2 7,2 7,2 7,2 6,1h6l6-1 4-1 4-2 3-3 3-7 2-5 1-5 2-4 2-4 3-1 5-1h8l6,1 6,2 7,3 8,3 8,4 7,3 9,5 7,4 7,5 6,4 5,4 4,3 2,3 1,3-1,1-3,1h-10-11l-11-1h-12-10-9l-6,1-2,1-2,1h-5l-8-1-11-1-13-2-14-3-16-3-15-3-16-3-16-4-15-3-14-4-12-4-9-3-7-3-4-2z" fill="#a34200"/>
<path d="m815,1 6,6 4,7 5,7 5,7 5,6 5,6 5,7 7,5 10,1 10,1 10,1 10,1 9,2 10,1 10,1 9,1 8-2 8-1h8 8l8,1 8,1 7,1 7,1v5l-1,5-2,5-1,5-3,21-4,22-3,21-3,22-5,30-3,31-3,31-3,32-6,4-7,3-6,3-7,4-7,4-6,4-6,4-5,5-11,2h-10l-11,1h-11-11-11l-11-1-11-1-11-2-11-1-11-2-11-2-11-2-10-2-10-3-11-3-8-3-4-6-1-6 1-7 2-8 2-9 1-7-1-8 2-54 4-53 3-54 4-54 2-2 2-1h2 3 3 2 3l2,1 4,1 4,1h4l4,1h4l4,1h4 4l-19-29 2-4 3-1h4l5-1 3-1h2 3l2-1 3-1h2 4l2-1z"/>
<path d="m837,47-27-5-17-29 8-3 6,1 6,4 5,6 5,7 4,7 5,7 5,5z" fill="#2d6dad"/>
<path d="m933,67 5,3-6,22-4,23-4,23-3,23-3,24-2,24-3,24-1,24-12-12-12-11-10-12-11-12-10-13-10-13-10-12-9-13-9-13-9-13-9-13-9-13-9-13-8-14-9-12-9-13-1-13 11,2 11,1 11,2 11,1 11,2 11,2 11,2 11,2 11,2 11,1 11,2 11,2 11,1 11,2 12,1h11z" fill="#7fbfff"/>
<path d="m986,68-5,26-5,26-4,27-4,27-3,27-3,28-2,27-2,28-34,21-1-26v-27l2-28 2-26 2-17 2-17 2-16 4-17 2-17 4-17 3-16 4-16 36,3z" fill="#2d6dad"/>
<path d="m762,74 7,13 9,13 8,13 9,12 8,13 9,13 9,12 9,12 9,13 10,12 10,12 10,11 10,12 11,11 11,12 11,11-1,12v13 11l-3,12h-4l-11-11-11-10-10-11-11-11-10-11-10-11-10-12-9-11-9-11-10-12-9-11-10-12-9-11-9-11-9-12-9-11 2-18 2-18v-18l1-18 9,8z" fill="#ff0"/>
<path d="m902,87 2-2 3-1 4-1h3l6,5 3,6 1,6-2,7-2,3-1,4-1,3v4l2,2 2,3v3l-1,2-2,2h-3l-2,1-3-1h-2l-3-1h-2l-2-1-3,3-3,3-3,3-4,2-4,1-4,1h-4-4l-2,3-2,3-2,2-3,1h-4l-4-2-4-3-3-4v-7l-3-6-5-5-2-6h-3-2-3-3l-2-1-2-1-2-1-1-3v-4l1-2 3-2 2-3v-8l1-7 3-8 6-6 5-1h4l4,1 5,1 4,1 4,2 4,1h4l1-2-1-2-1-2 1-2h2l2,1 1,2h2l1-1 1-2 1-1h2l2,2 2,3 2,2 2,3 2,2 3,3 3,1 3,1z"/>
<path d="m879,85h1l2-1h2l2-2v-2l1,2 2,2 2,2 2,2 3,2 2,1 3,1 2,1 2-2 2-2 2-1h3l4,3 3,4v4l-1,5-3,6-2,6v6l1,6h-2-3l-2-1-1-3v-5l2-5 1-5v-6l-2-2-2-2-2-2-2-2-2,3 1,3 3,2 1,4-1,4-2,4-1,4-1,4-1,5-2,3-4,3-4,2-3,1-4,1h-4l-2-2v-2-2l2-1 1-1h3 3l4-1 3-1-1-6-3-5-4-4-4-5h-10l2-2 2-4v-3l-1-2-2-2-2-2h-2-3l-2,3v4 3l1,4 1,1v1h-2l-2,2-2,2 4,7h-3l-2,2-2,2-3,2-2,2h-2l-1-2-1-5-1-8 3-8 4-7 4-6-3-3-5,6-4,5-4,7-2,7h-2l-3,1h-3l-3-2 3-5 2-7 2-6 1-7 2-6 3-4 6-1 9,2 2,2 2,1 3,2 3,2 2,1 3,1h3 4l3-3z" fill="#8c8c4c"/>
<path d="m975,86-1,4-1,5-1,4-2,5h-3-4-3-3l-4-1-2-1-3-2-3-2 1-3 1-4 1-3 3-2h3 3 3l3-1h3 3 3l3,1z"/>
<path d="m965,93-1,1v1 1 1h-9v-5l10,1z" fill="#fff"/>
<path d="m891,102a5,5 0 1,0 -10,0 5,5 0 1,0 10,0"/>
<path d="m882,120v1l1,1v1h-11 2l2-2 3-1h3z" fill="#8c8c4c"/>
<path d="m858,141 1,1 1,1 1,1h1l1-4v-4l1-4 3-3 1,4v5l-2,5-3,3-2,1-3-1-2-2-1-2-1-4 1-4 2-4 4-2-2,3-1,3-1,4 1,3z" fill="#ff007f"/>
<path d="m896,320h-11-11-10l-11-1h-10l-10-1-10-1-9-1-10-2-10-1-10-3-9-2-10-2-9-3-10-2-9-3 5-37 3-38 1-38 2-36 9,11 8,11 9,11 9,11 9,11 8,11 9,10 9,11 9,11 10,10 9,11 10,10 9,11 10,10 10,10 11,11z" fill="#7fbfff"/>
<path d="m763,147 1,1 4,5 6,7 8,10 9,11 10,13 12,14 11,14 13,14 11,13 12,13 11,11 10,9 8,7 7,5 4,1 3-1 1-1-1-4-3-3-4-4-5-5-6-6-6-6-7-7-7-7-8-8-7-8-7-8-6-9-7-8-4-10-10-17-11-15-12-13-12-9-9-7-7-2-4,2 2,8z" fill="#b7b700"/>
<path d="m771,300 1,1h3l5,1 6,1 7,1 7,1 8,2 8,1 8,1 9,2 7,1 7,2h7l6,1 4,1h3l1-1-1-1-2-3-4-2-5-4-6-4-7-4-6-5-8-6-7-5-7-6-6-6-5-6-5-6-2-6-2-6-2-9-6-6-7-2-7,2-7,4-3,8-1,10 5,12 4,12v8l-4,5-4,4-4,2-1,2 3,1 10,2z" fill="#2d6dad"/>
<path d="m786,231 1,4-2,4-1,4-1,4 3,3 3,4 3,4 3,3 4,3 3,2h5l5-2h5l4,3 3,4 2,4-1,6-4,5-4,5-3,5-4,3-3,1h-5l-3-1-4-3-4-3-3-5-2-4 1-2 2-2 2-2-2-3-3-2-2-2-2-3-2-3-2-2-2-3-3-2-2-2-3,2-3,1h-2-3-2l-3-2-2-1-2-2-1-3-2-4v-3-3l5-3 3-4 3-4 3-5 3-4 3-2 5-1 6,1 7,12z"/>
<path d="m782,232v4l-1,2-3,2-3,2 3,4 3,5 3,3 3,4 3,4 4,3 3,4 3,4h2l3-1 2-1 2-1 2-1h2 2l3,2 1,2 1,2 1,3-1,2-3,1h-2-2l-3,3v2 1l2,1 1,2-2,3-2,1-2,1h-2-2l-2-1h-2l-2-1-2-3-1-2-1-2v-2l2-1 1-1 2-2 1-1-4-4-3-4-4-5-4-4-3-4-4-4-4-3-4-4-2,2 1,1v1 1 1l-4,1h-5l-3-2-2-4v-4l2-2 2-2 3-1 2-2 2-2 1-3-2-4 2-3 2-1 4-1h3l3,1 2,2 1,3 1,3z" fill="#ff7fbf"/>
<path d="m780,323 3,2 2,3 2,4 1,4h5 5l6,1 5,1 5,2 5,2 4,4 3,4 2,6-1,4-3,5-3,4-5,5-7,3-8,2-7,1h-8-8l-7-1-8-1-2-2-2-1-2-2-2-2-17,2-17,3-17,2-16,4-17,3-17,4-16,4-16,4-16,4-17,5-16,4-17,4-16,5-16,4-17,3-16,4-2,3-1,5-1,5-1,4-4,5-4,3-5,3-5,2-6,1h-6-5l-6-1-3-4-4-2-4,1h-4l-4,1-4,1-3-2-4-3-3-1-4,1h-4-5-4l-4-1-4-1-3-3-3-6-4-7-3-7 1-7 5-10 7-8 9-8 8-6 10-4 11-4 11-1h11l8,2 7,1h8 7 8l7-1 8-2 7-1 8-2 7-3 8-1 7-2 9-1 7-1 8-1h8 2 3 2 3l2-1h3 2l3-1h7l8-1 8-1 7-1 8-1 8-1 7-2 8-1 7-1 7-2 8-2 8-1 7-1 8-2 7-1 8-2 6-8 8-7 9-5 9-4 9-3h10l10,1 9,4z"/>
<path d="m779,336v2l-5-1-5,1-4,2-4,3-4,2h-4l-4-1-5-4h-2-3-2l-3,1h-3l-2,1-3,1-3,1 4-4 5-4 6-4 6-3 7-2 6-1 7-1h8l7,11z" fill="#cca321"/>
<path d="m815,358a28,14 0 1,0 -56,0 28,14 0 1,0 56,0" fill="#cca321"/>
<path d="m753,363-6,1-6,1-6,1h-6l-6,1-6,1-7,1-6,1-6,1-6,1-7,1-6,1-6,2-6,1-6,2-6,1-3-2-3-2-3-1-4-2-3-2-4-1-3-1h-4l7-1 7-2 8-1 7-1 7-1 8-2 7-1 8-1 7-2 7-1 7-1 8-1 7-1 7-1 7-1 7-1 9,13z" fill="#cca321"/>
<path d="m643,384-10,2-9,2-10,2-9,2-10,3-9,3-10,2-10,3-9,2-10,3-9,2-10,2-9,3-9,2-10,2-9,2 1-9-1-7-4-7-5-7 9-2 10-2 10-2 10-2 10-2 10-2 10-2 10-1 10-1 10-1h10 10l10,1 10,1 10,3 9,2 3,3z" fill="#cca321"/>
<path d="m456,386-7,3-7,3-8,4-6,4-6,5-7,5-5,6-6,6v3l-1,3-3,1-2,2h-4-3l-3,1-2,1-1-5-1-5v-5l3-5 6-7 8-6 8-6 9-4 9-2 9-2h10 10z" fill="#cca321"/>
<path d="m480,406-1,6-1,7 1,7v7l-2,7-2,6-4,4-7,3h-4-4-3l-3-1-3-1-3-1-3-2-2-2-2-4-2-4-1-5-1-4-1-3-2-4-3-3-4-2 4-5 5-4 6-5 6-3 7-3 7-2 7-1 7,1 8,11z" fill="#cca321"/>
<path d="m424,432-2,4-3,4-4,2-4,1h-5-4-5-4v-3h3 3l3-1 3-1 3-3 3-3 3-3 3-2 3-1 2,2 2,4z" fill="#cca321"/>
<path d="m429,449h-1-2l-1-1-1-1 2-2 3,4z" fill="#cca321"/>
<path d="m434,417v4l1,10 4,11 7,4 4-1h5l5-1 4-2 4-2 2-5 2-5v-7l-1-8-2-6-3-4-2-3h-3l-2,2-1,4v7 7l-2,4-2,2h-4l-3-1-4-3-5-3-4-4z" fill="#896000"/>
<path d="m501,408 1-1h4l5-1 7-2 9-2 9-2 10-2 11-2 11-3 11-2 10-2 10-1 9-2 7-1h5 5 4 1l-1-1h-4l-5-1-6-1h-7-7l-4,1h-5l-7,2-7,1-9,2-8,2-9,2-9,2-9,2-7,2-8,2-6,2-5,2-4,2-2,1v1z" fill="#896000"/>
<path d="m658,373 2-1 8-2 11-3 13-4 13-3 13-2 11-2 8,1 1,1v1l-2,1-4,1-6,2-6,2-7,1-8,2-8,1-8,2-8,1-7,1h-6l-5,1-3-1h-2z" fill="#896000"/>
<path d="m810,359a21,8 0 1,0 -42,0 21,8 0 1,0 42,0" fill="#896000"/>
<path d="m389,428v-1l1-2 1-3 2-5 4-5 5-5 8-5 10-5 9-4h3v2l-4,3-4,4-5,3-5,3-1,1h-1l-2,1-3,1-3,2-2,2-2,3-1,3 1,3 1,3v2l-1,1h-2-2-3l-2-1-2-1z" fill="#896000"/>
<path d="m25,307a7,4 0 1,0 -14,0 7,4 0 1,0 14,0" fill="#7f7f00"/>
</svg>
