<?xml version="1.0" encoding="utf-8"?>
<!-- Generator: Adobe Illustrator 18.0.0, SVG Export Plug-In . SVG Version: 6.00 Build 0)  -->
<!DOCTYPE svg PUBLIC "-//W3C//DTD SVG 1.1//EN" "http://www.w3.org/Graphics/SVG/1.1/DTD/svg11.dtd">
<svg version="1.1" id="Layer_1" xmlns="http://www.w3.org/2000/svg" xmlns:xlink="http://www.w3.org/1999/xlink" x="0px" y="0px"
	 viewBox="0 0 800 800" enable-background="new 0 0 800 800" xml:space="preserve">
<g>
	<g>
		<path d="M457.5,554.5c0-29.2-25-35.8-55.9-35.8l0,0l0,0h0l0,0c-30.9,0-55.9,6.6-55.9,35.8c0,17.7,25,44.5,55.9,44.5l0,0h0l0,0l0,0
			C432.5,599.1,457.5,572.3,457.5,554.5z"/>
		<g>
			<path d="M269.3,148.5c0,0-1.5,1-4.3,3.1c-2.8,2-6.9,5.1-12,9c-5.1,4-11.3,8.8-18.2,14.6c-6.9,5.7-14.6,12.4-22.8,19.8
				c-8.2,7.5-16.8,15.7-25.5,24.8c-8.7,9.1-17.6,19-26.2,29.6c-4.2,5.4-8.5,10.8-12.5,16.5c-2.1,2.8-4,5.8-6,8.7
				c-1,1.5-1.9,3-2.9,4.4c-0.9,1.5-1.9,3-2.8,4.5c-0.9,1.5-1.8,3-2.7,4.6c-0.9,1.5-1.7,3.1-2.6,4.6c-1.8,3.1-3.3,6.3-5,9.4
				c-0.8,1.6-1.5,3.2-2.3,4.8l-1.1,2.4c-0.4,0.8-0.7,1.6-1,2.4l-2.1,4.9l-1.9,4.9c-2.3,6.6-4.5,13.3-5.7,20.1
				c-0.8,3.4-1.2,6.8-1.7,10.1c-0.2,1.7-0.3,3.4-0.5,5c-0.1,0.8-0.2,1.7-0.2,2.5l-0.1,2.5c0,1.7-0.2,3.3-0.1,5
				c0.1,1.6,0.1,3.3,0.2,4.9l0,1.2l0.1,1.2l0.2,2.4c0.2,1.6,0.2,3.2,0.5,4.8c0.2,1.6,0.5,3.2,0.7,4.7c0.3,1.6,0.6,3.1,0.9,4.7
				c0.5,3.1,1.5,6.1,2.3,9.1c3.4,12,8.6,23.1,14.6,33.2c0.8,1.3,1.5,2.5,2.3,3.8c0.8,1.2,1.6,2.4,2.4,3.6c0.8,1.2,1.6,2.4,2.4,3.6
				c0.9,1.1,1.7,2.3,2.6,3.4c1.7,2.3,3.3,4.5,5.1,6.6c0.9,1.1,1.7,2.1,2.6,3.2c0.9,1,1.7,2.1,2.6,3.1c1.8,2,3.5,3.9,5.2,5.8
				c0.4,0.5,0.8,1,1.3,1.4c0.4,0.5,0.9,0.9,1.3,1.4c0.9,0.9,1.7,1.8,2.6,2.7c0.9,0.9,1.7,1.8,2.5,2.6c0.4,0.4,0.8,0.9,1.2,1.3
				c0.4,0.4,0.9,0.8,1.3,1.2c1.7,1.6,3.3,3.2,4.9,4.7c0.8,0.8,1.6,1.5,2.3,2.3c0.8,0.7,1.6,1.4,2.4,2.1c1.5,1.4,3,2.8,4.5,4.1
				c2.8,2.7,5.6,4.9,8,7.1c2.5,2.1,4.6,4.1,6.5,5.7c1.9,1.6,3.6,3,4.9,4.1c2.7,2.3,4.1,3.5,4.1,3.5l-1.2,2c0,0-1.8-0.7-5-2
				c-1.6-0.7-3.6-1.5-6-2.5c-2.4-1-5-2.3-8-3.7c-3-1.5-6.3-3-9.8-5.1c-1.7-1-3.6-2-5.4-3.1c-0.9-0.5-1.9-1.1-2.9-1.7
				c-0.9-0.6-1.9-1.2-2.9-1.8c-3.9-2.5-8.1-5.2-12.3-8.4c-1.1-0.8-2.1-1.6-3.2-2.4c-0.5-0.4-1.1-0.8-1.6-1.2
				c-0.5-0.4-1.1-0.9-1.6-1.3c-2.2-1.8-4.3-3.6-6.6-5.5c-2.2-1.9-4.4-4-6.6-6.1c-2.3-2-4.4-4.3-6.6-6.7c-1.1-1.2-2.2-2.3-3.3-3.5
				c-1-1.3-2.1-2.5-3.1-3.8c-1.1-1.3-2.1-2.6-3.2-3.9c-1-1.3-2-2.8-3-4.1c-8-11.1-15-24.3-19.2-39.1c-0.9-3.7-2-7.5-2.5-11.3
				c-0.2-1-0.3-1.9-0.5-2.9c-0.1-1-0.3-1.9-0.4-2.9c-0.2-2-0.3-3.9-0.5-5.9c-0.5-7.9-0.3-15.8,0.7-23.7l0.3-3c0.1-1,0.3-2,0.5-2.9
				c0.3-1.9,0.7-3.9,1-5.9c0.9-3.8,1.7-7.7,2.9-11.5c1-3.8,2.3-7.5,3.6-11.2c0.6-1.9,1.4-3.7,2.1-5.5c0.7-1.8,1.4-3.7,2.2-5.4
				l2.4-5.4l2.6-5.2c0.4-0.9,0.8-1.7,1.3-2.6l1.4-2.5c0.9-1.7,1.8-3.4,2.8-5.1c2-3.3,3.8-6.6,5.9-9.8c1-1.6,2-3.2,3.1-4.8
				c1.1-1.6,2.1-3.1,3.2-4.7c8.5-12.4,18-23.7,27.5-34.2c9.6-10.4,19.3-20,28.9-28.6c9.6-8.6,19-16.4,27.8-23.3
				c8.8-6.9,17.1-13,24.5-18.2c7.4-5.2,14-9.6,19.5-13.1c5.5-3.5,9.9-6.2,12.9-8c3-1.8,4.6-2.7,4.6-2.7L269.3,148.5z"/>
		</g>
		<g>
			<path d="M244.7,210.2c0,0-0.7,1.1-1.8,3.2c-1.2,2.1-2.9,5.2-5,9.1c-2.1,4-4.6,8.7-7.2,14.3c-2.7,5.5-5.5,11.8-8.4,18.7
				c-2.9,6.9-5.8,14.4-8.4,22.4c-2.6,8-5,16.5-6.9,25.4c-1.9,8.9-3.4,18-4,27.4c-0.6,9.3-0.6,18.8,0.4,28.1l0.4,3.5l0.2,1.8l0.3,1.7
				c0.4,2.3,0.8,4.6,1.1,6.9c0.5,2.3,1,4.6,1.5,6.8c0.2,1.1,0.5,2.3,0.9,3.4c0.3,1.1,0.6,2.2,0.9,3.3c0.3,1.1,0.6,2.2,0.9,3.3
				c0.4,1.1,0.8,2.2,1.1,3.3c0.4,1.1,0.7,2.2,1.1,3.3l0.5,1.6l0.1,0.4l0.2,0.6l0.3,0.9c0.8,2.3,1.7,4.6,2.5,6.9
				c0.4,1.1,0.8,2.4,1.2,3.6c0.4,1.2,0.8,2.4,1.2,3.6c3,9.5,5.3,18.8,6.9,27.8c0.3,2.3,0.7,4.5,1,6.7c0.2,2.2,0.5,4.4,0.7,6.6
				c0.1,2.2,0.3,4.3,0.4,6.4c0,1.1,0,2.1,0.1,3.2c0,1,0,2.1,0,3.1c-0.2,8.2-1.4,15.8-3.7,22.2c-1.1,3.2-2.5,6.1-4.1,8.7
				c-1.6,2.5-3.3,4.6-5,6.4c-3.5,3.4-7,5.1-9.3,5.9c-1.2,0.4-2.1,0.6-2.8,0.7c-0.6,0.1-1,0.1-1,0.1s1.2-0.5,3.1-2
				c0.9-0.7,2-1.7,3.1-3c1.1-1.3,2.2-2.8,3.2-4.6c1-1.8,1.8-3.9,2.5-6.3c0.6-2.4,1.2-5,1.4-7.8c0.1-0.7,0.1-1.4,0.1-2.2
				c0-0.7,0.1-1.5,0.1-2.2c0-1.5,0-3.1-0.1-4.7c-0.1-0.8-0.1-1.6-0.2-2.4c-0.1-0.8-0.2-1.7-0.3-2.5c-0.1-1.7-0.5-3.4-0.8-5.2
				c-0.3-1.8-0.7-3.6-1-5.4c-0.4-1.8-0.9-3.7-1.3-5.6c-0.5-1.9-1-3.8-1.6-5.8c-0.6-1.9-1.2-3.9-1.8-5.9c-2.6-8-5.8-16.3-9.3-24.8
				c-0.4-1-0.9-2.1-1.3-3.2c-0.5-1.1-0.9-2.1-1.4-3.2c-1-2.2-2-4.5-3-6.7l-0.4-0.8l-0.1-0.2l0-0.1c0.1,0.2,0,0,0,0l-0.2-0.5
				l-0.8-1.8c-0.5-1.2-1-2.5-1.5-3.7c-0.5-1.2-1-2.5-1.5-3.7c-0.4-1.3-0.8-2.6-1.3-3.8c-0.4-1.3-0.8-2.6-1.3-3.9
				c-0.4-1.3-0.8-2.6-1.1-3.9c-0.7-2.6-1.3-5.3-2-8c-0.5-2.7-1-5.4-1.5-8.1l-0.3-2l-0.2-2l-0.4-4.1c-1.1-10.9-0.9-22,0.3-32.6
				c1.2-10.7,3.6-20.9,6.6-30.6c3-9.6,6.7-18.6,10.8-26.8c1-2,2-4,3.1-6c1.1-1.9,2.1-3.8,3.2-5.7c2.2-3.7,4.3-7.2,6.5-10.5
				c4.4-6.6,8.7-12.3,12.8-17.2c4.1-4.9,7.9-8.9,11.1-12.2c3.2-3.2,5.9-5.6,7.7-7.2C243.6,211,244.7,210.2,244.7,210.2z"/>
		</g>
		<g>
			<path d="M221.5,441.6c0,0,0.3,0.2,0.9,0.6c0.6,0.4,1.4,0.9,2.5,1.7c1.1,0.7,2.3,1.6,3.8,2.7c1.4,1.1,3.1,2.3,4.8,3.7
				c1.7,1.4,3.5,2.9,5.4,4.6c1.9,1.7,3.8,3.6,5.7,5.6c1.9,2,3.8,4.3,5.5,6.6c1.8,2.4,3.4,4.9,4.9,7.6l1.1,2l0.1,0.1l0.1,0.3l0.1,0.2
				l0.2,0.5l0.4,1c0.3,0.6,0.6,1.5,0.8,2.2l0.4,1.2l0.3,1.1c0.8,2.9,1.3,5.8,1.6,8.5c0.4,2.7,0.7,5.3,1,7.7c0.2,1.2,0.3,2.4,0.5,3.5
				c0.1,0.6,0.2,1.1,0.3,1.6c0.1,0.5,0.2,1,0.4,1.6c0.5,2,1.1,3.8,1.7,5.4c0.7,1.5,1.4,2.9,2.1,3.9c0.6,1.1,1.3,1.8,1.8,2.3
				c0.4,0.5,0.7,0.8,0.7,0.8s-0.3-0.2-0.9-0.5c-0.6-0.4-1.5-0.9-2.5-1.8c-1-0.8-2.1-2-3.3-3.5c-0.5-0.8-1.1-1.6-1.6-2.5
				c-0.5-0.9-1-1.9-1.5-2.9c-0.9-2.1-1.7-4.4-2.4-6.9c-0.7-2.5-1.3-5.1-1.9-7.7c-0.6-2.6-1.2-5.3-2-7.8l-0.3-1l-0.3-0.9
				c-0.2-0.6-0.4-1.1-0.7-1.8l-0.5-1l-0.2-0.5l-0.1-0.2l0-0.1l0,0c0,0-0.1-0.1,0,0.1l-0.1-0.1l-1-1.8c-1.3-2.4-2.8-4.8-4.4-7.1
				c-0.8-1.1-1.6-2.2-2.4-3.4c-0.8-1.1-1.6-2.2-2.5-3.2c-1.6-2.1-3.3-4.1-4.9-6c-1.6-1.9-3.1-3.7-4.6-5.3c-1.4-1.7-2.7-3.2-3.9-4.5
				c-1.2-1.3-2.2-2.5-3-3.5c-0.8-1-1.4-1.8-1.9-2.3C221.7,441.9,221.5,441.6,221.5,441.6z"/>
		</g>
		<g>
			<path d="M291.7,464.7c0,0-0.4,4.2-1.2,11.6c-0.4,3.7-0.8,8.2-1.3,13.3c-0.5,5.1-1,10.9-1.4,17.2c-0.4,6.3-0.8,13.1-1.1,20.2
				c-0.3,7.2-0.4,14.7-0.3,22.5c0.1,3.9,0.2,7.8,0.4,11.8c0.3,3.9,0.6,7.9,1,11.9c0.2,2,0.5,4,0.8,5.9c0.1,1,0.3,2,0.5,3
				c0.2,1,0.3,2,0.5,2.9c0.7,3.9,1.7,7.8,2.9,11.5c1.1,3.8,2.6,7.3,4.2,10.7c0.4,0.8,0.8,1.7,1.3,2.5l1.4,2.4l1.5,2.2
				c0.5,0.8,1.1,1.4,1.7,2.1c2.3,2.7,4.8,5,7.7,6.9c2.9,1.8,6,3.1,9.2,4.1c0.8,0.2,1.7,0.4,2.5,0.6c0.8,0.2,1.7,0.3,2.5,0.4l1.3,0.2
				c0.4,0.1,0.9,0.1,1.3,0.1c0.9,0.1,1.7,0.2,2.6,0.2c0.9,0.1,1.7,0,2.6,0c0.9,0,1.7,0.1,2.6,0c0.9-0.1,1.7-0.1,2.6-0.2
				c0.9-0.1,1.7-0.1,2.5-0.2c6.8-0.7,13.3-2.2,19.2-4c0.7-0.2,1.5-0.4,2.2-0.6c0.7-0.2,1.4-0.5,2.1-0.7c1.4-0.5,2.8-0.9,4.1-1.3
				c2.7-1,5.2-1.9,7.6-2.8c2.4-0.9,4.6-1.8,6.7-2.6c2.1-0.9,3.9-1.7,5.6-2.4c3.4-1.4,6.1-2.6,7.9-3.4c1.8-0.8,2.8-1.2,2.8-1.2
				s-0.8,0.7-2.4,1.9c-0.8,0.6-1.8,1.4-2.9,2.2c-0.6,0.4-1.2,0.9-1.9,1.4c-0.7,0.5-1.4,1-2.2,1.5c-1.5,1.1-3.3,2.2-5.1,3.5
				c-1.9,1.2-4,2.5-6.2,3.9c-2.3,1.3-4.7,2.7-7.3,4.1c-1.3,0.7-2.7,1.3-4.1,2c-0.7,0.3-1.4,0.7-2.1,1c-0.7,0.3-1.5,0.6-2.2,1
				c-6,2.7-12.7,5.1-20.3,6.7c-0.9,0.2-1.9,0.4-2.9,0.5c-1,0.1-2,0.3-3,0.5c-1,0.2-2,0.2-3,0.3c-1,0.1-2.1,0.2-3.1,0.2
				c-2.1,0-4.2,0.1-6.4-0.2c-1.1-0.1-2.2-0.2-3.3-0.3c-1.1-0.2-2.2-0.4-3.3-0.6c-4.4-1-8.9-2.6-13-5c-1-0.6-2-1.3-3-2
				c-0.5-0.3-1-0.7-1.5-1.1l-1.4-1.1c-1-0.7-1.8-1.6-2.7-2.4l-1.3-1.3c-0.4-0.4-0.8-0.9-1.2-1.3c-0.8-0.9-1.6-1.8-2.3-2.7l-2.1-2.9
				l-1.9-3c-0.6-1-1.1-2.1-1.7-3.1c-2.1-4.2-3.9-8.4-5.2-12.8c-2.7-8.7-4.1-17.5-4.8-26.1c-0.4-4.3-0.5-8.6-0.6-12.8
				c0-4.2,0-8.3,0.2-12.4c0.7-16.2,3.1-31.1,5.7-43.6c1.3-6.3,2.7-12,4-17c1.3-5,2.7-9.4,3.8-12.9c1.1-3.6,2.1-6.3,2.8-8.2
				C291.3,465.6,291.7,464.7,291.7,464.7z"/>
		</g>
		<circle fill="#58595B" cx="332.8" cy="589.4" r="3.6"/>
		<circle fill="#58595B" cx="343" cy="572.1" r="2.6"/>
		<circle fill="#58595B" cx="325" cy="572.1" r="2.4"/>
		<circle fill="#58595B" cx="304" cy="568.5" r="2.2"/>
		<circle fill="#58595B" cx="314.1" cy="585.8" r="2.3"/>
		<circle fill="#58595B" cx="321.4" cy="604.5" r="2.8"/>
		<circle fill="#58595B" cx="339.4" cy="604.5" r="2.1"/>
		<circle fill="#58595B" cx="349.3" cy="593" r="3"/>
		<path d="M274.6,341.4c0,0,0.1-0.1,0.3-0.2c0.2-0.1,0.6-0.4,1-0.6c0.4-0.2,0.9-0.5,1.5-0.8c0.3-0.2,0.6-0.3,0.9-0.5
			c0.3-0.2,0.7-0.3,1-0.5c1.4-0.7,3.1-1.5,4.9-2.2c1.8-0.7,3.8-1.3,5.9-1.9c4.1-1.1,8.6-1.5,12.8-1.1c4.3,0.3,8.4,1.6,12.1,3.5
			c3.7,2,7,4.7,9.6,8.1c2.7,3.4,4.7,7.3,6.1,11.4c0.3,1.1,0.7,2,0.9,3c0.3,1,0.5,1.9,0.7,2.9c0.4,1.9,0.7,3.7,0.9,5.3
			c0.1,0.8,0.2,1.5,0.2,2.2c0,0.7,0.1,1.2,0.1,1.7c0,0.4,0,0.9,0,1.1c0,0.3,0,0.4,0,0.4s-0.1,0.1-0.3,0.2c-0.2,0.1-0.6,0.4-1,0.6
			c-0.4,0.2-0.9,0.5-1.5,0.8c-0.6,0.4-1.2,0.7-2,1c-1.4,0.7-3.1,1.5-4.9,2.2c-0.9,0.4-1.8,0.6-2.9,1c-1,0.3-2,0.6-3,0.9
			c-4.1,1.1-8.6,1.5-12.8,1.1c-4.3-0.4-8.4-1.6-12.1-3.6c-3.7-2-7-4.8-9.6-8.2c-2.7-3.4-4.7-7.3-6.1-11.4c-0.7-2-1.3-4-1.7-5.9
			c-0.4-1.9-0.7-3.7-0.9-5.3c0-0.4-0.1-0.8-0.1-1.1c0-0.4-0.1-0.7-0.1-1.1c0-0.7-0.1-1.2-0.1-1.7c0-0.4,0-0.9,0-1.1
			C274.6,341.5,274.6,341.4,274.6,341.4z"/>
		<circle fill="#FFFFFF" cx="315.2" cy="352.4" r="4.2"/>
		<g>
			<polygon fill="#58595B" points="333.8,372.1 332.5,388.3 331.3,372.1 			"/>
		</g>
		
			<ellipse transform="matrix(0.8392 0.5439 -0.5439 0.8392 367.8699 -111.3543)" fill="#FFFFFF" cx="372.2" cy="566.3" rx="20.6" ry="9.9"/>
		<g>
			<path fill="#FFFFFF" d="M401.6,549.6c0,0,0,0.8,0.1,2.1c0,1.3,0.1,3.2,0.2,5.5c0,2.3,0.1,4.9,0.1,7.8c0,2.8,0,5.9,0.1,8.9
				c0,3,0,6.1-0.1,8.9c0,2.8-0.1,5.5-0.1,7.8c0,2.3-0.1,4.2-0.2,5.5c-0.1,1.3-0.1,2.1-0.1,2.1s0-0.8-0.1-2.1c0-1.3-0.1-3.2-0.2-5.5
				c0-2.3-0.1-4.9-0.1-7.8c0-2.8,0-5.9-0.1-8.9c0-3,0-6.1,0.1-8.9c0-2.8,0.1-5.5,0.1-7.8c0-2.3,0.1-4.2,0.2-5.5
				C401.6,550.4,401.6,549.6,401.6,549.6z"/>
		</g>
		<path d="M398.9,645.1c-1.5-0.2-2.9-0.4-4.4-0.5c-2.9-0.2-5.7-1-8.5-1.5c-2.7-0.9-5.4-1.4-7.8-2.4c-1.2-0.4-2.4-0.9-3.6-1.3
			c-1.1-0.5-2.2-0.9-3.3-1.4c-2.1-0.9-4-1.9-5.7-2.6c-1.6-0.9-3.2-1.6-4.4-2.3c-1.2-0.7-2.2-1.2-2.8-1.6c-0.6-0.4-1-0.6-1-0.6
			s0.2,0.3,0.7,0.9c0.5,0.6,1.2,1.5,2.2,2.4c1,1,2.2,2.2,3.7,3.5c1.5,1.2,3.2,2.7,5.3,4c1,0.7,2.1,1.4,3.2,2.1
			c1.2,0.6,2.4,1.3,3.6,1.9c2.4,1.4,5.2,2.4,8.1,3.5c1.5,0.4,3,0.9,4.5,1.3c0.8,0.2,1.5,0.5,2.3,0.6l2.4,0.4
			c1.6,0.2,3.2,0.5,4.9,0.7l3.3,0.1v-7.4L398.9,645.1z"/>
		<g>
			<path d="M532,146.5c0,0,1.6,0.9,4.7,2.7c3,1.8,7.4,4.4,12.9,7.9c5.5,3.5,12.2,7.8,19.6,13c7.5,5.2,15.8,11.2,24.7,18.1
				c8.9,6.9,18.3,14.6,28,23.2c9.7,8.6,19.5,18.1,29.2,28.4c9.7,10.4,19.2,21.6,27.9,34c2.1,3.1,4.3,6.2,6.4,9.4
				c1,1.6,2.1,3.2,3.1,4.8c1,1.6,2,3.3,3,4.9c3.8,6.7,7.5,13.5,10.6,20.7l1.2,2.7c0.4,0.9,0.7,1.8,1.1,2.7l2.2,5.5l1.9,5.6
				c0.7,1.8,1.2,3.7,1.8,5.6l0.9,2.8c0.3,0.9,0.6,1.9,0.8,2.9c0.5,1.9,0.9,3.9,1.4,5.8c0.5,1.9,0.8,3.9,1.1,5.9l0.5,2.9
				c0.2,1,0.3,2,0.4,3c0.2,2,0.5,3.9,0.7,5.9c0.1,2,0.2,4,0.4,6c0.2,2,0.2,4,0.1,6l0,3c0,1,0,2-0.1,3c-0.2,2-0.3,3.9-0.5,5.9
				l-0.1,1.5c-0.1,0.5-0.1,1-0.2,1.5c-0.2,1-0.3,1.9-0.5,2.9c-0.2,1-0.3,1.9-0.5,2.9l-0.2,1.4l-0.3,1.4c-0.5,1.9-0.9,3.8-1.4,5.6
				c-0.4,1.9-1.1,3.7-1.7,5.5c-0.6,1.8-1.1,3.6-1.8,5.4c-0.7,1.7-1.4,3.5-2.1,5.2c-0.4,0.9-0.7,1.7-1.1,2.6
				c-0.4,0.8-0.8,1.6-1.2,2.5c-1.6,3.3-3.3,6.5-5.2,9.5c-0.9,1.5-1.9,3-2.8,4.5c-1,1.5-2,2.9-3,4.3c-1,1.4-2,2.8-3,4.2
				c-1.1,1.3-2.1,2.6-3.2,3.9c-1.1,1.3-2.1,2.6-3.1,3.8c-1.1,1.2-2.2,2.4-3.3,3.6c-2.2,2.3-4.3,4.7-6.5,6.7
				c-2.2,2.1-4.4,4.2-6.6,6.1c-2.2,1.9-4.4,3.7-6.6,5.5c-0.5,0.4-1.1,0.9-1.6,1.3c-0.6,0.4-1.1,0.8-1.6,1.2
				c-1.1,0.8-2.2,1.6-3.2,2.4c-4.2,3.2-8.4,5.9-12.3,8.4c-1,0.6-1.9,1.2-2.9,1.9c-1,0.6-1.9,1.1-2.9,1.7c-1.9,1.1-3.7,2.1-5.5,3.1
				c-3.5,2-6.8,3.6-9.8,5.1c-3,1.5-5.6,2.8-8,3.8c-2.4,1-4.4,1.9-6,2.5c-3.3,1.4-5,2-5,2l-1.2-2c0,0,1.4-1.3,4.1-3.5
				c1.3-1.2,3-2.5,4.9-4.1c2-1.6,4.1-3.6,6.6-5.7c2.4-2.2,5.2-4.4,8-7.1c1.4-1.3,2.9-2.7,4.5-4.1c0.8-0.7,1.6-1.4,2.4-2.1
				c0.8-0.8,1.6-1.5,2.3-2.3c1.6-1.6,3.2-3.1,4.9-4.8c0.4-0.4,0.8-0.8,1.3-1.2c0.4-0.4,0.8-0.9,1.2-1.3c0.8-0.9,1.7-1.7,2.5-2.6
				c0.9-0.9,1.7-1.8,2.6-2.7c0.4-0.5,0.9-0.9,1.3-1.4c0.4-0.5,0.8-1,1.3-1.4c1.7-1.9,3.5-3.9,5.2-5.9c3.4-4.1,7-8.3,10.2-12.9
				c0.8-1.1,1.7-2.3,2.5-3.4c0.8-1.2,1.6-2.4,2.4-3.6c0.8-1.2,1.6-2.4,2.4-3.6c0.7-1.3,1.5-2.5,2.2-3.8c0.7-1.3,1.5-2.5,2.3-3.8
				c0.7-1.3,1.3-2.7,2-4c0.3-0.7,0.7-1.3,1-2l0.5-1l0.5-1c0.6-1.4,1.2-2.8,1.9-4.1c0.3-0.7,0.6-1.4,0.9-2.1c0.3-0.7,0.5-1.4,0.8-2.1
				c0.6-1.4,1.1-2.9,1.7-4.3c0.5-1.4,0.9-2.9,1.4-4.4c0.5-1.5,1-2.9,1.3-4.5c0.4-1.5,0.8-3,1.2-4.5l0.3-1.1l0.2-1.2l0.5-2.3
				c0.7-3.1,1.1-6.3,1.5-9.5c0.1-0.8,0.2-1.6,0.2-2.4l0.2-2.4l0.2-2.4c0.1-0.8,0.1-1.6,0.1-2.5c0-1.6,0.1-3.3,0.1-4.9
				c-0.1-1.7-0.1-3.3-0.2-5c0-0.8,0-1.7-0.1-2.5l-0.3-2.5c-0.2-1.7-0.3-3.4-0.5-5.1c-0.3-1.7-0.5-3.4-0.8-5.1
				c-0.1-0.8-0.3-1.7-0.5-2.5l-0.5-2.5c-0.6-3.4-1.7-6.7-2.6-10.1l-1.6-5c-0.3-0.8-0.5-1.7-0.8-2.5l-0.9-2.5
				c-2.4-6.6-5.5-13.1-8.7-19.4c-0.8-1.6-1.7-3.2-2.5-4.7c-0.8-1.6-1.7-3.1-2.6-4.7c-1.7-3.1-3.6-6.1-5.5-9.2
				c-7.6-12-15.9-23.4-24.6-34c-8.7-10.6-17.7-20.4-26.5-29.5c-8.8-9-17.5-17.3-25.7-24.7c-8.2-7.4-16-14-22.9-19.8
				c-7-5.7-13.2-10.6-18.3-14.5c-5.2-3.9-9.3-6.9-12.1-9c-2.8-2-4.4-3.1-4.4-3.1L532,146.5z"/>
		</g>
		<g>
			<path d="M558.5,210.2c0,0,1,0.8,2.9,2.4c1.9,1.6,4.5,4,7.7,7.2c3.2,3.2,7,7.3,11.1,12.2c4.1,4.9,8.4,10.6,12.8,17.2
				c2.2,3.3,4.3,6.8,6.5,10.5c1.1,1.9,2.1,3.8,3.2,5.7c1,2,2,4,3.1,6c4,8.2,7.7,17.2,10.8,26.8c3,9.6,5.4,19.9,6.6,30.6
				c1.2,10.7,1.4,21.7,0.3,32.6l-0.4,4.1l-0.2,2l-0.3,2c-0.5,2.7-0.9,5.4-1.5,8.1c-0.6,2.7-1.3,5.3-2,8c-0.3,1.3-0.7,2.6-1.1,3.9
				c-0.4,1.3-0.8,2.6-1.3,3.9c-0.4,1.3-0.9,2.6-1.3,3.8c-0.5,1.2-1,2.5-1.5,3.7c-0.5,1.2-1,2.5-1.5,3.7l-0.8,1.8l-0.2,0.5
				c0,0-0.1,0.2,0,0l0,0.1l-0.1,0.2l-0.4,0.8c-1,2.2-2,4.5-3,6.7c-0.5,1.1-0.9,2.2-1.4,3.2c-0.4,1.1-0.9,2.1-1.3,3.2
				c-3.5,8.5-6.8,16.8-9.3,24.8c-0.6,2-1.3,4-1.8,5.9c-0.5,2-1.1,3.9-1.6,5.8c-0.4,1.9-0.9,3.8-1.3,5.6c-0.3,1.8-0.7,3.6-1,5.4
				c-0.3,1.8-0.6,3.5-0.8,5.2c-0.1,0.8-0.2,1.7-0.3,2.5c-0.1,0.8-0.1,1.6-0.2,2.4c-0.2,1.6-0.1,3.2-0.1,4.7c0,0.8,0.1,1.5,0.1,2.2
				c0.1,0.7,0,1.5,0.1,2.2c0.2,2.9,0.8,5.4,1.4,7.8c0.7,2.4,1.6,4.5,2.5,6.3c1,1.8,2.1,3.3,3.2,4.6c1.1,1.3,2.1,2.2,3.1,3
				c1.8,1.5,3.1,2,3.1,2s-0.3,0-1-0.1c-0.6-0.1-1.6-0.3-2.8-0.7c-2.4-0.8-5.8-2.5-9.3-5.9c-1.7-1.7-3.4-3.8-5-6.4
				c-1.5-2.5-2.9-5.4-4.1-8.7c-2.3-6.4-3.4-14-3.7-22.2c-0.1-1,0-2.1,0-3.1c0-1,0-2.1,0.1-3.2c0.1-2.1,0.2-4.2,0.4-6.4
				c0.2-2.2,0.5-4.4,0.7-6.6c0.3-2.2,0.7-4.4,1-6.7c1.6-9.1,3.9-18.3,6.9-27.8c0.4-1.2,0.8-2.4,1.2-3.6c0.4-1.2,0.8-2.4,1.2-3.6
				c0.8-2.3,1.6-4.6,2.5-6.9l0.3-0.9l0.2-0.6l0.1-0.4l0.5-1.6c0.4-1.1,0.7-2.2,1.1-3.3c0.4-1.1,0.8-2.2,1.1-3.3
				c0.3-1.1,0.6-2.2,0.9-3.3c0.3-1.1,0.6-2.2,0.9-3.3c0.3-1.1,0.7-2.2,0.9-3.4c0.5-2.3,1-4.6,1.5-6.8c0.4-2.3,0.7-4.6,1.1-6.9
				l0.3-1.7l0.2-1.8l0.4-3.5c0.9-9.3,1-18.8,0.4-28.1c-0.6-9.3-2.1-18.5-4-27.4c-1.9-8.9-4.3-17.4-6.9-25.4
				c-2.6-8-5.5-15.5-8.4-22.4c-2.9-6.9-5.8-13.2-8.4-18.7c-2.7-5.5-5.2-10.3-7.2-14.3c-2.1-3.9-3.8-7-5-9.1
				C559.2,211.3,558.5,210.2,558.5,210.2z"/>
		</g>
		<g>
			<path d="M581.7,441.6c0,0-0.2,0.3-0.7,0.8c-0.4,0.5-1.1,1.3-1.9,2.3c-0.8,1-1.8,2.2-3,3.5c-1.2,1.3-2.5,2.9-3.9,4.5
				c-1.4,1.6-2.9,3.4-4.6,5.3c-1.6,1.9-3.2,3.9-4.9,6c-0.8,1-1.6,2.1-2.5,3.2c-0.8,1.1-1.6,2.2-2.4,3.4c-1.6,2.3-3,4.6-4.4,7.1
				l-1,1.8l-0.1,0.1c0.1-0.2,0-0.1,0-0.1l0,0l0,0.1l-0.1,0.2l-0.2,0.5l-0.5,1c-0.3,0.7-0.5,1.2-0.7,1.8l-0.3,0.9l-0.3,1
				c-0.8,2.5-1.4,5.2-2,7.8c-0.6,2.6-1.2,5.2-1.9,7.7c-0.7,2.5-1.4,4.8-2.4,6.9c-0.4,1.1-1,2-1.5,2.9c-0.5,0.9-1.1,1.7-1.6,2.5
				c-1.1,1.5-2.2,2.7-3.3,3.5c-0.9,0.9-1.9,1.4-2.5,1.8c-0.6,0.4-0.9,0.5-0.9,0.5s0.2-0.3,0.7-0.8c0.4-0.5,1.1-1.2,1.8-2.3
				c0.7-1,1.4-2.4,2.1-3.9c0.6-1.6,1.3-3.4,1.7-5.4c0.1-0.5,0.2-1,0.4-1.6c0.1-0.5,0.2-1.1,0.3-1.6c0.2-1.1,0.4-2.3,0.5-3.5
				c0.3-2.5,0.7-5.1,1-7.7c0.4-2.7,0.8-5.6,1.6-8.5l0.3-1.1l0.4-1.2c0.3-0.8,0.5-1.6,0.8-2.2l0.4-1l0.2-0.5l0.1-0.2l0.1-0.3l0.1-0.1
				l1.1-2c1.5-2.6,3.1-5.2,4.9-7.6c1.8-2.4,3.6-4.6,5.5-6.6c1.9-2.1,3.8-3.9,5.7-5.6c1.9-1.7,3.7-3.3,5.4-4.6
				c1.7-1.4,3.3-2.6,4.8-3.7c1.4-1.1,2.7-2,3.8-2.7c1-0.7,1.9-1.3,2.5-1.7C581.4,441.8,581.7,441.6,581.7,441.6z"/>
		</g>
		<g>
			<path d="M511.5,464.7c0,0,0.4,1,1.1,2.9c0.7,1.9,1.7,4.6,2.8,8.2c1.1,3.6,2.5,7.9,3.8,12.9c1.3,5,2.7,10.7,4,17
				c2.6,12.6,4.9,27.4,5.7,43.6c0.2,4,0.3,8.2,0.2,12.4c-0.1,4.2-0.2,8.5-0.6,12.8c-0.7,8.6-2.2,17.4-4.8,26.1
				c-1.3,4.3-3.1,8.6-5.2,12.8c-0.6,1-1.1,2.1-1.7,3.1l-1.9,3l-2.1,2.9c-0.7,1-1.5,1.8-2.3,2.7c-0.4,0.4-0.8,0.9-1.2,1.3l-1.3,1.3
				c-0.9,0.8-1.7,1.7-2.7,2.4l-1.4,1.1c-0.5,0.4-0.9,0.7-1.5,1.1c-1,0.7-2,1.3-3,2c-4.1,2.4-8.6,4-13,5c-1.1,0.2-2.2,0.4-3.3,0.6
				c-1.1,0.2-2.2,0.2-3.3,0.3c-2.2,0.3-4.3,0.2-6.4,0.2c-1,0-2.1-0.1-3.1-0.2c-1-0.1-2-0.1-3-0.3c-1-0.2-2-0.3-3-0.5
				c-1-0.1-1.9-0.3-2.9-0.5c-7.6-1.6-14.3-4-20.3-6.7c-0.7-0.3-1.5-0.7-2.2-1c-0.7-0.4-1.4-0.7-2.1-1c-1.4-0.7-2.7-1.4-4.1-2
				c-2.6-1.4-5-2.8-7.3-4.1c-2.2-1.4-4.3-2.6-6.2-3.9c-1.9-1.3-3.6-2.4-5.1-3.5c-0.8-0.5-1.5-1-2.2-1.5c-0.7-0.5-1.3-1-1.9-1.4
				c-1.2-0.9-2.1-1.6-2.9-2.2c-1.6-1.2-2.4-1.9-2.4-1.9s1,0.4,2.8,1.2c1.8,0.8,4.5,2,7.9,3.4c1.7,0.7,3.6,1.5,5.6,2.4
				c2.1,0.8,4.3,1.7,6.7,2.6c2.4,0.9,4.9,1.8,7.6,2.8c1.3,0.4,2.7,0.9,4.1,1.3c0.7,0.2,1.4,0.5,2.1,0.7c0.7,0.2,1.5,0.4,2.2,0.6
				c5.9,1.8,12.4,3.2,19.2,4c0.8,0.1,1.7,0.2,2.5,0.2c0.9,0.1,1.7,0.1,2.6,0.2c0.9,0.1,1.7,0,2.6,0c0.9,0,1.7,0,2.6,0
				c0.9-0.1,1.7-0.2,2.6-0.2c0.4,0,0.9,0,1.3-0.1l1.3-0.2c0.8-0.2,1.7-0.2,2.5-0.4c0.8-0.2,1.6-0.4,2.5-0.6c3.2-1,6.4-2.3,9.2-4.1
				c2.8-1.9,5.4-4.2,7.7-6.9c0.5-0.7,1.2-1.3,1.7-2.1l1.5-2.2l1.4-2.4c0.5-0.8,0.9-1.6,1.3-2.5c1.7-3.4,3.1-6.9,4.2-10.7
				c1.2-3.7,2.2-7.6,2.9-11.5c0.2-1,0.4-2,0.5-2.9c0.2-1,0.4-2,0.5-3c0.3-2,0.6-4,0.8-5.9c0.5-4,0.8-8,1-11.9
				c0.2-4,0.4-7.9,0.4-11.8c0.1-7.7,0-15.3-0.3-22.5c-0.3-7.2-0.7-14-1.1-20.2c-0.4-6.3-0.9-12.1-1.4-17.2
				c-0.5-5.1-0.9-9.6-1.3-13.3C511.9,468.9,511.5,464.7,511.5,464.7z"/>
		</g>
		<circle fill="#58595B" cx="470.4" cy="589.4" r="3.6"/>
		<circle fill="#58595B" cx="460.2" cy="572.1" r="2.6"/>
		<circle fill="#58595B" cx="478.2" cy="572.1" r="2.4"/>
		<circle fill="#58595B" cx="499.2" cy="568.5" r="2.2"/>
		<circle fill="#58595B" cx="489.1" cy="585.8" r="2.3"/>
		<circle fill="#58595B" cx="481.8" cy="604.5" r="2.8"/>
		<circle fill="#58595B" cx="463.8" cy="604.5" r="2.1"/>
		<circle fill="#58595B" cx="453.9" cy="593" r="3"/>
		<path d="M528.6,341.4c0,0-0.1-0.1-0.3-0.2c-0.2-0.1-0.6-0.4-1-0.6c-0.4-0.2-0.9-0.5-1.5-0.8c-0.3-0.2-0.6-0.3-0.9-0.5
			c-0.3-0.2-0.7-0.3-1-0.5c-1.4-0.7-3.1-1.5-4.9-2.2c-1.8-0.7-3.8-1.3-5.9-1.9c-4.1-1.1-8.6-1.5-12.8-1.1c-4.3,0.3-8.4,1.6-12.1,3.5
			c-3.7,2-7,4.7-9.6,8.1c-2.7,3.4-4.7,7.3-6.1,11.4c-0.3,1.1-0.7,2-0.9,3c-0.3,1-0.5,1.9-0.7,2.9c-0.4,1.9-0.7,3.7-0.9,5.3
			c-0.1,0.8-0.2,1.5-0.2,2.2c0,0.7-0.1,1.2-0.1,1.7c0,0.4,0,0.9,0,1.1c0,0.3,0,0.4,0,0.4s0.1,0.1,0.3,0.2c0.2,0.1,0.6,0.4,1,0.6
			c0.4,0.2,0.9,0.5,1.5,0.8c0.6,0.4,1.2,0.7,2,1c1.4,0.7,3.1,1.5,4.9,2.2c0.9,0.4,1.8,0.6,2.9,1c1,0.3,2,0.6,3,0.9
			c4.1,1.1,8.6,1.5,12.8,1.1c4.3-0.4,8.4-1.6,12.1-3.6c3.7-2,7-4.8,9.6-8.2c2.7-3.4,4.7-7.3,6.1-11.4c0.7-2,1.3-4,1.7-5.9
			c0.4-1.9,0.7-3.7,0.9-5.3c0-0.4,0.1-0.8,0.1-1.1c0-0.4,0.1-0.7,0.1-1.1c0-0.7,0.1-1.2,0.1-1.7c0-0.4,0-0.9,0-1.1
			C528.6,341.5,528.6,341.4,528.6,341.4z"/>
		<circle fill="#FFFFFF" cx="488" cy="352.4" r="4.2"/>
		<g>
			<polygon fill="#58595B" points="471.9,372.1 470.7,388.3 469.4,372.1 			"/>
		</g>
		
			<ellipse transform="matrix(-0.8392 0.5439 -0.5439 -0.8392 1100.6548 807.181)" fill="#FFFFFF" cx="431" cy="566.3" rx="20.6" ry="9.9"/>
		<g>
			<path fill="#58595B" d="M401.6,549.6c0,0,0.1,0.8,0.3,2.1c0.2,1.3,0.4,3.2,0.6,5.5c0.1,1.1,0.2,2.4,0.3,3.7
				c0.1,1.3,0.2,2.7,0.2,4.1c0.1,2.8,0.2,5.9,0.2,8.9c0,3-0.1,6.1-0.2,8.9c-0.1,2.8-0.3,5.5-0.5,7.8c-0.2,2.3-0.5,4.2-0.6,5.5
				c-0.2,1.3-0.3,2.1-0.3,2.1s-0.2-0.8-0.3-2.1c-0.2-1.3-0.4-3.2-0.6-5.5c-0.2-2.3-0.4-4.9-0.5-7.8c-0.1-2.8-0.2-5.9-0.2-8.9
				c0-3,0.1-6.1,0.2-8.9c0.1-1.4,0.2-2.8,0.2-4.1c0.1-1.3,0.2-2.5,0.3-3.7c0.2-2.3,0.5-4.2,0.6-5.5
				C401.4,550.4,401.6,549.6,401.6,549.6z"/>
		</g>
		<path d="M404.3,645.1c1.5-0.2,2.9-0.4,4.4-0.5c2.9-0.2,5.7-1,8.5-1.5c2.7-0.9,5.4-1.4,7.8-2.4c1.2-0.4,2.4-0.9,3.6-1.3
			c1.1-0.5,2.2-0.9,3.3-1.4c2.1-0.9,4-1.9,5.7-2.6c1.6-0.9,3.2-1.6,4.4-2.3c1.2-0.7,2.2-1.2,2.8-1.6c0.6-0.4,1-0.6,1-0.6
			s-0.2,0.3-0.7,0.9c-0.5,0.6-1.2,1.5-2.2,2.4c-1,1-2.2,2.2-3.7,3.5c-1.5,1.2-3.2,2.7-5.3,4c-1,0.7-2.1,1.4-3.2,2.1
			c-1.2,0.6-2.4,1.3-3.6,1.9c-2.4,1.4-5.2,2.4-8.1,3.5c-1.5,0.4-3,0.9-4.5,1.3c-0.8,0.2-1.5,0.5-2.3,0.6l-2.4,0.4
			c-1.6,0.2-3.2,0.5-4.9,0.7l-3.3,0.1v-7.4L404.3,645.1z"/>
	</g>
	<g>
		<path d="M256.6,336c0,0,0.8-1.1,2.5-2.8c0.8-0.9,1.9-1.9,3.2-3c0.6-0.6,1.3-1.1,2.1-1.7c0.7-0.6,1.5-1.2,2.4-1.8
			c1.7-1.2,3.6-2.4,5.7-3.6c2.1-1.1,4.4-2.3,6.9-3.2c1.2-0.5,2.5-0.9,3.8-1.3c1.3-0.3,2.6-0.8,4-1c2.7-0.6,5.6-0.9,8.4-1
			c1.4,0,2.9,0,4.3,0.1c1.4,0.1,2.8,0.2,4.2,0.5c0.7,0.1,1.4,0.2,2.1,0.4c0.7,0.2,1.3,0.4,2,0.5c0.7,0.2,1.3,0.3,2,0.5
			c0.6,0.2,1.3,0.5,1.9,0.7c1.3,0.4,2.5,1,3.6,1.5c0.6,0.3,1.2,0.5,1.7,0.8c0.5,0.3,1.1,0.6,1.6,0.9c0.5,0.3,1,0.6,1.5,0.9
			c0.5,0.3,1,0.6,1.4,1c0.9,0.7,1.8,1.3,2.7,1.9c1.6,1.3,3.1,2.5,4.3,3.8c1.2,1.2,2.2,2.2,3,3.2c1.6,1.8,2.4,2.9,2.4,2.9
			s-1.1-0.8-3.1-2.2c-0.9-0.7-2.2-1.5-3.5-2.4c-1.3-1-3-1.8-4.7-2.9c-0.9-0.5-1.8-0.9-2.8-1.4c-0.5-0.2-0.9-0.5-1.4-0.7
			c-0.5-0.2-1-0.4-1.5-0.7c-0.5-0.2-1-0.5-1.6-0.7c-0.5-0.2-1.1-0.4-1.6-0.6c-0.6-0.2-1.1-0.4-1.7-0.6c-0.6-0.2-1.2-0.3-1.7-0.5
			c-0.6-0.2-1.2-0.3-1.8-0.5c-0.6-0.2-1.2-0.3-1.8-0.4c-0.6-0.1-1.2-0.3-1.8-0.4c-0.6-0.1-1.2-0.2-1.9-0.3c-2.5-0.4-5.1-0.4-7.7-0.4
			c-1.3,0.1-2.6,0.1-3.8,0.3c-0.6,0.1-1.3,0.1-1.9,0.2c-0.6,0.1-1.3,0.2-1.9,0.3c-0.6,0.1-1.3,0.2-1.9,0.4c-0.6,0.1-1.2,0.3-1.9,0.4
			c-1.2,0.3-2.4,0.6-3.6,1c-2.4,0.7-4.6,1.6-6.7,2.4c-2.1,0.9-4.1,1.8-5.8,2.7c-1.8,0.9-3.4,1.8-4.8,2.6c-1.4,0.8-2.6,1.6-3.7,2.2
			c-1,0.7-1.8,1.1-2.3,1.5C256.9,335.9,256.6,336,256.6,336z"/>
	</g>
	<g>
		<path d="M540.2,336c0,0-0.3-0.2-0.8-0.6c-0.5-0.4-1.3-0.9-2.3-1.5c-1-0.6-2.2-1.4-3.7-2.2c-1.4-0.8-3-1.7-4.8-2.6
			c-1.8-0.9-3.8-1.8-5.8-2.7c-2.1-0.8-4.3-1.7-6.7-2.4c-1.2-0.4-2.4-0.7-3.6-1c-0.6-0.1-1.2-0.3-1.9-0.4c-0.6-0.1-1.2-0.3-1.9-0.4
			c-0.6-0.1-1.3-0.2-1.9-0.3c-0.6-0.1-1.3-0.1-1.9-0.2c-1.3-0.2-2.6-0.2-3.8-0.3c-2.6,0-5.1,0-7.7,0.4c-0.6,0.1-1.3,0.2-1.9,0.3
			c-0.6,0.1-1.2,0.3-1.8,0.4c-0.6,0.1-1.2,0.2-1.8,0.4c-0.6,0.2-1.2,0.3-1.8,0.5c-0.6,0.2-1.2,0.3-1.7,0.5c-0.6,0.2-1.1,0.4-1.7,0.6
			c-0.6,0.2-1.1,0.4-1.6,0.6c-0.5,0.2-1.1,0.5-1.6,0.7c-0.5,0.2-1,0.4-1.5,0.7c-0.5,0.2-1,0.5-1.4,0.7c-0.9,0.5-1.9,0.9-2.8,1.4
			c-1.7,1.1-3.3,1.9-4.7,2.9c-1.3,0.9-2.6,1.7-3.5,2.4c-1.9,1.4-3.1,2.2-3.1,2.2s0.8-1.1,2.4-2.9c0.8-1,1.8-2,3-3.2
			c1.2-1.2,2.7-2.4,4.3-3.8c0.8-0.7,1.7-1.3,2.7-1.9c0.5-0.3,0.9-0.7,1.4-1c0.5-0.3,1-0.6,1.5-0.9c0.5-0.3,1.1-0.6,1.6-0.9
			c0.5-0.3,1.1-0.5,1.7-0.8c1.2-0.6,2.3-1.1,3.6-1.5c0.6-0.2,1.3-0.5,1.9-0.7c0.6-0.2,1.3-0.4,2-0.5c0.7-0.2,1.3-0.4,2-0.5
			c0.7-0.1,1.4-0.2,2.1-0.4c1.4-0.3,2.8-0.4,4.2-0.5c1.4-0.1,2.9-0.1,4.3-0.1c2.9,0.1,5.7,0.4,8.4,1c1.4,0.2,2.7,0.7,4,1
			c1.3,0.4,2.6,0.8,3.8,1.3c2.5,0.9,4.8,2.1,6.9,3.2c2.1,1.2,4,2.4,5.7,3.6c0.9,0.6,1.6,1.2,2.4,1.8c0.7,0.6,1.4,1.2,2.1,1.7
			c1.3,1.1,2.3,2.1,3.2,3C539.4,334.9,540.2,336,540.2,336z"/>
	</g>
</g>
</svg>
