<svg id="GraphicMama" xmlns="http://www.w3.org/2000/svg" viewBox="0 0 487.87 468.94"><defs><style>.cls-1{fill:#bdaf99;}.cls-2{fill:#e6d5ba;}.cls-3{fill:#f5e7d3;}.cls-4,.cls-7{fill:#4d4233;}.cls-4{stroke:#4d4233;stroke-width:0.51px;}.cls-18,.cls-20,.cls-4,.cls-9{stroke-miterlimit:10;}.cls-5{fill:#615441;}.cls-6{fill:#fff0d9;}.cls-10,.cls-11,.cls-14,.cls-18,.cls-19,.cls-8,.cls-9{fill:none;}.cls-10,.cls-11,.cls-14,.cls-18,.cls-19,.cls-20,.cls-8,.cls-9{stroke:#000;}.cls-10,.cls-11,.cls-14,.cls-19,.cls-8{stroke-linejoin:round;}.cls-10,.cls-8,.cls-9{stroke-width:5.43px;}.cls-10,.cls-11,.cls-14{stroke-linecap:round;}.cls-11{stroke-width:4.07px;}.cls-12{fill:#d1d3d4;}.cls-13{fill:#fff;}.cls-14,.cls-18,.cls-19,.cls-20{stroke-width:2.71px;}.cls-15{fill:#231f20;}.cls-16{fill:#3b3227;}.cls-17{fill:#29231b;}</style></defs><title>dog13-vector</title><path class="cls-1" d="M876.52,1117.28c4.72,24.53-4.21,59.14-5,81.77s9.17,63.75,11.75,75.91c-5.94,28.93-7.79,71.08-7.27,82-6.3,5.86-12.51,14.25-20.71,15.09s-19-2.09-20.84-7.14c-1.11-2.93,1.6-6.51,5.1-9.66,1.9,7.65,19.4,6.19,24.32-1.79,5-8.14,4.07-38,5.86-71.46,1.22-22.61-5.43-53.38-6.32-77.35s14-54.28,10.86-96.81l0.14,0C875.3,1111.31,876,1114.54,876.52,1117.28Z" transform="translate(-398.07 -915.1)"/><path class="cls-2" d="M543.08,1281.23c-10.07-4-23-11.29-37.67-24.72-24.29-22.25-41.74-58.51-48.36-84.59,2.33-.41,40.11-7.6,66.74-33.9-32.57,22.06-69.53,10.66-69.53,10.66a25.56,25.56,0,0,1-10.61-19.38h0.08a64.25,64.25,0,0,0,33.57,4.18c19.62-2.8,22.31-11.25,34.28-12.63a49.25,49.25,0,0,0,31.4-17l-1.44-.46c3.26-2.63,4.64-5.34,2.44-7.71A124.68,124.68,0,0,1,532.09,1082c-4.56-6.21-10.15-15.11-17.23-29.09-13.43-26.41-37-35.3-44.13-38s-22.85-4.26-31.89-.89c-7.38,2.74-21.41,15-27.79,21.06A79.32,79.32,0,0,1,418,1013.8c-2.88-4.42-2.2-28.28,11.89-50.75a80.51,80.51,0,0,1,4.86-6.95l0.3,0.22c13.57-13.57,36.18-22.17,38.89-9.06,0,0,49.31-33.46,88.2-8.14l1.63,0.27a44.38,44.38,0,0,0-.46,6.81s10-5,15.47.52a11.5,11.5,0,0,1,2.77,5.13c3.58,13-6.7,16.15-6.92,27.9a12.51,12.51,0,0,0,.68,4.13c3.64,11,20.65,23.39,28.28,18.94,0.27-6.43,7.84-16.45,13.9-24.62,1.66,1.85,18,20.65,18.21,48.5,0.05,54.69-20.3,75.72-25,107.26,14.22-48.85,31.86-47.49,29.15-107.85l-0.19-.71c22.44-6.13,27.79,16.42,27.79,16.42s0.35-.08,1-0.19l0.22,1.41c3.07,35.63-27.82,97.38-31.56,112.63,21.06-46.79,37.34-66.82,35.63-114l-0.14-.79c16.53-2.82,69.8-10.64,118.41-3.69,58.87,8.41,77,46.71,83.37,70.62l-0.14,0c3.18,42.53-11.75,72.82-10.86,96.81s7.54,54.74,6.32,77.35c-1.79,33.46-.9,63.32-5.86,71.46-4.91,8-22.42,9.44-24.32,1.79,0.19-.19.38-0.35,0.57-0.52a71.58,71.58,0,0,1,10.45-7.41l-0.41-33.14s-22.36-3.69-44.43-21.79a181.3,181.3,0,0,1-36-40.93l0-.68s-32.59-3-74-10c-104.13-17.45-102.4,22.12-95.37,42.47-0.11,0-.22,0-0.3.05-6.78,1.36-2.71,38.89-4.53,53.36a83.31,83.31,0,0,1-2.8,13.52c-2.63,8.79-6.51,15.71-10.77,17.26-11.29,4.07-19.89-4.07-19.89-4.07l-0.33-.24c2.88-3.66,7.16-6.87,12.4-10.2,1.93-5.18-.41-22.58-3.18-38.35-2.63-15.12-5.65-28.74-5.65-28.74S557,1286.71,543.08,1281.23Z" transform="translate(-398.07 -915.1)"/><path class="cls-1" d="M850.11,1314.18s-22.36-3.69-44.43-21.79a181.3,181.3,0,0,1-36-40.93l-2.36,1.36c-2.85,1.6-8.14,4.56-15,8.14l1.76,0.57s34.39,47.2,72.11,56c3.58,3.45,12.73,20.11,6.41,34.11-11.32,6.35-18.1-4.07-18.1-4.07l-0.79-.19c-2.85,2.09-5.24,5-5.54,9.15-0.6,7.65,13.41,10.91,18,10.5a27.41,27.41,0,0,0,8.2-2.12c-1.11-2.93,1.6-6.51,5.1-9.66,0.19-.19.38-0.35,0.57-0.52a71.59,71.59,0,0,1,10.45-7.41Z" transform="translate(-398.07 -915.1)"/><path class="cls-2" d="M826.2,1317.52c3.58,3.45,12.73,20.11,6.4,34.11-11.32,6.35-18.1-4.07-18.1-4.07l-0.79-.19a30,30,0,0,1,10.83-4.67S828.32,1332.2,826.2,1317.52Z" transform="translate(-398.07 -915.1)"/><path class="cls-3" d="M769.72,1250.78l0,0.68-2.36,1.36-0.33-.68c-84.35,38.13-158.17,30.07-166.61,31.16-7-20.35-8.77-59.92,95.37-42.47C737.13,1247.74,769.72,1250.78,769.72,1250.78Z" transform="translate(-398.07 -915.1)"/><path class="cls-1" d="M672.7,1041.67c1.71,47.17-14.57,67.2-35.63,114,3.75-15.25,34.63-77,31.56-112.63l-0.22-1.41c0.87-.16,2.28-0.43,4.15-0.73Z" transform="translate(-398.07 -915.1)"/><path class="cls-1" d="M639.78,1026.09c2.71,60.36-14.93,59-29.15,107.85,4.72-31.54,25.08-52.57,25-107.26a33.27,33.27,0,0,1,3.94-1.3Z" transform="translate(-398.07 -915.1)"/><path class="cls-4" d="M615.06,937a27.08,27.08,0,0,0-8.06-8c1.17,2.55,12.19,26.79,8,36.42A49,49,0,0,1,610.8,973c-7.08,10.56-20.35,22.5-35.12,10.69l-0.41.19c3.64,11,20.65,23.39,28.28,18.94,0.27-6.43,7.84-16.45,13.9-24.62a87.71,87.71,0,0,0,6.65-9.77C628.06,960.66,622.85,949,615.06,937Z" transform="translate(-398.07 -915.1)"/><path class="cls-1" d="M767,1252.14c-84.35,38.13-158.17,30.07-166.61,31.16-0.11,0-.22,0-0.3.05-6.78,1.36-2.71,38.89-4.53,53.36a83.31,83.31,0,0,1-2.8,13.52c-2.63,8.79-6.51,15.71-10.77,17.26-11.29,4.07-19.89-4.07-19.89-4.07l-0.33-.24a18.46,18.46,0,0,0-1.52,2.17,17.38,17.38,0,0,0-2.44,7.33c-0.38,3.88,11.75,10.07,20.54,8.39,6.68-1.28,14.68-8.39,17.21-10.91s3.37-17.61,3.37-17.61,0.05-.14.14-0.38c0.68-1.66,3.37-8.58,4.48-12.62s1.9-37.7,2.06-45.11c0-.92,0-1.44,0-1.44s35.23,4.61,73.17-2.93c24.32-4.83,54.77-19.32,73.52-29.09,6.87-3.58,12.16-6.54,15-8.14Z" transform="translate(-398.07 -915.1)"/><path class="cls-5" d="M607,928.93s0-.05,0,0c-8.36-5.62-19.43-7.33-27.33-4.72-6.08,2-11.51,4.23-13.6,7.54a5,5,0,0,0-.46.84,27.23,27.23,0,0,0-1.85,6.81,44.38,44.38,0,0,0-.46,6.81s10-5,15.47.52a11.5,11.5,0,0,1,2.77,5.13c3.58,13-6.7,16.15-6.92,27.9a12.5,12.5,0,0,0,.68,4.13l0.41-.19c14.76,11.81,28-.14,35.12-10.69a49,49,0,0,0,4.23-7.63C619.18,955.72,608.16,931.48,607,928.93Z" transform="translate(-398.07 -915.1)"/><path class="cls-1" d="M571,1314.61c-2.63-15.12-5.65-28.74-5.65-28.74s-8.41.84-22.28-4.64a180.66,180.66,0,0,1,4.32,18l0.24-.05s10.86-.9,14,2.71c1.14,1.3,2.47,6.95,3.64,13.79,2.09,12.16,3.75,28.06,3.15,30.1-0.9,3.15-6.79,8.14-12.65,9s-15.39-4.53-15.39-4.53l-1.25-.38a15.5,15.5,0,0,0-5.65,9.36c-1.25,5.43,10.91,11.32,18,9.63,5.78-1.36,8.39-3.77,8.39-3.77l0.33,0.22a18.46,18.46,0,0,1,1.52-2.17c2.88-3.66,7.16-6.87,12.4-10.2C576.11,1347.78,573.78,1330.38,571,1314.61Z" transform="translate(-398.07 -915.1)"/><path class="cls-2" d="M565.28,1315.67c2.09,12.16,3.75,28.06,3.15,30.1-0.9,3.15-6.79,8.14-12.65,9s-15.39-4.53-15.39-4.53l-1.25-.38c3.75-2.93,8.68-4.45,13.65-8.68,0.49-9.15-2.5-27.74-5.4-42l0.24-.05s10.86-.9,14,2.71C562.79,1303.19,564.12,1308.83,565.28,1315.67Z" transform="translate(-398.07 -915.1)"/><path class="cls-6" d="M490,923.29A131.07,131.07,0,0,1,506.66,921c18.83-6.57,46-3.12,59.38,10.69a5,5,0,0,0-.46.84,27.25,27.25,0,0,0-1.85,6.81l-1.63-.27c-38.89-25.32-88.2,8.14-88.2,8.14-2.71-13.11-25.32-4.51-38.89,9.06l-0.3-.22C445.9,941.58,463.4,928.63,490,923.29Z" transform="translate(-398.07 -915.1)"/><path class="cls-4" d="M544,1095.68c2.2,2.36.81,5.1-2.44,7.73-6.54,5.29-20.63,10.23-28.58,10.94-2,.16-4.07.33-6.32,0.43-11.34.49-25.67-.95-38.13-14.28-8.55-9.15-11.24-25-16.12-34.33l0.14-.08c18.67,26.14,24.78,33.92,44.13,36.31,16.61,2,34.93-6.78,34.93-20l0.52-.38A125.18,125.18,0,0,0,544,1095.68Z" transform="translate(-398.07 -915.1)"/><path class="cls-1" d="M541.54,1103.41l1.44,0.52a49.17,49.17,0,0,1-31.4,17.15c-12,1.38-14.66,9.6-34.28,12.4a64.25,64.25,0,0,1-33.57-4.18h-0.08c-0.57-5,1-11.26,2.63-13.73,35.66,14.87,60.39-.61,60.39-0.61l0-.29c2.25-.11,4.37-0.21,6.32-0.38C520.91,1113.59,535,1108.7,541.54,1103.41Z" transform="translate(-398.07 -915.1)"/><path class="cls-7" d="M431.62,1065.28c2.66-3.23,5.89-5.64,10-6.3,5-.76,8.14,2.28,10.72,7.19,4.89,9.28,7.57,25.19,16.12,34.33,12.46,13.33,26.79,14.76,38.13,14.28l0,0.41s-24.72,15.71-60.39.84c-16.88-6.16-25.32-26.62-26.65-30.1,3.64-4.56,6.62-14.11,11.94-20.57A0.14,0.14,0,0,0,431.62,1065.28Z" transform="translate(-398.07 -915.1)"/><path class="cls-5" d="M451.73,930c7.44-1.44,14.3-8.63,38.29-6.76-26.62,5.35-44.13,18.29-55.31,32.81a80.42,80.42,0,0,0-4.86,6.95l-0.14-.08c0-7.76-2.2-18.89-1.9-21.17,0.65-4.83,3.58-8.82,7.76-10.29S446.57,931,451.73,930Z" transform="translate(-398.07 -915.1)"/><path class="cls-1" d="M523.79,1138c-26.62,26.3-64.4,33.49-66.74,33.9-2.36-9.23-3.34-17.18-2.8-22.77C454.25,1149.14,491.22,1160.08,523.79,1138Z" transform="translate(-398.07 -915.1)"/><path class="cls-4" d="M417.4,1073.26c-9.53,1.33-16.2-5.45-16.2-5.45,2.06,11.07,8,22.63,15.31,20.54a6.37,6.37,0,0,0,3.12-2.42c3.64-4.56,6.62-14.11,11.94-20.57C426.49,1070.52,421.66,1072.72,417.4,1073.26Z" transform="translate(-398.07 -915.1)"/><path class="cls-5" d="M514.86,1052.91c-13.43-26.41-37-35.31-44.13-38s-22.85-4.26-31.89-.9c-7.38,2.74-21.41,15-27.79,21.06-1.41,1.36-2.44,2.42-2.93,3-2.71,3.15-9,18.46-6.92,29.77,0,0,6.68,6.78,16.2,5.45,4.26-.54,9.09-2.74,14.17-7.9a0.14,0.14,0,0,0,.05-0.08c2.66-3.23,5.89-5.64,10-6.3,5-.76,8.14,2.28,10.72,7.19l0.14-.08c18.67,26.14,24.78,33.92,44.13,36.31,16.61,2,34.93-6.78,34.93-20l0.52-.38C527.53,1075.78,521.94,1066.88,514.86,1052.91Z" transform="translate(-398.07 -915.1)"/><path class="cls-8" d="M419.62,1085.93c1.33,3.47,9.77,23.94,26.65,30.1-1.63,2.47-3.2,8-2.63,14.19a25.68,25.68,0,0,0,10.61,18.92c-0.54,5.59.43,13.54,2.8,22.77,6.62,26.08,24.07,62.34,48.36,84.59,14.66,13.43,27.6,20.76,37.67,24.72,13.87,5.48,22.28,4.64,22.28,4.64s3,13.62,5.65,28.74c2.77,15.77,5.1,33.16,3.18,38.35-5.24,3.34-9.53,6.54-12.4,10.2a18.46,18.46,0,0,0-1.52,2.17,17.38,17.38,0,0,0-2.44,7.33c-0.38,3.88,11.75,10.07,20.54,8.39,6.68-1.28,14.68-8.39,17.21-10.91s3.37-17.61,3.37-17.61,0.05-.14.14-0.38c0.68-1.66,3.37-8.58,4.48-12.62s1.9-37.7,2.06-45.11c0-.92,0-1.44,0-1.44s35.23,4.61,73.17-2.93c24.32-4.83,54.77-19.32,73.52-29.09,6.87-3.58,12.16-6.54,15-8.14l2.36-1.36a181.3,181.3,0,0,0,36,40.93c22.06,18.1,44.43,21.79,44.43,21.79l0.41,33.14a71.58,71.58,0,0,0-10.45,7.41c-0.19.16-.38,0.33-0.57,0.52-3.5,3.15-6.22,6.73-5.1,9.66,1.87,5,12.67,8,20.84,7.14s14.41-9.23,20.71-15.09c-0.52-10.91,1.33-53.06,7.27-82-2.58-12.16-12.59-53.27-11.75-75.91s9.77-57.24,5-81.77c-0.54-2.74-1.22-6-2.17-9.47-6.4-23.91-24.51-62.2-83.37-70.62-48.61-6.95-101.88.87-118.41,3.69-1.87.3-3.28,0.57-4.15,0.73-0.68.11-1,.19-1,0.19s-5.35-22.55-27.79-16.42a33.27,33.27,0,0,0-3.94,1.3c-0.24-27.85-16.56-46.65-18.21-48.5" transform="translate(-398.07 -915.1)"/><path class="cls-8" d="M566,931.73c-13.35-13.81-40.55-17.26-59.38-10.69A131.07,131.07,0,0,0,490,923.29c-26.62,5.35-44.13,18.29-55.31,32.81a80.42,80.42,0,0,0-4.86,6.95c-14.09,22.47-14.76,46.33-11.89,50.75A79.32,79.32,0,0,0,411,1035" transform="translate(-398.07 -915.1)"/><path class="cls-9" d="M542.73,1280.42a3,3,0,0,1,.35.81,180.75,180.75,0,0,1,4.32,18c2.9,14.25,5.89,32.84,5.4,42-5,4.23-9.91,5.75-13.65,8.68a15.5,15.5,0,0,0-5.65,9.36c-1.25,5.43,10.91,11.32,18,9.63,5.78-1.36,8.39-3.77,8.39-3.77" transform="translate(-398.07 -915.1)"/><path class="cls-9" d="M754.09,1261.53s34.39,47.2,72.11,56c2.12,14.68-1.66,25.19-1.66,25.19a30,30,0,0,0-10.83,4.67c-2.85,2.09-5.24,5-5.54,9.15-0.6,7.65,13.41,10.91,18,10.5a27.41,27.41,0,0,0,8.2-2.12" transform="translate(-398.07 -915.1)"/><path class="cls-8" d="M607,928.93a27.08,27.08,0,0,1,8.06,8c7.79,12.08,13,23.69,9,31.45a87.72,87.72,0,0,1-6.65,9.77c-6.05,8.17-13.62,18.18-13.9,24.62-7.63,4.45-24.64-7.9-28.28-18.94a12.51,12.51,0,0,1-.68-4.13c0.22-11.75,10.5-14.9,6.92-27.9a11.5,11.5,0,0,0-2.77-5.13c-5.51-5.51-15.47-.52-15.47-0.52a44.38,44.38,0,0,1,.46-6.81,27.25,27.25,0,0,1,1.85-6.81,5,5,0,0,1,.46-0.84c2.09-3.31,7.52-5.56,13.6-7.54,7.9-2.61,19-.9,27.33,4.72" transform="translate(-398.07 -915.1)"/><path class="cls-8" d="M490.95,923.34c-0.33,0-.62-0.05-0.92-0.05-24-1.87-30.86,5.32-38.29,6.76-5.16,1-11.94,0-16.15,1.47s-7.11,5.45-7.76,10.29c-0.3,2.28,1.9,13.41,1.9,21.17" transform="translate(-398.07 -915.1)"/><path class="cls-8" d="M431.57,1065.36c-5.32,6.46-8.3,16-11.94,20.57a6.37,6.37,0,0,1-3.12,2.42c-7.33,2.09-13.24-9.47-15.31-20.54-2.09-11.32,4.21-26.62,6.92-29.77,0.49-.57,1.52-1.63,2.93-3,6.38-6.08,20.41-18.32,27.79-21.06,9-3.37,24.78-1.82,31.89.9s30.69,11.62,44.13,38c7.08,14,12.67,22.88,17.23,29.09A125.18,125.18,0,0,0,544,1095.68c2.2,2.36.81,5.1-2.44,7.73-6.54,5.29-20.63,10.23-28.58,10.94-2,.16-4.07.33-6.32,0.43-11.34.49-25.67-.95-38.13-14.28-8.55-9.15-11.24-25-16.12-34.33-2.58-4.91-5.75-8-10.72-7.19-4.15.65-7.38,3.07-10,6.3" transform="translate(-398.07 -915.1)"/><path class="cls-10" d="M446.28,1116c35.66,14.87,60.39-.84,60.39-0.84" transform="translate(-398.07 -915.1)"/><path class="cls-11" d="M546.93,1223c-0.6,33,16.54,46.36,19.93,66.38" transform="translate(-398.07 -915.1)"/><path class="cls-11" d="M761.63,1231.34a94.44,94.44,0,0,0,10.13,22.37" transform="translate(-398.07 -915.1)"/><path d="M610.67,1135.25l-0.28,0a2,2,0,0,1-1.74-2.29c1.21-8.9,4.84-19.35,9-31.46,7.47-21.52,16.77-48.29,15.32-77a2,2,0,0,1,1.93-2.13,2,2,0,0,1,2.14,1.93c1.48,29.5-8,56.69-15.54,78.54-4.13,11.9-7.7,22.18-8.85,30.67A2,2,0,0,1,610.67,1135.25Z" transform="translate(-398.07 -915.1)"/><path d="M668.93,1040.27a2,2,0,1,0-4,.79c4.4,22.21-5.49,47.49-16.94,76.77-9.77,25-20.85,53.29-23.42,83.15a2,2,0,0,0,1.85,2.2h0.18a2,2,0,0,0,2-1.86c2.52-29.27,13.49-57.29,23.16-82C663,1090.68,673.57,1063.64,668.93,1040.27Z" transform="translate(-398.07 -915.1)"/><path class="cls-12" d="M531.14,985.25a21.43,21.43,0,0,1,1.33,7.49,21.8,21.8,0,0,1-39.6,12.59l0.24-.16c5.32,3.26,33.14,10.72,36.88-19.46Z" transform="translate(-398.07 -915.1)"/><path class="cls-13" d="M531.14,985.25l-1.14.46c-3.75,30.18-31.56,22.72-36.88,19.46l-0.24.16A21.8,21.8,0,1,1,531.14,985.25Z" transform="translate(-398.07 -915.1)"/><path class="cls-14" d="M531.14,985.25a21.43,21.43,0,0,1,1.33,7.49A21.83,21.83,0,1,1,531.14,985.25Z" transform="translate(-398.07 -915.1)"/><circle class="cls-15" cx="113.09" cy="78.9" r="3.77"/><path class="cls-15" d="M511.15,999.14a5.13,5.13,0,1,1,5.13-5.13A5.14,5.14,0,0,1,511.15,999.14Zm0-7.55a2.42,2.42,0,1,0,2.42,2.42A2.42,2.42,0,0,0,511.15,991.59Z" transform="translate(-398.07 -915.1)"/><path d="M584.38,1094.52a2,2,0,0,0-2.76.82c-1.2,2.22-6.82,6.92-14.36,7.74-8.21.91-16.36-3.09-23.63-11.5a2,2,0,1,0-3.08,2.66c9,10.46,17.91,13,24.46,13a24.85,24.85,0,0,0,2.68-.15c8.82-1,15.66-6.44,17.5-9.85A2,2,0,0,0,584.38,1094.52Z" transform="translate(-398.07 -915.1)"/><path class="cls-16" d="M448.8,1010.76c9.63,0.43,17.21,6.3,17.18,10.5-20.46-13.92-33.27.73-34.52,2.31a6.6,6.6,0,0,1-.27-3.15C432,1016.65,439.17,1010.35,448.8,1010.76Z" transform="translate(-398.07 -915.1)"/><path class="cls-17" d="M466,1021.26c0,7.41-7.11,13.95-9.93,13.08-2-.62,1.74-10.69-2.85-9.06s0.92,9.66-2,10.64c-4.07,1.36-8.44.87-9.5-.16s2.39-10.58-2-10.31c-4.8.3-.52,8.39-2.2,8.39-1.33,0-4.94-5.89-6-10.26C432.71,1022,445.52,1007.34,466,1021.26Z" transform="translate(-398.07 -915.1)"/><path class="cls-18" d="M431.46,1023.57a6.6,6.6,0,0,1-.27-3.15c0.84-3.77,8-10.07,17.61-9.66s17.21,6.3,17.18,10.5c0,7.41-7.11,13.95-9.93,13.08-2-.62,1.74-10.69-2.85-9.06s0.92,9.66-2,10.64c-4.07,1.36-8.44.87-9.5-.16s2.39-10.58-2-10.31c-4.8.3-.52,8.39-2.2,8.39C436.15,1033.83,432.54,1027.94,431.46,1023.57Z" transform="translate(-398.07 -915.1)"/><path d="M476.93,1153.78a96.71,96.71,0,0,1-23.21-2.66,2,2,0,1,1,1.05-3.93c0.38,0.1,38.7,10,68.15-11.15a2,2,0,0,1,2.37,3.3C509.19,1150.93,491,1153.78,476.93,1153.78Z" transform="translate(-398.07 -915.1)"/><circle class="cls-19" cx="20.75" cy="136.55" r="0.84"/><circle class="cls-19" cx="33.12" cy="131.31" r="0.84"/><path d="M494.09,1039.18a2.2,2.2,0,1,0,2.19,2.2A2.2,2.2,0,0,0,494.09,1039.18Zm-0.52,2.2a0.52,0.52,0,1,1,1,0C494.61,1042,493.57,1042,493.57,1041.38Z" transform="translate(-398.07 -915.1)"/><path d="M478.57,1050.09a2.2,2.2,0,1,0,2.19,2.2A2.2,2.2,0,0,0,478.57,1050.09Zm-0.52,2.2a0.52,0.52,0,0,1,1,0C479.09,1052.85,478.05,1052.85,478.05,1052.28Z" transform="translate(-398.07 -915.1)"/><path d="M468.93,1063.09a2.2,2.2,0,1,0,2.2,2.2A2.2,2.2,0,0,0,468.93,1063.09Zm-0.52,2.2a0.52,0.52,0,1,1,1,0C469.45,1065.85,468.41,1065.85,468.41,1065.28Z" transform="translate(-398.07 -915.1)"/><path d="M485.28,1066.86a2.2,2.2,0,1,0,2.2,2.2A2.2,2.2,0,0,0,485.28,1066.86Zm-0.52,2.2a0.52,0.52,0,1,1,1,0C485.8,1069.63,484.76,1069.63,484.76,1069.06Z" transform="translate(-398.07 -915.1)"/><path d="M499.54,1059.73a2.2,2.2,0,1,0,2.19,2.19A2.2,2.2,0,0,0,499.54,1059.73Zm-0.52,2.19a0.52,0.52,0,1,1,1,0C500.06,1062.5,499,1062.5,499,1061.93Z" transform="translate(-398.07 -915.1)"/><path d="M513,1075.67a2.2,2.2,0,1,0,2.19,2.19A2.2,2.2,0,0,0,513,1075.67Zm-0.52,2.19a0.52,0.52,0,1,1,1,0C513.48,1078.43,512.44,1078.43,512.44,1077.86Z" transform="translate(-398.07 -915.1)"/><path d="M489.47,1081.54a2.2,2.2,0,1,0,2.2,2.2A2.2,2.2,0,0,0,489.47,1081.54Zm-0.52,2.2a0.52,0.52,0,1,1,1,0C490,1084.31,489,1084.31,489,1083.73Z" transform="translate(-398.07 -915.1)"/><circle class="cls-19" cx="28.09" cy="119.57" r="0.84"/><path d="M479,1034.15a2.2,2.2,0,1,0,2.19,2.2A2.2,2.2,0,0,0,479,1034.15Zm-0.52,2.2a0.52,0.52,0,0,1,1,0C479.51,1036.92,478.47,1036.92,478.47,1036.35Z" transform="translate(-398.07 -915.1)"/><path d="M500.36,1019a1.35,1.35,0,0,1-.71-0.2c-43.21-26.71-80.94-2.31-81.31-2.06a1.36,1.36,0,1,1-1.5-2.26c0.39-.26,39.57-25.6,84.24,2A1.36,1.36,0,0,1,500.36,1019Z" transform="translate(-398.07 -915.1)"/><path d="M456.94,1004.76c1-24.79,8.76-69.19,50.08-84.22a1.24,1.24,0,0,1,1.74.53,1.21,1.21,0,0,1-.81,1.6c-39.83,14.49-47.36,58.16-48.3,82.27C459.63,1005.67,456.91,1005.51,456.94,1004.76Z" transform="translate(-398.07 -915.1)"/><path class="cls-1" d="M855.12,1014.49c2.93,18.88-5.74,32.42-4.68,51a121.85,121.85,0,0,0-15.76-12.2l0.34-.56s17.94-10.42,19.5-39.29l0.37-.06C855,1013.75,855.06,1014.12,855.12,1014.49Z" transform="translate(-398.07 -915.1)"/><path class="cls-2" d="M812.12,980.07c-13.67.72-23.47,6.43-29.83,14.26l0.47,0.37c-6.77,9.36-6.9,39.88,15.85,47.87a24.89,24.89,0,0,0,24.31-4.06c7.33-5.74,11.64-14.82,11.08-21.69l0.87-.34a31.46,31.46,0,0,1,1.62,7.77c0.5,7.21-1.69,18-10.08,24.37a73.94,73.94,0,0,1,8.27,4.65l0.34-.56s17.94-10.42,19.5-39.29l0.37-.06C851.22,993,832.71,979,812.12,980.07ZM808.5,1027c-9.8-.75-9.67-9.74-5.77-13,7-5.87,12.39.87,14,3.25C815.71,1022.83,813.34,1027.38,808.5,1027Z" transform="translate(-398.07 -915.1)"/><path class="cls-1" d="M836.49,1024.26a31.46,31.46,0,0,0-1.62-7.77l-0.87.34c0.56,6.87-3.75,15.95-11.08,21.69a24.89,24.89,0,0,1-24.31,4.06c-22.75-8-22.62-38.51-15.85-47.87l-0.47-.37a42.1,42.1,0,0,0-8.36,34.7c3.49,15.29,16,25.06,36,24.75,7.12-.12,12.45-2.12,16.45-5.15C834.81,1042.3,837,1031.47,836.49,1024.26Z" transform="translate(-398.07 -915.1)"/><path class="cls-9" d="M816.71,1017.24a53.45,53.45,0,0,0,0-16.48,1.58,1.58,0,0,1,2.12-1.75c4.09,1.53,12.42,7.43,16,17.48a31.46,31.46,0,0,1,1.62,7.77c0.5,7.21-1.69,18-10.08,24.37-4,3-9.33,5-16.45,5.15-20.07.31-32.55-9.46-36-24.75a42.1,42.1,0,0,1,8.36-34.7c6.37-7.83,16.16-13.54,29.83-14.26,20.6-1,39.1,12.92,42.78,33.3,0.09,0.37.16,0.75,0.22,1.12,2.93,18.88-5.74,32.42-4.68,51a121.85,121.85,0,0,0-15.76-12.2,73.91,73.91,0,0,0-8.27-4.65c-0.25-.12-0.5-0.22-0.75-0.34" transform="translate(-398.07 -915.1)"/><path class="cls-9" d="M816.71,1017.24c-1.59-2.37-7-9.11-14-3.25-3.9,3.28-4,12.26,5.77,13C813.33,1027.38,815.71,1022.83,816.71,1017.24Z" transform="translate(-398.07 -915.1)"/><path class="cls-9" d="M817.17,1018s-0.16-.28-0.47-0.75" transform="translate(-398.07 -915.1)"/><path class="cls-12" d="M448.26,985.27a19.66,19.66,0,0,1,.52,5.67,22.17,22.17,0,0,1-6.92,14.76c-5.7,1.74-9.09,2.69-14.44,4.51a20.17,20.17,0,0,1-13.27-5.89l0.38-.41S440,1010,447.77,985.38Z" transform="translate(-398.07 -915.1)"/><path class="cls-13" d="M448.26,985.27l-0.49.11c-7.79,24.64-33.25,18.54-33.25,18.54l-0.38.41A20.33,20.33,0,1,1,448.26,985.27Z" transform="translate(-398.07 -915.1)"/><path class="cls-14" d="M448.26,985.27a19.66,19.66,0,0,1,.52,5.67,22.17,22.17,0,0,1-6.92,14.76c-5.7,1.74-9.09,2.69-14.44,4.51A20.34,20.34,0,1,1,448.26,985.27Z" transform="translate(-398.07 -915.1)"/><circle class="cls-20" cx="31.23" cy="75.75" r="3.77"/><path d="M565.78,1376.72l0-.14c0-.11,0-0.27.06-0.43a12.82,12.82,0,0,1,.32-1.38,13.7,13.7,0,0,1,.69-1.85c0.14-.33.33-0.65,0.5-1s0.38-.65.62-1a8,8,0,0,1,.71-0.87,6.22,6.22,0,0,1,.77-0.75,5.54,5.54,0,0,1,.79-0.61,4.52,4.52,0,0,1,.75-0.46,6.38,6.38,0,0,1,1.19-.52l0.46-.16-0.4.28a6.1,6.1,0,0,0-1,.79,4.07,4.07,0,0,0-.56.6,4.82,4.82,0,0,0-.54.72,5.23,5.23,0,0,0-.48.82,6.74,6.74,0,0,0-.39.89c-0.13.3-.19,0.62-0.29,0.92s-0.14.61-.18,0.91a11.36,11.36,0,0,0-.14,1.63,10,10,0,0,0,0,1.13,2.63,2.63,0,0,0,0,.28l0,0.11a1.54,1.54,0,1,1-3,0h0Z" transform="translate(-398.07 -915.1)"/><path d="M574.93,1378.83s0-.18,0-0.44,0.07-.64.14-1.08a14.8,14.8,0,0,1,.86-3.1,10.9,10.9,0,0,1,.76-1.52,6.51,6.51,0,0,1,.43-0.64,7.34,7.34,0,0,1,1.13-1.26l0.28-.25-0.18.33a5.64,5.64,0,0,0-.41.88,5.46,5.46,0,0,0-.2.61,5.83,5.83,0,0,0-.16.69,9.7,9.7,0,0,0-.17,1.5,12.75,12.75,0,0,0,.22,2.77c0.07,0.37.14,0.67,0.2,0.87s0.09,0.27.09,0.29A1.52,1.52,0,1,1,574.93,1378.83Z" transform="translate(-398.07 -915.1)"/><path d="M538.64,1365.87l0-.14c0-.11,0-0.27.06-0.43a12.8,12.8,0,0,1,.32-1.38,13.69,13.69,0,0,1,.69-1.85c0.14-.33.33-0.65,0.5-1s0.38-.65.62-1a8,8,0,0,1,.71-0.87,6.21,6.21,0,0,1,.77-0.75,5.54,5.54,0,0,1,.79-0.61,4.52,4.52,0,0,1,.75-0.46,6.38,6.38,0,0,1,1.19-.52l0.46-.16-0.4.28a6.09,6.09,0,0,0-1,.79,4.07,4.07,0,0,0-.56.6,4.82,4.82,0,0,0-.54.72,5.24,5.24,0,0,0-.48.82,6.74,6.74,0,0,0-.39.89c-0.13.29-.19,0.62-0.29,0.92s-0.14.61-.18,0.91a11.36,11.36,0,0,0-.14,1.63,10,10,0,0,0,0,1.13,2.63,2.63,0,0,0,0,.28l0,0.11a1.54,1.54,0,1,1-3,0h0Z" transform="translate(-398.07 -915.1)"/><path d="M547.79,1368s0-.18,0-0.44,0.07-.64.14-1.08a14.8,14.8,0,0,1,.86-3.1,10.91,10.91,0,0,1,.76-1.52,6.54,6.54,0,0,1,.43-0.64,6,6,0,0,1,.42-0.54,5.91,5.91,0,0,1,.71-0.72l0.28-.25-0.18.33a5.66,5.66,0,0,0-.41.88,5.49,5.49,0,0,0-.2.61,5.79,5.79,0,0,0-.16.69,9.68,9.68,0,0,0-.17,1.5,12.74,12.74,0,0,0,.22,2.77c0.07,0.37.14,0.67,0.2,0.87s0.09,0.27.09,0.29A1.52,1.52,0,0,1,547.79,1368Z" transform="translate(-398.07 -915.1)"/><path d="M839.89,1368.58l0-.14c0-.11,0-0.27.06-0.43a12.8,12.8,0,0,1,.32-1.38,13.68,13.68,0,0,1,.69-1.85c0.14-.33.33-0.65,0.5-1s0.38-.65.62-1a8,8,0,0,1,.71-0.87,6.21,6.21,0,0,1,.77-0.75,5.54,5.54,0,0,1,.79-0.61,4.53,4.53,0,0,1,.75-0.46,6.37,6.37,0,0,1,1.19-.52l0.46-.16-0.4.28a6.1,6.1,0,0,0-1,.79,4.08,4.08,0,0,0-.56.6,4.83,4.83,0,0,0-.54.72,5.24,5.24,0,0,0-.48.82,6.75,6.75,0,0,0-.39.89c-0.13.3-.19,0.62-0.29,0.92s-0.14.61-.18,0.91a11.35,11.35,0,0,0-.14,1.63,10,10,0,0,0,0,1.13,2.6,2.6,0,0,0,0,.28l0,0.11a1.54,1.54,0,1,1-3,0h0Z" transform="translate(-398.07 -915.1)"/><path d="M849,1370.69s0-.18,0-0.44,0.07-.64.14-1.08a14.8,14.8,0,0,1,.86-3.1,10.92,10.92,0,0,1,.76-1.52,6.52,6.52,0,0,1,.43-0.64,7.32,7.32,0,0,1,1.13-1.26l0.28-.25-0.18.33a5.65,5.65,0,0,0-.41.88,5.48,5.48,0,0,0-.2.61,5.8,5.8,0,0,0-.16.69,9.69,9.69,0,0,0-.17,1.5,12.75,12.75,0,0,0,.22,2.77c0.07,0.37.14,0.67,0.2,0.87s0.09,0.27.09,0.29A1.52,1.52,0,1,1,849,1370.69Z" transform="translate(-398.07 -915.1)"/><path d="M812.75,1363.15l0-.14c0-.11,0-0.27.06-0.43a12.82,12.82,0,0,1,.32-1.38,13.69,13.69,0,0,1,.69-1.85c0.14-.33.33-0.65,0.5-1s0.38-.65.62-1a8,8,0,0,1,.71-0.87,6.2,6.2,0,0,1,.77-0.75,5.53,5.53,0,0,1,.79-0.61,4.52,4.52,0,0,1,.75-0.46,6.37,6.37,0,0,1,1.19-.52l0.46-.16-0.4.28a6.1,6.1,0,0,0-1,.79,4.08,4.08,0,0,0-.56.6,4.82,4.82,0,0,0-.54.72,5.24,5.24,0,0,0-.48.82,6.73,6.73,0,0,0-.39.89c-0.13.3-.19,0.62-0.29,0.92s-0.14.61-.18,0.91a11.36,11.36,0,0,0-.13,1.63,10,10,0,0,0,0,1.13,2.59,2.59,0,0,0,0,.28l0,0.11a1.54,1.54,0,1,1-3,0h0Z" transform="translate(-398.07 -915.1)"/><path d="M821.9,1365.26s0-.18,0-0.44,0.07-.64.14-1.08a14.8,14.8,0,0,1,.86-3.1,10.92,10.92,0,0,1,.76-1.52,6.54,6.54,0,0,1,.43-0.64,7.32,7.32,0,0,1,1.13-1.26l0.28-.25-0.18.33a5.64,5.64,0,0,0-.41.88,5.49,5.49,0,0,0-.2.61,5.83,5.83,0,0,0-.16.69,9.68,9.68,0,0,0-.17,1.5,12.75,12.75,0,0,0,.22,2.77c0.07,0.37.14,0.67,0.2,0.87s0.09,0.27.09,0.29A1.52,1.52,0,0,1,821.9,1365.26Z" transform="translate(-398.07 -915.1)"/></svg>