<svg id="Layer_1" data-name="Layer 1" xmlns="http://www.w3.org/2000/svg" viewBox="0 0 489.97 530.67"><defs><style>.cls-1{fill:#d1d3d4;}.cls-2,.cls-6{fill:#565859;}.cls-2{stroke:#565859;}.cls-15,.cls-2{stroke-miterlimit:10;}.cls-15,.cls-19,.cls-2{stroke-width:3px;}.cls-3{fill:#bcbec0;}.cls-4{fill:#808285;}.cls-5{fill:#f1f2f2;}.cls-7{fill:#58595b;}.cls-8{fill:#deb6b6;}.cls-9{fill:#c29393;}.cls-10{fill:#614141;}.cls-11{fill:#473030;}.cls-12{fill:#efd1d1;}.cls-13{fill:#424142;}.cls-14,.cls-15{fill:#262526;}.cls-15{stroke:#262526;}.cls-16{fill:#6a6c6e;}.cls-17,.cls-18,.cls-19{fill:none;stroke:#000;stroke-linecap:round;stroke-linejoin:round;}.cls-17{stroke-width:1.8px;}.cls-18{stroke-width:0.9px;}</style></defs><title>husky-vector</title><path class="cls-1" d="M704,524.27c-9.31,1.5-30.67-.9-30.93-9.61-0.1-3.32,1.58-6.73,4-9.67,2,3.94,19.15,10.23,27.05,5,8.11-5.4,7.79-44.42,5-62.15s-7.36-36.63-5-69.67q0.08-1.22.19-2.54a60.09,60.09,0,0,1,4.79,8.69l0.46,0c1.08,17,1.33,40,12.6,56.67-3.72,30.18,1.2,62-1.68,64.72C715.15,510.75,711.45,523.07,704,524.27Z" transform="translate(-233.17 -16.57)"/><path class="cls-2" d="M719.08,268c-4.59-24.85-12.93-39.26-21.48-53.35-6.07-10-12.25-19.84-17.25-33.13H679.8c-0.57-2-9.64-34.41-10.48-56.82-0.86-23.12,1.82-54.06,1.82-54.06s-4.05-9.91-10.35-13.21C647.73,203.09,697.5,214.84,707.5,326.86h0c0,19.57-2.4,37.07-3.27,48.71a60.11,60.11,0,0,1,4.87,8.69l0.5,0a0.25,0.25,0,0,1,0-.08C708.52,367.2,726.93,310.45,719.08,268Z" transform="translate(-233.17 -16.57)"/><path class="cls-3" d="M530.61,172.11s14-2.16,28.74-4.65c22.9,6.94,49.71,3.54,72.83-10.46h0c7.64,14,9.7,29.85,8.33,37.66a15.62,15.62,0,0,0-6.51-5.76c-5-2.37-11-4.24-12.11-5-1.8-1.21,3,5.81,1.8,11.21-1.8-3.3-15.91-8.2-29.42-9.7S554.94,189.83,530.61,172.11Z" transform="translate(-233.17 -16.57)"/><path class="cls-4" d="M651.86,49a67.52,67.52,0,0,1-1.22,12.11C642.93,49.3,625.08,45,625.08,45h0a36.09,36.09,0,0,0-1.51-11.31C637.52,34.88,651.86,49,651.86,49Z" transform="translate(-233.17 -16.57)"/><path class="cls-4" d="M622.55,43.16s-21.67-5.58-49.88.28c-41.2,8.55-57.51,37.37-57.51,37.37a89.7,89.7,0,0,0-12.78,3c18.32-36.64,60.66-45,60.66-45-0.3-2.7-4.21-4.8-4.21-4.8a87,87,0,0,1,39.64-.6c0.6-3.31-4.8-7.21-4.8-7.21s19.9-1.77,24,4.21A34.18,34.18,0,0,1,622.55,43.16Z" transform="translate(-233.17 -16.57)"/><path class="cls-5" d="M632.18,157c-23.12,14-49.93,17.4-72.83,10.46,12-2,24.46-4,30.22-1.79a30.53,30.53,0,0,0-4.3-14.8s14.51,1.16,18.51,7.69c12.12-14.86,10.91-30.48,10.91-30.48,7.67,9.13,13.39,17.91,17.5,28.91h0Z" transform="translate(-233.17 -16.57)"/><path class="cls-5" d="M538.4,356.51c36-37.53,71.19,11.4,76.29,22.21s12.61,34.24,9.61,42.65-24.56,69.92-31.83,75c-12.16,8.49-30.63,0-28.83-8.32,2.4-2.41,11.71-5.11,11.71-5.11s22.82-30.63,14.11-59.76c-6.9-21.32-21.32-27-39.64-48.65A80.36,80.36,0,0,1,538.4,356.51Z" transform="translate(-233.17 -16.57)"/><path class="cls-5" d="M572.55,295.71c-10.21-3.06-24.73,8.61-40.21,21.76,4.05-11,14.52-28.85,39.71-28.23,34.22,0.85,57.26,82.67,59.82,92.18-4.23-4.07-8.51-8.51-12.78-13.47-25.79-29.88-29.47-71.62-45.69-72.23Z" transform="translate(-233.17 -16.57)"/><path class="cls-3" d="M614.69,378.72c-5.1-10.81-40.28-59.74-76.29-22.21a94.19,94.19,0,0,1-8.33-29.78c11.27-11.87,25.92-31,42.48-31l0.86,0c16.22,0.6,19.89,42.34,45.69,72.23,4.27,5,8.56,9.4,12.78,13.47,0.16,0.59.24,0.9,0.24,0.9s-3.31,15,3,37.84c-6.31,10.22-16.82,31.23-20.42,42S603.88,491,603.88,497.64c-4.5,5.41-14.71,12.61-18.61,13.22s-23.13,0-25.83-6.6,1.8-13.82,4.21-16.22c-1.8,8.32,16.67,16.81,28.83,8.32,7.27-5.07,28.83-66.59,31.83-75S619.8,389.53,614.69,378.72Z" transform="translate(-233.17 -16.57)"/><path class="cls-1" d="M572.55,295.71c-16.56,0-31.21,19.15-42.48,31,0-.57-0.06-0.86-0.06-0.86a48.12,48.12,0,0,1,2.33-8.41C547.82,304.32,562.34,292.65,572.55,295.71Z" transform="translate(-233.17 -16.57)"/><path class="cls-1" d="M517.29,336c-1.58.45-3.13-.73-4.43-2.38,6.5-5,13.08-10.68,19.49-16.13a48.12,48.12,0,0,0-2.33,8.41s0,0.3.06,0.86C525.12,332,520.82,335.79,517.29,336Z" transform="translate(-233.17 -16.57)"/><path class="cls-6" d="M506.56,139s23.11,18.77,52.79,27.76c-14.73,2.49-28.74,5.77-28.74,5.77a63,63,0,0,1-19.5-23c-1.82-3.6-3.33-7.49-4.56-10.49h0Z" transform="translate(-233.17 -16.57)"/><path class="cls-6" d="M572.68,194.93c-51,0-61.68-46.42-61.68-46.42l0.11-.05a65,65,0,0,0,19.5,23.66c24.32,17.72,50.15,11.71,63.67,13.22s27.62,6.31,29.42,9.6c1.21-5.41-3.6-12.61-1.8-11.41,1.14,0.76,7.12,2.24,12.11,4.61,3.85,5.67-1.83,14.95-1.83,14.95S623.7,194.93,572.68,194.93Z" transform="translate(-233.17 -16.57)"/><path class="cls-5" d="M508,337.17c-14.06,10-27.51,15.67-37.88,7.18,0-.14,0-0.28,0-0.41,3.5-4.32,52.29-63.71,101.9-63.71,36.63,0,37.81,27.88,57.67,48.62,29.48,30.78,57.19,20.62,74.66,46.74q-0.11,1.32-.19,2.54c-2.38,33,2.18,51.94,5,69.67s3.13,56.76-5,62.15c-7.9,5.27-25.07-1-27.05-5,4-4.77,9.93-8.3,13.58-8.21,0,0,3.41-41.29-8.11-64.42-9.62-19.3-29.45-30.43-50.73-50.94-2.56-9.51-25.6-91.34-59.82-92.18-25.19-.62-35.66,17.22-39.71,28.23-6.41,5.44-13,11.13-19.49,16.13a30,30,0,0,1-3.67-6.63A47.67,47.67,0,0,0,508,337.17Z" transform="translate(-233.17 -16.57)"/><path class="cls-7" d="M470.15,343.94c0,0.14,0,.28,0,0.41-0.07,0-.14-0.11-0.21-0.16Z" transform="translate(-233.17 -16.57)"/><path class="cls-3" d="M509.44,345s-11.71,10.21-17.37,12.16c-3.26-1.65-10.56-2.86-9.46,8.11C480.7,367.51,474,372,469.1,372l-0.05.21-0.4-.1c1.35-5.67,1.57-18.32,1.51-27.77,10.38,8.49,23.82,2.85,37.88-7.18A19.7,19.7,0,0,0,509.44,345Z" transform="translate(-233.17 -16.57)"/><path class="cls-7" d="M463,394.79c1.81-15.14,4.09-33.79,7-55.79h0.14s0,3.14.05,4.9a3.37,3.37,0,0,0-.2.27c0.07,0.05.14,0.13,0.21,0.17,0.05,9.44-.16,22.1-1.51,27.77l0.4,0.1c-2.27,9.12-3.42,20-4,31.79l-0.44,0C464.15,400.73,463.62,397.66,463,394.79Z" transform="translate(-233.17 -16.57)"/><path class="cls-1" d="M463,394.83c0.66,2.87,1.19,5.92,1.61,9.15l0.44,0c-1,20.1-.5,43.06-1.32,65.3-4.91,7.5-12.21,39.65-12.16,62.16-2.66,3.59-21.37,15.32-25.68,14.87s-21.82-6.45-24.32-9.46-2-11.46-1-15.41c2.8,2,21.64,14.5,32.18,3.81,11.41-11.57,20.44-40.33,22.23-55.86C456.29,457.74,457.47,440.82,463,394.83Z" transform="translate(-233.17 -16.57)"/><path class="cls-8" d="M420.22,27c3.77-2,6.87-2.66,8.29-.83,1.86,3.9-6.16,25.65-8.41,34.82a64.11,64.11,0,0,0-2.27,16h0C390.19,57,420.22,27,420.22,27Z" transform="translate(-233.17 -16.57)"/><path class="cls-9" d="M418.83,94.41c-27.48-21.78-25.41-39.57-24-44.22,1.09-3.48,15.5-18,25.35-23.21,0,0-30,30-2.41,50h0a88.67,88.67,0,0,0,.51,14c0.22,1.78.44,3,.52,3.4C418.85,94.42,418.83,94.43,418.83,94.41Z" transform="translate(-233.17 -16.57)"/><path class="cls-3" d="M384,346.42c-0.23,2.89-5.71,74-4,108,0,0-8,40.1-9.46,63.51-2.35,2.09-13.87,9.61-21.62,10.81s-25.58-6.9-27.52-9.9-2-9.29-.14-12.4c3,1.1,26.57,9.41,37.12,2.74,11.28-7.14,14.42-137.08,25.23-162.76Z" transform="translate(-233.17 -16.57)"/><path class="cls-10" d="M341,134a48.93,48.93,0,0,1-19.88,24.3C322,145.38,336.08,138,341,134Z" transform="translate(-233.17 -16.57)"/><path class="cls-11" d="M310.75,163c1.34-8.5,3.87-15.82,10.4-20.35,0.64-.27,1.27-0.55,1.9-0.85,9.45-4.39,17.74-10.95,19.87-16a21,21,0,0,0,1.32-5.21A48.94,48.94,0,0,1,341,134c-4.95,4-19,11.38-19.88,24.3a54.06,54.06,0,0,1-9.76,4.8Z" transform="translate(-233.17 -16.57)"/><path class="cls-8" d="M305.38,146.59a37,37,0,0,1-11.44-1.32l-0.87.11s-0.69.74-1.84,2l0.12,0.1c3.68,1.95,19.89,1.8,18.24,6.36-0.53,1.47-1.81,4.64-3.32,8.7-2.55,6.78-5.77,16-7.32,24-1.14,5.84-5.68,8.11-11.32,7.14-0.75-.13-3.57-11.86,3.95-28.76-8.63,9.74-7.51,24.55-7.32,28-5.22,2.86-11.42-2.76-11.74-3,1.81,6.93,6.17,12.78,13.66,13.14,12.61,0.6,20.93-5.87,22.67-22.22,0.66-6.13,1-12.22,1.92-17.79,1.34-8.5,3.87-15.82,10.4-20.35A45.29,45.29,0,0,1,305.38,146.59Z" transform="translate(-233.17 -16.57)"/><path class="cls-4" d="M377.37,52.86c-34.44-16-74.49-13.28-74.49-13.28,21.57-6.92,55.5-8.42,77,8.11,0,0,27.88-22.72,35.39-24.52,4-1,6.92-1.19,9.08-.59,0,0-10.17,2.51-23.46,13.5-3.5,2.9-12.35,11.29-17,15.72A5.87,5.87,0,0,1,377.37,52.86Z" transform="translate(-233.17 -16.57)"/><path class="cls-5" d="M310.75,163l0.64,0.07a54.06,54.06,0,0,0,9.76-4.8A48.6,48.6,0,0,0,340.91,134,43.35,43.35,0,0,0,344,120.66h0c0-1.47.44-3,.47-4.61-14,31.26-57.4,24-64.21,22.68-0.59-.12-0.87-0.19-0.87-0.19A9.83,9.83,0,0,1,268.47,134c0.4,2.73,1.14,4.93,2.37,6,4.73,4,6-1.56,9.43-1a3.22,3.22,0,0,1,.49.12,28.13,28.13,0,0,0-.72,5.8c-0.28,5.11-.16,12,0.72,14.92l0.21,0c-4,5.42-7.77,11.34-8.77,15.75a31.35,31.35,0,0,0,.31,14.34c1.81,6.93,6.17,12.78,13.66,13.14,12.61,0.6,20.93-5.87,22.67-22.22C309.49,174.7,309.86,168.61,310.75,163Zm-43.23-49.69a13.21,13.21,0,0,0,.29,7.19c0.12,0.41.25,0.8,0.4,1.21,2.21,6.13,7.44,11.86,11.65,12.24,6.6,0.59,19.51-8.11,21.32-12.92a9.29,9.29,0,0,0-.25-6.06c-0.5-2.17-1.41-7.46.11-12.25,3.14-10,14-33.74,19.82-40.78,7.81-9.46,19.07-9.31,21.32-2.25s0,18.18,6.45,25.92c8.49,10.21,39.39,15.84,47.31,26s10.37,27.27,3.75,38.83c-5.6,9.78-36.62,38-47.7,78.8-9.17,33.72,9.52,80,48.2,103,42.12,24.95,57.18,37.9,62.79,62.58-5.49,46-6.68,62.91-8,74.59-1.78,15.52-10.81,44.29-22.23,55.86-10.54,10.69-29.38-1.85-32.18-3.81,0-.13.06-0.24,0.1-0.36,1.1-3.77,10.32-8,18.47-11.26,7-3.91,6-37.24,4.5-59.46S413,379.62,402.88,368c-7.8-9-18.92-21.62-18.92-21.62a0.74,0.74,0,0,1,0,.09l-0.44,0c-10.8,25.68-13.95,155.63-25.23,162.76-10.55,6.68-34.13-1.64-37.12-2.74l0.14-.23c1.95-3,8-8.1,15.57-9.91,4.6-3.91,8.6-112-8.32-144.59s-33.24-43.4-36.48-48.65,1.35-25.68,1.35-25.68-5.91,9.31-9.47,14.86c-3.25-3.46-5.15-12.76-6.31-20.28s0-18.6-.46-29.75-8.9-39-12.17-41.92a4.58,4.58,0,0,0-4.23.51s-13.22-19.07-13.22-23.42,6-12,6-12c-2.55-1-7.21,4.36-7.21,4.36s-8.86-14.12-8.41-19.37a22.48,22.48,0,0,1,3.6-6c-1.66-2.1-6-2.41-6-2.41-1.8-2.25-1.65-10.05-1.2-10.81s4.8-5.41,4.8-5.41c-3.76-3-1.2-16-1.2-16l7.09-3.3a48,48,0,0,1-.33-7.14,38.33,38.33,0,0,0,6.23-3.6c-0.06-3.42,1.86-7.92,2.45-9.23,14.66-4,25.93-22.6,30.06-26.24,6.31-5.55,13.21-5.1,14,.45s-2,19.82-6.46,28.23c-3,5.68-12,14.53-17.48,19.66-2.53.54-4.5,1.52-5.34,3.16A8.27,8.27,0,0,0,267.52,113.34Z" transform="translate(-233.17 -16.57)"/><path class="cls-1" d="M293.94,145.28l29-3.64,0.1,0.2c-0.63.3-1.26,0.58-1.9,0.85a45.29,45.29,0,0,1-15.77,3.91A37,37,0,0,1,293.94,145.28Z" transform="translate(-233.17 -16.57)"/><path class="cls-12" d="M291.34,147.49l-0.12-.1c-0.75.82-1.69,1.87-2.73,3.1-2.22,2.55-4.94,5.84-7.53,9.32-4,5.42-7.77,11.34-8.77,15.75a31.36,31.36,0,0,0,.31,14.34c0.32,0.29,6.52,5.9,11.74,3-0.19-3.5-1.31-18.31,7.32-28-7.51,16.89-4.69,28.63-3.95,28.76,5.63,1,10.17-1.3,11.32-7.14,1.56-7.93,4.77-17.19,7.32-24,1.51-4.06,2.79-7.23,3.32-8.7C311.24,149.29,295,149.44,291.34,147.49Z" transform="translate(-233.17 -16.57)"/><path class="cls-10" d="M288.5,150.49c-2.22,2.55-4.94,5.84-7.53,9.32l-0.21,0c-0.88-2.95-1-9.81-.72-14.92C281.08,145.19,288,147.38,288.5,150.49Z" transform="translate(-233.17 -16.57)"/><path class="cls-11" d="M293.07,145.38s-0.69.74-1.84,2c-0.75.82-1.69,1.87-2.73,3.1-0.49-3.11-7.41-5.31-8.46-5.61a28.13,28.13,0,0,1,.72-5.8c2.58,0.83,6.35,4.27,13.18,6.2Z" transform="translate(-233.17 -16.57)"/><path class="cls-1" d="M280.32,138.72c6.81,1.34,50.14,8.59,64.15-22.68,0,1.59-.47,3.14-0.47,4.61h0a13.42,13.42,0,0,1-1.2,5.21c-2.14,5-10.36,11.58-19.81,16l-0.07-.2-29,3.64c-6.83-1.93-10.6-5.37-13.17-6.2a3.15,3.15,0,0,0-.48-0.12Z" transform="translate(-233.17 -16.57)"/><path class="cls-1" d="M268.49,134a9.86,9.86,0,0,0,10.93,4.52l0.9,0.19,0,0.24c-3.39-.54-4.69,5-9.42,1C269.62,138.93,268.89,136.73,268.49,134Z" transform="translate(-233.17 -16.57)"/><path class="cls-13" d="M300.42,113.89c-6.21-4.23-25.39-1.71-31.42-.78,0-.29.05-0.45,0.05-0.45s1.82-1.6,4.44-4.06c6.06-1.31,15.4-.09,20.48.76A8.54,8.54,0,0,1,300.42,113.89Z" transform="translate(-233.17 -16.57)"/><path class="cls-13" d="M269,113.1l-1.47.23a8.27,8.27,0,0,1,.62-1.59c0.85-1.64,2.81-2.62,5.34-3.16-2.62,2.46-4.44,4.06-4.44,4.06S269,112.81,269,113.1Z" transform="translate(-233.17 -16.57)"/><path d="M301.18,116s-0.11-.37-0.26-1a9.29,9.29,0,0,1,.25,6.06c-1.8,4.81-14.71,13.51-21.32,12.92-4.21-.39-9.44-6.12-11.65-12.24,0-.37,0-0.72.07-1.07C273.07,122.06,291.8,126.64,301.18,116Z" transform="translate(-233.17 -16.57)"/><path class="cls-14" d="M267.81,120.53l0.47,0.14c0,0.35,0,.7-0.07,1.07C268.06,121.33,267.93,120.93,267.81,120.53Z" transform="translate(-233.17 -16.57)"/><path class="cls-15" d="M300.92,113.8a15,15,0,0,0-.5-2.3h0c-6.21-3-25.39-.52-31.42.41a7,7,0,0,0-1.47.83,14.3,14.3,0,0,0,.29,7.49c0.14,0,.29.23,0.47,0.28,4.79,1.4,23.51,5.46,32.9-5.17C301.18,115.34,301.07,114.45,300.92,113.8Z" transform="translate(-233.17 -16.57)"/><path class="cls-16" d="M283.46,60.25c-4.14,3.64-15.41,22.28-30.06,26.24l0.18-.38s7.5-5.25,8.77-8.69,2-10.07,4.5-14.87,11.71-12.16,11.71-12.16S283,22.15,289.37,18s8.35,19.5,13.51,21.61c0,0,40-2.68,74.49,13.28a5.87,5.87,0,0,0,6.55-1.06c4.64-4.43,13.49-12.82,17-15.72,13.29-11,23.46-13.5,23.46-13.5a6.19,6.19,0,0,1,4.14,3.59C427.1,24.34,424,25,420.22,27c-9.85,5.25-24.26,19.7-25.35,23.18-1.45,4.65-3.52,22.44,24,44.22l0,0c17.75,21.39,10.59,50.19,10.59,50.19s22.78,6.14,44.6,7.66c10.09,0.7,24.44-1.37,36.95-3.79,0,0,10.64,46.42,61.68,46.42s59.51,8.15,59.51,8.15,5.68-9.28,1.83-14.95c2.87,1.36,5.41,3,6.51,5,1.37-7.81-.69-22.61-8.33-39.19a123,123,0,0,0-17.5-27.48,49.55,49.55,0,0,1-10.91,31.91c-4-6.53-18.51-7.88-18.51-7.88a28.25,28.25,0,0,1,4.3,14.41c-5.76-2.22-18.23-.17-30.22,1.85-29.69-9-52.79-27.76-52.79-27.76h0c-4.66-15-5.31-29.85-2.36-40.84,3.6-7.21,18.61-16.33,18.61-16.33-1.3-1.08-4.32-1.28-7.64-.82,0,0,16.32-28.92,57.51-37.47,28.21-5.86,49.88-.33,49.88-0.33a58.65,58.65,0,0,1,1,10.32A39.79,39.79,0,0,0,625.07,45h0s17.85,4.3,25.56,16.09c-0.91,4.52-2.5,9.14-5.32,12.08a40.24,40.24,0,0,0,16.21-15.69C648.48,203.17,696,214.84,709,326.86h0c-3,19.57-3.15,37.07-4,48.71-17.47-26.12-45.48-16-75-46.74-19.86-20.74-21.19-48.62-57.82-48.62-49.61,0-98.48,59.35-102,63.67,0-1.76-.1-4.9-0.13-4.9H470c-2.9,22-5.18,40.65-7,55.79-5.6-24.68-20.67-37.61-62.79-62.56C361.5,309.32,342.81,263,352,229.28c11.08-40.76,42.1-69,47.7-78.8,6.62-11.56,4.05-28.77-3.75-38.83s-38.82-15.83-47.31-26c-6.43-7.74-4.2-18.86-6.45-25.92S328.66,52.5,320.85,62C315,69,304.17,92.78,301,102.74c-1.51,4.79-.6,10.14-0.11,12.31a2.22,2.22,0,0,0-.5-1.05h0c-1.12,0-3.15-4-6.45-4.6-5.08-.85-14.41-2.09-20.48-0.79,5.48-5.13,14.43-14,17.48-19.67,4.5-8.41,7.21-22.67,6.46-28.24S289.77,54.7,283.46,60.25Z" transform="translate(-233.17 -16.57)"/><path class="cls-17" d="M530.07,326.74a94.19,94.19,0,0,0,8.33,29.78,80.36,80.36,0,0,0,11.42,18c18.32,21.62,32.74,27.33,39.64,48.65,8.71,29.13-14.11,59.76-14.11,59.76s-9.32,2.7-11.71,5.11-6.91,9.6-4.21,16.22,21.92,7.21,25.83,6.6,14.11-7.81,18.61-13.22c0-6.6,7.21-24.62,10.81-35.43s14.12-31.83,20.42-42c-6.31-22.82-3-37.84-3-37.84s-0.08-.32-0.24-0.9" transform="translate(-233.17 -16.57)"/><path class="cls-17" d="M379.91,47.69c-21.52-16.53-55.45-15-77-8.11-5.16-2.12-7.15-25.8-13.51-21.61s-10.81,32.42-10.81,32.42-9.25,7.38-11.71,12.16S263.6,74,262.34,77.42s-8.77,8.69-8.77,8.69l-0.18.38c-0.59,1.32-2.51,5.81-2.45,9.23a38.33,38.33,0,0,1-6.23,3.6,48,48,0,0,0,.33,7.14l-7.09,3.3s-2.56,13,1.2,16c0,0-4.35,4.66-4.8,5.41s-0.6,8.56,1.2,10.81c0,0,4.35.31,6,2.41a22.48,22.48,0,0,0-3.6,6c-0.45,5.25,8.41,19.37,8.41,19.37s4.66-5.41,7.21-4.36c0,0-6,7.66-6,12s13.22,23.42,13.22,23.42a4.58,4.58,0,0,1,4.23-.51c3.27,2.91,11.77,30.78,12.17,41.92s-0.69,22.23.46,29.75,3.05,16.82,6.31,20.28c3.56-5.55,9.47-14.86,9.47-14.86s-4.6,20.42-1.35,25.68,19.57,16.06,36.48,48.65,12.92,140.68,8.32,144.59c-7.61,1.81-13.62,6.9-15.57,9.91l-0.14.23c-1.82,3.11-1.77,9.46.14,12.4s19.77,11.09,27.52,9.9S368.09,520,370.45,518c1.45-23.41,9.46-63.51,9.46-63.51-1.67-34,3.82-105.12,4-108a0.74,0.74,0,0,0,0-.09s11.12,12.59,18.92,21.62c10.09,11.67,19.27,60.2,20.72,82.43s2.45,55.55-4.5,59.46c-8.15,3.31-17.37,7.5-18.47,11.26,0,0.12-.06.23-0.1,0.36-1,3.95-1.42,12.49,1,15.41s20,9,24.32,9.46,23-11.27,25.68-14.87c0-22.51,7.25-54.66,12.16-62.16,0.82-22.24.3-45.2,1.32-65.3,0.6-11.83,1.76-22.67,4-31.78l0.05-.21c4.91,0,11.6-4.5,13.51-6.76-1.1-11,6.2-9.76,9.46-8.11,5.66-2,17.37-12.16,17.37-12.16a19.7,19.7,0,0,1-1.4-7.81A47.67,47.67,0,0,1,509.19,327a30,30,0,0,0,3.67,6.63c1.31,1.65,2.86,2.83,4.43,2.38,3.53-.18,7.83-4,12.78-9.23,11.27-11.87,25.92-31,42.48-31l0.86,0c16.22,0.6,19.89,42.34,45.69,72.23,4.27,5,8.56,9.4,12.78,13.47,21.28,20.51,41.11,31.64,50.73,50.94,11.52,23.13,8.11,64.42,8.11,64.42-3.65-.09-9.62,3.44-13.58,8.21-2.45,2.94-4.13,6.34-4,9.67,0.26,8.71,21.62,11.11,30.93,9.61,7.41-1.2,11.11-13.51,16.51-18.62,2.88-2.72-2-34.54,1.68-64.72-11.27-16.63-11.52-39.71-12.6-56.67a0.25,0.25,0,0,1,0-.08c-1.08-17,17.31-73.72,9.46-116.22-4.59-24.85-12.93-39.26-21.48-53.35-6.07-10-12.25-19.84-17.25-33.13" transform="translate(-233.17 -16.57)"/><path class="cls-17" d="M511,148.51c-12.5,2.42-26.86,4.5-36.95,3.79-21.82-1.51-44.6-7.66-44.6-7.66s7.15-28.8-10.59-50.19l0,0" transform="translate(-233.17 -16.57)"/><path class="cls-17" d="M344.25,120.65l0-.34" transform="translate(-233.17 -16.57)"/><path class="cls-17" d="M310.75,163l0.64,0.07a54.06,54.06,0,0,0,9.76-4.8,50.84,50.84,0,0,0,23.1-37.64" transform="translate(-233.17 -16.57)"/><path class="cls-17" d="M280.76,139.08a28.13,28.13,0,0,0-.72,5.8c-0.28,5.11-.16,12,0.72,14.92l0.21,0" transform="translate(-233.17 -16.57)"/><path class="cls-17" d="M293.07,145.38s-0.69.74-1.84,2c-0.75.82-1.69,1.87-2.73,3.1-2.22,2.55-4.94,5.84-7.53,9.32-4,5.42-7.77,11.34-8.77,15.75a31.36,31.36,0,0,0,.31,14.34c1.81,6.93,6.17,12.78,13.66,13.14,12.61,0.6,20.93-5.87,22.67-22.22,0.66-6.13,1-12.22,1.92-17.79,1.34-8.5,3.87-15.82,10.4-20.35" transform="translate(-233.17 -16.57)"/><path class="cls-17" d="M418.9,94.63s0-.06,0-0.18c-0.08-.42-0.31-1.6-0.52-3.39A85.46,85.46,0,0,1,420.1,61c2.25-9.16,10.27-30.94,8.41-34.84a6.19,6.19,0,0,0-4.14-3.59c-2.16-.6-5.1-0.37-9.08.59-7.5,1.8-35.39,24.52-35.39,24.52" transform="translate(-233.17 -16.57)"/><path class="cls-18" d="M428.51,26.16C427.1,24.34,424,25,420.22,27c-9.85,5.25-24.26,19.7-25.35,23.18-1.45,4.65-3.52,22.44,24,44.22" transform="translate(-233.17 -16.57)"/><path class="cls-17" d="M552.84,97s39.94,3.3,61.86,29.42a123,123,0,0,1,17.5,27.48c7.64,16.58,9.7,31.38,8.33,39.19-1.1-2-3.64-3.63-6.51-5-5-2.37-11-3.86-12.11-4.61-1.8-1.21,3,6,1.8,11.41-1.8-3.3-15.91-8.11-29.42-9.6s-39.34,4.5-63.67-13.22a65,65,0,0,1-19.5-23.66,78.26,78.26,0,0,1-4.56-11.11c-4.66-14.21-5.31-29-2.36-40,3.6-7.21,18.61-15.92,18.61-15.92-1.3-1.08-4.32-1.07-7.64-.61a89.7,89.7,0,0,0-12.78,3c18.32-36.64,60.66-45,60.66-45-0.3-2.7-4.21-4.8-4.21-4.8a87,87,0,0,1,39.64-.6c0.6-3.31-4.8-7.21-4.8-7.21s19.9-1.77,24,4.21a34.18,34.18,0,0,1,4.85,12.78,56.54,56.54,0,0,1,1,10,28.3,28.3,0,0,0,1.51-8.82,33.85,33.85,0,0,0-1.51-11c14,1.2,28.3,15.61,28.3,15.61a65.23,65.23,0,0,1-1.22,11.79c-0.91,4.52-2.5,9.3-5.32,12.23A36.51,36.51,0,0,0,660.94,57.4c6.3,3.3,10.2,13.21,10.2,13.21s-2.68,30.94-1.82,54.06c0.84,22.41,9.91,54.82,10.48,56.82l0,0.1" transform="translate(-233.17 -16.57)"/><path class="cls-17" d="M470,332.77s0.08,2.51.14,6.31c0,1.45,0,3.1.05,4.86,0,0.14,0,.28,0,0.41,0.05,9.44-.16,22.1-1.51,27.77" transform="translate(-233.17 -16.57)"/><path class="cls-19" d="M268.21,121.73a65.86,65.86,0,0,0,.28,12.27c0.4,2.73,1.14,4.93,2.36,6,4.73,4,6-1.56,9.42-1a3.19,3.19,0,0,1,.49.12c2.58,0.83,6.35,4.27,13.18,6.2a37,37,0,0,0,11.44,1.32,45.29,45.29,0,0,0,15.77-3.91c0.64-.27,1.27-0.55,1.9-0.85,9.45-4.39,18.37-10.95,20.5-16,0.63-1.49,2-3.27,2-5.21h0c0-1.47-.31-3-0.28-4.61,0.17-7.6-1.67-15.69-2.58-16.9-1.35-1.8-5.56-.9-5.56-0.9" transform="translate(-233.17 -16.57)"/><path class="cls-17" d="M253.28,86.53l0.12,0c14.66-4,25.93-22.6,30.06-26.24,6.31-5.55,13.21-5.1,14,.45s-2,19.82-6.46,28.23c-3,5.68-12,14.53-17.48,19.66" transform="translate(-233.17 -16.57)"/><path class="cls-17" d="M300.42,113.89a8.54,8.54,0,0,0-6.45-4.54c-5.08-.85-14.41-2.06-20.48-0.76-2.53.54-4.5,1.52-5.34,3.16a8.27,8.27,0,0,0-.62,1.59,13.21,13.21,0,0,0,.29,7.19c0.12,0.41.25,0.8,0.4,1.21,2.21,6.13,7.44,11.86,11.65,12.24,6.6,0.59,19.51-8.11,21.32-12.92a9.29,9.29,0,0,0-.25-6.06,11,11,0,0,0-.5-1.11" transform="translate(-233.17 -16.57)"/><path d="M585.27,486.54a0.9,0.9,0,0,1-.6-0.23c-2.71-2.44-9.24-2.47-9.31-2.47a0.9,0.9,0,0,1,0-1.8c0.3,0,7.29,0,10.51,2.93A0.9,0.9,0,0,1,585.27,486.54Z" transform="translate(-233.17 -16.57)"/><path d="M385.21,348.82a0.9,0.9,0,0,1-.73-0.37c-3.72-5.13-10-8.3-17.3-12-13.51-6.8-30.31-15.26-43.33-40.85a0.9,0.9,0,1,1,1.61-.82c12.75,25.06,29.26,33.38,42.53,40.06,7.5,3.78,14,7,17.95,12.52A0.9,0.9,0,0,1,385.21,348.82Z" transform="translate(-233.17 -16.57)"/><path d="M286.16,203.5a0.45,0.45,0,0,1-.43-0.33c-6.89-24,5.37-38.42,5.5-38.56a0.45,0.45,0,0,1,.68.59c-0.12.14-12.07,14.23-5.31,37.72a0.45,0.45,0,0,1-.31.56Z" transform="translate(-233.17 -16.57)"/><path d="M304,118.23a3.9,3.9,0,0,1-1.81-2.3c-0.32-1.51-1.42-3.73-1.61-6.63a26.14,26.14,0,0,1-.23-4.84,11.43,11.43,0,0,1,.05-1.36,6.75,6.75,0,0,1,.07-0.71c0.06-.22.08-0.44,0.14-0.67,0.24-.89.56-1.87,0.88-2.81,1.32-3.8,3-8,4.92-12.54s4.13-9.41,6.67-14.49c1.26-2.54,2.63-5.13,4.19-7.74A25.53,25.53,0,0,1,320,60.26a20.1,20.1,0,0,1,1.62-1.71,18.37,18.37,0,0,1,1.91-1.65,18.65,18.65,0,0,1,9.39-4,12.57,12.57,0,0,1,5.54.6,9,9,0,0,1,4.62,3.78,2.9,2.9,0,0,1,.37.67l0.3,0.7L343.93,59l0,0.09s0.06,0.17.06,0.17l0,0.15L344.23,60l0.16,0.59,0.13,0.68c0.08,0.45.19,0.94,0.23,1.35,0.25,1.72.34,3.38,0.45,5A53.7,53.7,0,0,0,346.29,77a16.53,16.53,0,0,0,1.48,4.13,14,14,0,0,0,1.12,1.81c0.21,0.29.46,0.53,0.69,0.81l0.35,0.4,0.09,0.1h0l0.06,0.05,0.22,0.21c0.61,0.6,1.15,1,1.71,1.49s1.22,0.92,1.87,1.34c1.28,0.86,2.63,1.66,4,2.4,5.54,3,11.42,5.33,17.08,7.74A99.51,99.51,0,0,1,391,105.53a29.67,29.67,0,0,1,3.48,2.64,17,17,0,0,1,2.9,3.24c0.37,0.55.76,1.07,1.12,1.64l1,1.75a37.38,37.38,0,0,1,1.71,3.5,37.13,37.13,0,0,1,1.84,23.81,35,35,0,0,1-2.28,6.31l-1.06,2.11a0.11,0.11,0,0,1-.15.05,0.12,0.12,0,0,1-.05-0.15l1-2.14c0.32-.69.6-1.6,1-2.64,0.21-.52.33-1.1,0.51-1.71s0.38-1.26.49-2a35.4,35.4,0,0,0,.77-10.24,37,37,0,0,0-3.24-12.89,34,34,0,0,0-3.87-6.56,15.4,15.4,0,0,0-2.72-2.92,28,28,0,0,0-3.34-2.44c-4.75-3-10.26-5.29-15.92-7.65s-11.6-4.67-17.32-7.7c-1.43-.75-2.84-1.58-4.2-2.47a27,27,0,0,1-3.88-3,9,9,0,0,1-.86-0.9c-0.27-.31-0.56-0.61-0.81-0.94a16.12,16.12,0,0,1-1.33-2.1,18.72,18.72,0,0,1-1.72-4.65A55,55,0,0,1,343,67.72c-0.1-1.63-.17-3.25-0.4-4.85a12.87,12.87,0,0,0-1.32-4.55,6.85,6.85,0,0,0-3.54-2.92,10.56,10.56,0,0,0-4.61-.51,16.7,16.7,0,0,0-8.4,3.56A16.47,16.47,0,0,0,323,59.92a18.71,18.71,0,0,0-1.57,1.63,27.19,27.19,0,0,0-2.62,3.59c-1.56,2.5-3,5-4.28,7.52-2.62,5-4.9,9.79-6.94,14.26s-3.81,8.61-5.25,12.33a24.31,24.31,0,0,0-1.57,5.32,27.4,27.4,0,0,0-.24,4.71,47.87,47.87,0,0,0,.71,6.6c0.27,1.51.47,2.3,0.47,2.3s1.22,0.12,1.16.14a6.09,6.09,0,0,0,1.1-.08h0Z" transform="translate(-233.17 -16.57)"/><path class="cls-1" d="M339.9,87A1.88,1.88,0,0,1,338,89.32a61.16,61.16,0,0,0-8.71.56l0-.29s9.2-1.37,6.55-8l0.2-.43A10.21,10.21,0,0,1,339.9,87Z" transform="translate(-233.17 -16.57)"/><path class="cls-17" d="M329.31,89.88c-2.25.28-4.26,0.6-5.58,0.84a1.33,1.33,0,0,1-1.54-1.45c0.29-3,1.76-9.06,8.79-9.4a8.15,8.15,0,0,1,5,1.27A10.21,10.21,0,0,1,339.9,87,1.88,1.88,0,0,1,338,89.32,61.16,61.16,0,0,0,329.31,89.88Z" transform="translate(-233.17 -16.57)"/><path class="cls-1" d="M282.72,83.85c1.78,0.41,9.21,1.61,9.17-6.21A7.57,7.57,0,0,1,293.79,82a11.2,11.2,0,0,1-1.85,4.51,51.18,51.18,0,0,0-9.23-2.61Z" transform="translate(-233.17 -16.57)"/><path class="cls-17" d="M282.71,83.92c-1.17-.23-2.22-0.42-3.06-0.56A1.68,1.68,0,0,1,278.37,81c1.13-2.62,3.87-6.67,9.74-5.41a7.07,7.07,0,0,1,3.78,2A7.57,7.57,0,0,1,293.79,82a11.2,11.2,0,0,1-1.85,4.51A51.18,51.18,0,0,0,282.71,83.92Z" transform="translate(-233.17 -16.57)"/><path d="M286.33,81.59a3.17,3.17,0,0,0-3.8,2.15,0.9,0.9,0,0,0,.67,1.14c1.57,0.35,3,.72,4.34,1.1a0.9,0.9,0,0,0,1.13-.69A3.17,3.17,0,0,0,286.33,81.59Z" transform="translate(-233.17 -16.57)"/><path d="M349.83,501a0.89,0.89,0,0,1-.6-0.23c-4.74-4.18-12.64-3.4-12.72-3.39a0.89,0.89,0,0,1-1-.8,0.9,0.9,0,0,1,.8-1c0.36,0,8.77-.88,14.11,3.83A0.9,0.9,0,0,1,349.83,501Z" transform="translate(-233.17 -16.57)"/><path d="M432.71,518.37a0.9,0.9,0,0,1-.83-0.54c-2.74-6.31-13.19-7-13.29-7a0.9,0.9,0,0,1,.1-1.8c0.47,0,11.66.72,14.84,8.05a0.9,0.9,0,0,1-.47,1.19A0.89,0.89,0,0,1,432.71,518.37Z" transform="translate(-233.17 -16.57)"/><path d="M704.19,501.85a0.9,0.9,0,0,1-.64-0.26c-4.17-4.17-13.16-3.8-13.25-3.8a0.9,0.9,0,0,1-.08-1.8c0.4,0,9.88-.41,14.61,4.32A0.9,0.9,0,0,1,704.19,501.85Z" transform="translate(-233.17 -16.57)"/><path d="M238.71,126.77a0.9,0.9,0,0,1-.52-1.63s2-1.4,5-4.14a0.9,0.9,0,0,1,1.2,1.34,66.94,66.94,0,0,1-5.18,4.27A0.9,0.9,0,0,1,238.71,126.77Z" transform="translate(-233.17 -16.57)"/><path d="M243.48,108a0.9,0.9,0,0,1-.38-1.72,34.69,34.69,0,0,0,5.82-3.35,0.9,0.9,0,1,1,1.21,1.34c-1.58,1.42-6.07,3.55-6.26,3.64A0.89,0.89,0,0,1,243.48,108Z" transform="translate(-233.17 -16.57)"/><path d="M250.5,96.74a0.9,0.9,0,0,1-.48-1.66,17.19,17.19,0,0,0,3.87-3.21,0.9,0.9,0,0,1,1.47,1A19.17,19.17,0,0,1,251,96.6,0.9,0.9,0,0,1,250.5,96.74Z" transform="translate(-233.17 -16.57)"/><path d="M428.44,26.22l-0.2-.19a2.47,2.47,0,0,0-.64-0.42,4.38,4.38,0,0,0-2.86,0,17.08,17.08,0,0,0-4.22,2c-1.55,1-3.22,2.16-5,3.52a118.21,118.21,0,0,0-11.43,10.33c-2,2-4,4.15-5.78,6.38-0.45.56-.88,1.13-1.26,1.7a8.38,8.38,0,0,0-.49.81,2.26,2.26,0,0,0-.13.3s0,0.11-.06.21l-0.08.27c-0.11.37-.21,0.72-0.28,1.05s-0.18.67-.23,1l-0.18,1-0.11,1.05a22.91,22.91,0,0,0,.75,8.41,41.47,41.47,0,0,0,1.32,4l0.88,1.91a17.13,17.13,0,0,0,.93,1.86,66.11,66.11,0,0,0,4.29,6.76l2.3,3c0.76,0.94,1.58,1.79,2.32,2.64,1.47,1.71,3,3.16,4.23,4.5,0.65,0.66,1.23,1.3,1.82,1.84l1.62,1.49c1,0.89,1.72,1.63,2.25,2.12L419,94.56h0a0.09,0.09,0,0,1-.12.13l-3.24-2.65-1.71-1.4c-0.62-.51-1.24-1.12-1.93-1.74-1.36-1.26-2.95-2.63-4.49-4.32-0.78-.83-1.64-1.66-2.45-2.59l-2.45-2.93A56.82,56.82,0,0,1,398,72.26a18.2,18.2,0,0,1-1-1.91l-1-2a36.66,36.66,0,0,1-1.46-4.22,24.68,24.68,0,0,1-.88-9,22.29,22.29,0,0,1,.9-4.49,6.24,6.24,0,0,1,1-2.07c0.43-.63.89-1.23,1.37-1.81a80.44,80.44,0,0,1,6-6.43,107,107,0,0,1,11.92-10.06c3.72-2.64,7.1-4.53,9.75-5.09a4.55,4.55,0,0,1,3.08.23,2.92,2.92,0,0,1,.85.72A0.09,0.09,0,0,1,428.44,26.22Z" transform="translate(-233.17 -16.57)"/><path d="M330.87,510.64a9.66,9.66,0,0,0-1.4,1.15,11.71,11.71,0,0,0-2.33,3.09,7.84,7.84,0,0,0-.42.93,8,8,0,0,0-.32.92,7.07,7.07,0,0,0-.21.88,5,5,0,0,0-.11.79c-0.07.49-.57,0.9-0.57,1.18a0.73,0.73,0,0,1-.52.44v0.11c0,0.75-.09,1.37-0.84,1.37a1.17,1.17,0,0,1-1.11-1.36,1.78,1.78,0,0,1,.16-0.31,2.29,2.29,0,0,0,.19-0.55,10.36,10.36,0,0,1,.43-1.41,6.75,6.75,0,0,1,.38-0.91,8.86,8.86,0,0,1,.49-1,9.57,9.57,0,0,1,.61-1,9.24,9.24,0,0,1,.72-0.92,12.61,12.61,0,0,1,3.19-2.66A9.77,9.77,0,0,1,330.87,510.64Z" transform="translate(-233.17 -16.57)"/><path d="M343.48,516a9.67,9.67,0,0,0-1.4,1.15,11.73,11.73,0,0,0-2.33,3.09,7.86,7.86,0,0,0-.42.93,8,8,0,0,0-.32.92,7,7,0,0,0-.21.88,4.94,4.94,0,0,0-.11.79c-0.07.49,0.62,0.9,0.63,1.18a1,1,0,0,0,.68.44v0.1c0,0.75-1.28,1.37-2,1.37a1.7,1.7,0,0,1-1.71-1.36,2.13,2.13,0,0,1-.14-0.31,1.46,1.46,0,0,1,0-.55,8.48,8.48,0,0,1,.36-1.41,6.34,6.34,0,0,1,.34-0.91,8.65,8.65,0,0,1,.47-1,9.52,9.52,0,0,1,.6-1,9.2,9.2,0,0,1,.71-0.92,12.6,12.6,0,0,1,3.19-2.66A9.84,9.84,0,0,1,343.48,516Z" transform="translate(-233.17 -16.57)"/><path d="M412.85,529.55a9.67,9.67,0,0,0-1.4,1.15,11.73,11.73,0,0,0-2.33,3.09,7.86,7.86,0,0,0-.42.93,8,8,0,0,0-.32.92,7,7,0,0,0-.21.88,4.94,4.94,0,0,0-.11.79c-0.07.49,1.93,0.9,1.94,1.18s2,0.44,2,.44V539c0,0.75-2.6,1.37-3.35,1.37s-2.36-.6-2.37-1.36c0-.1-0.49-0.21-0.46-0.31a0.6,0.6,0,0,1-.12-0.55,7.11,7.11,0,0,1,.28-1.41,6,6,0,0,1,.3-0.91,8.48,8.48,0,0,1,.45-1,9.41,9.41,0,0,1,.59-1A9.13,9.13,0,0,1,408,533a12.59,12.59,0,0,1,3.18-2.66A9.87,9.87,0,0,1,412.85,529.55Z" transform="translate(-233.17 -16.57)"/><path d="M424.57,534.06a9.65,9.65,0,0,0-1.4,1.15,11.72,11.72,0,0,0-2.33,3.09,7.8,7.8,0,0,0-.42.93,8,8,0,0,0-.32.92,7,7,0,0,0-.21.88,4.93,4.93,0,0,0-.11.79c-0.07.49-.42,0.9-0.42,1.18a0.6,0.6,0,0,1-.36.44v0.1c0,0.75-.24,1.37-1,1.37a1.22,1.22,0,0,1-1.19-1.36,1.61,1.61,0,0,1,.12-0.31,3.13,3.13,0,0,0,.17-0.55,10,10,0,0,1,.42-1.41,6.73,6.73,0,0,1,.37-0.91,8.84,8.84,0,0,1,.49-1,9.61,9.61,0,0,1,.61-1,9.28,9.28,0,0,1,.71-0.92,12.61,12.61,0,0,1,3.19-2.66A9.78,9.78,0,0,1,424.57,534.06Z" transform="translate(-233.17 -16.57)"/><path d="M570.52,498a9.67,9.67,0,0,0-1.4,1.15,11.72,11.72,0,0,0-2.33,3.09,7.81,7.81,0,0,0-.42.93,8,8,0,0,0-.32.92,7,7,0,0,0-.21.88,4.94,4.94,0,0,0-.11.79,5.12,5.12,0,0,0,.11,1.18,0.67,0.67,0,0,0,.16.44v0.1a1.51,1.51,0,0,1-1.52,1.37,1.55,1.55,0,0,1-1.46-1.67s0-.2.1-0.55a9.23,9.23,0,0,1,.39-1.41,6.54,6.54,0,0,1,.35-0.91,8.74,8.74,0,0,1,.48-1,9.6,9.6,0,0,1,.61-1,9.23,9.23,0,0,1,.71-0.92,12.6,12.6,0,0,1,3.19-2.66A9.79,9.79,0,0,1,570.52,498Z" transform="translate(-233.17 -16.57)"/><path d="M579.94,500.73a8.4,8.4,0,0,0-1,1.18,10.18,10.18,0,0,0-1.57,3,8.33,8.33,0,0,0-.38,1.69,6.14,6.14,0,0,0-.06.78,4.28,4.28,0,0,0,0,.69,6.27,6.27,0,0,0,.12,1l0.06,0.38,0,0.09a1.18,1.18,0,1,1-2.34.39,1.21,1.21,0,0,1,0-.27l0-.49a8.19,8.19,0,0,1,.15-1.27,5.73,5.73,0,0,1,.18-0.83,7.57,7.57,0,0,1,.28-0.89,9.7,9.7,0,0,1,.87-1.8,10.94,10.94,0,0,1,2.36-2.72A8.49,8.49,0,0,1,579.94,500.73Z" transform="translate(-233.17 -16.57)"/><path d="M686.73,511.54a9.67,9.67,0,0,0-1.4,1.15,11.72,11.72,0,0,0-2.33,3.09,7.86,7.86,0,0,0-.42.93,8,8,0,0,0-.32.92,7,7,0,0,0-.21.88,4.94,4.94,0,0,0-.11.79c-0.07.49-2.51,0.9-2.5,1.18s-2.45.44-2.45,0.44V521c0,0.75,1.84,1.37,1.09,1.37s-0.14-.6-0.15-1.36c0-.1.62-0.21,0.65-0.31a1,1,0,0,0,.43-0.55,15.07,15.07,0,0,1,.55-1.41,7.44,7.44,0,0,1,.44-0.91,9.25,9.25,0,0,1,.52-1,9.85,9.85,0,0,1,.63-1,9.34,9.34,0,0,1,.72-0.92,12.62,12.62,0,0,1,3.19-2.66A9.74,9.74,0,0,1,686.73,511.54Z" transform="translate(-233.17 -16.57)"/><path d="M698.45,514.24a9.68,9.68,0,0,0-1.4,1.15,11.71,11.71,0,0,0-2.33,3.09,7.81,7.81,0,0,0-.42.93,8,8,0,0,0-.32.92,7,7,0,0,0-.21.88,4.89,4.89,0,0,0-.11.79c-0.07.49-1.36,0.9-1.36,1.18s-1.3.44-1.3,0.44v0.1c0,0.75.7,1.37-.05,1.37s-0.72-.6-0.72-1.36a3.9,3.9,0,0,1,.36-0.31,1.17,1.17,0,0,0,.29-0.55,11.94,11.94,0,0,1,.48-1.41,7,7,0,0,1,.4-0.91,9,9,0,0,1,.5-1,9.75,9.75,0,0,1,.62-1,9.33,9.33,0,0,1,.72-0.92,12.61,12.61,0,0,1,3.19-2.66A9.76,9.76,0,0,1,698.45,514.24Z" transform="translate(-233.17 -16.57)"/><path d="M336.24,89.94l-0.13-1.5-1.38.12a3.28,3.28,0,0,0-6.28.55l-1.38.12,0.13,1.5,1.55-.14a0.9,0.9,0,0,0,.53.18h0.11c1.68-.21,3.26-0.36,4.7-0.46a0.89,0.89,0,0,0,.52-0.23Z" transform="translate(-233.17 -16.57)"/></svg>