<svg id="Layer_1" data-name="Layer 1" xmlns="http://www.w3.org/2000/svg" viewBox="0 0 410.21 429.18"><defs><style>.cls-1,.cls-10,.cls-5{fill:#2b2b2b;}.cls-1,.cls-10{stroke:#2b2b2b;}.cls-1,.cls-10,.cls-13,.cls-15,.cls-16,.cls-17,.cls-2,.cls-21,.cls-22,.cls-4,.cls-9{stroke-miterlimit:10;}.cls-1,.cls-2,.cls-4,.cls-9{stroke-width:0.91px;}.cls-2{fill:#1a1a1a;stroke:#1a1a1a;}.cls-3{fill:#f1f2f2;}.cls-13,.cls-14,.cls-15,.cls-16,.cls-17,.cls-18,.cls-19,.cls-20,.cls-21,.cls-22,.cls-4{stroke:#000;}.cls-6{fill:#bcbec0;}.cls-7{fill:#d1d3d4;}.cls-8{fill:#fff;}.cls-11,.cls-9{fill:#404040;}.cls-9{stroke:#404040;}.cls-10,.cls-15,.cls-19,.cls-22{stroke-width:3px;}.cls-12{fill:#4a4a4a;}.cls-13,.cls-14,.cls-15,.cls-17,.cls-18,.cls-19,.cls-20,.cls-21{fill:none;}.cls-13,.cls-14,.cls-16{stroke-width:2.73px;}.cls-14,.cls-18,.cls-19,.cls-20{stroke-linecap:round;stroke-linejoin:round;}.cls-17,.cls-18{stroke-width:1.83px;}.cls-20{stroke-width:0.46px;}.cls-21{stroke-width:1.82px;}</style></defs><title>dog2-vector</title><path class="cls-1" d="M298.14,150.8c1,4.69-2,10.4-2,10.4s-0.4.09-1,.17a8.51,8.51,0,0,1-4.95-.73c-2-1.14-3.06-6.53-5.9-5.21-2.45,1.13-1.64,3.67.34,5.54a26.81,26.81,0,0,1-19.17,1h0s0.46-.07,1.11-0.24c2-.49,5.71-1.78,4.38-4.27-1-1.94-2.2,0-3.61,1.43a2.88,2.88,0,0,1-2.5,1.21c-3.27-.49-3.48-6.17-3.06-7.78a9.13,9.13,0,0,1,1.16-2.76C264.25,149.19,285.55,143.61,298.14,150.8Z" transform="translate(-260.35 -29.49)"/><path class="cls-2" d="M267,164.75a19.38,19.38,0,0,1-1.57-2.78,26.81,26.81,0,0,0,19.17-1,8.53,8.53,0,0,0,3.82,2.1c2.36,0.53,5.8-.38,6.8-0.68l0.28-.08c-0.23.32-8,10.88-16.25,10.34C273,172.25,269,167.78,267,164.75Z" transform="translate(-260.35 -29.49)"/><path class="cls-3" d="M269.7,182.95c-1.68-8.72-2.71-18.2-2.71-18.2,2,3,6,7.5,12.25,7.91,8.22,0.54,16-10,16.25-10.34l-0.28.08-0.12-1c0.63-.08,1-0.17,1-0.17s3-5.71,2-10.4a6.63,6.63,0,0,0-2.77-4.19c-2-1.39-5.17-2.16-8.63-2.5,4.55-8.39,18.35-14.15,20.79-24,1.74-7-4.1-17.33-1.62-24l0,0a33.41,33.41,0,0,1,4-4.23A54.48,54.48,0,0,1,314.68,88a53.63,53.63,0,0,1,8.1-4.77c2.29-1.08,4.51-2.23,6.51-2.23h0.05c0.13,5,.48,8.14.48,8.14l12.5,9.27a4,4,0,0,0,3.75,2.78,14.42,14.42,0,0,0,4.68-2.68l0.12-.1c1.1-.83,9.57-6.9,17.64-1.36,6.75,11.32,13.14,32.05,23.25,44.69l0,0s0.88,1.44,2.56,3.77c-3.72,2.09-24,14.26-22.5,30.33,1.67,17.69,18.36,43.26,15.29,56.59s-6.36,28.41,7.79,41.16S407.36,298,407.36,298c-2.64-4.23-16.57-9.45-26.75-20.51-1.57-1.92-2.65-3.13-2.77-3.28,0.88,1.15,1.81,2.24,2.77,3.28,5.78,7,18.38,23.58,16.36,31.62-3.89,15.56-11.85,86.87-12.23,90s-7.22,28.34-11.11,34.08-19.46-1.67-19.46-1.67l-0.12-.15a36.39,36.39,0,0,1,14.15-6.71c6.69-11.4,11.92-118.92,7.51-131.7s-20.21-38.67-23.88-51.4c-2.5-8.68.58-20.24,3.65-34.45,0.93-4.31,0-10.9-1.58-17.89l0.19,0c-6.42-27.67-3.41-38.14-3.32-38.46l-7.45,6.39c-17.54,6.39-33.21,49.36-60,32.5h0C283.07,189.91,274.62,196.95,269.7,182.95Zm101.8-34.59c13.75-.59,12-10.51,9.05-15.68s-7.24-10.58-13.6-9.42-8.93,5.13-9.42,13.59S365,148.63,371.5,148.35Z" transform="translate(-260.35 -29.49)"/><path d="M290.15,160.64a8.51,8.51,0,0,0,4.95.73l0.12,1c-1,.29-4.45,1.21-6.8.68a8.53,8.53,0,0,1-3.82-2.1c-2-1.87-2.79-4.41-.34-5.54C287.1,154.11,288.16,159.5,290.15,160.64Z" transform="translate(-260.35 -29.49)"/><path class="cls-4" d="M607.05,238.7c1.23,11.5,2.22,22.55,3.68,30.16a31.51,31.51,0,0,1-3.84,6.7c-2.31-19.06-3.86-45-9.5-74.83a12.73,12.73,0,0,1,4.28,4.33,148.87,148.87,0,0,1,3.3,16.79l-0.36-.51-1.11,7.22,2.22,8.89S606.19,237.95,607.05,238.7Z" transform="translate(-260.35 -29.49)"/><path class="cls-5" d="M667.53,225.58a0.3,0.3,0,0,1,.53.28A95,95,0,0,1,660,236.73a31.21,31.21,0,0,1-19.82,10.09c-6.73.66-18-2.41-22-4.91s-3.44-8.9-3.42-9.16c5.68,5.16,13.28,10.15,21.43,10.28C654.77,243.3,664.44,229.8,667.53,225.58Z" transform="translate(-260.35 -29.49)"/><path d="M660,236.73a95,95,0,0,0,8.05-10.88c-3.43,10.79-16.52,23.43-32.6,23.56-14.59.12-24.9-7.63-28.41-10.71-0.61-5.62-1.27-11.35-2.08-16.84a73.14,73.14,0,0,0,9.75,10.89c0,0.27-.57,6.71,3.42,9.16s15.32,5.57,22,4.91A31.21,31.21,0,0,0,660,236.73Z" transform="translate(-260.35 -29.49)"/><path class="cls-6" d="M643.25,339.72s3.88,53.35,8.34,74.18c-1.11,1.94-9.46,8.07-14.18,7.51s-12.23-3.05-12.23-6.39c0-2.6,1.64-4.77,3.65-6.46l0.06,0.07s12.13,7.26,18.89,3.71c0,0-7.78-58.35-9.64-66.13-1.57-6.6-20.09-32.81-27.57-53.62a9.65,9.65,0,0,0-.23-2.6,6.8,6.8,0,0,0-1.65-3.4,41.8,41.8,0,0,1-.93-4.48q-0.46-3.12-.87-6.54a31.51,31.51,0,0,0,3.84-6.7C614.63,289.15,629.35,320,643.25,339.72Z" transform="translate(-260.35 -29.49)"/><path class="cls-3" d="M647.78,412.33c-6.76,3.55-18.89-3.71-18.89-3.71l-0.06-.07a26.77,26.77,0,0,1,7.19-4.1s3.89-37.51-15.28-66.41c-21.65-15.16-35.55-35.14-44.16-51.3,0,0,19.29,3.43,30.31-11.18q0.42,3.43.87,6.54a41.8,41.8,0,0,0,.93,4.48,2.2,2.2,0,0,0-1.38-.59c-2.36-.12-4,2-6,2.58s-2.76,4.74-1.29,6.68,7.77,2.9,9.49.56a6,6,0,0,0,1-3.23c7.49,20.81,26,47,27.57,53.62C640,354,647.78,412.33,647.78,412.33Z" transform="translate(-260.35 -29.49)"/><path class="cls-5" d="M610.34,290a9.65,9.65,0,0,1,.23,2.6c-0.74-2.06-1.38-4.07-1.87-6A6.8,6.8,0,0,1,610.34,290Z" transform="translate(-260.35 -29.49)"/><path class="cls-5" d="M610.57,292.58a6,6,0,0,1-1,3.23c-1.71,2.34-8,1.38-9.49-.56s-0.68-6.06,1.29-6.68,3.62-2.71,6-2.58a2.2,2.2,0,0,1,1.38.59C609.19,288.52,609.83,290.52,610.57,292.58Z" transform="translate(-260.35 -29.49)"/><path d="M605,221.86c0.81,5.49,1.47,11.23,2.08,16.84-0.87-.76-1.32-1.23-1.32-1.23l-2.22-8.89,1.11-7.22Z" transform="translate(-260.35 -29.49)"/><path class="cls-1" d="M568.15,268.49c-1.6-4.05-2.65-7.12-3.26-8.79-2-5.37-9.79-13.25-21.82-16.86,0.07-.24,4.37-16.15,12.09-21.48s17.13,1.81,28.71-14.24c5.71-7.92,10.32-8.16,13.53-6.37,5.64,29.8,7.19,55.77,9.5,74.83-11,14.61-30.31,11.18-30.31,11.18A180.22,180.22,0,0,1,568.15,268.49Z" transform="translate(-260.35 -29.49)"/><path class="cls-7" d="M601.68,205.07a12.73,12.73,0,0,0-4.28-4.33q-0.9-4.77-2-9.67C598.06,194.18,600.07,199.1,601.68,205.07Z" transform="translate(-260.35 -29.49)"/><path class="cls-3" d="M577.71,176.71l0,0a61.6,61.6,0,0,1,17.71,14.4q1.05,4.89,2,9.67c-3.21-1.79-7.81-1.54-13.53,6.37-11.58,16-20.93,10-28.71,15.33S543.14,245,543.07,245h0c-18.31-16-55,5.89-69.18,15.63-3.24-.88-6.49-3-7.76-6-2.91-6.67,5.69-28.61,2.57-47.3a69.3,69.3,0,0,0-10.94-27.09c12.1,0.07,25.85-1.17,38.77-2.67-2.09,6.51-6.75,23.83.86,29.5,9.45,7,31.12-2.61,43.35-1.13s27.42-3,28.16-13.26c0.51-7.07-5.24-15.53-8.87-20.11C567.37,173.3,573.46,174.46,577.71,176.71Zm-67,54.64c1.95,0.69,5.28-1.11,5.28-3.54s-4.45-7-7.22-6.18-4.17,4.16-4.17,4.16-1.81,3.47,0,5S508.76,230.66,510.7,231.35Zm-26,17.69c9.95-4.38,5.77-11.17,2.15-14.13s-8.37-5.7-12.71-3-5.09,6.34-3,12.71S480.06,251.1,484.73,249Z" transform="translate(-260.35 -29.49)"/><path class="cls-6" d="M587.33,331.66a0.75,0.75,0,0,1,.26.71c-3.1,17.27-9.94,62.1-11.87,63.76s-6.61,7.25-11.95,7.5c-5.56.28-11.11-1.39-11.95-8.34a9.62,9.62,0,0,1,5.22-5.5l0.16,0.31s8.16,9.6,14.26,4.63,11.11-55.07,11.11-58.74-23.18-40.24-24.82-47.82S544.58,273,526.25,280h0c-3.71-20,.06-34.87.52-36.85,6-.36,11.49-1.15,16.29,1.85h0L543,242.84h0c13,3.61,19.9,11.49,21.86,16.86,0.61,1.67,1.68,4.74,3.28,8.79-0.12.33-4.63,13-3,22.88S579.52,325.13,587.33,331.66Z" transform="translate(-260.35 -29.49)"/><path class="cls-3" d="M582.58,336c0,3.68-5,53.78-11.11,58.74s-14.26-4.63-14.26-4.63l-0.16-.31c3.81-1.94,8.41-2.57,9.79-4,2.22-2.22,4.17-31.4,1.67-50-5-3.61-35.29-31.72-41.12-52.28-0.44-1.54-.81-1.55-1.13-3.55h0c18.32-7,29.86.59,31.5,8.17S582.58,332.31,582.58,336Z" transform="translate(-260.35 -29.49)"/><path class="cls-8" d="M577.74,176.66l0,0c-4.25-2.26-10.34-3.42-17.71-4.1-1.65-2.08-2.86-3.36-2.86-3.36A72.17,72.17,0,0,1,577.74,176.66Z" transform="translate(-260.35 -29.49)"/><path class="cls-1" d="M560,172.62c3.63,4.58,9.38,13,8.87,20.11C568.14,203,552.94,207.46,540.71,206s-33.9,8.15-43.35,1.11c-7.61-5.67-3-23-.86-29.53,22-2.55,41.5-6,46.27-5.86C549,171.91,554.82,172.14,560,172.62Z" transform="translate(-260.35 -29.49)"/><path class="cls-9" d="M497.36,175.05l-0.08-.57c18.65-2.83,36.14-6.89,45.38-6.76a79.43,79.43,0,0,1,14.48,1.53s1.21,1.28,2.86,3.36c-5.18-.47-11-0.71-17.22-0.92-4.77-.16-24.31,3.31-46.27,5.86C497,176.07,497.33,175.15,497.36,175.05Z" transform="translate(-260.35 -29.49)"/><path class="cls-7" d="M543.07,242.84h0Z" transform="translate(-260.35 -29.49)"/><path class="cls-7" d="M526.77,241a52.48,52.48,0,0,0-7.17.92c-13.66,2.69-26.39,10.29-37.44,18.71a33.94,33.94,0,0,1-8.27-1.07c14.14-9.74,50.87-28.39,69.18-16.72A46.89,46.89,0,0,0,526.77,241Z" transform="translate(-260.35 -29.49)"/><path class="cls-5" d="M516,227.81c0,2.43-3.33,4.23-5.28,3.54s-4.31,1-6.11-.56,0-5,0-5,1.39-3.33,4.17-4.16S516,225.38,516,227.81Z" transform="translate(-260.35 -29.49)"/><path class="cls-8" d="M497.28,174.48l0.08,0.57c0,0.1-.38,1-0.86,2.51a333.63,333.63,0,0,1-38.77,2.6,42.52,42.52,0,0,0-2.87-3.81C467.47,178.17,482.72,176.7,497.28,174.48Z" transform="translate(-260.35 -29.49)"/><path class="cls-5" d="M486.88,234.91c3.62,3,7.8,9.75-2.15,14.13-4.67,2.06-11.52,1.92-13.59-4.45s-1.32-10,3-12.71S483.26,231.94,486.88,234.91Z" transform="translate(-260.35 -29.49)"/><path d="M473.88,259.55a33.94,33.94,0,0,0,8.27,1.07c-19.74,15-34.14,32.75-38.94,29.92h0s-3.33-13.29,3.41-36.4c0,0,4.91,21.67,25.75,6.49C472.83,260.28,473.34,259.92,473.88,259.55Z" transform="translate(-260.35 -29.49)"/><path class="cls-10" d="M446.61,254.14c-6.74,23.11-3.41,36.4-3.41,36.4h-0.74a22.9,22.9,0,0,1,1,6.21h0c-4,10.61-13.3,42.8-17.25,69.84-6.81,3-14.07-2-14.07-2,1.54-22.86,2.58-43.27,1.66-47.43A101.73,101.73,0,0,0,407.27,298s1.7-11.67-12.46-24.41S384,245.8,387,232.47s-13.61-38.9-15.28-56.59c-1.52-16.07,18.78-28.24,22.5-30.33,5.38,7.5,19,24.18,38,31.26,6.34,2.36,15.32,3.3,25.48,3.36a68.52,68.52,0,0,1,10.94,27c3.12,18.69-5.48,40.36-2.57,47,1.28,2.92,4.52,4.53,7.76,5.41-0.54.37-1,.73-1.52,1.07C451.52,275.81,446.61,254.14,446.61,254.14Z" transform="translate(-260.35 -29.49)"/><path class="cls-11" d="M454.87,176.35a42.52,42.52,0,0,1,2.87,3.81c-10.16-.06-19.14-1-25.48-3.36-19-7.07-32.6-23.76-38-31.26l0.58-.32C409.6,160,426.11,172.18,454.87,176.35Z" transform="translate(-260.35 -29.49)"/><path d="M445,296.76a36.9,36.9,0,0,1,1.28,6c0,1.77-11.66,22.5-16.25,61.88a11.14,11.14,0,0,1-3,2C430.94,339.56,438.58,307.38,445,296.76Z" transform="translate(-260.35 -29.49)"/><path class="cls-6" d="M430,364.64a280.09,280.09,0,0,0-1.81,35.09s-11.13,24.73-10.84,48.62c0,0-4.37,5.64-8.07,7.23-5.83,2.5-22.8,2.23-25.56-2.22-1.83-3,2.57-7.5,9.4-11.28,0.65,1,8.52,12.56,17.93,6,4.3-3,3-16.67,13.34-48.9-0.36-7.66.69-19.52,2.6-32.58A11.14,11.14,0,0,0,430,364.64Z" transform="translate(-260.35 -29.49)"/><path class="cls-3" d="M427,366.6c-1.91,13.06-3,24.92-2.6,32.58-10.38,32.23-9,45.9-13.34,48.9-9.4,6.56-17.28-5-17.93-6a58,58,0,0,1,11.74-4.84c2-3.41,5.51-40.43,7.69-72.6C412.55,364.64,420.17,369.6,427,366.6Z" transform="translate(-260.35 -29.49)"/><path class="cls-6" d="M407.36,298s-15.58,42.51-17.5,100.86c-2.76,6.66-9.46,22.23-9.17,37.51-1.09,1.66-12.52,6.67-15.83,7.5s-15.3.56-16.67-3.33c-0.74-2.12,1.61-5.78,5.86-9.13l0.12,0.15s15.57,7.41,19.46,1.67,10.75-30.93,11.11-34.08,8.34-74.47,12.23-90c2-8-10.58-24.57-16.36-31.62C390.79,288.59,404.72,293.81,407.36,298Z" transform="translate(-260.35 -29.49)"/><path class="cls-8" d="M394.86,145.23l-0.58.32c-1.68-2.32-2.56-3.77-2.56-3.77l0,0A43.08,43.08,0,0,0,394.86,145.23Z" transform="translate(-260.35 -29.49)"/><path class="cls-5" d="M380.56,132.68c2.9,5.17,4.7,15.09-9.05,15.68-6.46.27-14.47-3-14-11.51s3.07-12.44,9.42-13.59S377.66,127.51,380.56,132.68Z" transform="translate(-260.35 -29.49)"/><path class="cls-7" d="M363.18,91.27a20.38,20.38,0,0,1,5.33,6.17c-8.06-5.54-16.54.33-17.64,1.17a15.69,15.69,0,0,0,5.9-10,1.06,1.06,0,0,1,.17-0.58h0C358.87,88,361.5,90,363.18,91.27Z" transform="translate(-260.35 -29.49)"/><path class="cls-5" d="M345.1,53.25c1.74,9.54,13.13,20.94,11.84,33.19,0,0.42-.1.84-0.17,1.27-1.35,4.53-10.7,7.59-11.41.09-0.85-8.91-6.62-14.61-6.82-24.63-0.18-9,3.1-21,6.41-28,1.52-2.75,2.66-4.4,2.78-4.58l0,0C349.69,33.52,343.3,43.39,345.1,53.25Z" transform="translate(-260.35 -29.49)"/><path class="cls-7" d="M354,189.24v0c-5-14.95-11-31.75-11-32.11h0l7.56-6.39C350.47,151.1,347,161.57,354,189.24Z" transform="translate(-260.35 -29.49)"/><path d="M356.77,87.7a17.63,17.63,0,0,1-5.9,10.71l-0.12.09c-3,2.84-4.68,2.67-4.68,2.67l-3.75-2.79c-1.3-3.69.51-10.16-.56-14.3-1.47-5.71-5.42-6.53-5.83-14.17-0.79-14.59,5.28-28,9-34.72-3.32,7-6.6,19-6.41,28,0.2,10,6,15.72,6.82,24.63C346.08,95.29,355.42,92.24,356.77,87.7Z" transform="translate(-260.35 -29.49)"/><path class="cls-3" d="M347.74,30.6l0,0a20.63,20.63,0,0,0-2.78,4.58c-3.73,6.75-9.81,20.13-9,34.72,0.42,7.64,4.36,8.46,5.83,14.17,1.06,4.13-.74,10.61.56,14.3l-12.5-9.3s-0.34-3.5-.48-8.2a91.63,91.63,0,0,1,.48-13.48C331.91,51,346,28,347.74,30.6Z" transform="translate(-260.35 -29.49)"/><path d="M342.32,98.39l3.75,2.79A4,4,0,0,1,342.32,98.39Z" transform="translate(-260.35 -29.49)"/><path class="cls-8" d="M344.95,35.2a20.63,20.63,0,0,1,2.78-4.58C347.61,30.8,346.47,32.45,344.95,35.2Z" transform="translate(-260.35 -29.49)"/><path class="cls-7" d="M343,157.17h0s-14.19,12.44-22.79,35.55c-3,8-13.28,10.56-18.56,10.56s-13.23.83-18.49-13.61C309.9,206.53,328,163.56,343,157.17Z" transform="translate(-260.35 -29.49)"/><path class="cls-7" d="M322.69,83l0.09,0.2a54,54,0,0,0-8.1,4.82l-0.14-.15S313.87,86,312.38,81h0s6.14-2.6,1.39-15.06c1,1.22,1.94,2.27,2.61,3.17A35,35,0,0,1,322.69,83Z" transform="translate(-260.35 -29.49)"/><path class="cls-5" d="M314.54,87.8L314.68,88a54.48,54.48,0,0,0-4.81,3.85l0,0a22.09,22.09,0,0,1-4.2-9.67c-0.78-5.48.29-8.79-.77-13.83l0.06,0A76.67,76.67,0,0,1,310,75.76a44.46,44.46,0,0,1,2.38,5.14A52,52,0,0,1,314.54,87.8Z" transform="translate(-260.35 -29.49)"/><path class="cls-3" d="M313.78,65.94C318.52,78.4,312.38,81,312.38,81h0A27.66,27.66,0,0,0,310,75.81a76.75,76.75,0,0,0-5.06-7.5c-3.25-4.45-6.74-9.19-7.72-12.82-1.57-5.84-.74-15.26-0.74-15.26C300.39,50.79,308.79,60.1,313.78,65.94Z" transform="translate(-260.35 -29.49)"/><path class="cls-8" d="M305.91,96.11c-2.48,6.69,3.36,17,1.62,24-2.44,9.85-16.24,15.61-20.79,24-7.15-.7-15.67.39-18.5,1.41l-0.08-.22c5.82-9.78,34.08-25.81,35-28.14,1-2.49-1.4-10.29.57-17.23a12,12,0,0,1,2.16-3.86Z" transform="translate(-260.35 -29.49)"/><path class="cls-12" d="M295.37,146.61a6.63,6.63,0,0,1,2.77,4.19c-12.59-7.19-33.89-1.61-35.23-1.25a11.54,11.54,0,0,1,5.61-4s0.48,0,.48,0h0c3-1,11-2.11,18.12-1.41C290.58,144.45,293.34,145.21,295.37,146.61Z" transform="translate(-260.35 -29.49)"/><path class="cls-7" d="M269.7,182.95c4.92,14,13.36,7,13.64,6.74-2,3.33-4.23,9.72-8.65,7.5C272.74,196.21,271,189.8,269.7,182.95Z" transform="translate(-260.35 -29.49)"/><path d="M270.92,157.45c1.33,2.49-2.42,3.78-4.38,4.27l-0.07-.21,0.83-2.63C268.72,157.44,269.87,155.5,270.92,157.45Z" transform="translate(-260.35 -29.49)"/><path class="cls-13" d="M557,389.79a9.62,9.62,0,0,0-5.22,5.5c0.83,6.95,6.39,8.61,11.95,8.34,5.34-.26,10-5.84,11.95-7.5s8.77-46.49,11.87-63.76a0.75,0.75,0,0,0-.26-0.71c-7.81-6.54-20.52-30.43-22.17-40.29s2.87-22.55,3-22.88h0" transform="translate(-260.35 -29.49)"/><path class="cls-14" d="M526.77,241c-0.46,2-4.23,19-.52,36.86,0.32,1.54.69,3.08,1.13,4.62,5.84,20.56,36.12,49.74,41.12,53.35,2.5,18.62.56,47.79-1.67,50-1.38,1.38-6,2-9.79,4" transform="translate(-260.35 -29.49)"/><path class="cls-14" d="M605,221.86a73.14,73.14,0,0,0,9.75,10.89c5.68,5.16,13.28,10.15,21.43,10.28,18.62,0.28,28.29-13.22,31.38-17.45a0.3,0.3,0,0,1,.53.28c-3.43,10.79-16.52,23.43-32.6,23.56-14.59.12-24.9-7.63-28.41-10.71" transform="translate(-260.35 -29.49)"/><path class="cls-15" d="M543,243.5h0.07c12,2,19.86,11.16,21.82,16.53,0.61,1.67,1.66,4.57,3.26,8.63a180,180,0,0,0,8.43,18.18c8.6,16.17,22.51,36.1,44.16,51.26C639.91,367,636,404.48,636,404.48a26.57,26.57,0,0,0-7.19,4.09c-2,1.68-3.65,3.86-3.65,6.45,0,3.34,7.51,5.83,12.23,6.39s13.06-5.57,14.18-7.51c-4.45-20.83-8.34-74.18-8.34-74.18-13.9-19.73-28.61-50.56-32.51-70.85-1.46-7.62-2.45-18.66-3.68-30.16-0.61-5.62-1.27-11.35-2.08-16.84a148.86,148.86,0,0,0-3.3-16.79c-1.61-6-3.62-10.89-6.23-14a61.6,61.6,0,0,0-17.71-14.4,72.17,72.17,0,0,0-20.6-7.41,79.43,79.43,0,0,0-14.48-1.53c-9.24-.13-26.73,3.92-45.38,6.76-14.55,2.21-29.81,3.69-42.41,1.86-28.75-4.17-45.27-16.38-60-31.12a43.08,43.08,0,0,1-3.1-3.48c-10.11-12.64-16.5-33.37-23.25-44.69a22.57,22.57,0,0,0-5.33-6.56,53.3,53.3,0,0,0-6.26-3.72" transform="translate(-260.35 -29.49)"/><path class="cls-13" d="M443.2,290.54h0c4.81,2.83,19.2-14.87,38.94-29.92,11.05-8.42,23.78-16,37.44-18.71a52.48,52.48,0,0,1,7.17-.92,46.89,46.89,0,0,1,16.29,1.84" transform="translate(-260.35 -29.49)"/><path class="cls-16" d="M445,296.76c-0.82-3-1.73-6-1.77-6.21" transform="translate(-260.35 -29.49)"/><path class="cls-15" d="M341.5,155v2.18c0,0.36,8,17.16,11.48,32.11,1.63,7,3,13.59,2,17.89-3.07,14.21-5.92,25.77-3.42,34.45,3.67,12.73,19.58,38.62,24,51.4s-0.76,120.3-7.45,131.7A36.26,36.26,0,0,0,354,431.44c-4.26,3.35-6.59,7-5.85,9.13,1.37,3.9,13.36,4.16,16.68,3.33s14.75-5.84,15.84-7.5c-0.29-15.28,6.41-30.85,9.17-37.51C391.78,340.55,407.36,298,407.36,298A98.36,98.36,0,0,1,414,317.21c0.92,4.16.07,24.57-1.48,47.43-2.18,32.16-5.73,69.19-7.69,72.6a58,58,0,0,0-11.74,4.84c-6.83,3.78-11.23,8.32-9.4,11.28,2.76,4.45,19.73,4.72,25.56,2.22,3.7-1.59,8.07-7.23,8.07-7.23-0.29-23.89,10.84-48.62,10.84-48.62A280.09,280.09,0,0,1,430,364.64c4.59-39.38,16.25-60.11,16.25-61.88,0-1-1.51-4.59-2.18-7.09" transform="translate(-260.35 -29.49)"/><path class="cls-13" d="M283.35,189.68c5.26,14.44,13,13.61,18.38,13.61s15.67-2.6,18.63-10.56c8.6-23.12,22.95-35.55,22.95-35.55" transform="translate(-260.35 -29.49)"/><path class="cls-13" d="M269.7,182.95c1.32,6.86,3,13.26,5,14.24,4.42,2.22,6.69-4.17,8.65-7.5" transform="translate(-260.35 -29.49)"/><path class="cls-14" d="M267,164.75s1,9.47,2.71,18.2" transform="translate(-260.35 -29.49)"/><line class="cls-17" x1="6.96" y1="129.39" x2="6.12" y2="132.02"/><path class="cls-13" d="M329.29,80.9a28.7,28.7,0,0,0-6.51,2.28,56.62,56.62,0,0,0-12.91,8.67,33.41,33.41,0,0,0-4,4.23,12,12,0,0,0-2.16,3.86c-2,6.94.42,14.73-.57,17.23-0.92,2.33-29.19,18.37-35,28.14" transform="translate(-260.35 -29.49)"/><path class="cls-14" d="M452.91,236.91a142.07,142.07,0,0,0-6.3,17.23c-6.74,23.11-3.41,36.4-3.41,36.4" transform="translate(-260.35 -29.49)"/><path class="cls-14" d="M283.42,189.68a41.41,41.41,0,0,1-2.64-10.14" transform="translate(-260.35 -29.49)"/><path class="cls-14" d="M314.54,87.8a52,52,0,0,0-2.16-6.9A44.46,44.46,0,0,0,310,75.76a76.67,76.67,0,0,0-5.06-7.47c-3.25-4.45-6.74-9.17-7.72-12.81-1.57-5.84-.74-15.28-0.74-15.28,3.91,10.57,12.31,19.86,17.3,25.7,1,1.22,1.94,2.3,2.61,3.2A35,35,0,0,1,322.69,83" transform="translate(-260.35 -29.49)"/><path class="cls-18" d="M309.85,91.82a22.09,22.09,0,0,1-4.2-9.67c-0.78-5.48.29-8.79-.77-13.83" transform="translate(-260.35 -29.49)"/><path class="cls-14" d="M265.43,162a19.38,19.38,0,0,0,1.57,2.78c2,3,6,7.5,12.25,7.91,8.22,0.54,16-10,16.25-10.34" transform="translate(-260.35 -29.49)"/><path class="cls-19" d="M284.6,161c-2-1.87-2.79-4.41-.34-5.54,2.85-1.32,3.91,4.07,5.9,5.21a8.51,8.51,0,0,0,4.95.73c0.63-.08,1-0.17,1-0.17s3-5.71,2-10.4a6.63,6.63,0,0,0-2.77-4.19,14.44,14.44,0,0,0-7.5-2.5c-7.15-.7-15.37.39-17.37,1.41h0s-1.2,0-1.23,0c-2.8,1.06-4.91,2.6-5.79,4a12.21,12.21,0,0,0-1.44,2.76c-0.42,1.61-.35,7.29,2.91,7.78,0.92,0.19,1.68-.43,2.43-1.21,1.41-1.44,2.53-3.38,3.58-1.43,1.33,2.49-2.44,3.78-4.4,4.27" transform="translate(-260.35 -29.49)"/><line class="cls-18" x1="35.16" y1="132.82" x2="35.15" y2="132.82"/><path class="cls-20" d="M576.58,286.75s19.29,3.43,30.31-11.18a31.51,31.51,0,0,0,3.84-6.7" transform="translate(-260.35 -29.49)"/><line class="cls-21" x1="184.74" y1="267" x2="184.74" y2="267"/><path class="cls-19" d="M616.5,231v1.75c0,0.27-1.46,6.71,2.53,9.16s14.87,5.57,21.6,4.91a30.57,30.57,0,0,0,19.6-10.09A121.47,121.47,0,0,0,669.06,225" transform="translate(-260.35 -29.49)"/><line class="cls-21" x1="282.68" y1="213.32" x2="282.68" y2="213.32"/><path class="cls-18" d="M347.73,30.62c-0.12.18-1.26,1.83-2.78,4.58-3.73,6.75-9.81,20.13-9,34.72,0.42,7.64,4.36,8.46,5.83,14.17,1.06,4.13-.74,10.61.56,14.3a3.7,3.7,0,0,0,3.75,2.79c2.18,0,4.8-2.77,4.8-2.77a17.63,17.63,0,0,0,5.9-10.71c0.07-.42.13-0.84,0.17-1.27,1.28-12.24-10.1-23.65-11.84-33.19-1.81-9.86,4.58-19.73,2.64-22.65C346,28,331.91,51,329.82,67.42a91.63,91.63,0,0,0-.48,13.48c0.13,4.7.48,8.2,0.48,8.2" transform="translate(-260.35 -29.49)"/><path class="cls-17" d="M283.34,189.68h0" transform="translate(-260.35 -29.49)"/><path class="cls-20" d="M356.77,87.7c-1.35,4.53-10.7,7.59-11.41.09-0.85-8.91-6.62-14.61-6.82-24.63-0.18-9,3.1-21,6.41-28a20.63,20.63,0,0,1,2.78-4.58l0,0" transform="translate(-260.35 -29.49)"/><circle cx="294.36" cy="182.05" r="0.76" transform="translate(-302.86 231.99) rotate(-45)"/><path d="M294.36,183.09a1,1,0,1,1,.73-0.3A1,1,0,0,1,294.36,183.09Zm0-1.51a0.48,0.48,0,0,0-.34.81,0.49,0.49,0,0,0,.67,0h0a0.48,0.48,0,0,0,0-.67A0.48,0.48,0,0,0,294.36,181.58Z" transform="translate(-260.35 -29.49)"/><circle cx="45.58" cy="146.48" r="0.83"/><path d="M305.93,177.08A1.11,1.11,0,1,1,307,176,1.11,1.11,0,0,1,305.93,177.08Zm0-1.67a0.56,0.56,0,1,0,.56.56A0.56,0.56,0,0,0,305.93,175.41Z" transform="translate(-260.35 -29.49)"/><circle cx="43.92" cy="156.51" r="0.76"/><path d="M304.27,187a1,1,0,1,1,1-1A1,1,0,0,1,304.27,187Zm0-1.51a0.48,0.48,0,1,0,.48.48A0.48,0.48,0,0,0,304.27,185.52Z" transform="translate(-260.35 -29.49)"/><path class="cls-4" d="M343.3,157.73a0.56,0.56,0,0,1-.4-0.94,64.84,64.84,0,0,1,7.52-6.46,0.56,0.56,0,0,1,.67.89,65,65,0,0,0-7.38,6.33A0.55,0.55,0,0,1,343.3,157.73Z" transform="translate(-260.35 -29.49)"/><path d="M356.39,444.19h-0.12a0.56,0.56,0,0,1-.43-0.66c0.08-.38,2-9.26,9.78-12.62a0.56,0.56,0,1,1,.44,1c-7.21,3.13-9.12,11.74-9.14,11.83A0.56,0.56,0,0,1,356.39,444.19Z" transform="translate(-260.35 -29.49)"/><path d="M393.08,456c-0.29,0-.54.44-0.55,0.15,0-.1-0.45-9.4,11.31-13.38a0.67,0.67,0,0,1,.7.52,0.65,0.65,0,0,1-.35.79c-11,3.71-10.56,11.87-10.55,12,0,0.31-.21,0-0.52,0h0Z" transform="translate(-260.35 -29.49)"/><path d="M404.3,457.34a0.56,0.56,0,0,1-.56-0.56c0-.25.06-6.09,5.16-9.18a0.56,0.56,0,1,1,.58,1c-4.58,2.77-4.63,8.18-4.63,8.23A0.56,0.56,0,0,1,404.3,457.34Z" transform="translate(-260.35 -29.49)"/><path d="M368.45,442.57a0.56,0.56,0,0,1-.55-0.45c0-.26-1.14-6.38,3.58-9.33a0.56,0.56,0,0,1,.59.94c-4.08,2.55-3.08,8.12-3.07,8.18a0.56,0.56,0,0,1-.44.65h-0.1Z" transform="translate(-260.35 -29.49)"/><path d="M628.15,418.63H628a0.56,0.56,0,0,1-.42-0.66c1.35-6.16,10-9.17,10.37-9.3a0.56,0.56,0,0,1,.36,1.05c-0.08,0-8.43,2.94-9.64,8.48A0.56,0.56,0,0,1,628.15,418.63Z" transform="translate(-260.35 -29.49)"/><path d="M637.41,422a0.56,0.56,0,0,1-.55-0.47c-0.79-5.3,6.61-10,6.92-10.18a0.56,0.56,0,0,1,.59.94c-0.07,0-7.09,4.5-6.41,9.08a0.56,0.56,0,0,1-.47.63h-0.08Z" transform="translate(-260.35 -29.49)"/><path d="M555.16,401.64H555a0.56,0.56,0,0,1-.42-0.66c1.72-7.63,10.73-10.71,11.11-10.84a0.56,0.56,0,0,1,.35,1.05c-0.09,0-8.8,3-10.38,10A0.56,0.56,0,0,1,555.16,401.64Z" transform="translate(-260.35 -29.49)"/><path d="M563.78,404.18h-0.1a0.56,0.56,0,0,1-.44-0.65c1-5.52,5.85-9.09,6.05-9.24a0.56,0.56,0,0,1,.66.9s-4.65,3.46-5.62,8.55A0.56,0.56,0,0,1,563.78,404.18Z" transform="translate(-260.35 -29.49)"/><path class="cls-4" d="M407.36,298.6a0.55,0.55,0,0,1-.49-0.29c-1.34-2.51-4.71-4.53-9-7.08-9.32-5.56-23.41-14-31.63-36.9a0.56,0.56,0,1,1,1-.38c8.08,22.56,22,30.84,31.15,36.32,4.42,2.64,7.92,4.72,9.4,7.51A0.56,0.56,0,0,1,407.36,298.6Z" transform="translate(-260.35 -29.49)"/><path d="M314.15,113.76a0.59,0.59,0,0,0-.35-0.12l-2.88,0a0.56,0.56,0,0,0-.35.13,2.83,2.83,0,0,0-1,2.27,2,2,0,0,0,.9,1.57,2.57,2.57,0,0,0,1.95.36h0.09a2.45,2.45,0,0,0,2-.48,2.37,2.37,0,0,0,.77-1.83A2.44,2.44,0,0,0,314.15,113.76Z" transform="translate(-260.35 -29.49)"/><path class="cls-22" d="M325.84,114a0.63,0.63,0,0,0-.41-0.18l-3.37,0a0.56,0.56,0,0,0-.41.18,3.72,3.72,0,0,0-.73,2.32,3.16,3.16,0,0,0,2.85,3.09h0.09c1.57,0,2.81-1.7,2.76-3.27A3.76,3.76,0,0,0,325.84,114Z" transform="translate(-260.35 -29.49)"/><path d="M307.53,116a1.4,1.4,0,0,1-.83-1.32,1.19,1.19,0,0,1,.83-1.17l23.9-.51h0a0.91,0.91,0,0,1,.83.92c0,0.46-.37,1.37-0.83,1.37l-23.9.71h0Z" transform="translate(-260.35 -29.49)"/></svg>