<svg id="GraphicMama" xmlns="http://www.w3.org/2000/svg" viewBox="0 0 680.97 756.33"><defs><style>.cls-1,.cls-3,.cls-5{fill:#855f42;}.cls-1,.cls-3{stroke:#855f42;}.cls-1,.cls-17,.cls-21,.cls-3,.cls-8,.cls-9{stroke-miterlimit:10;}.cls-1,.cls-17,.cls-8,.cls-9{stroke-width:1.58px;}.cls-2{fill:#aa7a54;}.cls-20,.cls-3{stroke-width:4px;}.cls-4,.cls-9{fill:#b88862;}.cls-6{fill:#b38d63;}.cls-7,.cls-8{fill:#c39a6c;}.cls-8{stroke:#c39a6c;}.cls-9{stroke:#b88862;}.cls-10{fill:#614141;}.cls-11{fill:#a87854;}.cls-12{fill:#fff;}.cls-13{fill:#d1d3d4;}.cls-14{fill:#deb6b6;}.cls-15{fill:#efd1d1;}.cls-16{fill:#59402d;}.cls-17{fill:#422f21;stroke:#422f21;}.cls-18{fill:#291d14;}.cls-19,.cls-20,.cls-21{fill:none;stroke:#000;}.cls-19,.cls-20{stroke-linecap:round;stroke-linejoin:round;}.cls-19{stroke-width:3.91px;}.cls-21{stroke-width:1.47px;}</style></defs><title>dog21-vector</title><path class="cls-1" d="M3327.23,837.93c1.29,2.76.49,6.67,0.49,6.67s-3.76-3.09-6.36-2.11c-0.67,1.47-.49,6.61,2.27,12.22-3.58,4.07-27.54,14.51-30.32,14.51s-15.8-.49-20.85-15.65c-6.36.8-7.82,18.25-7.82,18.25-15,1.8-24.94-1.31-31.78-9.13-3.76,0-10,6.53-10,6.53s-6-11.58-2.6-18.27c-3.76-1.13-10.43,3.91-10.43,3.91s-3.27-15,1.29-24.76c0,0,55.63,17.76,76.94,2.27,21.51-15.65-53.3-127.86-56.72-179.34-3.25-48.9,10.58-112.17,2.72-134.06a75.3,75.3,0,0,1,5.75,19c5.87,39.78,4.56,67.17,5.22,84.77s18.89,84.1,31.29,112.13S3325.76,832.37,3327.23,837.93Z" transform="translate(-2648.95 -145.13)"/><path class="cls-2" d="M3314.34,453.27c1.31,8-7,12.58-7,12.58a36.13,36.13,0,0,0,1.62,9.23c-5.3,1.11-10.33,2.05-15.08,2.86-69,11.34-82.7-10.39-82.7-10.39,13.48-.92,34.36-2.39,48.41-3.68C3282.56,461.73,3309.18,454.85,3314.34,453.27Z" transform="translate(-2648.95 -145.13)"/><path class="cls-3" d="M3308.94,475.07c-5.3,1.12-10.33,2.05-15.08,2.86-69,11.34-82.69-10.39-82.69-10.39A71.24,71.24,0,0,0,3198,469.8c8.74,9,17.09,17.5,24,30.5h0c1.29,0,13.16-7.69,25.15-5.23,3.07,0.63-.16,6.47,6.69,12a19,19,0,0,1,8.8-10.12s4.4,8.3,11.56,10.41c-1-6.67,3.11-13,3.11-13a29.62,29.62,0,0,0,15.8,6.8c-1-5.87,1.62-18,1.62-18s9.29,1.46,17.78-1A22.71,22.71,0,0,1,3308.94,475.07Z" transform="translate(-2648.95 -145.13)"/><path class="cls-2" d="M2721.24,217.7c1.23-.9,2.35-1.78,3.36-2.62q0.59-.47,1.11-0.94c0.37-.29.7-0.59,1-0.9s0.66-.57,1-0.86c6.3-5.73,7.33-8.92,7.33-8.92a10.76,10.76,0,0,0-20.67,4.19,9.64,9.64,0,0,0,.12,1.53,10.79,10.79,0,0,0,6.71,8.49Zm90,76.81-0.05,0c-22.24,28.69-48.33,36.2-71.56,34.89,0,0,0,0,0,0,0.66-19.91,21.2-29.26,18.44-58.85-3.23-34.35-64.9-34.72-66.21-34.72,8.12-4.34,15.49-8.35,18.64-10.89a4.31,4.31,0,0,0,1.6-1.82c1-4.56-1-14.34,0-20.2,0.59-3.54,10.5-17.23,23.9-30l0,0c1.29-.59,60.2-27.44,116.59-4.24l0,0c20,15.06,35.38,31.22,47.23,48.06l0,0c21.69,43.64,30.63,138.79,25.48,194.24-9,17.68-18.62,24-28.44,24-15,0-60-23.8-67.81-44.34,0,7.57,9.35,48.78,29.87,78.47a90.58,90.58,0,0,0,17.9,19.73c1.27,1,7.65-2.7,7.65-2.7,2.86,3.91,2.62,10,2.62,10a17.36,17.36,0,0,0,7.43-10c6.26,6.12,6.26,15.33,6.26,15.33l0,0c1.45-.47,40-13.85,61.88-61.92,20.87-45.75,16.94-52.42,16.33-53.1,2.62,1.92,5.3,3.7,8,5.3l-1.47.86C3012.7,419,3153,432.75,3189.75,462.22A36,36,0,0,1,3198,472.3h0c0.06,0,2.13,12.89,2.13,12.89l21.83,13.76a2.51,2.51,0,0,1,.1-0.65h0c4.13,4,7.75,11.85,10.66,18a0.5,0.5,0,0,1,0-.17c0.45,0.94.88,1.8,1.29,2.74a0.87,0.87,0,0,1,.1.19c7.86,21.89-6,85.14-2.72,134,3.42,51.48,78.24,163.68,56.72,179.32-21.32,15.49-76.94-2.27-76.94-2.27,4.58-9.78,41.74-19.56,41.74-19.56s-2.62-26.74-9.13-41.74-60-53.46-80.84-61.28c-13-4.89-25.58-11.31-39.49-19.58-6.3-3.72-12.87-7.82-19.89-12.32-0.37-.23-0.74-0.47-1.11-0.72-11.66-7.71-27.3-22.77-27.3-22.77-79.86-2.29-106.5-8.51-106.5-8.51s-6.85,17-3.91,36.52c0,0,2.29,14,6.53,23.47-4.58,2-13-9.13-13-9.13-8.29,5.75-.65,40.58-0.65,40.58l-7.82-4.4c-2.44,11.25-9.8,125.94-9.8,125.94-21.61,16.72-77.41,7.75-77.41,7.75A50.55,50.55,0,0,1,2889.11,849c12.38-4.56,23.37-41.39,25.09-78.55,2-42.38-17.27-85.75-17.27-85.75l0,0c-24.49-61.2-45.94-98.75-80.17-126.45-1.84-1.49-6,1-8.49,2.78a2,2,0,0,1-3.05-.94c-2.68-7.41-2.07-12.93-1.68-15a0.9,0.9,0,0,0-.82-1.08c-1.41-.08-4.21.25-7.9,3.17a2,2,0,0,1-3.09-.68c-3.23-7.2,6.45-101-42.13-111.47l-0.27-.2c3.15-16.19,6-31,7.63-42.36l1.2,0.18c10.76-22.16,41.26-19.77,50.26-84.85v0C2811.39,303.15,2810.86,298.65,2811.26,294.51Z" transform="translate(-2648.95 -145.13)"/><path class="cls-2" d="M3222,499.48a4.46,4.46,0,0,1-.1-0.91l-21.83-12.9S3198,472.3,3198,472.3h0C3206.75,477.3,3215.1,489.27,3222,499.48Z" transform="translate(-2648.95 -145.13)"/><path class="cls-4" d="M3155.11,433.71c9.74,5.44,22.24,14.88,34.64,26.58-36.73-29.48-177-41.29-204.16-67.65l1.47-.86a57.76,57.76,0,0,0,15.49,6.73C3031.89,405.68,3127.06,418.06,3155.11,433.71Z" transform="translate(-2648.95 -145.13)"/><path class="cls-1" d="M3123.15,688.62a288.37,288.37,0,0,0,11.09,48.9s-48.9,56.06-55.41,61.92-62.59,12-63.9,11.07-1.31-11.75-1.31-11.75-3.91,5.26-4.07,11.3c-11.25,3.09-25.58.31-25.58,0.31s-1.15-5.95,2.11-10.91c-6.69,2.37-7.82,10.27-7.82,10.27l-6.2-.82c0.49-11.74,10-35,23.28-39.37,0,0,54.47,18.19,73.05,6.45s32-32.92,32-46.94c0-13.81-36.32-26.83-37.46-27.23l0,0c-6.32-13.67-15.26-26.54-20.91-30.51,22.14-1.74,43.28-2.46,54.47-.27,2,1.33,4,2.62,6,3.89,0.37,0.25.74,0.49,1.11,0.72,7,4.5,13.59,8.61,19.89,12.32Z" transform="translate(-2648.95 -145.13)"/><path class="cls-5" d="M3042,671.29c-37.22,3-77.24,8.86-77.24,8.86-2.93-19.56,3.91-36.52,3.91-36.52s26.64,6.22,106.5,8.51c0,0,15.65,15.06,27.3,22.77-2-1.27-4-2.56-6-3.89C3085.25,668.82,3064.1,669.55,3042,671.29Z" transform="translate(-2648.95 -145.13)"/><path class="cls-2" d="M3100.34,729c0,14-13.38,35.21-32,46.94s-73.05-6.45-73.05-6.45c13.32-4.42,39.72-1.41,39.72-1.41s32.84-22.88,35-36.14c1.25-7.84-2.11-19.25-7.14-30.16C3064,702.21,3100.34,715.24,3100.34,729Z" transform="translate(-2648.95 -145.13)"/><path class="cls-5" d="M2979.1,386.47c0.61,0.68,4.54,7.35-16.33,53.1-21.93,48.08-60.44,61.45-61.88,61.92,40.86-28,40.64-87.17,38.16-128.64-0.65-10.74-1.43-20.3-1.7-27.81,0,0,19.6,25.29,41.68,41.37Z" transform="translate(-2648.95 -145.13)"/><path class="cls-1" d="M2973.86,753.16c-7.49,1.64-13-6.51-13-6.51s-6.18,62.92,6.53,139.51c-2.62,2.29-25.11,12.4-30,10.44s-6.51-24.78-6.51-24.78-9.45,13.69-9.13,23.47c0,0-20.54,5.54-27.38,3.91-2.6-2-1.29-18.25-1.29-18.25s-6.53,10.42-7.82,16.94c-1.64.67-17-.65-19.56-2.6s1.62-17,1.62-17c-2.6,2-9.13,12.71-10.43,13.38s-8.8-1.64-8.8-1.64a65.48,65.48,0,0,1,14.49-25.72s55.8,9,77.41-7.75c0,0,7.35-114.69,9.8-125.94l7.82,4.4s-7.65-34.83.65-40.58C2958.21,694.49,2965.39,742.4,2973.86,753.16Z" transform="translate(-2648.95 -145.13)"/><path class="cls-6" d="M2939,372.86c2.48,41.46,2.7,100.65-38.16,128.64l0,0s0-9.21-6.26-15.33a17.36,17.36,0,0,1-7.43,10s0.23-6.12-2.62-10c0,0-6.38,3.72-7.65,2.7a90.58,90.58,0,0,1-17.9-19.73c18.58,10.39,52.93,11.09,63.37-37.4a177.6,177.6,0,0,0,3-20.75C2930.1,401.67,2934.68,389.21,2939,372.86Z" transform="translate(-2648.95 -145.13)"/><path class="cls-5" d="M2937.34,345c0.27,7.51,1.06,17.08,1.7,27.81-4.36,16.35-8.94,28.81-13.67,38.14,5.14-55.45-3.79-150.6-25.48-194.24C2928.74,257.77,2936.46,302.76,2937.34,345Z" transform="translate(-2648.95 -145.13)"/><path class="cls-7" d="M2925.37,411a177.6,177.6,0,0,1-3,20.75c-10.44,48.49-44.79,47.78-63.37,37.4-20.52-29.69-29.87-70.9-29.87-78.47,7.82,20.54,52.81,44.34,67.81,44.34C2906.75,435,2916.35,428.68,2925.37,411Z" transform="translate(-2648.95 -145.13)"/><path class="cls-8" d="M2816.74,558.24c34.23,27.7,55.68,65.25,80.17,126.45-0.82-.31-27.48-10.6-56-23-28.81-12.5-59.5-27.09-67.15-35.6,0,0-.06-0.06-0.08-0.1-15-16.94-37.32-38.49-39.12-86.06-1-25.11,7.61-68.55,14.71-105.15l0.27,0.2c48.58,10.42,38.9,104.27,42.13,111.47a2,2,0,0,0,3.09.68c3.7-2.91,6.49-3.25,7.9-3.17a0.9,0.9,0,0,1,.82,1.08c-0.39,2.07-1,7.59,1.68,15a2,2,0,0,0,3.05.94C2810.76,559.25,2814.9,556.75,2816.74,558.24Z" transform="translate(-2648.95 -145.13)"/><path class="cls-1" d="M2848.68,767.52l-14.34-5.22s-4.58,65.85-3.91,76.92,8.59,25.5,4.89,29.34c-9.13,9.47-38.8,22.82-50.54,18.91-2.93-3.58-3.91-13-3.91-13s-4.89,7.18-5.2,14.67c-6.53,1.31-15.65,0-15.65,0-1-3.58,1.29-21,1.29-21s-10.09,12.89-10.43,19.4c-12.71.65-23.47-5.22-23.47-5.22a16.14,16.14,0,0,1,2.6-13c-2.27-.66-14.34,9.11-14.34,9.11a36,36,0,0,1,10.42-20.85c-4.56-1.62-17.27,11.4-17.27,11.4s2-22.49,19.89-28.34c0,0,36.18,23.45,72.37,13.67,0,0,20.69-4.44,22.08-12s1.06-96.21,3.34-94.25a74.71,74.71,0,0,0,7.82,5.2s-11.25-25.43-11.17-37.81,3.66-17.27,5.3-22.16,0.16-20.22-5.3-25.43-43-14.34-47.74-24.12l0,0c-1-10.82-1.7-17.43-1.7-17.43l0.08-.08c7.65,8.51,38.34,23.1,67.15,35.6l-0.08,1.47s-2,44.34,2.6,61.3L2831.72,718S2837.59,752.52,2848.68,767.52Z" transform="translate(-2648.95 -145.13)"/><path class="cls-9" d="M2842.17,161.19q5.43,3.7,10.44,7.47c-56.39-23.2-115.3,3.66-116.59,4.24,8.84-8.43,19.21-16.45,29.38-20.85C2791,141,2826.31,150.4,2842.17,161.19Z" transform="translate(-2648.95 -145.13)"/><path class="cls-2" d="M2834.34,753.16a74.71,74.71,0,0,1-7.82-5.2c-2.29-2-2,86.7-3.34,94.25s-22.08,12-22.08,12c-36.18,9.78-72.37-13.67-72.37-13.67,8.86-2.89,29.71-2.37,34.87-3.6,8.16-2,14.42-6.12,16.63-13.69,8.31-28.61-.78-136.91-4.79-179.61,4.69,9.78,42.29,18.89,47.74,24.12s6.92,20.54,5.3,25.43-5.22,9.78-5.3,22.16S2834.34,753.16,2834.34,753.16Z" transform="translate(-2648.95 -145.13)"/><path class="cls-10" d="M2741.24,340.82a71.25,71.25,0,0,0,16.16-2.31c13.24-3.56,36.85-10.76,53.77-44l0.09,0c-0.39,4.15.13,8.64-2.87,13.24v0c-9,13.79-14.17,28.46-27.12,37.26-16.08,10.91-31,13-31,13-5,0-10.32-.06-16-0.45a112.18,112.18,0,0,1-27.33-5.16,144,144,0,0,1,12.49-13.83A72.79,72.79,0,0,0,2741.24,340.82Z" transform="translate(-2648.95 -145.13)"/><path class="cls-5" d="M2781.2,345c12.95-8.8,22.41-23.47,27-37.26-9.8,65.07-39.43,62.69-50.19,84.85l-1.13-.18c1.23-8.61,1.74-15.16,1.13-18.74-1.13-6.55-7.82-15.65-7.82-15.65S2765.13,356,2781.2,345Z" transform="translate(-2648.95 -145.13)"/><path class="cls-5" d="M2811.17,294.53c-16.92,33.23-40.53,40.43-53.77,44a71.25,71.25,0,0,1-16.16,2.31,33.62,33.62,0,0,1-1.62-11.4C2762.86,330.73,2788.93,323.22,2811.17,294.53Z" transform="translate(-2648.95 -145.13)"/><path class="cls-7" d="M2758.06,270.55c2.76,29.59-17.78,38.94-18.44,58.85a107.82,107.82,0,0,1-30.39-6.43l-0.06-.1-0.25,0a136,136,0,0,1-32.33-16.9,2.35,2.35,0,0,1,0-.36c-19.56,4.22-22.1-19.29-22.1-19.29h0c-0.9-9-1.33-16.73-1.35-17.2,1.37,1.39,3.64,1.72,5,3.73,1.88,2.86,2.29,5.64,3.91,7.67s7.9,3,9.54,2,6.75-5.77,9-6.34,9.9,1.11,14.67.25c4.44-.78,7.06-8.85,4.79-16.11a15.89,15.89,0,0,0-2.72-5.22,15.37,15.37,0,0,0-5.73-4.58,39.56,39.56,0,0,0-19.54-3.81c5.81-3.4,13.08-7.24,19.83-10.85C2693.17,235.83,2754.84,236.2,2758.06,270.55Z" transform="translate(-2648.95 -145.13)"/><path class="cls-7" d="M2758.06,373.72c0.61,3.58.1,10.13-1.13,18.74-1.62,11.32-4.48,26.17-7.63,42.36-2-1.55-14.53-11.44-16-23.27-1.62-12.89,2.44-38.63,1-53.47l0-.45c5.63,0.39,11,.45,15.94.45C2750.24,358.07,2756.93,367.17,2758.06,373.72Z" transform="translate(-2648.95 -145.13)"/><path class="cls-11" d="M2741.24,340.82a72.82,72.82,0,0,1-21.77-2.19l0.12-.12L2709.23,323a107.82,107.82,0,0,0,30.39,6.43s0,0,0,0A33.62,33.62,0,0,0,2741.24,340.82Z" transform="translate(-2648.95 -145.13)"/><path class="cls-12" d="M2727.26,209.52a3.11,3.11,0,0,0-3.91.39,5.4,5.4,0,0,0-.43.51,13.39,13.39,0,0,1-7.08-1.41l-1.35.16a9.64,9.64,0,0,1-.12-1.53,10.76,10.76,0,0,1,20.67-4.19s-1,3.19-7.33,8.92q0.47-.41.88-0.82a3.16,3.16,0,0,0-.84-1.64A2.25,2.25,0,0,0,2727.26,209.52Z" transform="translate(-2648.95 -145.13)"/><path d="M2728.59,211.56q-0.41.41-.88,0.82c-0.29.29-.63,0.57-1,0.86s-0.67.61-1,.9-0.72.63-1.11,0.94a3,3,0,0,1-1.25-.76,3.09,3.09,0,0,1-.43-3.89,14.59,14.59,0,0,0,4.34-.9,2.25,2.25,0,0,1,.49.39A3.16,3.16,0,0,1,2728.59,211.56Z" transform="translate(-2648.95 -145.13)"/><path class="cls-12" d="M2725.71,214.14c0.37-.29.7-0.61,1-0.9C2726.42,213.55,2726.09,213.85,2725.71,214.14Z" transform="translate(-2648.95 -145.13)"/><path d="M2723.35,209.91a3.11,3.11,0,0,1,3.91-.39,14.59,14.59,0,0,1-4.34.9A5.4,5.4,0,0,1,2723.35,209.91Z" transform="translate(-2648.95 -145.13)"/><path class="cls-13" d="M2723.35,214.31a3,3,0,0,0,1.25.76c-1,.84-2.13,1.72-3.36,2.62l0,0a10.79,10.79,0,0,1-6.71-8.49l1.35-.16a13.39,13.39,0,0,0,7.08,1.41A3.09,3.09,0,0,0,2723.35,214.31Z" transform="translate(-2648.95 -145.13)"/><path class="cls-11" d="M2709.23,323l10.37,15.55-0.12.12a22.11,22.11,0,0,1-6.4-2.72c-3.4-2.37-10.86-8.1-18.42-14.24l14.26,1.17Z" transform="translate(-2648.95 -145.13)"/><path class="cls-11" d="M2709.17,322.87l0.06,0.1-0.31-.12Z" transform="translate(-2648.95 -145.13)"/><path class="cls-11" d="M2708.91,322.85l-14.26-1.17c-7-5.65-14-11.68-18.07-15.73A136,136,0,0,0,2708.91,322.85Z" transform="translate(-2648.95 -145.13)"/><path class="cls-14" d="M2713.08,335.91c-3.4-2.37-10.86-8.1-18.42-14.24l-1.13-.1s-1.64.78-4.22,2.21c4.32,5.83,13.61,12.36,17.54,15a1.77,1.77,0,0,1,.25,2.74c-1.7,1.7-4.56,4.67-7.57,8.16a97.92,97.92,0,0,0-6.49,8.39c-9.78,14.43-7.59,22.49-15.16,33.25-1.35,1.92-4.22,5.22-6.45,4.44-2.05-.72-8.35-16.41,6.45-40.94-14.43,12.5-12.91,35.4-12.58,40.76-6.2,1-13.52-4.26-13.52-4.26,2,5.87,6.2,15,16.31,18.27,5.34,1.72,16.63,1.29,22.16-4.24,3-3-.65-20.2,5.87-35.54,2.54-6,6.73-12.15,10.86-17.35a143.77,143.77,0,0,1,12.5-13.83A22.1,22.1,0,0,1,2713.08,335.91Z" transform="translate(-2648.95 -145.13)"/><path class="cls-10" d="M2694.65,321.67l-1.13-.1s-1.64.78-4.22,2.21a113.14,113.14,0,0,0-15.63,10.44,4.58,4.58,0,0,1-.37-0.27c3.6-11.74,2.93-26.74,2.93-26.74l-1.41-.1c1.08-.7,1.74-1.19,1.74-1.19l0,0C2680.63,310,2687.69,316,2694.65,321.67Z" transform="translate(-2648.95 -145.13)"/><path class="cls-15" d="M2706.84,338.79c-3.93-2.64-13.22-9.17-17.54-15a113.14,113.14,0,0,0-15.63,10.44c-6,4.87-11.91,10.91-15,17.66-7.88,17-8.8,33.56-6.85,39.43,0,0,7.32,5.22,13.52,4.26-0.33-5.36-1.86-28.26,12.58-40.76-14.81,24.53-8.51,40.21-6.45,40.94,2.23,0.78,5.1-2.52,6.45-4.44,7.57-10.76,5.38-18.82,15.16-33.25a97.92,97.92,0,0,1,6.49-8.39c3-3.48,5.87-6.45,7.57-8.16A1.77,1.77,0,0,0,2706.84,338.79Z" transform="translate(-2648.95 -145.13)"/><path class="cls-11" d="M2676.56,305.59a12.16,12.16,0,0,1-1.74,1.36c-3.58,2.33-11.7,6.77-15.22,3.75-2.43-2.07-4.11-11.41-5.16-24.41h0S2657,309.81,2676.56,305.59Z" transform="translate(-2648.95 -145.13)"/><path class="cls-16" d="M2691.56,250.5a39.57,39.57,0,0,0-19.54-3.81,32.65,32.65,0,0,0-12.24,3.09,11.5,11.5,0,0,0-4.36,4.21,63.25,63.25,0,0,1,7.82-1.51c8-1.11,21-1.78,34.05,2.6A15.37,15.37,0,0,0,2691.56,250.5Z" transform="translate(-2648.95 -145.13)"/><path class="cls-17" d="M2697.3,255.08c-13-4.38-26.07-3.72-34.05-2.6a63.25,63.25,0,0,0-7.82,1.51,21.85,21.85,0,0,0-2.33,5s1.9,0.84,5.07,1.88c8.82,2.91,27.46,7.37,41.86-.61A15.91,15.91,0,0,0,2697.3,255.08Z" transform="translate(-2648.95 -145.13)"/><path class="cls-18" d="M2700,260.3c-14.4,8-33,3.52-41.86.61-3.17-1-5.07-1.88-5.07-1.88a20.68,20.68,0,0,0-1.13,7.86,3.87,3.87,0,0,0,1.13,2.54c1.37,1.39,3.64,1.54,5,3.56,1.88,2.86,2.29,5.55,3.91,7.59s7.9,2.93,9.54,2,6.75-5.79,9-6.36,9.9,1.09,14.67.23C2699.66,275.63,2702.28,267.55,2700,260.3Z" transform="translate(-2648.95 -145.13)"/><path class="cls-19" d="M2775.43,643.65c4,42.7,13.1,151,4.79,179.61-2.21,7.57-8.47,11.74-16.63,13.69-5.16,1.23-26,.7-34.87,3.6-17.94,5.85-19.89,28.34-19.89,28.34s12.71-13,17.27-11.4a36,36,0,0,0-10.42,20.85s12.07-9.78,14.34-9.11a16.14,16.14,0,0,0-2.6,13s10.76,5.87,23.47,5.22c0.33-6.51,10.43-19.4,10.43-19.4s-2.27,17.45-1.29,21c0,0,9.11,1.31,15.65,0,0.31-7.49,5.2-14.67,5.2-14.67s1,9.47,3.91,13c11.74,3.91,41.41-9.45,50.54-18.91,3.7-3.83-4.24-18.25-4.89-29.34s3.91-76.92,3.91-76.92l14.34,5.22c-11.09-15-17-49.56-17-49.56l11.74,6.53c-4.56-17-2.6-61.3-2.6-61.3" transform="translate(-2648.95 -145.13)"/><path class="cls-19" d="M2773.71,626.21s0.68,6.61,1.7,17.43" transform="translate(-2648.95 -145.13)"/><path class="cls-19" d="M3062.89,701.82c5,10.91,8.39,22.32,7.14,30.16-2.13,13.26-35,36.14-35,36.14s-26.4-3-39.72,1.41-22.79,27.64-23.28,39.37l6.2,0.82s1.13-7.9,7.82-10.27c-3.27,5-2.11,10.91-2.11,10.91s14.34,2.78,25.58-.31c0.16-6,4.07-11.3,4.07-11.3s0,10.78,1.31,11.75,57.37-5.2,63.9-11.07,55.41-61.92,55.41-61.92a288.37,288.37,0,0,1-11.09-48.9" transform="translate(-2648.95 -145.13)"/><path class="cls-19" d="M3042,671.29c5.65,4,14.59,16.84,20.91,30.51" transform="translate(-2648.95 -145.13)"/><path class="cls-19" d="M3198,468.42c0.51,0,5.71-.37,13.16-0.88,13.48-.92,34.36-2.39,48.41-3.68,23-2.13,49.6-9,54.76-10.6,1.31,8-7,12.58-7,12.58a36.13,36.13,0,0,0,1.62,9.23,22.66,22.66,0,0,0,3.62,7.2c-8.49,2.44-17.78,1-17.78,1s-2.6,12.07-1.62,17.94a29.47,29.47,0,0,1-15.8-6.85s-4.09,6.2-3.11,12.87c-7.16-2.11-11.56-10.58-11.56-10.58a17.45,17.45,0,0,0-8.8,9.78c-6.85-5.55-3.62-12.09-6.69-12.71-12-2.46-23.86,3.21-25.15,3.85" transform="translate(-2648.95 -145.13)"/><path class="cls-19" d="M2707,352.46a112.11,112.11,0,0,0,27.32,5.16c5.63,0.39,11,.45,15.94.45" transform="translate(-2648.95 -145.13)"/><path class="cls-19" d="M2676.23,307.22s0.66,15-2.93,26.74a4.58,4.58,0,0,0,.37.27" transform="translate(-2648.95 -145.13)"/><path class="cls-19" d="M2694.65,321.67l-1.13-.1s-1.64.78-4.22,2.21a113.14,113.14,0,0,0-15.63,10.44c-6,4.87-11.91,10.91-15,17.66-7.88,17-8.8,33.56-6.85,39.43s6.2,15,16.31,18.27c5.34,1.72,16.63,1.29,22.16-4.24,3-3-.65-20.2,5.87-35.54,2.54-6,6.73-12.15,10.86-17.35a143.77,143.77,0,0,1,12.5-13.83" transform="translate(-2648.95 -145.13)"/><path class="cls-19" d="M2808.25,307.79c-4.64,13.79-14.1,28.46-27,37.26-16.08,10.91-31,13-31,13s6.69,9.09,7.82,15.65c0.61,3.58.1,10.13-1.13,18.74-1.62,11.32-4.48,26.17-7.63,42.36-7.1,36.59-15.67,80-14.71,105.15,1.8,47.57,24.12,69.12,39.12,86.06,0,0,.06.06,0.08,0.1,7.65,8.51,38.34,23.1,67.15,35.6,28.5,12.36,55.16,22.65,56,23" transform="translate(-2648.95 -145.13)"/><path class="cls-19" d="M2811.19,294.51a59.66,59.66,0,0,1-2.93,13.24" transform="translate(-2648.95 -145.13)"/><path class="cls-19" d="M2676.58,305.95c4,4,11.11,10.07,18.07,15.73,7.57,6.14,15,11.87,18.42,14.24a22.11,22.11,0,0,0,6.4,2.72,72.82,72.82,0,0,0,21.77,2.19,71.25,71.25,0,0,0,16.16-2.31c13.24-3.56,36.85-10.76,53.77-44" transform="translate(-2648.95 -145.13)"/><path class="cls-19" d="M2653.09,269.43c0,0.47.45,8.59,1.35,17.54,1.06,10.46,2.74,22.08,5.16,24.16,3.52,3,11.64-1.68,15.22-4,1.08-.7,1.74-1.19,1.74-1.19" transform="translate(-2648.95 -145.13)"/><path class="cls-19" d="M2736,172.93c-13.4,12.75-23.31,26.44-23.9,30-1,5.87,1,15.65,0,20.2a4.32,4.32,0,0,1-1.6,1.82c-3.15,2.54-10.52,6.55-18.64,10.89-6.75,3.62-14,7.45-19.83,10.86" transform="translate(-2648.95 -145.13)"/><path class="cls-19" d="M2852.61,168.66q-5-3.78-10.44-7.47c-15.86-10.8-51.19-20.22-76.77-9.13-10.17,4.4-20.54,12.42-29.38,20.85" transform="translate(-2648.95 -145.13)"/><path class="cls-19" d="M2899.87,216.74c-11.85-16.84-27.26-33-47.23-48.06" transform="translate(-2648.95 -145.13)"/><path class="cls-19" d="M2979,386.41c-22.08-16.08-41.68-41.37-41.68-41.37-0.88-42.29-8.61-87.27-37.46-128.29" transform="translate(-2648.95 -145.13)"/><path class="cls-20" d="M3232.7,515.27c-2.91-6.12-6.53-11-10.66-19h0a332.41,332.41,0,0,0-24-28.5c-2.72-2.82-5.48-5.22-8.25-7.82-12.4-11.7-24.9-21-34.64-26.42-28-15.65-123.22-27.95-152.56-35.13a57.59,57.59,0,0,1-15.49-6.69c-2.66-1.6-5.34-3.68-8-5.59" transform="translate(-2648.95 -145.13)"/><path class="cls-19" d="M3234,518.75c-0.41-.94-0.84-1.9-1.29-2.84" transform="translate(-2648.95 -145.13)"/><path class="cls-19" d="M3103.55,675.63c7,4.5,13.59,8.61,19.89,12.32,13.91,8.27,26.44,14.69,39.49,19.58,20.85,7.82,74.32,46.3,80.84,61.28s9.13,41.74,9.13,41.74-37.16,9.78-41.74,19.56-1.29,24.76-1.29,24.76,6.67-5,10.43-3.91c-3.42,6.69,2.6,18.27,2.6,18.27s6.2-6.53,10-6.53c6.85,7.82,16.78,10.93,31.78,9.13,0,0,1.47-17.45,7.82-18.25,5,15.16,18.09,15.65,20.85,15.65s26.74-10.44,30.32-14.51c-2.76-5.61-2.93-10.76-2.27-12.22,2.6-1,6.36,2.11,6.36,2.11s0.8-3.91-.49-6.67c-1.47-5.55-38.47-75-50.85-103s-30.65-94.53-31.29-112.13,0.65-45-5.22-84.77a75.3,75.3,0,0,0-5.75-19" transform="translate(-2648.95 -145.13)"/><path class="cls-19" d="M2896.93,684.71s19.23,43.36,17.27,85.75c-1.72,37.16-12.71,74-25.09,78.55a50.55,50.55,0,0,0-26.58,15.35A65.48,65.48,0,0,0,2848,890.07s7.49,2.29,8.8,1.64,7.82-11.42,10.43-13.38c0,0-4.24,15-1.62,17s17.92,3.27,19.56,2.6c1.29-6.51,7.82-16.94,7.82-16.94s-1.31,16.29,1.29,18.25c6.85,1.62,27.38-3.91,27.38-3.91-0.31-9.78,9.13-23.47,9.13-23.47s1.62,22.83,6.51,24.78,27.38-8.16,30-10.44c-12.71-76.59-6.53-139.51-6.53-139.51s5.55,8.16,13,6.51c-8.47-10.76-15.65-58.68-15.65-58.68s8.47,11.09,13,9.13c-4.24-9.45-6.53-23.47-6.53-23.47s40-5.91,77.24-8.86c22.14-1.74,43.28-2.46,54.47-.27,2,1.33,4,2.62,6,3.89" transform="translate(-2648.95 -145.13)"/><path class="cls-19" d="M2900.88,501.5c40.86-28,40.64-87.17,38.16-128.64-0.65-10.74-1.43-20.3-1.7-27.81" transform="translate(-2648.95 -145.13)"/><path class="cls-19" d="M2868.24,221.16s5.22,22.18,5.22,35.21-44.34,122.58-44.34,134.31c0,7.57,9.35,48.78,29.87,78.47a90.58,90.58,0,0,0,17.9,19.73c1.27,1,7.65-2.7,7.65-2.7,2.86,3.91,2.62,10,2.62,10a17.36,17.36,0,0,0,7.43-10c6.26,6.12,6.26,15.33,6.26,15.33" transform="translate(-2648.95 -145.13)"/><path class="cls-19" d="M2968.64,643.63s-6.85,17-3.91,36.52" transform="translate(-2648.95 -145.13)"/><path class="cls-19" d="M2811.19,294.51s3.27-8.14,2.62-28" transform="translate(-2648.95 -145.13)"/><path class="cls-19" d="M2653.09,269.43c1.37,1.39,3.64,1.54,5,3.56,1.88,2.86,2.29,5.55,3.91,7.59s7.9,2.93,9.54,2,6.75-5.79,9-6.36,9.9,1.1,14.67.23c4.44-.78,7.06-8.86,4.79-16.12a15.91,15.91,0,0,0-2.72-5.22,15.37,15.37,0,0,0-5.73-4.58,39.57,39.57,0,0,0-19.54-3.81,32.66,32.66,0,0,0-12.24,3.09,11.5,11.5,0,0,0-4.36,4.21,21.86,21.86,0,0,0-2.33,5,20.68,20.68,0,0,0-1.13,7.86A3.87,3.87,0,0,0,2653.09,269.43Z" transform="translate(-2648.95 -145.13)"/><path class="cls-19" d="M2724.6,215.08c-1,.84-2.13,1.72-3.36,2.62-2.91,2.19-6.45,4.62-10.74,7.24q-0.88.56-1.82,1.11" transform="translate(-2648.95 -145.13)"/><path class="cls-19" d="M2726.75,213.24c-0.33.31-.67,0.61-1,0.9" transform="translate(-2648.95 -145.13)"/><path class="cls-19" d="M2721.2,217.66a10.79,10.79,0,0,1-6.71-8.49,9.64,9.64,0,0,1-.12-1.53,10.76,10.76,0,0,1,20.67-4.19s-1,3.19-7.33,8.92" transform="translate(-2648.95 -145.13)"/><path class="cls-21" d="M2727.26,209.52a3.11,3.11,0,0,0-3.91.39,5.4,5.4,0,0,0-.43.51,3.09,3.09,0,0,0,.43,3.89,3,3,0,0,0,1.25.76q0.59-.47,1.11-0.94c0.37-.29.7-0.61,1-0.9s0.66-.57,1-0.86,0.61-.55.88-0.82a3.16,3.16,0,0,0-.84-1.64A2.25,2.25,0,0,0,2727.26,209.52Z" transform="translate(-2648.95 -145.13)"/><path class="cls-19" d="M2734.26,358.07c1.47,14.85-2.6,40.58-1,53.47,1.49,11.83,14,21.73,16,23.27l0.27,0.2" transform="translate(-2648.95 -145.13)"/><path class="cls-19" d="M2676.56,305.93l0,0" transform="translate(-2648.95 -145.13)"/><line class="cls-19" x1="126.48" y1="498.52" x2="126.46" y2="498.5"/><path class="cls-19" d="M3062.89,701.82l0,0" transform="translate(-2648.95 -145.13)"/><path class="cls-19" d="M3232.72,515.91a0,0,0,0,1,0,0" transform="translate(-2648.95 -145.13)"/><path class="cls-19" d="M3234.11,519a1.2,1.2,0,0,0-.1-0.23" transform="translate(-2648.95 -145.13)"/><path class="cls-19" d="M3102.44,674.91c0.37,0.25.74,0.49,1.11,0.72" transform="translate(-2648.95 -145.13)"/><path d="M2797.27,843a2,2,0,0,1-.54-0.09c-0.16,0-15.87-4.86-31.11-4.26a1.93,1.93,0,0,1-2-1.88,2,2,0,0,1,1.88-2c15.92-.63,31.76,4.23,32.42,4.44A2,2,0,0,1,2797.27,843Z" transform="translate(-2648.95 -145.13)"/><path d="M2668.09,410.52a0.93,0.93,0,0,1-.9-0.67c-10.8-36.82,9.85-55.54,10.06-55.73a0.93,0.93,0,0,1,1.24,1.4c-0.2.18-20,18.18-9.5,53.8a0.93,0.93,0,0,1-.63,1.16A1,1,0,0,1,2668.09,410.52Z" transform="translate(-2648.95 -145.13)"/><path d="M2896.68,687.19a2,2,0,0,1-1.83-1.26c-11-29.08-33.8-69.61-34-70a2,2,0,1,1,3.41-1.92c0.23,0.41,23.19,41.2,34.28,70.55A2,2,0,0,1,2896.68,687.19Z" transform="translate(-2648.95 -145.13)"/><path d="M2930.17,853.57a2,2,0,0,1-.7-0.13c-13.74-5.31-39.9-2.52-40.15-2.49a2,2,0,1,1-.43-3.89c1.11-.12,27.38-2.92,42,2.73A2,2,0,0,1,2930.17,853.57Z" transform="translate(-2648.95 -145.13)"/><path d="M3052.74,774.19a1.94,1.94,0,0,1-.73-0.14,70.92,70.92,0,0,0-17.13-4,2,2,0,0,1-1.77-2.12,1.93,1.93,0,0,1,2.12-1.77,73.8,73.8,0,0,1,18.24,4.25A2,2,0,0,1,3052.74,774.19Z" transform="translate(-2648.95 -145.13)"/><path d="M2823.91,265.51a2,2,0,0,1-1.84-1.3c-2.8-7.91-12.74-4.57-13.16-4.43a2,2,0,0,1-1.28-3.7c4.84-1.68,14.87-2.41,18.13,6.82A2,2,0,0,1,2823.91,265.51Z" transform="translate(-2648.95 -145.13)"/><path class="cls-13" d="M2778.91,213.57a10.48,10.48,0,0,1,.66,3.68,10.76,10.76,0,0,1-20.77,3.93C2759.45,221.39,2772.48,225.74,2778.91,213.57Z" transform="translate(-2648.95 -145.13)"/><path class="cls-12" d="M2768.82,206.49a10.74,10.74,0,0,1,10.09,7.08c-6.43,12.17-19.46,7.82-20.11,7.61a10.49,10.49,0,0,1-.74-3.93A10.76,10.76,0,0,1,2768.82,206.49Z" transform="translate(-2648.95 -145.13)"/><path class="cls-19" d="M2778.91,213.57a10.48,10.48,0,0,1,.66,3.68,10.76,10.76,0,0,1-20.77,3.93,10.49,10.49,0,0,1-.74-3.93A10.75,10.75,0,0,1,2778.91,213.57Z" transform="translate(-2648.95 -145.13)"/><path d="M2766.46,219.93a4,4,0,1,0-2.86,6.91A4,4,0,0,0,2766.46,219.93Z" transform="translate(-2648.95 -145.13)"/><path d="M2710.13,170.64a2,2,0,0,1-1.83-2.63c1.68-4.53,7.63-12.31,18-9.35a2,2,0,1,1-1.07,3.76c-9.52-2.73-13.13,6.56-13.28,7A2,2,0,0,1,2710.13,170.64Z" transform="translate(-2648.95 -145.13)"/><path d="M2810.22,186.94l-0.3,0a2,2,0,0,1-1.64-2.23c0.45-2.93,0-5.2-1.27-6.77-2.3-2.78-6.9-3-8.41-3a6.25,6.25,0,0,1-.84-0.07,2,2,0,0,1,.66-3.85h0.33c1.94,0.07,7.86.29,11.28,4.43,2,2.46,2.75,5.78,2.12,9.86A2,2,0,0,1,2810.22,186.94Z" transform="translate(-2648.95 -145.13)"/><path d="M3097.67,673.4a1.93,1.93,0,0,1-1.12-.36c-17.72-12.47-38.85-36.08-39.74-37.08a2,2,0,1,1,2.92-2.61c0.22,0.24,21.73,24.28,39.08,36.49A2,2,0,0,1,3097.67,673.4Z" transform="translate(-2648.95 -145.13)"/><path class="cls-19" d="M3252.9,810.55s11.34-2.57,22.63,1" transform="translate(-2648.95 -145.13)"/></svg>