<svg id="Layer_1" data-name="Layer 1" xmlns="http://www.w3.org/2000/svg" viewBox="0 0 533.06 525.78"><defs><style>.cls-1{fill:#d1d3d4;}.cls-2{fill:#a67a51;}.cls-3{fill:#fff;}.cls-4{fill:#c49060;}.cls-17,.cls-18,.cls-5,.cls-6{fill:none;}.cls-17,.cls-5,.cls-6{stroke:#000;}.cls-10,.cls-12,.cls-15,.cls-17,.cls-19,.cls-5,.cls-6{stroke-miterlimit:10;}.cls-5{stroke-width:2.06px;}.cls-10,.cls-6{stroke-width:3px;}.cls-15,.cls-7{fill:#291e14;}.cls-8{fill:#423120;}.cls-9{fill:#8a6644;}.cls-10,.cls-19{fill:#a37950;stroke:#a37950;}.cls-11{fill:#d6a171;}.cls-12,.cls-14{fill:#17110b;}.cls-12{stroke:#17110b;}.cls-12,.cls-15,.cls-19{stroke-width:0.91px;}.cls-13{fill:#75573a;}.cls-15{stroke:#291e14;}.cls-16{fill:#453222;}.cls-17{stroke-width:1.82px;}.cls-20{fill:#735539;}</style></defs><title>dog3-vector</title><path class="cls-1" d="M626.72,430c3.68,38.09,3,65,1.47,70.06-1.38,2.41-7.91,11.34-12.37,12.37s-20.62-1.37-22.69-5.5c-1-2-.35-8.25,2.06-11,0,0,15.12,10.52,23.37,3.89s5.14-43.44,3.28-63.12c-0.52-5.42-3.11-12.55-7.15-20.22a44.09,44.09,0,0,1,11.67,13.55Z" transform="translate(-214.06 -19.28)"/><path class="cls-2" d="M626.72,430l-0.35,0a44.09,44.09,0,0,0-11.67-13.55c-10.25-19.47-29.78-42.46-48-50.07C552.76,360.65,534,375,534,375c-16.84-24.41-21.37-62.28-21.37-62.28l39.25-6.47,45.72,51.6s-7.23,35.71,27.14,54.27Q625.89,421.42,626.72,430Z" transform="translate(-214.06 -19.28)"/><path class="cls-3" d="M621.84,436.74c1.86,19.67,5,56.49-3.28,63.12S595.19,496,595.19,496c2.4-2.74,9.19-4.33,13.45-5.88,1-2.75,6.15-44.3-10-60.12-11.4-11.16-30.52-21.81-46.7-35.68h0s39.89,4,62.76,22.23C618.72,424.19,621.32,431.31,621.84,436.74Z" transform="translate(-214.06 -19.28)"/><path class="cls-4" d="M566.66,366.44c18.25,7.61,37.78,30.61,48,50.07-22.87-18.22-62.76-22.23-62.76-22.23h0A103.07,103.07,0,0,1,534,375S552.76,360.65,566.66,366.44Z" transform="translate(-214.06 -19.28)"/><path class="cls-5" d="M626.72,430q-0.84-8.62-2-17.93c-34.37-18.56-27.14-54.27-27.14-54.27l-45.72-51.6-39.25,6.47S517.16,350.57,534,375a103.07,103.07,0,0,0,17.92,19.31c16.18,13.87,35.3,24.52,46.7,35.68,16.16,15.82,11,57.37,10,60.12-4.26,1.55-11,3.13-13.45,5.88s-3.05,9-2.06,11c2.06,4.12,18.21,6.53,22.69,5.5s11-10,12.37-12.37C629.67,495,630.4,468.13,626.72,430Z" transform="translate(-214.06 -19.28)"/><path class="cls-4" d="M623.2,192.12c4.73-5.6,8.35-1,7.33,4.32l-1.12-.2c-19.24,25.43-34.74,17.84-34.74,17.84A86.61,86.61,0,0,0,623.2,192.12Z" transform="translate(-214.06 -19.28)"/><path class="cls-2" d="M629.41,196.24l1.12,0.2A10.45,10.45,0,0,1,628.4,201c-9.62,12-25.87,35.06-25.87,35.06L579,228.55v-9.62a57,57,0,0,0,15-4.85S610.16,221.67,629.41,196.24Z" transform="translate(-214.06 -19.28)"/><path class="cls-6" d="M630.53,196.44A10.45,10.45,0,0,1,628.4,201c-9.62,12-25.12,35.06-25.12,35.06l-22.77-7.56v-9.62a57.63,57.63,0,0,0,14.21-4.85,86.56,86.56,0,0,0,28.51-22C628,186.52,631.55,191.1,630.53,196.44Z" transform="translate(-214.06 -19.28)"/><path class="cls-4" d="M406.15,362.11c1.28,15.76,3.75,39.26,7.37,61.37a4,4,0,0,1-.56.62c-5.9,5.65-26.5-.63-26.5-0.63a411.93,411.93,0,0,0-22.09-55.17c-18.06-11.19-27.85-18.56-27.85-18.56-9.8-14.74-15-43.51,7.22-100,23.6-60.19-26-73.69-41.15-83.37a16.69,16.69,0,0,0,5.09-5.57c1.95-1.53,4.51-3.34,5.74-5.34,3.07-5,3.57-16.09.57-26.9h0c-5-5.57-4.54-11.08-7.12-15.64a58.62,58.62,0,0,0-4.43-6.1,53.26,53.26,0,0,0-5-5.54c-1.87-2.52-6.38-9.5-4.48-17.37,1.15-4.8,5-9.29,2.84-16.93-3.09-11.2-12.92-12.63-18.46-10.66a58.33,58.33,0,0,0-15.3,8.56s-8.7-9.3-16.69-2.13,0.58,21.44-2.72,31.48c0-5.51-5.5-16.5-5.13-23.34a57.39,57.39,0,0,1,9.34-26.57h0S285.73,15.44,318,29.57l29.39,13.92L352,117.74A124.25,124.25,0,0,0,375.29,154a0,0,0,0,0,0,0c0.17,0.49,11.72,32.25,97.49,49.11,38.52,7.57,83.33,5.51,94.33,9.28,0.1,0,.21-0.35.3-0.3a1.73,1.73,0,0,0,.71-0.12h0c28.08,15,56.54,42.56,64.17,59.1,13.4,29,21.42,88.3,35.74,111.23a90.62,90.62,0,0,0,16,19.35c-52.08.52-104.67-57-104.67-57l-0.47.36c-8.08-11.35-14.46-20.28-16.52-21.6-31-22.5-117.83-2.19-144.89,14.41C403,346.76,405.58,361.95,406.15,362.11Z" transform="translate(-214.06 -19.28)"/><path class="cls-7" d="M302,106.75c1.36,1.83,3.63,3.86,4.9,6.1,2.58,4.57,2.12,10.07,7.12,15.64h0c-8,46.2-45.58,15.56-45.58,15.56-3.56-4.51-8.44-7.83-15.07-7.43-9.87.57-16.18,5.69-19.17,11-6.33-3.79-7.34-14.4-7.34-14.4,0.56-5.27,4-11.64,4.07-13.92s0.8-10.38,3.58-15.47a22.55,22.55,0,0,1,2-3.05,0,0,0,0,1,0,0C237.24,100,255.51,80.47,302,106.75Z" transform="translate(-214.06 -19.28)"/><path class="cls-8" d="M302,106.75c-46.48-26.27-64.75-6.75-65.43-6a57.71,57.71,0,0,1,5.53-6l0.05,0c5.38-4.41,10.15-5.2,15.92-6.1,7.58-1.21,21.53.52,26,2.93A51.57,51.57,0,0,1,302,106.75Z" transform="translate(-214.06 -19.28)"/><path class="cls-9" d="M267.67,25.67l0.22,0.44a51,51,0,0,0-21,18.12h0C236.52,51,234.27,72.5,231.68,76.19s-11.56-10.8-12.06-11.61c0,0,0-.87,0-0.88A68,68,0,0,1,215.95,50h0s3-8.55,8.76-10.5,16.33-5.8,20.54-9.06S259.58,23.29,267.67,25.67Z" transform="translate(-214.06 -19.28)"/><path class="cls-10" d="M224.72,40.25C219,42.2,216,51.5,216,51.5h0a18.51,18.51,0,0,1,.44-9.36c3.44-8.77,16.5-10.09,22.69-12.66s14.1-7.71,18.74-8.56,15.29,2.76,15.29,2.76l0.08,0.24c-0.87.31-1.74,0.65-2.63,1s-1.8.78-2.67,1.19l-0.22-.44c-8.09-2.38-18.21,1.87-22.41,5.14S230.48,38.31,224.72,40.25Z" transform="translate(-214.06 -19.28)"/><path class="cls-11" d="M273.19,23.92C299.65,14.46,318,29.57,318,29.57c-32.27-14.13-71.08,14.66-71.08,14.66a51,51,0,0,1,21-18.12c0.87-.41,1.75-0.8,2.67-1.19S272.33,24.23,273.19,23.92Z" transform="translate(-214.06 -19.28)"/><path class="cls-11" d="M375.3,154c11.2,12.23,26.85,24.25,47.85,30.17,56.72,16,101.57,18,133,24.78a65.7,65.7,0,0,1,10.93,3.43c-11-3.77-55.82-1.71-94.33-9.28C387,186.28,375.47,154.53,375.3,154Z" transform="translate(-214.06 -19.28)"/><path class="cls-1" d="M745.92,513.18c-3.27,5.48-7.05,13.73-13.92,15.47s-26.82-1.78-27.33-6.58c-0.3-2.88.31-5.07,2.53-8.07h0s11.37,8.07,24,2c8.68-4.2-22.2-69.17-21.9-100.94C709.31,415,731.31,488.41,745.92,513.18Z" transform="translate(-214.06 -19.28)"/><path class="cls-3" d="M709.31,414.7C709,446.47,739.9,511.77,731.22,516c-12.63,6.1-24-2-24-2h0c1.47-5,3.66-4.28,6.75-5.85,2.24-9.44-7.05-36.26-24.75-60.65s-51.39-35.58-69.61-51.2c-11.12-9.54-28-33.35-40.7-51.16l0.47-.37S632,402.32,684,401.8C691.85,408.79,700.58,413.63,709.31,414.7Z" transform="translate(-214.06 -19.28)"/><path class="cls-2" d="M562.38,323.45c-5.32-3.41-23.56-14.47-54.14-5.67s-71.51,40.36-102.09,44.33c-0.58-.16-3.18-15.34,11.33-24.25C444.54,321.26,531.36,301,562.38,323.45Z" transform="translate(-214.06 -19.28)"/><path class="cls-1" d="M426.26,473.48c-0.84,8.44-5.34,33.15-1.57,55.49-1.69,5.35-8.59,12.72-12.35,14.12s-22.21,2.37-27.17-5.52a11,11,0,0,1,1.3-6.32s22.09,6.18,27.07.58,6-52.35,6-52.35L413,424.1a4,4,0,0,0,.56-0.62C416.83,443.61,421.1,462.57,426.26,473.48Z" transform="translate(-214.06 -19.28)"/><path class="cls-3" d="M413,424.1l6.57,55.38s-1,46.75-6,52.35-27.07-.58-27.07-0.58c3.65-6.84,13.5-9.82,13.5-9.82s5.71-37.13-13.5-98C386.47,423.47,407.07,429.75,413,424.1Z" transform="translate(-214.06 -19.28)"/><path class="cls-3" d="M298.07,321.28c0.7,0.71,23.22,23.68,27.09,37.21a45,45,0,0,1,1.06,8.47c-11.62,11.49-28.17,16.77-28.17,16.77l-0.29,0c-0.45-6.62-.95-12-1.42-15.41-3.07-22.11-27.87-59.35-28.87-83.49s4.68-84.6,3.6-97.39a72.73,72.73,0,0,0-1.89-11.31L270,176s1.56-5.85,6-4.47c3.54,1.1,17.88,1.1,26.67-5.18,15.19,9.68,64.76,23.18,41.15,83.37-22.17,56.54-17,85.31-7.22,100Z" transform="translate(-214.06 -19.28)"/><path class="cls-1" d="M336.53,349.74a0.29,0.29,0,0,1,0,.06c-1.66,6.79-5.57,12.48-10.29,17.15a45,45,0,0,0-1.06-8.47C321.3,345,298.77,322,298.07,321.28Z" transform="translate(-214.06 -19.28)"/><path class="cls-1" d="M336.52,349.8c-0.27,2.7-10.2,100.23-7.69,115.17a195.28,195.28,0,0,0-16.18,49.91c-3.78,3.77-9.05,11.32-11.69,12s-22.34,1-24.4-4.81c-0.69-1.95-.19-5.47,1.92-8.86l0,0s14.29,6.92,21.8,0,20.23-42.69,21.61-47.51c1.2-4.21,5.79-72.45,4.3-98.78C330.95,362.28,334.86,356.58,336.52,349.8Z" transform="translate(-214.06 -19.28)"/><path class="cls-3" d="M326.23,366.95c1.48,26.33-3.1,94.57-4.3,98.78-1.38,4.82-14.1,40.56-21.61,47.51s-21.8,0-21.8,0l0,0c2.71-4.38,8.12-8.55,17.08-8.82,6.3-11.2,4.71-84.76,2.22-120.69l0.29,0S314.6,378.43,326.23,366.95Z" transform="translate(-214.06 -19.28)"/><path class="cls-12" d="M307.68,160.75a23.5,23.5,0,0,1-7.37,3.92,26.34,26.34,0,0,1-15.9,0c-4.95-1.51-8.17-6.8-11.51-12.39a76.93,76.93,0,0,0-5.41-8.25s38.1,30.64,44.64-15.56c2.9,10.82,3.43,21.9.36,26.9A20.31,20.31,0,0,1,307.68,160.75Z" transform="translate(-214.06 -19.28)"/><path class="cls-4" d="M307.68,160.75a16.69,16.69,0,0,1-5.09,5.57,18.42,18.42,0,0,1-2.28-1.65A23.5,23.5,0,0,0,307.68,160.75Z" transform="translate(-214.06 -19.28)"/><path class="cls-1" d="M300.31,164.67a18.42,18.42,0,0,0,2.28,1.65c-8.79,6.28-23.13,6.28-26.67,5.18-4.41-1.38-6,4.47-6,4.47l-0.77.19a88.71,88.71,0,0,0-7-19.13,40.19,40.19,0,0,1-6.18.44,31.53,31.53,0,0,0,14-3.55c0.87-.42,1.74-0.89,2.64-1.41l0.31-.19c3.34,5.6,6.56,10.89,11.51,12.39A26.34,26.34,0,0,0,300.31,164.67Z" transform="translate(-214.06 -19.28)"/><path class="cls-7" d="M295.8,66.91c2.11,7.64-1.74,12.13-2.9,16.93-1.9,7.87,2.5,14.85,4.36,17.37a52,52,0,0,0-13.2-9.71c-4.48-2.41-18.43-4.13-26-2.93-5.77.91-10.54,1.69-15.92,6.1l0.56-.52c3.3-10-5.33-24.26,2.71-31.48s16.68,2.13,16.68,2.13a58.09,58.09,0,0,1,15.28-8.56C282.9,54.28,292.7,55.71,295.8,66.91Z" transform="translate(-214.06 -19.28)"/><path class="cls-1" d="M272.9,152.31l-0.31.19c-0.9.53-1.77,1-2.64,1.41l0-.06c-13.51-19.53-32.5-3.81-32.5-3.81l-0.27.33c-1.18-.95-2.17-1.86-3-2.64L234,147.6c3-5.28,9.06-10.4,18.93-11,6.63-.39,11,2.93,14.6,7.43A76.93,76.93,0,0,1,272.9,152.31Z" transform="translate(-214.06 -19.28)"/><path class="cls-3" d="M269.92,153.85l0,0.06a31.53,31.53,0,0,1-14,3.55c-0.41,0-.81,0-1.21,0a30.09,30.09,0,0,1-17.62-7.05l0.27-.33S256.41,134.32,269.92,153.85Z" transform="translate(-214.06 -19.28)"/><path class="cls-7" d="M254.77,157.43a25.19,25.19,0,0,1-8.48-1.58c-5.76,4.53-11.3,3.25-14.51.91-0.41-2.36.25-5.78,2.17-9.16l0.23,0.13c0.8,0.78,1.79,1.69,3,2.64A30.09,30.09,0,0,0,254.77,157.43Z" transform="translate(-214.06 -19.28)"/><path class="cls-13" d="M246.91,44.25a57.39,57.39,0,0,0-9.34,26.57c-3.75,4.17-2.61,23.34-4,24.37s-6,.52-7.22-2.41-1.72-12.71-3.43-18.9c-0.59-2.11-1.94-5.45-3.32-9.29,0.51,0.81,9.54,15.2,12.06,11.61S236.52,51,246.91,44.25Z" transform="translate(-214.06 -19.28)"/><path class="cls-14" d="M234,147.6c-1.92,3.37-2.58,6.8-2.17,9.16a9.1,9.1,0,0,1-2-1.91c-2.37-3.23-3.81-14.81-3.09-21.64C226.74,133.21,227.62,143.81,234,147.6Z" transform="translate(-214.06 -19.28)"/><path class="cls-5" d="M236.53,100.77a22.74,22.74,0,0,0-2.06,3.05c-2.78,5.08-3.58,13.18-3.61,15.47s-3.57,8.65-4.12,13.92c-0.71,6.84.72,18.42,3.09,21.64a9.1,9.1,0,0,0,2,1.91c3.21,2.34,8.74,3.62,14.51-.91a25.19,25.19,0,0,0,8.48,1.58" transform="translate(-214.06 -19.28)"/><path class="cls-5" d="M242.08,94.71a57.71,57.71,0,0,0-5.53,6" transform="translate(-214.06 -19.28)"/><path class="cls-5" d="M246.91,44.25a57.39,57.39,0,0,0-9.34,26.57c-0.37,6.84,5.13,17.83,5.13,23.34l-0.56.52" transform="translate(-214.06 -19.28)"/><path class="cls-5" d="M375.29,154A124.25,124.25,0,0,1,352,117.74l-4.64-74.25L318,29.57s-18.35-15.11-44.81-5.65c-0.87.31-1.74,0.65-2.63,1s-1.8.77-2.67,1.19a51,51,0,0,0-21,18.12" transform="translate(-214.06 -19.28)"/><path class="cls-5" d="M567.12,212.42A65.7,65.7,0,0,0,556.19,209c-31.47-6.73-76.33-8.8-133-24.78-21-5.92-36.65-17.94-47.85-30.17" transform="translate(-214.06 -19.28)"/><path class="cls-5" d="M568.13,212.84l-0.71-.3" transform="translate(-214.06 -19.28)"/><path class="cls-5" d="M336.53,349.74s9.8,7.37,27.85,18.56a411.93,411.93,0,0,1,22.09,55.17c19.21,60.83,13.5,98,13.5,98s-9.85,3-13.5,9.82a11,11,0,0,0-1.3,6.32c5,7.89,23.41,6.9,27.17,5.52S423,534.32,424.69,529c-3.77-22.34.73-47.05,1.57-55.49-5.17-10.91-9.44-29.87-12.74-50-3.62-22.11-6.09-45.61-7.37-61.37,30.57-4,71.51-35.55,102.09-44.33s48.82,2.26,54.14,5.67c2.06,1.32,8.43,10.26,16.52,21.61,12.68,17.81,29.59,41.54,40.7,51.07,18.21,15.62,51.91,26.66,69.61,51s27,50.89,24.75,60.32a19.83,19.83,0,0,0-6.75,5.21,11.69,11.69,0,0,0-2.53,8.71c0.51,4.79,20.46,9,27.33,7.22s10.65-10,13.92-15.47c-14.61-24.77-36.61-98.48-36.61-98.48-8.73-1.07-17.47-5.93-25.27-12.92a90,90,0,0,1-16-19.24c-14.32-22.92-22.35-82-35.74-111-7.63-16.54-36.09-46.85-64.17-58.69" transform="translate(-214.06 -19.28)"/><path class="cls-5" d="M256,157.46a40.19,40.19,0,0,0,6.18-.44,88.71,88.71,0,0,1,7,19.13,72.73,72.73,0,0,1,1.89,11.31c1.08,12.79-4.61,73.25-3.6,97.39s25.8,61.38,28.87,83.49c0.47,3.44,1,8.79,1.42,15.41,2.5,35.93,4.08,109.49-2.22,120.69-9,.27-14.36,4.43-17.08,8.82-2.1,3.39-2.61,6.91-1.92,8.86,2.06,5.84,21.77,5.52,24.4,4.81s7.91-8.25,11.69-12A195.28,195.28,0,0,1,328.82,465c-2.51-14.94,7.42-112.47,7.69-115.17" transform="translate(-214.06 -19.28)"/><path class="cls-5" d="M219.61,64.58c1.38,3.84,2.73,7.18,3.32,9.29,1.71,6.19,2.23,16,3.43,18.9s5.85,3.44,7.22,2.41,0.23-20.2,4-24.37" transform="translate(-214.06 -19.28)"/><path class="cls-5" d="M273.11,23.68s-10.65-3.61-15.29-2.74-12.55,6-18.74,8.59-19.24,3.95-22.69,12.71c-1,2.61-1,5.93-.44,9.46a75.09,75.09,0,0,0,3.64,12.85" transform="translate(-214.06 -19.28)"/><path class="cls-5" d="M312.13,128.5c2.9,10.82,3.43,21.9.36,26.9a20.31,20.31,0,0,1-4.81,5.34,23.5,23.5,0,0,1-7.37,3.92,26.34,26.34,0,0,1-15.9,0c-4.95-1.51-8.17-6.8-11.51-12.39a76.93,76.93,0,0,0-5.41-8.25c-3.56-4.51-8-7.83-14.6-7.43-9.87.57-15.94,5.69-18.93,11-1.92,3.37-2.58,6.8-2.17,9.16,0,0.12,0,.25.07,0.37" transform="translate(-214.06 -19.28)"/><path class="cls-5" d="M241.81,94.94l0.27-.23,0.05,0c5.38-4.41,10.15-5.2,15.92-6.1,7.58-1.21,21.53.52,26,2.93A51.57,51.57,0,0,1,302,106.75a57.36,57.36,0,0,1,4,6.1,68.85,68.85,0,0,1,6.19,15.64" transform="translate(-214.06 -19.28)"/><path class="cls-5" d="M234.18,147.74c0.8,0.78,1.79,1.69,3,2.64a30.09,30.09,0,0,0,17.62,7.05c0.39,0,.79,0,1.21,0a31.53,31.53,0,0,0,14-3.55c0.87-.42,1.74-0.89,2.64-1.41" transform="translate(-214.06 -19.28)"/><path class="cls-5" d="M567.12,212.42l0.3,0.11" transform="translate(-214.06 -19.28)"/><path d="M258,89.68a1,1,0,0,1-.37-2c7.22-2.8,5.34-12.07,4.21-17.61-0.17-.84-0.33-1.6-0.43-2.23a46.63,46.63,0,0,1,.66-16.39,1,1,0,0,1,2,.48,45.4,45.4,0,0,0-.63,15.58c0.1,0.61.25,1.34,0.41,2.15,1.18,5.77,3.36,16.51-5.48,19.94A1,1,0,0,1,258,89.68Z" transform="translate(-214.06 -19.28)"/><path d="M242.32,63.7h-0.1a1,1,0,0,1-.93-1.12c0-.07.72-6.93,9-6.93a1,1,0,0,1,0,2.06c-6.34,0-6.91,4.85-6.93,5.06A1,1,0,0,1,242.32,63.7Z" transform="translate(-214.06 -19.28)"/><path d="M296.25,62a1,1,0,0,1-1-1c-0.14-5.14-5.36-5.35-5.59-5.36-0.57,0-1,.23-1-0.34s0.47-.29,1-0.29h0c2.56,0,7.44,1,7.6,6.65,0,0.57-.43.35-1,0.35h0Z" transform="translate(-214.06 -19.28)"/><circle cx="233.1" cy="135.02" r="1.03" transform="translate(-220.24 -8.01) rotate(-2.73)"/><path d="M233.1,136.57a1.55,1.55,0,0,1-1.55-1.48,1.8,1.8,0,0,1,3.57-.15h0a1.79,1.79,0,0,1-1.71,1.62H233.1Zm0-2.07h0a0.52,0.52,0,0,0-.32.9,0.48,0.48,0,0,0,.37.13A0.52,0.52,0,0,0,233.1,134.51Z" transform="translate(-214.06 -19.28)"/><circle cx="236.69" cy="123.47" r="1.03" transform="translate(-219.68 -7.85) rotate(-2.73)"/><path d="M236.69,125a1.55,1.55,0,0,1-1.54-1.48,1.55,1.55,0,0,1,1.47-1.62,1.58,1.58,0,0,1,1.62,1.47,1.55,1.55,0,0,1-1.47,1.62h-0.08Zm0-2.07h0a0.52,0.52,0,0,0-.32.9,0.47,0.47,0,0,0,.37.13A0.52,0.52,0,0,0,236.69,123Z" transform="translate(-214.06 -19.28)"/><circle cx="281.26" cy="135.83" r="1.03" transform="translate(-220.22 -5.71) rotate(-2.73)"/><path d="M281.26,137.38a1.55,1.55,0,1,1,1.55-1.62h0a1.55,1.55,0,0,1-1.47,1.62h-0.08Zm0-2.07h0a0.52,0.52,0,0,0-.32.9,0.51,0.51,0,0,0,.37.13,0.52,0.52,0,0,0,.49-0.54h0A0.52,0.52,0,0,0,281.26,135.31Z" transform="translate(-214.06 -19.28)"/><circle cx="296" cy="113.91" r="1.03" transform="translate(-219.15 -5.08) rotate(-2.73)"/><path d="M296,115.46a1.55,1.55,0,0,1-.07-3.1,1.55,1.55,0,0,1,1.62,1.47h0a1.55,1.55,0,0,1-1.47,1.62H296Zm0-2.07h0a0.52,0.52,0,1,0,.37.13,0.51,0.51,0,0,0-.37-0.13Z" transform="translate(-214.06 -19.28)"/><circle cx="283.24" cy="123.06" r="1.03" transform="translate(-219.61 -5.63) rotate(-2.73)"/><path d="M283.23,124.61a1.55,1.55,0,0,1-1.54-1.48A1.66,1.66,0,0,1,285,123h0a1.67,1.67,0,0,1-1.58,1.62h-0.18Zm0-2.07h0a0.52,0.52,0,0,0-.32.9,0.47,0.47,0,0,0,.37.13A0.52,0.52,0,0,0,283.24,122.54Z" transform="translate(-214.06 -19.28)"/><circle cx="299.56" cy="129.01" r="1.03" transform="translate(-219.88 -4.85) rotate(-2.73)"/><path d="M299.56,130.56a1.55,1.55,0,1,1,.07,0h-0.07Zm0-2.07h0a0.52,0.52,0,1,0,.54.49h0a0.51,0.51,0,0,0-.17-0.36A0.52,0.52,0,0,0,299.56,128.49Z" transform="translate(-214.06 -19.28)"/><circle cx="296.1" cy="143.14" r="1.03" transform="translate(-220.56 -4.98) rotate(-2.74)"/><path d="M296.1,144.69a1.55,1.55,0,1,1,1.55-1.62h0a1.55,1.55,0,0,1-1.47,1.62H296.1Zm0-2.07h0a0.52,0.52,0,1,0,.54.49h0A0.52,0.52,0,0,0,296.1,142.62Z" transform="translate(-214.06 -19.28)"/><ellipse class="cls-3" cx="281.62" cy="74.26" rx="11.73" ry="8.25" transform="translate(-67.99 312.76) rotate(-77.04)"/><path d="M280.29,86.87a6.84,6.84,0,0,1-1.54-.17,8.22,8.22,0,0,1-5.64-5.27,15.54,15.54,0,0,1-.54-9.25c1.58-6.86,6.93-11.5,11.91-10.35a8.22,8.22,0,0,1,5.64,5.27,15.54,15.54,0,0,1,.54,9.25C289.25,82.5,284.8,86.87,280.29,86.87Zm2.61-23.16c-3.54,0-7.12,3.73-8.32,8.93a13.47,13.47,0,0,0,.44,8,6.23,6.23,0,0,0,4.19,4c3.88,0.89,8.11-3.06,9.43-8.81a13.47,13.47,0,0,0-.44-8,6.23,6.23,0,0,0-4.19-4A5,5,0,0,0,282.91,63.71Z" transform="translate(-214.06 -19.28)"/><circle cx="67.3" cy="58.46" r="1.55"/><path d="M281.36,80.32a2.58,2.58,0,1,1,2.58-2.58A2.58,2.58,0,0,1,281.36,80.32Zm0-3.09a0.52,0.52,0,1,0,.52.52A0.52,0.52,0,0,0,281.36,77.22Z" transform="translate(-214.06 -19.28)"/><ellipse class="cls-3" cx="252.98" cy="74.91" rx="7.4" ry="10.52" transform="translate(-223.97 33.29) rotate(-11.64)"/><path d="M254,86.36A7.89,7.89,0,0,1,248.65,84a14,14,0,0,1-3.93-7.39c-1.28-6.24,1.37-12.08,5.93-13S260,67,261.24,73.21h0c1.28,6.24-1.38,12.08-5.93,13A6.44,6.44,0,0,1,254,86.36Zm-2.08-20.83a4.32,4.32,0,0,0-.88.09c-3.44.71-5.38,5.46-4.32,10.58a12,12,0,0,0,3.32,6.31,5.48,5.48,0,0,0,4.83,1.7c3.44-.71,5.38-5.45,4.32-10.58h0C258.25,68.93,255.1,65.52,251.94,65.52Z" transform="translate(-214.06 -19.28)"/><circle cx="253.96" cy="78.56" r="1.55" transform="translate(-223.72 93.59) rotate(-24.6)"/><path d="M254,81.14a2.58,2.58,0,0,1-2.35-1.5,2.58,2.58,0,0,1,1.27-3.42A2.58,2.58,0,1,1,254,81.14ZM254,78a0.52,0.52,0,1,0,.47.3A0.51,0.51,0,0,0,254,78Z" transform="translate(-214.06 -19.28)"/><path class="cls-3" d="M269.78,122.56c-6.64,5.59-8.3,10.8-7.31,15.45,0,0-5.86-4.46-16.64-1.16a21.33,21.33,0,0,0-4-15.07A17.67,17.67,0,0,1,239,107.31c2.38-9.22,10-14,19.72-13.55,7.72,0.36,12.41,3.07,15.09,7.7A16.79,16.79,0,0,1,269.78,122.56Z" transform="translate(-214.06 -19.28)"/><path class="cls-15" d="M244,115.21c-1.46-.27-3.31-6.17-1.88-9.72a8.73,8.73,0,0,1,1-1.76,0,0,0,0,1,0,0,33.8,33.8,0,0,1,28.53,3c1.11,3.21-1.65,10.25-5.54,10.62-2.47.23-3.69-.59-4.25,0.51a11,11,0,0,0-.4-2.93c-0.64-3.86,1.42-4.94,1.21-5.94-0.28-2.22-3.26-.93-2.89,1.35,0.26,1.54,1.15,2.7,1.68,4.59,0,0.08,0,.17,0,0.26l0.36,2.67a2.47,2.47,0,0,0-.19.54c-0.43,1.87-5.22,4.09-7.57,4.44s-7.73-4.27-7.73-4.27a3.33,3.33,0,0,0,0-1.12l0.23-2.32c0.51-2.45,1.7-4.07,1.8-5.79,0.13-2.31-3-3.32-3-1.08-0.1,1,1.58,2.62,1.23,6.73v0.13a10.48,10.48,0,0,0-.24,2.23A2.61,2.61,0,0,0,244,115.21Z" transform="translate(-214.06 -19.28)"/><path d="M248.42,109.36c-0.1,1.71-1.3,3.33-1.8,5.79V115c0.35-4.11-1.33-5.7-1.23-6.73C245.45,106,248.56,107,248.42,109.36Z" transform="translate(-214.06 -19.28)"/><path class="cls-16" d="M256.26,98.12c9.24,0.37,14.26,5.42,15.36,8.63a33.8,33.8,0,0,0-28.53-3C244.91,101.13,248.91,97.83,256.26,98.12Z" transform="translate(-214.06 -19.28)"/><path d="M262.64,109c0.22,1-1.85,2.08-1.21,5.94-0.53-1.89-1.42-3.05-1.68-4.59C259.38,108.08,262.36,106.79,262.64,109Z" transform="translate(-214.06 -19.28)"/><path class="cls-7" d="M261.84,117.87l-0.36-2.67c0-.09,0-0.18,0-0.26A11,11,0,0,1,261.84,117.87Z" transform="translate(-214.06 -19.28)"/><path class="cls-7" d="M246.43,115.14l-0.32,2.32s-0.11-.05-0.11-0.07v0A10,10,0,0,1,246.43,115.14Z" transform="translate(-214.06 -19.28)"/><path class="cls-7" d="M246.39,117.46v-0.07S246.39,117.44,246.39,117.46Z" transform="translate(-214.06 -19.28)"/><path class="cls-5" d="M243.09,103.71c1.82-2.59,5.82-5.89,13.17-5.6,9.24,0.37,14.26,5.42,15.36,8.63S270,117,266.09,117.37c-2.47.23-3.69-.59-4.25,0.51a2.47,2.47,0,0,0-.19.54c-0.43,1.87-5.22,4.09-7.57,4.44s-7.73-4.27-7.73-4.27a3.33,3.33,0,0,0,0-1.12" transform="translate(-214.06 -19.28)"/><path class="cls-5" d="M246.38,117.37a2.61,2.61,0,0,0-2.4-2.16c-1.46-.27-3.31-6.17-1.88-9.72a8.73,8.73,0,0,1,1-1.76" transform="translate(-214.06 -19.28)"/><path class="cls-5" d="M261.44,114.94c0,0.08,0,.17,0,0.26" transform="translate(-214.06 -19.28)"/><path class="cls-5" d="M261.44,114.94c-0.53-1.89-1.42-3.05-1.68-4.59-0.37-2.28,2.61-3.57,2.89-1.35C262.86,110,260.8,111.09,261.44,114.94Z" transform="translate(-214.06 -19.28)"/><path class="cls-5" d="M261.84,117.87a11,11,0,0,0-.4-2.93" transform="translate(-214.06 -19.28)"/><line class="cls-17" x1="48.04" y1="98.91" x2="48.04" y2="98.91"/><path class="cls-6" d="M246.5,115v2.37a10.65,10.65,0,0,1,.18-2.23c0.51-2.45,1.67-4.07,1.77-5.79,0.13-2.31-3-3.32-3-1.08-0.1,1,1.63,1.33,1.28,5.45" transform="translate(-214.06 -19.28)"/><path class="cls-18" d="M241.58,112.3s16.51,7.08,30.27-1.81" transform="translate(-214.06 -19.28)"/><path class="cls-9" d="M333,29.84c10.73,4.12,33,7.36,41,6.33,0.74,0.25,2.91.52,2.91,0.8h0c19,21.71-5,51.5-17.25,54.76s-17.63-15.55-17.63-15.55a84.71,84.71,0,0,0-.78-19.51c-2.06-11-7-15.81-11.43-18.21-5.17-2.78-15.16,0-15.16,0S323.58,26.21,333,29.84Z" transform="translate(-214.06 -19.28)"/><path class="cls-19" d="M333,29.84c-9.47-3.63-18.33,8.63-18.33,8.63s-4-3.78-2.06-5.85,8.76-9.62,16.84-10,16.5,5.67,24.75,8.6c4.33,1.54,12,2.5,19.15,4.92C365.38,37.2,343.78,34,333,29.84Z" transform="translate(-214.06 -19.28)"/><path class="cls-20" d="M389,47.75c5.33,12.71-1.21,27.49-10,41.93s-24.58,34.2-34.21,27.84c-6.88-4.54-3.89-23.63-2.92-41.33,0,0,5.72,18.82,17.93,15.55S396,58.69,377,37h0C381,39.16,386.74,42.41,389,47.75Z" transform="translate(-214.06 -19.28)"/><path class="cls-5" d="M314.71,38.47s-4-3.78-2.06-5.85,8.76-9.62,16.84-10,16.5,5.67,24.75,8.6c4.33,1.54,12,2.5,19.15,4.92,0.74,0.25,1.47.52,2.21,0.8,5.54,2.19,10.45,5.43,12.67,10.78,5.33,12.71-.86,27.49-9.62,41.93s-24.41,34.2-34,27.84c-6.88-4.54-3.81-23.63-2.84-41.33,0.39-7.06.44-13.91-.61-19.51-2.06-11-6.87-15.81-11.34-18.21C324.66,35.69,314.71,38.47,314.71,38.47Z" transform="translate(-214.06 -19.28)"/><path d="M618.56,494.26a1,1,0,0,1-.7-0.27c-4-3.7-10-2.51-10-2.5a1,1,0,0,1-.42-2c0.28-.06,7.06-1.44,11.87,3A1,1,0,0,1,618.56,494.26Z" transform="translate(-214.06 -19.28)"/><path d="M336.52,350.77a1,1,0,0,1-.57-0.18l-6-4c-19.27-12.9-33.19-22.22-39.55-33.67-6.87-12.36-12.91-39-13.17-40.15a1,1,0,1,1,2-.45c0.06,0.27,6.23,27.5,13,39.6,6.12,11,19.87,20.22,38.89,33l6,4A1,1,0,0,1,336.52,350.77Z" transform="translate(-214.06 -19.28)"/><path d="M406.16,362c-0.53,0-1,.16-1-0.38a85.47,85.47,0,0,1,.67-17.33,0.94,0.94,0,0,1,1.17-.73,1.1,1.1,0,0,1,.87,1.24,81.64,81.64,0,0,0-.66,16.61c0,0.57-.38.57-0.95,0.57h-0.08Z" transform="translate(-214.06 -19.28)"/><path d="M580.41,348.28a1,1,0,0,1-.86-0.46c-10.44-15.78-53.31-74.28-55.76-76.49a1,1,0,0,1,1.12-1.73c2.13,1.28,47.38,63.51,56.36,77.08A1,1,0,0,1,580.41,348.28Z" transform="translate(-214.06 -19.28)"/><path d="M305.08,509.38a1,1,0,0,1-.81-0.4c-1.75-2.25-7-3.31-8.83-3.53a1,1,0,0,1,.24-2c0.31,0,7.58.92,10.22,4.31A1,1,0,0,1,305.08,509.38Z" transform="translate(-214.06 -19.28)"/><path d="M413.7,525.19a3.41,3.41,0,0,1-1-.15c-4.15-2.56-13.67-2.72-13.67-2.72V521h1c-0.57,0-1,.27-1-0.3s0.46-.67,1-0.67c0.41,0,9.62.2,14.28,3.07a1.14,1.14,0,0,1,.34,1.51A1.13,1.13,0,0,1,413.7,525.19Z" transform="translate(-214.06 -19.28)"/><path d="M731.22,509.55a1,1,0,0,1-.51-0.14c-7.09-4.09-16.32-1-16.41-.93a1,1,0,0,1-.68-1.95c0.41-.15,10.2-3.47,18.12,1.1A1,1,0,0,1,731.22,509.55Z" transform="translate(-214.06 -19.28)"/><path d="M285.7,515.33a10.47,10.47,0,0,0-1,1.44,14.25,14.25,0,0,0-1.44,3.45c-0.1.32-.15,0.65-0.22,1s-0.1.64-.15,0.94,0,0.6-.07.88a6.89,6.89,0,0,0,0,.79,9.42,9.42,0,0,0,.07,1.16l0,0.44-2.58,0,0.07-.52a11.54,11.54,0,0,1,.24-1.35,8.59,8.59,0,0,1,.22-0.88c0.1-.31.18-0.64,0.31-1s0.24-.67.4-1,0.3-.67.49-1a15,15,0,0,1,2.31-3.21A10.52,10.52,0,0,1,285.7,515.33Z" transform="translate(-214.06 -19.28)"/><path d="M292.91,517.39a10.45,10.45,0,0,0-1,1.44,14.23,14.23,0,0,0-1.44,3.45c-0.1.32-.15,0.65-0.22,1s-0.1.64-.15,0.94,0,0.6-.07.88a7,7,0,0,0,0,.79,9.41,9.41,0,0,0,.07,1.16l0,0.44-2.58,0,0.07-.52a11.51,11.51,0,0,1,.24-1.35,8.51,8.51,0,0,1,.22-0.88c0.1-.31.18-0.64,0.31-1s0.24-.67.4-1,0.3-.67.49-1a15.06,15.06,0,0,1,2.31-3.21A10.55,10.55,0,0,1,292.91,517.39Z" transform="translate(-214.06 -19.28)"/><path d="M395,531.82a10.4,10.4,0,0,0-1,1.44,14.23,14.23,0,0,0-1.44,3.45c-0.1.32-.15,0.65-0.22,1s-0.1.64-.15,0.94,0,0.6-.07.88a7,7,0,0,0,0,.79,9.48,9.48,0,0,0,.07,1.16l0,0.44-2.58,0,0.07-.52A11.64,11.64,0,0,1,390,540a8.52,8.52,0,0,1,.22-0.88c0.1-.31.18-0.64,0.31-1s0.24-.66.4-1,0.3-.67.48-1A15.08,15.08,0,0,1,393.7,533,10.56,10.56,0,0,1,395,531.82Z" transform="translate(-214.06 -19.28)"/><path d="M402.22,533.89a10.44,10.44,0,0,0-1,1.44,14.23,14.23,0,0,0-1.44,3.45c-0.1.32-.15,0.65-0.22,1s-0.1.64-.15,0.94,0,0.6-.07.88a6.92,6.92,0,0,0,0,.79,9.48,9.48,0,0,0,.07,1.16l0,0.44-2.58,0,0.07-.52a11.61,11.61,0,0,1,.24-1.35,8.63,8.63,0,0,1,.22-0.88c0.1-.31.18-0.64,0.31-1s0.24-.67.4-1,0.3-.67.48-1a15.07,15.07,0,0,1,2.31-3.21A10.55,10.55,0,0,1,402.22,533.89Z" transform="translate(-214.06 -19.28)"/><path d="M602.27,499.86a10.48,10.48,0,0,0-1,1.44,14.22,14.22,0,0,0-1.44,3.45c-0.1.32-.15,0.65-0.22,1s-0.1.64-.15,0.94,0,0.6-.07.88a6.89,6.89,0,0,0,0,.79,9.48,9.48,0,0,0,.07,1.16l0,0.44-2.58,0,0.07-.52a11.66,11.66,0,0,1,.24-1.35,8.53,8.53,0,0,1,.22-0.88c0.1-.31.18-0.64,0.31-1s0.24-.66.4-1,0.3-.67.48-1a15.07,15.07,0,0,1,2.31-3.21A10.58,10.58,0,0,1,602.27,499.86Z" transform="translate(-214.06 -19.28)"/><path d="M609.49,501.92a10.46,10.46,0,0,0-1,1.44,14.24,14.24,0,0,0-1.44,3.45c-0.1.32-.15,0.65-0.22,1s-0.1.64-.15,0.94,0,0.6-.07.88a6.89,6.89,0,0,0,0,.79,9.46,9.46,0,0,0,.07,1.16l0,0.44-2.58,0,0.07-.52a11.6,11.6,0,0,1,.24-1.35,8.56,8.56,0,0,1,.22-0.88c0.1-.31.18-0.64,0.31-1s0.24-.67.4-1,0.3-.67.48-1a15.06,15.06,0,0,1,2.31-3.21A10.54,10.54,0,0,1,609.49,501.92Z" transform="translate(-214.06 -19.28)"/><path d="M714.67,515.33a10.42,10.42,0,0,0-1,1.44,14.25,14.25,0,0,0-1.44,3.45c-0.1.32-.15,0.65-0.22,1s-0.1.64-.15,0.94,0,0.6-.07.88a6.89,6.89,0,0,0,0,.79,9.42,9.42,0,0,0,.07,1.16l0,0.44-2.58,0,0.07-.52a11.59,11.59,0,0,1,.24-1.35,8.56,8.56,0,0,1,.22-0.88c0.1-.31.18-0.64,0.31-1s0.24-.67.4-1,0.3-.67.48-1a15,15,0,0,1,2.31-3.21A10.54,10.54,0,0,1,714.67,515.33Z" transform="translate(-214.06 -19.28)"/><path d="M721.89,517.39a10.49,10.49,0,0,0-1,1.44,14.22,14.22,0,0,0-1.44,3.45c-0.1.32-.15,0.65-0.22,1s-0.1.64-.15,0.94,0,0.6-.07.88a6.89,6.89,0,0,0,0,.79,9.4,9.4,0,0,0,.07,1.16l0,0.44-2.58,0,0.07-.52a11.53,11.53,0,0,1,.24-1.35,8.56,8.56,0,0,1,.22-0.88c0.1-.31.18-0.64,0.31-1s0.24-.67.4-1,0.3-.67.49-1a15.08,15.08,0,0,1,2.31-3.21A10.56,10.56,0,0,1,721.89,517.39Z" transform="translate(-214.06 -19.28)"/></svg>