<svg id="Layer_1" data-name="Layer 1" xmlns="http://www.w3.org/2000/svg" viewBox="0 0 597.59 542.38"><defs><style>.cls-1{fill:#e6d7b8;}.cls-2{fill:#ccbc95;}.cls-3{fill:#0f0d0b;}.cls-4{fill:#78604a;stroke:#78604a;}.cls-4,.cls-7,.cls-8{stroke-miterlimit:10;}.cls-4,.cls-7{stroke-width:0.91px;}.cls-5{fill:#f7e7bf;}.cls-6{fill:#8c7057;}.cls-7{fill:#a38365;stroke:#a38365;}.cls-8{fill:#241f1a;stroke:#241f1a;stroke-width:3px;}.cls-9{fill:#423930;}.cls-10{fill:#231f20;}</style></defs><title>dog4-vector</title><path class="cls-1" d="M357.2,177.07c0,0.74-.71,1.53-1.35,1.16-2.14-1.28-3.11-4.71-5.13-11.71a1.13,1.13,0,0,0-1.85-.49c-4,3.64-7.28,12.85-8.46,18.32a1.12,1.12,0,0,1-.88.86c-6.47,1.36-21.37-9.36-25.17-16.87-1.64-25.06,7.59-59.06,7.92-72.58S319,66.4,313,58.81c-4.59-5.86-12.93-10.76-20.31-11.59a15.71,15.71,0,0,0-6.08.38,39.16,39.16,0,0,0-13.86,7.28s-5.28-11.16-11.88-10.52a22.57,22.57,0,0,0-9.24,3.38,0,0,0,0,0,0,0,16.27,16.27,0,0,0-7.25-7.06C247.39,36.38,255,37,255,37a20.24,20.24,0,0,0-7.26-11.88c19.8-4.29,22.44,9.24,22.44,9.24a41.13,41.13,0,0,0,.66-13.86c6.93,4.29,9.9,13.53,9.9,13.53s2.64-11.88,15.18-20.79c0,8.58,4.62,17.82,4.62,17.82S334.16,22.85,353.3,37a42.3,42.3,0,0,1-7.92,4.62s31.34,24.74,35,65.33c-2.77,24-4.05,46-9.46,55.43-1,1.64-3.72.15-5.57-6.24a1.12,1.12,0,0,0-2-.28C358.75,163.32,356.9,171.29,357.2,177.07Z" transform="translate(-174.06 -11.96)"/><path class="cls-2" d="M380.35,107c1.45,16.3,1.37,36.9.88,56.72-0.7,29.56-2.27,57.39-.88,66.67-8.58-7.59-9.9-18.15-10.56-20.46s-5.94,13.2-4.95,24.74c-4.95,0-8.25-9.24-8.25-9.24S353,238,355.28,250.17c-7.92-4.95-10.56-18.15-10.89-21.12s-3,8.91-2,16.5C327.29,218.31,318,201.63,315,175.63c-0.26-2.35-.49-4.78-0.65-7.28,3.8,7.51,18.7,18.23,25.17,16.87a1.12,1.12,0,0,0,.88-0.86c1.17-5.46,4.47-14.68,8.46-18.32a1.13,1.13,0,0,1,1.85.49c2,7,3,10.43,5.13,11.71,0.63,0.37,1.39-.42,1.35-1.16-0.3-5.78,1.54-13.75,6.1-21.18a1.12,1.12,0,0,1,2,.28c1.85,6.39,4.62,7.88,5.57,6.24C376.3,153,377.58,131,380.35,107Z" transform="translate(-174.06 -11.96)"/><path class="cls-1" d="M296.42,218.19c2.8-23.24,4.68-42,2.77-46.55a8,8,0,0,0-4.92-4.59c7.59,1.44,13.29,9.65,20.75,8.58,3,26,12.27,42.68,27.4,69.92-1-7.59,1.65-19.47,2-16.5s3,16.17,10.89,21.12C353,238,356.6,225.43,356.6,225.43s3.3,9.24,8.25,9.24c-1-11.55,4.29-27.05,4.95-24.74s2,12.87,10.56,20.46c-1.39-9.28.18-37.11,0.88-66.67l1.1,0a30.66,30.66,0,0,0,8.51,5.21l0,0.07s36.34,26.74,89.37,24.1,92.53-6.88,123.92,9l0.53-.75c22.74,16.35,34.62,38.75,41.64,52.13a74.79,74.79,0,0,1,6.52,19.35c-5.86,64.89,68,155.08,61.64,193.87s-49.65,36.09-49.65,36.09l-1,.17c-1-6.18-2.88-13-6.49-18.09,0,5.05-4.39,9.67-4.39,9.67a41.54,41.54,0,0,0-3.3-19.35c1.53,6.81.66,17.16,0.66,17.16s-5.4-.22-8.14-3.09c0.55-7.69-4.17-23.75-5.05-26.39s0.88,13.2.88,13.2l-8.79-2.64c-2.2.45-2.63-24.19-2.63-26.39s-4.38,16.72-4.38,16.72-4.63-3.64-11.34-11.93c-8.95-11.09-21.59-30.49-31.79-60.64-27,34.08-137.81,43.54-137.81,43.54-2.42-15.32-4.86-37.1-6.27-67l-2.64.12c-5.48,65.55,4.82,120.7,0,139s-77,19.86-90.55,11.94a74.62,74.62,0,0,0,13.21-13.86c6.27-8.58,8.46-29.69,8.46-29.69-5.05,5.61-9.67,4.39-9.67,4.39A103.72,103.72,0,0,0,361.28,464l-0.07,0-11.48-2.77s0.75-10.6-.4-14.38a32.67,32.67,0,0,1-3.18,13.79s-9.3-3.8-13.26-6.11c1-8.08-.53-20.83-1.19-22.8,1.32,6.93-.86,20.79-2.84,21.62-2.8,1.16-12.52-5.17-12.52-5.17s4.29-10.56,1.32-29.69c-1.91,4.47-7.55,10.19-7.91,10.54a68.18,68.18,0,0,0-2.65-30.34c-1.57,2.45-5.53,7.52-7.92,10.53-0.38-6.35-1-12.43-1.87-18.45-2.93-21.52-7.94-42.11-10-69.95C285.72,299.27,292.13,253.56,296.42,218.19Z" transform="translate(-174.06 -11.96)"/><path class="cls-3" d="M195.66,189.48v-0.11c-1.74-.55-2.68-4.08-4.22-5.83a15.34,15.34,0,0,0,6.55-1,23.44,23.44,0,0,1-1.74,6.89v0.08Z" transform="translate(-174.06 -11.96)"/><path class="cls-4" d="M210.77,190.12c-4.83,0-9.85-.12-14.53-0.58v-0.08a23.44,23.44,0,0,0,1.74-6.89l0.13-.05s25.17-2.3,56.17-17.46C253.47,165.83,226.79,190.12,210.77,190.12Z" transform="translate(-174.06 -11.96)"/><path class="cls-2" d="M770.33,521.37s-12.93,10.69-20.46,6.93C739.32,523,730.74,491,730.74,491s2.64,28.7,10.56,39.59c-23.43,5.94-72.81,2.19-79.18-2.64a48.22,48.22,0,0,0,2.64-9.24,84.63,84.63,0,0,0-1-15.78l1-.17s43.26,2.69,49.65-36.09-67.5-129-61.64-193.87c3,14.24,4,29.72,9.32,44,7.92,21.12,35.63,71.7,68.63,84.46C736.45,451,770.33,521.37,770.33,521.37Z" transform="translate(-174.06 -11.96)"/><path class="cls-2" d="M663.76,503a84.63,84.63,0,0,1,1,15.78s-39.92,5.61-43.22,2.64-4-14.52-3.63-25.4a45.9,45.9,0,0,0-3.3,21.45s-9.9,4.62-18.49,1.32c0-37.28-6.59-45.86-12.19-59.72,0,0,19.51-1.89,26.87-7.21,6.7,8.29,11.34,11.93,11.34,11.93s4.38-18.91,4.38-16.72,0.42,26.84,2.63,26.39l8.79,2.64s-1.77-15.84-.88-13.2,5.61,18.7,5.05,26.39c2.74,2.86,8.14,3.09,8.14,3.09s0.87-10.35-.66-17.16a41.54,41.54,0,0,1,3.3,19.35s4.39-4.62,4.39-9.67C660.88,490,662.79,496.77,663.76,503Z" transform="translate(-174.06 -11.96)"/><path class="cls-5" d="M604.64,201.34l-0.53.75c-31.4-15.86-70.91-11.63-123.92-9S390.82,169,390.82,169l0-.07c14.83,6.59,41.85,11.32,64.07,12.38,27.71,1.32,81.11-6.47,118.77,4.84A103.69,103.69,0,0,1,604.64,201.34Z" transform="translate(-174.06 -11.96)"/><path class="cls-2" d="M530.48,431.4c0.13,1.65,2.07,24.73,4.76,35.87-6.43,4.95-38.1,5.94-43.38,4.95-4.7-.88-7.84-15.64-8.46-18.85,0.45,2.56,2.15,12.47,1.86,18.19-4.62.33-15.84,0.66-19.8-1s-6.27-17.16-6.27-17.16l-0.38,15.18-10.6-2.64s-3.48-8.59-7-31.24c0,0,110.78-9.46,137.81-43.54,10.2,30.16,22.84,49.56,31.79,60.64-7.36,5.32-26.87,7.21-26.87,7.21-4.3-10.6-9.88-21.41-10.23-22.08l7.92,25.38c-7,3-31.3,7.59-38.93,4C535.27,462.77,530.76,433.23,530.48,431.4Z" transform="translate(-174.06 -11.96)"/><path class="cls-2" d="M475.86,534.57c-1.15,7.59-25.23,10.23-25.23,10.23a40.52,40.52,0,0,1-6.93-12.87,18.05,18.05,0,0,0,1.65,13.86c-3.3,3.63-25.07,4-25.07,4s-4.95-12.21-4.95-24.41c-4.62,12.21,0,25.73,0,25.73s-55.88,9.45-80.5-13.86a7.09,7.09,0,0,0,4.83-6.6c-4.72,1.32-10.77-3.63-10.77-3.63a61.86,61.86,0,0,0,12.85-8.25c13.5,7.92,85.73,6.31,90.55-11.94s-5.48-73.4,0-139l2.64-.12c1.41,29.89,3.85,51.67,6.27,67,3.55,22.65,7,31.24,7,31.24S463.82,519.39,475.86,534.57Z" transform="translate(-174.06 -11.96)"/><path class="cls-2" d="M309.76,429c0.36-.36,6-6.07,7.91-10.54,3,19.14-1.32,29.69-1.32,29.69s9.73,6.33,12.52,5.17c2-.83,4.16-14.69,2.84-21.62,0.66,2,2.18,14.73,1.19,22.8,4,2.31,13.26,6.11,13.26,6.11a32.67,32.67,0,0,0,3.18-13.79c1.15,3.79.4,14.38,0.4,14.38L361.22,464l0.07,0a103.72,103.72,0,0,1-7.55,15.59s4.62,1.21,9.67-4.39c0,0-2.19,21.12-8.46,29.69a74.62,74.62,0,0,1-13.21,13.86A61.86,61.86,0,0,1,328.88,527s6,4.95,10.77,3.63a7.09,7.09,0,0,1-4.83,6.6c-23.32,7-59.06-1.84-73.9-11.08,5.28-2.07,11.84-6.14,16.5-9.14h0c0.73,0,24.57,5.77,35.55,1.88,11.16-4,27.12-20.2,27.12-33.18,0-16.71-39.85-32.74-41.5-45.35,1.07-10.69,1.39-21.74,1.39-31.15v0c0-3,5.94-8.08,7.51-10.53A64.59,64.59,0,0,1,309.76,429Z" transform="translate(-174.06 -11.96)"/><path class="cls-1" d="M283.31,510.84c-0.7.21-11.24,3.52-13.16,1.29,7.92-4.62,14.52-10.89,18.48-21.12,2.68-6.92,7.35-28.59,9.57-50.88,1.65,12.6,41.9,28.44,41.9,45.15,0,13-16,28.82-27.12,32.78-11,3.89-34.83-2.48-35.55-2.68C280.67,513,283,511.11,283.31,510.84Z" transform="translate(-174.06 -11.96)"/><path class="cls-2" d="M299.19,171.65c1.91,4.53,0,23.31-2.77,46.55l-0.2,0C294.9,223.78,284.67,231,284.67,231s5.94-13.2,3.63-22.77c-0.33,7.92-10.89,8.91-10.89,8.91s5.91-27.91,1.35-49.34c5.42-1.27,11.24-2.27,15.45-.79h0.05A8,8,0,0,1,299.19,171.65Z" transform="translate(-174.06 -11.96)"/><path class="cls-6" d="M313,58.81c-4.59-5.86-12.93-10.76-20.31-11.59a15.72,15.72,0,0,0-6.08.38,39.15,39.15,0,0,0-13.86,7.28s-5.28-11.16-11.88-10.52a22.57,22.57,0,0,0-9.24,3.38,0,0,0,0,0,0,0c-0.17,2-2.32,25.75-5.27,34.18-0.9,2.53-4.24,6.57-8.8,11.32l0.08,0.08c-3.22,13.67-16.11,27.49-26.33,36.44-18.3,16.06-23,31.59-23.23,32.23a23.18,23.18,0,0,1,8.13,9.33A21.38,21.38,0,0,1,198,182.58l0.13-.05s25.17-2.3,56.17-17.46h0a20.22,20.22,0,0,0,11.88,5.28c2.69,0.17,7.44-1.28,12.56-2.49,5.42-1.27,11.24-2.27,15.45-.79h0.05c7.59,1.44,13.29,9.65,20.75,8.58-0.26-2.35-.49-4.78-0.65-7.28-1.64-25.06,7.59-59.06,7.92-72.58S319,66.4,313,58.81Z" transform="translate(-174.06 -11.96)"/><path class="cls-7" d="M237.6,93.23l0.08,0.08c-3.22,13.67-16.11,27.49-26.33,36.44-18.3,16.06-23,31.59-23.23,32.23a37.81,37.81,0,0,0-6.39-3.52l-0.5-.24c5.11-10.78,12.74-22.47,19-29.24C207.72,120.84,226.35,104.91,237.6,93.23Z" transform="translate(-174.06 -11.96)"/><path class="cls-8" d="M196.25,171.31A21.39,21.39,0,0,1,198,182.58a15.34,15.34,0,0,1-6.55,1,2.56,2.56,0,0,0-1.79-1,5.85,5.85,0,0,0-2.1.4,43.66,43.66,0,0,1-12-5.07c-0.07-1.68.2-5.36,0.71-5.36h0s8.55-7.07,19.77-.62Z" transform="translate(-174.06 -11.96)"/><path class="cls-9" d="M188.12,162a23.18,23.18,0,0,1,8.13,9.33l-0.18,1.33A17,17,0,0,0,176.3,174h0c0.92-8,2.69-9.76,4.95-14.54l0.5-.39C184.2,160.16,186.31,160.72,188.12,162Z" transform="translate(-174.06 -11.96)"/><path d="M195.67,189.37l0,0.11c-5.31-.55-7.71-1.57-13.71-3.39h0a25.28,25.28,0,0,1,5.61-3.14,22.25,22.25,0,0,0,3.87.61C193,185.29,193.93,188.82,195.67,189.37Z" transform="translate(-174.06 -11.96)"/><path d="M189.65,182.54a2.56,2.56,0,0,1,1.79,1,22.56,22.56,0,0,1-3.89-.61A5.85,5.85,0,0,1,189.65,182.54Z" transform="translate(-174.06 -11.96)"/><path class="cls-3" d="M187.61,182.93a25.28,25.28,0,0,0-5.61,3.14h0c-4-1.9-6.2-4.67-6.35-8.72A37.34,37.34,0,0,0,187.61,182.93Z" transform="translate(-174.06 -11.96)"/><path d="M708.55,535c-21.25,0-42.9-2.65-47.23-5.94a1.32,1.32,0,0,1-.42-1.56,47.41,47.41,0,0,0,2.2-7.17c-11.16,1.53-39.16,5-42.45,2.06-2.81-2.53-3.84-9.82-4.08-17.48a45.31,45.31,0,0,0-.65,12.38,1.32,1.32,0,0,1-.75,1.36c-0.42.2-10.51,4.81-19.52,1.36a1.32,1.32,0,0,1-.85-1.23c0-31.53-4.64-42.11-9.57-53.31-0.83-1.89-1.69-3.85-2.53-5.91-3.82-9.4-8.71-19.1-10.12-21.85l-0.06-.13a1.38,1.38,0,0,1-.16-0.63,1.32,1.32,0,0,1,2.52-.56l0.05,0.1c1.42,2.77,6.35,12.56,10.21,22.06,0.82,2,1.67,4,2.5,5.84,4.77,10.85,9.71,22.07,9.79,53.44,6.35,2,13.38-.3,15.77-1.23a47,47,0,0,1,3.49-21.13,1.32,1.32,0,0,1,2.53.57c-0.4,13.11.8,22.23,3.19,24.38,2.21,1.53,23.18-.3,42.15-3a1.32,1.32,0,0,1,1.48,1.53,50.08,50.08,0,0,1-2.31,8.45c8.33,4,52.11,7.5,75.41,2.35-7.21-11.94-9.63-37.49-9.73-38.62a1.32,1.32,0,0,1,2.59-.46c0.08,0.31,8.54,31.49,18.45,36.44,5.16,2.58,14.24-3.06,18.23-6.13-4-8.56-33.61-72.61-39.17-118.78-32.75-13.25-60.35-62.82-68.64-84.94-3.62-9.65-5.24-19.85-6.81-29.71-0.76-4.8-1.55-9.77-2.56-14.48a73,73,0,0,0-6.4-19c-6.94-13.22-18.55-35.35-41.24-51.67a102.84,102.84,0,0,0-30.56-15c-26-7.81-59.89-6.43-87.12-5.32-12.27.5-22.86,0.93-31.34,0.53-24-1.14-50.55-6.28-64.55-12.49a31.91,31.91,0,0,1-8.89-5.46,1.32,1.32,0,1,1,1.82-1.91,29.4,29.4,0,0,0,8.14,5c13.73,6.1,39.88,11.14,63.6,12.27,8.36,0.4,18.9,0,31.11-.53,27.42-1.12,61.55-2.51,88,5.43a105.47,105.47,0,0,1,31.34,15.37c23.2,16.68,35.45,40,42,52.59a75.5,75.5,0,0,1,6.64,19.69c1,4.77,1.81,9.78,2.58,14.61,1.55,9.73,3.15,19.8,6.68,29.2,8.22,21.92,35.63,71.22,67.87,83.7a1.32,1.32,0,0,1,.84,1.08c5.62,48.91,39.13,119,39.47,119.67a1.32,1.32,0,0,1-.35,1.59c-0.56.46-13.69,11.19-21.89,7.09-6.1-3.05-11.44-14.1-15-23.53,1.62,8.52,4.22,18.52,8.11,23.88a1.32,1.32,0,0,1-.74,2.06C733,534.07,720.86,535,708.55,535ZM575,437h0Z" transform="translate(-174.06 -11.96)"/><path d="M551.52,468.92c-3.89,0-7.24-.42-9.41-1.45-7.69-3.65-12.12-31.18-12.93-36.53a8.84,8.84,0,0,1,0-.94h2.64s0,0.63,0,.56c2.25,14.8,6.78,32,11.45,34.19C550,468,572,464.26,580,461.37l-7.55-24.12a1.28,1.28,0,0,1,.87-1.61,1.33,1.33,0,0,1,1.65.89l7.92,25.39a1.32,1.32,0,0,1-.74,1.61C576.87,465.77,562.18,468.92,551.52,468.92Z" transform="translate(-174.06 -11.96)"/><path d="M498.72,473.85a49.19,49.19,0,0,1-7.09-.34c-5.3-1-8.42-14.24-9.51-19.89l0-.15,0-.2c0-.22-0.06-0.33-0.06-0.33a1.33,1.33,0,0,1,1.13-1.48,1.31,1.31,0,0,1,1.48,1.11l0,0.16,0,0.1,0.06,0.31c1.91,9.85,5,17.34,7.4,17.79,5,0.93,34.3-.05,41.64-4.25-2.7-11.94-4.57-34.93-4.59-35.17a1.32,1.32,0,0,1,2.63-.21c0,0.24,2,24.22,4.73,35.67a1.32,1.32,0,0,1-.48,1.36C530.73,472.41,510.15,473.85,498.72,473.85Z" transform="translate(-174.06 -11.96)"/><path d="M389.36,554.34c-17.93,0-40.88-2.89-54.89-15.65-23.24,6.6-58.76-2.59-74.25-12.23a1.32,1.32,0,0,1,.21-2.35c5.18-2,11.67-6.44,16.2-9.77a1.32,1.32,0,1,1,1.57,2.12,98.06,98.06,0,0,1-14.38,9c16.2,9,49.13,16.93,70.63,10.44a1.32,1.32,0,0,1,1.29.31c21.65,20.49,68.93,15,77.89,13.74-1.08-3.94-3.41-14.88.47-25.12a1.32,1.32,0,0,1,2.55.47c0,10,3.45,20.14,4.53,23.08,8-.18,19.15-1.18,22.48-3a17.3,17.3,0,0,1-1.22-13.19c0.17-.56.68-0.24,1.26-0.24h0c0.59,0,1.1-.3,1.26.26a35.91,35.91,0,0,0,6.24,11.49c8.63-1,21.65-4.3,23.22-8.7-12-15.82-26.84-66.48-27.47-68.65a1.4,1.4,0,0,1,.32-1.33,1.33,1.33,0,0,1,1.27-.39l9,2.23,0.34-13.54a1.32,1.32,0,0,1,1.24-1.29,1.3,1.3,0,0,1,1.39,1.12c1.05,7.1,3.44,15.29,5.47,16.13,3.15,1.31,12.23,1.3,18,1,0-5-1.14-12.51-1.87-16.72a1.32,1.32,0,0,1,2.6-.46c0.82,4.66,2.14,13.25,1.88,18.48a1.32,1.32,0,0,1-1.22,1.25c-0.15,0-15.24,1.06-20.4-1.09-2-.84-3.57-4.1-4.71-7.67l-0.11,4.5a1.32,1.32,0,0,1-1.64,1.25l-8.35-2.08c3.09,10.22,16.38,52.9,26.74,66a1.32,1.32,0,0,1,.27,1c-1.26,8.35-23.83,11.06-26.39,11.34a1.32,1.32,0,0,1-1.16-.47,44,44,0,0,1-5.31-8.47,17,17,0,0,0,2.16,7.91,2.11,2.11,0,0,1-.14,2.06c-3.51,3.86-22.3,4.86-26,4.86h0a1.9,1.9,0,0,1-1.22-1.29,85,85,0,0,1-4.32-16.32,44.89,44.89,0,0,0,1.84,16.36,1.19,1.19,0,0,1-.12,1,1.28,1.28,0,0,1-.91.6A173.23,173.23,0,0,1,389.36,554.34Z" transform="translate(-174.06 -11.96)"/><path d="M277.43,516.72a1.32,1.32,0,0,1-.78-2.38c3.31-2.44,5.56-4.29,5.8-4.48a1.4,1.4,0,0,1,.91-0.35,1.32,1.32,0,0,1,.74,2.41c-0.41.34-2.66,2.18-5.88,4.55A1.31,1.31,0,0,1,277.43,516.72Z" transform="translate(-174.06 -11.96)"/><path d="M273.06,514.21q-2.86,0-3.9-1.21a1.32,1.32,0,0,1,.34-2c8.81-5.14,14.5-11.63,17.91-20.45,2.52-6.49,8.27-27.66,10.55-50.53,1.18-11.76,2-22.1,2-30.74v-0.11c-3-5.71-2-11.72-2.93-18.27-1-7.47-2.8-14.74-4.13-22.44-2.49-14.44-5.33-29.38-6.68-47.59-1.38-18.56,3-55,7-87.09,0.67-5.39,1.26-10.68,1.88-15.75a1.29,1.29,0,0,1,1.44-1.15,1.31,1.31,0,0,1,1.13,1.47c-0.62,5.07-1.28,10.36-2,15.76-4,32-8.51,68.27-7.16,86.57,1.34,18.08,3.9,33,6.38,47.33,1.33,7.72,2.33,15,3.36,22.53A136.94,136.94,0,0,1,300,409.09v0.11c4,8.7.45,19.18-.74,31.08-2.3,23.1-7,44.59-9.52,51.22a40.81,40.81,0,0,1-16.24,20.08,42.93,42.93,0,0,0,9.32-2l0.11,0a1.32,1.32,0,1,1,.78,2.53A39.4,39.4,0,0,1,273.06,514.21Z" transform="translate(-174.06 -11.96)"/><path d="M266.65,171.66l-0.54,0A21.43,21.43,0,0,1,253.39,166a1.32,1.32,0,0,1,1.86-1.87h0a19.05,19.05,0,0,0,11,4.9c1.87,0.13,5.18-.72,8.69-1.6,1.13-.28,2.29-0.58,3.48-0.86,5.45-1.27,11.63-2.36,16.2-.75a1.32,1.32,0,1,1-.87,2.49c-3.92-1.38-9.64-.35-14.72.83-1.17.28-2.32,0.57-3.44,0.85C272,170.87,268.9,171.66,266.65,171.66Z" transform="translate(-174.06 -11.96)"/><path d="M210.77,191.44c-5.94,0-10.6-.19-14.66-0.59l-0.58-.07c-6.16-.64-10.81-1.8-14.23-3.53-4.52-2.28-6.89-5.6-7-9.85a23.64,23.64,0,0,1,.75-6.21,71.09,71.09,0,0,1,5-13.55c5.1-10.77,12.82-22.65,19.2-29.58,3.71-4,10.13-9.94,16.93-16.21,7.26-6.69,14.77-13.62,20.48-19.55,4.9-5.1,7.77-8.75,8.51-10.85,3-8.56,5.17-33.6,5.2-33.85a1.32,1.32,0,1,1,2.63.23c0,0.26-2.24,25.63-5.33,34.5-0.9,2.53-3.79,6.28-9.1,11.8-5.77,6-13.3,12.94-20.59,19.66-6.76,6.23-13.14,12.12-16.78,16.06-6.22,6.75-13.76,18.37-18.75,28.91a68.45,68.45,0,0,0-4.86,13,21.33,21.33,0,0,0-.68,5.5c0.12,3.27,1.95,5.75,5.6,7.6,3.13,1.58,7.49,2.65,13.31,3.26h0.09l0.44,0.05c4,0.4,8.59.58,14.44,0.58,15.51,0,42.36-24.46,42.62-24.71a1.32,1.32,0,1,1,1.8,1.93C254.92,166.28,227.55,191.44,210.77,191.44Z" transform="translate(-174.06 -11.96)"/><path d="M334.82,538.53a1.32,1.32,0,0,1-1.27-1,1.4,1.4,0,0,1,.91-1.71,10.81,10.81,0,0,0,3.62-3.87H338c-4.79,0-9.68-3.88-9.92-4.07a1.25,1.25,0,0,1-.47-1.17,1.29,1.29,0,0,1,.78-1,61,61,0,0,0,12.55-8.05,73.11,73.11,0,0,0,13-13.61c4.47-6.12,6.84-19.21,7.75-25.51-4.4,3.22-8.05,2.32-8.24,2.28a1.32,1.32,0,0,1-.79-2A103.07,103.07,0,0,0,360,463.53a50.25,50.25,0,0,0,2.19-7.42c2.06-10.45,5.67-116.56-.13-150.52a1.32,1.32,0,0,1,2.6-.44c5.83,34.16,2.19,141,.11,151.48a52.91,52.91,0,0,1-2.3,7.82A102.51,102.51,0,0,1,356,478.28c1.56-.27,3.89-1.18,6.41-4a1.32,1.32,0,0,1,2.29,1c-0.09.88-2.3,21.57-8.71,30.34a75.79,75.79,0,0,1-13.45,14.1,69.68,69.68,0,0,1-11.11,7.43c2.13,1.34,5.37,2.84,7.84,2.15a1.32,1.32,0,0,1,1.67,1.32,8.41,8.41,0,0,1-5.79,7.81A1.33,1.33,0,0,1,334.82,538.53Z" transform="translate(-174.06 -11.96)"/><path d="M448.23,467.27a1.32,1.32,0,0,1-1.22-.82c-0.14-.36-3.58-9-7.12-31.53-2.95-18.7-5.06-41.29-6.28-67.13-0.56-11.82-.94-26.72-1.12-40.54,0-.73.57-3.24,1.3-3.24h0c0.72,0,1.31,2.48,1.32,3.21,0.18,13.78.56,27.71,1.12,39.5,1.22,25.74,3.32,48.71,6.25,67.32,3.47,22.17,6.92,31.1,7,31.19a1.46,1.46,0,0,1-.73,1.84A1.61,1.61,0,0,1,448.23,467.27Z" transform="translate(-174.06 -11.96)"/><path d="M664.75,520h-0.07a1.28,1.28,0,0,1-1.25-1.36,84,84,0,0,0-1-15.5A47,47,0,0,0,658,488.51a20.39,20.39,0,0,1-4.14,6.92,1.32,1.32,0,0,1-2.27-1.07,27.25,27.25,0,0,0,.09-3.5c-0.05.91-.1,1.48-0.11,1.57a1.31,1.31,0,0,1-1.37,1.21c-0.24,0-6-.28-9-3.49a1.32,1.32,0,0,1-.36-1c0.23-3.26-.54-8.17-1.55-12.87a1.32,1.32,0,0,1-1.68,1l-8.6-2.58a1.67,1.67,0,0,1-.93-0.38c-1.7-1.39-2.38-11.09-2.65-18.54-0.63,2.58-1.32,5.47-2,8.23a1.32,1.32,0,0,1-2.1.74c-0.19-.15-4.83-3.83-11.55-12.14-8.93-11.06-21.72-30.62-32-61-8.13-24.07-13.45-51.26-15.82-80.83a1.32,1.32,0,1,1,2.63-.21c2.35,29.35,7.63,56.34,15.69,80.2C590.41,420.8,603,440.09,611.82,451a96.46,96.46,0,0,0,9.52,10.32c3.71-15.95,3.88-15.94,5.28-15.77a1.39,1.39,0,0,1,1.21,1.49c0,6.34.64,22.52,1.84,25.18l6.72,2c-1.38-12.6-1.13-12.65.2-12.94a1.43,1.43,0,0,1,1.7,1.17c0.93,2.78,5.44,18.17,5.15,26.28a11.65,11.65,0,0,0,5.57,2.17c0.17-3,.43-10.3-0.72-15.41a1.32,1.32,0,0,1,2.5-.81,44.63,44.63,0,0,1,3.5,15.64,11.45,11.45,0,0,0,1.66-5.45,1.32,1.32,0,0,1,2.4-.76c3.22,4.54,5.48,10.81,6.72,18.65a84.84,84.84,0,0,1,1,16A1.3,1.3,0,0,1,664.75,520Z" transform="translate(-174.06 -11.96)"/><path d="M355.28,251.49a1.32,1.32,0,0,1-.7-0.2c-6.09-3.8-9.1-11.8-10.47-17.05a43.81,43.81,0,0,0-.39,11.14,1.32,1.32,0,0,1-2.46.81l-0.17-.3c-15.22-27.4-24.4-43.95-27.39-70.11-0.29-2.57-.5-5-0.65-7.35-1-16,2.28-35.54,5-51.22,1.52-8.92,2.84-16.62,3-21.48,0.34-13.86-3.43-29-9-36.11-4.51-5.75-12.49-10.31-19.42-11.09a14.35,14.35,0,0,0-5.58.34,38,38,0,0,0-13.34,7,1.32,1.32,0,0,1-2.07-.42c-1.36-2.87-5.94-10.23-10.56-9.77a21.25,21.25,0,0,0-8.63,3.16,1.32,1.32,0,0,1-1.93-.53v0a15.07,15.07,0,0,0-6.64-6.44,1.32,1.32,0,0,1-.5-1.93c2.43-3.52,7.31-4.15,10-4.23a19.28,19.28,0,0,0-6.39-9.49,1.32,1.32,0,0,1,.54-2.33c7.53-1.63,13.59-1,18,1.95a14.39,14.39,0,0,1,4.09,4.07,38.33,38.33,0,0,0-.05-9.16,1.32,1.32,0,0,1,2-1.3c4.59,2.84,7.51,7.63,9.07,10.87a41.39,41.39,0,0,1,14.55-18.08,1.32,1.32,0,0,1,2.08,1.08c0,6.62,2.92,13.78,4,16.29,6-1.31,35.11-6.73,52.83,6.4a1.32,1.32,0,0,1,0,2.13A51.09,51.09,0,0,1,347.79,42c6.48,5.77,30.72,29.52,33.88,64.88h0c1.61,18,1.28,41.1.89,56.87-0.2,8.36-.46,16.46-0.72,24.28-0.62,19.11-1.16,35.62-.18,42.16a1.32,1.32,0,0,1-2.18,1.18c-6.78-6-9.19-13.66-10.27-18.12-1.54,4.47-3.7,13.79-3.05,21.3a1.32,1.32,0,0,1-1.31,1.43c-3.57,0-6.24-3.54-7.83-6.46-0.87,4.55-1.92,12.59-.44,20.4A1.32,1.32,0,0,1,355.28,251.49Zm-11.07-24.22a1.39,1.39,0,0,1,.55.11,1.76,1.76,0,0,1,.94,1.53c0.37,3.34,2.55,12.82,7.78,18.12a63.28,63.28,0,0,1,1.85-22,1.32,1.32,0,0,1,2.51-.08c0.66,1.85,2.91,6.62,5.59,8a60.53,60.53,0,0,1,1.71-15c2.16-9.18,3.7-9.47,4.2-9.56a1.51,1.51,0,0,1,1.73,1.16c0.09,0.31.19,0.77,0.32,1.35,0.7,3.16,2.21,10,7.3,15.9-0.49-8,0-21.93.52-38.88,0.25-7.82.52-15.91,0.72-24.26,0.39-15.71.72-38.66-.88-56.57h0c-3.53-39.52-34.17-64.16-34.47-64.41a1.32,1.32,0,0,1,.33-2.26A38.69,38.69,0,0,0,351,37c-18.66-12.17-49.83-4.73-50.16-4.65a1.32,1.32,0,0,1-1.5-.69,50.59,50.59,0,0,1-4.64-15.85C284.38,24.14,282,34.25,282,34.35a1.32,1.32,0,0,1-2.54.12c0-.08-2.23-6.75-7.05-11.09a42.43,42.43,0,0,1-1,11.33,1.35,1.35,0,0,1-1.31,1,1.32,1.32,0,0,1-1.26-1.07A11.6,11.6,0,0,0,264,28c-3.32-2.16-7.81-2.84-13.38-2a21.33,21.33,0,0,1,5.69,10.88,1.32,1.32,0,0,1-1.42,1.5c-0.06,0-5.39-.42-8.35,2a18.09,18.09,0,0,1,5.64,5.59,23.06,23.06,0,0,1,8.63-2.86c5.94-.58,10.64,6.61,12.43,9.8a41,41,0,0,1,13.07-6.52,16.9,16.9,0,0,1,6.6-.42c7.57,0.85,16.29,5.82,21.2,12.08,5.87,7.5,9.87,23.39,9.52,37.8-0.12,5.05-1.45,12.84-3,21.86-2.65,15.54-6,34.88-4.93,50.6,0.15,2.34.36,4.7,0.64,7.22,2.76,24.21,11,40.15,24.6,64.67,0.2-5.52,1.25-11.71,2.43-12.6A1.41,1.41,0,0,1,344.21,227.27Z" transform="translate(-174.06 -11.96)"/><path d="M284.67,232.36a1.32,1.32,0,0,1-1.2-1.86c0-.1,3.85-8.67,4-16.72-2.65,3.13-7.19,4.45-10,4.71a1.32,1.32,0,0,1-1.41-1.59c0.06-.28,5.8-27.89,1.35-48.8a1.33,1.33,0,0,1,0-.27,0.91,0.91,0,0,0,0,.22l1.27-.36,1.28-.31-1.28.31,1.29-.3a1.9,1.9,0,0,1,0,.25c3.91,18.48.25,41.23-1,47.91,2.75-.63,7.7-2.44,7.91-7.34a1.32,1.32,0,0,1,2.6-.25c1.55,6.43-.37,14.23-2,19.07,3.09-2.66,6.66-6.32,7.33-9.16a1.32,1.32,0,1,1,2.57.6c-1.42,6-11.63,13.33-12.07,13.64A1.32,1.32,0,0,1,284.67,232.36Z" transform="translate(-174.06 -11.96)"/><path d="M198,183.9h-0.14a1.32,1.32,0,0,1-1.17-1.45,19.9,19.9,0,0,0-1.63-10.58,22,22,0,0,0-7.69-8.8,36.63,36.63,0,0,0-6.16-3.4,1.32,1.32,0,1,1,1.06-2.42,39.34,39.34,0,0,1,6.61,3.65,24.62,24.62,0,0,1,8.58,9.86,22.51,22.51,0,0,1,1.85,12A1.32,1.32,0,0,1,198,183.9Z" transform="translate(-174.06 -11.96)"/><path d="M361.22,465.29a1.33,1.33,0,0,1-.31,0l-11.48-2.77a1.32,1.32,0,0,1-1-1.38c0-.68.1-1.66,0.15-2.8a25.34,25.34,0,0,1-1.24,2.91,1.32,1.32,0,0,1-1.67.61c-0.38-.16-9.44-3.86-13.43-6.19a1.32,1.32,0,0,1-.64-1.3c0.17-1.4.26-2.94,0.3-4.54-0.65,2.49-1.5,4.31-2.5,4.73-3.19,1.33-11.34-3.71-13.76-5.28a1.32,1.32,0,0,1-.5-1.6c0-.09,3.54-9.07,1.75-25.13a57.57,57.57,0,0,1-6.18,7.41,1.33,1.33,0,0,1-1.86,0,1.31,1.31,0,0,1-.05-1.84h0c0.09-.09,5.79-5.81,7.65-10.16a1.32,1.32,0,0,1,2.52.32c2.5,16.1,0,26.19-1,29.35,4.48,2.81,9.08,4.83,10.33,4.54,1.37-1.59,3.39-13.65,2.14-20.18a1.32,1.32,0,0,1,2.55-.66c0.68,2,2.15,14.24,1.34,22.5,3.21,1.74,8.78,4.12,11.19,5.13A32,32,0,0,0,348,446.81a1.32,1.32,0,0,1,2.58-.38c1,3.26.68,10.86,0.52,13.74l10.41,2.51A1.32,1.32,0,0,1,361.22,465.29Zm-33-13.11h0Z" transform="translate(-174.06 -11.96)"/><path d="M309.76,430.28l-0.22,0a1.3,1.3,0,0,1-1.08-1.5,66,66,0,0,0-1.84-27.1c-1.94,2.68-4.68,6.16-6.4,8.33-1.14,1.44-1.92,2.41-1.92,2.41a1.32,1.32,0,0,1-2.34-1,109.47,109.47,0,0,0,0-20.57c-0.16-1.63-.37-3.26-0.62-4.84a1.32,1.32,0,1,1,2.61-.42c0.26,1.64.48,3.32,0.64,5a110.89,110.89,0,0,1,.3,16.78c2.31-2.92,5.66-7.25,7.06-9.44a1.32,1.32,0,0,1,2.37.32,69.57,69.57,0,0,1,2.7,30.92A1.34,1.34,0,0,1,309.76,430.28Z" transform="translate(-174.06 -11.96)"/><path d="M583.92,460.34a1.32,1.32,0,0,1-.13-2.63c0.19,0,19.24-1.91,26.22-7a4.36,4.36,0,0,0,.44-0.32,1.32,1.32,0,1,1,1.69,2,6.37,6.37,0,0,1-.65.48c-7.51,5.42-26.64,7.33-27.46,7.41h-0.13Z" transform="translate(-174.06 -11.96)"/><path d="M195.67,190.69a1.33,1.33,0,0,1-.4-0.06c-1.57-.5-2.48-2.21-3.36-3.87a13.3,13.3,0,0,0-1.45-2.35,1.21,1.21,0,0,0-.85-0.56,4.57,4.57,0,0,0-1.61.32,25.16,25.16,0,0,0-5.32,3,1.32,1.32,0,1,1-1.56-2.13,27.36,27.36,0,0,1,6-3.32,7,7,0,0,1,2.59-.47,3.83,3.83,0,0,1,2.73,1.45,15,15,0,0,1,1.8,2.86c0.54,1,1.29,2.42,1.83,2.59A1.32,1.32,0,0,1,195.67,190.69Z" transform="translate(-174.06 -11.96)"/><path d="M277.43,517h0a1.45,1.45,0,0,1-1.32-1.46,1.38,1.38,0,0,1,1.32-1.39A1.43,1.43,0,0,1,277.43,517Z" transform="translate(-174.06 -11.96)"/><path d="M294.27,168.38a1.48,1.48,0,0,1-.35,0A1.32,1.32,0,1,1,294.27,168.38Z" transform="translate(-174.06 -11.96)"/><path d="M254.29,166.38a1.32,1.32,0,0,1-.56-2.51,1.35,1.35,0,0,1,.59-0.14,1.32,1.32,0,0,1,.56,2.51A1.34,1.34,0,0,1,254.29,166.38Z" transform="translate(-174.06 -11.96)"/><path d="M254.32,166.37a1.32,1.32,0,0,1-.63-2.48,114.65,114.65,0,0,1,48.12-11.38,1.32,1.32,0,1,1,0,2.64,111.87,111.87,0,0,0-46.9,11.06A1.31,1.31,0,0,1,254.32,166.37Z" transform="translate(-174.06 -11.96)"/><circle cx="93.45" cy="71.26" r="3.13"/><circle cx="80.25" cy="68.62" r="3.13"/><path d="M243.09,71.34a1.32,1.32,0,0,1-1.12-2,10.86,10.86,0,0,1,11.28-4.55,1.32,1.32,0,0,1-.52,2.59,8.24,8.24,0,0,0-8.52,3.37A1.32,1.32,0,0,1,243.09,71.34Z" transform="translate(-174.06 -11.96)"/><path d="M289.12,80.62a1.32,1.32,0,0,1-1.27-1,8.25,8.25,0,0,0-7.16-5.72,1.32,1.32,0,1,1,.26-2.63A10.86,10.86,0,0,1,290.39,79,1.32,1.32,0,0,1,289.12,80.62Z" transform="translate(-174.06 -11.96)"/><path d="M483.28,454.06a1.32,1.32,0,0,1-1.28-1c-0.11-.47-11.22-47.29-7.29-96.09a1.32,1.32,0,0,1,2.63.21c-3.9,48.37,7.11,94.8,7.23,95.26a1.32,1.32,0,0,1-1,1.59A1.34,1.34,0,0,1,483.28,454.06Z" transform="translate(-174.06 -11.96)"/><path d="M530.46,432.62a1.32,1.32,0,0,1-1.3-1.11c-0.06-.35-5.59-35.39-2-87.07a1.32,1.32,0,0,1,2.63.18c-3.58,51.38,1.91,86.12,2,86.47a1.32,1.32,0,0,1-1.09,1.51Z" transform="translate(-174.06 -11.96)"/><path class="cls-10" d="M717.1,534.57a1.32,1.32,0,0,1-1.25-.9c-0.06-.17-0.15-0.42-0.27-0.75a81,81,0,0,1-5.08-30.06,1.31,1.31,0,0,1,1.35-1.28,1.32,1.32,0,0,1,1.28,1.35A78.35,78.35,0,0,0,718.05,532c0.13,0.36.23,0.63,0.29,0.82A1.32,1.32,0,0,1,717.1,534.57Z" transform="translate(-174.06 -11.96)"/><path d="M295.78,224.66h-0.14a1.32,1.32,0,0,1-1.17-1.45q0.73-6.86,1.39-12.77c2.89-26.06,4.34-39.14-2.2-42.2a1.32,1.32,0,1,1,1.12-2.39c8.26,3.86,6.83,16.71,3.71,44.88q-0.66,5.91-1.39,12.76A1.32,1.32,0,0,1,295.78,224.66Z" transform="translate(-174.06 -11.96)"/><path d="M196.25,190.78a1.32,1.32,0,0,1-1.19-1.88c0-.08,3.55-7.81.51-15.85-2.14-5.65-7-10.16-14.36-13.4a1.32,1.32,0,0,1,1.06-2.42c8.08,3.54,13.39,8.56,15.78,14.92,3.42,9.09-.43,17.51-0.6,17.87A1.32,1.32,0,0,1,196.25,190.78Z" transform="translate(-174.06 -11.96)"/></svg>