<svg id="Layer_1" data-name="Layer 1" xmlns="http://www.w3.org/2000/svg" viewBox="0 0 446.35 511.9"><defs><style>.cls-1,.cls-3{fill:#c9a869;}.cls-2{fill:#ebcb8f;}.cls-3{stroke:#c9a869;}.cls-11,.cls-12,.cls-13,.cls-15,.cls-3{stroke-miterlimit:10;}.cls-12,.cls-15,.cls-3{stroke-width:3px;}.cls-4{fill:#bfaa8a;}.cls-5{fill:#f7ebd4;}.cls-6{fill:#fae3b9;}.cls-7{fill:#ebdcc1;}.cls-8{fill:#d1d3d4;}.cls-9{fill:#fff;}.cls-10,.cls-11,.cls-12,.cls-13{fill:none;stroke:#000;}.cls-10{stroke-linejoin:round;}.cls-10,.cls-11,.cls-13{stroke-width:2.38px;}.cls-13{stroke-linecap:round;}.cls-14{fill:#c49661;}.cls-15,.cls-17{fill:#9c774d;}.cls-15{stroke:#9c774d;}.cls-16{fill:#826340;}</style></defs><title>dog5-vector</title><path class="cls-1" d="M701.51,152.54c-1.54,1.5-4.65,2.73-9.43,3-29.31,1.83-51.15,11.15-77.14,25.17C586.7,196,575.76,215,575.76,215S589.16,155.15,701.51,152.54Z" transform="translate(-257.51 -24.09)"/><path class="cls-1" d="M662.39,456.32s-5.78,16.91-6.19,32.17c-11.45,4.65-26.92,5.68-30.62-2.17-1.7-3.61-.35-7.36,1.63-10.36l0.43,0.27s14.83,7.37,20.19,0,7.74-15.26,6.55-20-19.56-42.13-21.69-64.09a38.92,38.92,0,0,0,6.19,4.8C645.88,429.91,662.39,456.32,662.39,456.32Z" transform="translate(-257.51 -24.09)"/><path class="cls-1" d="M471.81,338.74c-9.53,6-18.74,11.36-26,12.38a108.31,108.31,0,0,1,2.7-16.46s58.14-32.09,91.35-10.15l-0.31.48c-7.8-3.2-18.59-4.8-29.38-4.8C499.93,320.18,485.53,330.1,471.81,338.74Z" transform="translate(-257.51 -24.09)"/><path class="cls-1" d="M543.57,396.91c-5.56,17.63-7.42,75.49-8.66,79.2s-4.34,10.52-8.05,12.38-24.44,2.48-27.22-.93c-2.45-3-1.55-7.43.81-11.63l0.92,0.3s22.87,7.81,26.74,0,7.74-69,7.74-69-18.4-22.51-21.11-35.61-25.37-8.45-34.29,1.13c-7.78-12.23-8.58-30.46-8.65-34,13.72-8.64,28.12-18.56,38.35-18.56,10.79,0,21.58,1.6,29.38,4.8-2.26,3.37-15.77,24.12-15.77,36C523.78,374,531.51,390.72,543.57,396.91Z" transform="translate(-257.51 -24.09)"/><path class="cls-2" d="M535.85,407.25s-3.87,61.16-7.74,69-26.74,0-26.74,0l-0.92-.3c0.32-.56.67-1.13,1-1.68,3.1-4.63,11.77-6.18,14.85-9.28s4-46.41-4.32-60-22.91-18.57-31.56-32.18c8.92-9.58,31.58-14.23,34.29-1.13S535.85,407.25,535.85,407.25Z" transform="translate(-257.51 -24.09)"/><path class="cls-3" d="M489.85,116.38c2.16,11.05-13.15,21.45-28.42,37.34-9.1,9.47-15.69,19.89-22.88,27.52-4.87,5.16-10.49,9-17.66,10.43-17.74,3.5-26.73-11.14-27.14-22.69-0.15-4.32,1.24-13.91,3.18-25.48,0,0,34.94,12.64,56-17.83S426.5,53.13,426.5,53.13h0C448.5,72.8,487.47,104.23,489.85,116.38Z" transform="translate(-257.51 -24.09)"/><path class="cls-1" d="M456.94,523.15c-6.19,10.3-12.38,10.3-21,11.14s-14.45-.83-18.57-5c-1.94-1.94-1.69-5.26-.64-8.67l0.79,0.24s20,6.1,28.25-2.38c0,0-8.25-135-.42-155.51C444.14,409.28,448.64,496.37,456.94,523.15Z" transform="translate(-257.51 -24.09)"/><path class="cls-1" d="M397.68,349.59l5.91,13.28C376.78,368.65,349,352.37,349,352.37h0c-6-5-14.79-15.81-15.38-16.47C334.31,336.54,353.95,355.12,397.68,349.59Z" transform="translate(-257.51 -24.09)"/><path class="cls-4" d="M401.16,54.73l-0.32-.61Q401,54.42,401.16,54.73Z" transform="translate(-257.51 -24.09)"/><path class="cls-2" d="M695.8,145.4c-10.36-1.29-73.43-4.4-144.79,41-40.84-18.56-105.2,4.61-112.63-4.89l-0.32-.29c-4.87,5.16-10.24,9-17.41,10.45-17.74,3.5-26.61-11.13-27-22.68-0.15-4.32,1.3-13.91,3.24-25.47,0,0,34.22,12.64,55.24-17.83S425,53.13,425,53.13h0c-14-9.4-23.08-16.1-25-16.77-2.78-1-6.51-.13-9.07,1-1.73-1.06-3.75-2-5.45-2.89h-0.19c-1-.17-22.81-3.8-38.75-1.6a94.29,94.29,0,0,0-33.14,11.51l-0.05,0a40.19,40.19,0,0,1-7,6.6c-9.68,7-16,9.3-19,14.23-2.11,3.44-2.66,7.43-2.91,11.41-0.4,6.52,0,13-4.31,16.84,10.73-8,35.48-19.7,41.66-26.72h0a23.55,23.55,0,0,1-4.73,3.84s-0.73-8.05-12-9a10.7,10.7,0,0,1,.82-1.76c3.1-5.31,11.08-9.39,16.19-4.63A9.11,9.11,0,0,1,324.25,58a6.46,6.46,0,0,1-.38,6l0.33,0.14c-1.23,16.85-44,29.37-59.46,52,0.38,2.57.75,5.27,0.37,7.25-0.55,2.88-3.2,8.55-4.91,13.88h0s4.69,11.58,18.37,2.51h0c0.6,0.58,20.28,19.65,49,18.5,29.39-1.18,51-30.08,51-30.08l0.15,0q0.11-.38.18-0.75c-4.67,21.94-14.83,34.55-26.29,41.61-5.88,30.8,25.2,81.7,26.74,107.76,1.88,31.81-17.27,52.75-38.37,51.18-25-1.86-50.69-23.94-44.67-57.48,4-22,12.33-59,10.37-94.34-3.31-.58-5.28-1.14-5.28-1.14,4.06,35.29-14,95.81-11.63,115.37,2.48,20.21.82,1.24,12.38,55.68s-1.64,147.28-4.94,151-18.46,7.73-21.36,10.21c0,0,28.24,12.79,34.79.32s10.72-29.38,13.7-36,13.15-97,22.44-108.69c1.33-6.44,2.13-10.41,2.13-10.66h0c-6-5-14.79-15.81-15.38-16.47,0.69,0.66,20.26,19.24,64,13.71l6.07,13.28C428.13,430,423.1,506.64,421,510.77a64.47,64.47,0,0,0-4.35,9.89l0.79,0.24s20,6.1,28.26-2.38c0,0-8.25-135-.42-155.51,0.12-4.36.27-8.34,0.49-11.89a108.3,108.3,0,0,1,2.7-16.46s58.14-32.09,91.35-10.15l-0.31.48c4.72,1.94,8.35,4.47,10.22,7.58,4.94,8.24,3.3,14,9.9,24.75s51.16,34.65,61.88,60.64,11.14,52,11.14,52a28.66,28.66,0,0,0-5.48,6l0.43,0.27s14.83,7.37,20.19,0,7.74-15.26,6.55-20-19.56-42.13-21.69-64.09c-7.19-6.61-15.07-17-18.56-24.91-4.54-10.32,9.48-72.47-38.37-152.5,0,0,13.4-58.71,125.76-62.71h0C704.22,149,702.1,146.19,695.8,145.4Z" transform="translate(-257.51 -24.09)"/><path class="cls-5" d="M379.42,276.88c1.88,31.81-17.27,52.75-38.37,51.18-25-1.86-50.69-23.94-44.67-57.48,4-22,12.33-59,10.37-94.34a82.06,82.06,0,0,0,13.67,1.19c9.61,0,21.51-1.72,32.24-8.31C346.8,199.93,377.89,250.82,379.42,276.88Z" transform="translate(-257.51 -24.09)"/><path class="cls-1" d="M378.79,128.27q0.11-.38.18-0.75c-4.67,21.94-14.83,34.55-26.29,41.61a31,31,0,0,1,2-6.54c3.5-2.48,1.24-8,4.54-10.93S375.54,141.79,378.79,128.27Z" transform="translate(-257.51 -24.09)"/><path class="cls-1" d="M306.34,170.37c-1.89,0-3.87-.94-6.36-4.9l-0.2.06c-1.41-4.79-3.63-7.21-7.43-8.73-10.93-3.7-7.84-9.39-12.79-10.83l-0.11,0v-0.07a20.79,20.79,0,0,1-.85-6.07c0.6,0.58,20.28,19.65,49,18.5,29.39-1.18,51-30.08,51-30.08l0.15,0c-3.25,13.52-16.38,20.55-19.62,23.38s-1,8.46-4.54,10.93c-2.75,1.94-4.34-1-7.84.42s-0.83,5.36-5,6.8-6.4-.82-10.72,0-6.19,5-10.27,5.29h-0.39c-3.82,0-6-4.69-9.46-5C309.37,169.9,307.88,170.42,306.34,170.37Z" transform="translate(-257.51 -24.09)"/><path class="cls-6" d="M335.61,28.27c12.28-3.12,30.18-3.74,49.51,6.19-1-.17-22.74-3.8-38.68-1.6a93.92,93.92,0,0,0-33.1,11.51c3.76-4.36,7-8.91,12.36-12.21a29,29,0,0,1,6.23-2.83C333.1,29,334.33,28.61,335.61,28.27Z" transform="translate(-257.51 -24.09)"/><path class="cls-7" d="M346.8,163c3.5-1.44,5.09,1.52,7.84-.42a31,31,0,0,0-2,6.54c-10.73,6.6-22.63,8.34-32.24,8.31l0-2.33h0.39c4.07-.33,5.93-4.46,10.27-5.29s6.6,1.45,10.72,0S343.28,164.44,346.8,163Z" transform="translate(-257.51 -24.09)"/><path class="cls-1" d="M347,363c-4.91,23.77-16,81.29-15.06,110.61-15.16,19.81-12.28,36.83-13.92,41.77s-10,7.33-18.26,9-22.79-.82-25.68-4.94-1-9.59,1.86-12.07c0,0,28.24,12.79,34.79.32s10.72-29.38,13.7-36S337.71,374.76,347,363Z" transform="translate(-257.51 -24.09)"/><path class="cls-6" d="M335.61,28.27c-1.29.33-2.51,0.69-3.67,1.06a29,29,0,0,0-6.23,2.83c-5.93-1.62-8,3.39-12.4,6.11-6.74,4.17-12.77,4.69-26.6,9.43-14.06,4.81-25.63,15-26.13,15.44,6.6-14.42,34-22.88,42.07-26.38s9.81-8.49,14.85-10.32C324.89,23.78,332.89,26.23,335.61,28.27Z" transform="translate(-257.51 -24.09)"/><path class="cls-8" d="M324.25,58a6.46,6.46,0,0,1-.38,6,13.9,13.9,0,0,1-2,2.79,23.54,23.54,0,0,1-4.73,3.84s-0.73-8.05-12-9a10.7,10.7,0,0,1,.82-1.76l0.13,0.08C309.42,56,319.57,70.59,324.25,58Z" transform="translate(-257.51 -24.09)"/><path class="cls-6" d="M323.87,64l0.33,0.14c-1.23,16.85-44,29.37-59.46,52-0.44-3-.92-5.85-0.25-7.18,1.24-2.48,5.57-6.4,15.68-15.47,10.73-8,35.48-19.7,41.67-26.72h0A13.9,13.9,0,0,0,323.87,64Z" transform="translate(-257.51 -24.09)"/><path class="cls-2" d="M313.32,38.28c4.38-2.72,6.47-7.73,12.4-6.11-5.41,3.3-8.6,7.85-12.36,12.21l0,0a40.1,40.1,0,0,1-7,6.6c-9.68,7-15.95,9.3-19,14.23-2.11,3.44-2.66,7.43-2.91,11.41-13.23,19.88-24.25,6.12-24.25,6.12-1.67-6.72-2.5-13.38.35-19.61h0c0.5-.44,12.08-10.62,26.13-15.44C300.55,43,306.57,42.45,313.32,38.28Z" transform="translate(-257.51 -24.09)"/><path class="cls-9" d="M322.14,55.23A9.1,9.1,0,0,1,324.25,58c-4.68,12.58-14.83-2.06-18.16,1.93L306,59.86C309.05,54.55,317,50.48,322.14,55.23Z" transform="translate(-257.51 -24.09)"/><path class="cls-7" d="M320.46,175.1l0,2.33a82.06,82.06,0,0,1-13.67-1.19c-0.11-2-.25-3.92-0.43-5.87,1.55,0,3-.48,4.67-0.31C314.5,170.41,316.64,175.1,320.46,175.1Z" transform="translate(-257.51 -24.09)"/><path class="cls-1" d="M306.34,170.37c0.18,2,.32,3.91.43,5.87-3.31-.58-5.28-1.14-5.28-1.14-0.14-1.18-.3-2.32-0.49-3.44a41.9,41.9,0,0,0-1.23-6.12l0.2-.06C302.46,169.43,304.44,170.33,306.34,170.37Z" transform="translate(-257.51 -24.09)"/><path class="cls-1" d="M284.48,76.65c-0.41,6.52,0,13-4.31,16.84-10.1,9.08-14.44,13-15.68,15.47,1.52-8.33-2.08-17.33-4.26-26.19C260.23,82.77,271.25,96.53,284.48,76.65Z" transform="translate(-257.51 -24.09)"/><path class="cls-1" d="M279.45,145.89V146c-4.88-1.26-8,9-13.09,9.61s-7.64-5.56-7.64-10.92a25.44,25.44,0,0,1,1.49-7.37h0s4.69,11.58,18.37,2.51h0A20.79,20.79,0,0,0,279.45,145.89Z" transform="translate(-257.51 -24.09)"/><path class="cls-10" d="M471.81,338.74c0.07,3.57.87,21.8,8.65,34,8.66,13.61,23.2,18.57,31.56,32.18s7.42,56.92,4.32,60-11.76,4.65-14.85,9.28c-0.37.55-.71,1.12-1,1.68-2.36,4.19-3.26,8.64-.81,11.63,2.78,3.41,23.51,2.79,27.22.93s6.81-8.66,8.05-12.38,3.1-61.57,8.66-79.2c-12.07-6.19-19.8-22.91-19.8-35.9,0-11.91,13.51-32.66,15.77-36" transform="translate(-257.51 -24.09)"/><path class="cls-11" d="M701.53,152.54c2.69-2.62.57-6.09-5.73-6.87-10.36-1.29-73.43-4.54-144.79,40.84-40.84-18.56-105.2,4.54-112.63-5" transform="translate(-257.51 -24.09)"/><path class="cls-12" d="M347.5,353v-0.63s28.53,16.28,55.34,10.51c24.44,67.14,19.83,143.77,17.77,147.9a66.47,66.47,0,0,0-4.14,9.89c-1,3.41-1.19,6.73.75,8.67,4.12,4.12,10,5.78,18.62,5s14.87-.83,21.06-11.14c-8.3-26.78-12.79-113.87-11.61-160.15,0.12-4.36.28-8.34,0.49-11.89,7.27-1,16.48-6.38,26-12.38,13.72-8.64,28.12-18.56,38.36-18.56,10.79,0,21.58,1.6,29.39,4.8,4.72,1.94,8.35,4.47,10.22,7.58,4.94,8.24,3.3,14,9.9,24.75s51.16,34.65,61.88,60.64,11.14,52,11.14,52a28.67,28.67,0,0,0-5.48,6c-2,3-3.34,6.75-1.63,10.36,3.7,7.85,19.18,6.81,30.62,2.17,0.42-15.26,6.19-32.17,6.19-32.17s-16.51-26.41-23.51-59.4a38.92,38.92,0,0,1-6.19-4.8c-7.19-6.61-15.07-17-18.56-24.91C609.58,356.89,623.6,295,575.76,215c0,0,10.95-19,39.19-34.24,26-14,47.82-23.33,77.14-25.17,4.79-.3,7-1.2,8.55-2.7" transform="translate(-257.51 -24.09)"/><path class="cls-11" d="M313.32,44.4a40.1,40.1,0,0,1-7,6.6c-9.68,7-15.95,9.3-19,14.23-2.11,3.44-2.66,7.43-2.91,11.41-0.41,6.52,0,13-4.31,16.84-10.1,9.08-14.44,13-15.68,15.47-0.67,1.33-.19,4.18.25,7.18,0.38,2.57.75,5.26,0.37,7.25-0.55,2.88-3.2,8.55-4.91,13.88a25.44,25.44,0,0,0-1.49,7.37c0,5.36,2.48,11.54,7.64,10.92s8.21-10.87,13.09-9.61l0.11,0c5,1.44,1.86,7.12,12.79,10.83,3.8,1.52,6,3.94,7.43,8.73a41.9,41.9,0,0,1,1.23,6.12c0.19,1.12.35,2.26,0.49,3.44,4.06,35.29-14,95.81-11.63,115.37,2.48,20.21.82,1.24,12.38,55.69s-1.64,147.28-4.94,151-18.46,7.73-21.36,10.21-4.74,7.94-1.86,12.07,17.44,6.6,25.68,4.94,16.6-4,18.26-9-1.24-22,13.92-41.77C331,444.32,342.09,386.8,347,363c1.33-6.44,2.2-10.41,2.26-10.66" transform="translate(-257.51 -24.09)"/><path class="cls-11" d="M385.13,34.47c-19.33-9.93-37.23-9.31-49.51-6.19-1.29.33-2.51,0.69-3.67,1.06a29,29,0,0,0-6.23,2.83c-5.41,3.3-8.6,7.85-12.36,12.21" transform="translate(-257.51 -24.09)"/><path class="cls-11" d="M390.31,37.37c-1.73-1.06-3.44-2-5.15-2.89" transform="translate(-257.51 -24.09)"/><path class="cls-13" d="M401.16,54.73c2.51,5,4.72,13,4.62,25.35-0.11,14.4-5.35,42.25-8.92,63.43-1.94,11.57-3.39,21.15-3.24,25.48,0.4,11.55,9.28,26.19,27,22.69,7.17-1.42,12.54-5.28,17.41-10.43,7.19-7.62,13.29-18,22.39-27.52,15.27-15.89,29.6-26.29,27.44-37.34-2.38-12.15-39.64-43.58-65.31-63.26-12.24-9.4-21.87-16.1-23.8-16.77-2.78-1-5.91-.13-8.47,1a26.29,26.29,0,0,0-5.15,3.11" transform="translate(-257.51 -24.09)"/><path class="cls-13" d="M394.24,46.66s3.48,1.52,6.6,7.46" transform="translate(-257.51 -24.09)"/><path class="cls-11" d="M260.57,63.16c-2.85,6.23-2,12.89-.35,19.61,2.18,8.86,5.79,17.87,4.26,26.19" transform="translate(-257.51 -24.09)"/><path class="cls-11" d="M335.66,28.31l0,0c-2.73-2-10.72-4.49-18.11-1.82-5,1.82-6.81,6.8-14.85,10.32s-35.47,12-42.07,26.38" transform="translate(-257.51 -24.09)"/><path class="cls-11" d="M280.17,93.49c10.73-8,35.48-19.7,41.67-26.72" transform="translate(-257.51 -24.09)"/><path class="cls-13" d="M300,165.48c2.49,4,4.47,4.85,6.36,4.9,1.55,0,3-.48,4.67-0.31,3.49,0.35,5.63,5,9.46,5h0.39c4.07-.33,5.93-4.46,10.27-5.29s6.6,1.45,10.72,0,1.44-5.36,5-6.8,5.09,1.52,7.84-.42c3.5-2.48,1.24-8,4.54-10.93s16.37-9.86,19.62-23.38q0.11-.38.18-0.75c2.48-11.76-.82-25.37-4.34-28.05" transform="translate(-257.51 -24.09)"/><path class="cls-11" d="M278.83,133.71a55.47,55.47,0,0,0-.23,6.1,20.79,20.79,0,0,0,.85,6.07" transform="translate(-257.51 -24.09)"/><path class="cls-10" d="M321.82,66.76a23.54,23.54,0,0,1-4.73,3.84s-0.73-8.05-12-9a10.7,10.7,0,0,1,.82-1.76c3.1-5.31,11.08-9.39,16.19-4.63A9.1,9.1,0,0,1,324.25,58a6.46,6.46,0,0,1-.38,6A13.9,13.9,0,0,1,321.82,66.76Z" transform="translate(-257.51 -24.09)"/><path d="M367.16,105.07a1.19,1.19,0,0,1-1-1.89c0.07-.09,6.71-8.94,17.49-4a1.19,1.19,0,0,1-1,2.16,11.71,11.71,0,0,0-14.57,3.23A1.19,1.19,0,0,1,367.16,105.07Z" transform="translate(-257.51 -24.09)"/><path class="cls-14" d="M293.16,109a43.17,43.17,0,0,1-16.79,0C267,107.1,262.12,112,262.12,112h0c0.25-3,2.14-6.9,5.29-8.21,3.92-1.66,9.34.79,13.6,1.34,4,0.52,15.14-2.07,21.36,2.08a9.92,9.92,0,0,1,2.26,2.11C299.86,107.11,296,108.47,293.16,109Z" transform="translate(-257.51 -24.09)"/><path class="cls-15" d="M262.12,113.5s4.91-5.65,14.25-3.81a41,41,0,0,0,16.79-.37c2.8-.49,6.69-2,11.45.17a10.16,10.16,0,0,1,1.18,1.64c-1.93,3.69-8.92,4.9-16.75,5-5.13.1-10.62,0.85-15.31,0.37-0.35-.42-1-3-1.82,1h0c-5.69-4-9.78-1.79-9.78-1.79a15.45,15.45,0,0,1,0-2.21h0Z" transform="translate(-257.51 -24.09)"/><path class="cls-16" d="M293.58,131.65a4.79,4.79,0,0,1-1.41-.39l0.06,0-3.45-3.74v0c-0.1-.23-0.14-0.36-0.14-0.36a14,14,0,0,1,1.81-7.35,1.61,1.61,0,0,0-1.38-2.57v-1.06c7.83-.14,14.82-1.39,16.75-5.09a11.86,11.86,0,0,1,1,9.87C304.72,126.49,297.14,132.06,293.58,131.65Z" transform="translate(-257.51 -24.09)"/><path d="M273.26,118.23c-1.7,1.8-2.5,5.77-2.87,5.77h0c0.57,0-1-6.73.8-8a1,1,0,0,1,.73,0h0a17.29,17.29,0,0,1,1.82-.23C274.26,116.43,274.13,117.31,273.26,118.23Z" transform="translate(-257.51 -24.09)"/><path class="cls-17" d="M288.78,127.49l3.45,3.74-0.06,0A7.36,7.36,0,0,1,288.78,127.49Z" transform="translate(-257.51 -24.09)"/><path d="M289.05,117.19a1.61,1.61,0,0,1,1.38,2.57,14,14,0,0,0-1.81,7.35c-1.72-2.79-2.42-8.3-.82-9.49A2.09,2.09,0,0,1,289.05,117.19Z" transform="translate(-257.51 -24.09)"/><path class="cls-16" d="M288.77,127.47v0a7.36,7.36,0,0,0,3.39,3.76c-0.74.3-8.24,3.25-12.21,2.87-4.18-.42-9.9-7-9.9-7a13.32,13.32,0,0,1,.32-3.09,11.91,11.91,0,0,1,2.87-5.79,2.36,2.36,0,0,0,.48-2.88,132,132,0,0,0,15.31.77v1.06a2.09,2.09,0,0,0-1.25.43c-1.6,1.19-.89,6.71.82,9.49C288.62,127.11,288.67,127.24,288.77,127.47Z" transform="translate(-257.51 -24.09)"/><path class="cls-16" d="M271.9,115.17a5.47,5.47,0,0,0-.73.43c-1.82,1.27-.23,6.59-0.8,8.43a1,1,0,0,1-.31.5c-2.68,2.06-7.53-7.06-7.94-10.72C262.12,113.81,266.21,114.52,271.9,115.17Z" transform="translate(-257.51 -24.09)"/><path class="cls-13" d="M271.91,115.17a1.45,1.45,0,0,1,1.82.19,2.36,2.36,0,0,1-.48,2.88,11.91,11.91,0,0,0-2.87,5.79,13.32,13.32,0,0,0-.32,3.09s5.72,6.6,9.9,7c4,0.38,11.47-2.57,12.21-2.87l0.06,0" transform="translate(-257.51 -24.09)"/><path class="cls-13" d="M288.78,127.49a7.36,7.36,0,0,0,3.39,3.76,4.79,4.79,0,0,0,1.41.39c3.56,0.41,11.14-5.16,13.2-10.73a11.86,11.86,0,0,0-1-9.87,11,11,0,0,0-1.18-1.73,9.91,9.91,0,0,0-2.26-2.11c-6.22-4.14-17.33-1.55-21.36-2.07-4.26-.55-9.68-3-13.6-1.33-3.14,1.31-5,4.93-5.29,8.23a9.73,9.73,0,0,0,0,1.77c0.42,3.66,5.26,12.78,7.94,10.72a1,1,0,0,0,.31-0.5c0.57-1.85-1-7.16.8-8.43a5.47,5.47,0,0,1,.73-0.43" transform="translate(-257.51 -24.09)"/><path class="cls-13" d="M288.62,127.11c-1.72-2.79-2.42-8.3-.82-9.49a2.09,2.09,0,0,1,1.25-.43,1.61,1.61,0,0,1,1.38,2.57,14,14,0,0,0-1.81,7.35s0,0.13.14,0.36" transform="translate(-257.51 -24.09)"/><polyline class="cls-13" points="31.27 103.41 31.26 103.38 31.11 103.23"/><path d="M330.71,47.79a1.19,1.19,0,0,1-.82-0.33c-3.89-3.73-8.91-.68-9-0.65a1.19,1.19,0,1,1-1.26-2c2.28-1.42,7.7-3,11.87,1A1.19,1.19,0,0,1,330.71,47.79Z" transform="translate(-257.51 -24.09)"/><path d="M392.17,59.2a1.19,1.19,0,0,1-1.17-1,6.75,6.75,0,0,0-2.72-4.68,7,7,0,0,0-4.91-.78,1.19,1.19,0,0,1-.57-2.31,9.39,9.39,0,0,1,6.75,1.08,9,9,0,0,1,3.78,6.25,1.19,1.19,0,0,1-1,1.39Z" transform="translate(-257.51 -24.09)"/><path class="cls-8" d="M376.4,66A13.27,13.27,0,0,1,382,78.94c-6.57-2.1-12.72-1-17.93.91l-0.92-2.49C370.72,74.73,379.05,73.32,376.4,66Z" transform="translate(-257.51 -24.09)"/><path class="cls-9" d="M376.4,66c2.66,7.29-5.68,8.7-13.28,11.33A29.45,29.45,0,0,0,357,80.14l-0.82,0c-1-4.91.94-14.47,10.74-15.87A13.46,13.46,0,0,1,376.4,66Z" transform="translate(-257.51 -24.09)"/><path class="cls-8" d="M363.12,77.36L364,79.85a69.84,69.84,0,0,0-6.72,2.92,4.71,4.71,0,0,1-1.16-2.6l0.82,0A29.45,29.45,0,0,1,363.12,77.36Z" transform="translate(-257.51 -24.09)"/><path class="cls-10" d="M364,79.85a69.84,69.84,0,0,0-6.72,2.92,4.71,4.71,0,0,1-1.16-2.6c-1-4.91.94-14.47,10.74-15.87A13.46,13.46,0,0,1,376.4,66,13.27,13.27,0,0,1,382,78.94C375.39,76.85,369.24,78,364,79.85Z" transform="translate(-257.51 -24.09)"/><path d="M368.76,73.59a4.12,4.12,0,0,0-4.11,4.11,4.07,4.07,0,0,0,.44,1.82,0.3,0.3,0,0,0,.27.16h0.09a31.72,31.72,0,0,1,7.13-1.47,0.37,0.37,0,0,0,.28-0.34,1.17,1.17,0,0,0,0-.16A4.12,4.12,0,0,0,368.76,73.59Z" transform="translate(-257.51 -24.09)"/><path d="M314.72,61.43a4.12,4.12,0,0,0-3.36,1.75,0.3,0.3,0,0,0,.11.44,10,10,0,0,1,4.88,5.32,0.3,0.3,0,0,0,.18.18l0.1,0a0.31,0.31,0,0,0,.15,0,4.07,4.07,0,0,0,2.06-3.54A4.12,4.12,0,0,0,314.72,61.43Z" transform="translate(-257.51 -24.09)"/><path d="M404.23,364.91a1.19,1.19,0,0,1-1.1-.73c-8.19-19.32-17.69-29.67-22.62-34.13a1.19,1.19,0,0,1,1.6-1.77c5.08,4.58,14.85,15.22,23.22,35A1.19,1.19,0,0,1,404.23,364.91Z" transform="translate(-257.51 -24.09)"/><path d="M445.73,352.57h-0.11a1.19,1.19,0,0,1-1.07-1.3c1.8-18.78,7.69-31.26,10.56-35.23a1.19,1.19,0,0,1,1.93,1.39c-2.73,3.79-8.36,15.79-10.12,34.07A1.19,1.19,0,0,1,445.73,352.57Z" transform="translate(-257.51 -24.09)"/><path d="M350,353.87a1.19,1.19,0,0,1-.71-0.24,104.79,104.79,0,0,1-18.84-18.26,1.19,1.19,0,0,1,1.89-1.45,104.4,104.4,0,0,0,18.37,17.8A1.19,1.19,0,0,1,350,353.87Z" transform="translate(-257.51 -24.09)"/><path d="M421.05,512a1.19,1.19,0,0,1-.46-2.29c0.66-.28,16.19-6.69,24.68-0.48a1.19,1.19,0,1,1-1.41,1.92c-7.4-5.41-22.2.69-22.35,0.76A1.2,1.2,0,0,1,421.05,512Z" transform="translate(-257.51 -24.09)"/><circle cx="49.06" cy="120.66" r="1.24"/><path d="M306.57,146.13a1.39,1.39,0,1,1,1.39-1.39A1.39,1.39,0,0,1,306.57,146.13Zm0-2.47a1.09,1.09,0,1,0,1.09,1.09A1.09,1.09,0,0,0,306.57,143.66Z" transform="translate(-257.51 -24.09)"/><circle cx="65.46" cy="108.59" r="1.24"/><path d="M323,134.07a1.39,1.39,0,1,1,1.39-1.39A1.39,1.39,0,0,1,323,134.07Zm0-2.48a1.09,1.09,0,1,0,1.09,1.09A1.09,1.09,0,0,0,323,131.59Z" transform="translate(-257.51 -24.09)"/><circle cx="71.34" cy="126.54" r="1.24"/><path d="M328.85,152a1.39,1.39,0,1,1,1.39-1.39A1.39,1.39,0,0,1,328.85,152Zm0-2.47a1.09,1.09,0,1,0,1.09,1.09A1.09,1.09,0,0,0,328.85,149.54Z" transform="translate(-257.51 -24.09)"/><path d="M275.94,508.56a1.19,1.19,0,0,1-.58-2.23c0.81-.46,20-11.07,32-1.25a1.19,1.19,0,1,1-1.51,1.84c-10.69-8.79-29.11,1.38-29.29,1.49A1.18,1.18,0,0,1,275.94,508.56Z" transform="translate(-257.51 -24.09)"/><path d="M528.11,472.91a1.19,1.19,0,0,1-.59-0.16c-11.06-6.34-22-.6-22.06-0.55a1.19,1.19,0,0,1-1.13-2.1c0.49-.27,12.18-6.42,24.38.57A1.19,1.19,0,0,1,528.11,472.91Z" transform="translate(-257.51 -24.09)"/><path d="M647.82,471.89a1.18,1.18,0,0,1-.64-0.19c-5.34-3.42-14-.67-14.13-0.64a1.19,1.19,0,0,1-.73-2.27c0.4-.13,9.85-3.13,16.15.9A1.19,1.19,0,0,1,647.82,471.89Z" transform="translate(-257.51 -24.09)"/><path d="M285.52,513.77a6.81,6.81,0,0,0-1.19,1.19,8.52,8.52,0,0,0-.93,1.42,7.47,7.47,0,0,0-.4.86c-0.14.29-.21,0.61-0.32,0.91s-0.15.63-.22,0.93l-0.12.91a11.78,11.78,0,0,0,0,1.62,9.14,9.14,0,0,0,.12,1.14l0.06,0.43-2.38.15,0-.51a11.17,11.17,0,0,1,.15-1.33,13.64,13.64,0,0,1,.42-1.83l0.37-1c0.15-.33.3-0.66,0.47-1a10,10,0,0,1,2.49-3A6.9,6.9,0,0,1,285.52,513.77Z" transform="translate(-257.51 -24.09)"/><path d="M297.43,516.16a6.83,6.83,0,0,0-1.19,1.19,8.52,8.52,0,0,0-.93,1.42,7.55,7.55,0,0,0-.4.86c-0.14.29-.21,0.61-0.32,0.91s-0.15.63-.22,0.93l-0.12.91a11.8,11.8,0,0,0,0,1.62,9.19,9.19,0,0,0,.12,1.14l0.06,0.43-2.38.15,0-.51a11.17,11.17,0,0,1,.15-1.33,13.58,13.58,0,0,1,.42-1.83l0.37-1c0.15-.33.3-0.66,0.47-1a10,10,0,0,1,2.49-3A6.93,6.93,0,0,1,297.43,516.16Z" transform="translate(-257.51 -24.09)"/><path d="M428.17,524.08a6.84,6.84,0,0,0-.79,1.49,8.52,8.52,0,0,0-.48,1.63,7.51,7.51,0,0,0-.13.93c0,0.31,0,.64,0,1s0,0.64.06,1l0.15,0.91a11.79,11.79,0,0,0,.46,1.55,9.21,9.21,0,0,0,.45,1.05L428,534l-2.23.84-0.11-.5a11.2,11.2,0,0,1-.24-1.31,13.67,13.67,0,0,1-.13-1.88l0.06-1.05c0.05-.36.1-0.72,0.17-1.07a10,10,0,0,1,1.51-3.58A6.91,6.91,0,0,1,428.17,524.08Z" transform="translate(-257.51 -24.09)"/><path d="M440.26,524.11a6.84,6.84,0,0,0-.84,1.46,8.53,8.53,0,0,0-.53,1.61,7.59,7.59,0,0,0-.16.93c-0.06.31,0,.64-0.07,1s0,0.64,0,1l0.12,0.91a11.8,11.8,0,0,0,.41,1.57,9.25,9.25,0,0,0,.41,1.07l0.17,0.4-2.26.76-0.09-.5a11.13,11.13,0,0,1-.2-1.32,13.61,13.61,0,0,1-.07-1.88l0.1-1.05c0.06-.35.12-0.71,0.2-1.07a10,10,0,0,1,1.63-3.53A6.91,6.91,0,0,1,440.26,524.11Z" transform="translate(-257.51 -24.09)"/><path d="M509.45,480.42a6.83,6.83,0,0,0-1.19,1.19,8.52,8.52,0,0,0-.93,1.42,7.54,7.54,0,0,0-.4.86c-0.14.29-.21,0.61-0.32,0.91s-0.15.63-.22,0.93l-0.12.91a11.8,11.8,0,0,0,0,1.62,9.29,9.29,0,0,0,.12,1.14l0.06,0.43-2.38.15,0-.51a11.16,11.16,0,0,1,.15-1.33,13.66,13.66,0,0,1,.42-1.83l0.37-1c0.15-.33.3-0.66,0.47-1a10,10,0,0,1,2.49-3A6.92,6.92,0,0,1,509.45,480.42Z" transform="translate(-257.51 -24.09)"/><path d="M519,480.42a6.84,6.84,0,0,0-1.19,1.19,8.51,8.51,0,0,0-.93,1.42,7.52,7.52,0,0,0-.4.86c-0.14.29-.21,0.61-0.32,0.91s-0.15.63-.22,0.93l-0.12.91a11.73,11.73,0,0,0,0,1.62,9.21,9.21,0,0,0,.12,1.14l0.06,0.43-2.38.15,0-.51a11.18,11.18,0,0,1,.15-1.33,13.63,13.63,0,0,1,.42-1.83l0.37-1c0.15-.33.3-0.66,0.47-1a10,10,0,0,1,2.49-3A6.92,6.92,0,0,1,519,480.42Z" transform="translate(-257.51 -24.09)"/><path d="M634.52,481.61a6.84,6.84,0,0,0-1.19,1.19,8.51,8.51,0,0,0-.93,1.42,7.59,7.59,0,0,0-.4.86c-0.14.29-.21,0.61-0.32,0.91s-0.15.63-.22,0.93l-0.12.91a11.78,11.78,0,0,0,0,1.62,9.29,9.29,0,0,0,.12,1.13L631.5,491l-2.38.15,0-.51a11.16,11.16,0,0,1,.15-1.33,13.63,13.63,0,0,1,.42-1.83l0.37-1c0.15-.33.3-0.66,0.47-1a10,10,0,0,1,2.49-3A6.92,6.92,0,0,1,634.52,481.61Z" transform="translate(-257.51 -24.09)"/><path d="M644,482.81a6.83,6.83,0,0,0-1.19,1.19,8.48,8.48,0,0,0-.93,1.42,7.47,7.47,0,0,0-.4.86c-0.14.29-.21,0.61-0.32,0.91s-0.15.63-.22,0.93l-0.12.91a11.8,11.8,0,0,0,0,1.62,9.14,9.14,0,0,0,.12,1.14L641,492.2l-2.38.15,0-.51a11.08,11.08,0,0,1,.15-1.33,13.62,13.62,0,0,1,.42-1.83l0.37-1c0.15-.33.3-0.66,0.47-1a10,10,0,0,1,2.49-3A6.92,6.92,0,0,1,644,482.81Z" transform="translate(-257.51 -24.09)"/></svg>