<svg id="GraphicMama" xmlns="http://www.w3.org/2000/svg" viewBox="0 0 750.79 554.05"><defs><style>.cls-1,.cls-5{fill:#e1ad74;}.cls-2{fill:#bf8f5c;}.cls-3{fill:#3d2e27;}.cls-4{fill:#2e231d;}.cls-5{stroke:#e1ad74;}.cls-5,.cls-8{stroke-miterlimit:10;}.cls-11,.cls-5,.cls-8{stroke-width:0.91px;}.cls-6{fill:#4f3b32;}.cls-7{fill:#8c7c72;}.cls-8{fill:#211916;stroke:#211916;}.cls-9{fill:#61534a;}.cls-10{fill:none;stroke-width:1.82px;}.cls-10,.cls-11{stroke:#000;stroke-linecap:round;stroke-linejoin:round;}</style></defs><title>dog6-vector</title><path class="cls-1" d="M2750.88,1099.9s-2.44,6.88-9,8.6c-5.3-1.72-10.31-8.17-10.31-8.17l-0.65-2.1q9-2.77,18.45-6.49l-0.6.43S2748.81,1096.93,2750.88,1099.9Z" transform="translate(-2025.15 -837.27)"/><path class="cls-2" d="M2708.3,1111.5l0-.16,10.48-1.37,7.29,1.82,5.48-11.47s0,8.75,3.43,12c0,0-7.31,8.74-15.48,9.46C2712.6,1121.68,2708.3,1111.5,2708.3,1111.5Z" transform="translate(-2025.15 -837.27)"/><path class="cls-1" d="M2566.17,1085.38c46.82,17.08,98.52,33.18,164.71,12.84l0.65,2.1L2726,1111.8l-7.29-1.82-10.48,1.37-10.48,1.37-2.73,7.29-6.38-4.56-12.76,3.64-3.64,9.11-3.64-6.38-18.22.91L2644,1130v-7.29l-10-2.73-8.2,6.38v-7.29c-1.37-1.37-6.71-5.73-27.33-9.11C2586.8,1108.06,2575.21,1096.83,2566.17,1085.38Z" transform="translate(-2025.15 -837.27)"/><path class="cls-2" d="M2540.84,1076.21c1,0.28,2,.61,3,1,7.35,2.66,14.79,5.45,22.35,8.21,9,11.44,20.63,22.68,32.32,24.59,20.63,3.38,26,7.74,27.33,9.11v7.29l8.2-6.38,10,2.73V1130l6.38-7.29,18.22-.91,3.64,6.38,3.64-9.11,12.76-3.64,6.38,4.56,2.73-7.29,10.48-1.37,0,0.16s-1.29,10.11,3.44,14.62a45.39,45.39,0,0,1-19.78,7.75,17.64,17.64,0,0,1-8.17-12.47s-4.87,6.45-4.3,14.19a23.66,23.66,0,0,1-11.61,3.87c-4.74-2-4.74-11.18-4.74-11.18a29,29,0,0,0-3.43,11.4c-5.88.34-9.25-5.59-9-10.54,0,0-3.15,2.59-3,9-3,2.15-10.31.43-10.31,0.43-2.86-3-2.37-10.3-1.3-12-0.27.1-4.66,1.9-7.3,7.74-5.28,1.82-10.75-1.29-10.75-1.29-2.15-3.87-2.37-11-.43-13.33,0,0-6.74,3.44-7.89,8.6-14.44,2.25-23-.72-32.81-7.55C2566.49,1104,2553.24,1089,2540.84,1076.21Z" transform="translate(-2025.15 -837.27)"/><path class="cls-2" d="M2641.21,1368.24s-23.79,2.58-30.1-8.6c-0.58-1-.49-3.28.29-5.85,2.2,1,25.95,11.52,38.1-2.82v-85.19s-25.87-20.49-37.54-40.31c13.33,13.76,43.86,31.82,43.86,31.82s-2,62.21,4.3,95.47C2661.16,1358.13,2641.21,1368.24,2641.21,1368.24Z" transform="translate(-2025.15 -837.27)"/><path class="cls-3" d="M2730.88,1098.22c-66.19,20.35-117.89,4.25-164.71-12.84a191.09,191.09,0,0,1-17.34-26.43l0.12-.52c29.12,6.62,68.15,12.55,105.17,8.78,71.82-7.31,115.25-32.25,119.55-30.1s-0.77,37.67-24.34,54.62Q2739.91,1095.46,2730.88,1098.22Z" transform="translate(-2025.15 -837.27)"/><path class="cls-4" d="M2540.84,1076.21c-3.63-3.75-7.18-7.33-10.57-10.72-6.89-6.89-16.15-13.61-27.29-20.13a414.36,414.36,0,0,0,46,13.07l-0.12.52a191.09,191.09,0,0,0,17.34,26.43c-7.56-2.76-15-5.55-22.35-8.21C2542.82,1076.82,2541.83,1076.49,2540.84,1076.21Z" transform="translate(-2025.15 -837.27)"/><path class="cls-2" d="M2479,1349.32c-15.05,6-33,0-33,0a25.8,25.8,0,0,1-1.72-9.74h0.25c23.23,12.76,35.54-2.73,35.54-2.73,10.48-13.21,37.81-56.49,37.81-56.49-8.66-8.66-20-41.91-40.55-56.49s-52.85-6.38-52.85-6.38h0a94.28,94.28,0,0,1-6.36-24.76c26.09-7.53,33.92-16.3,33.92-16.3,20.81,27.06,42.82,45.3,62.43,57.56-5.8,19.71,17.84,48.09,17.84,48.09C2506.63,1308,2479,1349.32,2479,1349.32Z" transform="translate(-2025.15 -837.27)"/><path class="cls-2" d="M2418.08,1192.74c-17.12,4.94-42.1,9.34-77.89,10.36a162,162,0,0,0,4.26-24.69c2.72,1.56,38,20.49,101.88-10.12l0.41-.22c2.91,5.1,5.27,8.37,5.27,8.37S2444.16,1185.22,2418.08,1192.74Z" transform="translate(-2025.15 -837.27)"/><path class="cls-5" d="M2441.77,1156.44c-2.68-28.55,52.41-93.59,99.07-80.24,12.4,12.84,25.66,27.78,36,44.52a130,130,0,0,1,15.33,34.21c9.89,36.56,6.45,56.77,19.78,70.53,11.67,19.82,37.54,40.31,37.54,40.31V1351c-12.15,14.33-35.91,3.83-38.1,2.82,1.8-5.9,7.32-13.45,16.91-11.35,0,0,7.31-45.59-11.19-62.79s-31.39-19.78-43-21.5c-6.93-1-30.7-6-59.7-24.15-19.62-12.26-41.62-30.5-62.43-57.56,0,0-2.36-3.27-5.27-8.37a108.5,108.5,0,0,1-5.62-11.29Z" transform="translate(-2025.15 -837.27)"/><path class="cls-1" d="M2446.84,1331.54c5.3-7.16,19.49-3.15,19.49-3.15s20.5-26.23,22.36-33.26-6.73-23.22-8.6-26.09-8.74-5.3-33.82-22.65c-10.93-7.55-17.69-18.71-21.83-28.89h0s32.35-8.2,52.85,6.38,31.89,47.84,40.55,56.49c0,0-27.33,43.28-37.81,56.49,0,0-12.3,15.49-35.54,2.73h-0.25A14.1,14.1,0,0,1,2446.84,1331.54Z" transform="translate(-2025.15 -837.27)"/><path class="cls-3" d="M2286.86,969.16s4.87,9.75,7.74,12c-5,3.15-5.17,7.74-5.17,7.74s59.35-.86,115.25,16.35c38.68,11.9,73.23,25.45,98.26,40.06h0c11.14,6.51,20.4,13.24,27.29,20.13,3.39,3.39,6.94,7,10.57,10.72-46.66-13.36-101.75,51.69-99.07,80.24l-0.66.34c-16,8.13-49.76,14.17-71.33,8.77-78.63-19.65-64.69-86.56-87.47-102-5-3.37-11.42-4.77-18.17-5a18.38,18.38,0,0,1-15.91-26C2273,978.92,2253.32,921,2253.32,921c7.74,7.75,18.92,8.6,18.92,8.6s-4.16,17.63,8.6,30.1c-0.87,3.87-8.6,5.16-8.6,5.16S2279.41,970.74,2286.86,969.16Z" transform="translate(-2025.15 -837.27)"/><path class="cls-2" d="M2245,1376.94s21.87,11.39,33.71.91c0,0,18.68-36.9,22.78-44.65,0,0-10.48-85.65,38.27-129.84l0.15,0.13c-3.66,4.54-37.16,48.46-30.64,127.76,0,0-18.07,39.13-25.8,57.62,0,0-29.68,3.44-35.26,0-2.76-1.69-4.79-6.85-4-12Z" transform="translate(-2025.15 -837.27)"/><path class="cls-2" d="M2254.07,1243c-2.24-11.19-20.29-35.55-32.16-41.59-2.18-10.31-3.85-17.22-3.85-17.22,5.28,1.76,34.93,29.57,48.22,55.54-1.82,12-4.07,81.49-4.07,81.49-12.76,10.89-31.24,54.18-31.24,54.18-5.17,2.44-29.68.87-31,0a13.61,13.61,0,0,1-5.38-10.15c4.29,0.93,27.24,5.53,33-1.07,6.38-7.29,18.68-36.45,25.51-44.65C2253.16,1319.54,2256.35,1254.39,2254.07,1243Z" transform="translate(-2025.15 -837.27)"/><path class="cls-3" d="M2212.08,838.26c4.13,1.17,2.23,15.54,6.83,21.68,5.17,6.89,13.77,15.05,18.07,24.08,4.16,8.76,8.33,28,15.62,36.22l-0.73.88c-1.37,17.77-19.13,28-32.12,19.82-7.26-4.58-7.08-9-5.15-15.81,2.1-7.33,6.22-17.4,5.18-33.37-0.16-11.31-8.46-29.68-7.74-53.32Z" transform="translate(-2025.15 -837.27)"/><path class="cls-1" d="M2221.9,1201.41c11.87,6,29.92,30.41,32.16,41.59,2.28,11.39-.91,76.54-0.91,76.54-6.83,8.2-19.13,37.36-25.51,44.65-5.78,6.6-28.73,2-33,1.07a15.15,15.15,0,0,1,1.93-7.62c5.45-10.32,21.5-6.6,21.5-6.6s10.32-24.08,13.76-32.68,1.29-18.92,0-50.74C2231,1247.43,2225.69,1219.29,2221.9,1201.41Z" transform="translate(-2025.15 -837.27)"/><path class="cls-4" d="M2152.58,846.21a0.81,0.81,0,0,1,1.43.39c0.63,4.06,2.54,14.42,6.42,21.07,9,15.48,19.56,19.81,20.64,33.45l0,0.16a67.32,67.32,0,0,0-24,7.83s1.2-17.14-1.81-29.4S2149.24,852.91,2152.58,846.21Z" transform="translate(-2025.15 -837.27)"/><path class="cls-3" d="M2149.37,915l-0.29-.33c0.15-.15.3-0.28,0.46-0.41a47.47,47.47,0,0,1,7.55-5.11,67.32,67.32,0,0,1,24-7.83,26.58,26.58,0,0,1,5.14-.07l0.08,0a49,49,0,0,0,3.36-9.49c2.15-9.46,1.29-24.94,5.16-31.83,0,0-2.41,16.08,2.37,42.73a124.26,124.26,0,0,1,2,20.84,8,8,0,0,1-13.5,5.92C2171.54,916.78,2149.37,915,2149.37,915Z" transform="translate(-2025.15 -837.27)"/><path class="cls-5" d="M2253.32,921s19.73,57.92-5.08,111.45a18.38,18.38,0,0,0,15.91,26c6.75,0.25,13.2,1.66,18.17,5,22.78,15.49,8.84,82.4,87.47,102,21.57,5.39,55.37-.65,71.33-8.77a108.5,108.5,0,0,0,5.62,11.29l-0.41.22c-63.85,30.62-99.16,11.68-101.88,10.12a162,162,0,0,1-4.26,24.69l-0.32.39-0.15-.13c-48.75,44.19-38.27,129.84-38.27,129.84-4.1,7.74-22.78,44.65-22.78,44.65-11.85,10.48-33.71-.91-33.71-0.91l-0.81-.06c0.8-5.28,4.55-10.55,13.48-12.08,17.63-3,18.92-30.1,18.92-30.1s1.71-42.61-4.3-78.26a59.5,59.5,0,0,0-6-16.7c-13.28-26-42.93-53.79-48.22-55.54-6.45-2.15-6.45-2.15-12-5.17-12.61-19.78-12-43.86-12-43.86s-5.16,5.45-6.45,10.61c-6.45,3.16-17.63-6.3-17.63-6.3a88.7,88.7,0,0,1,0-18.92c-5.45.28-7.1,6-7.1,6s-10.39-24.94-6.77-49.89c0,0-3.39-5.59-8.55-2.58,0,0,2.58-18.63-2.55-29.24a21.58,21.58,0,0,0-7.3-8.46l0.37-.51c1.52-.63,22.17-9.59,9.89-29.3a6.44,6.44,0,0,1-.37-0.67c-4.13-7.69-10.48-36.26.77-66.19a0.3,0.3,0,0,0-.52-0.29c-8.77,11.67-16.83-.87-16.83-0.87l0-.06a13.71,13.71,0,0,0,2.83-2c4.55-4.3,8-12.54,12.25-18.31a22.71,22.71,0,0,1,3.09-3.53l0.29,0.33s22.17,1.81,36.29,14.46a8,8,0,0,0,13.5-5.92,124.26,124.26,0,0,0-2-20.84c-4.78-26.65-2.37-42.73-2.37-42.73,3.87-6.88,9-18.92,15.48-21.49a2.7,2.7,0,0,1,1.77-.18l0,0.18c-0.71,23.64,7.58,42,7.74,53.32,0.19,13.25-3.48,27.52-5.18,33.37h0c-1.93,6.78-2.11,11.23,5.15,15.81,13,8.2,30.75-2.05,32.12-19.82l0.73-.88C2252.84,920.51,2253.07,920.75,2253.32,921Z" transform="translate(-2025.15 -837.27)"/><path class="cls-2" d="M2149.08,914.64a22.71,22.71,0,0,0-3.09,3.53h0a32,32,0,0,0,.7-23.82s-10.68-28.77,5.91-48.13c-3.34,6.7-.32,21.25,2.69,33.5s1.81,29.4,1.81,29.4a47.47,47.47,0,0,0-7.55,5.11C2149.38,914.36,2149.22,914.49,2149.08,914.64Z" transform="translate(-2025.15 -837.27)"/><path class="cls-6" d="M2130.94,938.57s8.05,12.54,16.83.87a0.3,0.3,0,0,1,.52.29c-11.25,29.92-4.9,58.5-.77,66.19l-0.85.67c-25.1,19.26-55.36,8.71-60.84,9.29-5.28.56-12.29,5.12-12.29,5.12h0c-1.88,1.08-3.78,2.1-6,1.49-7.32-2-14.77-11.2-17.76-15.26,6.31,1.84,13.5,2.81,20.34,1.21,0,0,.22-4.24-4.84-6.27-6.12-2.48-6.82-6-4.9-8.93,1.68-2.58,7-2.07,9.74,2.48a28.17,28.17,0,0,1,3.42,9.28c3.33,1.44,14.42,4.47,22.39-5.73,8.6-11,1.49-25.18-.86-26.66a24.67,24.67,0,0,0-6.22-2.5c-7.27-2.05-18.51-3.39-29.77-2.66v-0.53s26.84-12.3,67-26l-0.12-.36a28.89,28.89,0,0,0,4.91-2.1Z" transform="translate(-2025.15 -837.27)"/><path class="cls-7" d="M2126,940.6l0.12,0.36c-40.19,13.67-67,26-67,26v0.53a74.86,74.86,0,0,0-14.8,2.35c9.28-4.88,28.93-14.82,42.13-18.7C2106.19,945.31,2118.41,943.16,2126,940.6Z" transform="translate(-2025.15 -837.27)"/><path class="cls-8" d="M2088.85,970.11a24.67,24.67,0,0,1,6.22,2.5c-30.53,26.88-68.65,15.58-68.65,15.58l-0.12,0a16,16,0,0,1,0-5.28c0.42-2.53,2.31-5.37,6.09-7.95,1.11,4.84,35.4-3.2,56.49-4.56v-0.31Z" transform="translate(-2025.15 -837.27)"/><path class="cls-4" d="M2138,1035.88l-0.37.51c-7.83-5.42-21.33-8.15-44.3-6.16-8-2.58-6.29-10.89-14.62-11.18-1.83-.06-3.48,1-5.17,1.95h0s7-4.56,12.29-5.12c5.48-.58,35.74,10,60.84-9.29l0.85-.67a6.44,6.44,0,0,0,.37.67C2160.17,1026.28,2139.53,1035.25,2138,1035.88Z" transform="translate(-2025.15 -837.27)"/><path class="cls-9" d="M2059.08,967.45c11.25-.73,22.5.61,29.77,2.66v0.31c-21.09,1.37-55.38,9.4-56.49,4.56a35.61,35.61,0,0,1,8.43-4.1c1.14-.4,2.31-0.76,3.51-1.08A74.86,74.86,0,0,1,2059.08,967.45Z" transform="translate(-2025.15 -837.27)"/><path d="M2095.07,972.61c2.35,1.49,9.46,15.64.86,26.66-8,10.21-19.06,7.17-22.39,5.73a28.17,28.17,0,0,0-3.42-9.28c-2.72-4.55-8.06-5.06-9.74-2.48-1.91,2.93-1.22,6.45,4.9,8.93,5.06,2,4.84,6.27,4.84,6.27-6.83,1.59-14,.63-20.34-1.21a66.49,66.49,0,0,1-18.36-8.54c-1.5-1.18-4.29-5.47-5.12-10.49l0.12,0S2064.54,999.49,2095.07,972.61Z" transform="translate(-2025.15 -837.27)"/><path class="cls-10" d="M2044.28,969.8c9.28-4.88,28.93-14.82,42.13-18.7,19.77-5.8,32-7.95,39.58-10.51a28.89,28.89,0,0,0,4.91-2.1,13.71,13.71,0,0,0,2.83-2c4.55-4.3,8-12.54,12.25-18.31a22.71,22.71,0,0,1,3.09-3.53c0.15-.15.3-0.28,0.46-0.41a47.47,47.47,0,0,1,7.55-5.11,67.32,67.32,0,0,1,24-7.83,26.58,26.58,0,0,1,5.14-.07" transform="translate(-2025.15 -837.27)"/><path class="cls-10" d="M2503,1045.36c11.14,6.51,20.4,13.24,27.29,20.13,3.39,3.39,6.94,7,10.57,10.72,12.4,12.84,25.66,27.78,36,44.52a130,130,0,0,1,15.33,34.21c9.89,36.56,6.45,56.77,19.78,70.53s43.86,31.82,43.86,31.82-2,62.21,4.3,95.47c1,5.37-18.92,15.48-18.92,15.48s-23.79,2.58-30.1-8.6c-0.58-1-.49-3.28.29-5.85,1.8-5.9,7.32-13.45,16.91-11.35,0,0,7.31-45.59-11.19-62.79s-31.39-19.78-43-21.5c-6.93-1-30.7-6-59.7-24.15-19.62-12.26-41.62-30.5-62.43-57.56,0,0-7.84,8.77-33.92,16.3-17.12,4.94-42.1,9.34-77.89,10.36l-0.32.39c-3.66,4.54-37.16,48.46-30.64,127.76,0,0-18.07,39.13-25.8,57.62,0,0-29.68,3.44-35.26,0-2.76-1.69-4.79-6.85-4-12s4.55-10.55,13.48-12.08c17.63-3,18.92-30.1,18.92-30.1s1.71-42.61-4.3-78.26a59.5,59.5,0,0,0-6-16.7c-13.28-26-42.93-53.79-48.22-55.54-6.45-2.15-6.45-2.15-12-5.17-12.61-19.78-12-43.86-12-43.86s-5.16,5.45-6.45,10.61c-6.45,3.16-17.63-6.3-17.63-6.3a88.7,88.7,0,0,1,0-18.92c-5.45.28-7.1,6-7.1,6s-10.39-24.94-6.77-49.89c0,0-3.39-5.59-8.55-2.58,0,0,2.58-18.63-2.55-29.24a21.58,21.58,0,0,0-7.3-8.46c-7.83-5.42-21.33-8.15-44.3-6.16-8-2.58-6.29-10.89-14.62-11.18-1.83-.06-3.48,1-5.17,1.95-1.88,1.08-3.78,2.1-6,1.49-7.32-2-14.77-11.2-17.76-15.26" transform="translate(-2025.15 -837.27)"/><path class="cls-10" d="M2289.44,988.95s59.35-.86,115.25,16.35c38.68,11.9,73.23,25.45,98.26,40.06" transform="translate(-2025.15 -837.27)"/><path class="cls-10" d="M2181.08,910.69a73.52,73.52,0,0,0,5.24-9.43,49,49,0,0,0,3.36-9.49c2.15-9.46,1.29-24.94,5.16-31.83s9-18.92,15.48-21.49a2.7,2.7,0,0,1,1.77-.18c4.13,1.17,2.23,15.54,6.83,21.68,5.17,6.89,13.77,15.05,18.07,24.08,4.16,8.76,8.33,28,15.62,36.22,0.24,0.27.47,0.52,0.72,0.77,7.74,7.75,18.92,8.6,18.92,8.6s-4.16,17.63,8.6,30.1c-0.87,3.87-8.6,5.16-8.6,5.16s7.16,5.88,14.62,4.3c0,0,4.87,9.75,7.74,12-5,3.15-5.17,7.74-5.17,7.74s18.5,17.35,20.65,48.16" transform="translate(-2025.15 -837.27)"/><path class="cls-10" d="M2213.76,927.88s0.33-1,.84-2.75c1.7-5.85,5.38-20.12,5.18-33.37-0.16-11.31-8.46-29.68-7.74-53.32" transform="translate(-2025.15 -837.27)"/><path class="cls-10" d="M2146,918.16a32,32,0,0,0,.7-23.82s-10.68-28.77,5.91-48.13a0.81,0.81,0,0,1,1.43.39c0.63,4.06,2.54,14.42,6.42,21.07,9,15.48,19.56,19.81,20.64,33.45" transform="translate(-2025.15 -837.27)"/><path class="cls-10" d="M2157.08,909.12s1.2-17.14-1.81-29.4-6-26.81-2.69-33.5" transform="translate(-2025.15 -837.27)"/><path class="cls-10" d="M2073.54,1021s7-4.56,12.29-5.12c5.48-.58,33.29,16.05,80.06-22.22" transform="translate(-2025.15 -837.27)"/><path class="cls-10" d="M2044.28,969.8c-1.19.33-2.37,0.68-3.51,1.08a35.61,35.61,0,0,0-8.43,4.1c-3.78,2.58-5.67,5.41-6.09,7.95a16,16,0,0,0,0,5.28c0.83,5,3.62,9.31,5.12,10.49a66.49,66.49,0,0,0,18.36,8.54c6.31,1.84,13.5,2.81,20.34,1.21,0,0,.22-4.24-4.84-6.27-6.12-2.48-6.82-6-4.9-8.93,1.68-2.58,7-2.07,9.74,2.48a28.17,28.17,0,0,1,3.42,9.28c3.33,1.44,14.42,4.47,22.39-5.73,8.6-11,1.49-25.18-.86-26.66a24.67,24.67,0,0,0-6.22-2.5c-7.27-2.05-18.51-3.39-29.77-2.66A74.86,74.86,0,0,0,2044.28,969.8Z" transform="translate(-2025.15 -837.27)"/><path class="cls-10" d="M2026.42,988.19s38.11,11.3,68.65-15.58" transform="translate(-2025.15 -837.27)"/><path class="cls-10" d="M2636.05,1126.56h0c-0.27.1-4.66,1.9-7.3,7.74-5.28,1.82-10.75-1.29-10.75-1.29-2.15-3.87-2.37-11-.43-13.33,0,0-6.74,3.44-7.89,8.6-14.44,2.25-23-.72-32.81-7.55h0" transform="translate(-2025.15 -837.27)"/><path class="cls-10" d="M2503,1045.36h0a414.36,414.36,0,0,0,46,13.07c29.12,6.62,68.15,12.55,105.17,8.78,71.82-7.31,115.25-32.25,119.55-30.1s-0.77,37.67-24.34,54.62l-0.6.43s0.08,4.77,2.15,7.74c0,0-2.44,6.88-9,8.6-5.3-1.72-10.31-8.17-10.31-8.17s0,8.75,3.43,12c0,0-7.31,8.74-15.48,9.46-6.88-.15-11.18-10.32-11.18-10.32s-1.29,10.11,3.44,14.62a45.39,45.39,0,0,1-19.78,7.75,17.64,17.64,0,0,1-8.17-12.47s-4.87,6.45-4.3,14.19a23.66,23.66,0,0,1-11.61,3.87c-4.74-2-4.74-11.18-4.74-11.18a29,29,0,0,0-3.43,11.4c-5.88.34-9.25-5.59-9-10.54,0,0-3.15,2.59-3,9-3,2.15-10.31.43-10.31,0.43-2.86-3-2.37-10.3-1.3-12" transform="translate(-2025.15 -837.27)"/><path class="cls-10" d="M2218.06,1184.19s1.67,6.91,3.85,17.22c3.78,17.88,9.1,46,9.91,66.2,1.29,31.82,3.44,42.14,0,50.74s-13.76,32.68-13.76,32.68-16.05-3.73-21.5,6.6a15.15,15.15,0,0,0-1.93,7.62,13.61,13.61,0,0,0,5.38,10.15c1.28,0.87,25.79,2.44,31,0,0,0,18.49-43.29,31.24-54.18,0,0,2.25-69.48,4.07-81.49,0-.22.06-0.42,0.1-0.6" transform="translate(-2025.15 -837.27)"/><path class="cls-10" d="M2418.08,1192.74a94.28,94.28,0,0,0,6.36,24.76c4.14,10.19,10.9,21.34,21.83,28.89,25.08,17.35,32,19.78,33.82,22.65s10.47,19.06,8.6,26.09-22.36,33.26-22.36,33.26-14.19-4-19.49,3.15a14.1,14.1,0,0,0-2.59,8,25.8,25.8,0,0,0,1.72,9.74s17.92,6,33,0c0,0,27.68-41.28,53.32-67.22,0,0-23.64-28.38-17.84-48.09" transform="translate(-2025.15 -837.27)"/><path class="cls-10" d="M2340.19,1203.1a162,162,0,0,0,4.26-24.69,59.51,59.51,0,0,0,0-10" transform="translate(-2025.15 -837.27)"/><path class="cls-10" d="M2452,1176.44s-2.36-3.27-5.27-8.37a108.5,108.5,0,0,1-5.62-11.29,72.75,72.75,0,0,1-3.74-11" transform="translate(-2025.15 -837.27)"/><circle class="cls-11" cx="129.07" cy="103.48" r="3.1"/><circle class="cls-11" cx="116.68" cy="101.84" r="2.32"/><path class="cls-10" d="M2218.06,1351s7.31,2.58,9.46,6" transform="translate(-2025.15 -837.27)"/><path class="cls-10" d="M2257.62,1364.8s14.84-2.36,20.64,3" transform="translate(-2025.15 -837.27)"/><path class="cls-10" d="M2466.33,1328.39a43.91,43.91,0,0,1,8.84,5.45" transform="translate(-2025.15 -837.27)"/><path class="cls-10" d="M2628.31,1342.44a57,57,0,0,1,14.19,3" transform="translate(-2025.15 -837.27)"/><path class="cls-10" d="M2205.54,1363.73s-3.56,4-2.92,11.67" transform="translate(-2025.15 -837.27)"/><path class="cls-10" d="M2217.16,1365a16.09,16.09,0,0,0-2.28,10.93" transform="translate(-2025.15 -837.27)"/><path class="cls-10" d="M2255.43,1376.7a17.51,17.51,0,0,0-4.51,12.73" transform="translate(-2025.15 -837.27)"/><path class="cls-10" d="M2267.18,1378.8a16.09,16.09,0,0,0-3,11.23" transform="translate(-2025.15 -837.27)"/><path class="cls-10" d="M2452.56,1337.43s-4.48,4.15-4.88,12.29" transform="translate(-2025.15 -837.27)"/><path class="cls-10" d="M2462.72,1340.73s-3.54,3.53-2.74,10.6" transform="translate(-2025.15 -837.27)"/><path class="cls-10" d="M2620.24,1351.66s-4.11,3-5.58,11.62" transform="translate(-2025.15 -837.27)"/><path class="cls-10" d="M2632.42,1356.56a18.75,18.75,0,0,0-4.67,11.16" transform="translate(-2025.15 -837.27)"/></svg>